<svg xmlns="http://www.w3.org/2000/svg" width="46" height="88" viewBox="0 0 46 88"><g fill="none" fill-rule="evenodd"><path fill="#323E56" d="M9.887,0 C4.6409,0 0.3362,4.3047 0.3362,9.5508 L0.3362,78.4418 C0.3362,83.6879 4.637,88.0004 9.887,88.0004 L36.106,88.0004 C41.356,88.0004 45.6646,83.6918 45.6646,78.4418 L45.6646,9.5508 C45.6646,4.3008 41.3521,0 36.106,0 L9.887,0 Z M9.887,4 L36.106,4 C39.1802,4 41.6646,6.4805 41.6646,9.5508 L41.6646,13.2891 L4.3366,13.2891 L4.3366,9.5508 C4.3366,6.4766 6.8132,4 9.8874,4 L9.887,4 Z M4.3362,17.289 L41.6642,17.289 L41.6642,70.699 L4.3362,70.699 L4.3362,17.289 Z M4.3362,74.699 L41.6642,74.699 L41.6642,78.4373 C41.6642,81.5076 39.1759,83.9959 36.1056,83.9959 L9.8866,83.9959 C6.8163,83.9959 4.3358,81.5076 4.3358,78.4373 L4.3362,74.699 Z"/><path fill="#323E56" d="M22.996 4.68C20.8788 4.68 19.1366 6.4456 19.1366 8.5511 19.1366 10.6566 20.8905 12.4105 22.996 12.4105 25.1015 12.4105 26.8671 10.6683 26.8671 8.5511 26.8671 6.4339 25.1132 4.68 22.996 4.68zM22.996 8.4105C23.03897 8.4105 23.13662 8.50425 23.13662 8.55112 23.13662 8.59409 23.05459 8.68003 22.996 8.68003 22.93741 8.68003 22.86709 8.60581 22.86709 8.55112 22.86709 8.49253 22.95303 8.4105 22.996 8.4105zM17.547 77.59C17.00794 77.58218 16.4923 77.78922 16.1134 78.16422 15.73059 78.53922 15.51574 79.05485 15.51574 79.59002 15.51574 80.12519 15.73058 80.63692 16.1134 81.01192 16.49231 81.39083 17.00793 81.59786 17.547 81.59004L28.457 81.59004 28.45309 81.59004C28.99215 81.59785 29.50779 81.39082 29.88669 81.01192 30.2695 80.63692 30.48435 80.1252 30.48435 79.59002 30.48435 79.05484 30.26951 78.53922 29.88669 78.16422 29.50778 77.78922 28.99216 77.58219 28.45309 77.59L17.54309 77.59 17.547 77.59z"/><path fill="#F05C22" d="M29.332,42.852 C28.707,42.87153 28.1289,43.18794 27.7695,43.69575 C26.7265,45.17625 24.9843,46.15665 22.9961,46.15665 C21.0039,46.15665 19.2773,45.18009 18.2305,43.69575 C17.61722,42.82466 16.4258,42.59025 15.5274,43.16059 C11.6563,45.60979 9.0782,49.91839 9.0782,54.80159 C9.0782,55.60628 9.14851,56.40709 9.28914,57.18829 C9.46102,58.13751 10.28914,58.82889 11.25394,58.82889 L34.74594,58.82889 C35.7225,58.82889 36.55844,58.12186 36.71864,57.15699 C36.84364,56.4148 36.92567,55.62179 36.92567,54.79759 C36.92567,49.91479 34.34757,45.60619 30.47647,43.15659 L30.47257,43.1605 C30.13273,42.94175 29.73429,42.83628 29.33197,42.85191 L29.332,42.852 Z M29.67575,47.5551 C31.67575,49.3481 32.92575,51.9223 32.92575,54.8012 L32.92575,54.83245 L13.07775,54.83245 L13.07775,54.8012 C13.07775,51.9223 14.32775,49.352 16.32775,47.5551 C18.08165,49.1723 20.43325,50.1606 22.99965,50.1606 C25.56605,50.1606 27.92155,49.17232 29.67935,47.5551 L29.67575,47.5551 Z"/><path fill="#F05C22" d="M22.996,29.16 C19.078,29.16 15.8476,32.3514 15.8476,36.2616 C15.8476,40.1639 19.082,43.3514 22.996,43.3514 C26.914,43.3514 30.1562,40.1678 30.1562,36.2616 C30.1562,32.3475 26.914,29.16 22.996,29.16 Z M22.996,33.16 C24.7812,33.16 26.1562,34.5311 26.1562,36.2616 C26.1562,37.9764 24.7812,39.3514 22.996,39.3514 C21.2108,39.3514 19.8476,37.9803 19.8476,36.2616 C19.8476,34.5272 21.2148,33.16 22.996,33.16 Z"/></g></svg>