<svg xmlns="http://www.w3.org/2000/svg" width="84" height="88" viewBox="0 0 84 88"><g fill="none" fill-rule="evenodd"><polygon fill="#323E56" points="33.668 83.668 46.168 83.668 46.168 87.836 33.668 87.836"/><polygon fill="#323E56" points="37.832 46.168 42 46.168 42 87.836 37.832 87.836"/><polygon fill="#323E56" points="37.832 .332 42 .332 42 8.664 37.832 8.664"/><polygon fill="#323E56" points="37.832 21.168 42 21.168 42 33.668 37.832 33.668"/><path fill="#323E56" d="M67,31.582 L67,48.25 C67,49.4023 66.06641,50.332 64.918,50.332 L10.75,50.332 C10.19922,50.332 9.668,50.11325 9.2773,49.72262 L0.945301,41.39062 C0.128891,40.57812 0.128891,39.25782 0.945301,38.44532 L9.2773,30.10942 C9.66792,29.7188 10.19918,29.50004 10.75,29.50004 L64.918,29.50004 C66.0664,29.50004 67,30.43363 67,31.58204 L67,31.582 Z M11.582,33.6679 L5.3711,39.9257 L11.582,46.1679 L62.832,46.1679 L62.832,33.6679 L11.582,33.6679 Z"/><path fill="#F05C22" d="M17,6.582 L17,23.25 C17,24.4023 17.93359,25.332 19.082,25.332 L73.25,25.332 C73.80078,25.332 74.332,25.11325 74.7227,24.72262 L83.0547,16.39062 C83.87111,15.57812 83.87111,14.25782 83.0547,13.44532 L74.7227,5.10942 C74.33208,4.7188 73.80082,4.50004 73.25,4.50004 L19.082,4.50004 C17.9336,4.50004 17,5.43363 17,6.58204 L17,6.582 Z M72.418,8.6679 L78.6289,14.9257 L72.418,21.1679 L21.168,21.1679 L21.168,8.6679 L72.418,8.6679 Z"/></g></svg>