<svg xmlns="http://www.w3.org/2000/svg" viewBox="0 0 1147.3 325.12"><defs><clipPath id="a"><path fill="none" d="M720.2 102.16h409v4h-409z"/></clipPath><clipPath id="b"><path d="M537 84.56l29.15 14.6-29.2 14.6v-29.2zm10.15-21.4a36 36 0 1 0 36 36 36 36 0 0 0-36-36z" fill="none"/></clipPath><clipPath id="c"><path fill="none" d="M511.2 63.16h72v72h-72z"/></clipPath></defs><title>img-lettering-experiences-es</title><g clip-path="url(#a)" opacity=".5"><g clip-path="url(#a)" opacity=".5"><path fill="#fff" d="M720.7 103.86h408.1v1H720.7z"/></g><g clip-path="url(#b)"><g clip-path="url(#c)" opacity=".5"><path fill="#fff" d="M506.2 58.16h82v82h-82z"/></g></g><g opacity=".5" fill="#fff"><path d="M575.15 87.94a43.53 43.53 0 0 0-83.08 26c.27.86.57 1.71.89 2.54l.06.16v.12a2.72 2.72 0 0 0 5.09-1.9 2.68 2.68 0 0 0-.1-.27q-.43-1.12-.79-2.27a38.08 38.08 0 1 1 9.62 15.76l-.19-.14a2.72 2.72 0 0 0-3.63 4 43.53 43.53 0 0 0 72.13-44z"/><path d="M556.55 98.51l-35.4-19a2.72 2.72 0 0 0-3.58 1.16l-.06.1v.12l-.07.2v.01a.44.44 0 0 1 0 .2v38.77a2.72 2.72 0 0 0 3.9 2.5l35.26-19.06a2.81 2.81 0 0 0-.05-5zm-33.84-12l27 14.55-27 14.55V86.46z"/></g></g><g opacity=".5"><g opacity=".75" fill="#fff"><path d="M524.56 111.75a14 14 0 0 0 2.93-.28 13.35 13.35 0 0 0 2.25-.67 8.37 8.37 0 0 0 1.66-.89q.69-.49 1.2-.89l.86-.68a1.07 1.07 0 0 1 .63-.27.74.74 0 0 1 .38.09.9.9 0 0 1 .25.21l1.63 2a16.15 16.15 0 0 1-12.55 5.38 13.84 13.84 0 0 1-5.75-1.15 12.17 12.17 0 0 1-4.31-3.21 14.38 14.38 0 0 1-2.7-4.91 20 20 0 0 1-.94-6.28 24.22 24.22 0 0 1 1.45-8.55 20.38 20.38 0 0 1 4-6.66 17.78 17.78 0 0 1 13.34-5.86 16.92 16.92 0 0 1 3.45.32 12 12 0 0 1 2.83 1 11.25 11.25 0 0 1 2.31 1.5 15.9 15.9 0 0 1 1.94 2l-1.6 2a1.92 1.92 0 0 1-.45.41 1.12 1.12 0 0 1-.62.16 1.41 1.41 0 0 1-1-.5 9.48 9.48 0 0 0-1.36-1.09 10.29 10.29 0 0 0-2.22-1.09 10.46 10.46 0 0 0-3.54-.5 12.81 12.81 0 0 0-5.42 1.16 12.68 12.68 0 0 0-4.37 3.33 16 16 0 0 0-2.91 5.17 21 21 0 0 0-1.06 6.9 15.86 15.86 0 0 0 .72 5 11.22 11.22 0 0 0 2 3.74 8.78 8.78 0 0 0 3.06 2.36 9.14 9.14 0 0 0 3.91.75zM549.24 115.73a9.87 9.87 0 0 1-3.8-.71 8.35 8.35 0 0 1-3-2.06 9.5 9.5 0 0 1-2-3.3 13.13 13.13 0 0 1-.7-4.45 17.92 17.92 0 0 1 1-6 16.37 16.37 0 0 1 2.74-5 13 13 0 0 1 4.1-3.35 10.94 10.94 0 0 1 5.11-1.22 9.87 9.87 0 0 1 3.8.71 8.35 8.35 0 0 1 3 2.06 9.51 9.51 0 0 1 2 3.31 13.15 13.15 0 0 1 .7 4.44 17.86 17.86 0 0 1-1 6 16.37 16.37 0 0 1-2.74 5 13.08 13.08 0 0 1-4.11 3.36 10.88 10.88 0 0 1-5.1 1.21zm.4-3.47a5.87 5.87 0 0 0 3.33-1 8.76 8.76 0 0 0 2.55-2.66 13.7 13.7 0 0 0 1.63-3.84 17.75 17.75 0 0 0 .58-4.55 8.53 8.53 0 0 0-1.37-5.28 4.73 4.73 0 0 0-4-1.77 5.9 5.9 0 0 0-3.34 1 8.69 8.69 0 0 0-2.54 2.65 13.71 13.71 0 0 0-1.62 3.84 17.71 17.71 0 0 0-.58 4.55 8.63 8.63 0 0 0 1.36 5.29 4.71 4.71 0 0 0 4 1.76zM565.34 115.38L568.39 90h2.22a1.33 1.33 0 0 1 1.5 1.5l-.35 4.52a15.65 15.65 0 0 1 4.1-4.76 7.89 7.89 0 0 1 4.7-1.61 4.31 4.31 0 0 1 3.8 1.76 8.77 8.77 0 0 1 1.22 5 14.81 14.81 0 0 1 4.26-5.14 8.49 8.49 0 0 1 5-1.66A4.93 4.93 0 0 1 599 91.5a8.55 8.55 0 0 1 1.39 5.25q0 .58-.05 1.2t-.12 1.3l-1.9 16.13h-4.37l1.9-16.13A18.34 18.34 0 0 0 596 97a4.86 4.86 0 0 0-.62-2.76 2.39 2.39 0 0 0-2.1-.89 4.78 4.78 0 0 0-2.15.54 7.7 7.7 0 0 0-2.13 1.6 12.48 12.48 0 0 0-1.86 2.58 20.9 20.9 0 0 0-1.54 3.54l-1.6 13.77h-4.4l1.93-16.13.13-1.28q.06-.6 0-1.12a4.67 4.67 0 0 0-.59-2.62 2.33 2.33 0 0 0-2.06-.85 4.81 4.81 0 0 0-2.31.6 7.58 7.58 0 0 0-2.1 1.74 14.19 14.19 0 0 0-1.84 2.77 26.79 26.79 0 0 0-1.55 3.69l-1.58 13.2h-4.35zM603.44 124l4.12-34h2.22a1.33 1.33 0 0 1 1.5 1.5l-.42 5.4a20.55 20.55 0 0 1 2.08-3 15.16 15.16 0 0 1 2.36-2.29 10.17 10.17 0 0 1 2.59-1.46 7.68 7.68 0 0 1 2.75-.51 6 6 0 0 1 5 2.35q1.8 2.35 1.8 6.88A20.15 20.15 0 0 1 627 103a20.94 20.94 0 0 1-1.21 3.91 19.46 19.46 0 0 1-1.9 3.48 14.94 14.94 0 0 1-2.47 2.8 11 11 0 0 1-3 1.86 8.53 8.53 0 0 1-3.35.67 7.88 7.88 0 0 1-3.43-.74 7 7 0 0 1-2.6-2.11L607.76 124h-4.33zM619 93.25a4.69 4.69 0 0 0-2.44.75 10 10 0 0 0-2.39 2.1 17.91 17.91 0 0 0-2.17 3.2 25.9 25.9 0 0 0-1.71 4l-.8 6.45a5.26 5.26 0 0 0 2.29 1.94 6.94 6.94 0 0 0 2.71.56 5.6 5.6 0 0 0 2.45-.55 7.72 7.72 0 0 0 2.1-1.49 10.85 10.85 0 0 0 1.7-2.2 15.38 15.38 0 0 0 1.26-2.7 18.72 18.72 0 0 0 .79-3 17.19 17.19 0 0 0 .28-3A7.93 7.93 0 0 0 622 94.8a3.47 3.47 0 0 0-3-1.55zM649 115.38h-2.3a1.35 1.35 0 0 1-1.19-.45 1.87 1.87 0 0 1-.31-1.1l.45-5.07a21.51 21.51 0 0 1-1.94 2.88 13.46 13.46 0 0 1-2.2 2.2 9.64 9.64 0 0 1-2.44 1.4 7.25 7.25 0 0 1-2.65.5 6.22 6.22 0 0 1-2.72-.59 5.67 5.67 0 0 1-2.09-1.73 8.4 8.4 0 0 1-1.34-2.8 13.92 13.92 0 0 1-.47-3.81 17.17 17.17 0 0 1 .56-4.39 17.83 17.83 0 0 1 4.09-7.52 16.65 16.65 0 0 1 3.24-2.75 15.35 15.35 0 0 1 3.84-1.8 14.38 14.38 0 0 1 4.3-.64A18.69 18.69 0 0 1 649 90a13.12 13.12 0 0 1 3 .92zM638.14 112a4.4 4.4 0 0 0 2.4-.75 9.17 9.17 0 0 0 2.23-2.08 18.08 18.08 0 0 0 2-3.16 28.42 28.42 0 0 0 1.61-4l1.07-8.56a1.73 1.73 0 0 0-1.09-.45h-1.06a8.77 8.77 0 0 0-2.9.49 10.35 10.35 0 0 0-2.62 1.36 11.65 11.65 0 0 0-2.23 2.08 13.49 13.49 0 0 0-1.71 2.66 15 15 0 0 0-1.11 3.08 14.05 14.05 0 0 0-.4 3.35q-.04 5.98 3.81 5.98zM655.66 115.38L658.71 90h2.22a1.7 1.7 0 0 1 1.1.32 1.21 1.21 0 0 1 .4 1V92.52l-.43 4.63a17.47 17.47 0 0 1 3.64-5.4 6.13 6.13 0 0 1 4.24-1.9 5.29 5.29 0 0 1 2.1.45l-.8 4.28a6.07 6.07 0 0 0-2.28-.48 5.49 5.49 0 0 0-4.32 2.36 19.54 19.54 0 0 0-3.18 7.16l-1.4 11.76h-4.35zM675.41 110.6v-.39-.69c0-.3.06-.69.11-1.18s.13-1.12.22-1.9l1.58-12.67h-2.83a.78.78 0 0 1-.54-.19.74.74 0 0 1-.21-.59v-.3c0-.15 0-.32.06-.51l.2-.58q0-.3.06-.57l3.9-.53 1.88-7.83a1.19 1.19 0 0 1 .38-.61 1 1 0 0 1 .67-.24h2.35l-1.1 8.72h6.65l-.37 3.23h-6.67l-1.53 12.45q-.13 1-.19 1.65l-.1 1c0 .25 0 .42-.05.53s0 .17 0 .22a2.64 2.64 0 0 0 .59 1.89 2.13 2.13 0 0 0 1.61.61 3.27 3.27 0 0 0 1.15-.19 4.94 4.94 0 0 0 .86-.41c.24-.15.45-.29.61-.41a.78.78 0 0 1 .45-.19.46.46 0 0 1 .31.1 1.25 1.25 0 0 1 .24.32l.93 2.13a9.06 9.06 0 0 1-2.76 1.69 8.55 8.55 0 0 1-3.14.61 5.34 5.34 0 0 1-3.83-1.33 5.2 5.2 0 0 1-1.49-3.84zM710.59 95.48a6.85 6.85 0 0 1-.68 3 6.3 6.3 0 0 1-2.47 2.5 18.48 18.48 0 0 1-5 1.94 54.67 54.67 0 0 1-8.1 1.33v1.08a7.82 7.82 0 0 0 1.46 5.11 5.4 5.4 0 0 0 4.41 1.76 8.31 8.31 0 0 0 2.14-.25 9 9 0 0 0 1.67-.61 7.46 7.46 0 0 0 1.3-.8l1-.8c.32-.24.61-.45.88-.61a1.5 1.5 0 0 1 .8-.25 1.09 1.09 0 0 1 .83.42l1.1 1.38a23 23 0 0 1-2.43 2.32 14.56 14.56 0 0 1-2.49 1.56 11.2 11.2 0 0 1-2.66.91 14.74 14.74 0 0 1-3 .29 10 10 0 0 1-3.9-.72 8.08 8.08 0 0 1-2.93-2.06 9.28 9.28 0 0 1-1.85-3.24 13.07 13.07 0 0 1-.65-4.25 18.6 18.6 0 0 1 .41-3.89 18.14 18.14 0 0 1 1.2-3.69 16.67 16.67 0 0 1 1.92-3.25 13 13 0 0 1 2.6-2.59 12.23 12.23 0 0 1 3.23-1.71 11.24 11.24 0 0 1 3.79-.62 9.09 9.09 0 0 1 3.33.55 7.09 7.09 0 0 1 2.3 1.4 5.61 5.61 0 0 1 1.34 1.88 5 5 0 0 1 .45 1.91zm-7.65-2.57a6.51 6.51 0 0 0-2.9.65 7.73 7.73 0 0 0-2.35 1.79 10.9 10.9 0 0 0-1.75 2.65 16 16 0 0 0-1.12 3.31 48.31 48.31 0 0 0 6.17-1.09 15.34 15.34 0 0 0 3.58-1.33 3.88 3.88 0 0 0 1.65-1.54 3.92 3.92 0 0 0 .4-1.72 2.51 2.51 0 0 0-.84-1.83 3.5 3.5 0 0 0-1.14-.66 4.87 4.87 0 0 0-1.7-.24z"/></g></g><g opacity=".5" fill="#fff"><path d="M481.11 75.78a42 42 0 0 0-80.22 25.12c.26.83.55 1.65.86 2.45l.06.15v.11a2.63 2.63 0 0 0 4.91-1.84 2.59 2.59 0 0 0-.1-.26q-.41-1.08-.76-2.2a36.77 36.77 0 1 1 9.28 15.22l-.2-.2a2.62 2.62 0 0 0-3.51 3.91 42 42 0 0 0 69.68-42.46z"/><path d="M463.16 86L429 67.58a2.62 2.62 0 0 0-3.46 1.12l-.05.1v.11l-.07.19V106.75a2.62 2.62 0 0 0 3.58 2.45l34.15-18.4a2.71 2.71 0 0 0 .01-4.8zm-32.67-11.66l26.08 14.05-26.08 14.05v-28.1z"/></g><g opacity=".5"><path d="M554.67 167.32v-2.46h-36.69v112.01h36.69V167.32zM40.73 234.66h40.58v-28.73H40.73v-12.18h43.02v-28.89H4.2v112.01h81.17v-29.22H40.73v-12.99zM203 265.35l-4.54-7.12-25.43-39.8 35.22-53.57h-43.82l-15.75 30.03-13.81-26.06-2.1-3.97H88.94l35.39 53.57-37.34 58.44h43.83l17.86-35.71 17.85 35.71h43.84l-5.77-9.02-1.6-2.5zM353.22 234.66h40.58v-28.73h-40.58v-12.18h43.02v-28.89h-79.55v112.01h81.17v-29.22h-44.64v-12.99zM736.48 207.07c0 5.36.32 12.17.81 20.29l-18.69-36-13.77-26.51h-39.78v112h35.71v-42.19-19c1.6-2.37 3.1 10.81 4.51 8.39L734 276.87h38.15v-112h-35.67v42.21zM891.5 186.16v90.71h36.69V164.86H891.5v21.3zM1128.67 215.67c-4-3.39-10.32-6.62-18.53-9.37h-.14c-1.46-.49-4.06-1.3-7.63-2.27l-3.26-1-2.42-.76a27.55 27.55 0 0 1-3.91-1.24c-2-.86-3.89-2.12-3.89-4a4 4 0 0 1 .1-.88c.31-1.39 1.4-2.37 3.24-3a19.18 19.18 0 0 1 5.75-.7 26.83 26.83 0 0 1 5.72.71 54.36 54.36 0 0 1 7.27 2.21 40.39 40.39 0 0 1 13.64 7.79l10.33-19.16 3.64-6.77a54.19 54.19 0 0 0-16.07-9.12 69.25 69.25 0 0 0-23.86-4.35c-1.33 0-2.62 0-3.89.1-12.27.55-22 3.76-29.06 9.65a40.54 40.54 0 0 0-4.54 4.4 35 35 0 0 0-3.39 4.53 33.54 33.54 0 0 0-5.05 18.18 39.21 39.21 0 0 0 .46 6.08 31.13 31.13 0 0 0 1.92 7 28 28 0 0 0 7.84 10.78c3.08 2.6 8.12 5.36 15.42 8.28 6.17 2.11 11.53 3.9 16.23 5.19h.05a18.9 18.9 0 0 1 5.55 2.23 5.86 5.86 0 0 1 2.52 3.6c0 2.83-2.33 4.42-7 4.67h-1.31a22.88 22.88 0 0 1-3-.24 57.46 57.46 0 0 1-10.91-2.85 51 51 0 0 1-14.69-8.12q-.95.06-1.89.17l-15.34 26.08.25.71c1 .73 2 1.44 3.05 2.12q2.77 1.85 5.6 3.42a72.1 72.1 0 0 0 16.32 6.71 67.56 67.56 0 0 0 17.75 2.35c13.8 0 24.84-3.25 33.12-9.58q14.61-11.44 14.61-29.22c-.05-10.21-3.62-18.32-10.6-24.33zM607.42 234.66h40.59v-28.73h-40.59v-12.18h43.02v-28.89H570.9V276.87h81.17v-29.22h-44.65v-12.99zM499.83 255.79l-12.69-21.46a44.3 44.3 0 0 0 5.16-3.61 37 37 0 0 0 5.46-5.42c5.37-6.6 8-14.82 8-24.74a38.89 38.89 0 0 0-1.08-9.32 31.06 31.06 0 0 0-2.65-7A31.61 31.61 0 0 0 492 173c-7.63-5.36-18.51-8.12-32.47-8.12h-48.7v112h36.69v-37.35h4.71l17.86 37.34h42.21zm-52.2-63.34h9c3.73 0 6.33.65 8.12 2.11a8.56 8.56 0 0 1 4.06 7.63 9 9 0 0 1-4.06 7.79 6.52 6.52 0 0 1-1.37.82 16.63 16.63 0 0 1-6.75 1.13h-9.25v-19.47h.26"/><path d="M555.66 174.47a4.5 4.5 0 0 1-1 .2 4.5 4.5 0 0 0 1-.2zM855.2 244.82q-1.94.4-4 .61a48.9 48.9 0 0 1-5.15.27c-14.29 0-25.65-8.93-25.65-25.16 0-15.84 9.77-24.68 23.35-25.57.75 0 1.52-.08 2.29-.08h.19a33.83 33.83 0 0 1 12.47 2.75c4.38 1.79 7.47 3.08 8.93 4.22s2.76 1.95 3.57 2.76l3.69-11.62 6.06-19.2-1.3-1.14a56 56 0 0 0-12-5.68c-5.36-2.11-14.77-3.73-24-3.73-17.37 0-31.66 5.19-43 15.42a49.56 49.56 0 0 0-15.13 25.65 69.88 69.88 0 0 0-1.97 16.68c0 18 5.68 32.3 17 42.53a57.6 57.6 0 0 0 8.51 6.34q2 1.23 4.14 2.29a60.44 60.44 0 0 0 15.81 5.3q2.71.52 5.54.84a81.72 81.72 0 0 0 9 .49 77.83 77.83 0 0 0 12.86-1c1.53-.26 3-.55 4.48-.91a48.87 48.87 0 0 0 16.68-7.36c.33-.23.64-.47 1-.71a43.28 43.28 0 0 0 4.8-4.12l-10.55-29.22a33.93 33.93 0 0 1-17.62 9.35zM295.1 173.79a38.18 38.18 0 0 0-14.72-7.06 61 61 0 0 0-11.26-1.7q-2.52-.16-5.19-.16h-48.7v112h36.69V242h12c13.31 0 23.7-2.92 31.17-8.93a31.2 31.2 0 0 0 9.63-12.74 43.54 43.54 0 0 0 3-16.81c0-1.87-.09-3.66-.27-5.4q-1.45-15.76-12.35-24.33zm-28.41 38.64c-1.95 1.3-4.87 1.95-8.93 1.95h-6v-21.92h6a22.57 22.57 0 0 1 5.54.59 9.5 9.5 0 0 1 3.39 1.52c2.76 1.79 4.06 4.87 4.06 8.93a11.16 11.16 0 0 1-2.2 7.26 8.07 8.07 0 0 1-1.86 1.66zM1048.54 263.51l-4.67-13.41-2.45-7-6-17.25-1.31-3.77-3.16-9.08-.64-1.83-6-17.22L1023 190l-2.89-8.32-5.86-16.83h-40.61l-38 109.34-.93 2.67h38.15l4.22-15.75h32l4.38 15.75h39.77l-2.53-7.27-1.21-3.48-.66-1.91-.47-.33zM984.84 233l8.28-30 4.69 17 3.59 13h-16.56z"/></g><path d="M21.33 273.87q-10-14.53-20.13-29v29h20.13z" fill="#80c4b8"/><path d="M957.79 150.52a7.71 7.71 0 0 1-1.63-1.13 7.71 7.71 0 0 0 1.63 1.13z" fill="none"/><path d="M453.15 213.67q-1.06-2.35-2-4.74.94 2.39 2 4.74zM444.63 189.46a152.86 152.86 0 0 1-4.47-27.6 152.89 152.89 0 0 0 4.47 27.6zM453.15 213.67q1.82 4 3.87 8-2.02-3.98-3.87-8zM551.67 164.32a11.93 11.93 0 0 1-2.87-2.46 11.93 11.93 0 0 0 2.87 2.46zM848.26 242.75l-.06-.32zM909.29 251.09l.07.06-.07-.06zM923.24 242.43v.05z"/><path d="M82.37 273.87v-29.22H37.73v-13h40.58v-28.72H37.73v-12.18h43v-28.9H1.2v83q10.08 14.51 20.13 29h61zM197.83 264.73q1.51 0 3 .08h.76l-1.6-2.5a14.26 14.26 0 0 1-6.54-1.75 31.68 31.68 0 0 1 2-5.37L170 215.43l35.23-53.57h-43.81l-15.75 30-13.81-26.06c-2.75-.09-5.58-.46-8.11.25-6.31 1.77-9.59-.21-11.28-4.22H85.94l35.39 53.57L84 273.87h43.83l17.86-35.71 17.86 35.71h3.31c9.06-8.13 19.91-9.3 30.97-9.14zM265.56 207.76a8.07 8.07 0 0 1-1.86 1.67c-1.95 1.3-4.87 1.95-8.93 1.95h-6v-21.92h6a22.57 22.57 0 0 1 5.54.59c1.82-9.37 3.78-18.7 5.82-28q-2.52-.16-5.19-.16h-29.7l10.7 8.9a72.68 72.68 0 0 1-19.49-8.9h-10.22V242a27.44 27.44 0 0 1 9.05-.05c9.65 1.48 19 19.85 14.4 28.44-.36.67-2 .61-3.12.89.7.9 1.45 1.73 2.22 2.55h12.35a15 15 0 0 1 1.8-.11V239h12c13.31 0 23.7-2.92 31.17-8.93a31.2 31.2 0 0 0 9.63-12.74c-12.06-2.56-23.9-6.06-35.77-9.42z" fill="#9cd1c8"/><path d="M216.72 249.78a32.34 32.34 0 0 0-4.49 4.37v11.47c3.23.29 6.46.6 9.69.84-1.25-6 .26-12.62-3.67-18.11zM350.22 195.8v-5h43v-28.9h-51.1q-5.22 23.84-10.36 47.7c-2 9.43-4.86 11.66-14.4 10.45-1.23-.16-2.45-.33-3.67-.51v54.38h81.17v-29.27h-44.64v-13h40.58v-28.72h-40.58v-6.53l-3.11-.72zM453.27 189.46a131.17 131.17 0 0 1-5-27.6h-8.15a152.86 152.86 0 0 0 4.47 27.6h8.64zM484.66 215.47a32.65 32.65 0 0 0 4.06 11.35l.59.91a37 37 0 0 0 5.46-5.42c-2-4.34-3.09-8.42-2.92-11.73a36.18 36.18 0 0 1 9.88-22.34 31.07 31.07 0 0 0-2.65-7c-10.08 9.42-16.57 22.76-14.42 34.23zM449.61 235.87c-13.69-22.81-20.21-48-22.91-74h-18.86v35.84l4.63.16c-1.54.39-3.08.74-4.63 1.06v75h36.69v-37.4h4.71l17.86 37.34h16.08a134.66 134.66 0 0 1-33.57-38zM460.37 207.81a16.63 16.63 0 0 1-6.75 1.13h-2.51q1 2.38 2 4.74 1.82 4 3.87 8 2.74 5.24 5.92 10.32a120.48 120.48 0 0 0 43.56 41.92h2.79l-12.47-21.08q-4-3.23-7.8-6.79a129.11 129.11 0 0 1-28.61-38.24zM515 248.15v6.4a54.36 54.36 0 0 0 22.35 7.35 72.81 72.81 0 0 1 14.34 3v-3.09c-9.18-2-18.38-3.94-27.14-7.64a40.53 40.53 0 0 1-9.55-6.02zM534.83 175.7c5.56 1 11.24.31 16.84.73v-4.77a6.89 6.89 0 0 1-.78 0 13.29 13.29 0 0 1-2.29-.26c-8.51-1.63-17-3.45-25.8-2.27a36.15 36.15 0 0 0-7.81 2v7.44a34 34 0 0 1 19.84-2.87zM515 273.87h18a125 125 0 0 1-18-8.56v8.56zM649.07 273.87v-4.79c-4.07 1.6-8.13 3.21-12.2 4.79h12.2zM567.9 266.88v7h3.73a8.76 8.76 0 0 0-3.73-7zM662.05 273.87h3.11a14.41 14.41 0 0 0-3.11-1.37v1.37z" fill="#9cd1c8"/><path d="M1119.5 165.08a72.76 72.76 0 0 0 5.63 8.11c2 2.42 4.49 5 6.81 7.77l3.64-6.77a54.18 54.18 0 0 0-16.08-9.11z" fill="#5ca89b"/><path d="M731 273.87h38.15V251a44.14 44.14 0 0 1-.7-8.29c.06-13-3.9-26.15-7.77-38.91-2-6.58 1.11-9.5 7.76-7.43l.7.23v-34.74h-35.66v42.21c0 5.36.32 12.17.81 20.29l-18.69-36a123.94 123.94 0 0 1-13.36 32.69zM664 260.75c-.65.41-1.29.84-1.92 1.26v10.49a14.41 14.41 0 0 1 3.11 1.37h32.6v-42.21-3.41q-1.78 2.64-3.71 5.24c-8.14 10.87-18.53 19.89-30.08 27.26zM867.72 261.15c-10.51-2.78-14.06-9.62-15.52-19.33q-1.94.4-4 .61l.06.32q.55 3 1.14 5.94c1.29 6.44-.24 10.72-5.1 14.29a123.33 123.33 0 0 1-18.3 11.51q2.71.52 5.54.84c6.72-3.82 13-8.77 19.67-13.74l2.23 13.21c1.53-.26 3-.55 4.48-.91a81.12 81.12 0 0 0-1.19-8.58c-1.37-6 1.11-5.73 5.37-4s7.77 5 12.49 5.2c.33-.23.64-.47 1-.71-2.59-1.73-5.03-3.9-7.87-4.65zM797.46 212.22c2.95 18.15 5.77 36.33 8.65 54.68q2 1.23 4.14 2.29c-3-18-5.82-36-8.74-54-1-6.18 1.25-10.4 6.88-13.41 7.64-4.08 15.2-8.39 22.4-13.2 5.69-3.81 9-4.28 10 3.43.75 0 1.52-.08 2.29-.08h.19c-.93-5.75 1.34-7.82 7.09-6.79 7 1.25 14 2.91 20.86 4.66a5.8 5.8 0 0 1 .69.23l6.06-19.2-1.3-1.14a56 56 0 0 0-12-5.68c-5.36-2.11-14.77-3.73-24-3.73-17.37 0-31.66 5.19-43 15.42a49.56 49.56 0 0 0-15.13 25.65c3.22 1.2 6.44 2.41 9.68 3.56 3.44 1.21 4.73 4.16 5.24 7.31zM923.16 242.34l.08.1v.05a6.6 6.6 0 0 1 1.91.11v-6.45c-.61 2.06-1.36 4.1-1.99 6.19zM918 177.89c2.38 13.65 4.62 27.33 7.18 40.94v-57H888.5v21.3c6.41-3 12.84-6 18.68-10.28 5.6-4.04 9.64-1.85 10.82 5.04zM894.33 264.78c-2.58-.14-4.47-.54-5.82-1.45v10.55h.61c.26-3.08 1.61-6.08 5.21-9.1zM1014 263.51c-12.6-9.15-18.78-20-19.74-33.47h-12.42l8.28-30 4.69 17a93.78 93.78 0 0 1 1.85-9.52c1-4.15 3.16-8 4.78-12-8.75 1.64-12.82-4.3-15.49-10.72-3.43-8.23-7-16.14-12.8-22.9h-2.51l-38 109.34.47 2.67h36.75l4.22-15.75h32l4.38 15.75h25.87a79.15 79.15 0 0 1-11.2-4 61.76 61.76 0 0 1-11.13-6.4z" fill="#80c4b8"/><path d="M1001.45 195.48a66.48 66.48 0 0 1 15.63-16.78l-5.86-16.83h-38.07c5.83 6.76 9.37 14.67 12.8 22.9 2.67 6.4 6.75 12.34 15.5 10.71zM1119.5 165.08a69.25 69.25 0 0 0-23.86-4.35c-1.33 0-2.62 0-3.89.1a12.8 12.8 0 0 1-11.2 6.12c-1.68 0-3.77-1.11-4.48 1-.94 2.77 1.92 3.26 3.54 4 5.1 2.31 9.14 5.9 13.26 9.59a53.28 53.28 0 0 1 7.84 8.66 54.36 54.36 0 0 1 7.27 2.21 40.39 40.39 0 0 1 13.64 7.79l10.32-19.2c-2.32-2.81-4.84-5.35-6.81-7.77a72.76 72.76 0 0 1-5.63-8.15zM1105.22 237.71c-6.08 19.11-18.13 30.35-34.47 35.75a67.56 67.56 0 0 0 17.75 2.35c13.8 0 24.84-3.25 33.12-9.58q14.61-11.44 14.61-29.22c0-10.23-3.57-18.34-10.55-24.35-4-3.39-10.32-6.62-18.53-9.37 3.1 10.71 1.93 22.29-1.93 34.42z" fill="#6eb6a9"/><path d="M923.28 242.48c-3.58 4.59-7.8 8.16-13.93 8.67-.47 4.2-3.28 5.28-6.95 5.23-.37 2.81-1.63 4.72-5.45 4.86.45-3.42 2.61-4.47 5.37-4.94a11.63 11.63 0 0 1 3.72-4.09 7.86 7.86 0 0 1 3.24-1.12 24.44 24.44 0 0 1 6.85-6.43 17.05 17.05 0 0 1 7-2.33c.63-2.09 1.39-4.12 2-6.19v-17.31c-2.55-13.62-4.8-27.29-7.18-40.94-1.2-6.88-5.23-9.08-10.83-5-5.84 4.25-12.27 7.27-18.68 10.28v80.16c1.36.92 3.25 1.32 5.82 1.45-3.6 3-5 6-5.21 9.09h36.07v-31.28a6.6 6.6 0 0 0-1.84-.11zM931.68 273.87h1.4l-.47-2.67z" fill="#4fb9d0"/><path d="M923.15 242.33c.63-2.09 1.39-4.12 2-6.19-.61 2.07-1.36 4.11-2 6.19zM197.83 264.73c-11.06-.16-21.9 1-31 9.14h40.52l-5.76-9h-.76q-1.5-.12-3-.14zM221.92 266.46c-3.23-.24-6.46-.55-9.69-.85v8.25h22.55c-.77-.81-1.52-1.65-2.22-2.55zM200.84 264.81h.76z" fill="#4fb9d0"/><path d="M221.92 266.46c-3.23-.24-6.46-.55-9.69-.84 3.23.29 6.46.6 9.69.85z" fill="#4fb9d0"/><path d="M831.58 275.33a81.71 81.71 0 0 0 9 .49 77.83 77.83 0 0 0 12.86-1l-2.23-13.21c-6.66 4.95-12.91 9.9-19.63 13.72z" fill="#eb5e57"/><path d="M862.14 261.33c-4.26-1.75-6.75-2-5.37 4a81.12 81.12 0 0 1 1.19 8.58 48.87 48.87 0 0 0 16.68-7.36c-4.73-.17-8.34-3.55-12.5-5.22zM248.92 273.87v-.11a15 15 0 0 0-1.8.11h1.8zM501.72 188.25a36.18 36.18 0 0 0-9.88 22.34c-.17 3.31.93 7.39 2.92 11.73 5.37-6.6 8-14.82 8-24.74a38.89 38.89 0 0 0-1.04-9.33zM534.83 175.7a34 34 0 0 0-19.83 2.89v69.57a40.53 40.53 0 0 0 9.55 6c8.76 3.7 18 5.64 27.14 7.64v-85.37c-5.62-.43-11.3.23-16.86-.73zM649.07 269.08v-24.43h-44.65v-13H645v-28.72h-40.58v-12.18h43v-28.9H567.9v105a8.76 8.76 0 0 1 3.73 7h65.24c4.07-1.56 8.13-3.17 12.2-4.77zM662.05 161.86V262c.64-.43 1.28-.85 1.92-1.26 11.57-7.38 22-16.39 30-27.26q1.93-2.6 3.71-5.24c-.1-4.75-.38-10.39-.77-16.88l5.28 9.69a123.94 123.94 0 0 0 13.36-32.69l-13.77-26.51h-39.73z" fill="#4fb9d0"/><path d="M636.86 273.87c4.07-1.58 8.14-3.19 12.2-4.79-4.06 1.6-8.12 3.21-12.2 4.79z" fill="#4fb9d0"/><path d="M489.3 227.73l-.59-.91a32.65 32.65 0 0 1-4.06-11.35c-2.15-11.47 4.3-24.81 14.42-34.27A31.61 31.61 0 0 0 489 170c-7.63-5.36-18.51-8.12-32.47-8.12h-8.24a131.17 131.17 0 0 0 5 27.6h.36c3.73 0 6.33.65 8.12 2.11a8.56 8.56 0 0 1 4.06 7.63 9 9 0 0 1-4.06 7.79 6.52 6.52 0 0 1-1.37.82A129.11 129.11 0 0 0 489 246q3.82 3.56 7.8 6.79l-12.69-21.46a44.3 44.3 0 0 0 5.19-3.6zM548.59 171.44a13.29 13.29 0 0 0 2.29.26 6.9 6.9 0 0 0 .78 0v-7.34a11.93 11.93 0 0 1-2.87-2.46H515v9.29a36.15 36.15 0 0 1 7.81-2c8.8-1.19 17.27.61 25.78 2.25zM515 254.55v10.76a125 125 0 0 0 18 8.56h18.62v-8.94a72.81 72.81 0 0 0-14.34-3 54.36 54.36 0 0 1-22.28-7.38zM551.67 171.67a4.5 4.5 0 0 0 1-.2 4.5 4.5 0 0 1-1 .2z" fill="#eb5e57"/><path d="M550.89 171.7a6.89 6.89 0 0 0 .78 0 6.9 6.9 0 0 1-.78 0z" fill="#eb5e57"/><path d="M462.94 232q-3.17-5.08-5.92-10.32-2.06-3.93-3.87-8-1.06-2.35-2-4.74h-6.75v-19.48h.26a152.89 152.89 0 0 1-4.47-27.6H426.7c2.69 26 9.22 51.2 22.91 74a134.66 134.66 0 0 0 33.57 38h23.34A120.48 120.48 0 0 1 462.94 232zM304.5 195.1c-.82-.24-1.63-.46-2.42-.61-8.49-1.67-16.85-4-25.34-5.64-3.84-.76-4.61-2.52-3.79-6q2.23-9.54 4.43-19.09a61 61 0 0 0-11.26-1.7c-2 9.32-4 18.65-5.82 28a9.5 9.5 0 0 1 3.39 1.52c2.76 1.79 4.06 4.87 4.06 8.93a11.16 11.16 0 0 1-2.19 7.26l.4.13c11.87 3.36 23.72 6.86 35.77 9.42a43.54 43.54 0 0 0 3-16.81c.03-1.88-.06-3.68-.23-5.41zm-9.58 15.51a6.85 6.85 0 0 1-7.2-6.17c-.4-3.51 2.54-6.09 5.83-6.35 3.75-.3 6.54 1.85 7.05 6-.28 3.65-2.06 6.4-5.69 6.52zM331.76 209.55q5.15-23.85 10.36-47.7h-10.51q-2 8.41-4.08 16.79c-1.67 6.64-.39 16-5.75 19.25-2.3 1.37-5.1 1.13-8.09.31v21.29c1.22.18 2.44.36 3.67.51 9.54 1.21 12.36-1 14.4-10.45zM123.76 166.08c2.53-.71 5.36-.34 8.11-.25l-2.1-4h-17.29c1.68 4.04 4.97 6.01 11.28 4.25z" fill="#4fb9d0"/><path d="M200 262.35l-4.55-7.12a31.68 31.68 0 0 0-2 5.37 14.26 14.26 0 0 0 6.55 1.75zM216.72 249.78c-1-1-2.14-2-.84-3.59l2.37 2.16c3.94 5.49 2.42 12.08 3.68 18.11l10.64 4.86c1.07-.28 2.76-.23 3.12-.89 4.63-8.58-4.75-27-14.4-28.44a27.44 27.44 0 0 0-9.05.05v12.11a32.34 32.34 0 0 1 4.48-4.37z" fill="#eb5e57"/><path d="M218.24 248.35c3.94 5.49 2.42 12.08 3.67 18.11-1.26-6 .26-12.62-3.68-18.11zM231.23 161.86h-8.79a72.68 72.68 0 0 0 19.49 8.9zM347.11 195.68l3.11.72v-.6zM407.84 197.69v1.21c1.54-.31 3.08-.66 4.63-1.06z" fill="#eb5e57"/><path d="M1003.23 221.44c0-13.15 6.68-25.64 16.75-34.43l-2.89-8.32a66.48 66.48 0 0 0-15.63 16.78c-1.62 4-3.75 7.89-4.78 12a93.78 93.78 0 0 0-1.85 9.52l3.59 13h-4.12c1 13.46 7.15 24.32 19.74 33.47a61.76 61.76 0 0 0 11.06 6.37 79.15 79.15 0 0 0 11.2 4h13.9l-2.53-7.27c-24.21-2.16-44.5-22.3-44.44-45.12zM1099.38 201l-3.26-1a42.18 42.18 0 0 1 4.64 19.42 46.61 46.61 0 0 1-3.57 17.78 5.86 5.86 0 0 1 2.52 3.6c0 2.83-2.33 4.42-7 4.67a48.83 48.83 0 0 1-38.3 21.33 72.1 72.1 0 0 0 16.32 6.71c16.34-5.41 28.39-16.64 34.47-35.75 3.86-12.13 5-23.72 1.93-34.41h-.14c-1.45-.58-4.04-1.35-7.61-2.35zM1092.87 181.51c-4.12-3.69-8.16-7.28-13.26-9.59-1.62-.73-4.48-1.22-3.54-4 .72-2.11 2.8-1 4.48-1a12.8 12.8 0 0 0 11.2-6.12c-12.27.55-22 3.76-29.06 9.65a40.53 40.53 0 0 0-4.54 4.4 49.65 49.65 0 0 1 31.1 15.3 19.18 19.18 0 0 1 5.75-.7 26.83 26.83 0 0 1 5.72.71 53.28 53.28 0 0 0-7.85-8.65z" fill="#4fb9d0"/><path d="M1025.09 269.88a79.15 79.15 0 0 0 11.2 4 79.15 79.15 0 0 1-11.2-4zM849.4 248.69q-.59-3-1.14-5.94l-.06-.32a48.89 48.89 0 0 1-5.15.27c-14.29 0-25.65-8.93-25.65-25.16 0-15.84 9.77-24.68 23.35-25.57-.94-7.71-4.28-7.24-10-3.43-7.19 4.81-14.75 9.13-22.4 13.2-5.63 3-7.88 7.22-6.88 13.41 2.92 18 5.78 36 8.74 54a60.44 60.44 0 0 0 15.81 5.3A123.33 123.33 0 0 0 844.3 263c4.85-3.6 6.39-7.87 5.1-14.31zM760.73 203.84c3.87 12.75 7.83 25.87 7.77 38.91a44.14 44.14 0 0 0 .7 8.29v-54.4l-.7-.23c-6.66-2.08-9.77.85-7.77 7.43zM797.6 260.56a57.6 57.6 0 0 0 8.51 6.34c-2.87-18.35-5.7-36.53-8.65-54.68-.51-3.15-1.8-6.1-5.31-7.34-3.24-1.15-6.46-2.36-9.68-3.56a69.88 69.88 0 0 0-1.92 16.68c0 18 5.68 32.33 17.05 42.56z" fill="#4fb9d0"/><path d="M850.34 185.1c-5.76-1-8 1-7.09 6.79a33.83 33.83 0 0 1 12.47 2.75c4.38 1.79 7.47 3.08 8.93 4.22s2.76 1.95 3.57 2.76l3.67-11.62a5.8 5.8 0 0 0-.69-.23c-6.91-1.77-13.85-3.41-20.86-4.67zM867.72 261.15c2.84.75 5.3 2.92 7.87 4.67a43.28 43.28 0 0 0 4.8-4.12l-10.55-29.22a33.93 33.93 0 0 1-17.63 9.34c1.45 9.71 5 16.55 15.51 19.33z" fill="#eb5e57"/><path d="M918.93 243.32a17.18 17.18 0 0 0-2.79 1.34 24.44 24.44 0 0 0-6.85 6.43l.06.06c6.13-.5 10.34-4.07 13.93-8.67v-.05l-.08-.1a17.3 17.3 0 0 0-4.27.99zM923.24 242.43l-.08-.1z" fill="#80c4b8"/><path d="M916.14 244.66a24.44 24.44 0 0 0-6.85 6.43 24.44 24.44 0 0 1 6.85-6.43zM916.14 244.66a17.18 17.18 0 0 1 2.79-1.34 17.18 17.18 0 0 0-2.79 1.34z" fill="#80c4b8"/><path d="M906.06 252.2a11.63 11.63 0 0 0-3.72 4.09l.08.08c3.67.05 6.48-1 6.95-5.23l-.06-.06a7.86 7.86 0 0 0-3.25 1.12z" fill="#80c4b8"/><path d="M906.06 252.2a11.63 11.63 0 0 0-3.72 4.09 11.63 11.63 0 0 1 3.72-4.09zM897 261.23c3.81-.14 5.08-2.05 5.45-4.86l-.08-.08c-2.8.47-4.96 1.52-5.37 4.94zM902.33 256.3l.08.08-.08-.08z" fill="#80c4b8"/><path d="M548.8 161.86a11.93 11.93 0 0 0 2.87 2.46v-2.46h-2.87z" fill="#9cd1c8"/><path d="M292.1 170.79a38.18 38.18 0 0 0-14.72-7.06q-2.22 9.54-4.43 19.09c-.82 3.51-.05 5.27 3.79 6 8.49 1.67 16.85 4 25.34 5.64.79.16 1.6.37 2.42.61q-1.5-15.71-12.4-24.28zM313.69 198.2c3 .82 5.79 1.06 8.09-.31 5.36-3.21 4.08-12.6 5.75-19.25q2.11-8.38 4.08-16.79h-17.92v36.35z" fill="#eb5e57"/><path d="M293.54 198.09c-3.29.26-6.23 2.84-5.83 6.35a6.85 6.85 0 0 0 7.2 6.17c3.62-.12 5.4-2.87 5.67-6.52-.5-4.15-3.3-6.3-7.04-6zM215.88 246.19c-1.29 1.57-.11 2.55.84 3.59l1.52-1.43zM218.24 248.35l-1.52 1.43 1.52-1.43z" fill="#9cd1c8"/><path d="M1007.51 225.48c-1.58-11.53 4.21-25.13 13.81-34.59L1020 187c-10.07 8.79-16.72 21.29-16.75 34.43-.05 22.82 20.23 43 44.43 45.16l-1.21-3.48c-19.64-2.22-36.22-17.67-38.96-37.63zM1086 193.13c.31-1.39 1.4-2.37 3.24-3a49.65 49.65 0 0 0-31.1-15.3 35 35 0 0 0-3.39 4.53c12.72.9 23.19 4.8 31.25 13.77zM1088.37 245.23c-7.91 11-19.25 16.64-32.77 18a43.25 43.25 0 0 1-6.76.13q2.77 1.85 5.6 3.42a48.83 48.83 0 0 0 38.3-21.33h-1.31a22.88 22.88 0 0 1-3.06-.22zM1089.79 198a54.36 54.36 0 0 1 2.91 4.8c2.51 4.66 3.61 9.74 4.38 14.91.94 6.31-.65 12.61-4.65 16.83a1.61 1.61 0 0 1-.8.43 18.9 18.9 0 0 1 5.55 2.23 46.61 46.61 0 0 0 3.57-17.78 42.18 42.18 0 0 0-4.64-19.42l-2.42-.76a27.54 27.54 0 0 1-3.9-1.24z" fill="#6eb6a9"/><path d="M1007.51 225.48c2.73 20 19.32 35.41 38.94 37.64l-.66-1.91-.47-.33.22-.38-4.67-13.41c-1.2 3-2.5 6-4 8.9q.59-6.23 1.19-12.45c.12-1.27.23-2.42.32-3.5l-6-17.25c-1.49-1.08-3.28-2.27-5.46-3.72a19.22 19.22 0 0 1 4.15-.05l-3.16-9.08c-1.4-.48-2.81-1-4.21-1.49 1.17-.18 2.36-.28 3.57-.34l-6-17.22c-9.54 9.46-15.34 23.11-13.76 34.59zM1050.16 203.65c2.38-2.23 4.29-5.59 5.46-10.7 1.09 7.19-1.71 12.38-3.54 17.71a28 28 0 0 0 7.84 10.78c3.08 2.6 8.12 5.36 15.42 8.28 6.17 2.11 11.53 3.9 16.23 5.19h.05a1.61 1.61 0 0 0 .8-.43c4-4.23 5.58-10.52 4.65-16.83-.77-5.17-1.86-10.25-4.38-14.91a54.36 54.36 0 0 0-2.91-4.8c-2-.86-3.89-2.12-3.89-4a4 4 0 0 1 .1-.88c-8.07-9-18.53-12.87-31.25-13.74a33.54 33.54 0 0 0-5.05 18.18 39.2 39.2 0 0 0 .47 6.15zm7.82 11.25c2.53-8.26 5.12-16.5 7.68-24.74h1.28c-.48 7.47-2.5 15.27-1 22.34 1.6 7.59 12.16 7.46 16 15l-22.52-7.6c-2.83-.96-2.02-3.08-1.42-4.99z" fill="#eb5e57"/><path d="M1045.79 261.22c1 .73 2 1.44 3.05 2.12a43.25 43.25 0 0 0 6.76-.13c13.52-1.33 24.86-6.94 32.77-18a57.46 57.46 0 0 1-10.91-2.85 51 51 0 0 1-14.69-8.12q-.95.06-1.89.17l-15.34 26.08z" fill="#eb5e57"/><path d="M1059.43 219.9q11.26 3.82 22.52 7.6c-3.86-7.5-14.42-7.38-16-15-1.49-7.06.54-14.86 1-22.34h-1.28c-2.57 8.25-5.15 16.49-7.68 24.74-.59 1.92-1.4 4.04 1.44 5zM1038.1 243.54q-.59 6.23-1.19 12.45c1.46-2.94 2.77-5.9 4-8.9l-2.45-7c-.13 1.03-.24 2.19-.36 3.45zM1027 219.08c2.18 1.45 4 2.65 5.46 3.72l-1.31-3.77a19.22 19.22 0 0 0-4.15.05zM1023.74 208.45c1.4.52 2.81 1 4.21 1.49l-.64-1.83c-1.21.06-2.4.17-3.57.34zM1055.63 192.95c-1.17 5.11-3.08 8.47-5.46 10.7a31.13 31.13 0 0 0 1.92 7c1.83-5.32 4.62-10.51 3.54-17.7z" fill="#6eb6a9"/></svg>