<svg id="Layer_1" xmlns="http://www.w3.org/2000/svg" viewBox="0 0 1149 235"><style>.st0{fill:#4eb9d0}.st1{fill:#a2d5cc}.st2{fill:#f25a53}.st3{opacity:.4;fill:none;stroke:#fff;stroke-linecap:square}.st3,.st4{enable-background:new}.st5{fill:#fff}.st6{opacity:.5}</style><title>Group 22</title><path class="st0" d="M695.6 170.5c.9 11.6.9 11.6-10.7 11.6-9.7 0-19.3.1-29 0-3 0-4.1.9-4.1 4 .3 11.9-1.3 9.5 9.3 9.7 11.3.2 22.7.2 34-.1 4.1-.1 5.1 1.3 5 5.1-.3 7.7-.2 15.3 0 23 .1 2.8-.9 3.7-3.7 3.7-25.5-.1-51-.2-76.4-.2-1.5-5.3-3.9-10.3-7-14.8-.1-34-.1-68-.2-102 0-3.1 1-4 4-4 25.8.1 51.7.1 77.5 0 3.2 0 4.5 1 4.4 4.3-.2 7.7-.2 15.3 0 23 .1 3.1-1.2 4-4.1 3.9-12.5-.1-25 .1-37.5-.1-3.8-.1-5.3.9-5.2 5 .4 9.6-1.2 8.5 8.5 8.6 7.8.1 15.7.1 23.5.2-.9 9.3 3.2 15.6 11.7 19.1z"/><path class="st1" d="M297.9 187.9c-8 2.5-16.2 1.4-24.3 1.4-3.7 0-4.9 1.1-4.8 4.8.2 9.7 0 19.3.1 29 .1 3.3-1 4.3-4.3 4.3-10.5-.2-21-.2-31.5 0-3.3.1-4.2-1.1-4.2-4.3.1-37.5.1-75 0-112.4 0-3.3 1-4.3 4.3-4.3 17.3.1 34.7-.3 52 .2 10.8.3 21.5 2.5 30.3 9.8 12.7 10.5 14.7 24.6 13 39.8-.5 4.3-1.7 8.5-3.8 12.3-4.6-1.5-9.3-2.3-14.2-2-4.4.3-7.7 2.2-9.2 6.4-1.8 4.9-3.3 9.8-3.4 15zm-29.1-39.8v9c0 1.3-.1 3 1.7 3.1 5.3.5 10.7.5 15.2-3.1 4.1-3.3 3.7-8.1 3-12.4-1-6-7.5-9.2-16.6-8.2-6.1.7-2.1 5.8-3.2 8.6-.4.9-.1 2-.1 3zM83.1 181.4c-12.2 0-24.3.2-36.5 0-4.3-.1-5.9 1-5.8 5.6.2 9.4 0 9.5 9.6 9.4 1.8 0 3.7-.1 5.5-.1v1.5c0 2.6 2.6 7.7-3.9 3.9-.4-.2-1.4.2-1.7.6-.3.4-.2 1.5.1 1.8 1 .9 2.1 1.7 3.3 2.1 4 1.5 5.1 4.2 3.3 7.8-1.1 2.1-.8 4.1.3 5.7 1.6 2.4 1.8 4.9 1.6 7.6-17.7 0-35.3 0-53 .2-3 0-4-.9-4-4 .1-37.7 0-75.3 0-113 0-2.1-.1-4.1 2.9-4 19 .3 38-.5 57 .4-3.2 10-3.3 20.2-1.5 30.4-5.3.1-10.6.2-15.9.1-2.6 0-3.4 1-3.5 3.5-.5 10.3-.6 10.3 9.6 10.3 4.8 0 9.6.1 14.4.1 3.6 11.5 9.9 21.4 18.2 30.1zM871 114.4c1.3-.7 2.1-2.1 3.7-2.2.2 1.9 1.2 2.9 3.1 3.4 1.4.4 2.5 1.6 1.7 3-2.9 4.7 1.8 4.6 3.5 6.8 1.2-2.4-2.1-4.3-.2-5.5 2.2-1.3 3.6 1.3 4.7 2.7 2.6 3.5 5.7 4.1 9.5 2.6 1.6-.6 3.3-1.4 4.7-.2 6 4.9 11.6 1.2 17.2-.8 1.6-.6 2.1-.1 2.6 1 1.2 2.9-.8 5.6-3.9 4.8-2.5-.7-4.7-1-6.2 1.3-1.6 2.5-3.9 4.5-4.5 7.6-11.4 1.1-20.5 6.1-23.8 17.4-5 17.3 2 34.6 21.5 36.9 11.3 1.3 22-.7 30.9-8.3 2.7-2.3 3.2-.7 3.9 1.4 2.9 8.3 5.9 16.6 9 24.9.9 2.5.1 4.1-1.7 5.6-3 2.4-6.4 4-9.9 5.6-8 .6-15.3 3.9-22.9 5.7-15.6 3.2-30.1-.3-43.5-7.9-23.8-13.5-30.7-38.1-27.9-62.4 1.1-10.1 4-19.5 10.3-27.6 7.1-3.9 13.8-8.5 18.2-15.8zM1060.8 163.4c-.9-.6-1-1.6-1.3-2.5 5.3-4.8-.6-6-2.7-8.5l.1.1c-.2-.3-.4-.6-.5-.9-3.4-22.6 11.5-41.6 35.6-45.1 3.6-.5 7.2-1.5 10.9-.9-8.3 13.9-20.9 24.3-31.2 37.3 1.4.2 1.8.4 2 .3.8-.3 1.5-.7 2.2-1.2 10.9-8.2 20.2-18 28-29.2 1.6-2.2 3.8-4.3 3.9-7.3 13.6.3 26.1 4.3 37.5 11.9 2.4 1.6 2.8 3.1 1.3 5.7-3.9 6.9-7.7 14-11.3 21.1-1.6 3.2-2.9 3-5.5 1.1-6.5-4.9-14.2-7.2-22.1-8.8-1.8-.4-3.7-.4-5.5-.1-2.9.4-6.5.4-7.2 4.1-.7 4.1 3.1 4.7 5.8 5.6 7.5 2.6 15.4 4.1 22.8 7.3 5.4 2.4 11.2 4.4 15 9.4-2.9 1.1-5.8 2.3-8.7 3.4-8.1 3.2-8.3 3.6-7.9 12.8 7.6-2.8 15-5.9 22.1-9.8 7.3 10.2 7.1 31.2-4.4 42.9-17.3 17.5-45.2 22.6-67.8 12.2h6.5c18.2.1 29.3-13.3 30.6-30 .1-.3.3-.6.4-.9 0-1.1-.1-2.1-.1-3.2 1.2-2 .5-4.2.7-6.3.1-2.5 1.3-4.5 3.8-4.4 4.3.2 4.1-2.4 4.3-5.4.3-3.9-2.4-4.3-5-4.7-3.9-.6-7.9-.7-11.8-1.5-13.5-2.7-26.9-4.8-40.5-4.5zM773.6 199.6c-1.1-1.7-2.5-3.2-2.8-5.3 7.8-2.1 15.5-4.5 24.5-1.9-3.4-7.8-6.3-15-9.5-22-4.8-10.6-11.4-20.1-18.5-29.4-7.7-10.1-17.5-17.7-26.5-26.2-1.2-1.1-2.7-2.8-4.2-1.8-1.6 1.1-.7 3.3-.4 5.1.9 5.9-.5 11.3-3.1 16.6-3.9 7.9-10.7 11.8-18.9 13.8v-5.1c2.7.4 4.8-.7 6.7-2.4 7.9-7.1 12-15.8 12-26.5 0-3.5-.8-6.1-4.1-7.6 8.3-.1 16.6-.1 24.9-.3 3-.1 4 1.7 5.1 3.8 9.2 17.9 18.5 35.7 27.8 53.6 1.4 2.6 2.8 5.2 4.7 8.5 1.2-5.4-.3-9.8-.3-14.3 0-15.6 0-31.3-.1-46.9 0-3.3.7-4.8 4.4-4.7 10.1.2 20.3.1 30.4.1 2.4 0 4.2.1 4.2 3.3-.2 9.3-.2 18.6-.3 27.9-5.4.9-10.7 2-15.9 5.7 6 1.1 10.9-.7 15.9-2 .1 27.6.1 55.2.2 82.7 0 2.7-1.2 3.4-3.6 3.3-7.8-.1-15.6-.1-23.4-.2-.6-8.6-3.8-16.6-5.9-24.9-.5-2.2-1.7-4.2-3.8-3.8-3.8.9-7.1-.4-10.6-1-3.1-.7-6.4-.9-8.9 1.9zM452.7 106.7c19.2.1 38.5-1.7 57.6 1.7 4 .7 8.1 1.7 11.6 4.1-7.5 8.9-15.4 17.5-22.1 27.1-5.7-4.4-12.6-4.4-18.5-2.5-3.7 1.2-1.3 7.4-1.4 11.3-.3 8.6-.1 8.6 8.2 9.3-4.9 10.4-10 20.8-13.4 31.9-2.7 8.9-4.1 18-6.6 26.9-3.6.2-5.5-2.7-8-4.5-6.7-4.8-12-11.4-19.9-14.6 0-29-.1-57.9-.1-86.9.3-.3.6-.7.8-1 4.1-.2 8.3.2 11.8-2.8zM1024.9 137.4c-7.1 0-14.2.5-21.2 0-4.9-.3-6.5 1.6-6.2 6-5.1.9-10.2 1.5-15.1 3.7 5.1.6 9.9 3 15.1 1.9 1.2 2.4 3.4 1.6 5.3 1.6 11.4.1 22.8.1 34.2 0 3.4 0 5 1 4.6 4.5-.4 4.2.8 8.6-.8 12.8-5.4-1.5-10.8-3.9-15.5 1.5-3.1-2.9-5.1-6.7-8.7-9.3-14.8-10.5-32-10.6-48.9-11.8-2.3-.2-3.5 1.3-3.6 3.2-.2 2.5-1.6 6 1.4 7.2 3.7 1.5 4.5 4 4.8 7.3.5 5.1 1.1 10.2 1.6 15.3-1.8 0-3.2 0-4.3-2.3-1.7-3.6-3.7-7.8-9.2-5.8v-2.7c3.4-2.2 3.4-4 0-6.2-.1-18.3-.2-36.6-.4-54.9 0-3.6 2.5-2.9 4.5-2.9h77.3c2 0 4.1-.3 4 2.9-.1 8.8 0 17.6-.1 26.4 0 .5-.6 1.1-.9 1.6-1.6-2.6-4.2-3.2-6.9-2.7-3.7.8-7.3 1.8-11 2.7z"/><path class="st2" d="M714.2 148.4c8.2-2 15-6 18.9-13.8 2.6-5.2 4-10.7 3.1-16.6-.3-1.8-1.3-4 .4-5.1 1.5-1.1 3.1.7 4.2 1.8 9 8.5 18.8 16.1 26.5 26.2 7.1 9.3 13.7 18.7 18.5 29.4 3.2 7 6.1 14.2 9.5 22-9-2.6-16.7-.1-24.5 1.9-6-10.7-12-21.3-18.8-33.4 0 8.8 1.3 16.2.6 23.7-2.5-.2-5-.2-7.4.7-5 1.8-9.9 3.7-14.9 5.3-7.2 2.3-11.9.4-16-6-.1-12.1-.1-24.1-.1-36.1z"/><path class="st0" d="M113.8 192.4c4.9-7.9 9.6-16 14.8-23.7 2.3-3.4 1.9-5.6-.3-8.8-10.9-16.2-21.5-32.5-32.2-48.8-.8-1.2-2.4-2.4-1.7-3.9s2.7-.7 4.1-.7c12.7-.1 25.3 0 38 0 2 0 3.9-.1 5 2.2 5 9.9 10.2 19.8 15.4 29.7-2.7 6.8-5.5 13.5-8.1 20.3-6.2 16.4-12.5 32.8-18.5 49.3-1.1 3.1-1.7 5.7-5.7 5.4-3.8-.3-5.4-2.5-5.8-6.1-.7-5.3-2.3-10.3-5-14.9z"/><path class="st2" d="M594.8 193.3c.1 10.1.1 20.3.2 30.4 0 2.7-.6 3.8-3.6 3.8-10.8-.2-21.6-.1-32.4 0-2.6 0-3.5-.8-3.4-3.4.1-18.9.2-37.9.2-56.8 1.4 2.2 2.9 4.4 4.2 6.7 2.3 4.3 5.9 5.8 10.4 4.4 4.4-1.3 5.4-4.8 5.1-9-.6-8.5-1.8-16.8-4.1-25-.4-1.5-1.6-3.3.4-4.5 7.3-4 13.5-10.5 22.9-9.6v20.3c-1.4.9-1.8 2.2-1.8 3.8.2 7.1-.6 14.1-1.8 21.1-.9 6.2-.5 12.5 3.7 17.8z"/><path class="st1" d="M338.8 172.3c0-21 .1-41.9.1-62.9 1.9.2 3.4 1.1 4.8 2.3 3.9 3.5 7.5 7.3 11.6 10.5 3.8 3 7 7.2 12.5 7.3 1.3 5.3 4.8 8.2 10.1 8.9 0 1.5.2 3 0 4.5-.7 4.8.2 8.3 6 8.5.1 2.5 2 3.9 3.6 5.1 5.4 4 11.2 7.4 16.5 11.7 5 4 11 7.1 13.9 13.4-1.4 1.3-3.1.8-4.7.8-11.7-.3-23.4.8-35-.8-12.7-5.2-25.9-7.9-39.4-9.3zM958.4 173.3c5.5-1.9 7.5 2.3 9.2 5.8 1.1 2.3 2.5 2.2 4.3 2.3 1.2 3.4 2.2 7 3.6 10.3 3.9 9.3 11.1 15 20.8 16.6 10.8 1.8 19-2.7 24.4-12.2 7.1-.7 14.1-1 21.2.1-.1 3.6 1.9 6.3 3.8 9.1.1 6 0 12 .3 18 .2 3.8-1.5 4.3-4.7 4.3-20.3-.1-40.7-.1-61-.1h-18.5c-1.9 0-3.8 0-3.7-2.7.2-17.2-.7-34.4.3-51.5z"/><path class="st2" d="M157.8 189.5c-1.1.3-1.5 1.3-1.9 2.1-.7.4-1.2.9-1.2 1.7l.1-.1c-.3.4-.6.8-1 1.1-4.8 3.6-6.9 8.7-8.5 14.2-1.5 4.9-3.4 5.9-9.1 4.7-4.7-1-2.9-4.3-2.5-7.1.3-1.6.4-3.3 1.1-4.8 5.2-11.3 9.8-22.9 14.1-34.5 3.8-10.4 8.3-20.5 11-31.3v.1c1-.4 1.1-1.2 1-2.1l-.1.1c.9-.4.9-1.3.9-2.1 3.6-7.1 7.3-14.2 10.7-21.3 1.2-2.6 2.8-3.8 5.7-3.6 4.1.3 8.3.1 12.5.2 2.6 17.7.6 34.8-6.8 51.1-5.7 12.8-15.8 22.3-26 31.6z"/><path class="st0" d="M1020.7 196.1c-5.4 9.6-13.6 14-24.4 12.2-9.8-1.6-17-7.3-20.8-16.6-1.4-3.4-2.4-6.9-3.6-10.3-.5-5.1-1.1-10.2-1.6-15.3-.3-3.3-1.1-5.8-4.8-7.3-3-1.2-1.6-4.7-1.4-7.2.1-2 1.3-3.4 3.6-3.2 17 1.2 34.1 1.3 48.9 11.8 3.6 2.6 5.6 6.4 8.7 9.3 0 .7.1 1.3.1 2-.1.1-.2.3-.2.4.1.2.3.4.5.7.2.2.2.5.3.7 0 2.8-.1 5.6-.1 8.4-7.6.1-15.3.2-22.9.2-4-.1-5.5 1.3-5.3 5.5.4 10-1.4 8.9 9.1 8.9 4.6-.1 9.3-.2 13.9-.2z"/><path class="st1" d="M157.8 189.5c10.2-9.3 20.3-18.8 26.1-31.7 7.4-16.4 9.5-33.4 6.8-51.1 8.7-.1 17.3-.2 26-.2 1.2 0 2.9-.7 3.6.9.5 1.3-.7 2.4-1.5 3.5-10.1 15.4-20.1 31-30.6 46.2-3.7 5.3-4 9.1-.1 14.8 8 11.6 15.9 23.4 22.6 35.8-7.5-3.2-15.1-6.3-22.6-9.6-3-1.3-4-.7-4.4 2.5-1.1 8.9-.6 17.7-.8 26.6-4.6 1.1-7.2-.8-9.2-5.2-4.8-10.9-10.5-21.7-15.9-32.5z"/><path class="st2" d="M538.9 162.4c-2 7.5-7.2 12.6-13.2 16.9-2.7 1.9-2.9 3.1-1.2 5.9 7.5 12.4 14.8 24.9 22.1 37.3.8 1.4 2.1 2.6 2 4.9h-42.8c-2 0-2.5-1.4-3.1-2.7-2.2-4.8-4.4-9.6-6.7-14.5 2.4-9 5.8-17.6 9.3-26.2 2-5.1 5.4-8.1 10.3-10 6.8-2.7 13.4-5.8 19.4-10.1 1-.8 2.1-2.2 3.9-1.5z"/><path class="st1" d="M907 139c.6-3 2.9-5.1 4.5-7.6 1.5-2.3 3.7-2 6.2-1.3 3.2.8 5.2-1.8 3.9-4.8-.5-1.2-1.1-1.6-2.6-1-5.6 2-11.2 5.7-17.2.8-1.5-1.2-3.2-.4-4.7.2-3.8 1.5-6.9.9-9.5-2.6-1.1-1.4-2.5-4-4.7-2.7-1.9 1.2 1.4 3.1.2 5.5-1.8-2.2-6.4-2.1-3.5-6.8.9-1.4-.2-2.6-1.7-3-1.9-.5-2.9-1.5-3.1-3.4 6.9-4 14.4-5.1 22.3-6 10.4-1.3 20.5-1 30.6 1.3 5.4 1.2 10.3 3.6 15.3 6 3.2 1.6 4.2 3.4 2.9 7-2.9 7.8-5.3 15.8-7.8 23.7-1.7 5.4-1.7 5.4-6.2 1.5.8-4.5-3.9-7.5-3.5-11.9 0-.2-1-.5-1.6-.8-.2.6-.7 1.3-.5 1.7 2 3.9-1 5.3-3.5 6.9-.3 0-.6-.1-.8-.2 0-2.7-2.6-3.1-4.1-4.4-3.7-3.4-5-2.9-6 2.1-1.7-.2-3.3-.2-4.9-.2zm-8.6-20.8c-.3-.1-.5-.2-.8-.3-.1.3-.4.6-.3.8.1.2.5.2.7.4.2-.4.3-.7.4-.9z"/><path class="st0" d="M468 216.4c2.5-8.9 3.9-18 6.6-26.9 3.3-11.1 8.4-21.5 13.4-31.9.8-.1 1.6-.2 2.4-.2 11.2-.6 15.3-8.5 9.3-17.8 6.7-9.6 14.6-18.1 22.1-27.1 5.4 1.9 9.6 5.3 13 9.9-5.4 6.9-13.1 11.6-17.8 19.2-1.4 2.2-3 4.4-4.7 6.4-6.7 7.6-10.2 17.2-15.6 25.6-4.1 6.4-5 14.2-8.2 21.1-.9-1.8-2-3.5-2.7-5.3-.9-2.1-2.6-2.4-4.5-2.1-2.2.4-1.6 2.3-1.6 3.6-.1 10.3-.2 20.6.1 30.9.1 4.2-.8 6.3-5.4 5.6-2.1-.3-4.3-.1-6.5-.2.1-3.5.1-7.1.1-10.8z"/><path class="st1" d="M377.9 138.4c-5.4-.7-8.8-3.6-10.1-8.9l.1-.2c8.8-4.5 19.5-5.4 26.6-13.4-2.3-.4-4.3-.2-6.4.7-4.6 1.8-9.3 3.2-13.9 4.9-1.6.6-2.3.5-2.9-1.2-1.5-4.5-3.1-9-4.7-13.6 3.2-.4 6.5-.5 9.7 0-.1.9-.3 1.8-.4 2.6-2.3 1.7-4.1 3.8-3.7 7.7 1.5-3 3.2-5.1 3.6-7.8.5-.9 1.1-1.7 1.6-2.6 14.5-.1 28.9-.1 43.4-.3 2.3 0 3.3.9 3.3 3.2-.1 8.1-.1 16.3 0 24.4.1 3.6-2.2 3.4-4.6 3.4-12.1 0-24.3-.1-36.4 0-1.8.3-3.7-.3-5.2 1.1zM381.9 196.4c13.3 0 26.6 0 40-.1 2.9 0 4.2.8 4.1 4-.2 7.8-.1 15.7 0 23.5 0 2.8-1 3.8-3.8 3.8-15.5-.1-31-.2-46.4-.2.3-1.1.6-2.2.8-3.4 1.5-9.3 5.1-18.1 5.3-27.6z"/><path class="st0" d="M555.9 161.4v-46.9c4.9-1.1 8.2-4.8 11.9-7.7 7.9-.1 15.8-.1 23.8-.3 2.7-.1 3.4 1.1 3.4 3.5-.2 5.4-.1 10.9-.2 16.3-7.8 2.5-16.3 3-23.2 8.1-3.9 2.9-5.5 6.1-4.3 11 1.7 7 2.8 14.2 4.2 21.3.5 2.3 0 4.5-1.9 5.8-1.8 1.3-3.5-.5-4.9-1.4-3.9-2.1-5.4-6.8-8.8-9.7zM1108.9 194.5c-1.3 16.7-12.5 30.1-30.6 30h-6.5c-6.7-1.7-12.4-5.5-18.1-9.1-2.2-1.4-2.2-2.8-1-4.9 4.8-8 9.5-15.9 14.1-24 1.2-2.1 2.3-2.2 4.3-.9 3.3 2.3 6.7 4.3 10 6.4-4.2 4.7-8.3 9.4-12.4 14.2-.8.9-2.5 1.8-.8 3.2 1.4 1.2 2.6 1 3.8-.6 4-5.2 8.2-10.4 12.3-15.6 2.1.3 4.2.9 6 2-2.4 3.6-6.2 6-8.3 9.9-.8 1.3-1 2.5.2 3.6.9.8 1.9.4 2.6-.4 3.2-3.9 7.3-7.2 9.5-11.9 5-.1 10.3 1.5 14.9-1.9zM752.5 191.5c.1 10.8.1 21.6.3 32.5 0 2.6-.8 3.5-3.4 3.5-10.7-.1-21.3-.1-32 0-2.7 0-3.4-1-3.4-3.5.1-9.2.1-18.3.2-27.5 9.2 4.2 17.9 1.2 26.3-2.5 3.9-1.7 7.8-2.5 12-2.5zM381.9 196.4c-.2 9.5-3.7 18.3-5.4 27.5-.2 1.1-.5 2.2-.8 3.4h-11.6c1.4-7.7 3.9-15.1 4.8-22.9.6-4.8-1.4-6.7-5.6-7.5-8.2-1.6-16.3-3.3-24.5-4.9v-7.4c3.4-.4 6.8 2.3 11.2-.1-3.8-2.3-7.4-2.8-11.1-3.1-.1-3-.2-6-.2-9 13.5 1.5 26.7 4.2 39.4 9.2-.1 3.8 0 7.5-.3 11.3-.2 3.2 1.3 3.9 4.1 3.5z"/><path class="st1" d="M488.6 194.8c3.2-6.8 4.1-14.6 8.2-21.1 5.4-8.4 8.9-18 15.6-25.6 1.7-2 3.3-4.1 4.7-6.4 4.6-7.6 12.4-12.3 17.8-19.2 2.4 2.5 4.2 5.5 5 8.9-11.8 9-19.5 21.5-28.2 33.1-2.4 3.1-.1 6.8 3.9 7 3 .2 5.3-1.6 7.8-3 6.2-3.5 11.1-8.9 17.5-12.1.3 1.8-.6 3.3-1.1 4.9-.5.3-1.1.4-.9 1.2v-.1c-1.8-.7-2.8.7-3.9 1.5-6 4.3-12.6 7.5-19.4 10.1-4.9 1.9-8.2 5-10.3 10-3.5 8.6-6.9 17.2-9.3 26.2-2.8-5-5.3-10.1-7.4-15.4zM58.8 227.3c.2-2.7 0-5.2-1.6-7.6-1.1-1.6-1.3-3.5-.3-5.7 1.8-3.6.7-6.4-3.3-7.8-1.2-.5-2.3-1.3-3.3-2.1-.3-.3-.4-1.4-.1-1.8.3-.4 1.3-.8 1.7-.6 6.5 3.9 3.9-1.3 3.9-3.9v-1.5c9.7 0 19.3 0 29-.1 2.9 0 4.2.8 4.1 4-.2 7.8-.1 15.7 0 23.5 0 2.8-.9 3.9-3.7 3.8-8.7-.2-17.6-.1-26.4-.2z"/><path class="st2" d="M338.9 191.9c8.2 1.7 16.3 3.4 24.5 4.9 4.3.8 6.2 2.7 5.6 7.5-.9 7.8-3.4 15.2-4.8 22.9-7.5.1-14.9.1-22.4.2-2.4.1-3.1-.9-3.1-3.2.1-10.8.1-21.6.2-32.3zM60.2 137.4c-1.9-10.3-1.8-20.4 1.5-30.4 7.8-.8 15.6-.2 23.4-.3-.2 10.3-.1 20.6 1.7 30.8-8.9.7-17.7.8-26.6-.1z"/><path class="st0" d="M1060.8 163.4c13.7-.3 27 1.8 40.4 4.5 3.9.8 7.9.9 11.8 1.5 2.6.4 5.3.8 5 4.7-.2 3 0 5.6-4.3 5.4-2.5-.1-3.6 1.9-3.8 4.4-.1 2.1.6 4.3-.7 6.3-2-3-5.2-4-8.4-5-9.4-2.8-18.9-5.5-27.5-10.2-5.2-2.7-9.9-6-12.5-11.6z"/><path class="st1" d="M160 135.5c-2.7 10.8-7.2 20.9-11 31.3-4.3 11.7-8.9 23.2-14.1 34.5-.7 1.5-.9 3.2-1.1 4.8-.5 2.8-2.2 6.1 2.5 7.1 5.6 1.2 7.6.2 9.1-4.7 1.6-5.5 3.8-10.6 8.5-14.2-2.1 8.4-7.1 15.5-10.8 23.1-1.1-2.2-3.2-2.1-5.2-2.1-8.4.3-16.8.5-25.3.9-3.5.2-8.5-.4-8.4 4.6.1 4.5 4.9 4.5 8.6 4.6 8.8.2 17.4-1.9 26.2-.8-.1 2.1-1.3 2.7-3.3 2.7H94.9c-2.5 0-3.6-.7-2-3.1 4.2-6.4 7.8-13.1 12.6-19.1.2 1.6.6 3.3.6 4.9.1 3.6 2.6 3.7 4.8 2.9 2-.7 6.3 1.5 5.4-4-.9-4.8-3-9.1-4.6-13.6.2-1.4.8-2.4 2-3.1 2.8 4.6 4.4 9.6 5 14.9.4 3.6 2.1 5.8 5.8 6.1 4 .3 4.6-2.3 5.7-5.4 6-16.5 12.2-32.9 18.5-49.3 2.6-6.8 5.4-13.5 8.1-20.3 1.1-.8 2.2-1.7 3.2-2.7zM417.9 181.5c-2.9-6.3-8.9-9.4-13.9-13.4-5.2-4.2-11.1-7.7-16.5-11.7-1.6-1.2-3.5-2.6-3.6-5.1 11.1 0 22.3 0 33.4-.2 3.4-.1 4.8.8 4.6 4.4-.3 7.3-.2 14.6-.1 21.9.1 3.1-.8 4.6-3.9 4.1z"/><path class="st0" d="M540.8 156.4c-6.4 3.2-11.3 8.6-17.5 12.1-2.5 1.4-4.7 3.1-7.8 3-4-.2-6.2-3.8-3.9-7 8.7-11.6 16.5-24.1 28.2-33.1 3.3 8.2 3.7 16.5 1 25z"/><path class="st1" d="M468 216.4c0 3.6 0 7.2-.1 10.9-8.1 0-16.2 0-24.4.1-2.4 0-3.8-.5-3.7-3.3.2-8.9.2-17.9.3-26.8 7.8 3.3 13.2 9.9 19.9 14.6 2.5 1.8 4.4 4.8 8 4.5z"/><path class="st0" d="M728.9 106.7c3.3 1.5 4.1 4.1 4.1 7.6 0 10.7-4.1 19.4-12 26.5-1.9 1.7-4.1 2.8-6.7 2.4-.1-11.1-.1-22.2-.2-33.4 0-2.6.9-3.6 3.5-3.5 3.6.4 7.5.4 11.3.4zM773.6 199.6c2.4-2.8 5.8-2.6 8.8-2 3.5.6 6.8 1.9 10.6 1 2.2-.5 3.3 1.6 3.8 3.8 2.1 8.3 5.3 16.3 5.9 24.9-14 .8-14.1.8-20.7-11.4-2.8-5.5-5.6-10.9-8.4-16.3z"/><path class="st1" d="M203.8 227.3c-6.4 0-12.9-.1-19.3-.1 1.1-5.7 2.4-11.3 3.4-17 1-5.4 1.7-6 6.9-4.6.8.2 1.4.8 2.2 1.1 5.6 1.9 10.5 5.8 16.8 5.6 3.6 4.5 6.7 9.4 9.7 15H210c-5.2-7.4-11.1-14.2-18.5-19.7 1.2 3 2 6.1 4.1 8.7 2.9 3.6 6 7 8.2 11z"/><path class="st2" d="M83.1 181.4c-8.3-8.7-14.5-18.6-18.2-30 5.9-1.2 11.9-.3 17.8-.5 1.7-.1 2.2.9 2.2 2.5v26.3c-.1 1.3-.6 1.9-1.8 1.7z"/><path class="st1" d="M555.9 161.4c3.4 2.9 4.8 7.6 8.8 9.9 1.5.9 3.1 2.6 4.9 1.4 1.9-1.3 2.3-3.4 1.9-5.8-1.4-7.1-2.5-14.3-4.2-21.3-1.2-5 .3-8.2 4.3-11 7-5.1 15.4-5.6 23.2-8.1v3.9c-9.3-.9-15.6 5.6-22.9 9.6-2 1.1-.8 2.9-.4 4.5 2.3 8.2 3.5 16.5 4.1 25 .3 4.2-.7 7.7-5.1 9-4.5 1.4-8.1-.1-10.4-4.4-1.3-2.3-2.8-4.5-4.2-6.7v-6z"/><path class="st0" d="M297.9 187.9c.2-5.2 1.7-10.1 3.4-15 1.5-4.2 4.8-6.1 9.2-6.4 4.9-.3 9.6.6 14.2 2-5.7 11.1-14.9 17.1-26.8 19.4z"/><path class="st1" d="M367.8 129.5c-5.5-.1-8.7-4.3-12.5-7.3-4.1-3.2-7.8-7-11.6-10.5-1.4-1.2-2.9-2.1-4.8-2.3-.3-2.6 1.3-2.9 3.4-2.9 7.1.1 14.2.1 21.3.1.4 2 .8 3.9 1.1 5.9 1 5.6 1.1 11.5 3.2 16.9l-.1.1z"/><path class="st0" d="M139 224.7c-8.8-1.1-17.5 1-26.2.8-3.7-.1-8.5 0-8.6-4.6-.1-4.9 4.9-4.4 8.4-4.6 8.4-.4 16.8-.6 25.3-.9 2-.1 4.1-.2 5.2 2.1-1.2 2.5-2 5.2-4.1 7.2z"/><path class="st1" d="M752.5 191.5c-4.2 0-8.1.8-12 2.5-8.5 3.6-17.1 6.7-26.3 2.5 0-4 0-8 .1-12 4.1 6.5 8.9 8.3 16 6 5-1.6 10-3.5 14.9-5.3 2.4-.9 4.9-.8 7.4-.7-.1 2.4-.1 4.7-.1 7z"/><path class="st2" d="M213.8 212.3c-6.3.2-11.2-3.7-16.8-5.6-.8-.3-1.4-.9-2.2-1.1-5.2-1.4-5.9-.8-6.9 4.6-1 5.7-2.3 11.3-3.4 17h-1.3c.1-8.9-.3-17.7.8-26.6.4-3.2 1.4-3.9 4.4-2.5 7.5 3.3 15.1 6.4 22.6 9.6 1.3 1.3 2.5 2.7 2.8 4.6zM1107.8 105.6c-.1 3.1-2.3 5.1-3.9 7.3-7.8 11.2-17.1 21-28 29.2-.6.5-1.4.8-2.2 1.2-.2.1-.6-.1-2-.3 10.3-13 22.9-23.4 31.2-37.3 1.6-.1 3.3-.1 4.9-.1zM367.9 129.4c-2.2-5.4-2.3-11.2-3.2-16.9-.3-2-.7-3.9-1.1-5.9 1 0 2 .1 3 .1 1.6 4.5 3.2 9 4.7 13.6.6 1.7 1.3 1.8 2.9 1.2 4.6-1.7 9.4-3.1 13.9-4.9 2.1-.8 4.1-1 6.4-.7-7.1 8.1-17.8 9-26.6 13.5zM1144 169.4c-7.1 3.9-14.4 7-22.1 9.8-.4-9.2-.2-9.6 7.9-12.8 2.9-1.2 5.8-2.3 8.7-3.4 2.7 1.5 4.4 3.7 5.5 6.4z"/><path class="st1" d="M1025.9 181.5c0-2.8.1-5.6.1-8.4 3.4.2 6.7-1.6 10.1-.6 1.7.5 3.3 1.3 4.9-.2.2.6.5 1.2.6 1.9.6 7.9.6 7.9-7.4 7.8-2.8.1-5.7.7-8.3-.5z"/><path class="st2" d="M111.7 195.5c1.6 4.5 3.7 8.8 4.6 13.6 1 5.5-3.4 3.3-5.4 4-2.2.8-4.7.8-4.8-2.9 0-1.6-.4-3.3-.6-4.9 1.6-3.6 3.7-6.9 6.2-9.8z"/><path class="st1" d="M695.6 170.5c-8.5-3.6-12.6-9.9-11.7-19.2h5c.5 4.5 2.4 8.2 6.7 10.1v9.1zM594.8 193.3c-4.2-5.3-4.6-11.6-3.6-17.8 1.2-7 2.1-14 1.8-21.1-.1-1.6.4-2.9 1.8-3.8v42.7z"/><path class="st2" d="M203.8 227.3c-2.2-4.1-5.3-7.4-8.2-11-2.1-2.6-2.9-5.6-4.1-8.7 7.5 5.4 13.3 12.3 18.5 19.7h-6.2zM1041 172.4c-1.6 1.5-3.2.7-4.9.2-3.4-1-6.7.8-10.1.6 0-.3-.1-.5-.3-.7-.1-.3-.2-.7-.3-1 0-.7-.1-1.3-.1-2 4.7-5.5 10.1-3 15.5-1.5.2.7.3 1.3.5 2-.1.7-.2 1.6-.3 2.4z"/><path class="st1" d="M86.8 137.4c-1.8-10.2-1.9-20.5-1.7-30.8 1.5-.2 2.7.2 2.7 2l-.3 28.1c-.1.2-.5.5-.7.7zM1084 193.2c-4.1 5.2-8.3 10.3-12.3 15.6-1.2 1.6-2.4 1.7-3.8.6-1.7-1.4 0-2.3.8-3.2 4.1-4.8 8.3-9.5 12.4-14.2 1 .4 1.9.8 2.9 1.2zM1093.9 196.3c-2.2 4.8-6.3 8-9.5 11.9-.7.8-1.7 1.2-2.6.4-1.2-1.1-.9-2.2-.2-3.6 2.2-3.8 6-6.2 8.3-9.9 1.5.3 2.9.1 4 1.2z"/><path class="st2" d="M997.5 149.1c-5.2 1.1-10-1.3-15.1-1.9 4.9-2.3 10-2.9 15.1-3.7v5.6zM871 114.4c-4.4 7.3-11 11.9-18.3 15.9 4.7-6.8 10.5-12.6 18.3-15.9zM829.6 141.3c-5 1.4-10 3.1-15.9 2 5.2-3.7 10.5-4.8 15.9-5.7-.1 1.3 0 2.5 0 3.7z"/><path class="st1" d="M612.9 212.4c3.1 4.6 5.5 9.5 7 14.8-7.1.3-7.1.3-7.1-6.4 0-2.8.1-5.6.1-8.4zM567.9 106.8c-3.7 2.9-7 6.7-11.9 7.7-.1-1.5-.1-3-.2-4.4-.2-2.4.6-3.8 3.3-3.6 2.9.2 5.8.2 8.8.3z"/><path class="st2" d="M695.7 161.4c-4.4-2-6.2-5.6-6.7-10.1 6.9-1.1 6.9-1.1 6.9 5.7-.1 1.5-.2 3-.2 4.4zM913.9 228.3c7.7-1.9 15-5.1 22.9-5.7-7 4.5-14.5 6.8-22.9 5.7z"/><path class="st1" d="M922.7 141.6c2.5-1.6 5.4-3 3.5-6.9-.2-.4.3-1.1.5-1.7.6.3 1.6.6 1.6.8-.4 4.4 4.3 7.4 3.5 11.9-3.1-1.4-6.1-2.8-9.1-4.1z"/><path class="st2" d="M1024.9 137.4c3.7-.9 7.3-2 11.1-2.7 2.7-.5 5.3.1 6.9 2.7-6 .5-12 .4-18 0z"/><path class="st1" d="M911.8 139c1-5 2.3-5.5 6-2.1 1.5 1.3 4.1 1.8 4.1 4.4-3.4-.7-6.8-1.5-10.1-2.3z"/><path class="st2" d="M452.7 106.7c-3.5 3-7.7 2.6-11.8 2.7-.2-.2-.5-.3-.8-.3-.4-2.4 1.1-2.6 2.9-2.6 3.2.2 6.5.2 9.7.2z"/><path class="st1" d="M339 181.3c3.7.2 7.3.8 11.1 3.1-4.4 2.4-7.8-.4-11.2.1 0-1.1.1-2.2.1-3.2z"/><path class="st2" d="M1056.8 152.4c2 2.5 8 3.7 2.7 8.5-2-2.5-2.8-5.4-2.7-8.5z"/><path class="st0" d="M1045.7 205.2c-1.9-2.8-3.8-5.5-3.8-9.1 2.9-.5 4.3.6 3.9 3.7-.2 1.9-.1 3.7-.1 5.4z"/><path class="st1" d="M958.4 164.3c3.4 2.2 3.4 4.1 0 6.2-.6-2-.6-4.1 0-6.2z"/><path class="st2" d="M375.9 109.5c.1-.9.3-1.8.4-2.6.4 0 .8 0 1.2-.1-.6.8-1.1 1.7-1.6 2.7-.1-.1 0 0 0 0z"/><path class="st1" d="M161.8 131.4c0 .8 0 1.7-.9 2.1 0-.8.2-1.6.9-2.1zM161 133.5c.1.9-.1 1.7-1 2.1-.1-1 .1-1.7 1-2.1zM154.7 193.4c0-.8.4-1.4 1.2-1.7-.1.7-.4 1.4-1.2 1.7z"/><path class="st0" d="M1109.3 193.6c-.1.3-.3.6-.4.9.1-.3.3-.6.4-.9z"/><path class="st1" d="M153.8 194.4c.3-.4.6-.8 1-1.1-.4.4-.7.7-1 1.1zM440.1 109.1c.3 0 .6.1.8.3-.3.3-.6.7-.8 1-.1-.4 0-.8 0-1.3zM1041.3 169.9z"/><path class="st2" d="M1056.4 151.6c.2.3.4.6.5.9-.2-.3-.4-.6-.5-.9zM538.8 162.5c-.3-.8.4-1 .9-1.2-.3.3-.6.8-.9 1.2z"/><path class="st1" d="M1025.4 171.4c.1.3.2.7.3 1-.2-.2-.3-.4-.5-.7 0 0 .2-.2.2-.3zM898.4 118.2c-.1.3-.2.5-.3.8-.3-.1-.7-.2-.7-.4-.1-.2.2-.5.3-.8.2.1.4.2.7.4z"/><path class="st2" d="M375.8 109.4c-.5 2.7-2.2 4.8-3.6 7.8-.4-4 1.4-6 3.6-7.8.1.1 0 0 0 0z"/><path id="Line" class="st3" d="M722 49.2h407.1"/><g class="st4"><path class="st5" d="M618.2 30.7l-.5.5c-.2.1-.4.2-.6.2-.3 0-.6-.1-.9-.4s-.7-.6-1.2-1c-.5-.3-1.1-.7-1.8-1-.7-.3-1.6-.4-2.6-.4-1.1 0-2 .2-2.8.5-.8.3-1.5.8-2.1 1.4-.6.6-1 1.2-1.3 2-.3.8-.4 1.6-.4 2.5 0 .9.2 1.6.6 2.2s.9 1.1 1.6 1.5c.6.4 1.4.8 2.2 1.1s1.7.7 2.6 1c.9.3 1.7.7 2.6 1.1.8.4 1.6.9 2.2 1.5.7.6 1.2 1.4 1.6 2.2.4.9.6 1.9.6 3.1 0 1.7-.3 3.3-.9 4.8-.6 1.5-1.4 2.8-2.5 4-1.1 1.1-2.4 2-4 2.7-1.5.7-3.3 1-5.2 1-2.1 0-4-.4-5.7-1.3s-3.1-2-4.1-3.4l1.7-2.2c.1-.2.3-.3.5-.5.2-.1.4-.2.6-.2.3 0 .7.2 1 .6.4.4.8.8 1.4 1.2.6.5 1.3.9 2.1 1.2.8.4 1.9.6 3.1.6 1.2 0 2.2-.2 3.1-.5s1.7-.9 2.4-1.5c.6-.6 1.1-1.4 1.5-2.3.3-.9.5-1.9.5-3 0-.9-.2-1.7-.6-2.3-.4-.6-.9-1.1-1.6-1.5-.6-.4-1.4-.8-2.2-1.1-.8-.3-1.7-.6-2.6-.9-.9-.3-1.7-.7-2.5-1.1-.8-.4-1.6-.9-2.2-1.5-.7-.6-1.2-1.4-1.6-2.3-.4-.9-.6-2-.6-3.3 0-1.5.3-2.9.8-4.2.5-1.3 1.3-2.5 2.3-3.6 1-1 2.2-1.9 3.6-2.5 1.4-.6 3.1-.9 4.9-.9 1.8 0 3.5.3 5 1s2.7 1.7 3.6 2.9l-1.6 2.1zM621.4 61l4.4-36.8h4.5l-2.1 17.1c1.3-2 2.8-3.5 4.4-4.5 1.6-1 3.3-1.5 4.9-1.5 1.9 0 3.4.6 4.4 1.9s1.6 3.1 1.6 5.5v1c0 .4-.1.7-.1 1.1L641.5 61H637l1.9-16.1c0-.3.1-.7.1-1V43c0-1.4-.3-2.4-.8-3.1-.5-.7-1.3-1-2.4-1-.8 0-1.5.2-2.3.6-.8.4-1.6 1-2.3 1.7s-1.5 1.7-2.1 2.7c-.6 1.1-1.2 2.2-1.7 3.5L625.8 61h-4.4zM666.3 61H664c-.6 0-1-.2-1.2-.5-.2-.3-.3-.7-.3-1.1l.4-5.1c-.6 1.1-1.2 2-1.9 2.9-.7.9-1.4 1.6-2.2 2.2-.8.6-1.6 1.1-2.4 1.4-.9.3-1.7.5-2.7.5-1 0-1.9-.2-2.7-.6-.8-.4-1.5-1-2.1-1.7-.6-.8-1-1.7-1.3-2.8s-.5-2.4-.5-3.8c0-1.5.2-3 .6-4.4.4-1.4.9-2.8 1.6-4s1.5-2.4 2.5-3.5 2-2 3.2-2.8c1.2-.8 2.5-1.4 3.8-1.8 1.4-.4 2.8-.6 4.3-.6 1.1 0 2.1.1 3.2.3 1 .2 2 .5 3 .9l-3 24.5zm-10.9-3.3c.8 0 1.6-.2 2.4-.8.8-.5 1.5-1.2 2.2-2.1.7-.9 1.4-1.9 2-3.2.6-1.2 1.1-2.6 1.6-4l1.1-8.6c-.4-.3-.7-.4-1.1-.4h-1.1c-1 0-2 .2-2.9.5-.9.3-1.8.8-2.6 1.4-.8.6-1.6 1.3-2.2 2.1-.7.8-1.2 1.7-1.7 2.7-.5 1-.8 2-1.1 3.1s-.4 2.2-.4 3.4c0 3.8 1.3 5.9 3.8 5.9zM672.9 61l3.1-25.3h2.2c.5 0 .8.1 1.1.3.3.2.4.6.4 1v1.2l-.4 4.6c1.1-2.3 2.3-4.1 3.6-5.4 1.3-1.3 2.8-1.9 4.2-1.9.7 0 1.4.2 2.1.5l-.8 4.3c-.8-.3-1.5-.5-2.3-.5-1.6 0-3.1.8-4.3 2.4-1.3 1.6-2.3 4-3.2 7.2L677.3 61h-4.4zM709.8 41.1c0 1.1-.2 2.1-.7 3-.4.9-1.3 1.8-2.5 2.5s-2.8 1.4-5 1.9c-2.1.5-4.8 1-8.1 1.3v1c0 2.2.5 3.9 1.5 5.1 1 1.2 2.4 1.8 4.4 1.8.8 0 1.5-.1 2.1-.2.6-.2 1.2-.4 1.7-.6.5-.2.9-.5 1.3-.8.4-.3.7-.6 1-.8l.9-.6c.3-.2.5-.2.8-.2.3 0 .6.1.8.4l1.1 1.4c-.8.9-1.7 1.6-2.5 2.3s-1.6 1.1-2.5 1.6c-.9.4-1.7.7-2.7.9-.9.2-1.9.3-3 .3-1.5 0-2.8-.2-3.9-.7-1.2-.5-2.1-1.2-2.9-2.1-.8-.9-1.4-2-1.8-3.2s-.7-2.7-.7-4.2c0-1.3.1-2.6.4-3.9.3-1.3.7-2.5 1.2-3.7.5-1.2 1.2-2.2 1.9-3.2.8-1 1.6-1.9 2.6-2.6 1-.7 2-1.3 3.2-1.7 1.2-.4 2.4-.6 3.8-.6 1.3 0 2.4.2 3.3.5.9.4 1.7.8 2.3 1.4s1 1.2 1.3 1.9c.5.5.7 1.2.7 1.8zm-7.7-2.6c-1 0-2 .2-2.9.6-.9.4-1.7 1-2.3 1.8-.7.8-1.3 1.6-1.8 2.7-.5 1-.9 2.1-1.1 3.3 2.6-.3 4.6-.7 6.2-1.1 1.5-.4 2.7-.8 3.6-1.3.8-.5 1.4-1 1.7-1.5.3-.5.4-1.1.4-1.7 0-.3-.1-.6-.2-.9-.1-.3-.3-.6-.6-.9-.3-.3-.7-.5-1.1-.7-.7-.2-1.2-.3-1.9-.3z"/></g><g id="Group-17" transform="translate(518)" class="st6"><path id="Shape" class="st5" d="M36 0C16.1 0 0 16.1 0 36s16.1 36 36 36 36-16.1 36-36S55.9 0 36 0zM25.9 21.4L55.1 36 25.9 50.6V21.4z"/></g></svg>