<svg xmlns="http://www.w3.org/2000/svg" viewBox="0 0 1147.3 325.12"><defs><clipPath id="a"><path fill="none" d="M720.2 99.89h409v4h-409z"/></clipPath><clipPath id="b"><path d="M537 82.29l29.15 14.6-29.2 14.6v-29.2zm10.15-21.4a36 36 0 1 0 36 36 36 36 0 0 0-36-36z" fill="none"/></clipPath><clipPath id="c"><path fill="none" d="M511.2 60.89h72v72h-72z"/></clipPath></defs><title>Intro-svg</title><g clip-path="url(#a)" opacity=".5"><g clip-path="url(#a)" opacity=".5"><path fill="#fff" d="M720.7 101.59h408.1v1H720.7z"/></g><g clip-path="url(#b)"><g clip-path="url(#c)" opacity=".5"><path fill="#fff" d="M506.2 55.89h82v82h-82z"/></g></g><g opacity=".5" fill="#fff"><path d="M575.15 85.67a43.53 43.53 0 0 0-83.08 26c.27.86.57 1.71.89 2.54l.06.16v.12a2.72 2.72 0 0 0 5.09-1.9 2.68 2.68 0 0 0-.1-.27q-.43-1.12-.79-2.27a38.08 38.08 0 1 1 9.62 15.76l-.19-.14a2.72 2.72 0 0 0-3.63 4 43.53 43.53 0 0 0 72.13-44z"/><path d="M556.55 96.24l-35.4-19a2.72 2.72 0 0 0-3.58 1.16l-.06.1v.12l-.07.2v.06a.44.44 0 0 1 0 .2v38.72a2.72 2.72 0 0 0 3.9 2.5l35.26-19.06a2.81 2.81 0 0 0-.05-5zm-33.84-12l27 14.55-27 14.55V84.19z"/></g></g><g opacity=".5"><g opacity=".75" fill="#fff"><path d="M542.13 102.15l-1.65 13.45h-4.65l4.38-35.83h9.88a16.25 16.25 0 0 1 5 .67 9.2 9.2 0 0 1 3.46 1.93 7.84 7.84 0 0 1 2 3 10.75 10.75 0 0 1 .67 3.9 14.12 14.12 0 0 1-.92 5.19 11.27 11.27 0 0 1-2.69 4.06 12.39 12.39 0 0 1-4.35 2.66 16.89 16.89 0 0 1-5.91 1h-5.2zm2.3-18.7l-1.85 15h5.2a10 10 0 0 0 3.75-.65 7.57 7.57 0 0 0 2.72-1.8 7.81 7.81 0 0 0 1.67-2.78 10.4 10.4 0 0 0 .58-3.51 7.47 7.47 0 0 0-.43-2.6 5.14 5.14 0 0 0-1.27-2 5.7 5.7 0 0 0-2.15-1.25 9.5 9.5 0 0 0-3-.44h-5.2zM580.83 115.6h-2.3a1.35 1.35 0 0 1-1.19-.45A1.88 1.88 0 0 1 577 114l.45-5.07a21.51 21.51 0 0 1-1.94 2.88 13.46 13.46 0 0 1-2.2 2.2 9.6 9.6 0 0 1-2.44 1.4 7.24 7.24 0 0 1-2.65.5 6.22 6.22 0 0 1-2.73-.59 5.66 5.66 0 0 1-2.09-1.73 8.38 8.38 0 0 1-1.34-2.8 13.92 13.92 0 0 1-.47-3.81 17.17 17.17 0 0 1 .56-4.39 17.84 17.84 0 0 1 4.09-7.52 16.65 16.65 0 0 1 3.24-2.75 15.35 15.35 0 0 1 3.84-1.8 14.37 14.37 0 0 1 4.3-.64 18.69 18.69 0 0 1 3.16.26 13.14 13.14 0 0 1 3 .92zm-10.9-3.35a4.41 4.41 0 0 0 2.4-.75 9.15 9.15 0 0 0 2.22-2.08 18.08 18.08 0 0 0 2-3.16 28.53 28.53 0 0 0 1.61-4l1.07-8.56a1.74 1.74 0 0 0-1.09-.45h-1.06a8.77 8.77 0 0 0-2.9.49 10.35 10.35 0 0 0-2.62 1.36 11.65 11.65 0 0 0-2.23 2.08 13.58 13.58 0 0 0-1.71 2.66 14.93 14.93 0 0 0-1.11 3.08 14 14 0 0 0-.4 3.35q-.03 5.98 3.82 5.98zM587.45 115.6l3-25.35h2.22a1.7 1.7 0 0 1 1.1.32 1.22 1.22 0 0 1 .4 1V92.77l-.35 4.6a17.45 17.45 0 0 1 3.64-5.4 6.13 6.13 0 0 1 4.24-1.9 5.29 5.29 0 0 1 2.1.45l-.8 4.28a6.06 6.06 0 0 0-2.27-.48 5.49 5.49 0 0 0-4.33 2.36 19.56 19.56 0 0 0-3.17 7.16l-1.4 11.75h-4.35zM607.2 110.82v-.39c0-.16 0-.39.05-.69s.06-.69.11-1.18.13-1.12.23-1.9L609.18 94h-2.83a.79.79 0 0 1-.54-.19.75.75 0 0 1-.21-.59v-.3l.06-.51.08-.59q0-.3.06-.57l3.9-.53 1.88-7.83a1.19 1.19 0 0 1 .38-.61 1 1 0 0 1 .67-.24H615l-1.1 8.72h6.65l-.37 3.24h-6.68l-1.5 12.45q-.12 1-.19 1.65l-.1 1v.75a2.64 2.64 0 0 0 .59 1.89 2.13 2.13 0 0 0 1.61.61 3.26 3.26 0 0 0 1.15-.19 5 5 0 0 0 .86-.41c.24-.15.45-.29.61-.41a.78.78 0 0 1 .45-.19.46.46 0 0 1 .31.1 1.27 1.27 0 0 1 .24.32l.92 2.13a9 9 0 0 1-2.76 1.69 8.55 8.55 0 0 1-3.14.61 5.34 5.34 0 0 1-3.83-1.33 5.2 5.2 0 0 1-1.52-3.85zM630.15 90.27l-3 25.33h-4.37l3-25.33h4.38zm1.68-8a2.82 2.82 0 0 1-.26 1.21 3.47 3.47 0 0 1-.7 1 3.33 3.33 0 0 1-1 .69 2.74 2.74 0 0 1-1.15.25 2.68 2.68 0 0 1-1.12-.25 3 3 0 0 1-1-.69 3.53 3.53 0 0 1-.66-1 3 3 0 0 1-.25-1.21 3 3 0 0 1 .31-1.17 3.37 3.37 0 0 1 1.65-1.71 2.59 2.59 0 0 1 1.13-.26 2.75 2.75 0 0 1 1.15.25 3.34 3.34 0 0 1 1 .69 3.24 3.24 0 0 1 .69 1 3.14 3.14 0 0 1 .21 1.25zM634.73 115.6l4.47-36.83h4.38l-4.48 36.83h-4.37zM646.38 115.6l4.45-36.83h4.45l-2.08 17.1a15 15 0 0 1 4.39-4.46 9.19 9.19 0 0 1 4.94-1.51 5.38 5.38 0 0 1 4.42 1.9 8.56 8.56 0 0 1 1.55 5.52v1q0 .5-.1 1.11l-1.9 16.13H662l1.9-16.13q0-.5.09-1t0-.89a5 5 0 0 0-.76-3.05 2.84 2.84 0 0 0-2.41-1 5 5 0 0 0-2.31.61 9.38 9.38 0 0 0-2.31 1.74 14.67 14.67 0 0 0-2.1 2.71 20.25 20.25 0 0 0-1.7 3.54l-1.62 13.42h-4.45zM691.3 115.6H689a1.35 1.35 0 0 1-1.19-.45 1.87 1.87 0 0 1-.31-1.1l.45-5.07a21.51 21.51 0 0 1-1.94 2.88 13.42 13.42 0 0 1-2.2 2.2 9.64 9.64 0 0 1-2.44 1.4 7.24 7.24 0 0 1-2.65.5 6.22 6.22 0 0 1-2.72-.59 5.68 5.68 0 0 1-2.09-1.73 8.42 8.42 0 0 1-1.34-2.8 13.92 13.92 0 0 1-.47-3.81 17.17 17.17 0 0 1 .56-4.39 17.83 17.83 0 0 1 4.09-7.52 16.65 16.65 0 0 1 3.25-2.76 15.36 15.36 0 0 1 3.84-1.8 14.38 14.38 0 0 1 4.3-.64 18.67 18.67 0 0 1 3.16.26 13.12 13.12 0 0 1 3 .92zm-10.9-3.35a4.41 4.41 0 0 0 2.4-.75 9.19 9.19 0 0 0 2.23-2.08 18.2 18.2 0 0 0 2-3.16 28.53 28.53 0 0 0 1.61-4l1.08-8.56a1.74 1.74 0 0 0-1.09-.45h-1.06a8.78 8.78 0 0 0-2.9.49 10.35 10.35 0 0 0-2.67 1.33 11.65 11.65 0 0 0-2.22 2.08 13.45 13.45 0 0 0-1.71 2.66 15.11 15.11 0 0 0-1.11 3.08 14.1 14.1 0 0 0-.4 3.35q-.01 6.01 3.84 6.01zM697.92 115.6l3-25.35h2.22a1.7 1.7 0 0 1 1.1.32 1.22 1.22 0 0 1 .4 1V92.77l-.35 4.6a17.45 17.45 0 0 1 3.64-5.4 6.13 6.13 0 0 1 4.24-1.9 5.29 5.29 0 0 1 2.1.45l-.8 4.28a6.06 6.06 0 0 0-2.27-.48 5.49 5.49 0 0 0-4.33 2.36 19.56 19.56 0 0 0-3.17 7.16l-1.4 11.75h-4.35z"/></g></g><g opacity=".5" fill="#fff"><path d="M513.11 75.51a42 42 0 0 0-80.22 25.12c.26.83.55 1.65.86 2.45l.06.15v.11a2.63 2.63 0 0 0 4.91-1.84 2.59 2.59 0 0 0-.1-.26q-.41-1.08-.76-2.2a36.77 36.77 0 1 1 9.28 15.22l-.2-.2a2.62 2.62 0 0 0-3.51 3.91 42 42 0 0 0 69.68-42.46z"/><path d="M495.16 85.7L461 67.31a2.62 2.62 0 0 0-3.46 1.12l-.05.1v.11l-.07.19V106.48a2.62 2.62 0 0 0 3.77 2.42l34.15-18.4a2.71 2.71 0 0 0-.18-4.8zm-32.67-11.63l26.08 14.05-26.08 14.05v-28.1z"/></g><g opacity=".5"><path d="M42.32 236.35h40.5v-28.67h-40.5v-12.15h42.93v-28.84H5.87V278.46h81v-29.15H42.32v-12.96zM354.13 236.35h40.5v-28.67h-40.5v-12.15h42.93v-28.84H317.69v111.77h80.99v-29.15h-44.55v-12.96zM736.56 208.81c0 5.35.32 12.15.81 20.25l-25.06-48.26-7.31-14.11h-39.71v111.77h35.64v-42.11c0-4.77-.26-10.72-.66-17.7l.59-1.19 33.27 61h38.07V166.69h-35.64v42.12zM872.63 237.16l-.16.15q-10 9.88-26 10h-.57a32.69 32.69 0 0 1-3.55-.2c-12.54-1.37-22-10.09-22-24.91 0-12.29 5.89-20.35 14.89-23.75q1.17-.44 2.4-.78a31.61 31.61 0 0 1 8.31-1.06 33.6 33.6 0 0 1 12.63 2.75c4.37 1.78 7.45 3.08 8.91 4.21.79.62 1.53 1.14 2.18 1.61a12.53 12.53 0 0 1 1.39 1.14l.93-3 3.38-10.7 5.41-17.12-1.3-1.13a55.86 55.86 0 0 0-12-5.67c-5.35-2.11-14.74-3.73-24-3.73-17.33 0-31.59 5.18-42.93 15.39a50 50 0 0 0-15.68 28.21 71.94 71.94 0 0 0-1.33 14.07c0 17.2 5.2 31 15.58 41.08.47.46.94.92 1.43 1.36.94.85 1.91 1.64 2.89 2.42a56.9 56.9 0 0 0 19 9.89c1.52.46 3.07.85 4.65 1.2a75.63 75.63 0 0 0 16.41 1.72c1.46 0 2.87 0 4.27-.12s3-.18 4.5-.34a55.42 55.42 0 0 0 21.34-6.41q1.18-.66 2.31-1.39t2.3-1.58a43.12 43.12 0 0 0 4-3.29c.34-.32.68-.63 1-1l-5.58-15.45zm-2.14 33.43zM891.25 183.26V264a7 7 0 0 0-.34 1.45h.34v13.05h36.61V166.69h-36.61v16.56zM1127.91 217.39c-4.05-3.4-10.37-6.64-18.63-9.39-1.46-.49-4.05-1.3-7.61-2.27l-1.82-.57L1096 204c-2.59-.65-7.78-2.11-7.78-5.18 0-2.48 2-3.91 5.91-4.37a27.1 27.1 0 0 1 3.16-.17c3.4 0 7.78 1 13 2.92a40.31 40.31 0 0 1 13.61 7.77l6.4-11.92 7.53-14c-6.74-5.73-16.22-10-26.31-12a67.83 67.83 0 0 0-13.53-1.4 72.9 72.9 0 0 0-13.78 1.22 46.57 46.57 0 0 0-12.7 4.26 1.68 1.68 0 0 0-1.68.93 35 35 0 0 0-4.72 3.31 39.66 39.66 0 0 0-5.43 5.45 34.17 34.17 0 0 0-2.89 4.13 33.56 33.56 0 0 0-4.64 17.47 35.87 35.87 0 0 0 1.46 10.49 27.94 27.94 0 0 0 8.74 13.32 29.13 29.13 0 0 0 3 2.2 74.78 74.78 0 0 0 12.35 6.06c3.34 1.14 6.43 2.18 9.31 3.11q2.41.77 4.63 1.43l2.25.65a22.05 22.05 0 0 1 5 1.86 6 6 0 0 1 3.12 4c0 2.71-2.14 4.29-6.42 4.63-.58 0-1.19.07-1.84.07a31.27 31.27 0 0 1-7.1-1q-1.77-.43-3.77-1c-1-.3-2-.63-3.07-1a51 51 0 0 1-15-8.41l-.84-.66-.34.58-15.63 26.58-4.43-12.75-1.65-4.73-3.1-8.91-4.84-13.92-2.61-7.49-1.75-5-7.84-22.55-1.2-3.46-2.7-7.77-4.12-11.83h-40.5l-1.9 5.46-37 106.31h38.07l4.21-15.71h31.91l1.89 6.78 2.49 8.93h39.69l-2.66-7.66-1.17-3.38-.55-1.59c.67.49 1.35 1 2 1.44 1.5 1 3 2 4.52 2.89a75.05 75.05 0 0 0 13 6.22 67.35 67.35 0 0 0 23 4c13.77 0 24.78-3.24 33-9.56q14.58-11.42 14.58-29.16c.1-10.4-3.47-18.5-10.43-24.5zM998 234.73h-13.6l4.87-17.66 2.76-10c.25-.61.51-1.21.77-1.81l4.42 16 3.7 13.44H998zM205.97 269.66l-3.69-5.78-6.98-10.91-20.97-32.82 35.15-53.46h-43.73l-15.71 29.97-14.22-26.83-1.66-3.14H90.43l35.31 53.46-37.26 58.31h43.74l17.82-35.63 16.13 32.27 1.68 3.36h43.74l-5.62-8.8zM607.79 236.35h40.49v-28.67h-40.49v-12.15h42.93v-28.84h-79.38v111.77H652.33v-29.15h-44.54v-12.96zM611.03 148.88l7.61 12.96h23.49l-12.96-23.49h-36.44l-12.96 23.49h23.48l7.78-12.96zM491.47 242.28l-3.7-6.26a44.35 44.35 0 0 0 5-3.47c9.12-7.3 13.64-17.33 13.64-30.23a35.07 35.07 0 0 0-3.3-15.51 29.59 29.59 0 0 0-3.68-5.75 33.43 33.43 0 0 0-6.79-6.28c-7.61-5.35-18.47-8.1-32.4-8.1h-48.61v111.78h36.61v-37.25h4.7l12.22 25.55 5.6 11.71h42.12l-6.49-11zm-26.06-30.55c-1.62 1.3-4.37 1.94-8.1 1.94h-9.23v-19.44h9.23c3.73 0 6.32.65 8.1 2.11a8.54 8.54 0 0 1 4.05 7.61 9 9 0 0 1-4.05 7.78zM543.86 166.69h-25.32v111.77h36.61V166.69h-11.29zm5.12 3.91zm0 0c-.61-.5-1.29-1-2-1.44.69.47 1.38.93 2 1.44zM296.14 175.6c-5.91-4.75-13.65-7.56-23.22-8.52a78.58 78.58 0 0 0-7.88-.39h-48.6V278.45h36.61v-34.81h12c13.28 0 23.65-2.92 31.1-8.91a31.06 31.06 0 0 0 9.09-11.54 42.48 42.48 0 0 0 3.54-17.94c0-.94 0-1.86-.07-2.76q-.84-17.63-12.57-26.89zm-28.25 38.48l-.1.08c-1.94 1.3-4.86 1.94-8.91 1.94h-6v-21.87h6c4 0 7 .65 8.91 2.11 2.75 1.78 4 4.86 4 8.91s-1.21 7.04-3.9 8.83z"/></g><path d="M445.06 215q1.81 4 3.87 7.94-2.06-3.94-3.87-7.94zM432.12 163.69A150.62 150.62 0 0 0 445.06 215a150.6 150.6 0 0 1-12.94-51.31zM546 167.6c-1.62-1.34-3.8-2.43-5.14-3.91 1.33 1.48 3.51 2.57 5.14 3.91zM549.7 168.48l-.2-.13zM545.83 164c0-.11-.09-.22-.13-.33.04.14.09.25.13.33zM867.49 267.58zM832.19 195.5c-.05-.22-.1-.43-.14-.65 0 .22.09.43.14.65zM914.13 243.67v.05zM900.22 252.31l.06.06-.06-.06z"/><path d="M83.87 275.46v-29.15H39.32v-13h40.5v-28.63h-40.5v-12.15h42.93v-28.84H2.87v95q5.8 8.36 11.6 16.74h69.4zM190.29 265.92q1.5 0 3 .08c3.22.13 6.45.38 9.67.66l-3.69-5.77c-3.35 2.68-7.35 3.93-13.34.91a27.74 27.74 0 0 1 6.37-11.8l-21-32.82 35.15-53.45h-43.7l-15.71 30-14.21-26.83a56.65 56.65 0 0 1-7 .42c-3.16 0-6.51-.59-9.45.23-6.07 1.7-9.34-.07-11.07-3.79H87.43l35.31 53.45-37.26 58.25h43.74L147 239.83l16.14 32.27c8.25-5.46 17.62-6.32 27.15-6.18zM228.06 271.61c-.36.66-2 .61-3.11.89a36.15 36.15 0 0 0 2.62 3h9.71a15.24 15.24 0 0 1 7.92 0h4.86v-34.86h12c13.28 0 23.65-2.92 31.1-8.91a31.06 31.06 0 0 0 9.09-11.54c-12.65-2.16-25-5.6-37.34-9.11l-.1.08c-1.94 1.3-4.86 1.94-8.91 1.94h-6v-21.87h2.77c1.79-9.21 3.71-18.38 5.72-27.54h-34.26l10.17 8.46a72.5 72.5 0 0 1-18.8-8.46h-2.05v79.51h.25c9.62 1.51 18.98 19.8 14.36 28.41zM213.45 267.58l.88.07c-.66-3.18-.56-6.51-.88-9.75v9.68zM314.68 221.55v53.91h81v-29.15h-44.55v-13h40.5v-28.63h-40.5v-5.12c-4-.74-7.93-1.59-11.89-2.53 4 .16 7.92.29 11.89.43v-4.92h42.93v-28.85h-59.88q-5.16 23.58-10.25 47.17c-1.61 7.45-3.72 10.39-9.25 10.69zM476.5 216.77a32.58 32.58 0 0 0 4.05 11.33 126 126 0 0 0 7.92 11.18l-3.7-6.26a44.35 44.35 0 0 0 5-3.47c-3.9-6.47-6.33-12.88-6.08-17.66.59-11.23 7.24-21.54 16.42-28.07a29.58 29.58 0 0 0-3.68-5.75c-13.17 9.29-22.43 25.27-19.93 38.7z" fill="#9cd1c8"/><path d="M453 210.67h-8v-19.44h.23a130.57 130.57 0 0 1-5-27.54h-8.14A150.6 150.6 0 0 0 445.06 215q1.81 4 3.87 7.94 2.74 5.23 5.91 10.3a120.17 120.17 0 0 0 44.24 42.25h10.8l-6.49-11a143.42 143.42 0 0 1-22.52-17.26A129.34 129.34 0 0 1 453 210.67zM418.71 163.69h-10.08v111.77h36.61V243q-1.91-2.87-3.72-5.88c-13.58-22.63-20.1-47.6-22.81-73.43zM467.76 275.46h7.82a129.17 129.17 0 0 1-13.42-11.71zM515.54 275.46h10.37q-5.3-1.95-10.37-4.36v4.36zM516.29 255.41l-.75-.34V260a56.1 56.1 0 0 0 13.52 3.14 71 71 0 0 1 21.66 5.84l1.43.66v-4.55l-.88-.22c-11.75-2.87-23.72-4.7-34.98-9.46z" fill="#9cd1c8"/><circle cx="545.99" cy="167.6" transform="rotate(-80.54 545.975 167.608)" fill="#9cd1c8"/><path d="M526.57 177.08c7.69 1.32 15.6-.44 23.22 1.85a4.61 4.61 0 0 0 2.36.13v-8.35c-.28-.33-.56-.65-.86-1a8.55 8.55 0 0 0-1.59-1.29l-.2-.13a6 6 0 0 0-3.49-.75H546c.67 3.09.06 4.7-1.6 5.26a5.33 5.33 0 0 1-1.77.23 13.27 13.27 0 0 1-2.29-.26c-8.17-1.57-16.3-3.29-24.76-2.38v6.73a31.72 31.72 0 0 1 10.99-.04zM646.88 267.79c-6.54 2.53-13 5.15-19.59 7.67h22v-2.82l-.29-.18a6.46 6.46 0 0 1-2.12-4.67z" fill="#9cd1c8"/><path d="M1108.48 164a79.78 79.78 0 0 0 7.11 10.62c3.59 4.42 9.08 9.26 11.68 15.43l7.53-14c-6.8-5.78-16.23-10.05-26.32-12.05z" fill="#5ca89b"/><path d="M989.65 201.76l-.65 2.31c.25-.61.51-1.21.77-1.81zM649 272.46l.29.18v-6.56l-2.45 1.7a6.46 6.46 0 0 0 2.16 4.68zM731.13 275.46h34.1c-.07-3 1.24-3.82 4-2.74v-4.47c-6-5.24-9.53-12.78-9.48-24.27.06-13-3.89-26.1-7.75-38.82-2-6.56 1.11-9.48 7.74-7.41 3.19 1 6.34 2.1 9.48 3.24v-37.3h-35.66v42.12c0 5.35.32 12.15.81 20.25l-25.06-48.26a123.23 123.23 0 0 1-11.45 36.66zM662.29 257.27v18.19h35.64v-42.11c0-4.77-.26-10.72-.66-17.7a132.51 132.51 0 0 1-11.86 19.11 107.18 107.18 0 0 1-23.12 22.51zM853.17 262.53c4.69 1.92 8.67 5.93 14.34 5.08-2.91-1.8-5.61-4.43-8.77-5.26-10-2.65-13.69-9-15.27-18h-.57a32.66 32.66 0 0 1-3.55-.2q.53 2.88 1.1 5.75c1.29 6.43-.24 10.69-5.09 14.26a131.22 131.22 0 0 1-16 10.32c1.52.46 3.07.85 4.65 1.2 6.18-3.69 12-8.29 18.23-12.9l2.45 14.5c1.53-.08 3-.18 4.5-.34-.51-3.47-.66-7-1.43-10.45-1.32-6 1.15-5.7 5.41-3.96zM869.47 234.31c1.53 11.15 3.53 22.23 5.72 33.26a43.12 43.12 0 0 0 4-3.29 6.85 6.85 0 0 1-2.28-4.23c-.84-4-1.59-8.11-2.29-12.17l-4.95-13.71zM788.62 213.52c2.55 15.71 5 31.45 7.49 47.29.47.46.94.92 1.43 1.36.94.85 1.91 1.64 2.89 2.42-2.62-16-5.17-32.1-7.77-48.15-1-6.17 1.24-10.38 6.86-13.38 7.63-4.07 15.17-8.37 22.35-13.17 5.8-3.88 9.16-4.29 10 3.91 0 .35.09.7.16 1s.09.43.14.65q1.17-.44 2.4-.78l-.1-.48c-1.35-6.5.83-8.86 6.9-7.78 7 1.25 13.92 2.91 20.81 4.65 3.33.84 4.26 4 4.31 6.85q0 2.14.11 4.27a12.54 12.54 0 0 1 1.39 1.14l.93-3a15.57 15.57 0 0 1 3.38-10.7l5.41-17.12-1.3-1.13a55.87 55.87 0 0 0-12-5.67c-5.35-2.11-14.74-3.73-24-3.73-17.33 0-31.59 5.18-42.93 15.39a50 50 0 0 0-15.68 28.21l1.46.53c3.56 1.34 4.85 4.28 5.36 7.42zM867.49 267.58a34.69 34.69 0 0 1 3.09 3q1.18-.66 2.31-1.39c-2-.34-3.53-1.82-5.4-1.61zM908.92 179.27c2.72 15.59 5.26 31.22 8.29 46.75a17.85 17.85 0 0 1 .28 4.66c-.3 4.5-2.14 8.6-3.44 12.89l.08.1v.05c4.46-.33 4.87 2.7 5.44 6.08q2.15 12.84 4.41 25.66h.84V163.69h-36.57v16.56a76.86 76.86 0 0 0 9.86-6c5.59-4.04 9.61-1.84 10.81 5.02z" fill="#80c4b8"/><path d="M985 231.73h-3.65l4.87-17.66c.33-1.71.7-3.45 1.14-5.24a34 34 0 0 1 1.61-4.76l.64-2.31.14.5c.8-1.81 1.64-3.61 2.38-5.44-8.73 1.63-12.8-4.29-15.46-10.69a106.47 106.47 0 0 0-8.4-17l-37 106.31h38.07l4.21-15.71h25.1c-8.38-7.93-12.73-17.1-13.65-28zM1007.42 266.54l2.49 8.93h18.59a80.87 80.87 0 0 1-12.73-4.4 62.84 62.84 0 0 1-8.35-4.53zM649 272.46a6.46 6.46 0 0 1-2.16-4.67 6.46 6.46 0 0 0 2.16 4.67z" fill="#80c4b8"/><path d="M1066.78 169q.82-.48 1.68-.93a1.68 1.68 0 0 0-1.68.93zM992.17 196.82a64 64 0 0 1 22.66-21.29l-4.12-11.83h-40.5l-1.9 5.46a106.47 106.47 0 0 1 8.4 17c2.67 6.36 6.73 12.29 15.46 10.66zM1095.88 238.45a6 6 0 0 1 3.12 4c0 2.71-2.14 4.29-6.42 4.63a50.12 50.12 0 0 1-27.78 26.34 67.35 67.35 0 0 0 23 4c13.77 0 24.78-3.24 33-9.56q14.58-11.42 14.58-29.16c0-10.2-3.56-18.3-10.53-24.3-4.05-3.4-10.37-6.64-18.63-9.39-1.46-.49-4.05-1.3-7.61-2.27l-1.82-.57c4.07 11.18 3.1 23.43-.91 36.28z" fill="#6eb6a9"/><path d="M1108.48 164a67.83 67.83 0 0 0-13.53-1.4 72.91 72.91 0 0 0-13.78 1.22 12.85 12.85 0 0 1-10.07 4.55c-.85 0-1.81-.29-2.64-.29q-.86.45-1.68.93a2.7 2.7 0 0 0-.15.36c-.94 2.76 1.92 3.25 3.53 4 5.09 2.3 9.12 5.89 13.23 9.57a53.26 53.26 0 0 1 7.74 8.52 27.09 27.09 0 0 1 3.16-.17c3.4 0 7.78 1 13 2.92a40.31 40.31 0 0 1 13.61 7.77l6.4-11.92c-2.6-6.17-8.09-11-11.68-15.43a79.78 79.78 0 0 1-7.14-10.63z" fill="#6eb6a9"/><path d="M872.32 189.72a15.57 15.57 0 0 0-3.38 10.7zM879.14 264.27c.34-.32.68-.63 1-1l-5.58-15.45c.7 4.07 1.45 8.13 2.29 12.17a6.85 6.85 0 0 0 2.29 4.28zM893.27 257.51a11.6 11.6 0 0 1 3.72-4.08 7.84 7.84 0 0 1 3.23-1.11 24.39 24.39 0 0 1 6.78-6.42 17 17 0 0 1 7-2.32c1.3-4.29 3.14-8.39 3.44-12.89a17.85 17.85 0 0 0-.28-4.66c-3-15.53-5.57-31.16-8.29-46.75-1.2-6.87-5.22-9.06-10.81-5a76.86 76.86 0 0 1-9.86 6V261c.86-2.29 2.8-3.1 5.07-3.49z" fill="#4fb9d0"/><path d="M914.18 243.72c-3.58 4.58-7.79 8.14-13.9 8.65-.47 4.19-3.27 5.27-6.93 5.22-.36 2.71-1.56 4.59-5.09 4.82v13.05H924q-2.25-12.82-4.41-25.66c-.59-3.38-.95-6.4-5.41-6.08zM917.49 230.68c-.3 4.5-2.14 8.6-3.44 12.89 1.3-4.29 3.13-8.38 3.44-12.89z" fill="#4fb9d0"/><path d="M14.47 275.46q-5.79-8.37-11.6-16.74v16.74h11.6z" fill="#80c4b8"/><path d="M208.59 275.46l-5.62-8.8c-3.22-.28-6.44-.53-9.67-.66q-1.5-.06-3-.08c-9.53-.14-18.9.72-27.12 6.18l1.68 3.36h43.74zM214.33 267.65l-.88-.07v7.88h14.12a36.15 36.15 0 0 1-2.62-3z" fill="#4fb9d0"/><path d="M193.3 266c3.22.13 6.45.38 9.67.66-3.23-.28-6.45-.53-9.67-.66zM214.33 267.65l-.88-.07.88.07z" fill="#4fb9d0"/><path d="M824.07 275.69a75.62 75.62 0 0 0 16.41 1.72c1.46 0 2.87 0 4.27-.12l-2.45-14.5c-6.22 4.61-12.05 9.21-18.23 12.9z" fill="#eb5e57"/><path d="M867.49 267.58c-5.67.85-9.65-3.16-14.34-5.08-4.25-1.74-6.73-2-5.36 4 .78 3.41.92 7 1.43 10.45a55.42 55.42 0 0 0 21.34-6.41 34.72 34.72 0 0 0-3.07-2.96z" fill="#4fb9d0"/><path d="M867.49 267.58a34.72 34.72 0 0 1 3.09 3 34.69 34.69 0 0 0-3.09-3zM765.23 275.46h4v-2.74c-2.76-1.08-4.07-.23-4 2.74zM237.27 275.46h7.92a15.24 15.24 0 0 0-7.92 0zM697.27 215.65l.59-1.19-.74-1.36c.05.9.1 1.71.15 2.55zM503.39 199.33a35.07 35.07 0 0 0-3.3-15.51c-9.18 6.53-15.83 16.84-16.42 28.07-.25 4.79 2.18 11.19 6.08 17.66 9.12-7.29 13.64-17.33 13.64-30.22zM549.78 178.93c-7.62-2.29-15.53-.53-23.22-1.85a31.72 31.72 0 0 0-11 .1v77.89l.75.34c11.26 4.76 23.23 6.59 35 9.42l.88.22v-86a4.61 4.61 0 0 1-2.41-.12zM546 167.6a6 6 0 0 1 3.49.75l.2.13a8.55 8.55 0 0 1 1.59 1.29c.3.3.58.62.86 1v-7h-6.44c0 .11.09.22.13.33a5.68 5.68 0 0 1 .17 3.5zM604.79 246.31v-13h40.5v-28.63h-40.5v-12.15h42.93v-28.84h-79.38v111.77h58.94c6.54-2.52 13.05-5.14 19.59-7.67l2.45-1.7v-19.78h-44.53zM608.03 145.88l7.61 12.96h23.49l-12.96-23.49h-36.44l-12.96 23.49h23.48l7.78-12.96z" fill="#4fb9d0"/><path d="M662.29 163.69v93.58a107.18 107.18 0 0 0 23.11-22.52 132.51 132.51 0 0 0 11.86-19.11c0-.84-.1-1.68-.15-2.55l.74 1.36a123.23 123.23 0 0 0 11.45-36.66l-7.3-14.1h-39.71zM546 167.6zM551.29 169.77a8.55 8.55 0 0 0-1.59-1.29 8.55 8.55 0 0 1 1.59 1.29zM546 167.6a6 6 0 0 1 3.49.75 6 6 0 0 0-3.49-.75zM646.88 267.79c-6.54 2.53-13 5.15-19.59 7.67 6.54-2.52 13.05-5.14 19.59-7.67z" fill="#4fb9d0"/><path d="M480.55 228.1a32.58 32.58 0 0 1-4.05-11.33c-2.51-13.42 6.76-29.4 19.92-38.7a33.43 33.43 0 0 0-6.79-6.28c-7.61-5.35-18.47-8.1-32.4-8.1h-17a130.57 130.57 0 0 0 5 27.54h9c3.73 0 6.32.65 8.1 2.11a8.54 8.54 0 0 1 4.05 7.61 9 9 0 0 1-4.05 7.78c-1.62 1.3-4.37 1.94-8.1 1.94H453a129.34 129.34 0 0 0 27.84 36.56 143.42 143.42 0 0 0 22.52 17.26l-14.92-25.22a126 126 0 0 1-7.89-11.17zM540.29 172.83a13.27 13.27 0 0 0 2.29.26 5.33 5.33 0 0 0 1.77-.23c1.66-.56 2.27-2.17 1.6-5.26-1.62-1.34-3.8-2.43-5.14-3.91h-25.27v6.76c8.46-.91 16.58.81 24.75 2.38zM529.06 263.1a56.1 56.1 0 0 1-13.52-3.1v11.1q5.07 2.41 10.37 4.36h26.24v-5.86l-1.43-.66a71 71 0 0 0-21.66-5.84zM546 167.61l-.05-.01.05.01z" fill="#eb5e57"/><path d="M544.35 172.86a5.33 5.33 0 0 1-1.77.23 5.33 5.33 0 0 0 1.77-.23zM546 167.6c.67 3.09.06 4.7-1.6 5.26 1.66-.56 2.27-2.17 1.6-5.26zM546 167.6z" fill="#eb5e57"/><path d="M454.83 233.22q-3.17-5.07-5.91-10.3-2.05-3.93-3.87-7.94a150.62 150.62 0 0 1-12.94-51.28h-13.4c2.72 25.82 9.23 50.8 22.81 73.43q1.81 3 3.72 5.88v-4.79h4.7l12.22 25.55a129.17 129.17 0 0 0 13.42 11.71h23.5a120.17 120.17 0 0 1-44.25-42.26zM255.89 191.23c4 0 7 .65 8.91 2.11 2.75 1.78 4 4.86 4 8.91s-1.27 7-3.95 8.83c12.34 3.51 24.69 6.95 37.34 9.11a42.48 42.48 0 0 0 3.54-17.94c0-.94 0-1.86-.07-2.76-3.72-1-7.72-2.93-11.39-3.65-8.47-1.66-16.81-4-25.28-5.63-3.83-.75-4.6-2.51-3.78-6q2.35-10 4.67-20.1a78.56 78.56 0 0 0-7.88-.39h-3.66c-2 9.16-3.93 18.33-5.72 27.54h3.22zm29.91 8.19c3.74-.3 6.53 1.85 7 6-.27 3.65-2 6.39-5.66 6.51a6.84 6.84 0 0 1-7.19-6.16c-.37-3.51 2.56-6.08 5.84-6.34zM319.71 180c-1.59 6.31-.51 15.1-5 18.69v22.84c5.53-.31 7.64-3.24 9.25-10.69q5.1-23.59 10.25-47.17h-10.5q-1.96 8.2-4 16.33zM116.38 167.48c2.94-.82 6.29-.18 9.45-.23a56.65 56.65 0 0 0 7-.42l-1.66-3.14h-25.86c1.69 3.72 5 5.49 11.07 3.79z" fill="#4fb9d0"/><path d="M199.28 260.88l-7-10.92a27.74 27.74 0 0 0-6.36 11.83c6.01 3.03 10.01 1.78 13.36-.91zM214.33 267.65l10.62 4.85c1.07-.28 2.76-.23 3.11-.89 4.62-8.57-4.74-26.9-14.37-28.38h-.25v14.7c.33 3.21.23 6.54.89 9.72z" fill="#eb5e57"/><path d="M214.33 267.65c-.66-3.18-.56-6.51-.88-9.75.32 3.24.22 6.58.88 9.75zM224.13 163.69h-8.63a72.5 72.5 0 0 0 18.8 8.46zM351.13 199.55v-2.1c-4-.14-7.92-.27-11.89-.43 3.96.98 7.93 1.8 11.89 2.53z" fill="#eb5e57"/><path d="M1028.5 275.46h21.09l-2.66-7.66c-1.4.12-2.82.19-4.26.19-22.73 0-43-16.11-47.68-36.27H985c.87 10.9 5.22 20.08 13.67 28h6.81l1.89 6.78a62.84 62.84 0 0 0 8.35 4.53 80.86 80.86 0 0 0 12.78 4.43zM987.4 208.83c-.44 1.78-.82 3.53-1.14 5.24l2.76-10a34 34 0 0 0-1.62 4.76zM1017.53 183.29l-2.7-7.77a64 64 0 0 0-22.66 21.29c-.74 1.83-1.58 3.63-2.38 5.44l4.42 16c1.64-14.18 10.79-27.2 23.32-34.96zM1071.1 168.34a12.85 12.85 0 0 0 10.07-4.55 46.57 46.57 0 0 0-12.7 4.26c.82 0 1.78.28 2.63.29zM1092.57 247c-.58 0-1.19.07-1.84.07a31.27 31.27 0 0 1-7.1-1 48.55 48.55 0 0 1-31.89 21.07 75 75 0 0 0 13 6.22 50.12 50.12 0 0 0 27.83-26.36zM1083.4 182.88c-4.11-3.68-8.14-7.26-13.23-9.57-1.62-.73-4.47-1.22-3.53-4a2.7 2.7 0 0 1 .15-.36 35 35 0 0 0-4.72 3.31 39.65 39.65 0 0 0-5.43 5.45c20.23 5.44 34.69 22.42 34.63 42.94a46.56 46.56 0 0 1-2.62 15.28l2.25.65a22.06 22.06 0 0 1 5 1.86c4-12.85 5-25.1 1-36.29L1093 201c-2.59-.65-7.78-2.11-7.78-5.18 0-2.48 2-3.91 5.91-4.37a53.26 53.26 0 0 0-7.73-8.57z" fill="#4fb9d0"/><path d="M1015.76 271.06a80.87 80.87 0 0 0 12.73 4.4 80.86 80.86 0 0 1-12.73-4.4zM840.45 249.91q-.57-2.87-1.1-5.75c-12.54-1.37-22-10.09-22-24.91 0-12.29 5.89-20.35 14.89-23.75-.05-.22-.1-.43-.14-.65s-.13-.7-.16-1c-.85-8.2-4.21-7.79-10-3.91-7.18 4.8-14.72 9.11-22.35 13.17-5.62 3-7.86 7.21-6.86 13.38 2.6 16 5.16 32.1 7.77 48.15a56.9 56.9 0 0 0 19 9.89 131.22 131.22 0 0 0 16-10.32c4.71-3.61 6.24-7.87 4.95-14.3zM752 205.16c3.86 12.73 7.82 25.82 7.75 38.82-.06 11.49 3.52 19 9.48 24.27V201c-3.14-1.14-6.3-2.25-9.48-3.24-6.67-2.08-9.75.84-7.75 7.4zM796.11 260.82c-2.48-15.85-4.94-31.58-7.49-47.29-.51-3.15-1.8-6.08-5.3-7.33l-1.46-.53a71.94 71.94 0 0 0-1.33 14.07c.01 17.2 5.21 30.98 15.58 41.08z" fill="#4fb9d0"/><path d="M855.53 196.41c4.37 1.78 7.45 3.08 8.91 4.21.79.62 1.53 1.14 2.18 1.61q-.07-2.13-.11-4.27c0-2.86-1-6-4.31-6.85-6.89-1.74-13.82-3.4-20.81-4.65-6.07-1.09-8.25 1.28-6.9 7.78l.1.48a31.61 31.61 0 0 1 8.31-1.06 33.6 33.6 0 0 1 12.63 2.75zM843.46 244.35c1.58 9 5.26 15.35 15.27 18 3.17.84 5.86 3.46 8.77 5.26 1.87-.21 3.4 1.27 5.4 1.56q1.18-.76 2.3-1.58c-2.19-11-4.19-22.11-5.72-33.26q-10.01 9.85-26.02 10.02zM867.51 267.61zM867.49 267.58z" fill="#eb5e57"/><path d="M914.18 243.72v-.05l-.08-.1a17 17 0 0 0-7 2.32 24.39 24.39 0 0 0-6.83 6.41l.06.06c6.06-.49 10.27-4.06 13.85-8.64zM914 243.58l.08.1z" fill="#80c4b8"/><path d="M907 245.9a24.39 24.39 0 0 0-6.83 6.41 24.39 24.39 0 0 1 6.83-6.41zM907 245.9a17.14 17.14 0 0 1 2.78-1.34 17.14 17.14 0 0 0-2.78 1.34zM893.27 257.51l.08.08c3.66.05 6.46-1 6.93-5.22l-.06-.06a7.84 7.84 0 0 0-3.23 1.11 11.6 11.6 0 0 0-3.72 4.09z" fill="#80c4b8"/><path d="M897 253.42a11.6 11.6 0 0 0-3.72 4.08 11.6 11.6 0 0 1 3.72-4.08zM887.91 262.43h.34V261a7 7 0 0 0-.34 1.43zM893.35 257.59l-.08-.08c-2.32.39-4.21 1.2-5 3.48v1.42c3.52-.24 4.73-2.11 5.08-4.82zM893.27 257.51l.08.07-.08-.07z" fill="#80c4b8"/><path d="M545.83 164c0-.11-.09-.22-.13-.33h-4.84c1.34 1.47 3.51 2.56 5.14 3.91a5.68 5.68 0 0 0-.17-3.58zM546 167.6zM546 167.61z" fill="#9cd1c8"/><path d="M293.14 172.6c-5.91-4.75-13.65-7.56-23.22-8.52q-2.33 10.05-4.67 20.1c-.82 3.5-.05 5.26 3.78 6 8.47 1.67 16.81 4 25.28 5.63 3.67.72 7.67 2.61 11.39 3.65q-.83-17.6-12.56-26.86zM314.68 198.72c4.51-3.59 3.44-12.38 5-18.69q2-8.15 4-16.33h-9v35z" fill="#eb5e57"/><path d="M287.17 211.92c3.62-.12 5.39-2.86 5.66-6.51-.51-4.14-3.3-6.29-7-6-3.28.26-6.21 2.84-5.81 6.34a6.84 6.84 0 0 0 7.15 6.17z" fill="#9cd1c8"/><path d="M1039.32 250.94a12.84 12.84 0 0 0 1.2-1.56l-1.65-4.73c-.92 2.63-2 5.48-3.09 8.8a38.88 38.88 0 0 0 3.54-2.51z" fill="#6eb6a9"/><path d="M998.22 226.76c-1.92-14 7-31.05 20.51-40l-1.2-3.46c-12.5 7.76-21.68 20.77-23.32 35l3.7 13.44H995c4.73 20.16 25 36.28 47.68 36.27 1.44 0 2.85-.07 4.26-.19l-1.17-3.38c-23.18 2.03-44.42-14.88-47.55-37.68zM1047.22 264.27c1.5 1 3 2 4.52 2.89a48.55 48.55 0 0 0 31.89-21.07q-1.76-.43-3.77-1c-7.72 11.61-19.04 17.61-32.64 19.18zM1083.22 204.08c2.51 4.65 3.6 9.72 4.37 14.88a20.55 20.55 0 0 1-3.59 15.55q2.41.77 4.63 1.43a46.56 46.56 0 0 0 2.62-15.28c.06-20.52-14.39-37.5-34.63-42.94a34.16 34.16 0 0 0-2.89 4.13c12.53 2.55 22.42 9.15 29.49 22.23zM1060.92 235l-.34.58 1.18.08z" fill="#6eb6a9"/><path d="M998.22 226.76c3.12 22.8 24.37 39.71 47.53 37.67l-.55-1.59-.47-.33.22-.38-4.43-12.75a12.84 12.84 0 0 1-1.2 1.56 38.88 38.88 0 0 1-3.53 2.51c1.11-3.32 2.17-6.17 3.09-8.8l-3.1-8.91a121.5 121.5 0 0 1-8.21 21.47l1.18-12.42c1.51-16 1.51-16-11.12-24.42 2.89-.47 8.81.33 13.3 1.45l-2.61-7.49c-4.63-1.38-9.27-2.84-13.9-4.56 3.88-.59 8.09-.38 12.16-.46l-7.84-22.55c-13.47 8.94-22.43 26-20.52 40zM1045.2 262.84c.67.49 1.35 1 2 1.44 13.6-1.57 24.92-7.58 32.65-19.23-1-.3-2-.63-3.07-1a51 51 0 0 1-15-8.41l-1.18-.08-15.63 26.58zM1050.56 209.82q2.84-9.16 5.69-18.31h1.27c-.48 7.46-2.5 15.24-1 22.29 1.59 7.57 12.13 7.45 16 14.94l-10.16-3.43a74.76 74.76 0 0 0 12.35 6.06c3.34 1.14 6.43 2.18 9.31 3.11a20.55 20.55 0 0 0 3.59-15.55c-.77-5.16-1.86-10.23-4.37-14.88-7.08-13.11-17-19.68-29.48-22.22a33.56 33.56 0 0 0-4.64 17.47 35.87 35.87 0 0 0 1.44 10.52z" fill="#eb5e57"/><path d="M1044.73 262.5l.47.33-.25-.71z" fill="#eb5e57"/><path d="M1056.52 213.84c-1.48-7 .54-14.83 1-22.29h-1.27q-2.85 9.15-5.69 18.31a27.94 27.94 0 0 0 8.74 13.32 29.11 29.11 0 0 0 3 2.2l10.16 3.43c-3.81-7.52-14.35-7.4-15.94-14.97zM1017.63 220.37c12.63 8.4 12.63 8.4 11.12 24.42l-1.18 12.42a121.5 121.5 0 0 0 8.21-21.47l-4.84-13.92c-4.5-1.12-10.42-1.92-13.31-1.45zM1014.42 209.77c4.63 1.72 9.27 3.18 13.9 4.56l-1.75-5c-4.07.06-8.27-.15-12.15.44z" fill="#6eb6a9"/></svg>