<svg xmlns="http://www.w3.org/2000/svg" viewBox="0 0 1147.3 325.12"><defs><clipPath id="a"><path fill="none" d="M720.2 97.84h409v4h-409z"/></clipPath><clipPath id="b"><path d="M537 80.24l29.15 14.6-29.2 14.6v-29.2zm10.15-21.4a36 36 0 1 0 36 36 36 36 0 0 0-36-36z" fill="none"/></clipPath><clipPath id="c"><path fill="none" d="M511.2 58.84h72v72h-72z"/></clipPath></defs><title>Intro-svg</title><g opacity=".5"><path d="M747.54 239.26a10.35 10.35 0 0 0-2.77-1 11.72 11.72 0 0 1 2.77 1zM349.79 175.73a.62.62 0 0 1-.11-.09l-.11-.09a2.15 2.15 0 0 0 .22.18z"/><path d="M373 279.47v-.1h49.07v-31.12h-47.32l-.16-13.25v-.49h43.27v-4.76l-.1-.08v-25.78h-31.61l-.1-.08a5.48 5.48 0 0 1-1.85.09c2.31 1.8 5.43 4.11 7.89 6.1-2.65-2-5.3-4-7.91-6h-9.58v-8a3.51 3.51 0 0 0 .34.34 5.8 5.8 0 0 1 0-1l-.37-.28v-4.25h45.84v-30.69h-44.54c-2.07 3.16-4 6.13-5.33 8A18.33 18.33 0 0 0 369 173a4.11 4.11 0 0 0 .59 3.16 1.22 1.22 0 0 0 .35.26 1.26 1.26 0 0 1-.54-.36 1.36 1.36 0 0 0 1.14.56 4 4 0 0 0 1.16-.06c-1.08.28-1.85.22-2.29-.4a4.11 4.11 0 0 1-.59-3.16c.09-.47.2-.94.32-1.4a17.78 17.78 0 0 1 1.26-3.34l.1-.1.16-.31a85.55 85.55 0 0 0 5.18-7.79h-.69c-.64 1-1.19 1.88-1.78 2.87-.76 1.33-1.52 2.66-2.19 3.81.74-1.42 1.6-2.89 2.39-4.2.4-.79.89-1.58 1.28-2.37h-38.99v3.75a39.22 39.22 0 0 1 6 3.75 5.92 5.92 0 0 1 1.31 1.49 4.82 4.82 0 0 0-1.51-1.49c-1.78-1.09-4.05-1.09-6-2.27V224.39c3 .69 5.83 1.38 8.69 2.07h.19-.19c-2.87-.69-5.73-1.38-8.69-2.07v10.15h-.1v.18c.21-.08.43-.14.66-.2l-.66.22V236h.1a27.12 27.12 0 0 0 5.12 1.84 25.33 25.33 0 0 1-5.12-1.84v.3c1.55.88 5.18 1.71 7.42 2.16l1.4.34-.63-.11.7.12h.19l-.88-.17c-2.12-.39-6.37-1.31-8.1-2.3v7.92h-.1v.2l1.12.19-1.12-.19v34.87h26.28a117 117 0 0 0 3.16-13.57c.49-2.65.87-5.31 1.09-8 .1-.89.1-1.78.2-2.67a3.39 3.39 0 0 0-1-2.66 3.72 3.72 0 0 1 1.07 2.06c0 .13-.05.32-.09.61-.07 1.53-.1 2.39-.1 2.8a125.83 125.83 0 0 1-4.24 21.5H373M343.67 170c0 .1 0 .1.1.1 1 1 2 1.88 3 2.87.89.79 1.68 1.58 2.57 2.37a1 1 0 0 1 .25.2l.14.11a.57.57 0 0 0 .11.09q1.5 1.31 3 2.68-1.53-1.29-3-2.6c-.2-.1-.3-.3-.49-.4l-.28-.25c-.66-.65-1.38-1.3-2.11-2l-.18-.17c-1-.89-2-1.88-3-2.87h-.1l-.3.22a.74.74 0 0 1 .3-.3h-.07l.07-.06a6.36 6.36 0 0 0-.84-1.31 6.36 6.36 0 0 1 .83 1.32zm-6.07 64.2c3.58 0 10 4.64 8.07 4.77 1.92-.13-4.54-4.81-8.08-4.77zm8.13 4.77c2-.11-3.75-4.87-7.63-4.84 3.9-.13 9.9 4.87 7.62 4.87zm-10.05-15.81a184.32 184.32 0 0 1 29.54 7.61 201.67 201.67 0 0 0-29.56-7.62zm30.51 30.6a5 5 0 0 0-1.51-1.91l.16.12a4.71 4.71 0 0 1 1.34 1.79zm.17 4.17c.07-.73.18-2.4.19-3.16.2-1.77-.3 5.46-.2 3.16zm1.64-75.47c1.44-.13 5.73-2.4 8.28-3.67-1.11.46-6.76 3.49-8.32 3.66 1.56-.17 7.22-3.29 8.32-3.66.69-.4 1.38-.59 1.68-.79a9.15 9.15 0 0 1-1.68.79c1.48-.59 3-1.09 4.35-1.68a28.27 28.27 0 0 0 9.58-5.24c.3-.2.49-.49.79-.69l.1-.1a5.93 5.93 0 0 1 .79-.79v-.06l-.05.05c-1.42-1.45-4.31-.77-7.58.59 2.66-1.13 5.08-1.81 6.71-1.26a2.46 2.46 0 0 1 .93.62 2.43 2.43 0 0 0-.45-.4 2.59 2.59 0 0 1 .65.49 5.93 5.93 0 0 1-.79.79l-.1.1a5.65 5.65 0 0 1-.79.69 28.27 28.27 0 0 1-9.58 5.24c-1.38.59-2.87 1.09-4.35 1.68-2.8 1.31-7.31 3.75-8.49 3.64zM365.2 230.76zM589.07 204.88v-20.09h.15v-.1h-.15v-3.61h.15v-.49H589v-.31a14.65 14.65 0 0 0-2.44 0 21.28 21.28 0 0 1 2.59-.25v-20h-24.9a80.8 80.8 0 0 0-6.82 4.45c-2.47 1.78-4.94 3.66-7.31 5.63v43.67c1.78 2.17 3.75 4.84 6.22 7.41a3.4 3.4 0 0 0 .26.36c-.12-.12-.25-.23-.36-.36a5.66 5.66 0 0 0 1.09 1.09l.3.3a1.85 1.85 0 0 0 .69.59 3.91 3.91 0 0 0 .4.3 2.16 2.16 0 0 1 .49.4c.1.1.3.2.4.3s.3.2.4.3a.75.75 0 0 0 .4.2c.1.1.3.1.4.2s.3.1.4.2a.36.36 0 0 0 .3.1 2.25 2.25 0 0 0 .4.1c.1 0 .2.1.3.1h.89a.37.37 0 0 0 .3-.1.2.2 0 0 0 .2-.1.52.52 0 0 0 .3-.2.1.1 0 0 0 .1-.1c1.12-.78 1.55-2.78 1.59-5.27a13 13 0 0 1-.57 4.12 3.15 3.15 0 0 1-1 1.45.1.1 0 0 0-.1.1c-.1.1-.2.1-.3.2a.2.2 0 0 0-.2.1.37.37 0 0 0-.3.1h-.94a.37.37 0 0 1-.3-.1 2.25 2.25 0 0 0-.4-.1c-.1 0-.2-.1-.3-.1a.75.75 0 0 1-.4-.2 1.45 1.45 0 0 0-.4-.2.75.75 0 0 0-.4-.2c-.1-.1-.3-.2-.4-.3s-.3-.2-.4-.3a2.15 2.15 0 0 1-.49-.4c-.1-.1-.3-.2-.4-.3s-.49-.4-.69-.59l-.3-.3a11.27 11.27 0 0 1-1.09-1.09c-2.47-2.57-4.45-5-6.22-7.11V218.53c.2.34.38.68.55 1-.19-.33-.39-.66-.58-1v61h39.12v-33.1l-.1-.23v-.17c-.41-.83-.77-1.68-1.12-2.54-.21-.56-.39-1.13-.57-1.7a37.78 37.78 0 0 0 1.69 4.15v-38.83l.1-.36v-.31m-25.83-5a30.14 30.14 0 0 1-.12-3.12 31.23 31.23 0 0 0 .12 3.15zm-.08 30.9q1-.11 1.92-.28a6.66 6.66 0 0 1-1.82.28zm2-9.51a27.83 27.83 0 0 0 0-8.14 79.15 79.15 0 0 0-.4-3.23c.76 3.88 1.23 8.54.54 11.37zm.83-26.61v-.34.34zm-1.1-5.17a12 12 0 0 0-1.79 6.63c0-3.74.91-6.65 3.58-9.16a12.23 12.23 0 0 0-1.82 2.48zm20.84 41.88v-2.45 2.45zm2-23.2a86.72 86.72 0 0 0-1.37 9c-.13 1-.24 1.9-.34 2.74v.33a64.82 64.82 0 0 0-.39 8.34 64.83 64.83 0 0 1 .42-8.67 85.07 85.07 0 0 1 2.07-13.93c.05-.18.12-.35.18-.52-.24.87-.42 1.77-.59 2.7zM706.64 234.91v-.4a54.87 54.87 0 0 0-2-6.13 60.69 60.69 0 0 1 2 6.53zM855.42 169.49a16.13 16.13 0 0 0 2-1.68c-.71.49-1.3 1.09-2 1.68zM1033.65 176.72h.2a.14.14 0 0 0-.2 0zM953.92 208.73c0-.3-.1-.59-.1-1a3.7 3.7 0 0 0 .1 1z"/><path d="M560.52 224.93a.51.51 0 0 0-.4-.2.75.75 0 0 0 .4.2zM561.31 225.33c-.1-.1-.3-.1-.4-.2a2.94 2.94 0 0 0 .4.2zM562.3 225.62a.32.32 0 0 0 .3 0h-.3zM562 225.53a2.25 2.25 0 0 1-.4-.1.59.59 0 0 0 .4.1zM550 170.18c.69-.59 1.38-1.09 2.07-1.68s1.33-1 2-1.55c1.08-.81 2.16-1.62 3.23-2.4 2.17-1.58 4.45-3.06 6.72-4.45H550v10l-.1.08.1-.08v.08zM559.58 224.34c-.1-.1-.3-.2-.4-.3a.77.77 0 0 0 .4.3zM553.65 218.43c.79.94 1.6 1.89 2.52 2.85-.89-.97-1.72-1.92-2.52-2.85zM549.95 213.87v.3c1.17 1.29 2.39 2.74 3.7 4.27-1.32-1.6-2.52-3.15-3.7-4.57zM899.39 246.27c-15.21 0-27.37-9.48-27.37-26.77 0-17.78 11.56-27.37 27.37-27.37a34.12 34.12 0 0 1 13.44 3c4.64 1.88 7.9 3.26 9.48 4.54a41.69 41.69 0 0 1 3.85 3l10.37-32.8-1.38-1.19a58.83 58.83 0 0 0-12.84-6c-5.73-2.27-15.71-4-25.59-4-11.56 0-21.83 2.17-30.82 6.42a89.59 89.59 0 0 1-16.26 15.56 88.55 88.55 0 0 0 16.36-15.8 63.09 63.09 0 0 0-15 10 49.8 49.8 0 0 0-9.29 11.07c-5.93 9.39-8.79 20.75-8.79 34.08 0 19.17 6 34.38 18.18 45.35s27.27 16.2 45.84 16.2c3.06 0 5.93-.2 8.69-.4l.37-.16h.39a58.2 58.2 0 0 0 22.6-6.86l.37-.12a45.78 45.78 0 0 0 9.88-7.51l-11.3-31.11c-7.31 7.22-16.79 10.87-28.55 10.87zM820.75 195.69v-35.57h-38v44.93q0 8.6.89 21.64l-34.57-66.59h-28.45a17.06 17.06 0 0 1 2.57 2.79c.21.25.4.52.58.78l.23.33c1.61 2.68 2.28 6 1.59 10.6a37.1 37.1 0 0 1-1.23 5.14c-.1.26-.19.53-.3.79a36.53 36.53 0 0 1-2.08 4.69 31.63 31.63 0 0 1-3.29 4.92 42.49 42.49 0 0 0 3.49-5.56c.69-1.38 1.38-2.77 1.88-4.05a37.11 37.11 0 0 0 1.48-5.93c.79-5.24-.2-9-2.37-11.76a13.83 13.83 0 0 0-3.06-2.77h-13.52v41.59h.15v32.81h-.1v13.83h-.1l.1.08v31.14h38v-34.04c-3.26-.91-6.52-.1-10.47 1.19-.68.2-1.35.41-2 .63l.83-.3 1.16-.38c4.05-1.19 7.21-2.07 10.47-1.28v-6.92h-.1v-.1h.1-.1v-3.74c0-5.73-.4-12.94-.89-21.64l18.67 34.18h.1l.1.2c7.9.2 13.63-3.36 21.44-2.47-7.11-.89-12.65 1.88-20 2.27h-.1c7.31-.4 12.84-3.16 20-2.37h.15c.49.1 1 .1 1.48.2h.3l.56.1c.34.13.73.25 1.15.37l.12.22a11.49 11.49 0 0 0-1.78-.4h-.3A7.62 7.62 0 0 0 784 245h-.1c-7.8-.89-13.53 2.67-21.44 2.47l2.77 5 .16-.07.05.1h-.07l14.72 26.79h14.42v.1h.49c-.38-2.48-.86-5-1.33-7.45v-.38l-.06-.32c-.17-1.22-.37-2.47-.6-3.74.28 1.48.52 3 .71 4.37.59 2.47 1 5 1.38 7.71h25.7v-84a33 33 0 0 1-8.76 1.63 33.4 33.4 0 0 0 8.71-1.52zm-94.1-8.5c.1-.2.2-.49.3-.69a1.67 1.67 0 0 0 .2-.49 31.88 31.88 0 0 0 2-7.61c.3-2.27-1.38-7.61-.4-9.29a1.66 1.66 0 0 1 .49-1.19 2.7 2.7 0 0 1 .61-.42l-.2.18a2.86 2.86 0 0 0-.36.24 1.88 1.88 0 0 0-.42.78l-.07.11v.32c-.87 1.7.7 7 .4 9.26-.05.49-.13 1-.21 1.46a28 28 0 0 0 .41-3.53c.18-1.25-.61-4.44-.61-6.57.07 2.12.79 5.08.71 6.28a28 28 0 0 1-.94 6c0-.12.05-.24.08-.35a26.636 26.636 0 0 1-.29 1.11c-.08.26-.15.53-.23.79v-.15l-.06.22c-.23.71-.48 1.41-.77 2.09a1.67 1.67 0 0 0-.2.49c-.1.2-.2.49-.3.69a8.17 8.17 0 0 1-.69 1.28 8.16 8.16 0 0 1 .55-1.01zM709.1 240l.08.09a10.13 10.13 0 0 0 3.68 3 9.6 9.6 0 0 1-3.76-3.09zm34.74-1.76c-3.59-.49-7.25.53-10.82 2-5.45 2.19-10.89 5-16.51 4.07 5.17.88 10.2-1.52 15.22-3.56-5.64 2.28-11.34 5-17 3 6.05 2 12.15-1.21 18.18-3.55a38 38 0 0 1 4-1.42l.39-.11a15.45 15.45 0 0 1 6.54-.42zm40 4.88c-.09-.71 1.59-.71 3.19 1.38l.21.38c-1.59-2.25-3.33-2.39-3.41-1.75zm25.17-46c1.49 0 1.4-.67-.47-.67 1.92-.02 2 .67.46.66zM1130 219.55l-.07-.1-.12-.16a31.4 31.4 0 0 0-2.63-3.06 1.44 1.44 0 0 0-.2.1c-.66-.66-1.32-1.31-2-1.88-4.35-3.66-11.07-7.11-19.86-10.08-1.58-.49-4.35-1.38-8.1-2.47l-6-1.88c-2.77-.69-8.3-2.27-8.3-5.53s3.26-4.84 9.68-4.84c3.66 0 8.3 1 13.83 3.16a42.22 42.22 0 0 1 14.52 8.3l14.82-27.66c-9.39-8-23.81-13.24-38.13-14.23l.07-.1a35 35 0 0 0-4.4-.2h-1.43l-.13.2c-14.34.22-25.54 3.68-33.51 10.37a37 37 0 0 0-10.77 13.93c0 .1-.1.2-.1.3a2.54 2.54 0 0 0-.52.75 23.2 23.2 0 0 0-1.38 4.45 37.53 37.53 0 0 0-1.09 9.39 37 37 0 0 0 .29 4.63l-.09-.09a32 32 0 0 0 3.56 11.86c.3.49.59 1.09.89 1.58h.69l-.6.07c8.1 12.94 45.35 16.3 48.21 27.66 0 4.59-7.57 5.17-13.5 4.44-.67-.08-1.31-.18-1.92-.29s-1.52-.37-2.26-.59l-.06.06-.53-.16c-3.18-1-5.95-2-7.62-2.66-.46-.19-.92-.39-1.37-.6l-.07.07a.71.71 0 0 0-.23-.07 58.15 58.15 0 0 1-13.14-8.1c-3.26 5.43-18.28 23.12-17.09 29.14.8 4.33 7.38 7.53 14.26 9.44 8.87 2.75 24.66 6.66 31.88 6.66a73.36 73.36 0 0 0 17.39-2c1.28-.3 2.57-.69 3.75-1.09s3.26-1.28 4.35-1.58l.56-.19a4.21 4.21 0 0 0 1.28-.52c2.14-.92 5.19-2.47 6.19-3.53.56-.39 1.11-.78 1.65-1.2 10.37-8.1 15.51-18.47 15.61-31.12.04-10.55-3.53-17.13-6.26-20.58zm-80.31-6.06c.92-1.12.81-2.5.1-4 .75 1.51.87 2.88-.06 4zm46.22 41.51l-.14-.06.56-1.2-.42 1.26zm13.45 7.2a1.15 1.15 0 0 1 .76.47 14.07 14.07 0 0 1 2.48 2.54zM61.26 249.23a38.72 38.72 0 0 0-1 16.9 39.21 39.21 0 0 1 1.19-17.88h-19.8v-13.83h42.68a44.19 44.19 0 0 1-4.45-4.15 75.38 75.38 0 0 1-15.21-26.48H41.75v-12.94h45.2a115.14 115.14 0 0 1-.4-28c.1-1 .2-1.88.3-2.87H63.58c-.59 2.27-1.28 4.54-2 6.82v.2c-.1.31-.18.62-.27.93.09-.38.19-.75.29-1.13q.59-3.41 1.48-6.82H2.82v119.39h62.93c-.13-.23-.25-.47-.38-.7l.38.68c-.79-1.38-1.48-2.77-2.17-4.15l.11.24-.11-.22a.74.74 0 0 1-.15-.28 2.15 2.15 0 0 0 .15.26 2.25 2.25 0 0 0-.15-.26.75.75 0 0 1 0-.22c.1.2.2.3.3.49.69 1.38 1.48 2.77 2.17 4.15h23.47v-31.11H61.51c-.1.32-.17.65-.25.98zm-.94-76c0-.17 0-.33.07-.49 0 .2-.05.39-.07.59q-.13 2.15-.12 4.31-.02-2.17.12-4.38zm2 99.24a27.4 27.4 0 0 1-1.57-5 39.32 39.32 0 0 1-.76-6.7 40.94 40.94 0 0 0 .76 6.7 39.13 39.13 0 0 0 2.37 6.72c-.32-.53-.58-1.1-.83-1.68zM312.64 169.61c-7.9-6.42-19-9.48-33.2-9.48h-51.86v119.34h39.12v-37.15h12.84a73.29 73.29 0 0 0 16.1-1.68h.2v-.15a41.75 41.75 0 0 0 16.67-7.75 33.52 33.52 0 0 0 9.29-11.46c-2.13-.37-4.27-.74-6.48-1a.44.44 0 0 0-.17-.05h.26-.32a2.19 2.19 0 0 0-.89-.1c-.79 0-1.58.06-2.37.14h-.08c.79-.07 1.61-.13 2.44-.13a14.48 14.48 0 0 0-2.5.13h-.61c-.58.07-1.13.16-1.66.27h-.2c-.36.08-.7.17-1 .27.3-.08.6-.17.91-.24l-.63.14.66-.15.28-.06h.08c.52-.1 1-.19 1.61-.26 1-.1 2.07-.2 3.16-.2-2.31 0-3.44.1-3.83.14s.18-.14 3.83-.14c2.57.3 5.14.59 7.9 1a45.19 45.19 0 0 0 4.05-19.76c-.06-14.09-4.61-24.66-13.6-31.67zm-30.23 41.2c-2.07 1.38-5.14 2.07-9.48 2.07h-6.42v-23.32h6.42c4.35 0 7.41.69 9.48 2.27 3 1.88 4.35 5.14 4.35 9.48s-1.38 7.52-4.35 9.49zm18.32 14.91a13.61 13.61 0 0 1 5.78-4.38 13.63 13.63 0 0 0-5.78 4.37zm5.84-4.42c.39-.15.79-.3 1.21-.43-.41.13-.78.27-1.21.43zM309.09 220.53h.13zM213.85 266c-4.74 1.09-18.47-9-21.83-6.72a15.58 15.58 0 0 0 3.46 5.73c3.36 3.85 8.1 7.71 10.67 10.67l.2.2c.31.31.89.84 1.65 1.5l.69.6 1.71 1.46c.2.21.48.4.77.67a5.66 5.66 0 0 1-.77-.67h12zM645.29 234.42h43.27v-10.18l-.1-.07v-.34c-.54-.39-1.07-.81-1.59-1.22.57.41 1.14.81 1.69 1.22v-20h-5.73a9 9 0 0 0 .36 3.91 9.39 9.39 0 0 1-.5-2.13 9 9 0 0 1 0-1.69h-.1v-.12h-4.94v.12h-32.26v-12.97h45.84v-30.83h-84.77v119.25h7.8a18 18 0 0 0-.83-3.6v-.09a11 11 0 0 1 .84 3.69h78.54v-31.12h-47.52v-13.83zm40.42-22.34q-.33-.37-.62-.75a17.93 17.93 0 0 1-1.21-1.89 9.32 9.32 0 0 1-.61-1.5 15.12 15.12 0 0 0 2.43 4.14zm-8.27-2.53v-.1a17.29 17.29 0 0 1-.11-2.43 17.3 17.3 0 0 0 .11 2.53zM560.92 225.13c-.1-.1-.3-.1-.4-.2a.75.75 0 0 0 .4.2zM525.55 194.39c.36-.41.73-.82 1.09-1.23l-.6.66c-.2.18-.29.37-.49.57zM534.74 184.31q-4.17 4.34-8.09 8.85c2.67-2.94 5.34-5.88 8.09-8.73v-.12zM561.61 225.43c-.1 0-.2-.1-.3-.1.1 0 .2.1.3.1zM559.24 224c-.1-.1-.3-.22-.49-.4a2.15 2.15 0 0 1 .49.4zM560.13 224.64c-.1-.1-.3-.2-.4-.3a.53.53 0 0 0 .4.3zM562 225.53a.37.37 0 0 0 .3.1c-.1-.01-.2-.1-.3-.1z"/><path d="M517.15 234.22c8.3-4.94 13.93-11.46 17.09-19.46-2.27 1.34-4.45 3-6.46 4.26l.75-.65c1.78-1.19 3.69-2.61 5.7-3.71.1-.2.1-.4.2-.59-.83.46-1.65 1-2.47 1.5a19.46 19.46 0 0 1 2.47-1.6 26.1 26.1 0 0 0 1.16-3.84.2.2 0 0 1 .1-.2 49.79 49.79 0 0 0 1.38-11.76 40.44 40.44 0 0 0-2.27-13.73c-3 3.06-5.93 6.22-8.69 9.39-.2.2-.3.4-.49.59a7.3 7.3 0 0 1-.91.83c.24-.28.48-.55.71-.83l-1 1.07-.31.23 1.42-1.5q4.45-5.19 9.19-10.08a29.64 29.64 0 0 0-4-7.41l-.11.11a2.88 2.88 0 0 1-.18-.31q-4 3.81-7.76 7.84l-.4.37q4-4.24 8.17-8.23a35.92 35.92 0 0 0-8.1-7.8 40.1 40.1 0 0 0-4.05-2.47c-7.8-4-18-6.22-30.51-6.22h-37.32a12.85 12.85 0 0 1-1.48 1c-.44.3-.79.49-1.09.69-4.94 2.67-8.89 3.16-12 2.17V243l.1.07v36.49h28.85v-.32H475v-39.61h5l4.19 8.77v.15l.69 1.19v-.15l6.63 13.87v.21l.93 1.86v.12l6.56 13.82h45zm-53.09 26.6a3.53 3.53 0 0 1-.66.08h.38a.64.64 0 0 1-.28.05 9.4 9.4 0 0 1-3.57-.75l.45.1a11.84 11.84 0 0 0 3.13.65c-.27-.06-.54-.15-.81-.22l.71.12a4.46 4.46 0 0 0 .68-.09zm32.55-11.45a38.41 38.41 0 0 1 1.17-4.18 39.29 39.29 0 0 0-1.17 4.18zm-1.5-56.05a2.33 2.33 0 0 1 .49.49v-.06a9 9 0 0 1 1.93 6 9.56 9.56 0 0 1-4.35 8.3c-1.68 1.38-4.54 2.07-8.3 2.07l-.07.12h-10.04v-20.77h9.88c4 0 6.72.69 8.69 2.27a6.47 6.47 0 0 1 1.78 1.48 173.34 173.34 0 0 1 22.33-26.1c-.53.53-1.05 1.07-1.56 1.61a163.68 163.68 0 0 0-20.77 24.59zm16.35 31.49a5.73 5.73 0 0 1-.85 0 4.39 4.39 0 0 1-.69-.19 4.92 4.92 0 0 0 1.55.19zm-2.71-.89a3.75 3.75 0 0 1-1.35-1.55 5.19 5.19 0 0 1-.26-2.4 4.9 4.9 0 0 0 1.62 3.94zm-.63-8.3l.24-.47zm-.66 13.77a17.83 17.83 0 0 0-6 7 18.65 18.65 0 0 1 5.95-7.11c.2-.1.4-.3.59-.4q-.62.37-1.21.79c.42-.31.86-.61 1.31-.89a26.35 26.35 0 0 1 2.59-1.51c-.89.5-1.76 1-2.59 1.59a54.23 54.23 0 0 1 7.25-3.59l2.33-.83a70.82 70.82 0 0 0-9.58 4.55c-.24.09-.43.29-.63.39zM474.96 279.35v-.1.12-.02zM1034.34 248.25h-4a48.62 48.62 0 0 0 4 9.29v-9.29z"/><path d="M1034.34 257.53a43.06 43.06 0 0 1-4-9.29 37.55 37.55 0 0 0 1.66 5.24 34.14 34.14 0 0 1-1.76-5.24h-19.76c-2.35 4.94-5.7 9.07-10.39 11.43 4.65-2.38 8-6.5 10.39-11.43h-23.66v-13.82h27.81c.1-.56.18-1.12.26-1.68l-.21 1.68h15.26v-2.22V225.34l-.1.06v-4c-2.07-2.17-7.36-2.77-11-1.38a5.75 5.75 0 0 0-3.64 2.8 5.57 5.57 0 0 1 3.74-3.1c3.66-1.28 8.89-.79 11.07 1.28v-17.41h-43.19v-2.17h-.1v-5.63a51.37 51.37 0 0 0-12.65 4.05l-.44.23a6.79 6.79 0 0 0-.83.44l-.14.07-.36-.05a11.26 11.26 0 0 1 1.88-1 51.38 51.38 0 0 1 12.65-4.15v-4.74h26.08a61 61 0 0 1 10.47-2.37 12.9 12.9 0 0 1 6.22.4 9.52 9.52 0 0 1 3.06 2h.1v-20.5c.45.44 1 .88 1.38 1.29-.43-.61-.93-1.13-1.38-1.65v-9.69h-84.67v119.25h86.45v-21.14c-.07-.11-.13-.23-.2-.34v-.35zm-79.85-46.83a9 9 0 0 1-.37-1.18 1 1 0 0 1-.06-.22 2.32 2.32 0 0 0 .11.32 3.47 3.47 0 0 0 1.43 2.19 3.53 3.53 0 0 1-1.11-1.11zm6.29 11.41v-.24c-.07-.26-.15-.51-.24-.76a24.09 24.09 0 0 0-2.33-6.95 4.34 4.34 0 0 0-.72-1 4.48 4.48 0 0 1 .87 1.21 23.36 23.36 0 0 1 2.47 7.71.07.07 0 0 1-.05.03zm8 27.47q-.48-.84-.92-1.72a37.48 37.48 0 0 0 1.92 3.25q-.52-.75-1-1.53zm3.77 5q-.73-.76-1.38-1.59a23.68 23.68 0 0 0 2.58 2.71c-.41-.35-.81-.7-1.2-1.1zm8.19-50.51c-2.43-.37-4.82-.66-7.14-.9-4.57-.67-13.31-2.79-17.45-.24 2.7-1.57 7.39-.92 11.09-.42-4-.51-9.08-1.17-11.69.87a.38.38 0 0 0-.2.2l-.1.1a5.57 5.57 0 0 0-1.38 4.05v.1a3.7 3.7 0 0 0 .1 1 2.32 2.32 0 0 0 .06.36 3.35 3.35 0 0 0-.11-.46 3 3 0 0 1-.1-1v-.1a5.32 5.32 0 0 1 1.38-4.05l.1-.1a.38.38 0 0 0 .2-.2c4.05-3.46 14.62-.59 19-.1 2 .2 4.05.49 6.22.79 9.68 1.48 19.86 4.25 27 10.27.2.1.3.3.49.4a1.36 1.36 0 0 0 .4.3 23.21 23.21 0 0 1 4.74 5.93c.1.1.2.3.3.4s.1.2.2.3v.09c-.09-.1-.1-.19-.19-.29s-.2-.3-.3-.4a27.79 27.79 0 0 0-4.74-5.93 1.36 1.36 0 0 0-.4-.3c-.2-.1-.3-.3-.49-.4a36.21 36.21 0 0 0-8.32-5.09 69.93 69.93 0 0 0-17.6-5zM84.92 203.79H65.16a81.58 81.58 0 0 0 8.08 17.56v-.06c.22.36.43.72.66 1.07s.47.67.79 1.06a77.14 77.14 0 0 0 5.31 6.85 29.84 29.84 0 0 0 4.45 4.15.52.52 0 0 0 .3.2.22.22 0 0 1-.2-.2h.4v-30.63z"/><path d="M64.77 203.79a77.16 77.16 0 0 0 8.43 17.51 79.67 79.67 0 0 1-8-17.51h-.4zM87 190.95h.59v-30.83h-.69c-.1 1-.2 1.88-.3 2.87a110.37 110.37 0 0 0 .4 27.96zM986.72 195.69v-.1a51.38 51.38 0 0 0-12.65 4.15 55.87 55.87 0 0 1 12.65-4.05zM1023.18 188.58h-.14a30.54 30.54 0 0 0-5.14.92q-2.82.61-5.58 1.42h20.1a7.8 7.8 0 0 0-3-2 12.9 12.9 0 0 0-6.24-.34zM117.42 253a60.69 60.69 0 0 0-3.75-9.09v.09a65.21 65.21 0 0 1 4.15 10.57 5.23 5.23 0 0 0-.4-1.57zM322.13 221.08c-2.25-.33-4.5-.59-6.69-.85 2.17.28 4.33.57 6.59 1a.35.35 0 0 1 .1-.15zM131.9 277.69h.26z"/><path d="M210.49 260.89a126 126 0 0 0-12.14-6.13c-2-.87-3.88-1.69-5.64-2.38l-1.33-.51a135.78 135.78 0 0 1 19.31 9.13l-28-43.67 37.54-57.1H190a88.36 88.36 0 0 1 1.25 15.41 85.16 85.16 0 0 0-1.41-15.64h-16.3l-11.07 21-.07.24v.06c-1.27 4.54-2.72 9-4.23 13.47q-1.11 3.21-2.29 6.39c-.16.41-.31.84-.47 1.26l-.13.32c-2.27 6-4.54 12.05-6.92 18.08 2.07-5.14 4.15-10.37 6-15.61.13-.31.25-.61.37-.91-.09.27-.19.55-.27.81-1.88 5.24-4 10.47-6 15.61-.35.9-.71 1.79-1.06 2.69-3.18 7.83-6.43 15.67-9.47 23.56l-1.33 3.3c-.2.4-.3.79-.59 1.38 0 .1-.1.2-.1.3l-.11.29c-.47 1.09-1 2.39-1.51 3.75-1 2.5-1.79 5.23-1.25 7.35a3.58 3.58 0 0 0 .6 1.46 4.94 4.94 0 0 0 3.56 1.88 5.42 5.42 0 0 1-1.33-.49 8.13 8.13 0 0 0 1.33.39 10.92 10.92 0 0 0 7.31-2.87 1.36 1.36 0 0 0 .3-.4q.28-.44.52-.9c-.19.37-.39.74-.62 1.1-.09.09-.17.24-.26.35-1.5 1.28-4.52 3-7.25 2.82 2.72.58 5.62-1.22 7.22-2.78-1.58 1.58-4.54 3.46-7.31 2.87a4.75 4.75 0 0 1-3.56-1.88c-2.17-2.77.79-9.48 2.37-13 3.85-10.37 8.2-20.65 12.35-30.92 2.37-6 4.64-12 6.92-18.08l.59-1.48c2.37-6.52 4.64-13.24 6.42-19.86l-5.63 10.67-.12-.21.12-.39-16.8-31.52H93.12l37.74 57.1-17.09 26.7a60.7 60.7 0 0 1 3.75 9.09c.1.49.3 1 .4 1.48.1.2.1.49.2.69.34 1.21.58 3 1 4.89-.51-1.87-.82-3.71-1.11-4.91a6.3 6.3 0 0 0-.2-.69c.74 3.43 1 8.17 3.29 10.45.09.11.17.23.27.34s.26.16.39.24a4.07 4.07 0 0 0 4.88.93c-2.36 1-4.05.42-5.27-1-2.67-2.07-3-7.21-3.75-10.87a60.17 60.17 0 0 0-4.15-10.54l-1.78 2.77.07.12-.46.77c4.45 9 7.21 17.66 1.68 18.47h.21-.11a3.7 3.7 0 0 1-1.09.1 3.7 3.7 0 0 0 1-.1c5.53-.79 2.77-9.48-1.68-18.47l-5.83 9.09v.06l-.16.24v.21L91 279.47h46.73l1.09-2.27h-.19.19l.86-.1.05-.09-.91.12c-2.49.25-5 .36-6.73.56h.28-.44c-.27 0-.52.07-.71.11H130.39h.37c-2.39-.25-6.64.37-11.1.74.93-.06 1.85-.12 2.74-.2-.89.07-1.81.14-2.74.2-2 .16-3.93.27-5.78.25 1.81 0 3.73-.1 5.63-.25-6.67.4-13.83.3-14.82-4a3.81 3.81 0 0 1 .23-2.73 5.84 5.84 0 0 0 0 2.73c.89 4.15 8.1 4.35 14.82 3.85 4-.34 8-.89 10.43-.8.25.06.59.13 1 .21a5.41 5.41 0 0 0 .77-.2c1.69-.2 4.35-.25 6.93-.59l3.15-6.44a14.31 14.31 0 0 1 2.1-4.36l10-20.13.24-.29v-.09l.1-.11 2.17-4.25-2.12 4.25a1.37 1.37 0 0 1-.15.2l.11-.13c.49-.49 1-1.09 1.48-1.58a18.25 18.25 0 0 1 1.38-1.38c1.48-1.48 2.87-2.87 4.45-4.25l.1-.1.15-.15-.25.25-.1.1c-1.48 1.38-3 2.77-4.35 4.25l18.38 36.65h7.31v-.1h.6c.28-1.1.53-2.23.77-3.37-.21 1.3-.41 2.49-.62 3.47l18.94-.09.08.09h1.63l-.08-.1h5.76c-1.78-1.48-3.26-2.77-4.05-3.56l-.2-.2c-2.47-2.87-7.21-6.72-10.67-10.67a14.82 14.82 0 0 1-3.46-5.73c3.56-2.17 17.29 7.9 21.93 6.72l-3.06-4.91zm-103.14 4.35l-.09-.09a7.25 7.25 0 0 0 3.81 1.05 7 7 0 0 1-3.72-.96zm9.09-.4a2.92 2.92 0 0 1-1.49.88 4.82 4.82 0 0 0 1.39-.88c1.1-1.43 1.2-3.58.67-6.11.56 2.52.49 4.68-.57 6.12zm15.83 12.6c.13-.28-2-.36-2.55-.2-.13-.31 3.43-.24 2.54.2zm-11-8.55h-.1c1.9-.06 6.76-.87 11.69-1.16-4.75.27-9.51 1.11-11.58 1.17zm26.23-12.83c-.31.88-.59 1.78-.85 2.68a29.63 29.63 0 0 1 1.35-4.11c-.17.45-.33.93-.49 1.43zm2.42-4.85a3.47 3.47 0 0 0-.49.79.52.52 0 0 0-.1.15.52.52 0 0 1-.1.15c-.27.39-.52.8-.75 1.21l.05-.13a9 9 0 0 1 .79-1.28c.1-.1.1-.2.2-.3a3.47 3.47 0 0 0 .48-.8c.63-.88 1.3-1.73 2-2.57q-1.08 1.36-2.07 2.78zm40.13 6.61a8.4 8.4 0 0 0-2.37 3.6c.65-1.83 1.43-3.16 2.46-3.69a.1.1 0 0 0-.09.09z"/><path d="M122.11 265.68a6.21 6.21 0 0 0 1.07.43 4.11 4.11 0 0 1-1.07-.43zM139.88 267.88l.72.12zM148.33 253.89v.06l.06-.13zM167 233.63l-4.74 4.45.1-.1 4.64-4.38zM186.31 250.29h.07l.94.22h.12c-.44-.06-.8-.15-1.13-.22z"/></g><path d="M532.9 207.92a49.79 49.79 0 0 0 1.38-11.76 40.44 40.44 0 0 0-2.28-13.73c-3 3.06-5.93 6.22-8.69 9.39-.2.2-.3.4-.49.59-1.38 1.58-4.64 3.06-5.93 4.64-3.56 4.25-17.78 20-10.57 25.19 5.73 3.36 18.87-9.09 22.72-11.66h.1c.59-.49 1.09-.79 1.48-1.09a8.58 8.58 0 0 1 2.28-1.57z" fill="#53b8ce"/><path d="M1031.32 169.46c-.49-.69-1.09-1.28-1.58-1.88v.42c.5.48 1.09 1 1.58 1.46zM212.31 262.85c.3-.69-1.58-2.27-4.54-4.05l.1.1c2.86 1.87 4.69 3.25 4.44 3.95zM208.36 278.14a5.65 5.65 0 0 1-.79-.69c.2.22.49.41.79.69zM151.65 243.78c.1-.1.2-.3.3-.4.4-.4.79-.89 1.19-1.28-.49.59-1 1.09-1.48 1.68zM744.72 237.26a10.35 10.35 0 0 0-2.77-1 11.72 11.72 0 0 1 2.77 1zM369.59 279.64a46.427 46.427 0 0 1 0 0zM586.25 204.75c.69-2.17 1.38-4.35 2.17-6.32-.79 1.58-1.58 3.06-2.17 4.45v1.88zM703.82 232.91v-.4a54.86 54.86 0 0 0-2-6.13 60.69 60.69 0 0 1 2 6.53zM852.6 167.49c.69-.59 1.28-1.19 2-1.68a16.14 16.14 0 0 1-2 1.68z" fill="none"/><path d="M81.7 232.42h-.1a.52.52 0 0 0 .3.2.22.22 0 0 1-.2-.2z" fill="#f05a57"/><path d="M1030.83 174.72h.2a.14.14 0 0 0-.2 0z" fill="#61aa9d"/><path d="M153.92 239.33l-2.17 4.35c.49-.49 1-1.09 1.48-1.58a18.26 18.26 0 0 1 1.38-1.38z" fill="#f05a57"/><path d="M153.13 242.2a.38.38 0 0 1 .2-.2l1.19-1.19z" fill="#f05a57"/><path d="M782.75 242.89a7.63 7.63 0 0 0-1.48-.2c.5.1.99.1 1.48.2zM790.86 269.76c-.89-6.42-2.47-14.23-5.73-18.08.49.89.79 2.27 1.78 4.74a83.34 83.34 0 0 1 3.95 13.34zM951.2 207.52c-.1-.3-.1-.49-.2-.79a2.32 2.32 0 0 1 .2.79zM985.38 259.68c-.59-.1-1.19-.1-1.78-.2.55.11 1.19.11 1.78.2zM729.11 165.33a2.9 2.9 0 0 0-2.67.59 1.89 1.89 0 0 0-.49 1.19c.89-1.6 1.97-2.11 3.16-1.78zM735.18 170.27c-.69-.79-1.38-1.58-2.17-2.37a21.7 21.7 0 0 1 2.17 2.37zM677.74 214.73a21.93 21.93 0 0 1-3.06-6.52 15.88 15.88 0 0 0 3.06 6.52zM784.73 243.38A11.49 11.49 0 0 0 783 243a11.49 11.49 0 0 1 1.73.38zM1005.34 212.86a1.36 1.36 0 0 0 .4.3 1.36 1.36 0 0 1-.4-.3zM969.48 198.83a11.26 11.26 0 0 1 1.88-1 6.84 6.84 0 0 0-1.88 1zM365.34 168.3c-1.48 0-3.36-5.33-4.84-10.18 1.39 4.88 3.21 10.18 4.84 10.18zM779.2 249.71c3 .49 4.35.49 5.14 1a5.47 5.47 0 0 0-1.88-1.19c-1.28-.59-11.76-1.58-13.63-1.38a10.66 10.66 0 0 0-3.56 1.09c4.94-1.4 8.44-.31 13.93.48zM952.39 201.59a.38.38 0 0 0 .2-.2zM741.85 236.27c-4-.89-7.8.3-11.66 1.88 3.96-1.5 7.81-2.67 11.66-1.88zM951 205.64a5.32 5.32 0 0 1 1.38-4.05 4.74 4.74 0 0 0-1.38 4.05zM761.22 245.06h-1.58l.1.2c7.9.2 13.63-3.36 21.44-2.47-7.12-.89-12.65 1.88-19.96 2.27zM680.3 205.94a9 9 0 0 1-.4-4.05h-.2a9.41 9.41 0 0 0 .6 4.05zM783.35 240.81c.49.89.89 1.68 1.38 2.57a21.22 21.22 0 0 1-1.38-2.57zM722.59 247.51c-6.62 2.07-12.94 3-18.67-2.17v.3a17.9 17.9 0 0 0 3.16 2.17c5.33 2.98 10.32 1.68 15.51-.3zM771.39 213.92c.59 1.19 1.09 2.37 1.68 3.66-.49-1.17-1.07-2.45-1.68-3.66zM770.21 211.57c.4.79.79 1.58 1.19 2.47-.4-.89-.8-1.68-1.19-2.47zM705.55 237a17.21 17.21 0 0 1-1.68-4.45v.4a14.62 14.62 0 0 0 1.68 4.05zM951.1 206.73c0-.3-.1-.59-.1-1a3.7 3.7 0 0 0 .1 1zM1012.55 162.27c.1-1.28-.1-2.17-2.07-1.78a9.21 9.21 0 0 1 1.38.2 2.9 2.9 0 0 1 .69 1.58zM993.48 161.78a1.16 1.16 0 0 0 .69-1 1.17 1.17 0 0 1-.69 1zM1018.08 174.72c2.77-.1 3.56-1.38 3.56-3-2.07 4.35-4.64 2.17-6.72-.89.79 2.31 1.83 3.99 3.16 3.89zM477.58 216.81c-2 4.05-3.85 8.1-5.53 12.45a201.54 201.54 0 0 0-6.63 19.74c-1.48 5.24-1.28 9.78-4.84 9.88a17.64 17.64 0 0 0 2.27.2c-.85 5.92-1.48 12.06-1.85 18.19h1a178.65 178.65 0 0 1 15.58-60.46zM451.79 255.14c-4.94-3.56-9.48-8.79-14.23-12-1.48-1-3-2.07-4.45-3.06v.92a15.07 15.07 0 0 0 1.58 1.09c4.75 3.37 10.88 9.2 17.1 13.05zM482 247.73c1-4.05 2.17-7.61 2.37-8.4 4-11.86 9.58-22.23 16.3-32.7 2.07-3.16 4.25-6.22 6.42-9.29-11.76 14.62-21.24 31-25.79 49.2z" fill="none"/><path d="M994.18 160.79a1.52 1.52 0 0 0-.69-.69 1.46 1.46 0 0 1 .69.69zM922.65 273.12l1-.3c-.31.1-.65.18-1 .3zM993.48 161.78a1.1 1.1 0 0 1-.89-.79c.3.57.6.89.89.79zM1100 230.84c1.48-1.58 3.75-.4 4.15-3.36-.71 1.68-2.88 1.97-4.15 3.36zM557.3 222.73a.75.75 0 0 0 .4.2.51.51 0 0 0-.4-.2zM521.44 218.86c-5.33 2.67-11.46 4.74-16.2 8 4.45-2.77 10.08-4.54 14.42-6.82a13.83 13.83 0 0 1 1.78-1.18zM555.53 221.35c.1.1.3.2.4.3-.11-.1-.31-.2-.4-.3zM558.09 223.13c.1.1.3.1.4.2a2.93 2.93 0 0 1-.4-.2zM559.48 223.62h.3a.32.32 0 0 1-.3 0zM554.54 220.36l.3.3zM560.56 223.62a.2.2 0 0 0 .2-.1.2.2 0 0 1-.2.1zM558.79 223.43a2.24 2.24 0 0 0 .4.1.59.59 0 0 1-.4-.1zM604.33 261.76c1.09 2.27 3.16 5.33 4.74 8.5a67.55 67.55 0 0 0-5.43-11.07v1.09a6.81 6.81 0 0 0 .69 1.48zM713.45 196.55a25.52 25.52 0 0 1-9.58 3.16v.1a24 24 0 0 0 9.58-3.26zM554.54 162.55c-1.78 1.28-3.56 2.57-5.33 4-.69.49-1.38 1.09-2.07 1.68q3.69-2.99 7.4-5.68zM720.37 160.89a17.67 17.67 0 0 0-2.67-2.77h-.4a12 12 0 0 1 3.07 2.77zM515.51 164.35a2.33 2.33 0 0 0-.49.49 2.33 2.33 0 0 1 .49-.49zM556.37 222c.1.1.3.2.4.3a.77.77 0 0 1-.4-.3zM560.76 201.59c-1.68-12.45 2.27-16.8 16.1-20.85a33.16 33.16 0 0 1 9.48-1.68v-.49c-4.25.1-9.19 1.78-13.63 3.46-12.24 4.55-13.43 9.68-11.95 19.56zM585.36 205.54a86.75 86.75 0 0 0-2.07 13.93 88.36 88.36 0 0 1 3.06-14.72v-1.88a12.85 12.85 0 0 0-.99 2.67zM553.35 219.28c-2.47-2.57-4.35-5.14-6.22-7.41v.3c1.87 2.07 3.87 4.54 6.22 7.11zM724.27 184.5a1.67 1.67 0 0 0 .2-.49 1 1 0 0 0-.2.49zM583.78 237.36a41 41 0 0 1-.89-6.22v.1a31.62 31.62 0 0 0 .89 6.12zM583.78 237.46c.1.3.2.69.3 1-.08-.31-.2-.61-.3-1zM561.65 206.93c0 .2.1.4.1.59-.2-1-.3-1.88-.49-2.67a15.33 15.33 0 0 0 .39 2.08zM560.17 230.24c-3.16-.3-5.93-3-8-5.53-1.78-2.17-3.16-5.63-4.94-8.6v.4c3.77 6.03 6.42 14.21 12.94 13.73zM561.06 223.43c0-.1.1-.1 0 0 .1-.1 0-.1 0 0zM566.89 211.57c.59 4.64 2.47 12.94-1.48 16.6l-.2.2c4.34-3.37 3.46-9.98 1.68-16.8zM977.78 202.07c9.39 1.48 19.76 4.25 27 10.27-7.15-6.01-17.32-8.77-27-10.27zM342.33 236.86c-.1 0-.3-.1-.4-.1a.75.75 0 0 0 .4.1zM340.84 168a4.83 4.83 0 0 0-2-2.37 6.36 6.36 0 0 1 2 2.37zM153 199.32l-.59 1.48c-2.27 6-4.54 12.05-6.92 18.08 2.07-5.14 4.15-10.37 6-15.61.65-1.38 1.05-2.67 1.51-3.95zM364.85 180.45c-.2-.1-.4-.1-.59-.2a1.4 1.4 0 0 0 .59.2zM1067.14 257.39c.3 3.75 7.8-4.05 13.73-10.87-5.87 6.84-13.39 14.65-13.73 10.87zM340.35 168.79c.1-.1.1-.3.2-.4-.55.3-.4.5-.2.4zM365.34 168.3c.1 0 .2 0 .2-.1a.31.31 0 0 1-.2.1zM150.32 198.93q-9 24.16-18.38 48.11c6.27-15.91 12.3-32.04 18.38-48.11zM165.14 230.64l-.4.4zM164.15 231.53l-4.74 4.47q2.59-2.25 4.74-4.47zM83.78 161c.1-1 .2-1.88.3-2.87-.08.87-.2 1.87-.3 2.87zM207.77 259l-.1-.1a126 126 0 0 0-22.82-10.27c5.53 1.57 16.69 6.61 22.92 10.37zM363.57 253.16c.2-2-1.48-3.56-4.15-4.84 2.66 1.29 4.29 2.87 4.15 4.84zM192.75 263c3.36 3.85 8.2 7.8 10.67 10.67-2.57-2.92-7.31-6.77-10.67-10.67zM1107.79 223.43c2.07-5.63 10-6.42 15.41-8.69-4.45 1.78-12.55 3.06-15.12 7.11-2.27 3.56-2.27 5.43-1.09 6.32-.19-.89.01-2.39.8-4.74zM334.42 232.22c-.69.1-1.28.2-1.68.3v.18c.5-.18.99-.28 1.68-.48zM159.06 236.37l-.1.1a.1.1 0 0 0 .1-.1zM1115.1 227.48c-.2.1-.3.1-.49.2a2.54 2.54 0 0 1 .49-.2zM358.53 247.93a3 3 0 0 1 .79.4 3 3 0 0 0-.79-.4zM147.2 249.21c1.38-1.88 3-3.66 4.45-5.43v-.1a47.42 47.42 0 0 0-4.45 5.53zM373.45 176.8c1.48-.59 3-1.09 4.35-1.68l-2.67.89a9.15 9.15 0 0 1-1.68.79zM389.06 168.2c-2.27-2.57-8.6.89-14 3.56 5.4-2.67 11.72-6.03 14-3.56zM1059.18 252c-3.06 3.06-7.41 7.9-4.15 9h.3c-1.18-.64.79-4.6 3.85-9zM445.07 159.7c-4.94 2.67-8.89 3.16-12 2.17 3.11 1.13 7.06.6 12-2.17zM369.2 174.33c-1.28.3-2.17.3-2.67-.3.47.69 1.38.69 2.67.3zM371.77 193.1c-8.5-6.22-16.89-12.55-24.8-19.36 8 7 16.8 13.44 24.8 20.35v-1zM987.26 259.78c10.27.2 16.6-5.63 20.35-13.53-3.7 7.9-10.07 13.75-20.35 13.53zM365.64 168.2c.1 0 .1-.1.2-.1-.15 0-.2 0-.2.1zM150.32 198.93c1-2.67 2.17-5.83 3.26-9.29-1.14 3.46-2.28 6.62-3.26 9.29zM133.08 250.1c0-.1.1-.2.1-.3-1.58 3.66-4.45 10.27-2.37 13a4.94 4.94 0 0 0 3.56 1.88 5.42 5.42 0 0 1-2.47-1.28c-3.17-3.12-.21-9.54 1.18-13.3zM115 252.45c.79 3.66 1.09 8.79 3.75 10.87-2.27-2.57-3-7.71-3.56-10.18a6.29 6.29 0 0 0-.19-.69zM365.94 171a19.56 19.56 0 0 1 1.58-4.84l-.1.1a20 20 0 0 0-1.48 4.74zM1123.2 214.73a6.8 6.8 0 0 1 .79-.3 6.8 6.8 0 0 0-.79.3zM60.76 273.2c-.1-.2-.2-.3-.3-.49a2.16 2.16 0 0 0 .3.49zM142 261.46c-.1.1-.2.3-.3.4a1.36 1.36 0 0 0 .3-.4zM370.19 277.37c2.47-8.79 7.31-21 7.11-31.12h-.2c.4 9.88-4.35 21.83-6.91 31.12zM58.78 164.94a30.81 30.81 0 0 0-1.28 6.42 64.28 64.28 0 0 0 1.28 17.39 74.1 74.1 0 0 1 0-23.81zM362.38 228.74c1.28.4 2.47.89 3.66 1.38a21.38 21.38 0 0 1 5.73 3.36V233a18.22 18.22 0 0 0-3.85-2.37 52 52 0 0 0-5.54-1.89zM1067.09 242.3l-.1.1.1-.1zM57.4 264.13a34.66 34.66 0 0 0 2.87 8.1 27.41 27.41 0 0 1-2.37-6.72 39.34 39.34 0 0 1 .89-19.17h-.1a38.73 38.73 0 0 0-1.29 17.79zM109.07 264.23a3.7 3.7 0 0 0 1.09-.1c-.4 0-.69.1-1.09.1zM1026.28 164.64c-4.05-1.68-5.24-1.19-5.33.1a1 1 0 0 1 .3-.4c1.78-1.88 5.24.59 8.5 3.66v-.4a10.28 10.28 0 0 0-3.47-2.96zM343.81 171c.89.79 1.68 1.58 2.57 2.37-.79-.82-1.68-1.61-2.57-2.37zM1020.46 186.58c-3.26.2-7 1.38-10.47 2.37h.59a60.18 60.18 0 0 1 9.88-2.37zM705.79 195.37c7.41-1.68 12.94-9.39 15.61-16.8-.59 1.38-1.19 2.77-1.88 4.05-3.85 7.31-8.79 11.56-15.51 12.25v.69a6.1 6.1 0 0 0 1.78-.19zM518.67 197c1.28-1.58 2.67-3.06 4-4.64-4.94 5.33-21.44 21.24-18.28 27.86a4.2 4.2 0 0 0 1.68 2C499 217 515.12 201.3 518.67 197zM723.28 186.48c.2-.4.49-.89.69-1.28-.29.49-.49.88-.69 1.28zM530.43 209.3c-.4.3-1 .69-1.48 1.09a27.73 27.73 0 0 1 3.85-2.27.2.2 0 0 1 .1-.2c-.79.39-1.58.88-2.47 1.38zM181.93 248.22c-2.37 1-2.47 13-2.17 21.83-.15-8.71.05-20.64 2.17-21.83zM128.43 275.79c1.38-.3 4.54-.3 7.61-.59v-.1c-2.96.29-6.04.39-7.61.69zM207.57 277.37c-1.78-1.58-3.46-3-4.05-3.56a27.37 27.37 0 0 0 4.05 3.56zM116.87 276.48c4.94-.3 9.68-1 11.56-.69-2.27-.4-6.81.29-11.56.69zM359.12 277.37a117 117 0 0 0 4.25-21.54 131.15 131.15 0 0 1-4.25 21.54zM118 266.9c-3.16-.1-11.26-1-14.62 1.58 3.47-2.2 11.82-1.58 14.62-1.58zM308.24 218.19c-5.93.69-9.39 3.36-11.56 7.31 2.32-3.85 5.73-6.64 11.56-7.31zM1026.78 231.92c.1-.69.3-1.28.4-2v-2.07a18.77 18.77 0 0 0-1 4.54h.59a.44.44 0 0 1 .01-.47zM388.27 169.09l-.1.1zM145.72 251.46c-.89 1.58-1.38 4-2.07 6.13a60.68 60.68 0 0 1 2.07-6.13zM957.82 219.85c.2.89.3 1.88.49 3 1.38 9.39 3.56 19.46 8.89 26.77-5.43-7.9-6.92-19.07-9.19-28.95a1.87 1.87 0 0 0-.19-.82zM146.61 250c-.1.1-.1.2-.2.3a.52.52 0 0 0 .2-.3zM118.46 266.9c3.85-.1 16.3-2.67 21.73-.2l.1-.1c-5.93-2.29-18.62.3-21.83.3zM188.6 259.59a9 9 0 0 0 .1 1.68c1.09 4.05 5.14 8.4 7.71 11.76 1.19 1.48 2.37 3 3.66 4.45h1.63c-5.49-6.53-10.93-13.55-13.1-17.89z" fill="none"/><path d="M1027.17 223.33c-2.57 1.78-9 1.78-12.45 1.19q-.89-.15-1.48-.3a1.67 1.67 0 0 1-.59-.3c0 .1-.1 1.09-.1 1.48v.2c-.1 2.17-.4 4.45-.69 6.82h14.33a23.27 23.27 0 0 1 1-4.54v-4.54zM372.26 158.12c-.49.79-1.09 1.58-1.58 2.37-.1.1-.1.3-.2.4.59-.99 1.14-1.89 1.78-2.77zM1036.66 263.54l.1.1-.1-.1zM582.89 231.13a41 41 0 0 0 .89 6.22v.1c.1.3.2.69.3 1a37.81 37.81 0 0 0 2.17 5.53v-42.19c-1.38 4.64-2.47 12.65-3.06 17.68-.3 4.15-.4 8.28-.3 11.66zM576.87 179.76c-13.83 4.05-17.78 9.39-16.1 21.83.1 1 .3 2.07.49 3.16.1.79.3 1.68.49 2.67 1 5.53 2.07 13.93-.59 15.81a.1.1 0 0 0-.1.1c-.1.1-.2.1-.3.2a.2.2 0 0 0-.2.1c-.1 0-.2.1-.3.1h-.94a.37.37 0 0 1-.3-.1 2.24 2.24 0 0 0-.4-.1c-.1 0-.2-.1-.3-.1a.75.75 0 0 1-.4-.2 1.45 1.45 0 0 0-.4-.2.75.75 0 0 0-.4-.2c-.1-.1-.3-.2-.4-.3s-.3-.2-.4-.3a2.15 2.15 0 0 1-.49-.4c-.1-.1-.3-.2-.4-.3s-.49-.4-.69-.59l-.3-.3a11.26 11.26 0 0 1-1.09-1.09c-2.47-2.57-4.45-5-6.22-7.11v4c1.78 3 2.17 6.32 4 8.6 2.07 2.57 4 5.24 7 5.53a36.64 36.64 0 0 0 4.35-.49 9.69 9.69 0 0 0 2.67-1.38l.2-.2c4-3.66 4.05-12 3.46-16.6-1.88-6.92-6.52-13.93-5.63-17.88 1.38-5.73 15.31-13.14 23-11.16v-4.54c-2.6-.24-5.76.45-9.31 1.44zM838.87 183.91c-5.93 9.39-8.79 20.75-8.79 34.08 0 19.17 6 34.38 18.18 45.35s27.27 16.2 45.84 16.2c3.06 0 5.93-.2 8.69-.4 5.53-1.58 11-3.26 15.91-4.74l4-1.19 1-.3c1-.3 1.88-.59 2.87-.89a45.78 45.78 0 0 0 9.88-7.51l-11.33-31.11c-7.31 7.21-16.8 10.87-28.55 10.87-15.21 0-27.37-9.48-27.37-26.77 0-17.78 11.56-27.37 27.37-27.37a34.12 34.12 0 0 1 13.44 3c4.64 1.88 7.9 3.26 9.48 4.54a41.69 41.69 0 0 1 3.85 3l10.37-32.8-1.38-1.19a58.83 58.83 0 0 0-12.84-6c-5.73-2.27-15.71-4-25.59-4-11.56 0-21.83 2.17-30.82 6.42a89.61 89.61 0 0 1-24.21 20.81zM381.35 201.89c2.67 2.07 6.42 4.84 9 7 7.8 6.52 16.5 13.24 24.6 19.17v-26.17h-33.6zM685.74 221.83v-9.09c-2.47-2-4.54-4.15-5.33-6.92a9.41 9.41 0 0 1-.59-4.05h-4.94a17.3 17.3 0 0 0-.2 6.32c.69 2.27.69 4.54 2.07 6.52 2.07 2.59 5.83 4.86 8.99 7.22zM703.82 246.35c5.73 5.14 12.05 4.25 18.67 2.17 6.22-2.47 12.35-7 18.77-5.53a1.4 1.4 0 0 1 .59.2v-6.82c-3.85-.79-7.8.3-11.66 1.88-6.62 2.67-13.24 6.32-20.15 2.87a9.62 9.62 0 0 1-4.44-4.12 15.35 15.35 0 0 1-1.68-4v13.34h-.1zM60.56 272.73a2.16 2.16 0 0 0-.3-.49 34.66 34.66 0 0 1-2.87-8.1 39.21 39.21 0 0 1 1.19-17.88H38.83v-13.84h42.68a44.19 44.19 0 0 1-4.45-4.15 75.38 75.38 0 0 1-15.21-26.48H38.93v-12.94h19.85v-.2a64.28 64.28 0 0 1-1.28-17.39 43.39 43.39 0 0 1 1.28-6.42q.59-3.41 1.48-6.82H0v119.35h62.93c-.79-1.38-1.48-2.77-2.17-4.15a.75.75 0 0 1-.2-.49z" fill="#82c1b5"/><path d="M365.34 168.3c.1 0 .2 0 .2-.1h.1c.1 0 .1-.1.2-.1a9.54 9.54 0 0 0 2.17-2.87c.79-1.58 1.78-3.26 2.67-4.74.4-.79.89-1.58 1.28-2.37H360.5c1.39 4.88 3.21 10.18 4.84 10.18z" fill="#82c1b5"/><path d="M370.48 160.89c-.79 1.38-1.58 2.77-2.27 4l-.59 1.11a85.56 85.56 0 0 0 5.33-8h-.69c-.64 1-1.19 1.9-1.78 2.89z" fill="#82c1b5"/><path d="M368 165.24c-.2.3-.3.69-.49 1l.1-.1.59-1.19a.52.52 0 0 0-.2.29zM1078.35 270.95a34 34 0 0 1-5.73 2.17c-4.15 1.38-19.76-.79-25-1.38 7.61 2.67 26.87 7.71 35.07 7.71a73.36 73.36 0 0 0 17.39-2c1.28-.3 2.57-.69 3.75-1.09s3.26-1.28 4.35-1.58c1.78-.49 9.19-4 8.3-5-1.09-1.48-10.37-9.88-10.37-10-1.48-2.17-2.87-4.35-6-5.14s-6.22-1.19-7.31-1.78c-7.14-.41-7.88 14.41-14.45 18.09zM605.32 261.76c-.2-.49-1.48-3-1.68-3.46v19.07h7.06c-.2-2.27.2-4.64-.69-7.11-1.63-3.07-3.6-6.26-4.69-8.5z" fill="#82c1b5"/><path d="M340.84 168c0 .1 0 .1.1.1 1 1 2 1.88 3 2.87.89.79 1.68 1.58 2.57 2.37.2.1.3.3.49.4 7.8 6.82 16.3 15.12 24.8 21.34v-6.22h45.84v-30.74h-44.59c-2.07 3.16-4 6.13-5.33 8a18.34 18.34 0 0 0-1.58 4.84 4.11 4.11 0 0 0 .59 3.16c.49.59 1.38.59 2.67.3a34.09 34.09 0 0 0 5.83-2.57c5.43-2.77 11.66-6.13 14-3.56a5.93 5.93 0 0 1-.79.79l-.1.1a5.65 5.65 0 0 1-.79.69 28.28 28.28 0 0 1-9.58 5.24c-1.38.59-2.87 1.09-4.35 1.68-2.87 1.38-7.61 4-8.6 3.66-.2-.1-.4-.1-.59-.2-4.45-2.07-6.22-13.73-6.32-22.13H333v3.75a39.22 39.22 0 0 1 6 3.75 5.93 5.93 0 0 1 1.84 2.38zM554.54 162.55c2.17-1.58 4.45-3.06 6.72-4.45h-14v10.08c.69-.59 1.38-1.09 2.07-1.68 1.67-1.36 3.43-2.65 5.21-3.95zM507.21 195.37a103.13 103.13 0 0 0-6.42 9.29c-6.72 10.47-12.45 18.87-16.3 30.73-.3.79-2.27 6.52-3.26 10.47l7.51 15.71c2.27-11 5.93-23.71 12.05-31a20.37 20.37 0 0 1 4.45-3.75c5.33-3.56 11.26-4.45 16.2-7 3.06-2 6.62-5.93 10.18-7.8a26.11 26.11 0 0 0 1.19-4 43 43 0 0 0-3.85 2.27c-5.63 4.35-17.29 15.51-22.72 11.86l-.1-.1a3.77 3.77 0 0 1-1.68-2c-3.16-6.62 13.34-22.53 18.28-27.86q4.45-5.19 9.19-10.08a29.64 29.64 0 0 0-4-7.41c-7.28 7.3-14.29 12.77-20.72 20.67zM720.37 160.89c4 4.84 3.46 11.26.89 17.68-2.67 7.41-8.2 15.12-15.61 16.8a12.1 12.1 0 0 1-1.88.2v4.15a25.52 25.52 0 0 0 9.58-3.16 26 26 0 0 0 9.78-10.08 8.17 8.17 0 0 1 .69-1.28c.1-.2.2-.49.3-.69a1.67 1.67 0 0 0 .2-.49 31.88 31.88 0 0 0 2-7.61c.3-2.27-1.38-7.61-.4-9.29a1.66 1.66 0 0 1 .49-1.19 2.71 2.71 0 0 1 2.67-.59h.1a8.89 8.89 0 0 1 3.56 2.37l.1.1.16.19a25.83 25.83 0 0 1 2.17 2.37c1.09 1.28 2.17 2.57 3 3.36 10.08 10 20 18.67 28 30.82q2.22 3.41 4.15 7.11c.4.79.79 1.58 1.19 2.47.59 1.19 1.09 2.37 1.68 3.66 3.46 7.8 6.22 15.81 10.27 23.22.49.89.89 1.68 1.38 2.57a11.49 11.49 0 0 0-1.78-.4h-.3a7.63 7.63 0 0 0-1.48-.2h-.1c-7.8-.89-13.53 2.67-21.44 2.47l2.77 5a10.53 10.53 0 0 1 1.88-.69l.89-.3a9.88 9.88 0 0 1 3.56-1.09c1.88-.2 12.35.79 13.63 1.38a7.52 7.52 0 0 1 1.88 1.19 2.55 2.55 0 0 1 .89.89c3.16 4 4.84 11.66 5.73 18.08.59 2.47 1 5 1.38 7.71H818v-84c-4.74 1.48-9.39 2.17-13.53 1.19-.3-.1-.59-.1-.89-.2a71.32 71.32 0 0 0 14.42-4.38v-32.11h-38v44.93q0 8.6.89 21.64l-34.64-66.59H717.8a17.06 17.06 0 0 1 2.57 2.79zM1045.15 212.76c.3.49.59 1.09.89 1.58l2.37.1c1.09.2 2.17.3 3.26.49l6.42.89c4.35.49 8.69.89 12.94 1.09a10.17 10.17 0 0 1 4.25.79 14.58 14.58 0 0 0 2.67 1.58 2.67 2.67 0 0 0 3.06-1.48 5.5 5.5 0 0 0-.1-3.56c-1.58-5.93-3.66-11.86-7.8-16.4a35.17 35.17 0 0 0-6.22-5.14c-4.74-3.46-9.68-6.72-14.52-10-1-.69-2-1.38-3-2a2.67 2.67 0 0 0-1.09-.49 2.2 2.2 0 0 0-1.38.3c-1.28.49-2.47.69-3.06 2a23.19 23.19 0 0 0-1.38 4.45 37.54 37.54 0 0 0-1.09 9.39 37 37 0 0 0 .3 4.74c4.28 4.06 8.82 9.2 3.48 11.67zM445.07 159.7c-4.94 2.67-8.89 3.16-12 2.17v78.25c1.48 1 3 2.07 4.45 3.06 4.74 3.16 9.29 9.39 14.23 12.94 3 1.88 5.93 2.27 8.79 2.77 3.56-.2 6.32-4.64 7.8-9.88 1.88-6.72 3.06-13.34 5.63-19.76 1.68-4.35 1.58-8.4 3.56-12.45 1.28-2.87 2.77-5.73 4.25-8.6h-9.88v-20.73h9.88c4 0 6.72.69 8.69 2.27a6.47 6.47 0 0 1 1.78 1.48A173.36 173.36 0 0 1 515 164.74l.49-.49c-7.8-4.05-18-6.22-30.53-6.22h-37.32a12.84 12.84 0 0 1-1.48 1c-.45.28-.79.48-1.09.67z" fill="#82c1b5"/><path d="M1020.95 164.74c-.79 1.58.79 4.74.69 7.11a10.27 10.27 0 0 0 .4-1c.49-1.39-1.19-4.43-1.09-6.11zM1012.35 166.13a33 33 0 0 0 2.57 4.74c-1.09-2.87-1.78-6.62-2.37-8.69-.1 1.36-.74 2.96-.2 3.95zM1124.29 214.44c-.69-.69-1.38-1.38-2.07-2-4.35-3.66-11.07-7.11-19.86-10.08-1.58-.49-4.35-1.38-8.1-2.47l-6-1.88c-2.77-.69-8.3-2.27-8.3-5.53s3.26-4.84 9.68-4.84c3.66 0 8.3 1 13.83 3.16a42.22 42.22 0 0 1 14.52 8.3l14.82-27.66c-9.39-8-23.81-13.24-38.13-14.23-.1 0-6.62 1.09-5.73-.1-14.42.2-25.69 3.66-33.69 10.37a37 37 0 0 0-10.77 13.93c0 .1-.1.2-.1.3a8.17 8.17 0 0 1 .69 1.28v.1c.69 2.77-2.17 5-2 5.73l.3.59c1 1.78 3.66 1.88 5.14 4.05a5.84 5.84 0 0 1 .89 2.37c.2 1.09-.3 6.62 2.27 5.53a1.76 1.76 0 0 0 .79-.69 5.31 5.31 0 0 1 3.75-1.48 11.15 11.15 0 0 1 4.64 1.19 7.52 7.52 0 0 1 1.88 1.19A4.45 4.45 0 0 1 1064 207a2.24 2.24 0 0 0 1.37 2.86c2.37.89 2.87-3.46 4.35-3.06.69-.2 2.77 1.58 2.87 1.78.69 1.88-2.67 4.15-2.07 6.13.3.79 1.19 1.58 3.46 2.17h.1c7.8-.79 22.53 15.51 21.73 23.51a56.52 56.52 0 0 1-3.16 13.83 33.36 33.36 0 0 0-1.28 4.15 4.15 4.15 0 0 0 .2 2.67 5.93 5.93 0 0 0 .89 1.28c1.28 1.48 2.67 3.06 4.54 3.26a1.23 1.23 0 0 0 1.28-.4 1.21 1.21 0 0 0 0-1.28 8.22 8.22 0 0 0-.79-1.19c-1.68-2.67 1.38-2.57 3.16-1.58a12.68 12.68 0 0 0 3 1.68 1.68 1.68 0 0 0 .69.1c.59-.1.79-.89.89-1.48a1.15 1.15 0 0 1 2.07-.79 14.08 14.08 0 0 1 2.87 3.06 5.76 5.76 0 0 1 1.09 4 1.06 1.06 0 0 1-.2.59 1.54 1.54 0 0 1-1.19.3 9.08 9.08 0 0 1-3.26-1.09c-1.19-.59-4.05-3.66-4.54-.69a4.62 4.62 0 0 0 .4 2.27 5.76 5.76 0 0 0 .79 1.78 6.79 6.79 0 0 0 1.68 1.68 11.4 11.4 0 0 0 2.87 2c1.09.49 2.07-.4 3.16-.89-1-.69-2-2.07-2.17-2.07.2.1 2.57-2.77 3.66.49a.57.57 0 0 1 .1.4v.4a37.9 37.9 0 0 0 5.33-3.46c10.37-8.1 15.51-18.47 15.61-31.12-.02-17.29-9.41-23.85-9.21-23.85z" fill="#61aa9d"/><path d="M57.89 265.51a39.13 39.13 0 0 0 2.37 6.72 2.16 2.16 0 0 0 .3.49c.1.2.2.3.3.49.69 1.38 1.48 2.77 2.17 4.15h23.51v-31.11H58.68a41 41 0 0 0-.79 19.26zM308.24 218.19c-1.38-.1-1.48-.2 3.16-.2 2.57.3 5.14.59 7.9 1a45.19 45.19 0 0 0 4.05-19.76c0-14-4.54-24.6-13.53-31.61-7.9-6.42-19-9.48-33.2-9.48h-51.86v119.33h39.12v-37.15h12.84a73.29 73.29 0 0 0 16.1-1.68c.89-4.94 1.88-9.48 4-13.14 2.04-3.85 5.49-6.64 11.42-7.31zm-28.65-9.39c-2.07 1.38-5.14 2.07-9.48 2.07h-6.42v-23.31h6.42c4.35 0 7.41.69 9.48 2.27 3 1.88 4.35 5.14 4.35 9.48s-1.39 7.52-4.35 9.49zM187.22 188a76.07 76.07 0 0 1-19 39.42c-1 1.09-2.07 2.17-3.06 3.26l-.4.4-.59.59-4.74 4.45-.4.4-.1.1c-1.48 1.38-3 2.77-4.35 4.25l18.42 36.6h7.31c-.2-1.68-.3-4.35-.4-7.31-.3-8.79.1-21.24 2.17-21.83a5.15 5.15 0 0 1 3 .4c5.43 1.48 16.5 6.52 22.82 10.27l-28-43.67 37.54-57.1h-30.22a88.37 88.37 0 0 1 0 29.77zM460.68 259a9.41 9.41 0 0 1-4.64-1.28 30.55 30.55 0 0 1-4.15-2.47c-6.32-4-12.35-11.76-17.09-15a15.07 15.07 0 0 0-1.58-1.09v38.43h28.85c.4-6.22 2-14.92 2.87-20.85-.8-.22-3.57 2.35-4.26 2.26zM113.61 262.85c-.49.69-1.88 1.09-3.36 1.28a3.7 3.7 0 0 1-1.09.1c-1.88 0-3.85-.3-4.64-1-1.28-1.09-1.58-4.84-2-8.1l-14.3 22.34H135l1-2.27c-3.06.3-6.13.3-7.61.59-1.88-.3-6.62.4-11.56.69-6.22.49-12.65.59-14.52-2.77-1.38-2.57-.69-4.25 1-5.24 3.36-2.57 11.46-1.58 14.62-1.58h.4c3.36-.1 15.91-2.57 21.83-.3l11.36-22.82a46.43 46.43 0 0 0-4.45 5.43 3.47 3.47 0 0 0-.49.79c-.1.1-.1.2-.2.3a14.62 14.62 0 0 0-.79 1.28 47 47 0 0 0-2.07 6.13 14.07 14.07 0 0 1-1.68 3.85c-.1.1-.2.3-.3.4-1.58 1.58-4.54 3.46-7.31 2.87a4.75 4.75 0 0 1-3.56-1.88c-2.17-2.77.79-9.48 2.37-13 3.85-10.37 8.2-20.65 12.35-30.92 2.37-6 4.64-12 6.92-18.08l.59-1.48c2.37-6.52 4.64-13.24 6.42-19.86l-5.63 10.67-.3-.49c-1.19 3.46-2.27 6.62-3.26 9.29q-9 24.16-18.38 48.11c-1.48 4-3.16 14.62-7 16.8-2.87 1.68-4.84 1.09-6.22-.49-2.67-2.07-3-7.21-3.75-10.87a60.18 60.18 0 0 0-4.13-10.62l-1.78 2.77c4.13 7.01 7.31 14.6 4.74 18.08z" fill="#a5d6cd"/><path d="M189.19 257.31a15.58 15.58 0 0 0 3.46 5.73c3.36 3.85 8.1 7.71 10.67 10.67l.2.2c.59.59 2.17 2 4.05 3.56h12.05L211 264c-4.72 1.12-18.45-9-21.81-6.69zM84.77 188.55v-30.43h-.7c-.1 1-.2 1.88-.3 2.87a113.44 113.44 0 0 0 1 27.56z" fill="#a5d6cd"/><path d="M188.6 259.59c-1-2.07-1.28-3.56-.49-4.15h-.25c-4.45 2-5.53 15.91-6.82 22l20.75-.1c-1.28-1.48-3.06-3.66-4.25-5.14-2.62-3.33-9.04-12.12-8.94-12.61zM188.11 255.42a.75.75 0 0 1 .49-.2 1.43 1.43 0 0 0-.69.2h.2zM340.55 168.4a.67.67 0 0 1 .3-.4 6.36 6.36 0 0 0-2-2.37c-1.78-1.09-4.05-1.09-6-2.27v57.8a184.34 184.34 0 0 1 29.54 7.61c1.88.59 2.17 1.88 4 2.67a37.23 37.23 0 0 1 5.43 3.66v-2.57H415v-4.76l-9.19-7.11c-8-6.32-16.4-12.35-24.5-18.67h-9.58v-7.8c-8-6.82-16.8-13.34-24.8-20.35-.2-.1-.3-.3-.49-.4-.89-.79-1.78-1.58-2.57-2.37-1-.89-2-1.88-3-2.87h-.1M370.19 277.37h49.1v-31.12h-42c.21 10.08-4.68 22.33-7.1 31.12z" fill="#a5d6cd"/><path d="M343.81 171c-1-.89-2-1.88-3-2.87 1.02.96 2.01 1.95 3 2.87zM60.76 273.2c.69 1.38 1.38 2.77 2.17 4.15-.69-1.27-1.53-2.65-2.17-4.15zM338.87 165.63a35 35 0 0 0-6-3.75v1.48c1.85 1.09 4.13 1.16 6 2.27zM346.47 173.34c.2.1.3.3.49.4a2.15 2.15 0 0 1-.49-.4zM60.56 272.73a2.16 2.16 0 0 0-.3-.49 2.16 2.16 0 0 0 .3.49zM460.68 259a26 26 0 0 1-8.79-3.75 22.93 22.93 0 0 0 4.15 2.47 11.86 11.86 0 0 0 4.64 1.28z" fill="#a5d6cd"/><path d="M719.38 182.62c.69-1.38 1.38-2.77 1.88-4.05a37.11 37.11 0 0 0 1.48-5.93c.79-5.24-.2-9-2.37-11.76a13.83 13.83 0 0 0-3.06-2.77h-13.54V196c6.86-.85 11.66-6 15.61-13.38zM731.48 244.67c-3.06.89-6 2.07-8.89 3-5 2-10.18 3.16-15.51.3a17.9 17.9 0 0 1-3.16-2.17v31.81h38v-34.13c-3.23-.91-6.49-.1-10.44 1.19zM611.44 277.37H690v-31.12h-47.53v-13.83h43.27v-10.18c-1.19-.89-2.47-1.68-3.56-2.67a23 23 0 0 1-4.35-4.84 15.88 15.88 0 0 1-3.06-6.52 17.23 17.23 0 0 1-.59-6.32h-31.62v-12.94h45.84v-30.83h-84.76v101.07a60.45 60.45 0 0 1 5.43 11.07c1.29 2.56 2.37 5.13 2.37 7.11zM777.32 277.37h14.42v-.22c-.2-2-.49-4.54-.89-7.51-1-4.64-1.28-9.09-3-13.34a48.93 48.93 0 0 0-1.78-4.74l-1.88-1.88c-.79-.49-2.17-.49-5.14-1-5.43-.89-8.89-1.88-13.93-.49-.89.4-1.68 1.88-2.57 2.37zM554.54 220.36l.3.3c.2.2.49.4.69.59a3.93 3.93 0 0 0 .4.3 2.15 2.15 0 0 1 .49.4c.1.1.3.2.4.3s.3.2.4.3a.75.75 0 0 0 .4.2c.1.1.3.1.4.2s.3.1.4.2a.36.36 0 0 0 .3.1 2.24 2.24 0 0 0 .4.1c.1 0 .2.1.3.1h.89a.37.37 0 0 0 .3-.1.2.2 0 0 0 .2-.1.52.52 0 0 0 .3-.2.1.1 0 0 0 .1-.1c2.57-1.78 1.48-10 .59-15.81 0-.2-.1-.4-.1-.59a15.33 15.33 0 0 0-.4-2.07v-.2c-.2-1.09-.4-2.07-.49-3.06-1.48-9.88-.3-15 12-19.66 4.45-1.68 9.39-3.36 13.63-3.46v-20h-24.9a80.8 80.8 0 0 0-6.82 4.45c-2.47 1.78-4.94 3.66-7.31 5.63v43.67c1.78 2.17 3.75 4.84 6.22 7.41a3.42 3.42 0 0 0 .91 1.1z" fill="#53b8ce"/><path d="M741.26 243c-6.42-1.48-12.55 2.17-18.77 4.54 2.87-.89 5.83-2 8.89-3 4.05-1.19 7.21-2.07 10.47-1.28v-.2a1.47 1.47 0 0 1-.59-.06zM554.54 220.36a11.26 11.26 0 0 1-1.09-1.09 5.66 5.66 0 0 0 1.09 1.09zM677.74 214.73a23 23 0 0 0 4.35 4.84 41.7 41.7 0 0 0 3.56 2.67v-.41a51.37 51.37 0 0 1-7.91-7.1zM561.75 207.52c1 5.83 2 14-.59 15.81 2.57-1.88 1.48-10.28.59-15.81zM610.65 277.37h.79a18 18 0 0 0-2.47-7.11 21.83 21.83 0 0 1 1.68 7.11zM765.27 249.21l-.89.3c-.69.2-1.28.49-1.88.69l.2.4c.89-.4 1.68-.89 2.57-1.39zM506.13 222.24c5.53 3.75 17.19-7.41 22.82-11.76h-.1c-3.85 2.67-16.99 15.12-22.72 11.76zM561.26 204.66v.2c-.2-1.09-.4-2.17-.49-3.16.09.88.29 1.87.49 2.96zM722.79 172.65a37.11 37.11 0 0 1-1.48 5.93c2.57-6.42 3.16-12.84-.89-17.68 2.17 2.85 3.16 6.51 2.37 11.75zM791.74 277.27v.2h.49c-.4-2.57-.89-5.14-1.38-7.71.4 2.87.65 5.53.89 7.51zM784.34 250.69l.89.89a2.55 2.55 0 0 0-.89-.89zM554.83 220.66c.2.2.49.4.69.59a1.85 1.85 0 0 1-.69-.59zM561.45 158.12h-.2c-2.27 1.38-4.54 2.87-6.72 4.45 2.28-1.57 4.55-3.06 6.92-4.45zM557.7 222.93c.1.1.3.1.4.2a.75.75 0 0 1-.4-.2zM523.22 191.81c2.87-3.16 5.73-6.32 8.69-9.39v-.12q-4.74 4.94-9.19 10.08c.2-.19.28-.38.5-.57zM558.49 223.33c.1 0 .2.1.3.1-.1 0-.2-.1-.3-.1zM555.92 221.65a2.15 2.15 0 0 1 .49.4c-.09-.11-.29-.22-.49-.4zM556.91 222.34c.1.1.3.2.4.3a.53.53 0 0 1-.4-.3zM674.67 208.21a17.3 17.3 0 0 1 .2-6.32h-.79a17.23 17.23 0 0 0 .59 6.32zM559.18 223.53c.1 0 .2.1.3.1a.37.37 0 0 1-.3-.1zM560.76 223.53a.52.52 0 0 0 .3-.2.52.52 0 0 1-.3.2zM560.27 223.72a.37.37 0 0 0 .3-.1.37.37 0 0 0-.3.1z" fill="#53b8ce"/><path d="M495 243.19c-1.28 3.36-3.16 14.42-5.43 20.45l6.62 13.83h45l-26.77-45.25c8.3-4.94 13.93-11.46 17.09-19.46-2.67 1.58-5.24 3.56-7.51 4.94-.79.49-1.68.89-2.47 1.38a17.19 17.19 0 0 1-1.78 1.09c-4.35 2.37-10 4.05-14.42 6.82-.2.1-.4.3-.59.4-5.68 3.61-7.4 9.77-9.74 15.8zM583.78 237.46v-.1a31.5 31.5 0 0 1-.89-6.22V231a64.83 64.83 0 0 1 .3-11.56 85.07 85.07 0 0 1 2.07-13.93 17 17 0 0 1 1-2.57v-20.12c-2.47-.79-6.13-.4-10.67 1.78-15.59 7.4-10.59 11.76-8.8 26.87v.2c1.78 6.82 2.67 13.44-1.68 16.8a6.67 6.67 0 0 1-4.94 1.88c-6.62.49-9.19-7.61-12.94-13.73v61h39.12v-33.1a38.43 38.43 0 0 1-2.17-5.93 4.82 4.82 0 0 1-.4-1.13z" fill="#f05a57"/><path d="M565.21 228.37a8.46 8.46 0 0 1-2.67 1.38 10.15 10.15 0 0 1-2.37.49 7 7 0 0 0 5.04-1.87zM495 243.19c2.37-6 4.15-12.15 9.58-15.91.2-.1.4-.3.59-.4a18.3 18.3 0 0 0-4.45 3.75c-6 7.21-9.78 20.06-12.05 31l1 2c2.13-6.02 4.01-17.11 5.33-20.44zM586.25 244.37v-.3a37.81 37.81 0 0 1-2.17-5.53 41.39 41.39 0 0 0 2.17 5.83zM563.23 193.79c-1 3.85 1.78 11 3.66 17.88v-.2c-1.78-15-6.82-19.46 8.79-26.87 4.54-2.17 8.2-2.57 10.67-1.78v-.1c-7.81-2.07-21.74 5.34-23.12 11.07zM531.42 212.66c.1-.2.1-.4.2-.59-3.56 2-7.11 4.84-10.18 6.82a19.89 19.89 0 0 0 2.47-1.38c2.27-1.3 4.79-3.37 7.51-4.85zM582.89 231.13c-.1-3.36 0-7.51.3-11.56a64.82 64.82 0 0 0-.3 11.56z" fill="#f05a57"/><path d="M472.14 277.37v-39.74h5l4.25 8.89c4.54-18.18 13.93-34.58 25.79-49.2a187.29 187.29 0 0 1 20.45-22.82 35.92 35.92 0 0 0-8.1-7.8 40.09 40.09 0 0 0-4.05-2.47l-.49.49c-2.67 2.67-5.14 5.43-7.51 8.2-5.24 6.22-10.18 12.45-14.72 18.77a9 9 0 0 1 2 6 9.56 9.56 0 0 1-4.35 8.3c-1.68 1.38-4.54 2.07-8.3 2.07-1.58 2.77-3.16 5.63-4.54 8.6A176.35 176.35 0 0 0 462 277.25h10.18v.12z" fill="#53b8ce"/><path d="M507.21 197.34A222 222 0 0 1 528 175c-.1-.2-.2-.3-.3-.49a194.94 194.94 0 0 0-20.49 22.83zM481.82 208.21c-1.48 2.87-3 5.63-4.25 8.6 1.48-3 3-5.73 4.54-8.6h-.3zM492.79 191.81c4.54-6.32 9.48-12.55 14.72-18.77 2.37-2.87 4.94-5.53 7.51-8.2a163.69 163.69 0 0 0-22.72 26.48 2.33 2.33 0 0 1 .49.49z" fill="#53b8ce"/><path d="M703.82 232.52a17.21 17.21 0 0 0 1.68 4.48 12.29 12.29 0 0 0 3.16 3.26c7.11 4.74 14.33.79 21.44-2 3.85-1.58 7.8-2.77 11.66-1.88v-3.85c0-5.73-.4-12.94-.89-21.64l18.67 34.18h1.58c7.31-.4 12.84-3.16 20-2.37h.1c.49.1 1 .1 1.48.2h.3a11.49 11.49 0 0 1 1.78.4c-6.72-1.88-2.87-4.74 0 0a21.22 21.22 0 0 1-1.38-2.57c-4-7.41-6.82-15.41-10.27-23.22-.49-1.19-1.09-2.47-1.68-3.66-.4-.79-.79-1.58-1.19-2.47-1.28-2.37-2.57-4.74-4.15-7.11-7.71-11.66-17.09-19.76-26.77-29.34-1.09-1-2.47-3-4.05-4.84-.69-.79-1.38-1.58-2.17-2.37l-.2-.2-.1-.1a10.65 10.65 0 0 0-3.56-2.37h-.1c-1.19-.3-2.27.2-3.16 1.78-.2 2.07.79 5.83.69 7.21a28.07 28.07 0 0 1-2.17 9.68 1.67 1.67 0 0 0-.2.49c-.1.2-.2.49-.3.69a8.17 8.17 0 0 1-.69 1.28 26 26 0 0 1-9.78 10.08 25.69 25.69 0 0 1-9.58 3.26v33h-.1zM685.74 212.76v-11H680a9 9 0 0 0 .4 4.05 15.14 15.14 0 0 0 5.34 6.95z" fill="#f05a57"/><path d="M773.07 217.6c3.46 7.8 6.22 15.81 10.27 23.22-4.04-7.42-6.81-15.42-10.27-23.22zM725.95 167.11c-.89 1.68.69 7 .4 9.29a26.22 26.22 0 0 1-2 7.61 28.07 28.07 0 0 0 2.17-9.68c.22-1.39-.77-5.14-.57-7.22zM724 185.19c.1-.2.2-.49.3-.69a4.81 4.81 0 0 1-.3.69zM723.28 186.48a26 26 0 0 1-9.78 10.08 26 26 0 0 0 9.78-10.08zM732.86 167.8l.2.2a.22.22 0 0 0-.2-.2zM729.26 165.33a8.31 8.31 0 0 1 3.56 2.37 10.14 10.14 0 0 0-3.56-2.37zM680.3 205.94c.89 2.67 3 4.94 5.33 6.92a17.93 17.93 0 0 1-5.33-6.92zM784.73 243.38c-2.87-4.74-6.72-1.88 0 0zM710 241.11c6.92 3.46 13.53-.3 20.15-2.87-7.11 2.77-14.33 6.82-21.44 2a12.29 12.29 0 0 1-3.11-3.24 10.15 10.15 0 0 0 4.4 4.11zM766.16 204.46q2.22 3.41 4.15 7.11-1.93-3.7-4.15-7.11zM766.16 204.46c-8-12.05-17.88-20.85-28-30.82-.79-.79-1.78-2.07-3-3.36 1.58 1.88 3.06 3.75 4.05 4.84 9.79 9.58 19.24 17.68 26.95 29.34z" fill="#f05a57"/><path d="M1046.14 214.44c8.1 12.94 45.35 16.3 48.21 27.66 0 6-13 5.14-18.28 3.46s-9.39-3.36-9.29-3.26a58.15 58.15 0 0 1-13.14-8.1c-3.26 5.43-18.28 23.12-17.09 29.14 1.48 8 22.72 12.15 29 11.46 13.83-1.48 20.85-8.2 26.77-20.65 14-29.64 10.87-35.07-22.53-37.64-1.02-.2-15.64-3.16-23.65-2.07zM1024.65 232.42h2.47V228a27.17 27.17 0 0 0-1.38 3c-.1.13-1.09 1.32-1.09 1.42zM1027.57 246.25a48.62 48.62 0 0 0 4 9.29v-9.29h-4z" fill="#53b8ce"/><path d="M1036.86 263.32l-.1.2.1.1 1 .69a9.31 9.31 0 0 1-1-.99zM1027.57 246.25a37.54 37.54 0 0 0 4 10v-.69a43.07 43.07 0 0 1-4-9.31z" fill="#53b8ce"/><path d="M84.12 188.85a115.14 115.14 0 0 1-.4-28c.1-1 .2-1.88.3-2.87H60.76c-.59 2.27-1.28 4.54-2 6.82a77 77 0 0 0-.1 23.81v.2h25.46zM107.83 264.13a4.81 4.81 0 0 0 1.19.1 3.7 3.7 0 0 0 1.09-.1c5.53-.79 2.77-9.48-1.68-18.47l-5.83 9.09c.74 4.25.64 8.69 5.23 9.38zM81.7 232.42h.4v-30.63H62.34A81.59 81.59 0 0 0 71 220.36c1.71 2.57 7.54 8.01 10.7 12.06z" fill="#f05a57"/><path d="M60.76 158.12h-.5q-.89 3.41-1.48 6.82c.65-2.27 1.39-4.64 1.98-6.82zM71 220.36a79.68 79.68 0 0 1-8.69-18.57h-.4a77.17 77.17 0 0 0 15.21 26.48 29.84 29.84 0 0 0 4.45 4.15h.1c-3.13-4.05-8.96-9.49-10.67-12.06zM83.78 161a110.37 110.37 0 0 0 .4 28h.59v-.4a113.44 113.44 0 0 1-.99-27.6zM109.07 264.23a4.81 4.81 0 0 1-1.19-.1c-4.64-.69-4.45-5.14-5.24-9.39l-.2.3c.4 3.26.69 7 2 8.1.78.69 2.75 1.09 4.63 1.09zM110.16 264.13a4.83 4.83 0 0 0 3.36-1.28c2.67-3.46-.49-11.16-4.45-18.18l-.59 1c4.44 8.98 7.21 17.65 1.68 18.46z" fill="#f05a57"/><path d="M1007.71 246.25H984v-13.83h27.81c.4-2.27.59-4.54.79-6.82v-.2c0-.4.1-1.19.1-1.19v-.3a14.6 14.6 0 0 0-1.68-4.25c-.1-.1-.1-.2-.2-.3s-.2-.3-.3-.4a27.79 27.79 0 0 0-4.74-5.93 1.36 1.36 0 0 0-.4-.3c-.2-.1-.3-.3-.49-.4-7.21-6-17.68-8.79-27-10.27-3.85-.59-7.61-1-11.16-1.28-4.05-.4-10.87-1.88-14 .59a.38.38 0 0 0-.2.2l-.1.1a5.57 5.57 0 0 0-1.38 4.05v.1a3.7 3.7 0 0 0 .1 1 2.32 2.32 0 0 0 .2.79c.69 2.87 2.87 2.17 4.15 4.74a23.36 23.36 0 0 1 2.47 7.71c.1.2-.89.49-.79.69 2.17 10 4.74 21.14 10.18 28.95a23.71 23.71 0 0 0 16.4 9.88 10.87 10.87 0 0 0 1.78.2 12.6 12.6 0 0 0 1.88.1c10.12.12 16.49-5.73 20.29-13.63z" fill="#53b8ce"/><path d="M967.21 249.61c3.46 5 8.5 8.79 16.4 9.88a24 24 0 0 1-16.4-9.88zM951.2 207.52c1 4.25 5.24 7.31 6.62 12.35a24.11 24.11 0 0 0-2.47-7.71c-1.28-2.47-3.46-1.77-4.15-4.64zM966.71 200.8c3.46.3 7.31.69 11.16 1.28-2.17-.3-4.25-.59-6.22-.79-4.45-.49-14.92-3.36-19 .1 3.1-2.56 10.01-.98 14.06-.59zM1004.75 212.36c.2.1.3.3.49.4a2.85 2.85 0 0 1-.49-.4zM987.26 259.78a12 12 0 0 1-1.88-.1 12.6 12.6 0 0 0 1.88.1z" fill="#53b8ce"/><path d="M365.84 168.1c-.1 0-.1.1-.2.1h-.1a.35.35 0 0 0-.2.1c-1.58 0-3.36-5.33-4.84-10.18h-2.57c.1 8.4 2 20.15 6.32 22.13a1.4 1.4 0 0 0 .59.2c1 .3 7.41-3.26 8.6-3.66.69-.4 1.38-.59 1.68-.79l2.67-.89a30.26 30.26 0 0 0 9.58-5.24c.3-.2.49-.49.79-.69l.1-.1a5.93 5.93 0 0 1 .79-.79c-2.27-2.47-8.6.89-14 3.56a44.26 44.26 0 0 1-5.83 2.57c-1.28.4-2.17.4-2.67-.3a4.11 4.11 0 0 1-.59-3.16 17.78 17.78 0 0 1 1.58-4.74 19 19 0 0 1-1.7 1.88zM445.07 159.7a10.78 10.78 0 0 1 1.09-.59c.49-.3 1.09-.69 1.48-1h-14.52v3.75c3.06 1.01 7.01.61 11.95-2.16z" fill="#f05a57"/><path d="M370.48 160.89c.1-.1.1-.3.2-.4a44.77 44.77 0 0 0-2.67 4.74.51.51 0 0 0 .2-.4c.69-1.29 1.43-2.66 2.27-3.94zM367.52 166.22c.2-.3.3-.69.49-1a13.83 13.83 0 0 1-2.17 2.87 19 19 0 0 0 1.68-1.87zM387.38 169.88a30.26 30.26 0 0 1-9.58 5.24 28.28 28.28 0 0 0 9.58-5.24zM369.2 174.33a34.09 34.09 0 0 0 5.83-2.57 27.74 27.74 0 0 1-5.83 2.57zM388.17 169.19a5.65 5.65 0 0 1-.79.69 4.94 4.94 0 0 0 .79-.69zM446.06 159.11c-.4.2-.69.4-1.09.59a10.77 10.77 0 0 0 1.09-.59z" fill="#f05a57"/><path d="M370.48 160.89c-.79 1.28-1.58 2.67-2.27 4 .69-1.23 1.43-2.62 2.27-4zM389.06 168.2a5.93 5.93 0 0 1-.79.79 3 3 0 0 0 .79-.79zM364.85 180.45c1 .3 5.83-2.27 8.6-3.66-1.19.5-7.61 3.96-8.6 3.66zM364.26 180.25c-4.35-2.07-6.22-13.73-6.32-22.13 0 8.38 1.82 20.16 6.32 22.13zM372.26 158.12H372c-.4.79-.79 1.58-1.28 2.37.45-.79 1.05-1.58 1.54-2.37zM446.06 159.11c.49-.3 1.09-.69 1.48-1a5.53 5.53 0 0 1-1.48 1zM366.53 174.13a4.11 4.11 0 0 1-.59-3.16 4.11 4.11 0 0 0 .59 3.16zM838.87 183.91a88.57 88.57 0 0 0 24.3-21 63.09 63.09 0 0 0-15 10 49.8 49.8 0 0 0-9.3 11zM804.34 194.87a2.88 2.88 0 0 0-.89-.2 3.66 3.66 0 0 0 .89.2z" fill="#f05a57"/><path d="M803.5 194.68c4.84-.89 4.84 1.09.89.2 4.05 1 8.79.3 13.53-1.19v-3.56a65.91 65.91 0 0 1-14.42 4.55z" fill="#f05a57"/><path d="M803.5 194.68a2.88 2.88 0 0 0 .89.2c3.9.88 3.9-1.09-.89-.2zM817.93 190.21a71.32 71.32 0 0 1-14.42 4.45 71.32 71.32 0 0 0 14.42-4.45zM903.14 279a58.21 58.21 0 0 0 23.22-7c-1 .3-1.88.59-2.77.79l-1 .3c-.59.2-1.09.3-1.68.49-5.47 1.81-11.6 3.69-17.77 5.42z" fill="#f05a57"/><path d="M926.4 272c-.89.3-1.88.59-2.77.79a24.22 24.22 0 0 1 2.77-.79zM921.07 273.61c.49-.2 1.09-.3 1.68-.49-1.38.4-2.67.79-4 1.19-5 1.48-10.47 3.16-15.91 4.74h.49c5.98-1.78 12.11-3.66 17.74-5.44zM983.9 199.72v-5.93a51.37 51.37 0 0 0-12.65 4.05c-.59.3-1.28.69-1.88 1a67.06 67.06 0 0 0 14.53.88z" fill="#f05a57"/><path d="M983.9 193.59a51.37 51.37 0 0 0-12.65 4.15 55.87 55.87 0 0 1 12.65-4.05v-.1zM1026.58 187a12.9 12.9 0 0 0-6.22-.4 75.65 75.65 0 0 0-10.87 2.37h20.1a7.8 7.8 0 0 0-3.01-1.97zM969.48 198.83a61.36 61.36 0 0 0 14.52.89 66.34 66.34 0 0 1-14.52-.89zM1041.6 200.9a32 32 0 0 0 3.56 11.86c5.33-2.47.79-7.61-3.56-11.86zM1016.11 218c-2.17.69-3.85 2.07-4.05 4.35-.4-.89.1.2.49 1.68a2 2 0 0 0 .59.3q.59.15 1.48.3c3.46.59 10 .59 12.45-1.19v-4.05c-2.07-2.19-7.36-2.78-10.96-1.39z" fill="#f05a57"/><path d="M993.48 161.78a1.16 1.16 0 0 0 .69-1v-.1a1.52 1.52 0 0 0-.69-.69h-.2a.1.1 0 0 0-.1.1H993a1.52 1.52 0 0 0-.49 1 1 1 0 0 0 .97.69zM993.19 160a.1.1 0 0 0 .1-.1z" fill="#61aa9d"/><path d="M992.6 161a3 3 0 0 1 .49-1 1.85 1.85 0 0 0-.49 1z" fill="#61aa9d"/><path d="M1027.47 246.25h-19.76c-3.75 7.9-10.08 13.73-20.35 13.53a12 12 0 0 1-1.88-.1c-.59-.1-1.19-.1-1.78-.2-7.8-1.19-12.94-4.84-16.4-9.88-5.33-7.31-7.51-17.39-8.89-26.77-.2-1.09-.3-2-.49-3-1.38-5-5.63-8.1-6.62-12.35-.1-.2-.1-.49-.2-.79a3 3 0 0 1-.1-1v-.1a5 5 0 0 1 1.38-4.05l.1-.1a.38.38 0 0 0 .2-.2c4.05-3.46 14.62-.59 19-.1 2 .2 4.05.49 6.22.79 9.68 1.48 19.86 4.25 27 10.27.2.1.3.3.49.4a1.36 1.36 0 0 0 .4.3 23.21 23.21 0 0 1 4.74 5.93c.1.1.2.3.3.4s.1.2.2.3a21.77 21.77 0 0 1 1.19 2.67c.1-2.27 1.78-3.85 4.05-4.54 3.66-1.28 8.89-.79 11.07 1.28v-17.35H984v-2.17a67.06 67.06 0 0 1-14.52-.89 11.26 11.26 0 0 1 1.88-1 51.37 51.37 0 0 1 12.64-4.14v-4.74h26.08a61 61 0 0 1 10.47-2.37 12.9 12.9 0 0 1 6.22.4 9.52 9.52 0 0 1 3.06 2h.1v-30.56h-84.66v119.25h86.45v-21.14a34.16 34.16 0 0 1-4.25-9.98z" fill="#61aa9d"/><path d="M1124.39 214.24c-.1.1-.3.1-.4.2-.3.1-.49.2-.79.3-5.43 2.17-12.45 2.27-16.1 7-2.07 2.67-2.67 3.16-1 6.72 1.28 1.78 5.63 1.88 10.67.49s7.9-5.63 12.74-7.8a31.43 31.43 0 0 0-5.12-6.91z" fill="#f05a57"/><path d="M1115.1 227.48c4.94-1.88 9.68-4.05 14.42-6.22v-.1c-4.84 2.17-9.58 4.44-14.42 6.32zM1124.39 214.24c-.1.1-.3.1-.4.2a1.45 1.45 0 0 1 .4-.2zM1090.3 156.94h-1.43c-.79 1.28-1.68 2.47-2.47 3.75-2.87 4.05-12.94 16.3-15 18.77-.79.89-1.28 1.48-1.28 1.48-4.15 4.05-18.18 12.65-10 14.92a8.35 8.35 0 0 0 5.14-.69c8.3-4.64 15.41-18.77 19.86-24.7 2.57-3.46 6.32-8.2 9.58-13.34a35 35 0 0 0-4.4-.19z" fill="#f05a57"/><path d="M136.93 158.12H90.3l37.7 57.11-17.05 26.67a60.69 60.69 0 0 1 3.75 9.1c.1.49.3 1 .4 1.48.1.2.1.49.2.69.69 2.47 1 7.51 3.26 10.08a6.21 6.21 0 0 0 5.24.89c5-1.19 6.62-12.65 8.3-17 6.22-16 12.35-32.11 18.38-48.11 1-2.67 2.17-5.83 3.26-9.39z" fill="#53b8ce"/><path d="M114.6 251a60.69 60.69 0 0 0-3.75-9.09v.09a65.2 65.2 0 0 1 4.15 10.57 5.23 5.23 0 0 0-.4-1.57zM123.64 264c-2.17.49-3.75.2-4.84-.69 1.38 1.58 3.36 2.17 6.22.49 3.85-2.17 5.43-12.84 7-16.8-1.71 4.46-3.29 15.85-8.38 17zM308.24 218.19c-5.83.69-9.29 3.46-11.56 7.31-2 3.56-3 8.1-3.85 13a41.75 41.75 0 0 0 16.89-7.8 33.52 33.52 0 0 0 9.28-11.42c-2.27-.4-4.54-.79-6.92-1.09 1.4.2-2.16.1-3.84 0zM311.35 218.09c.3 0 .59.1.89.1a2.19 2.19 0 0 0-.89-.1zM332.84 222.34v10.18a13.71 13.71 0 0 1 1.68-.3c3.85-.89 11.16 5 8.2 4.74h-.3a2.24 2.24 0 0 0-.4-.1c.89.2-2.77-.49 0 0-1.28-.2-7-1.28-9.09-2.47v8c6.82 1.09 18.87 2.67 25.69 5.63a3 3 0 0 1 .79.4h.1c2.67 1.28 4.35 2.87 4.15 4.84.4-4-.49 8.69 0 0a24.23 24.23 0 0 1-.2 2.67 125.82 125.82 0 0 1-4.25 21.54h11c2.57-9.39 7.31-21.24 7-31.12h-5.43V233.5a18.67 18.67 0 0 0-5.73-3.36c-1.19-.49-2.37-.89-3.66-1.38-6.72-2-14.23-3-20.85-4.35-2.87-.69-5.74-1.41-8.7-2.07z" fill="#53b8ce"/><path d="M308.24 218.19c1-.1 2.07-.2 3.16-.2-4.64.1-4.54.2-3.16.2zM341.54 224.41c6.62 1.38 14 2.37 20.85 4.35a201.68 201.68 0 0 0-29.54-7.61v1.19c2.95.66 5.82 1.38 8.69 2.07zM312.29 218.19c2.27.3 4.54.59 6.92 1.09a.35.35 0 0 1 .1-.2c-2.67-.4-5.33-.69-7.9-1a2.19 2.19 0 0 1 .88.11z" fill="#53b8ce"/><path d="M311.35 218.09c-1.09 0-2.17.1-3.16.2h.1a14.49 14.49 0 0 1 3.06-.2z" fill="#53b8ce"/><path d="M312.29 218.19c-.3 0-.59-.1-.89-.1a28.17 28.17 0 0 0-3.06.2c1.58 0 5.14.1 3.95-.1zM296.78 225.5c-2.07 3.56-3.16 8.2-4 13.14h.22c.82-5.04 1.71-9.58 3.78-13.14z" fill="#53b8ce"/><path d="M153.92 239.33l.69 1.38c1.48-1.48 2.87-2.87 4.45-4.25l.1-.1.4-.4 4.74-4.45.59-.59.4-.4 1.58-1.58a76 76 0 0 0 20-38.53A85.17 85.17 0 0 0 187 158h-16.3l-11.07 21c-1.88 6.82-4.15 13.53-6.62 20.15-.49 1.28-1 2.67-1.38 4-1.88 5.24-4 10.47-6 15.61-3.85 9.88-7.9 19.66-11.86 29.54-.2.4-.3.79-.59 1.38 0 .1-.1.2-.1.3-1.38 3.75-4.94 10.27-1.78 13.34a8.14 8.14 0 0 0 3.06 1.28 10.92 10.92 0 0 0 7.31-2.87 1.36 1.36 0 0 0 .3-.4 14.35 14.35 0 0 0 1.68-3.85 29.64 29.64 0 0 1 2.07-6.13 9 9 0 0 1 .79-1.28c.1-.1.1-.2.2-.3a3.47 3.47 0 0 0 .49-.79 49 49 0 0 1 4.54-5.43z" fill="#f05a57"/><path d="M143.65 257.61a14.35 14.35 0 0 1-1.68 3.85 9.28 9.28 0 0 0 1.68-3.85zM145.62 218.86c-4.15 10.27-8.5 20.55-12.35 30.92.2-.49.4-1 .59-1.38 3.86-9.86 7.81-19.66 11.76-29.54zM159.55 236l-.4.4zM164.79 231l-.59.59a1.68 1.68 0 0 1 .59-.59zM134.36 264.72c2.77.59 5.73-1.28 7.31-2.87-1.48 1.29-4.54 3.07-7.31 2.87zM159.65 179.17l-.1.2c-1.88 6.72-4.15 13.34-6.42 19.86 2.37-6.53 4.65-13.23 6.52-20.06zM159 236.57c-1.48 1.38-3 2.77-4.45 4.25 1.45-1.49 2.93-2.87 4.45-4.25zM186.72 190.53a76 76 0 0 1-20 38.53c-.49.49-1 1.09-1.58 1.58 1.09-1.09 2.07-2.07 3.06-3.26a76.07 76.07 0 0 0 19-39.42 84.06 84.06 0 0 0-.2-29.84h-.15a85.18 85.18 0 0 1-.13 32.41zM147.2 249.21a3.47 3.47 0 0 0-.49.79 3.47 3.47 0 0 1 .49-.79zM146.51 250.3a14.62 14.62 0 0 0-.79 1.28 5.6 5.6 0 0 1 .79-1.28zM188.6 255.14c.3 0-2.07.3 0 0zM187.86 255.42a1.83 1.83 0 0 1 .69-.2c-.94.12-.94.2-.69.2zM184.9 248.62a6.25 6.25 0 0 0-3-.4 6.16 6.16 0 0 1 3 .4z" fill="#f05a57"/><path d="M210.93 263.93l-3.16-4.93c-6.22-3.75-17.39-8.79-22.92-10.37a6.25 6.25 0 0 0-3-.4c-2.17.89-2.37 13-2.17 21.83.1 3 .3 5.63.4 7.31h.79c2.27-9.09 3-19.86 6.42-21.64-.3 0 0 1.68 1.09 3.75 2.17 4.35 7.61 11.36 13.24 17.88h5.73c-1.78-1.48-3.26-2.77-4.05-3.56l-.2-.2c-2.47-2.87-7.21-6.72-10.67-10.67a14.82 14.82 0 0 1-3.46-5.73c3.58-2.2 17.31 7.92 21.96 6.73z" fill="#f05a57"/><path d="M192.75 263a15.58 15.58 0 0 1-3.46-5.73 13.71 13.71 0 0 0 3.46 5.73zM203.52 273.81a.38.38 0 0 0-.2-.2.38.38 0 0 0 .2.2z" fill="#f05a57"/><path d="M140.52 266.7c-5.48-2.47-18.14.1-21.92.2h-.4c-2.79 0-11.16-1.58-14.75.59-1.2.89-1.79 3.16-1.3 5 .9 4.15 8.17 4.35 14.95 3.85 4.78-.4 9.47-1.09 11.66-.69-5.28-.89 4.09-.79 0 0 1.59-.3 4.68-.3 7.67-.69z" fill="#53b8ce"/><path d="M128.43 275.79c4-.79-5.24-.89 0 0zM101.91 272.53a3.81 3.81 0 0 1 1.28-4.05c-1.68 1-2.37 2.67-1 5.24 1.78 3.36 8.3 3.26 14.52 2.77-6.65.38-13.81.29-14.8-3.96z" fill="#53b8ce"/><path d="M340.74 168.2c.1 0 .1-.1 0 0 .1-.1.1 0 0 0zM340.84 168.1c0-.1-.2 0-.2 0l-.1.3a.74.74 0 0 1 .3-.3zM1080.82 246.64a41.36 41.36 0 0 1-4.15-1c-3 2.77-8.79 7.9-9.39 11.07a1.63 1.63 0 0 0 0 .69c.2 3.77 7.72-4.04 13.54-10.76zM1055.53 261.07c-.2 0-.3-.1-.49-.1a1.06 1.06 0 1 0 .49.1zM1067.09 242.3l-.1.1a68.44 68.44 0 0 0-7.71 9.48c-3.06 4.45-5 8.4-3.85 9a.59.59 0 0 1 .4.1c.89-.1 2.07-.89 3.56-2.27a71.21 71.21 0 0 0 9.58-12.45c.59-.89 1.09-1.78 1.58-2.57a28 28 0 0 1-3.46-1.39z" fill="#82c1b5"/><path d="M1055.73 261.07c1.09 0 2.27-1 3.46-2.27a8.35 8.35 0 0 1-3.46 2.27zM1055.28 261c.1 0 .1.1.2.1h.2a2.24 2.24 0 0 0-.4-.1z" fill="#82c1b5"/><path d="M1055 261a4.28 4.28 0 0 0 .49.1.2.2 0 0 1-.2-.1h-.29z" fill="#82c1b5"/><path d="M332.84 277.37h26.28c1.88-7.11 3.66-14.33 4.25-21.54.1-.89.1-1.78.2-2.67.2-1.88-1.48-3.56-4.15-4.84h-.1a3 3 0 0 1-.79-.4c-7.21-3.06-20.15-4.45-25.69-5.43v34.87z" fill="#f05a57"/><path d="M358.53 247.93c-6.82-3-18.87-4.54-25.69-5.63v.2c5.53.98 18.48 2.37 25.69 5.43zM363.57 253.16c-.4 8.69.49-4 0 0z" fill="#f05a57"/><path d="M363.57 253.16a24.23 24.23 0 0 1-.2 2.67 24.23 24.23 0 0 0 .2-2.67zM359.32 248.22h.1c0 .1-.1.1-.1 0z" fill="#f05a57"/><path d="M332.84 234c2.27 1.28 8.3 2.67 9.09 2.87.1 0 .3.1.4.1h.3c2.67.2-4.64-5.14-8.2-4.74a12.05 12.05 0 0 0-1.68.49V234h.1z" fill="#a5d6cd"/><path d="M342.62 237c3 .3-4.25-5.63-8.2-4.74 3.58-.44 10.87 4.9 8.2 4.74zM341.93 236.86c-2.77-.49.89.2 0 0zM332.84 234v.3c2.07 1.19 7.9 2.27 9.09 2.47-.93-.12-6.87-1.49-9.09-2.77zM342.42 237c0-.1-.1-.1 0 0-.09-.14 0-.14 0 0z" fill="#a5d6cd"/><g opacity=".5" fill="#fff"><path d="M617.3 81.62l-.5.5a1.42 1.42 0 0 1-.6.2 1.22 1.22 0 0 1-.9-.4c-.3-.3-.7-.6-1.2-1a14.51 14.51 0 0 0-1.8-1 6.77 6.77 0 0 0-2.6-.4 8.81 8.81 0 0 0-2.9.5 6 6 0 0 0-2.1 1.4 5.33 5.33 0 0 0-1.3 2 7 7 0 0 0-.5 2.5 3.8 3.8 0 0 0 .6 2.2 4.63 4.63 0 0 0 1.6 1.5 11.29 11.29 0 0 0 2.2 1.1c.8.3 1.7.7 2.6 1s1.7.7 2.6 1.1a8.56 8.56 0 0 1 2.2 1.5 6.91 6.91 0 0 1 1.6 2.2 7.45 7.45 0 0 1 .6 3.1 12 12 0 0 1-7.4 11.5 12.38 12.38 0 0 1-5.2 1 12 12 0 0 1-5.7-1.3 11.52 11.52 0 0 1-4.1-3.4l1.7-2.2a2.36 2.36 0 0 1 .5-.5 1.42 1.42 0 0 1 .6-.2 1.37 1.37 0 0 1 1 .6 8.7 8.7 0 0 0 1.4 1.2 8.54 8.54 0 0 0 5.2 1.8 10.07 10.07 0 0 0 3.1-.5 9.74 9.74 0 0 0 2.4-1.5 7.64 7.64 0 0 0 1.5-2.3 9.43 9.43 0 0 0 .5-3 4.14 4.14 0 0 0-.6-2.3 4.63 4.63 0 0 0-1.6-1.5 11.29 11.29 0 0 0-2.2-1.1c-.8-.3-1.7-.6-2.5-.9s-1.7-.7-2.6-1.1a8.56 8.56 0 0 1-2.2-1.5 7.85 7.85 0 0 1-1.6-2.3 8.11 8.11 0 0 1-.6-3.3 11.12 11.12 0 0 1 6.7-10.3 12.25 12.25 0 0 1 4.9-.9 11 11 0 0 1 4.9 1 9.44 9.44 0 0 1 3.6 2.9zM620.6 111.84L625 75h4.5l-2.1 17.1a14.57 14.57 0 0 1 4.4-4.5 9.32 9.32 0 0 1 4.9-1.5 5.22 5.22 0 0 1 4.4 1.9 8.78 8.78 0 0 1 1.6 5.5v1c0 .4-.1.7-.1 1.1l-1.9 16.1h-4.55l1.9-16.1c0-.3.1-.7.1-1v-.9a5.22 5.22 0 0 0-.8-3.1 2.72 2.72 0 0 0-2.4-1 4.93 4.93 0 0 0-2.3.6 9.12 9.12 0 0 0-2.3 1.7 14.85 14.85 0 0 0-2.1 2.7 28.48 28.48 0 0 0-1.7 3.5l-1.6 13.4h-4.4v.3zM665.5 111.84h-2.35a1.36 1.36 0 0 1-1.2-.5 2 2 0 0 1-.3-1.1l.4-5.1a20.75 20.75 0 0 1-1.9 2.9 11.45 11.45 0 0 1-2.2 2.2 10 10 0 0 1-2.4 1.4 8 8 0 0 1-2.6.5 6 6 0 0 1-2.7-.6 6.84 6.84 0 0 1-2.1-1.7 8 8 0 0 1-1.3-2.8 14.58 14.58 0 0 1-.5-3.8 16.12 16.12 0 0 1 .6-4.4 17.6 17.6 0 0 1 1.6-4 20.45 20.45 0 0 1 2.5-3.5 16.92 16.92 0 0 1 3.2-2.8 14.65 14.65 0 0 1 3.8-1.8 15.4 15.4 0 0 1 4.3-.6 17.33 17.33 0 0 1 3.2.3 17.1 17.1 0 0 1 3 .9zm-10.9-3.3a3.84 3.84 0 0 0 2.4-.8 8.65 8.65 0 0 0 2.15-2.12 16 16 0 0 0 2-3.2 37 37 0 0 0 1.6-4l1.1-8.6a1.67 1.67 0 0 0-1.1-.4h-1.1a9.29 9.29 0 0 0-2.9.5 9.39 9.39 0 0 0-2.6 1.4 11 11 0 0 0-2.2 2.1 12.35 12.35 0 0 0-1.7 2.7 16.29 16.29 0 0 0-1.1 3.1 12.67 12.67 0 0 0-.4 3.4c0 3.92 1.25 5.92 3.85 5.92zM672.1 111.84l3.1-25.3h2.2a1.8 1.8 0 0 1 1.1.3 1.16 1.16 0 0 1 .4 1V89l-.4 4.6a19.47 19.47 0 0 1 3.6-5.4 6 6 0 0 1 4.2-1.9 5.37 5.37 0 0 1 2.1.5l-.8 4.3a6.35 6.35 0 0 0-2.3-.5A5.36 5.36 0 0 0 681 93a20.27 20.27 0 0 0-3.2 7.2l-1.4 11.8h-4.3v-.2zM709 91.94a6 6 0 0 1-.7 3 6.63 6.63 0 0 1-2.5 2.5 18.7 18.7 0 0 1-5 1.9 57.3 57.3 0 0 1-8.1 1.3v1a7.76 7.76 0 0 0 1.5 5.1 5.31 5.31 0 0 0 4.4 1.8 12.48 12.48 0 0 0 2.1-.2c.6-.2 1.2-.4 1.7-.6a5.67 5.67 0 0 0 1.3-.8c.4-.3.7-.6 1-.8l.9-.6a1.2 1.2 0 0 1 .8-.2.91.91 0 0 1 .8.4l1.1 1.4a26.14 26.14 0 0 1-2.5 2.3 21.28 21.28 0 0 1-2.5 1.6 12.24 12.24 0 0 1-2.7.9 13.86 13.86 0 0 1-3 .3 9.69 9.69 0 0 1-3.9-.7 8.64 8.64 0 0 1-2.9-2.1 11.3 11.3 0 0 1-1.9-3.2 14.21 14.21 0 0 1-.6-4.2 17.22 17.22 0 0 1 .4-3.9 22.85 22.85 0 0 1 1.2-3.7 16.89 16.89 0 0 1 1.9-3.2 12.81 12.81 0 0 1 2.6-2.6 14.09 14.09 0 0 1 3.2-1.7 11.64 11.64 0 0 1 3.8-.6 10.42 10.42 0 0 1 3.3.5 7.44 7.44 0 0 1 2.3 1.4 5.86 5.86 0 0 1 1.3 1.9 5.12 5.12 0 0 1 .7 1.8zm-7.7-2.5a7.17 7.17 0 0 0-2.9.6 6.9 6.9 0 0 0-2.4 1.8 10.6 10.6 0 0 0-1.8 2.7 11.65 11.65 0 0 0-1.1 3.3 47.8 47.8 0 0 0 6.2-1.1 14.56 14.56 0 0 0 3.6-1.3 3.9 3.9 0 0 0 1.6-1.5 4.71 4.71 0 0 0 .4-1.7 2.92 2.92 0 0 0-.2-.9 2.36 2.36 0 0 0-.6-.9 4.13 4.13 0 0 0-1.1-.7 4.31 4.31 0 0 0-1.7-.3z"/></g><g clip-path="url(#a)" opacity=".5"><g clip-path="url(#a)" opacity=".5"><path fill="#fff" d="M720.7 99.54h408.1v1H720.7z"/></g><g clip-path="url(#b)"><g clip-path="url(#c)" opacity=".5"><path fill="#fff" d="M506.2 53.84h82v82h-82z"/></g></g><g opacity=".5" fill="#fff"><path d="M575.15 83.62a43.53 43.53 0 0 0-83.08 26c.27.86.57 1.71.89 2.54l.06.16v.12a2.72 2.72 0 0 0 5.09-1.9 2.68 2.68 0 0 0-.1-.27q-.43-1.12-.79-2.27a38.08 38.08 0 1 1 9.62 15.76l-.19-.14a2.72 2.72 0 0 0-3.63 4 43.53 43.53 0 0 0 72.13-44z"/><path d="M556.55 94.19l-35.4-19a2.72 2.72 0 0 0-3.58 1.16l-.06.1v.12l-.07.2v.06a.44.44 0 0 1 0 .2v38.77a2.72 2.72 0 0 0 3.9 2.5l35.26-19.06a2.81 2.81 0 0 0-.05-5.05zm-33.84-12l27 14.55-27 14.55V82.14z"/></g></g><g opacity=".5" fill="#fff"><path d="M573.11 73.46a42 42 0 0 0-80.22 25.12c.26.83.55 1.65.86 2.45l.06.15v.11a2.63 2.63 0 0 0 4.91-1.84 2.59 2.59 0 0 0-.1-.26q-.41-1.08-.76-2.2a36.77 36.77 0 1 1 9.28 15.22L507 112a2.62 2.62 0 0 0-3.51 3.91 42 42 0 0 0 69.62-42.45z"/><path d="M555.16 83.66L521 65.26a2.62 2.62 0 0 0-3.46 1.12l-.05.1v.11l-.07.19V104.43a2.62 2.62 0 0 0 3.77 2.42l34.15-18.4a2.71 2.71 0 0 0-.18-4.79zM522.49 72l26.08 14.05-26.08 14.05V72z"/></g></svg>