<svg viewBox="0 0 150 100" style="background-color:#ffffff00" xmlns="http://www.w3.org/2000/svg" width="150" height="100"><path d="M134.791 34.938a3.773 3.773 0 0 0-3.778-3.769 3.773 3.773 0 0 0-3.779 3.768v56.464H21.557V8.56h100.44l-47.56 47.434-35.119-35.025a3.818 3.818 0 0 0-5.39 0 3.794 3.794 0 0 0 0 5.377l37.736 37.636c.106.105.216.2.331.29 1.48 1.227 3.643 1.183 4.987-.158l56.339-56.19a3.762 3.762 0 0 0-1.439-6.84 3.76 3.76 0 0 0-1.202-.06H17.87l-.046.002-.046-.002A3.773 3.773 0 0 0 14 4.79v90.44a3.773 3.773 0 0 0 4.443 3.707h111.905c.216.038.437.062.665.062.42 0 .822-.071 1.2-.198A3.768 3.768 0 0 0 135 95.17c0-.43-.076-.84-.209-1.226V34.938z" fill="#fff"/></svg>