<svg viewBox="0 0 300 500" style="background-color:#ffffff00" xmlns="http://www.w3.org/2000/svg" width="300" height="500"><path d="M149.5 7C66.382 7-1 74.849-1 158.546c0 5.111.26 10.16.752 15.141 0 .02-.003.037-.003.056 0 1.146.138 2.259.378 3.332 1.516 6.764 7.532 11.821 14.736 11.821 8.348 0 15.116-6.784 15.116-15.153 0-.368-.03-.73-.056-1.091-.051-.442-.108-.883-.155-1.326-.44-4.2-.671-8.462-.671-12.78 0-66.96 53.907-121.24 120.403-121.24 66.496 0 120.403 54.28 120.403 121.24 0 15.683-3.013 31.327-8.911 45.845a121.669 121.669 0 0 1-24.534 37.986c-11.133 11.7-24.505 19.83-38.668 27.234-18.957 9.91-35.555 23.76-48.724 40.477-20.364 25.85-32.531 58.544-32.531 94.104 0 9.1.831 17.998 2.36 26.655.71 7.704 7.141 13.737 14.977 13.737 7.65 0 13.953-5.754 14.909-13.196.082-.642.14-1.292.14-1.957 0-.968-.1-1.912-.272-2.827l.054-.007a122.34 122.34 0 0 1-2.072-22.405c0-15.67 3.009-31.299 8.896-45.806a121.684 121.684 0 0 1 24.493-37.965 121.4 121.4 0 0 1 16.977-14.83c7.579-5.466 15.972-9.283 24.127-13.735a150.752 150.752 0 0 0 22.018-14.672c9-7.212 17.178-15.46 24.326-24.533C287.833 226.8 300 194.106 300 158.546 300 74.85 232.618 7 149.5 7zM132.77 461.694c-8.31 0-15.048 6.784-15.048 15.153 0 8.368 6.737 15.153 15.048 15.153 8.312 0 15.049-6.785 15.049-15.153 0-8.369-6.737-15.153-15.049-15.153z" fill="#fff"/></svg>