<svg width="153" height="81" viewBox="0 0 153 81" xmlns="http://www.w3.org/2000/svg"><title>Directory</title><g fill="none" fill-rule="evenodd"><path fill="#7F6284" d="M5.657 29l5.657 5.657-5.657 5.657L0 34.657zm18-12l5.657 5.657-5.657 5.657L18 22.657zm-15-17l5.657 5.657-5.657 5.657L3 5.657z"/><path d="M111 35h38.008A4 4 0 0 1 153 39.003v55.994A4.002 4.002 0 0 1 149.008 99H22.992A4 4 0 0 1 19 94.997V39.003A4.002 4.002 0 0 1 22.992 35H62V24.997A7.001 7.001 0 0 1 68.994 18h35.012c3.862 0 6.994 3.14 6.994 6.997V35zm-7 0V25c0-.555-.452-1-1.01-1H70.01A1 1 0 0 0 69 25v10h35z" fill="#FFF"/><path d="M152.99 40.012s.015 21.632 0 40.995c-.017 19.364.036 13.586 0 18.85-.142 19.94-.18 7.932-.18 7.932-.017-2.198-1.823-3.98-4.022-3.98H22.772c-2.205 0-2.368-.772-.385-1.714L152.99 40.012z" fill="#F2F1F1"/></g></svg>