<svg width="125" height="46" viewBox="0 0 125 46" xmlns="http://www.w3.org/2000/svg" xmlns:xlink="http://www.w3.org/1999/xlink"><title>Link + Image</title><defs><path id="a" d="M0 0h125v46H0z"/></defs><g fill="none" fill-rule="evenodd"><mask id="b" fill="#fff"><use xlink:href="#a"/></mask><use fill="#FCBA42" xlink:href="#a"/><path fill="#C33D1C" mask="url(#b)" transform="rotate(45 33.328 22.828)" d="M31.328 20.828h4v4h-4z"/><path fill="#C33D1C" mask="url(#b)" transform="rotate(45 42.328 16.828)" d="M40.328 14.828h4v4h-4z"/><path fill="#C33D1C" mask="url(#b)" transform="rotate(45 34.828 8.328)" d="M32.828 6.328h4v4h-4z"/><path d="M86 23h18.995c1.107 0 2.005.89 2.005 2.002v27.996A2.003 2.003 0 0 1 104.995 55h-62.99A1.999 1.999 0 0 1 40 52.998V25.002c0-1.106.896-2.002 2.005-2.002H61.5v-5.001a3.5 3.5 0 0 1 3.497-3.499h17.506A3.492 3.492 0 0 1 86 17.999V23zm-3.5 0v-5c0-.27-.226-.5-.505-.5h-16.49A.5.5 0 0 0 65 18v5h17.5z" fill="#FFF" mask="url(#b)"/><path d="M107.116 25.5l-.212 29.91a2.017 2.017 0 0 1-2.02 1.995H41.896c-1.107 0-1.203-.38-.207-.853L107.116 25.5z" fill="#F2F1F1" mask="url(#b)"/></g></svg>