<svg width="125" height="46" viewBox="0 0 125 46" xmlns="http://www.w3.org/2000/svg" xmlns:xlink="http://www.w3.org/1999/xlink"><title>Group 6</title><defs><path id="a" d="M0 0h125v46H0z"/></defs><g fill="none" fill-rule="evenodd"><mask id="b" fill="#fff"><use xlink:href="#a"/></mask><use fill="#FCBA42" xlink:href="#a"/><path fill="#C33D1C" mask="url(#b)" transform="rotate(45 20.328 22.828)" d="M18.328 20.828h4v4h-4z"/><path fill="#C33D1C" mask="url(#b)" transform="rotate(45 27.828 7.828)" d="M25.828 5.828h4v4h-4z"/><path fill="#C33D1C" mask="url(#b)" transform="rotate(45 78.328 11.828)" d="M76.328 9.828h4v4h-4z"/><rect fill="#FFF" mask="url(#b)" x="29.5" y="14.5" width="46" height="52" rx="2"/><path fill="#CDD2D8" mask="url(#b)" d="M35.5 19.5H70V23H35.5zM35.5 25.5h4V29h-4zM35.5 31.5h4V35h-4zM42 25.5h21V29H42zM42 31.5h26V35H42zM35.5 37.5H63V41H35.5zM35.5 43.5H70V47H35.5z"/><path d="M74.173 16c.733-.828 1.327-.597 1.327.507v47.986a2.006 2.006 0 0 1-2.006 2.007H31.506c-1.108 0-1.408-.676-.679-1.5l43.346-49z" fill="#F2F1F1" style="mix-blend-mode:multiply" mask="url(#b)"/></g></svg>