<svg width="128" height="82" viewBox="0 0 128 82" xmlns="http://www.w3.org/2000/svg"><title>Document</title><g transform="translate(-264 -9)" fill="none" fill-rule="evenodd"><path fill="#7F6284" d="M269.657 39l5.657 5.657-5.657 5.657L264 44.657zm15-30l5.657 5.657-5.657 5.657L279 14.657zm101 8l5.657 5.657-5.657 5.657L380 22.657z"/><rect fill="#FFF" x="288" y="28" width="92" height="104" rx="4"/><path fill="#CDD2D8" d="M300 38h69v7h-69zm0 12h8v7h-8zm0 12h8v7h-8zm13-12h42v7h-42zm0 12h52v7h-52zm-13 12h55v7h-55zm0 12h69v7h-69z"/><path d="M377.346 31c1.466-1.657 2.654-1.217 2.654.997v96.006a4.001 4.001 0 0 1-3.997 3.997h-84.006c-2.207 0-2.817-1.334-1.343-3l86.692-98z" fill="#F2F1F1" style="mix-blend-mode:multiply"/></g></svg>