<svg width="151" height="73" viewBox="0 0 151 73" xmlns="http://www.w3.org/2000/svg"><title>Media</title><g fill="none" fill-rule="evenodd"><path fill="#323E56" d="M5.657 23l5.657 5.657-5.657 5.657L0 28.657zm102 32l5.657 5.657-5.657 5.657L102 60.657zm-77-53l5.657 5.657-5.657 5.657L25 7.657z"/><g transform="translate(21 26)"><rect fill="#FFF" width="66" height="47" rx="4"/><path d="M42.525 25.805c1.803-1.273 1.805-3.334 0-4.608L26.265 9.725C24.462 8.453 23 9.22 23 11.43v24.143c0 2.213 1.46 2.977 3.265 1.704l16.26-11.472z" fill="#CDD2D8"/><path d="M66 4.397v38.595A3.999 3.999 0 0 1 62 47H6.426L66 4.397z" fill="#F2F1F1" style="mix-blend-mode:multiply"/></g><g transform="translate(94)"><rect fill="#FFF" width="57" height="41" rx="4"/><path d="M24.235 12.56c-.873-1.23-2.293-1.226-3.163 0L7.422 31.772C6.548 33.003 7.077 34 8.592 34h28.123c1.52 0 2.04-1.002 1.17-2.227m3.728-14.911c-.894-1.196-2.25-1.142-3.032.128L34 24.427 39.01 31h10.394c1.534 0 2.05-.97 1.16-2.165" fill="#CDD2D8"/><circle fill="#CDD2D8" cx="32.94" cy="8.06" r="2.683"/><path d="M57 3v34.005A4.001 4.001 0 0 1 52.995 41H4L57 3z" fill="#F2F1F1" style="mix-blend-mode:multiply"/></g></g></svg>