<svg width="125" height="46" viewBox="0 0 125 46" xmlns="http://www.w3.org/2000/svg" xmlns:xlink="http://www.w3.org/1999/xlink"><title>Group 5</title><defs><path id="a" d="M0 0h125v46H0z"/></defs><g fill="none" fill-rule="evenodd"><mask id="b" fill="#fff"><use xlink:href="#a"/></mask><use fill="#FCBA42" xlink:href="#a"/><path fill="#C33D1C" mask="url(#b)" transform="rotate(45 21.328 18.828)" d="M19.328 16.828h4v4h-4z"/><path fill="#C33D1C" mask="url(#b)" transform="rotate(45 72.328 34.828)" d="M70.328 32.828h4v4h-4z"/><path fill="#C33D1C" mask="url(#b)" transform="rotate(45 33.828 8.328)" d="M31.828 6.328h4v4h-4z"/><g mask="url(#b)"><g transform="translate(29 17.5)"><rect fill="#FFF" width="33" height="23.5" rx="2"/><path d="M21.262 12.902c.902-.636.903-1.667 0-2.303l-8.13-5.736c-.901-.637-1.632-.265-1.632.852v12.071c0 1.107.73 1.49 1.633.852l8.13-5.736z" fill="#CDD2D8"/><path d="M33 2.198v19.298a2 2 0 0 1-2 2.004H3.213L33 2.198z" fill="#F2F1F1" style="mix-blend-mode:multiply"/></g></g><g mask="url(#b)"><g transform="translate(65.5 4.5)"><rect fill="#FFF" width="28.5" height="20.5" rx="2"/><path d="M12.118 6.28c-.437-.616-1.147-.613-1.582 0L3.71 15.886c-.437.615-.173 1.113.585 1.113h14.062c.76 0 1.02-.5.585-1.113M20.806 8.43c-.447-.597-1.124-.57-1.515.065L17 12.213l2.504 3.287h5.198c.767 0 1.026-.486.58-1.082" fill="#CDD2D8"/><circle fill="#CDD2D8" cx="16.47" cy="4.03" r="1.342"/><path d="M28.5 1.5v17.003a1.998 1.998 0 0 1-1.992 1.997H2l26.5-19z" fill="#F2F1F1" style="mix-blend-mode:multiply"/></g></g></g></svg>