<svg width="153" height="32" viewBox="0 0 153 32" xmlns="http://www.w3.org/2000/svg"><title>My Passport</title><path d="M56.17 8.2h-4.1l-2.84 9.08h-.04L46.31 8.2h-4.08L41.19 22h3.18l.5-9.4h.06l2.98 9.4h2.56l2.96-9.4h.04l.54 9.4h3.18L56.17 8.2zm9.48 3.94l-2.22 6.34-2.24-6.34h-3.34l3.9 9.56-.36.86c-.26.64-.6.64-.96.64-.48 0-1.18-.26-1.18-.26l-.64 2.36s1.06.48 2.74.48c1.68 0 2.48-1.08 3.2-2.84l4.4-10.8h-3.3zm18.34.4c0 1.48-.52 2.54-1.44 3.32-.92.76-2.18 1.04-3.6 1.04h-1.7V22h-3.24V8.2h4.94c1.42 0 2.68.28 3.6 1.04.92.76 1.44 1.82 1.44 3.3zm-3.28 0c0-.7-.28-1.18-.66-1.46-.4-.28-.86-.38-1.56-.38h-1.26v3.7h1.26c.7 0 1.16-.1 1.56-.38.38-.28.66-.78.66-1.48zm13.5 3.9V22h-3.06l-.06-1.04c-.42.42-1.22 1.26-2.82 1.26-1.74 0-3.58-.94-3.58-3.14s2.02-2.94 3.84-3.02l2.48-.1v-.22c0-1.04-.74-1.58-2.02-1.58-1.26 0-2.52.56-3.02.88l-.84-2.08c.84-.42 2.38-1 4.22-1 1.84 0 2.9.42 3.68 1.14.76.72 1.18 1.68 1.18 3.34zm-3.18 2.84v-1.62l-1.58.1c-.98.04-1.56.46-1.56 1.2 0 .76.62 1.22 1.5 1.22.86 0 1.44-.56 1.64-.9zm12.68-.32c0-1.04-.48-1.68-.8-2-.34-.32-.84-.58-1.28-.74-.42-.16-.72-.26-1.4-.46-.68-.2-1.44-.44-1.44-.96s.42-.72 1.18-.72c.8 0 1.92.52 2.48.96l1.04-1.88c-.56-.46-1.72-1.22-3.78-1.22-2.06 0-3.74 1.18-3.74 3.1 0 1.76 1.22 2.38 1.68 2.58.46.2 1.02.36 1.4.46.36.12 1.8.44 1.8 1.08 0 .64-.56.84-1.36.84s-2.12-.52-2.92-1.2l-1.2 1.9c1.12 1.06 2.68 1.52 4.16 1.52 1.32 0 2.3-.3 3.02-.86.72-.58 1.16-1.38 1.16-2.4zm9.02 0c0-1.04-.48-1.68-.8-2-.34-.32-.84-.58-1.28-.74-.42-.16-.72-.26-1.4-.46-.68-.2-1.44-.44-1.44-.96s.42-.72 1.18-.72c.8 0 1.92.52 2.48.96l1.04-1.88c-.56-.46-1.72-1.22-3.78-1.22-2.06 0-3.74 1.18-3.74 3.1 0 1.76 1.22 2.38 1.68 2.58.46.2 1.02.36 1.4.46.36.12 1.8.44 1.8 1.08 0 .64-.56.84-1.36.84s-2.12-.52-2.92-1.2l-1.2 1.9c1.12 1.06 2.68 1.52 4.16 1.52 1.32 0 2.3-.3 3.02-.86.72-.58 1.16-1.38 1.16-2.4zm12.52-1.88c0 2.9-1.8 5.14-4.66 5.14-1.46 0-2.5-.54-3.12-1.46v4.86h-3.2V12.14h3.04l-.02 1.26h.04c.72-.86 1.78-1.44 3.28-1.44 2.84 0 4.64 2.22 4.64 5.12zm-3.26-.04c0-1.52-.94-2.56-2.32-2.56-1.36 0-2.3 1.04-2.3 2.56s.94 2.56 2.3 2.56c1.38 0 2.32-1.04 2.32-2.56zm15.16.06c0 3.18-2.34 5.12-5.46 5.12s-5.48-1.94-5.48-5.12 2.36-5.14 5.48-5.14c3.12 0 5.46 1.96 5.46 5.14zm-3.22-.06c0-1.46-.84-2.56-2.24-2.56-1.42 0-2.24 1.1-2.24 2.56s.82 2.56 2.24 2.56c1.4 0 2.24-1.1 2.24-2.56zm11.44-4.9s-.34-.18-1-.18c-1.06 0-1.88.5-2.44 1.58h-.04l.02-1.4h-3.2V22h3.2v-4.38c0-1.1.26-1.74.5-2.06.24-.32.76-.72 1.48-.72.56 0 .98.14 1.16.24h.14l.18-2.94zm6.96.02h-2.18V9.48h-3.22v2.68h-1.4v2.42h1.4v3.82c0 1.5.2 2.32.7 2.9.5.58 1.26.92 2.4.92 1.16 0 2.04-.26 2.28-.32l-.16-2.5s-.46.18-.96.18c-.42 0-.62-.08-.76-.24-.16-.18-.28-.38-.28-1.22v-3.54h2.18v-2.42zM26.083 25.415a7.604 7.604 0 0 1-3.162 2.517c.15-.23.295-.465.426-.712a7.54 7.54 0 0 1 2.965-3.04c.243-.136.474-.285.7-.44a7.707 7.707 0 0 1-.927 1.675M12.58 29.868c.27-.055.542-.118.81-.2a7.325 7.325 0 0 1 4.19 0c.27.082.54.145.81.2-.897.384-1.88.59-2.905.59a7.364 7.364 0 0 1-2.905-.59m-7.693-4.452a7.68 7.68 0 0 1-.926-1.675c.227.155.458.304.7.44a7.537 7.537 0 0 1 2.964 3.04c.132.247.276.483.425.713a7.613 7.613 0 0 1-3.163-2.517m-2.81-12.278c.055.278.117.555.196.83.4 1.407.4 2.893 0 4.3-.08.275-.14.55-.195.83a7.9 7.9 0 0 1-.574-2.98c0-1.053.2-2.06.574-2.98m2.81-6.32a7.606 7.606 0 0 1 3.16-2.515c-.148.23-.292.465-.424.712a7.537 7.537 0 0 1-2.964 3.04 9.472 9.472 0 0 0-.7.44 7.78 7.78 0 0 1 .927-1.676M18.39 2.367c-.27.055-.54.118-.81.198a7.29 7.29 0 0 1-4.19 0c-.27-.08-.54-.143-.81-.2a7.38 7.38 0 0 1 2.905-.588c1.026 0 2.008.205 2.905.59m7.693 4.45c.384.526.69 1.09.927 1.677a9.726 9.726 0 0 0-.7-.44 7.525 7.525 0 0 1-2.964-3.04 10.08 10.08 0 0 0-.425-.713 7.607 7.607 0 0 1 3.163 2.517m-.495 16.007a9.06 9.06 0 0 0-3.56 3.653 7.781 7.781 0 0 1-1.54 2.018c-.117.005-.233.01-.35.01-.71 0-1.43-.107-2.134-.32a8.824 8.824 0 0 0-2.52-.37c-.852 0-1.7.126-2.518.37a7.377 7.377 0 0 1-2.134.32c-.117 0-.233-.005-.35-.01a7.803 7.803 0 0 1-1.54-2.018 9.054 9.054 0 0 0-3.56-3.653 7.579 7.579 0 0 1-1.964-1.575 7.92 7.92 0 0 1 .297-2.55 9.394 9.394 0 0 0 0-5.167 7.957 7.957 0 0 1-.297-2.55 7.569 7.569 0 0 1 1.964-1.577 9.028 9.028 0 0 0 3.559-3.651 7.832 7.832 0 0 1 1.54-2.017c.117-.006.233-.01.35-.01.71 0 1.43.107 2.135.318a8.78 8.78 0 0 0 5.037 0 7.482 7.482 0 0 1 2.135-.32c.115 0 .23.006.347.012a7.728 7.728 0 0 1 1.54 2.017 9.04 9.04 0 0 0 3.562 3.653c.752.423 1.41.957 1.962 1.576a7.923 7.923 0 0 1-.297 2.55 9.394 9.394 0 0 0 0 5.167 7.88 7.88 0 0 1 .297 2.552 7.562 7.562 0 0 1-1.964 1.575m3.304-3.73a9.77 9.77 0 0 0-.194-.83 7.817 7.817 0 0 1 0-4.3c.078-.274.14-.55.194-.83.375.922.575 1.928.575 2.98 0 1.053-.2 2.06-.575 2.98m2.08-2.98c0-2.162-.703-4.163-1.96-5.756a9.2 9.2 0 0 0-1.726-4.465c-1.5-2.055-3.764-3.375-6.19-3.653A8.7 8.7 0 0 0 15.487.236a8.73 8.73 0 0 0-5.612 2.006c-2.426.278-4.69 1.598-6.19 3.653a9.214 9.214 0 0 0-1.726 4.466C.702 11.955 0 13.956 0 16.12c0 2.162.702 4.163 1.957 5.756a9.215 9.215 0 0 0 1.727 4.467c1.5 2.056 3.764 3.376 6.19 3.654A8.744 8.744 0 0 0 15.484 32c2.11 0 4.06-.72 5.612-2.006 2.426-.28 4.69-1.6 6.19-3.654a9.215 9.215 0 0 0 1.727-4.465c1.256-1.594 1.958-3.595 1.958-5.757" fill="#FFF" fill-rule="evenodd"/></svg>