<svg width="125" height="46" viewBox="0 0 125 46" xmlns="http://www.w3.org/2000/svg" xmlns:xlink="http://www.w3.org/1999/xlink"><title>Group 3</title><defs><path id="a" d="M0 0h125v46H0z"/></defs><g fill="none" fill-rule="evenodd"><mask id="b" fill="#fff"><use xlink:href="#a"/></mask><use fill="#FCBA42" xlink:href="#a"/><g mask="url(#b)"><g transform="translate(39 11.5)"><rect fill="#FFF" x=".5" width="49" height="38.5" rx="2"/><path d="M.25 6.75h49.095" stroke="#CDD2D8" stroke-width=".5" stroke-linecap="square"/><circle fill="#CDD2D8" cx="4" cy="3.5" r="1.5"/><circle fill="#CDD2D8" cx="8" cy="3.5" r="1.5"/><circle fill="#CDD2D8" cx="12" cy="3.5" r="1.5"/><path fill="#CDD2D8" d="M12.5 9.5h25V35h-25zM10.5 9.5h-7v13h7zM46.5 9.5h-7V32h7z"/><path d="M49.5 11v38.003A2.002 2.002 0 0 1 47.495 51H5.5l44-40z" fill="#F2F1F1" style="mix-blend-mode:multiply"/></g></g><path fill="#C33D1C" mask="url(#b)" transform="rotate(45 98.328 21.328)" d="M96.328 19.328h4v4h-4z"/><path fill="#C33D1C" mask="url(#b)" transform="rotate(45 108.828 26.828)" d="M106.828 24.828h4v4h-4z"/><path fill="#C33D1C" mask="url(#b)" transform="rotate(45 106.328 9.828)" d="M104.328 7.828h4v4h-4z"/></g></svg>