<svg width="145" height="78" viewBox="0 0 145 78" xmlns="http://www.w3.org/2000/svg"><title>Website</title><g fill="none" fill-rule="evenodd"><g transform="translate(-1 9)"><rect fill="#FFF" x="1" width="98" height="77" rx="4"/><path d="M.5 13.5h98.19" stroke="#CDD2D8" stroke-linecap="square"/><circle fill="#CDD2D8" cx="8" cy="7" r="3"/><circle fill="#CDD2D8" cx="16" cy="7" r="3"/><circle fill="#CDD2D8" cx="24" cy="7" r="3"/><path fill="#CDD2D8" d="M25 19h50v51H25zm-4 0H7v26h14zm72 0H79v45h14z"/><path d="M99 22v76.005A4.004 4.004 0 0 1 94.99 102H11l88-80z" fill="#F2F1F1" style="mix-blend-mode:multiply"/></g><path fill="#C33D1C" d="M117.657 23l5.657 5.657-5.657 5.657L112 28.657zm21 11l5.657 5.657-5.657 5.657L133 39.657zm-5-34l5.657 5.657-5.657 5.657L128 5.657z"/></g></svg>