<svg width="15" height="13" viewBox="0 0 15 13" xmlns="http://www.w3.org/2000/svg"><title>Do</title><path d="M5.455 8.864C3.635 8.864 0 9.778 0 11.592v1.363h10.91v-1.363c0-1.814-3.635-2.728-5.455-2.728zm5.291-6.573L9.601 3.443a2.262 2.262 0 0 1 0 2.653l1.145 1.152c1.377-1.377 1.377-3.457 0-4.957zM13.003 0c2.666 2.761 2.66 6.894 0 9.546l-1.111-1.111c1.888-2.169 1.888-5.264 0-7.324L13.003 0zM5.455 7.5a2.727 2.727 0 1 1 0-5.454 2.727 2.727 0 0 1 0 5.454z" fill="#333" fill-rule="evenodd" opacity=".3"/></svg>