<svg width="18" height="20" viewBox="0 0 18 20" xmlns="http://www.w3.org/2000/svg"><title>Hand</title><path d="M18 16.667C18 18.5 16.527 20 14.727 20H8.754a3.238 3.238 0 0 1-2.331-.992L0 12.358s.786-.833 1.064-1.041c.277-.209.404-.219.646-.242.242-.023.344.05.491.133.033.009 3.526 2.05 3.526 2.05V3.333c0-.691.548-1.25 1.227-1.25s1.228.559 1.228 1.25v5.834H9V1.25C9 .558 9.548 0 10.227 0c.68 0 1.227.558 1.227 1.25v7.917h.819V2.083c0-.691.548-1.25 1.227-1.25s1.227.559 1.227 1.25v7.084h.818V4.583c0-.691.549-1.25 1.228-1.25.679 0 1.227.559 1.227 1.25v12.084z" fill="#11A4EF" fill-rule="evenodd"/></svg>