<svg width="73" height="73" viewBox="141 2 73 73" xmlns="http://www.w3.org/2000/svg"><g fill="none" fill-rule="evenodd"><path d="M211.193 47.552c-.268.988-.975 1.815-1.845 2.61-.094-1.131-.135-2.253.117-3.196.237-.887.792-1.77 1.43-2.684.365 1.157.573 2.257.298 3.27m-3.465 8.343c-.52.9-1.465 1.523-2.563 2.081.201-1.061.455-2.092.922-2.896.476-.819 1.274-1.544 2.161-2.281.052 1.172-.027 2.244-.52 3.096m-5.657 7.346c-.712.706-1.737 1.06-2.89 1.31.49-1.05.994-2.01 1.677-2.693.654-.654 1.562-1.144 2.559-1.615-.26 1.204-.618 2.276-1.346 2.998m-7.176 5.487c-.888.513-2.015.578-3.245.513.716-.839 1.427-1.586 2.228-2.046.838-.48 1.898-.715 3.039-.913-.544 1.047-1.154 1.944-2.022 2.446m-8.572 3.535c-.95.253-2.007.047-3.124-.31.944-.663 1.853-1.244 2.768-1.488.898-.24 1.96-.215 3.037-.13-.826.913-1.675 1.66-2.68 1.928m-12.038.012c1.053-.38 2.055-.69 2.966-.676.975.004 2.047.338 3.115.724-.996.632-1.98 1.097-3.003 1.097-1.049 0-2.057-.49-3.078-1.145m-6.11-.079c-.99-.268-1.817-.976-2.613-1.848 1.133-.094 2.255-.135 3.198.117.889.238 1.772.792 2.688 1.432-1.159.365-2.26.574-3.273.3m-8.343-3.47c-.899-.52-1.522-1.462-2.08-2.559 1.061.202 2.091.456 2.895.922.817.474 1.541 1.273 2.278 2.158-1.17.051-2.243-.028-3.093-.52m-8.657-8.548c1.05.49 2.011.994 2.694 1.677.655.655 1.145 1.565 1.616 2.563-1.205-.26-2.277-.617-3-1.346-.706-.713-1.06-1.74-1.31-2.894m-4.177-4.286c-.513-.887-.578-2.012-.513-3.241.839.715 1.587 1.426 2.046 2.228.48.837.714 1.895.913 3.035-1.048-.544-1.944-1.154-2.446-2.022m-3.534-8.568c-.253-.952-.047-2.008.31-3.127.663.944 1.243 1.853 1.487 2.767.24.899.215 1.962.13 3.041-.912-.827-1.66-1.676-1.927-2.681m-.014-12.039c.377 1.051.681 2.048.677 2.967-.004.975-.336 2.046-.723 3.113-.632-.996-1.097-1.98-1.097-3.004 0-1.048.488-2.055 1.143-3.076m.08-6.109c.27-.989.977-1.817 1.849-2.613.094 1.132.134 2.253-.118 3.196-.237.888-.793 1.772-1.432 2.688-.366-1.158-.574-2.258-.299-3.27M147 20.831c.52-.899 1.463-1.522 2.56-2.08-.2 1.062-.455 2.094-.922 2.899-.475.817-1.272 1.541-2.157 2.278-.052-1.172.027-2.245.52-3.097m5.653-7.343c.713-.706 1.739-1.06 2.893-1.31-.49 1.049-.994 2.008-1.676 2.69-.654.655-1.564 1.145-2.562 1.616.26-1.204.618-2.274 1.345-2.996m7.18-5.49c.887-.514 2.014-.579 3.244-.513-.716.84-1.428 1.59-2.23 2.049-.838.48-1.897.714-3.037.913.544-1.05 1.155-1.947 2.023-2.449m8.568-3.532c.95-.252 2.006-.047 3.123.31-.942.661-1.85 1.24-2.762 1.485-.899.24-1.96.214-3.039.13.826-.912 1.674-1.658 2.678-1.925m12.042-.014c-1.045.375-2.038.678-2.954.678h-.016c-.976-.004-2.048-.337-3.116-.725.997-.632 1.982-1.099 3.007-1.099 1.05 0 2.057.49 3.08 1.146m6.105.08c.988.27 1.815.976 2.61 1.847-1.13.094-2.251.134-3.193-.118-.887-.237-1.77-.792-2.685-1.43 1.156-.366 2.256-.574 3.268-.298m8.346 3.465c.9.52 1.524 1.465 2.082 2.563-1.063-.201-2.095-.455-2.9-.922-.818-.475-1.543-1.274-2.28-2.16 1.172-.053 2.246.026 3.098.52m8.653 8.546c-1.048-.49-2.008-.994-2.69-1.676-.653-.654-1.143-1.562-1.614-2.559 1.203.26 2.273.617 2.994 1.345.706.712 1.06 1.737 1.31 2.89m4.18 4.287c.514.888.579 2.016.513 3.247-.84-.717-1.589-1.428-2.049-2.231-.48-.838-.715-1.898-.913-3.04 1.05.544 1.947 1.155 2.45 2.023m3.53 8.572c.253.95.049 2.005-.308 3.121-.662-.942-1.242-1.85-1.486-2.764-.24-.898-.215-1.959-.13-3.035.911.826 1.658 1.674 1.924 2.678m-3.14 21.692l.01.107-.152.125c-1.144.935-2.327 1.903-3.02 3.094-.718 1.236-.987 2.763-1.243 4.244-1.367.622-2.78 1.267-3.78 2.267-1.002 1.002-1.646 2.416-2.27 3.783l-.056.124-.134.022c-1.483.243-3.016.494-4.245 1.198-1.228.704-2.22 1.898-3.179 3.054-1.497-.14-3.041-.28-4.421.088-1.332.356-2.575 1.244-3.778 2.103l-.16.114-.1-.037c-1.421-.533-2.89-1.085-4.334-1.09h-.021c-1.372 0-2.797.528-4.176 1.04l-.096.035c-.03-.02-.058-.041-.087-.062-1.203-.859-2.446-1.747-3.778-2.103-.656-.176-1.348-.236-2.055-.236-.797 0-1.612.077-2.413.152l-.11.01-.122-.148c-.935-1.144-1.902-2.328-3.094-3.02-1.235-.718-2.762-.987-4.242-1.243-.623-1.369-1.267-2.782-2.269-3.784-1-1.002-2.415-1.646-3.783-2.269l-.124-.057-.022-.13c-.243-1.483-.494-3.017-1.198-4.246-.703-1.228-1.898-2.22-3.054-3.178.141-1.498.282-3.043-.088-4.425-.355-1.331-1.244-2.575-2.103-3.777l-.113-.16.037-.098c.533-1.42 1.084-2.89 1.09-4.333.005-1.379-.526-2.812-1.04-4.198l-.036-.098.062-.088c.86-1.203 1.748-2.446 2.103-3.777.373-1.395.227-2.958.084-4.468l-.01-.107.15-.122c1.143-.935 2.326-1.902 3.018-3.095.718-1.235.988-2.763 1.244-4.244 1.368-.623 2.782-1.268 3.783-2.27 1.001-1 1.646-2.415 2.27-3.782l.055-.121.13-.022c1.485-.243 3.018-.495 4.247-1.198 1.229-.704 2.221-1.9 3.181-3.057 1.496.14 3.041.28 4.422-.088 1.332-.356 2.575-1.244 3.777-2.103l.157-.111.101.037c1.421.534 2.89 1.085 4.334 1.09h.02c1.373 0 2.798-.528 4.177-1.04l.1-.037.086.06c1.203.86 2.446 1.748 3.778 2.104 1.394.373 2.957.226 4.468.084l.104-.01.124.152c.936 1.144 1.903 2.327 3.095 3.02 1.236.717 2.764.987 4.247 1.243.622 1.367 1.266 2.78 2.266 3.78 1.001 1.001 2.416 1.646 3.784 2.269l.12.055.023.135c.243 1.484.494 3.017 1.198 4.246.704 1.229 1.9 2.221 3.056 3.18-.14 1.497-.28 3.04.088 4.42.356 1.331 1.245 2.575 2.104 3.777l.112.158c-.014.034-.026.068-.039.103-.533 1.42-1.084 2.89-1.09 4.334-.006 1.378.526 2.81 1.04 4.196l.037.1-.06.083c-.86 1.203-1.748 2.447-2.104 3.779-.373 1.394-.225 2.956-.083 4.467m3.155-9.652c-.377-1.051-.681-2.05-.677-2.969.004-.976.337-2.05.725-3.117.632.996 1.098 1.98 1.098 3.005 0 1.05-.49 2.059-1.146 3.08m2.454-3.08c0-1.658-.87-3.121-1.845-4.522.58-1.594 1.053-3.218.641-4.773-.43-1.619-1.706-2.825-3.045-3.953.153-1.743.213-3.5-.619-4.937-.817-1.412-2.305-2.235-3.849-2.958-.293-1.677-.696-3.327-1.844-4.485-1.168-1.177-2.877-1.58-4.598-1.89-.738-1.588-1.568-3.138-3.019-3.978-1.393-.806-3.087-.774-4.78-.632-1.095-1.306-2.278-2.528-3.878-2.963-1.627-.442-3.297.038-4.93.625-1.424-.995-2.91-1.897-4.598-1.897-1.659 0-3.122.87-4.523 1.845-1.595-.58-3.22-1.054-4.775-.64-1.62.428-2.825 1.705-3.953 3.044-1.743-.153-3.499-.213-4.935.619-1.412.816-2.234 2.305-2.958 3.848-1.678.293-3.33.697-4.488 1.845-1.178 1.168-1.58 2.878-1.89 4.6-1.588.737-3.135 1.566-3.975 3.017-.806 1.392-.774 3.086-.632 4.777-1.308 1.096-2.531 2.28-2.966 3.881-.442 1.629.038 3.299.626 4.933-.995 1.423-1.895 2.908-1.895 4.595 0 1.657.87 3.12 1.843 4.52-.58 1.595-1.055 3.221-.642 4.777.43 1.62 1.707 2.827 3.047 3.956-.152 1.743-.212 3.496.62 4.932.815 1.41 2.302 2.233 3.844 2.956.294 1.68.697 3.332 1.846 4.49 1.169 1.179 2.88 1.58 4.603 1.89.738 1.588 1.567 3.135 3.016 3.974 1.393.806 3.085.775 4.775.633 1.096 1.308 2.28 2.532 3.88 2.966 1.63.444 3.301-.038 4.936-.626 1.423.995 2.908 1.896 4.596 1.896 1.657 0 3.12-.87 4.519-1.843 1.175.427 2.366.798 3.534.798.417 0 .832-.048 1.242-.156 1.62-.43 2.826-1.708 3.955-3.048 1.744.152 3.499.212 4.935-.62 1.411-.815 2.233-2.302 2.956-3.845 1.678-.293 3.329-.697 4.486-1.845 1.18-1.168 1.582-2.878 1.891-4.6 1.589-.74 3.138-1.568 3.978-3.02.806-1.392.774-3.085.633-4.776 1.306-1.096 2.528-2.279 2.962-3.878.442-1.629-.038-3.299-.626-4.933.996-1.423 1.898-2.91 1.898-4.598" fill="#DF4722"/><path d="M154.621 38.191h1.464c.216 0 .424-.016.624-.048s.376-.094.528-.186c.152-.092.274-.222.366-.39.092-.168.138-.388.138-.66s-.046-.492-.138-.66a1.013 1.013 0 0 0-.366-.39c-.152-.092-.328-.154-.528-.186s-.408-.048-.624-.048h-1.464v2.568zm-1.884-4.032h3.864c.536 0 .992.078 1.368.234.376.156.682.362.918.618s.408.548.516.876a3.259 3.259 0 0 1 0 2.034c-.108.332-.28.626-.516.882s-.542.462-.918.618c-.376.156-.832.234-1.368.234h-1.98v3.072h-1.884V34.16zm7.686 4.272c.024-.4.124-.732.3-.996s.4-.476.672-.636c.272-.16.578-.274.918-.342a5.22 5.22 0 0 1 1.026-.102c.312 0 .628.022.948.066.32.044.612.13.876.258s.48.306.648.534c.168.228.252.53.252.906v3.228c0 .28.016.548.048.804s.088.448.168.576h-1.728a2.445 2.445 0 0 1-.12-.6 2.22 2.22 0 0 1-.96.588 3.853 3.853 0 0 1-1.128.168c-.296 0-.572-.036-.828-.108a1.896 1.896 0 0 1-.672-.336 1.564 1.564 0 0 1-.45-.576 1.947 1.947 0 0 1-.162-.828c0-.352.062-.642.186-.87.124-.228.284-.41.48-.546a2.15 2.15 0 0 1 .672-.306c.252-.068.506-.122.762-.162.256-.04.508-.072.756-.096.248-.024.468-.06.66-.108s.344-.118.456-.21c.112-.092.164-.226.156-.402 0-.184-.03-.33-.09-.438a.662.662 0 0 0-.24-.252.944.944 0 0 0-.348-.12 2.848 2.848 0 0 0-.426-.03c-.336 0-.6.072-.792.216-.192.144-.304.384-.336.72h-1.704zm3.936 1.26a.764.764 0 0 1-.27.15 2.758 2.758 0 0 1-.348.09c-.124.024-.254.044-.39.06s-.272.036-.408.06c-.128.024-.254.056-.378.096s-.232.094-.324.162-.166.154-.222.258a.83.83 0 0 0-.084.396c0 .152.028.28.084.384.056.104.132.186.228.246s.208.102.336.126c.128.024.26.036.396.036.336 0 .596-.056.78-.168.184-.112.32-.246.408-.402.088-.156.142-.314.162-.474.02-.16.03-.288.03-.384v-.636zm4.279 1.02h-1.62c.016.416.11.762.282 1.038s.392.498.66.666c.268.168.574.288.918.36a5.28 5.28 0 0 0 2.094.006c.34-.068.642-.186.906-.354.264-.168.478-.39.642-.666.164-.276.246-.618.246-1.026 0-.288-.056-.53-.168-.726-.112-.196-.26-.36-.444-.492s-.394-.238-.63-.318a7.198 7.198 0 0 0-.726-.204c-.24-.056-.476-.108-.708-.156a5.475 5.475 0 0 1-.618-.162 1.295 1.295 0 0 1-.438-.234.467.467 0 0 1-.168-.372.46.46 0 0 1 .096-.306.63.63 0 0 1 .234-.174c.092-.04.194-.066.306-.078.112-.012.216-.018.312-.018a1.7 1.7 0 0 1 .792.174c.224.116.348.338.372.666h1.62c-.032-.384-.13-.702-.294-.954a1.942 1.942 0 0 0-.618-.606 2.587 2.587 0 0 0-.846-.324 4.915 4.915 0 0 0-.978-.096c-.336 0-.664.03-.984.09-.32.06-.608.164-.864.312s-.462.35-.618.606c-.156.256-.234.584-.234.984 0 .272.056.502.168.69.112.188.26.344.444.468.184.124.394.224.63.3.236.076.478.142.726.198.608.128 1.082.256 1.422.384.34.128.51.32.51.576a.63.63 0 0 1-.108.378.818.818 0 0 1-.27.24c-.108.06-.228.104-.36.132a1.823 1.823 0 0 1-.378.042c-.168 0-.33-.02-.486-.06-.156-.04-.294-.102-.414-.186s-.218-.192-.294-.324a.935.935 0 0 1-.114-.474zm6.378 0h-1.62c.016.416.11.762.282 1.038s.392.498.66.666c.268.168.574.288.918.36a5.28 5.28 0 0 0 2.094.006c.34-.068.642-.186.906-.354.264-.168.478-.39.642-.666.164-.276.246-.618.246-1.026 0-.288-.056-.53-.168-.726-.112-.196-.26-.36-.444-.492s-.394-.238-.63-.318a7.198 7.198 0 0 0-.726-.204c-.24-.056-.476-.108-.708-.156a5.475 5.475 0 0 1-.618-.162 1.295 1.295 0 0 1-.438-.234.467.467 0 0 1-.168-.372.46.46 0 0 1 .096-.306.63.63 0 0 1 .234-.174c.092-.04.194-.066.306-.078.112-.012.216-.018.312-.018a1.7 1.7 0 0 1 .792.174c.224.116.348.338.372.666h1.62c-.032-.384-.13-.702-.294-.954a1.942 1.942 0 0 0-.618-.606 2.587 2.587 0 0 0-.846-.324 4.915 4.915 0 0 0-.978-.096c-.336 0-.664.03-.984.09-.32.06-.608.164-.864.312s-.462.35-.618.606c-.156.256-.234.584-.234.984 0 .272.056.502.168.69.112.188.26.344.444.468.184.124.394.224.63.3.236.076.478.142.726.198.608.128 1.082.256 1.422.384.34.128.51.32.51.576a.63.63 0 0 1-.108.378.818.818 0 0 1-.27.24c-.108.06-.228.104-.36.132a1.823 1.823 0 0 1-.378.042c-.168 0-.33-.02-.486-.06-.156-.04-.294-.102-.414-.186s-.218-.192-.294-.324a.935.935 0 0 1-.114-.474zm8.19.9c.28 0 .514-.056.702-.168.188-.112.34-.258.456-.438.116-.18.198-.39.246-.63.048-.24.072-.484.072-.732s-.026-.492-.078-.732c-.052-.24-.138-.454-.258-.642s-.274-.34-.462-.456a1.29 1.29 0 0 0-.69-.174c-.28 0-.514.058-.702.174a1.4 1.4 0 0 0-.456.45 1.868 1.868 0 0 0-.246.636c-.048.24-.072.488-.072.744 0 .248.026.492.078.732.052.24.136.45.252.63.116.18.27.326.462.438.192.112.424.168.696.168zm-3.132-5.088h1.62v.792h.024c.208-.336.472-.58.792-.732a2.43 2.43 0 0 1 1.056-.228c.488 0 .908.092 1.26.276.352.184.644.428.876.732.232.304.404.658.516 1.062.112.404.168.826.168 1.266 0 .416-.056.816-.168 1.2a3.055 3.055 0 0 1-.51 1.02 2.527 2.527 0 0 1-.852.708c-.34.176-.738.264-1.194.264-.384 0-.738-.078-1.062-.234a2.01 2.01 0 0 1-.798-.69h-.024v2.94h-1.704v-8.376zm8.778 3.108c0 .248.024.49.072.726.048.236.13.448.246.636.116.188.27.338.462.45.192.112.432.168.72.168s.53-.056.726-.168c.196-.112.352-.262.468-.45.116-.188.198-.4.246-.636a3.723 3.723 0 0 0 0-1.458 1.868 1.868 0 0 0-.246-.636 1.364 1.364 0 0 0-.468-.45c-.196-.116-.438-.174-.726-.174s-.528.058-.72.174a1.382 1.382 0 0 0-.462.45 1.868 1.868 0 0 0-.246.636c-.048.24-.072.484-.072.732zm-1.704 0c0-.496.076-.946.228-1.35.152-.404.368-.748.648-1.032.28-.284.616-.504 1.008-.66a3.543 3.543 0 0 1 1.32-.234c.488 0 .93.078 1.326.234.396.156.734.376 1.014.66.28.284.496.628.648 1.032.152.404.228.854.228 1.35 0 .496-.076.944-.228 1.344-.152.4-.368.742-.648 1.026-.28.284-.618.502-1.014.654a3.675 3.675 0 0 1-1.326.228c-.488 0-.928-.076-1.32-.228a2.835 2.835 0 0 1-1.008-.654 2.916 2.916 0 0 1-.648-1.026 3.76 3.76 0 0 1-.228-1.344zm7.459-3.108v6.204h1.704v-2.796c0-.28.028-.54.084-.78.056-.24.15-.45.282-.63.132-.18.306-.322.522-.426.216-.104.48-.156.792-.156a3.273 3.273 0 0 1 .612.06v-1.584c-.136-.04-.26-.06-.372-.06-.216 0-.424.032-.624.096s-.388.154-.564.27a2.123 2.123 0 0 0-.792.954h-.024v-1.152h-1.62zm6.762 0v-1.86h-1.704v1.86h-1.032v1.14h1.032v3.66c0 .312.052.564.156.756.104.192.246.34.426.444.18.104.388.174.624.21.236.036.486.054.75.054.168 0 .34-.004.516-.012s.336-.024.48-.048v-1.32c-.08.016-.164.028-.252.036a3.05 3.05 0 0 1-.276.012c-.288 0-.48-.048-.576-.144-.096-.096-.144-.288-.144-.576v-3.072h1.248v-1.14h-1.248z" fill="#333"/></g></svg>