<svg width="20" height="20" viewBox="0 0 20 20" xmlns="http://www.w3.org/2000/svg"><path d="M10 0C4.477 0 0 4.477 0 10s4.477 10 10 10 10-4.477 10-10S15.523 0 10 0zm8.694 9.677h-3.869a12.854 12.854 0 0 0-.74-4.043 10.538 10.538 0 0 0 2.41-1.418 8.667 8.667 0 0 1 2.199 5.461zm-9.05 9.015c-1.073-.893-1.972-2.053-2.63-3.4a9.998 9.998 0 0 1 2.663-.437v3.838l-.034-.001zm.711-17.384c1.217 1.013 2.21 2.37 2.882 3.953a9.977 9.977 0 0 1-2.915.529V1.306l.033.002zm1.075.11a8.686 8.686 0 0 1 4.622 2.332 9.87 9.87 0 0 1-2.211 1.289 11.345 11.345 0 0 0-2.41-3.62zm-1.753-.112V5.79a9.995 9.995 0 0 1-2.914-.53c.671-1.582 1.664-2.939 2.88-3.952.012 0 .023 0 .034-.002zM6.16 5.04A9.894 9.894 0 0 1 3.948 3.75 8.684 8.684 0 0 1 8.57 1.42c-1 .998-1.824 2.228-2.411 3.62zm.36.816a10.6 10.6 0 0 0 3.158.58v3.242H5.82c.035-1.35.274-2.642.7-3.822zm3.158 4.468v3.887a10.588 10.588 0 0 0-2.928.496 12.12 12.12 0 0 1-.929-4.383h3.857zM8.57 18.582a8.665 8.665 0 0 1-4.223-1.97 9.806 9.806 0 0 1 2.057-1.096 11.172 11.172 0 0 0 2.166 3.066zm1.753.112v-3.839c.923.03 1.819.175 2.663.439-.658 1.346-1.557 2.505-2.63 3.398-.01 0-.022 0-.033.002zm3.273-3.178c.734.283 1.42.657 2.057 1.097a8.671 8.671 0 0 1-4.223 1.969c.867-.864 1.603-1.9 2.166-3.066zm-.345-.81a10.596 10.596 0 0 0-2.928-.496v-3.887h3.857a12.133 12.133 0 0 1-.929 4.383zm-2.928-5.029V6.435a10.606 10.606 0 0 0 3.158-.579c.424 1.18.664 2.471.699 3.822h-3.857zm-6.817-5.46c.734.57 1.54 1.053 2.41 1.417a12.854 12.854 0 0 0-.741 4.043H1.306a8.664 8.664 0 0 1 2.2-5.46zm-2.2 6.106h3.869c.04 1.648.384 3.205.97 4.604a10.47 10.47 0 0 0-2.283 1.246 8.686 8.686 0 0 1-2.556-5.85zm14.832 5.85a10.488 10.488 0 0 0-2.283-1.247c.586-1.399.93-2.956.97-4.604h3.869a8.686 8.686 0 0 1-2.556 5.85z" fill="#FFF" fill-rule="evenodd"/></svg>