<svg width="150" height="230" viewBox="0 0 150 230" xmlns="http://www.w3.org/2000/svg"><title>Artboard</title><g fill="#FFF" fill-rule="evenodd"><path d="M10.01.346h132.066c4.5 0 7.337 3.693 7.337 8.244 0 4.55-2.837 8.244-7.337 8.244H10.011c-4.502 0-8.152-3.691-8.152-8.244S5.509.346 10.01.346z"/><path d="M141.49 229.34c-4.373 0-7.917-3.583-7.917-8.004V8.35c0-4.421 3.544-8.005 7.916-8.005s7.916 3.584 7.916 8.005v212.977c0 4.42-3.544 8.004-7.916 8.004v.009z"/><ellipse cx="74.12" cy="171.684" rx="8.152" ry="8.244"/><path d="M69.563 164.396L4.638 214.098a8.276 8.276 0 0 0-3.847 7.277 8.261 8.261 0 0 0 4.308 7.007 8.081 8.081 0 0 0 8.155-.27l64.924-49.718a8.269 8.269 0 0 0 3.84-7.272 8.254 8.254 0 0 0-4.308-7 8.075 8.075 0 0 0-8.148.274z"/><path d="M136.957 228.096l-64.933-49.702a8.276 8.276 0 0 1-3.846-7.276 8.261 8.261 0 0 1 4.308-7.008 8.081 8.081 0 0 1 8.155.27l64.924 49.701a8.273 8.273 0 0 1 3.849 7.273 8.26 8.26 0 0 1-4.304 7.008 8.08 8.08 0 0 1-8.153-.266zM8.804 229.406c-4.371 0-7.915-3.583-7.915-8.004V41.392c0-4.427 3.546-9.654 7.915-9.654 4.372 0 7.916 3.584 7.916 8.005v181.65c0 4.421-3.544 8.005-7.916 8.005v.008z"/></g></svg>