<svg id="Layer_1" data-name="Layer 1" xmlns="http://www.w3.org/2000/svg" viewBox="0 0 321.58 319.14"><defs><style>.cls-1{fill:#1a87be}</style></defs><title>icon-pencil-blue</title><g id="Layer_201101" data-name="Layer%201101"><path class="cls-1" d="M249.26 85.74l-192 184a10 10 0 0 1-14.14 0 10 10 0 0 1 0-14.14l192-184a10 10 0 0 1 14.14 0 10 10 0 0 1 0 14.14z" transform="translate(-40.18 -40.84)"/><path class="cls-1" d="M249.35 71.65L303 126.32a10 10 0 0 1 0 14.14 10 10 0 0 1-14.14 0l-53.65-54.67a10 10 0 0 1 0-14.14 10 10 0 0 1 14.14 0z" transform="translate(-40.18 -40.84)"/><path class="cls-1" d="M357.83 85.17a67.12 67.12 0 0 0-86.06-40.28c-1.6.58-3.16 1.24-4.69 1.93.16-.07.31-.15.47-.2s.38-.12.57-.17a10 10 0 0 0 6.65 18.84v.13c1.17-.53 2.35-1 3.58-1.47a47.6 47.6 0 0 1 12.19-2.65v.06c1.27-.1 2.56-.16 3.86-.15a47.18 47.18 0 0 1 33.46 80.06 9.86 9.86 0 0 0-.83.71L127.23 342a10 10 0 1 0 13.86 14.39l196.84-197.1a67.32 67.32 0 0 0 23-41.07l.06-.39c0-.34.1-.69.15-1a66.54 66.54 0 0 0-3.31-31.66z" transform="translate(-40.18 -40.84)"/><path class="cls-1" d="M130.69 360H50.34a10 10 0 0 1-10-10 10 10 0 0 1 10-10h80.35a10 10 0 0 1 10 10 10 10 0 0 1-10 10z" transform="translate(-40.18 -40.84)"/><path class="cls-1" d="M60.18 266.63V347a10 10 0 0 1-10 10 10 10 0 0 1-10-10v-80.37a10 10 0 0 1 10-10 10 10 0 0 1 10 10z" transform="translate(-40.18 -40.84)"/></g></svg>