<svg viewBox="0 0 180 50" style="background-color:#ffffff00" xmlns="http://www.w3.org/2000/svg" width="180" height="50"><path d="M56.554 27c-1.34 0-2.408-.484-3.207-1.46-.8-.977-1.195-2.364-1.195-4.165 0-1.797.396-3.184 1.195-4.16.799-.977 1.868-1.465 3.207-1.465 1.34 0 2.401.492 3.188 1.469.788.98 1.183 2.367 1.183 4.156 0 1.8-.395 3.188-1.182 4.164-.788.977-1.85 1.461-3.189 1.461zm7.63-5.625c0-2.898-.807-5.074-2.413-6.527C60.565 13.618 58.822 13 56.543 13c-2.28 0-4.023.617-5.225 1.848-1.618 1.453-2.425 3.629-2.425 6.527 0 2.844.807 5.02 2.425 6.527 1.202 1.235 2.945 1.848 5.225 1.848s4.022-.613 5.228-1.848c1.606-1.508 2.413-3.683 2.413-6.527zM72.325 17.25c-.956 0-1.74.23-2.358.691-.345.262-.713.684-1.1 1.27V17.5h-3.008v12h3.008v-6.543c0-.746.101-1.36.309-1.844.391-.906 1.124-1.363 2.19-1.363.861 0 1.448.313 1.758.934.168.34.254.828.254 1.46V29.5h3.008v-8.125c0-1.512-.38-2.578-1.14-3.195-.76-.617-1.73-.93-2.921-.93zM83.709 19.75c.72 0 1.324.215 1.81.637.485.425.76 1.047.814 1.863h-5.264c.11-.766.38-1.375.81-1.824.431-.45 1.042-.676 1.83-.676zm-.024-2.5c-1.664 0-3.02.547-4.061 1.637-1.042 1.09-1.563 2.656-1.563 4.695 0 2.18.572 3.75 1.72 4.719 1.147.969 2.47 1.449 3.975 1.449 1.817 0 3.231-.559 4.242-1.676.65-.699 1.014-1.39 1.092-2.074h-2.863c-.18.32-.388.57-.619.75-.43.336-.99.5-1.672.5-.65 0-1.203-.148-1.66-.453-.76-.485-1.16-1.336-1.207-2.547h8.248c.016-1.008-.02-1.777-.097-2.316-.138-.915-.44-1.715-.905-2.41-.517-.786-1.171-1.36-1.962-1.727-.792-.363-1.68-.547-2.668-.547zM90.514 21.434c0 2.585.65 4.617 1.954 6.101 1.3 1.477 3.087 2.215 5.366 2.215 1.837 0 3.345-.531 4.52-1.598 1.175-1.066 1.907-2.449 2.197-4.152h-3.258c-.228.824-.513 1.441-.854 1.852-.619.765-1.52 1.148-2.699 1.148-1.151 0-2.103-.457-2.847-1.371-.748-.914-1.12-2.285-1.12-4.121 0-1.832.352-3.25 1.057-4.254.705-1 1.673-1.504 2.898-1.504 1.203 0 2.112.375 2.723 1.125.34.422.622 1.047.842 1.875h3.258c-.05-1.016-.415-2.031-1.092-3.047-1.23-1.8-3.169-2.703-5.825-2.703-1.985 0-3.618.66-4.903 1.977-1.48 1.515-2.217 3.668-2.217 6.457zM113.233 24.582c-.024 1.016-.314 1.711-.878 2.094a3.233 3.233 0 0 1-1.852.574c-.423 0-.784-.113-1.077-.344-.298-.23-.443-.605-.443-1.125 0-.578.24-1.008.717-1.285.282-.164.752-.3 1.41-.418l.701-.125c.349-.062.623-.133.826-.207.2-.074.4-.172.596-.293v1.129zm-2.903-2.27c-1.182.153-2.08.407-2.686.762-1.113.653-1.669 1.703-1.669 3.156 0 1.125.34 1.993 1.022 2.602.682.613 1.547.918 2.597.918.819 0 1.555-.21 2.21-.625a6.35 6.35 0 0 0 1.44-1.29c.02.321.047.61.087.86.035.25.102.52.195.805h3.478V29c-.238-.078-.419-.18-.536-.3-.118-.122-.192-.356-.216-.7a49.747 49.747 0 0 1-.023-1.395v-5.543c0-1.453-.501-2.453-1.504-3-1.003-.539-2.15-.812-3.439-.812-1.982 0-3.38.508-4.195 1.52-.513.648-.802 1.476-.865 2.48h3.008c.07-.418.22-.75.439-1 .305-.332.826-.5 1.566-.5.658 0 1.156.094 1.496.277.337.188.51.52.51 1.004 0 .399-.22.692-.655.88-.246.108-.654.202-1.218.273l-1.041.128zM131.62 17.25c-.764 0-1.453.156-2.072.465-.588.312-1.077.797-1.47 1.453-.234-.547-.575-1-1.021-1.352-.56-.375-1.293-.566-2.198-.566-.955 0-1.735.223-2.334.66-.345.25-.705.664-1.089 1.246V17.5h-2.757v12h3.008v-7.36c0-.663.082-1.167.247-1.503.301-.59.893-.887 1.774-.887.756 0 1.265.297 1.523.887.142.328.216.855.216 1.582V29.5h3.008v-7.258c0-.543.082-1.008.25-1.394.326-.73.917-1.098 1.77-1.098.737 0 1.246.285 1.525.852.14.296.215.68.215 1.14V29.5h2.988l.02-7.617c0-.781-.035-1.38-.106-1.79-.113-.609-.333-1.128-.654-1.55-.403-.477-.85-.813-1.343-1.004a4.126 4.126 0 0 0-1.5-.289zM146.172 23.402c0 1.164-.231 2.098-.69 2.797-.461.703-1.127 1.051-2.005 1.051-.603 0-1.128-.172-1.566-.516-.67-.586-1.003-1.601-1.003-3.047 0-.914.106-1.668.325-2.261.415-1.117 1.183-1.676 2.303-1.676.928 0 1.598.371 2.013 1.11.415.738.623 1.585.623 2.542zm-1.829-6.152c-.924 0-1.723.246-2.397.734-.368.274-.713.649-1.038 1.125V17.5H137.9V34h3.008v-6.027c.321.484.65.847.987 1.097.615.453 1.387.68 2.319.68 1.457 0 2.651-.547 3.576-1.648.924-1.098 1.39-2.696 1.39-4.793 0-1.985-.47-3.493-1.406-4.52-.94-1.023-2.084-1.539-3.431-1.539zM151.105 17.5v7.266c0 1.379.173 2.422.517 3.129.615 1.238 1.81 1.855 3.584 1.855.61 0 1.148-.078 1.606-.234.458-.157.932-.446 1.425-.875a2.09 2.09 0 0 0 .42-.47c.117-.175.188-.28.219-.32V29.5h2.757v-12h-3.008v6.57c0 .778-.106 1.403-.313 1.871-.404.875-1.152 1.309-2.24 1.309-.854 0-1.422-.305-1.712-.918-.165-.348-.247-.867-.247-1.555V17.5h-3.008zM163.558 25.5c0 1.238.443 2.258 1.328 3.055.885.797 2.252 1.195 4.109 1.195 1.817 0 3.164-.367 4.034-1.102.87-.734 1.308-1.683 1.308-2.847 0-.883-.29-1.617-.862-2.207-.583-.578-1.516-1.008-2.792-1.285-1.92-.387-3.043-.66-3.373-.82-.328-.15-.493-.395-.493-.735 0-.266.153-.5.462-.703.31-.2.83-.301 1.559-.301.881 0 1.508.203 1.876.602.196.218.317.52.364.898h3.008c-.14-1.469-.681-2.5-1.625-3.102-.948-.597-2.17-.898-3.666-.898-1.582 0-2.812.39-3.682 1.164-.87.777-1.304 1.707-1.304 2.79 0 .913.27 1.616.819 2.1.544.497 1.515.903 2.914 1.22 1.942.421 3.059.722 3.352.898.29.176.435.433.435.77 0 .355-.188.62-.564.796-.376.176-.885.262-1.52.262-1.089 0-1.833-.2-2.236-.605-.227-.227-.376-.606-.443-1.145h-3.008zM173.255 16.559v.257h.435V18h.306v-1.184h.43v-.257h-1.17zM175.297 17.691l-.262-1.132h-.439V18h.282v-.973c0-.027-.004-.066-.004-.117v-.117l.27 1.207h.294l.274-1.207c0 .027-.004.066-.004.117V18h.282v-1.441h-.434l-.259 1.132zM139.349 39c-.18 0-.33.035-.447.102a.835.835 0 0 0-.27.23V38.25h-.501v3h.501v-.332c.086.11.165.184.239.223.121.074.286.109.49.109.32 0 .575-.11.755-.328.18-.219.27-.492.27-.828 0-.32-.093-.586-.277-.79-.185-.202-.44-.304-.76-.304zm-.067 1.75c-.22 0-.384-.055-.49-.172a.614.614 0 0 1-.16-.441c0-.149.023-.274.078-.371.098-.176.282-.266.553-.266.262 0 .442.094.544.273a.78.78 0 0 1 .078.364.614.614 0 0 1-.16.445c-.106.113-.255.168-.443.168zM140.573 42.25h.361c.352 0 .583-.059.7-.168.118-.113.255-.402.416-.871l.705-2.211h-.49l-.564 1.66-.567-1.66h-.49l.728 2.25c.173.023.231.09.169.2a.507.507 0 0 1-.196.214.905.905 0 0 1-.278.07c-.11.008-.223.016-.34.016h-.154v.5zM144.648 42h3.008v-.75H145.4v-3h-.752V42zM150.168 39.105l.505 1.395h-1.022l.517-1.395zM148.295 42h.796l.278-.75h1.574l.27.75h.792l-1.497-3.75h-.7L148.295 42zM152.429 40.496c0 .39.07.691.215.91.27.399.783.594 1.54.594.755 0 1.268-.195 1.539-.594.14-.218.215-.52.215-.91V38.25h-.752v2.172c0 .242-.043.422-.13.531-.132.2-.426.297-.873.297-.45 0-.74-.098-.873-.297-.086-.11-.13-.289-.13-.531V38.25h-.751v2.246zM158.524 39c.223 0 .392.023.505.066.196.078.298.23.298.453 0 .212-.106.348-.31.419-.117.042-.29.062-.524.062h-1.171v-1h1.202zm.149-.75h-2.103V42h.752v-1.25h1.147c.33 0 .553.035.67.102.117.07.18.203.188.406V42h.752V41.231c0-.223-.043-.403-.121-.544-.079-.14-.216-.246-.404-.324a.726.726 0 0 0 .404-.394 1.43 1.43 0 0 0 .121-.567c0-.156-.027-.3-.082-.425a1.298 1.298 0 0 0-.22-.34 1.074 1.074 0 0 0-.41-.282c-.165-.062-.396-.097-.694-.105zM164.005 38.25h-3.294V42h3.4v-.75h-2.398v-.75h2.104v-.75h-2.104V39h2.292v-.75zM166.481 39.105l.505 1.395h-1.022l.517-1.395zM164.61 42h.795l.278-.75h1.575l.27.75h.791l-1.496-3.75h-.701L164.609 42zM168.491 38.25V39h1.254v3h.752v-3h1.253v-.75h-3.259zM175.676 38.25h-3.294V42h3.4v-.75h-2.398v-.75h2.104v-.75h-2.104V39h2.292v-.75zM.679 23.422c0 .254.187 1.067.439 2.013a57.735 57.735 0 0 0 .857 2.901c4.409 9.31 11.929 12.414 18.67 12.414 10.892 0 20.227-8.535 20.227-20.172 0-7.468-4.045-14.08-10.365-17.484A20.046 20.046 0 0 0 20.611.5C9.512.5.515 9.473.515 20.543c0 .872.055 1.73.164 2.573v.306zm11.15-9.569H5.346c1.556-4.655 7.261-9.051 11.41-9.569-2.334 2.587-4.149 6.724-4.927 9.57zm10.373-6.982c1.555 2.069 2.852 4.655 3.63 6.982-2.075.518-3.371 3.621-5.186 5.431l-5.187-5.43c.52-1.811 3.112-8.535 5.187-8.535.778 0 1.296 1.034 1.556 1.551zm4.667 18.879H14.422c-.26-1.035 0-6.983 0-8.017.778.776 5.186 5.69 6.224 5.69 1.556 0 5.705-5.69 6.223-6.208 0 2.328 1.037 5.173 0 8.535zm-.778 3.362c-.778 1.293-3.37 6.983-5.445 6.983-1.816 0-5.187-6.724-5.187-6.983h10.632zm-9.915 7.697a16.928 16.928 0 0 1-9.953-7.425 5.801 5.801 0 0 1-.099-.272h5.705c.772 2.566 1.799 5.131 4.347 7.697zm18.989-7.697a16.952 16.952 0 0 1-4.603 5.053 16.85 16.85 0 0 1-5.267 2.575c1.935-3.117 3.181-4.895 4.427-7.628h5.443zm2.014-11.897c.216 1.076.33 2.189.33 3.328a16.8 16.8 0 0 1-.822 5.207H30.5c0-.259.259-.776.259-5.948 0-1.035-.26-1.81-.519-2.587h6.94zM26.373 4.695c.296.107.588.223.876.345 1.781.78 3.742 2.097 5.402 3.679a16.877 16.877 0 0 1 3.474 5.135h-6.663c-1.037-2.845-2.334-6.983-4.927-9.57.555.04 1.177.182 1.838.411zM3.897 18.05c.042-.28.09-.558.146-.834h6.749c0 2.587-.26 4.914 0 8.535H4.568c-.259-1.552-.777-4.397-.777-5.172 0-.396.15-1.547.107-2.53zm-2.78 7.386c.07.276.145.55.226.822a57.735 57.735 0 0 1-.225-.822z" fill="#fff"/></svg>