<svg xmlns="http://www.w3.org/2000/svg" viewBox="0 0 180 50"><defs><style>.a{fill:#fff}.b{fill:#e94a00}</style></defs><title>logo-onecampus-orange-iso</title><path class="a" d="M56.55 27a3.93 3.93 0 0 1-3.21-1.46 6.41 6.41 0 0 1-1.19-4.16 6.41 6.41 0 0 1 1.19-4.16 3.93 3.93 0 0 1 3.21-1.46 3.88 3.88 0 0 1 3.19 1.47 6.49 6.49 0 0 1 1.18 4.16 6.48 6.48 0 0 1-1.18 4.16A3.88 3.88 0 0 1 56.55 27zm7.63-5.62q0-4.35-2.41-6.53A7 7 0 0 0 56.54 13a7 7 0 0 0-5.22 1.85q-2.43 2.15-2.43 6.53a8.49 8.49 0 0 0 2.42 6.53 7 7 0 0 0 5.22 1.85 7 7 0 0 0 5.23-1.85 8.52 8.52 0 0 0 2.41-6.53zM72.32 17.25a3.84 3.84 0 0 0-2.36.69 5.19 5.19 0 0 0-1.1 1.27V17.5h-3v12h3V23a4.71 4.71 0 0 1 .31-1.84 2.18 2.18 0 0 1 2.19-1.36 1.78 1.78 0 0 1 1.76.93 3.37 3.37 0 0 1 .25 1.46v7.31h3v-8.12a3.91 3.91 0 0 0-1.14-3.2 4.48 4.48 0 0 0-2.92-.93zM83.71 19.75a2.66 2.66 0 0 1 1.81.64 2.59 2.59 0 0 1 .81 1.86h-5.26a3.22 3.22 0 0 1 .81-1.82 2.42 2.42 0 0 1 1.83-.68zm0-2.5a5.37 5.37 0 0 0-4.06 1.64 6.53 6.53 0 0 0-1.56 4.7q0 3.27 1.72 4.72a6 6 0 0 0 4 1.45A5.43 5.43 0 0 0 88 28.07 3.74 3.74 0 0 0 89.09 26h-2.86a2.46 2.46 0 0 1-.62.75 2.64 2.64 0 0 1-1.67.5 2.73 2.73 0 0 1-2.87-3h8.25a15.42 15.42 0 0 0-.1-2.32 5.81 5.81 0 0 0-.9-2.41 4.69 4.69 0 0 0-2-1.73 6.32 6.32 0 0 0-2.67-.55zM90.51 21.43a8.92 8.92 0 0 0 2 6.1 6.78 6.78 0 0 0 5.37 2.21 6.47 6.47 0 0 0 4.52-1.6 7 7 0 0 0 2.2-4.15h-3.26a5 5 0 0 1-.85 1.85A3.27 3.27 0 0 1 97.74 27a3.52 3.52 0 0 1-2.85-1.37 6.4 6.4 0 0 1-1.12-4.12 7.33 7.33 0 0 1 1.06-4.25 3.36 3.36 0 0 1 2.9-1.5 3.31 3.31 0 0 1 2.72 1.13 5.06 5.06 0 0 1 .84 1.88h3.26a6 6 0 0 0-1.09-3Q101.61 13 97.63 13a6.56 6.56 0 0 0-4.9 2 8.86 8.86 0 0 0-2.22 6.46zM113.23 24.58a2.42 2.42 0 0 1-.88 2.09 3.23 3.23 0 0 1-1.85.57 1.69 1.69 0 0 1-1.08-.34 1.33 1.33 0 0 1-.44-1.12 1.39 1.39 0 0 1 .72-1.29 4.63 4.63 0 0 1 1.41-.42l.7-.12a5.13 5.13 0 0 0 .83-.21 3.35 3.35 0 0 0 .6-.29v1.13zm-2.9-2.27a7.31 7.31 0 0 0-2.69.76 3.38 3.38 0 0 0-1.64 3.16 3.31 3.31 0 0 0 1 2.6 3.73 3.73 0 0 0 2.6.92 4 4 0 0 0 2.21-.62 6.35 6.35 0 0 0 1.44-1.29c0 .32 0 .61.09.86a4.68 4.68 0 0 0 .2.8H117V29a1.31 1.31 0 0 1-.54-.3 1.14 1.14 0 0 1-.22-.7V21.06a3.11 3.11 0 0 0-1.5-3 7.15 7.15 0 0 0-3.44-.81q-3 0-4.19 1.52a4.33 4.33 0 0 0-.87 2.48h3a2 2 0 0 1 .44-1 2.06 2.06 0 0 1 1.57-.5 3.22 3.22 0 0 1 1.5.28 1 1 0 0 1 .51 1 .93.93 0 0 1-.65.88 4.7 4.7 0 0 1-1.22.27l-1 .13zM131.62 17.25a4.58 4.58 0 0 0-2.07.46 3.79 3.79 0 0 0-1.47 1.45 3.39 3.39 0 0 0-1-1.35 4.5 4.5 0 0 0-4.53.09 4.79 4.79 0 0 0-1.09 1.25V17.5h-2.76v12h3v-7.36a3.56 3.56 0 0 1 .25-1.5 1.8 1.8 0 0 1 1.77-.89 1.5 1.5 0 0 1 1.52.89 4.29 4.29 0 0 1 .22 1.58v7.28h3v-7.26a3.48 3.48 0 0 1 .25-1.39 1.78 1.78 0 0 1 1.77-1.1 1.55 1.55 0 0 1 1.52.85 2.67 2.67 0 0 1 .22 1.14v7.76h3v-7.62a11.35 11.35 0 0 0-.11-1.79 3.62 3.62 0 0 0-.65-1.55 3.37 3.37 0 0 0-1.34-1 4.13 4.13 0 0 0-1.5-.29zM146.17 23.4a5 5 0 0 1-.69 2.8 2.25 2.25 0 0 1-2 1.05 2.47 2.47 0 0 1-1.57-.52 3.89 3.89 0 0 1-1-3 6.62 6.62 0 0 1 .32-2.26 2.3 2.3 0 0 1 2.3-1.68 2.14 2.14 0 0 1 2 1.11 5.1 5.1 0 0 1 .62 2.54zm-1.83-6.15a4 4 0 0 0-2.4.73 4.62 4.62 0 0 0-1 1.13V17.5h-3V34h3v-6a4.31 4.31 0 0 0 1 1.1 3.8 3.8 0 0 0 2.32.68 4.45 4.45 0 0 0 3.58-1.65 7.26 7.26 0 0 0 1.39-4.79 6.5 6.5 0 0 0-1.41-4.52 4.49 4.49 0 0 0-3.43-1.54zM151.11 17.5v7.27a7.39 7.39 0 0 0 .52 3.13q.92 1.86 3.58 1.86a5 5 0 0 0 1.61-.23 4.36 4.36 0 0 0 1.43-.87 2.09 2.09 0 0 0 .42-.47l.22-.32v1.63h2.76v-12h-3v6.57a4.69 4.69 0 0 1-.31 1.87 2.24 2.24 0 0 1-2.24 1.31 1.7 1.7 0 0 1-1.71-.92 3.79 3.79 0 0 1-.25-1.55V17.5h-3zM163.56 25.5a3.93 3.93 0 0 0 1.33 3.05 6 6 0 0 0 4.11 1.2 6.17 6.17 0 0 0 4-1.1 3.56 3.56 0 0 0 1.31-2.85 3 3 0 0 0-.86-2.21 5.62 5.62 0 0 0-2.79-1.29 22.75 22.75 0 0 1-3.37-.82.76.76 0 0 1-.49-.73.85.85 0 0 1 .46-.7 3 3 0 0 1 1.56-.3 2.47 2.47 0 0 1 1.88.6 1.61 1.61 0 0 1 .36.9h3a3.86 3.86 0 0 0-1.63-3.1 6.77 6.77 0 0 0-3.67-.9 5.36 5.36 0 0 0-3.68 1.16 3.62 3.62 0 0 0-1.3 2.79 2.66 2.66 0 0 0 .82 2.1 6.62 6.62 0 0 0 2.91 1.22 18.56 18.56 0 0 1 3.35.9.87.87 0 0 1-.13 1.57 3.65 3.65 0 0 1-1.52.26 3.14 3.14 0 0 1-2.24-.61 1.92 1.92 0 0 1-.44-1.14h-3zM173.26 16.56v.26h.43V18h.31v-1.18h.43v-.26h-1.17zM175.3 17.69l-.3-1.13h-.4V18h.28v-1-.21l.26 1.21h.29l.27-1.21V18h.3v-1.44h-.43l-.26 1.13zM139.35 39a.9.9 0 0 0-.45.1.83.83 0 0 0-.27.23v-1.08h-.5v3h.5v-.33a.81.81 0 0 0 .24.22 1.07 1.07 0 0 0 1.25-.22 1.25 1.25 0 0 0 .27-.83 1.14 1.14 0 0 0-.28-.79 1 1 0 0 0-.76-.3zm-.07 1.75a.63.63 0 0 1-.49-.17.61.61 0 0 1-.16-.44.76.76 0 0 1 .08-.37.69.69 0 0 1 1.1 0 .78.78 0 0 1 .08.36.61.61 0 0 1-.16.45.58.58 0 0 1-.44.17zM140.57 42.25h.36a1.06 1.06 0 0 0 .7-.17 2.56 2.56 0 0 0 .42-.87l.71-2.21h-.49l-.56 1.66-.58-1.66h-.49l.73 2.25c.17 0 .23.09.17.2a.51.51 0 0 1-.2.21.9.9 0 0 1-.28.07h-.49v.5zM144.65 42h3v-.75h-2.25v-3h-.75V42zM150.17 39.11l.51 1.39h-1l.52-1.39zM148.3 42h.8l.28-.75h1.57l.26.75h.79l-1.5-3.75h-.7L148.3 42zM152.43 40.5a1.63 1.63 0 0 0 .22.91 2.29 2.29 0 0 0 3.08 0 1.66 1.66 0 0 0 .22-.91v-2.25h-.75v2.17a.87.87 0 0 1-.13.53 1.43 1.43 0 0 1-1.75 0 .87.87 0 0 1-.13-.53v-2.17h-.75v2.25zM158.52 39a1.5 1.5 0 0 1 .51.07.45.45 0 0 1 .3.45.41.41 0 0 1-.31.42 1.62 1.62 0 0 1-.52.06h-1.17v-1h1.2zm.15-.75h-2.1V42h.75v-1.25h1.15a1.51 1.51 0 0 1 .67.1.45.45 0 0 1 .19.41V42h.75v-.77a1.1 1.1 0 0 0-.12-.54.78.78 0 0 0-.4-.32.73.73 0 0 0 .44-.37 1.43 1.43 0 0 0 .12-.57A1.06 1.06 0 0 0 160 39a1.3 1.3 0 0 0-.22-.34 1.07 1.07 0 0 0-.41-.28 2.19 2.19 0 0 0-.69-.11zM164 38.25h-3.29V42h3.4v-.75h-2.4v-.75h2.1v-.75h-2.1V39H164v-.75zM166.48 39.11l.52 1.39h-1l.52-1.39zM164.61 42h.8l.28-.75h1.57l.27.75h.79l-1.5-3.75h-.7L164.61 42zM168.49 38.25V39h1.25v3h.75v-3h1.25v-.75h-3.26zM175.68 38.25h-3.29V42h3.4v-.75h-2.4v-.75h2.1v-.75h-2.1V39h2.29v-.75z"/><path class="b" d="M.68 23.42a13.36 13.36 0 0 0 .44 2l.23.82c.2.76.43 1.52.65 2.1 4.38 9.31 11.9 12.41 18.65 12.41a20.06 20.06 0 0 0 20.22-20.17A19.74 19.74 0 0 0 30.51 3.09a20.08 20.08 0 0 0-29.83 20v.31zm11.15-9.57H5.35C6.9 9.2 12.61 4.8 16.76 4.28a26 26 0 0 0-4.93 9.57zm10.37-7a25.65 25.65 0 0 1 3.63 7c-2.07.52-3.37 3.62-5.19 5.43l-5.19-5.43c.55-1.85 3.12-8.53 5.2-8.53.77 0 1.29 1.03 1.55 1.55zm4.67 18.88H14.42c-.26-1 0-7 0-8 .78.78 5.19 5.69 6.22 5.69 1.56 0 5.7-5.69 6.22-6.21.01 2.33 1.05 5.18.01 8.54zm-.78 3.36c-.78 1.29-3.37 7-5.45 7-1.82 0-5.19-6.72-5.19-7h10.64zm-9.92 7.7a16.93 16.93 0 0 1-10-7.42l-.1-.27h5.7a17 17 0 0 0 4.41 7.71zm19-7.7a17 17 0 0 1-4.1 4.67l-.51.38a16.85 16.85 0 0 1-5.27 2.57 64 64 0 0 0 4.43-7.63h5.44zm2-11.9a16.93 16.93 0 0 1-.49 8.54H30.5a34.18 34.18 0 0 0 .26-5.95 7.63 7.63 0 0 0-.52-2.59h6.94zM26.37 4.7l.88.3a19.59 19.59 0 0 1 5.4 3.68 16.88 16.88 0 0 1 3.47 5.14h-6.66c-1-2.84-2.33-7-4.93-9.57a7.29 7.29 0 0 1 1.84.45zM3.9 18q.1-.37.1-.78h6.75c0 2.59-.26 4.91 0 8.53H4.57c-.26-1.55-.78-4.4-.78-5.17 0-.4.15-1.58.11-2.58zm-2.78 7.44q.1.41.23.82z"/></svg>