<svg xmlns="http://www.w3.org/2000/svg" viewBox="0 0 420.28 107.33"><defs><style>.a{fill:#fff}</style></defs><title>logo-laureate-white</title><path class="a" d="M184.26 27.43V.02h-7.58v33.06h21.43v-5.65h-13.85zM388.33 0h-31.28v5.66h13.04v27.65h7.4V5.66h10.84V0zM325.21 5.7V.04h-20.85v33.13h20.85v-6.05h-13.83v-7.66h9.72V13.8h-9.72V5.7h13.83zM414.91 5.7V.04h-20.85v33.13h20.85v-6.05h-13.83v-7.66h9.72V13.8h-9.72V5.7h13.83zM228.53 33.07h6.85L220.31.36V.11H216.07v.31l-15 32.49h6.79l3.5-7.6H225zM214 19.69l4.17-9 4.17 9H214zM355.85 33.07h6.85L347.63.36V.11H343.39v.31l-15 32.49h6.79l3.5-7.6h13.57zm-14.52-13.38l4.17-9 4.17 9h-8.35zM259.86.12v24.26a14.72 14.72 0 0 1-9.22 3.21 23.8 23.8 0 0 1-3.71-.29c-4.29 0-3.47-7.46-3.47-7.46V.28l-7.08-.16v24.44c.79 5.45 3.85 7.79 7.24 8.44a41.8 41.8 0 0 0 5.93.16 15.42 15.42 0 0 0 10.31-3.47v3.57H267V.12h-7.1zM290.27 19.19c4.32-1.71 5.49-4.52 5.49-4.52 2.9-7.42-.9-12-4.52-14.05a7.52 7.52 0 0 0-2.08-.5H273.9v33.13h6.6v-12h4l8.22 11.16h6.9zm-.65-6.78a6.63 6.63 0 0 1-1.58 2.3 3.08 3.08 0 0 1-2.46.91h-5.08V5.78h5.69c3.21.88 4.6 3.58 3.43 6.63zM138.65.46h2.08v106.87h-2.08zM60.32 58.5h22c20.54-28.14 20-57.18 20-57.18A166.14 166.14 0 0 0 60 15.85h.34V58.5z"/><path class="a" d="M50.11 21.48C-1.33 54 0 106.11 0 106.11 36.51 98.9 60 83.83 75.06 67.3H50.11V21.48zM295.51 49l-10.14 22.16h1.33l3.38-7.4.17-.37h11.21l.17.37 3.37 7.4h1.26L296.17 49h-.66zm-4.83 13.4l.41-.9 4.17-9.12.57-1.26.58 1.26 4.16 9.12.43.9m-18.26 7.72h1.07v-22h-1.17v20.12l-1.12-1.39c-1.32-1.63-2.54-3.12-3.72-4.55s-2.47-2.95-3.71-4.39-2.78-3.23-4.09-4.91-2.66-3.29-3.94-4.88h-1v22h1.17v-20l1.12 1.36zm19.11 25.13a19.07 19.07 0 0 0-2.6-.89c-.67-.2-1.29-.39-1.74-.55a12.82 12.82 0 0 1-3.75-1.93 3.76 3.76 0 0 1-1.18-2.88 4.16 4.16 0 0 1 1.42-3.18 5.08 5.08 0 0 1 1.55-1 5.3 5.3 0 0 1 1.92-.32 6.91 6.91 0 0 1 3 .66c.44.21.87.43 1.27.64l.52.27v-1.41a11.86 11.86 0 0 0-1.7-.77 9.14 9.14 0 0 0-3.28-.55 6.12 6.12 0 0 0-4.36 1.71 5.12 5.12 0 0 0-1.77 3.95 4.79 4.79 0 0 0 1.22 3.56 7.76 7.76 0 0 0 1.57 1.16 12.85 12.85 0 0 0 2.35 1l1.18.4a17.55 17.55 0 0 1 4.48 1.88 4 4 0 0 1 1.38 3.24 4.39 4.39 0 0 1-1.45 3.35c-1.23 1.13-4.67 1.17-5.06 1.17a6.76 6.76 0 0 1-2.68-.61 14.53 14.53 0 0 1-1.53-.83c-.32-.2-.71-.45-1.15-.77V104a6.88 6.88 0 0 0 .78.48c.4.2.86.42 1.44.67a8 8 0 0 0 3.44.72c1.68 0 4.61-.41 5.81-1.54a5.27 5.27 0 0 0 1.8-4 5.49 5.49 0 0 0-1.19-3.81 6.31 6.31 0 0 0-1.71-1.27zm-44.5-.17h9v-1h-9v-9.4h10.5v-1H256v21.95h12v-1h-10.67v-9.56zm24-.28a6.33 6.33 0 0 0 .87-.24l.78-.36a6.41 6.41 0 0 0 2.25-1.55 4.66 4.66 0 0 0 1.21-3.34 4.91 4.91 0 0 0-1.89-4.19 6.24 6.24 0 0 0-2.33-1.12 12.43 12.43 0 0 0-3.12-.35h-5.43v21.95H275V94.88h4.75l8.75 10.76h1.5zm-2.35-.88h-4v-9.24h4.11a7 7 0 0 1 4.27 1.19 3.92 3.92 0 0 1 1.61 3.4 4 4 0 0 1-1.63 3.46 7.34 7.34 0 0 1-4.43 1.18zm-17.73-23.76c-2.27-3.54-5.39-8.37-5.86-9l-.88-.64 1.08-.42a9.61 9.61 0 0 0 2.72-1.92 4.66 4.66 0 0 0 1.21-3.34 4.93 4.93 0 0 0-1.89-4.19 6.15 6.15 0 0 0-2.27-1.08 12.47 12.47 0 0 0-3.12-.35h-5.43v21h1.29v-9.81h5.41l.19.29 6 9.46h1.51zm-9.2-10.72h-3.95v-9.23h4.11a7 7 0 0 1 4.27 1.2 3.91 3.91 0 0 1 1.61 3.4 4 4 0 0 1-1.63 3.46 7.31 7.31 0 0 1-4.42 1.17zm58.22 46.19h1.26V83.68h-1.26v21.95zm33.91-35.29a11.36 11.36 0 0 0 8.2-3.24 10.4 10.4 0 0 0 3.31-7.93 10.5 10.5 0 0 0-3.31-8 11.36 11.36 0 0 0-8.2-3.2 11.2 11.2 0 0 0-8.2 3.24 10.58 10.58 0 0 0-3.28 7.92 11.29 11.29 0 0 0 .83 4.37 10.65 10.65 0 0 0 2.45 3.65 11.31 11.31 0 0 0 8.18 3.2zM337 52.11a10.05 10.05 0 1 1 14.28 14.15 9.7 9.7 0 0 1-7.14 2.94 9.8 9.8 0 0 1-7.14-2.93 10 10 0 0 1 0-14.16zM392.51 49L382.4 70h1.33l3.36-6.23.18-.33h11.15l.18.33L402 70h1.28l-10.09-21h-.68zm5.06 12.45l.43.95h-10.3l.41-.9 4.17-9.12.58-1.26.58 1.26zM371.48 95a18.91 18.91 0 0 0-2.6-.89c-.67-.2-1.29-.38-1.74-.55a12.72 12.72 0 0 1-3.75-1.93 3.75 3.75 0 0 1-1.16-2.93 4.16 4.16 0 0 1 1.46-3.13 4.89 4.89 0 0 1 1.56-1 5.31 5.31 0 0 1 1.92-.32 7 7 0 0 1 3 .66l1.26.64.57.29v-1.41a12.17 12.17 0 0 0-1.7-.78 9.14 9.14 0 0 0-3.3-.55 6.1 6.1 0 0 0-4.36 1.71 5.12 5.12 0 0 0-1.8 3.93 4.78 4.78 0 0 0 1.16 3.55 7.58 7.58 0 0 0 1.57 1.16 12.51 12.51 0 0 0 2.35 1l1.18.4a17.85 17.85 0 0 1 4.46 1.86A4 4 0 0 1 373 100a4.4 4.4 0 0 1-1.45 3.36c-1.23 1.13-4.67 1.17-5.06 1.17a6.77 6.77 0 0 1-2.69-.61 14.87 14.87 0 0 1-1.53-.83c-.32-.19-.7-.45-1.15-.77v1.48a7 7 0 0 0 .79.48c.41.21.89.44 1.44.68a8 8 0 0 0 3.44.72c1.68 0 4.61-.41 5.8-1.54a5.26 5.26 0 0 0 1.8-4 5.49 5.49 0 0 0-1.19-3.81 6.33 6.33 0 0 0-1.72-1.33zm5.12-26.73l-1.12-1.39c-1.32-1.63-2.54-3.12-3.72-4.55-1.4-1.68-2.58-3.08-3.72-4.39-1.33-1.54-2.7-3.17-4.08-4.86-1.24-1.53-2.53-3.12-3.94-4.88h-1v22h1.18v-20l1.12 1.36 15.38 18.56h1.07v-22h-1.17v20.12zm-61.7 16.47h8.39v20.92h1.29v-21H333v-1h-18.11v1zm7.73-35.5h-18.1v1h8.4v20.19h1.29V50.21h8.4v-1zm5.49 21V49h-1.26v21.19h1.26zm18.16 24.88h8.25v-1h-8.25v-9.4h10.49v-1H345v21.95h12v-1h-10.74v-9.6zm-8.76 10.56h1.26v-22h-1.28v21.95zm71.73-55.29h-1.29v20.69h12.34V70h-11.07V50.34zM240.94 69.4h-10.72v-8.8h8.31v-1h-8.31v-9.4h10.5v-1h-11.8v21.23h12v-1zm-15.45 36.23h1.26V83.68h-1.26v21.95zm16.09-4L241 103l-.58-1.41-7.47-17.9h-1.25l9.21 22.18h.21l9.25-22.18H249zM201.5 67.49c-1.23-1.52-2.48-3.05-3.72-4.55s-2.48-3-3.71-4.39c-1.37-1.59-2.75-3.22-4.08-4.86s-2.52-3.11-3.94-4.88h-1V70h1.17V50.8l1.11 1.29L202.72 70h1.08V48.8h-1.18v20.08zM178.18 70V49.22h-1.26V70h1.26zm15.06 26a10.9 10.9 0 0 1-.54 3.57 8.53 8.53 0 0 1-1.58 2.79 7.22 7.22 0 0 1-5.69 2.41 7.52 7.52 0 0 1-5.78-2.34 9 9 0 0 1-2.1-6.27V83.68h-1.29V96.3a9.72 9.72 0 0 0 2.54 7 8.7 8.7 0 0 0 6.59 2.65 8.38 8.38 0 0 0 6.58-2.77 1.54 1.54 0 0 1 .14-.18l1.1-1.19v3.71h1.19v-8.45a8.15 8.15 0 0 0 .06-.86V83.68h-1.29V96zm22.91-26V50.21h8.4v-1h-18.09v1h8.4V70h1.3zm1.45 33.82l-1.13-1.4c-1.17-1.45-2.38-2.94-3.71-4.55s-2.56-3.05-3.72-4.38c-1.49-1.73-2.82-3.33-4.08-4.87s-2.52-3.11-3.94-4.88h-1v21.95h1.17v-20l1.09 1.31 15.42 18.66h1.07V83.68h-1.17v20.09z"/></svg>