<svg width="150" height="36" viewBox="0 0 150 36" xmlns="http://www.w3.org/2000/svg" xmlns:xlink="http://www.w3.org/1999/xlink"><defs><path id="a" d="M35 0H0v35h35z"/><path id="c" d="M0 3h3V0H0z"/></defs><g fill="none" fill-rule="evenodd"><g><mask id="b" fill="#fff"><use xlink:href="#a"/></mask><path d="M24.132 10C22.9 6.98 21.212 4.533 20 3c4.322.759 7.973 3.395 10 7h-5.868zM32 18c0 1.386-.202 2.727-.57 4H25.5c.13-.868.204-1.779.204-2.734 0-1.841-.27-3.608-.704-5.266h6.43c.368 1.272.57 2.613.57 4zM21 31c1.548-1.525 3.426-3.868 4.523-7H31c-2.058 3.488-5.682 6.086-10 7zm-3.502-1c-1.155-.962-3.23-2.991-4.498-6h9c-1.262 3.02-3.336 5.039-4.502 6zM5 24h5.477c1.097 3.132 2.975 5.475 4.523 7-4.318-.914-7.943-3.512-10-7zm-2-6c0-1.387.202-2.728.57-4H10a20.723 20.723 0 0 0-.704 5.266c0 .955.074 1.866.203 2.734H3.57A14.346 14.346 0 0 1 3 18zM15 3c-1.212 1.533-2.9 3.98-4.132 7H5c2.026-3.605 5.677-6.241 10-7zm7.578 12.424c.264 1.228.422 2.51.422 3.829 0 .969-.085 1.884-.233 2.747h-10.53c-.15-.864-.237-1.78-.237-2.747 0-1.47.198-2.896.521-4.253l5.864 5.047 4.193-4.623zM16.962 5c1.099 1.446 2.825 4.01 4.038 7.194L17.588 16 13 12.006C14.21 8.912 15.887 6.42 16.962 5zm.538-5C7.85 0 0 7.85 0 17.5S7.85 35 17.5 35 35 27.15 35 17.5 27.15 0 17.5 0z" fill="#FFF" mask="url(#b)"/></g><path d="M50.81 19.183a4.466 4.466 0 0 1-.604 1.423c-.277.421-.637.76-1.082 1.013-.445.254-.986.381-1.624.381-.638 0-1.18-.127-1.624-.381a3.13 3.13 0 0 1-1.083-1.013 4.465 4.465 0 0 1-.604-1.423A6.956 6.956 0 0 1 44 17.556c0-.582.063-1.147.19-1.692a4.55 4.55 0 0 1 .603-1.46 3.105 3.105 0 0 1 1.083-1.023c.445-.254.986-.381 1.624-.381.638 0 1.179.127 1.624.381.445.254.805.595 1.082 1.023.277.428.478.914.605 1.46.126.545.189 1.11.189 1.692 0 .558-.063 1.1-.19 1.627m1.468-6.14a5.87 5.87 0 0 0-2.037-1.5C49.438 11.181 48.524 11 47.5 11c-1.013 0-1.923.181-2.732.543a5.847 5.847 0 0 0-2.046 1.5 6.704 6.704 0 0 0-1.278 2.24A8.444 8.444 0 0 0 41 18.065c0 .975.148 1.884.444 2.728a6.528 6.528 0 0 0 1.278 2.201 5.848 5.848 0 0 0 2.046 1.471c.81.357 1.72.535 2.732.535 1.024 0 1.938-.178 2.74-.535a5.871 5.871 0 0 0 2.038-1.47 6.522 6.522 0 0 0 1.278-2.202A8.174 8.174 0 0 0 54 18.065c0-.999-.148-1.927-.444-2.782a6.698 6.698 0 0 0-1.278-2.24M63.295 16.102c-.26-.345-.616-.615-1.068-.81-.451-.195-1.029-.292-1.734-.292a3.71 3.71 0 0 0-1.633.386c-.532.258-.965.669-1.3 1.234h-.055v-1.356H55V25h2.635v-5.104c0-.991.16-1.704.482-2.137.322-.433.841-.65 1.56-.65.63 0 1.07.198 1.317.593.247.396.37.996.37 1.799V25H64v-5.989c0-.603-.053-1.152-.158-1.647-.105-.496-.287-.917-.547-1.262M69 19c.011-.182.05-.388.113-.618a1.88 1.88 0 0 1 .952-1.173c.26-.14.586-.209.978-.209.6 0 1.048.17 1.342.509.295.34.5.836.615 1.491h-4zm5.907-2.272a4.402 4.402 0 0 0-1.56-1.26c-.634-.312-1.377-.468-2.23-.468-.762 0-1.457.129-2.083.386a4.939 4.939 0 0 0-1.619 1.057 4.626 4.626 0 0 0-1.046 1.59A5.288 5.288 0 0 0 66 20.018c0 .736.12 1.41.359 2.023a4.553 4.553 0 0 0 1.017 1.58c.44.441.976.782 1.61 1.02.632.24 1.343.359 2.131.359 1.137 0 2.107-.245 2.908-.735.8-.49 1.396-1.305 1.784-2.445h-2.424c-.09.294-.336.573-.736.836-.4.264-.88.395-1.434.395-.776 0-1.37-.19-1.784-.57-.414-.38-.64-.992-.678-1.838h7.23a6.39 6.39 0 0 0-.194-2.113 5.071 5.071 0 0 0-.882-1.802zM86.061 21.72c-.527.55-1.261.825-2.2.825-.69 0-1.277-.128-1.758-.384a3.3 3.3 0 0 1-1.174-1.022 4.336 4.336 0 0 1-.654-1.434 6.564 6.564 0 0 1-.206-1.64c0-.587.07-1.155.206-1.705.136-.55.355-1.04.654-1.47a3.28 3.28 0 0 1 1.174-1.032c.481-.256 1.068-.384 1.759-.384.378 0 .74.06 1.085.178.345.119.655.284.929.497.273.212.5.459.684.74.182.28.3.59.351.928h2.972c-.092-.775-.313-1.462-.665-2.062a5.07 5.07 0 0 0-1.339-1.508 5.993 5.993 0 0 0-1.838-.928 7.308 7.308 0 0 0-2.18-.319c-1.068 0-2.029.181-2.883.544a6.147 6.147 0 0 0-2.16 1.499 6.628 6.628 0 0 0-1.35 2.24A8.056 8.056 0 0 0 77 18.065c0 .975.157 1.884.469 2.728a6.455 6.455 0 0 0 1.35 2.201 6.176 6.176 0 0 0 2.16 1.472c.853.355 1.814.534 2.883.534.86 0 1.649-.126 2.365-.375a5.528 5.528 0 0 0 1.877-1.086 5.462 5.462 0 0 0 1.29-1.725A6.58 6.58 0 0 0 90 19.546h-2.971c-.118.9-.44 1.624-.968 2.174M97 20.924c0 .14-.017.326-.05.558a1.714 1.714 0 0 1-.267.69c-.145.226-.369.42-.673.583-.304.164-.733.245-1.287.245-.225 0-.443-.018-.654-.052a1.723 1.723 0 0 1-.554-.184.995.995 0 0 1-.377-.357 1.053 1.053 0 0 1-.138-.558c0-.233.046-.425.138-.576a1.17 1.17 0 0 1 .367-.375c.151-.1.33-.177.534-.235.205-.059.413-.105.624-.14.225-.035.449-.064.674-.087.224-.023.439-.052.643-.087.205-.035.396-.08.575-.131.178-.053.326-.125.445-.218v.924zm2.643 1.723v-4.945c0-.576-.139-1.039-.417-1.387a2.823 2.823 0 0 0-1.071-.819 5.086 5.086 0 0 0-1.449-.395A12.447 12.447 0 0 0 95.14 15c-.57 0-1.135.053-1.697.156a5.092 5.092 0 0 0-1.518.524c-.45.245-.82.57-1.11.974-.291.404-.457.913-.497 1.526h2.818c.052-.515.238-.882.555-1.103.318-.22.754-.33 1.31-.33.25 0 .486.015.704.045.218.031.41.092.576.184.165.092.297.22.396.386.1.166.15.39.15.671.012.27-.073.475-.259.616-.185.14-.436.248-.753.322a8.11 8.11 0 0 1-1.092.165c-.41.037-.826.086-1.25.147a12.84 12.84 0 0 0-1.26.248c-.416.105-.787.26-1.111.468-.324.21-.589.488-.793.837-.206.35-.308.794-.308 1.333 0 .49.09.913.268 1.268.178.356.426.65.744.883.317.233.687.404 1.11.514.424.11.88.166 1.37.166.635 0 1.257-.086 1.865-.257a3.731 3.731 0 0 0 1.588-.902 3.525 3.525 0 0 0 .198.92H100c-.132-.196-.225-.49-.277-.883a9.114 9.114 0 0 1-.08-1.23zM114.994 15.791a2.91 2.91 0 0 0-1.14-.602 5.274 5.274 0 0 0-1.443-.189c-.683 0-1.276.163-1.775.49a4.145 4.145 0 0 0-1.187 1.13c-.266-.603-.655-1.023-1.168-1.262a3.976 3.976 0 0 0-1.7-.358c-.644 0-1.217.138-1.717.415-.5.276-.928.665-1.282 1.167h-.037v-1.318H101V25h2.696v-5.65c0-.477.07-.863.21-1.158.138-.295.306-.52.502-.678.196-.156.399-.264.608-.32.208-.056.376-.085.503-.085.43 0 .757.073.978.217.221.144.38.336.475.574.095.239.148.5.16.782.014.282.02.568.02.857V25h2.696v-5.423c0-.302.022-.6.067-.895.044-.295.132-.559.265-.791.134-.232.317-.42.551-.565.234-.144.54-.217.92-.217s.681.063.903.189c.221.125.39.295.503.508.113.213.183.465.209.753.025.29.037.597.037.923V25H116v-6.516c0-.628-.089-1.164-.266-1.61a2.765 2.765 0 0 0-.74-1.083M121.336 23.703a2.31 2.31 0 0 1-.78-.772 3.406 3.406 0 0 1-.424-1.11 6.294 6.294 0 0 1-.132-1.29 7 7 0 0 1 .121-1.31c.08-.423.22-.797.416-1.121.195-.325.452-.588.769-.793.317-.204.711-.307 1.184-.307.458 0 .847.103 1.164.307.317.205.576.472.78.804.202.331.347.708.435 1.13.087.424.131.853.131 1.29 0 .438-.04.868-.121 1.29-.08.424-.22.794-.415 1.11a2.349 2.349 0 0 1-.77.772c-.317.198-.711.297-1.184.297-.459 0-.85-.099-1.174-.297m3.24 1.56a4.044 4.044 0 0 0 1.35-1.16c.36-.485.63-1.042.807-1.67a7.18 7.18 0 0 0 .267-1.967c0-.72-.089-1.412-.267-2.074a5.127 5.127 0 0 0-.817-1.74 4.157 4.157 0 0 0-1.387-1.2c-.559-.301-1.224-.452-1.997-.452-.608 0-1.166.125-1.673.373-.507.25-.925.649-1.255 1.2h-.037v-1.298H117V29h2.7v-4.818h.038c.33.499.751.875 1.264 1.131a3.723 3.723 0 0 0 1.683.383c.722 0 1.352-.144 1.891-.432M129.705 23.915c.26.346.615.614 1.067.801.452.19 1.03.284 1.735.284.557 0 1.1-.126 1.633-.377.532-.252.965-.661 1.3-1.227h.054v1.358H138V15h-2.636v5.113c0 .994-.16 1.708-.481 2.142-.322.434-.842.65-1.56.65-.63 0-1.07-.197-1.317-.594-.247-.396-.372-.996-.372-1.801V15H129v6c0 .604.053 1.154.158 1.65.104.498.287.92.547 1.265M147.042 19.844a3.753 3.753 0 0 0-.987-.488 11.62 11.62 0 0 0-1.137-.312 48.957 48.957 0 0 0-1.108-.24 8.632 8.632 0 0 1-.968-.247 2.046 2.046 0 0 1-.686-.359.709.709 0 0 1-.263-.57c0-.195.05-.351.151-.468a.974.974 0 0 1 .366-.267c.144-.061.303-.101.479-.12.176-.018.338-.027.488-.027.477 0 .89.09 1.24.267.352.178.546.518.583 1.02h2.537c-.05-.588-.203-1.075-.46-1.461a3.01 3.01 0 0 0-.968-.929 4.123 4.123 0 0 0-1.325-.496 7.86 7.86 0 0 0-1.531-.147 8.54 8.54 0 0 0-1.54.138 4.31 4.31 0 0 0-1.354.478 2.673 2.673 0 0 0-.968.928c-.243.392-.366.895-.366 1.508 0 .416.087.768.263 1.056.175.288.407.527.695.717.288.19.617.344.987.46.369.116.748.218 1.136.303.953.197 1.695.392 2.227.588.532.197.8.491.8.883a.951.951 0 0 1-.17.579 1.26 1.26 0 0 1-.423.367 2.02 2.02 0 0 1-.563.202 2.88 2.88 0 0 1-.592.065 3.11 3.11 0 0 1-.762-.092 1.995 1.995 0 0 1-.648-.285 1.534 1.534 0 0 1-.46-.496 1.404 1.404 0 0 1-.179-.726H139c.025.637.172 1.167.442 1.59.268.422.612.762 1.033 1.02.419.257.898.441 1.437.551.539.11 1.09.166 1.654.166a8.52 8.52 0 0 0 1.625-.156 4.17 4.17 0 0 0 1.419-.543 3.05 3.05 0 0 0 1.005-1.02c.257-.423.385-.946.385-1.571 0-.442-.088-.812-.263-1.113a2.374 2.374 0 0 0-.695-.753M148 14.185h.366V15h.269v-.815H149V14h-1zM149.712 14l-.205.687h-.002l-.218-.687H149v1h.191v-.702h.003l.227.702h.158l.227-.709h.003V15H150v-1zM146.705 34.681h1.05l-.093-.478h-.957v-.626h1.266V33h-1.956L146 36h2v-.55h-1.295zM134.558 34H134v-1h.653c.428-.003.53.93-.095 1m1.207-.214c-.022-.483-.594-.786-1.197-.786H133v3h.81v-1.199h.264L135.108 36l.892-.1-.988-1.145c.666-.23.774-.495.753-.969M126 35l.473-1 .527 1h-1zm.53-2L125 36h.852l.383-.724h1.479l.417.724H129l-1.582-3h-.887zM142 33.577h1.081V36h.731v-2.423H145V33h-3zM123.83 35.42V33H123v3h2l-.12-.58z" fill="#FFF"/><g transform="translate(129 33)"><mask id="d" fill="#fff"><use xlink:href="#c"/></mask><path d="M2.239 2.2c-.66.322-1.163.331-1.493-.013V0H0v2.187c0 .917 1.671 1.022 2.239.497v.313H3V0h-.761v2.2z" fill="#FFF" mask="url(#d)"/></g><path fill="#FFF" d="M137.705 34.681h1.05l-.093-.478h-.957v-.626h1.266V33h-1.956L137 36h2v-.55h-1.295zM140 35l.473-1 .527 1h-1zm.53-2L139 36h.852l.383-.724h1.478l.418.724H143l-1.582-3h-.887zM118.97 34.689a.439.439 0 0 1-.245.27.56.56 0 0 1-.225.041.561.561 0 0 1-.223-.04.434.434 0 0 1-.248-.271.615.615 0 0 1 0-.378.436.436 0 0 1 .09-.16.438.438 0 0 1 .158-.11.568.568 0 0 1 .223-.041c.088 0 .163.014.225.04a.446.446 0 0 1 .155.11c.041.048.071.1.09.161a.632.632 0 0 1 0 .378m-.233-.666a.765.765 0 0 0-.263-.202.711.711 0 0 0-.295-.066.867.867 0 0 0-.355.076.599.599 0 0 0-.27.241h-.009V33H117v2.946h.519v-.272h.007a.508.508 0 0 0 .262.252c.114.049.245.074.39.074a.72.72 0 0 0 .296-.066.76.76 0 0 0 .263-.202c.078-.091.141-.207.19-.348.05-.142.073-.31.073-.506 0-.195-.024-.364-.073-.505a1.057 1.057 0 0 0-.19-.35M120.02 35.014h-.009l-.44-1.014H119l.684 1.39a.193.193 0 0 1 .022.091.174.174 0 0 1-.051.12c-.034.037-.086.058-.156.064-.054.002-.106 0-.159-.003a14.282 14.282 0 0 0-.155-.011v.335l.165.01c.053.003.108.004.164.004a.972.972 0 0 0 .43-.077.535.535 0 0 0 .241-.258L121 34h-.554l-.427 1.014z"/></g></svg>