<svg width="40" height="40" viewBox="0 0 40 40" xmlns="http://www.w3.org/2000/svg" xmlns:xlink="http://www.w3.org/1999/xlink"><title>Group 10</title><defs><path id="a" d="M39.937.063V40H0V.063z"/></defs><g fill="none" fill-rule="evenodd"><circle fill="#FFF" cx="20" cy="20" r="19.467"/><g><mask id="b" fill="#fff"><use xlink:href="#a"/></mask><path d="M33.275 33.338a18.757 18.757 0 0 1-13.307 5.512 18.757 18.757 0 0 1-13.307-5.512 18.757 18.757 0 0 1-5.51-13.306A18.757 18.757 0 0 1 6.662 6.725a18.757 18.757 0 0 1 13.305-5.512 18.757 18.757 0 0 1 13.307 5.512 18.757 18.757 0 0 1 5.512 13.307 18.757 18.757 0 0 1-5.512 13.307M19.968.062C8.94.063 0 9.003 0 20.032 0 31.06 8.94 40 19.968 40c11.029 0 19.969-8.94 19.969-19.968 0-11.029-8.94-19.969-19.969-19.969" fill="#389FD9" mask="url(#b)"/></g><path fill="#389FD9" d="M9.738 8.411l1.051 1.255.59-.494-1.052-1.254.43-.361-.416-.497-1.45 1.215.417.497zM13.522 7.75l-.332-.546-.772.47-.11-.182.68-.415-.31-.51-.681.415-.103-.168.726-.442-.333-.546-1.343.818 1.189 1.952zM14.712 6.23l-.345.136-.034-.594.38.458zm-.282 1.104l-.018-.354.675-.267.234.269.778-.307-1.668-1.799-.76.3.002 2.457.757-.299zM17.042 6.483L16.8 5.214l.016-.002.621 1.207.536-.087.214-1.34h.02l.183 1.272.74-.12-.367-2.256-1.024.166-.157 1.272-.016.002-.606-1.147-.992.16.367 2.257zM20.791 6.211l.438-1.26.013.002.215 1.313.772.065.823-2.225-.785-.066-.354 1.26H21.9l-.18-1.305-.8-.067-.37 1.259-.014-.001-.138-1.3-.81-.068.431 2.329zM24.125 5.612a.58.58 0 0 1 .094-.182.422.422 0 0 1 .303-.169.459.459 0 0 1 .45.248c.026.053.04.112.043.177a.58.58 0 0 1-.03.202.604.604 0 0 1-.095.187.481.481 0 0 1-.14.124.429.429 0 0 1-.35.037.442.442 0 0 1-.161-.09.41.41 0 0 1-.105-.145.496.496 0 0 1-.04-.182.604.604 0 0 1 .031-.207m-.702.705c.075.136.177.255.307.358.13.103.28.182.452.237.173.055.341.079.507.07a1.13 1.13 0 0 0 .833-.397c.107-.123.189-.272.244-.446.056-.174.076-.341.06-.502a1.09 1.09 0 0 0-.14-.44 1.202 1.202 0 0 0-.312-.35c-.13-.1-.281-.179-.453-.234a1.47 1.47 0 0 0-.506-.074c-.164.006-.316.04-.455.105-.14.063-.262.156-.369.276-.106.12-.188.268-.243.442a1.257 1.257 0 0 0-.061.506c.015.163.06.313.136.449M27.26 6.316l.16.088c.02.012.042.025.065.042a.228.228 0 0 1 .056.056.144.144 0 0 1 .025.075.18.18 0 0 1-.027.096.163.163 0 0 1-.158.091.261.261 0 0 1-.089-.017.613.613 0 0 1-.077-.035l-.132-.073.177-.323zM26.453 7.8l.393-.716.02.011-.01.927.774.425-.063-1.091a.669.669 0 0 0 .379-.074.667.667 0 0 0 .268-.275.649.649 0 0 0 .028-.657.843.843 0 0 0-.203-.247 1.667 1.667 0 0 0-.277-.19l-.862-.475-1.1 2.003.653.36zM28.482 9.115l.574-.706.005.004-.1 1.091.73.595.084-1.53 1.326-.27-.701-.57-1.005.269-.005-.004.531-.654-.576-.468-1.441 1.773zM16.689 20.028v.003a.2.2 0 0 1-.005-.003l-.027.087c-.102.138-.476.535-1.44.55-.99.014-1.385-.437-1.482-.576l-.02-.06-.004.002v-.003s-.16.112-.425.26l-.184.1a6.865 6.865 0 0 1-.632.29 5.412 5.412 0 0 1-.66.219c-.784.199-.822 1.103-.791 1.55 0 0 .045.61.09.874l.125 1.325c0 .317.853.585 2.037.68a4.723 4.723 0 0 1 .003-.284c.008-.174.025-.339.053-.496.02-.117.046-.23.078-.338a2.547 2.547 0 0 1 .202-.494c.082-.15.178-.285.288-.404a1.821 1.821 0 0 1 .728-.478c.064-.023.13-.043.197-.06.073-.019.147-.04.222-.061a7.651 7.651 0 0 0 .716-.25 9.439 9.439 0 0 0 .908-.418l.271-.146a10.57 10.57 0 0 0 .302-.177c.188-.114.295-.188.297-.19l.11-.076a3.846 3.846 0 0 1-.626-1.22c-.209-.12-.331-.206-.331-.206"/><path d="M13.432 18.593c.09.59.545 1.338 1.29 1.6a1.4 1.4 0 0 0 .948-.002c.379-.136.687-.402.91-.707a4.686 4.686 0 0 1-.196-.58c-.193-.684-.177-1.14.049-1.44a.75.75 0 0 1 .115-.121 3.72 3.72 0 0 1-.01-.05c-.116-.603-.117-1.093-.001-1.54a3.09 3.09 0 0 1 .222-.632.412.412 0 0 0-.104-.027s-.065-.125-.223-.27l-.055-.048a1.554 1.554 0 0 0-.243-.165 1.756 1.756 0 0 0-1.068-.225 1.58 1.58 0 0 0-.426.08c-.17.057-.327.143-.469.24-.05.031-.1.066-.148.102l-.022.016a2.49 2.49 0 0 0-.31.28c-.23.234-.434.535-.521.913-.074.282-.057.576.004.893.017.092.04.185.076.28-.173-.017-.376.082-.185.762.138.495.268.634.367.641M26.801 20.288c-.265-.148-.424-.26-.424-.26l-.001.003-.004-.003-.027.087c-.103.138-.476.535-1.441.55-.99.014-1.384-.437-1.482-.576l-.019-.06-.004.002v-.003s-.125.087-.337.21c-.123.404-.33.808-.602 1.17l-.03.038.122.085.01.007a3.926 3.926 0 0 0 .151.098 8.882 8.882 0 0 0 .437.26l.272.147a10.068 10.068 0 0 0 1.155.513c.243.089.47.16.69.216a1.887 1.887 0 0 1 .925.538 1.93 1.93 0 0 1 .289.404c.049.09.093.186.131.287.052.134.094.278.126.43a3.84 3.84 0 0 1 .078.892c1.159-.1 1.988-.365 1.988-.677l-.002-.016.177-1.309c.045-.265.09-.873.09-.873.03-.448-.007-1.352-.791-1.551a5.42 5.42 0 0 1-.66-.218 6.865 6.865 0 0 1-.633-.291l-.184-.1z" fill="#389FD9"/><path d="M23.55 17.283v.009l-.003.009a3.84 3.84 0 0 1-.009.044.753.753 0 0 1 .117.123c.226.299.241.755.049 1.435a4.704 4.704 0 0 1-.202.588c.22.304.525.568.909.703a1.4 1.4 0 0 0 .947-.003c.734-.265 1.205-1.01 1.295-1.598.099-.007.23-.146.369-.641.19-.67-.008-.774-.18-.763l-.003-.005c.032-.091.056-.184.074-.274.291-1.754-.57-1.816-.57-1.816s-.065-.125-.223-.27l-.055-.048a1.548 1.548 0 0 0-.243-.165 1.756 1.756 0 0 0-1.068-.225 1.58 1.58 0 0 0-.426.08c-.17.057-.327.143-.47.24-.05.031-.099.066-.147.102l-.022.016a2.504 2.504 0 0 0-.237.204c.22.56.254 1.316.099 2.255" fill="#389FD9"/><path d="M27.416 27.594a10.73 10.73 0 0 1-1.295 1.103l.045-.913.044-.912.02-.125a8.59 8.59 0 0 0 .042-.358l.005-.055a22.828 22.828 0 0 0 .069-.78l.01-.359a3.868 3.868 0 0 0-.04-.509 3.006 3.006 0 0 0-.078-.353 1.81 1.81 0 0 0-.223-.5 1.385 1.385 0 0 0-.861-.616 8.736 8.736 0 0 1-1.256-.437 10.353 10.353 0 0 1-.692-.33l-.278-.15a9.798 9.798 0 0 1-.596-.362l-.044-.03-.138-.138a3.299 3.299 0 0 1-1.24.816 2.552 2.552 0 0 1-1.738.005 3.226 3.226 0 0 1-1.242-.806l.058-.057-.128.125-.06.059s-.241.164-.64.388l-.278.15a10.985 10.985 0 0 1-.954.439 8.753 8.753 0 0 1-.995.328c-.11.029-.211.066-.303.111a1.385 1.385 0 0 0-.558.504 1.813 1.813 0 0 0-.222.5 2.53 2.53 0 0 0-.078.354 3.281 3.281 0 0 0-.04.509 4.586 4.586 0 0 0 .01.36 33.446 33.446 0 0 0 .091.995 8.98 8.98 0 0 0 .044.322l.066 1.916a10.48 10.48 0 0 1-1.422-1.194 10.464 10.464 0 0 1-3.085-7.448c0-2.813 1.095-5.458 3.085-7.448a10.464 10.464 0 0 1 7.447-3.085c2.814 0 5.459 1.096 7.448 3.085a10.464 10.464 0 0 1 3.085 7.448c0 2.813-1.095 5.458-3.085 7.448m-7.448-19.13c-6.452 0-11.682 5.23-11.682 11.682a11.671 11.671 0 0 0 5.705 10.04 11.628 11.628 0 0 0 5.977 1.643 11.628 11.628 0 0 0 6.559-2.014 11.67 11.67 0 0 0 5.124-9.669c0-6.452-5.23-11.683-11.683-11.683" fill="#389FD9"/><path d="M22.704 19.745c.138-.01.316-.19.507-.801l.05-.166c.273-.963.015-1.15-.234-1.15l-.037.001-.005-.009c.048-.136.084-.276.112-.412.132-.796.106-1.361.006-1.762-.232-.93-.866-.975-.866-.975s-.098-.188-.336-.406l-.083-.074c-.101-.083-.222-.169-.366-.248a2.584 2.584 0 0 0-1.334-.351c-.089 0-.18.004-.276.012a2.38 2.38 0 0 0-.642.121 2.866 2.866 0 0 0-.707.36c-.076.048-.15.1-.223.154l-.033.024a3.768 3.768 0 0 0-.468.422 3.058 3.058 0 0 0-.652.963c-.054.13-.1.269-.133.415-.111.424-.086.867.007 1.345.025.14.06.278.114.421a.52.52 0 0 0-.05-.002c-.247 0-.5.192-.228 1.151.015.057.031.11.047.16.19.616.367.797.506.807.039.257.126.534.254.807.103.219.232.436.389.638l.064.08c.317.384.733.71 1.238.888l.062.02a2.115 2.115 0 0 0 1.313-.006l.052-.018c.51-.184.935-.522 1.259-.92l.041-.051c.156-.2.287-.412.391-.627.133-.274.222-.553.261-.81M26.346 25.619" fill="#389FD9"/></g></svg>