<svg width="130" height="32" viewBox="0 0 130 32" xmlns="http://www.w3.org/2000/svg" xmlns:xlink="http://www.w3.org/1999/xlink"><defs><path id="a" d="M30.134.115H0v29.917h30.134z"/><path id="c" d="M.298 2.689h2.71V.009H.298z"/></defs><g fill="none" fill-rule="evenodd"><g><mask id="b" fill="#fff"><use xlink:href="#a"/></mask><path d="M20.944 9.17c-1.08-2.73-2.563-4.945-3.626-6.332a12.562 12.562 0 0 1 8.776 6.332h-5.15zm6.653 5.903a12.32 12.32 0 0 1-.475 3.385h-4.937c.108-.735.169-1.505.169-2.314 0-1.557-.224-3.053-.586-4.455h5.354c.308 1.076.475 2.21.475 3.384zm-9.714 12.12c1.27-1.355 2.813-3.435 3.714-6.216h4.497a12.564 12.564 0 0 1-8.211 6.215zm-2.812-.783c-.985-.87-2.753-2.709-3.833-5.433h7.668c-1.075 2.734-2.842 4.562-3.835 5.433zM4.04 20.977h4.497c.901 2.781 2.443 4.86 3.714 6.215a12.563 12.563 0 0 1-8.211-6.215zm-1.504-5.904c0-1.173.168-2.308.476-3.384h5.354a17.8 17.8 0 0 0-.586 4.455c0 .809.061 1.58.17 2.314H3.011a12.32 12.32 0 0 1-.476-3.385zm10.28-12.235C11.752 4.225 10.27 6.44 9.19 9.17H4.04a12.56 12.56 0 0 1 8.776-6.332zm6.636 10.08c.229 1.035.365 2.116.365 3.226 0 .816-.073 1.587-.201 2.314H10.52a13.167 13.167 0 0 1-.204-2.314c0-1.237.17-2.44.45-3.582l5.064 4.251 3.621-3.894zm-4.384-8.843c.96 1.217 2.466 3.374 3.525 6.055l-2.979 3.203-4.004-3.36c1.056-2.605 2.52-4.704 3.458-5.898zm-.001-3.96C6.759.115 0 6.825 0 15.073c0 8.248 6.759 14.959 15.067 14.959s15.067-6.71 15.067-14.959c0-8.248-6.76-14.958-15.067-14.958z" fill="#FFF" mask="url(#b)"/></g><path d="M44.112 17.043c-.113.459-.292.872-.538 1.24a2.765 2.765 0 0 1-.963.883c-.396.222-.877.332-1.444.332-.568 0-1.05-.11-1.445-.332a2.762 2.762 0 0 1-.963-.883 3.851 3.851 0 0 1-.537-1.24 5.947 5.947 0 0 1-.169-1.419c0-.507.056-1 .169-1.475.112-.475.29-.9.537-1.272a2.74 2.74 0 0 1 .963-.892c.396-.221.877-.332 1.445-.332.567 0 1.048.111 1.444.332.396.222.717.52.963.892.246.373.425.797.538 1.272.112.476.168.968.168 1.475 0 .486-.056.96-.168 1.419m1.195-5.763a5.087 5.087 0 0 0-1.765-1.297c-.696-.313-1.488-.47-2.375-.47-.878 0-1.667.157-2.368.47-.7.314-1.292.746-1.773 1.297a5.795 5.795 0 0 0-1.107 1.937 7.289 7.289 0 0 0-.386 2.407c0 .843.128 1.63.386 2.359.256.729.625 1.364 1.107 1.904.481.54 1.072.964 1.773 1.272.701.309 1.49.463 2.368.463.887 0 1.68-.154 2.375-.463a5.088 5.088 0 0 0 1.765-1.272c.482-.54.851-1.175 1.108-1.904.256-.73.385-1.516.385-2.359 0-.864-.129-1.667-.385-2.407a5.79 5.79 0 0 0-1.108-1.937M54.855 13.926a2.231 2.231 0 0 0-.925-.7c-.39-.169-.892-.253-1.503-.253a3.22 3.22 0 0 0-1.415.334c-.461.223-.837.578-1.126 1.067h-.048V13.2h-2.171v8.42h2.283v-4.413c0-.858.14-1.474.418-1.849.28-.375.73-.562 1.351-.562.547 0 .928.171 1.142.513.215.342.322.861.322 1.556v4.756h2.284v-5.18a6.89 6.89 0 0 0-.137-1.425 2.73 2.73 0 0 0-.475-1.09M59.586 16.423a2.45 2.45 0 0 1 .109-.54c.061-.202.168-.393.319-.573.151-.18.353-.331.605-.453s.568-.183.949-.183c.582 0 1.016.149 1.302.445.286.297.484.731.596 1.304h-3.88zm5.334-1.956a3.813 3.813 0 0 0-1.353-1.089c-.549-.27-1.193-.405-1.932-.405a4.72 4.72 0 0 0-1.806.334 4.281 4.281 0 0 0-1.402.914 4 4 0 0 0-.908 1.375 4.565 4.565 0 0 0-.319 1.717c0 .636.103 1.22.311 1.75.207.53.501.984.882 1.366.38.382.846.676 1.394.883.549.206 1.165.31 1.848.31.986 0 1.825-.212 2.52-.636.694-.424 1.21-1.129 1.546-2.115h-2.1c-.079.254-.292.496-.639.724-.347.228-.762.341-1.243.341-.672 0-1.187-.164-1.545-.492-.36-.329-.555-.859-.588-1.59h6.266a5.516 5.516 0 0 0-.168-1.828 4.382 4.382 0 0 0-.764-1.559zM74.586 18.785c-.457.476-1.093.713-1.906.713-.598 0-1.107-.11-1.524-.332a2.858 2.858 0 0 1-1.017-.883c-.26-.368-.45-.78-.568-1.24a5.666 5.666 0 0 1-.178-1.419c0-.508.06-.999.178-1.474.119-.476.308-.9.568-1.273.26-.373.599-.67 1.017-.892.417-.221.926-.332 1.524-.332.328 0 .641.051.94.154.3.103.568.246.806.43.236.184.434.397.593.64.157.243.259.51.304.802H77.9a4.535 4.535 0 0 0-.577-1.783 4.387 4.387 0 0 0-1.16-1.304c-.47-.352-1-.62-1.593-.803a6.346 6.346 0 0 0-1.889-.275c-.926 0-1.759.156-2.499.47a5.327 5.327 0 0 0-1.872 1.296 5.73 5.73 0 0 0-1.17 1.938 6.955 6.955 0 0 0-.406 2.406c0 .843.136 1.629.407 2.359.271.73.66 1.364 1.17 1.904.507.54 1.131.964 1.871 1.273.74.307 1.573.462 2.5.462.745 0 1.428-.109 2.05-.325a4.793 4.793 0 0 0 1.626-.94c.463-.41.835-.908 1.118-1.49A5.682 5.682 0 0 0 78 16.903h-2.575c-.102.779-.381 1.406-.839 1.88M83.915 18.235c0 .127-.014.297-.043.508a1.55 1.55 0 0 1-.817 1.16c-.263.15-.636.224-1.117.224-.195 0-.385-.016-.567-.047a1.448 1.448 0 0 1-.482-.168.884.884 0 0 1-.327-.325.998.998 0 0 1-.12-.51c0-.211.04-.386.12-.524.08-.138.186-.251.318-.342a1.64 1.64 0 0 1 .464-.214c.178-.053.358-.095.542-.127.195-.032.39-.058.585-.08.195-.02.381-.048.559-.08.177-.031.343-.071.499-.119.154-.047.283-.113.386-.198v.842zm2.442 1.352V15.31c0-.498-.12-.899-.36-1.2a2.446 2.446 0 0 0-.93-.708 4.415 4.415 0 0 0-1.255-.342 10.81 10.81 0 0 0-1.358-.087c-.494 0-.984.045-1.47.135a4.42 4.42 0 0 0-1.316.453c-.39.212-.711.493-.963.843s-.395.79-.43 1.32h2.442c.045-.446.206-.764.481-.954.276-.191.654-.287 1.135-.287.218 0 .422.014.61.04.19.027.356.08.5.16.143.078.257.19.343.333.086.143.13.337.13.58.01.234-.064.411-.224.533-.161.122-.379.214-.654.278-.275.064-.59.111-.945.143a20.49 20.49 0 0 0-1.084.127c-.367.053-.731.125-1.091.215a3.22 3.22 0 0 0-.964.405c-.28.18-.51.422-.687.723-.179.302-.267.687-.267 1.153 0 .424.077.79.232 1.097a2.1 2.1 0 0 0 .645.763c.275.202.596.35.963.445.367.096.762.144 1.186.144.55 0 1.09-.075 1.617-.223a3.235 3.235 0 0 0 1.376-.78 3.002 3.002 0 0 0 .171.796h2.477c-.115-.17-.195-.424-.24-.764a7.866 7.866 0 0 1-.07-1.064zM99.661 13.657a2.524 2.524 0 0 0-.987-.52 4.58 4.58 0 0 0-1.251-.164c-.592 0-1.106.141-1.538.424a3.59 3.59 0 0 0-1.029.977c-.23-.522-.568-.885-1.012-1.091a3.452 3.452 0 0 0-1.473-.31c-.56 0-1.056.12-1.489.358a3.313 3.313 0 0 0-1.11 1.01h-.033v-1.14h-2.206v8.42h2.337v-4.886c0-.412.06-.746.181-1.001.12-.255.266-.45.436-.587.17-.135.346-.228.527-.277a1.76 1.76 0 0 1 .436-.073c.372 0 .655.063.847.187.192.126.33.291.412.497.082.206.129.432.14.676.01.244.016.492.016.741v4.724H95.2v-4.69c0-.262.02-.52.059-.775.038-.255.114-.483.23-.684.115-.2.274-.363.477-.489.202-.124.469-.187.798-.187.33 0 .59.055.782.163.191.109.337.256.436.44.098.184.158.402.18.651.022.25.033.516.033.799v4.772h2.337v-5.636c0-.543-.077-1.007-.23-1.392a2.391 2.391 0 0 0-.642-.937M104.745 20.183a1.87 1.87 0 0 1-.635-.621 2.72 2.72 0 0 1-.346-.893 5.003 5.003 0 0 1-.107-1.037c0-.362.033-.714.099-1.054.066-.34.178-.64.338-.901.159-.261.368-.474.626-.638.258-.164.58-.247.964-.247.373 0 .69.083.948.247.257.164.468.38.633.646.166.267.284.57.355.91.071.34.107.686.107 1.037 0 .352-.033.698-.099 1.037-.065.34-.179.639-.337.893a1.9 1.9 0 0 1-.627.62c-.258.16-.58.24-.963.24-.374 0-.692-.08-.956-.24m3.221 1.668c.467-.25.856-.584 1.17-1.004.312-.42.546-.901.7-1.445.154-.544.23-1.11.23-1.7 0-.624-.076-1.222-.23-1.795a4.43 4.43 0 0 0-.709-1.505 3.6 3.6 0 0 0-1.202-1.037c-.484-.26-1.06-.391-1.73-.391-.528 0-1.011.108-1.45.323-.44.215-.802.56-1.088 1.037h-.033v-1.122H101.4v11.87h2.34v-4.167h.033c.285.431.65.757 1.095.978.446.221.93.332 1.459.332.626 0 1.172-.125 1.64-.374M112.411 20.683c.225.3.533.53.925.693.391.164.892.246 1.503.246.483 0 .954-.11 1.416-.327.46-.217.836-.571 1.126-1.06h.047v1.174h2.172v-8.436h-2.284v4.422c0 .86-.14 1.477-.418 1.852-.279.376-.73.563-1.351.563-.547 0-.928-.17-1.142-.514-.214-.342-.322-.862-.322-1.558v-4.765H111.8v5.19c0 .522.046.997.137 1.427.09.43.248.794.474 1.093M127.436 17.162a3.256 3.256 0 0 0-.855-.421c-.32-.106-.648-.196-.985-.27a42.509 42.509 0 0 0-.961-.207 7.494 7.494 0 0 1-.839-.215 1.775 1.775 0 0 1-.594-.31.613.613 0 0 1-.228-.493c0-.17.044-.304.13-.405a.844.844 0 0 1 .318-.23c.125-.054.263-.088.415-.104.152-.016.293-.024.423-.024.413 0 .772.077 1.075.23.304.155.473.449.505.883h2.199c-.043-.508-.177-.93-.4-1.264a2.607 2.607 0 0 0-.838-.803 3.578 3.578 0 0 0-1.148-.429 6.827 6.827 0 0 0-1.327-.127c-.456 0-.901.04-1.335.12a3.74 3.74 0 0 0-1.173.412 2.314 2.314 0 0 0-.839.803c-.211.34-.317.774-.317 1.304 0 .36.075.665.228.914.151.25.352.456.602.62.25.165.535.297.855.398.32.1.648.188.985.262.825.17 1.468.34 1.93.509.461.17.692.424.692.763 0 .201-.049.368-.146.5-.098.133-.22.24-.366.318-.148.08-.31.139-.489.175-.18.038-.35.056-.513.056a2.7 2.7 0 0 1-.66-.08 1.731 1.731 0 0 1-.562-.246 1.328 1.328 0 0 1-.398-.43 1.212 1.212 0 0 1-.155-.627h-2.198c.021.55.148 1.01.383 1.375.232.366.53.66.895.882a3.83 3.83 0 0 0 1.246.477c.466.096.944.144 1.433.144a7.4 7.4 0 0 0 1.408-.136c.461-.09.871-.246 1.23-.469a2.64 2.64 0 0 0 .871-.882c.222-.366.334-.819.334-1.36 0-.38-.076-.701-.228-.961a2.055 2.055 0 0 0-.603-.652M128.267 12.268h.301v.705h.221v-.705h.301v-.16h-.823zM129.75 12.108l-.177.595h-.002l-.189-.595h-.249v.865h.166v-.607h.002l.198.607h.136l.197-.613h.002v.613H130v-.865zM127.145 29.995h.91l-.081-.414h-.83v-.542h1.098v-.498h-1.697l-.012 2.594h1.734v-.475h-1.122zM116.53 29.754h-.562v-.784h.658c.43-.002.533.73-.095.784m1.132-.534c-.019-.417-.515-.68-1.037-.68h-1.359v2.595h.701v-1.037h.23l.895 1.037.774-.086-.856-.99c.577-.199.67-.428.652-.839M109.63 30.07l.392-.852.437.852h-.83zm.03-1.53l-1.327 2.595h.74l.33-.626h1.282l.362.626h.753l-1.371-2.594h-.77zM123.067 29.04h.937v2.095h.633V29.04h1.03v-.498h-2.6zM107.32 30.633v-2.092h-.72v2.594h1.733l-.104-.502z" fill="#FFF"/><g transform="translate(111.8 28.54)"><mask id="d" fill="#fff"><use xlink:href="#c"/></mask><path d="M2.32 1.975c-.595.287-1.05.295-1.348-.013V.008H.298v1.954c0 .82 1.51.914 2.022.444v.28h.688V.008H2.32v1.967z" fill="#FFF" mask="url(#d)"/></g><path fill="#FFF" d="M119.345 29.995h.91l-.081-.414h-.83v-.542h1.098v-.498h-1.697l-.012 2.594h1.734v-.475h-1.122zM121.763 30.07l.392-.852.437.852h-.829zm.03-1.53l-1.326 2.595h.738l.332-.626h1.281l.362.626h.753l-1.37-2.594h-.77zM102.638 30.39a.613.613 0 0 1-.073.188.398.398 0 0 1-.125.13.329.329 0 0 1-.181.05.33.33 0 0 1-.18-.05.387.387 0 0 1-.127-.13.602.602 0 0 1-.072-.189 1.043 1.043 0 0 1 0-.446.611.611 0 0 1 .072-.19.39.39 0 0 1 .127-.13.333.333 0 0 1 .18-.047c.07 0 .131.016.181.048a.4.4 0 0 1 .125.13.623.623 0 0 1 .073.189 1.071 1.071 0 0 1 0 .446m.268-.964a.663.663 0 0 0-.228-.174.618.618 0 0 0-.256-.058.753.753 0 0 0-.308.066.519.519 0 0 0-.234.209h-.007v-.927h-.473v2.548h.45v-.235h.006a.44.44 0 0 0 .227.217c.099.043.212.064.339.064a.624.624 0 0 0 .484-.232.92.92 0 0 0 .164-.3c.043-.124.063-.269.063-.438 0-.17-.02-.315-.063-.437a.913.913 0 0 0-.164-.303M104.017 30.283h-.007l-.382-.878h-.495l.593 1.203a.167.167 0 0 1 .019.079.15.15 0 0 1-.044.104c-.03.03-.075.05-.135.055-.047.001-.092 0-.138-.003l-.134-.01v.29l.143.008c.046.003.094.004.142.004.159 0 .283-.022.372-.067a.463.463 0 0 0 .21-.222l.706-1.44h-.48l-.37.877z"/></g></svg>