<svg width="66" height="66" viewBox="0 0 66 66" xmlns="http://www.w3.org/2000/svg" xmlns:xlink="http://www.w3.org/1999/xlink"><title>stamp-commenter</title><defs><circle id="b" cx="30" cy="30" r="30"/><filter x="-8.3%" y="-5%" width="116.7%" height="116.7%" filterUnits="objectBoundingBox" id="a"><feMorphology radius="1" operator="dilate" in="SourceAlpha" result="shadowSpreadOuter1"/><feOffset dy="2" in="shadowSpreadOuter1" result="shadowOffsetOuter1"/><feGaussianBlur stdDeviation="1" in="shadowOffsetOuter1" result="shadowBlurOuter1"/><feComposite in="shadowBlurOuter1" in2="SourceAlpha" operator="out" result="shadowBlurOuter1"/><feColorMatrix values="0 0 0 0 0.37254902 0 0 0 0 0.376470588 0 0 0 0 0.384313725 0 0 0 1 0" in="shadowBlurOuter1"/></filter></defs><g transform="translate(3 1)" fill="none" fill-rule="evenodd"><use fill="#000" filter="url(#a)" xlink:href="#b"/><use stroke="#CDD2D8" stroke-width="2" fill="#FFF" xlink:href="#b"/><circle stroke="#186DB3" cx="30" cy="30" r="23"/><path d="M10 29.932a19.908 19.908 0 0 0 9.735 17.128 19.831 19.831 0 0 0 10.197 2.804 19.832 19.832 0 0 0 11.189-3.435 19.907 19.907 0 0 0 8.743-16.497C49.864 18.924 40.94 10 29.932 10S10 18.924 10 29.932z" stroke="#323E56" stroke-width="2"/><path d="M41.326 38.72c-.635.65-1.29 1.283-1.926 1.932-.234.24-.498.352-.837.347-.509-.014-1.018-.006-1.563-.006l-1.197-.022c-.008.07-.016.14-.022.21-.147 1.843-.594 5.645-.806 7.48-.058.502-10.074 1.145-10.44 1.137-.545-.014-1.07-6.947-1.258-8.827h-1.195c-.363 0-.715.005-1.067.005-.275 0-.55-.003-.823-.016-.163-.009-.341-.152-.47-.275a129.703 129.703 0 0 1-2.458-2.463c-.135-.14-.207-.374-.242-.575-.042-.234-.011-.48-.008-.718.003-.6.327-.928.93-.928 2.716-.003 5.432 0 8.148 0h15.052c.6.003.928.325.92.936-.017 1.271.173.85-.738 1.783z" fill="#323E56" fill-rule="nonzero"/><g><path d="M22.32 17h15.36c.729 0 1.32.591 1.32 1.32v10.751a1.32 1.32 0 0 1-1.32 1.32h-4.603L30 34l-3.077-3.609H22.32a1.32 1.32 0 0 1-1.32-1.32V18.32c0-.729.591-1.32 1.32-1.32z" fill="#323E56"/><path d="M24.115 20.5h11.77M24.115 23.5h11.77M24.115 26.5h11.77" stroke="#FFF" stroke-linecap="round"/></g></g></svg>