<svg width="66" height="66" viewBox="0 0 66 66" xmlns="http://www.w3.org/2000/svg" xmlns:xlink="http://www.w3.org/1999/xlink"><title>stamp-participant</title><defs><circle id="b" cx="30" cy="30" r="30"/><filter x="-8.3%" y="-5%" width="116.7%" height="116.7%" filterUnits="objectBoundingBox" id="a"><feMorphology radius="1" operator="dilate" in="SourceAlpha" result="shadowSpreadOuter1"/><feOffset dy="2" in="shadowSpreadOuter1" result="shadowOffsetOuter1"/><feGaussianBlur stdDeviation="1" in="shadowOffsetOuter1" result="shadowBlurOuter1"/><feComposite in="shadowBlurOuter1" in2="SourceAlpha" operator="out" result="shadowBlurOuter1"/><feColorMatrix values="0 0 0 0 0.37254902 0 0 0 0 0.376470588 0 0 0 0 0.384313725 0 0 0 1 0" in="shadowBlurOuter1"/></filter></defs><g transform="translate(3 1)" fill="none" fill-rule="evenodd"><use fill="#000" filter="url(#a)" xlink:href="#b"/><use stroke="#CDD2D8" stroke-width="2" fill="#FFF" xlink:href="#b"/><circle stroke="#186DB3" cx="30" cy="30" r="23"/><path d="M30.011 10C18.96 10 10 18.96 10 30.011a19.987 19.987 0 0 0 9.773 17.197 19.91 19.91 0 0 0 10.238 2.815 19.91 19.91 0 0 0 11.234-3.449 19.986 19.986 0 0 0 8.778-16.563C50.023 18.96 41.063 10 30.01 10z" stroke="#323E56" stroke-width="2"/><g fill-rule="nonzero" fill="#323E56"><path d="M33.396 21.032c-.047-.007-.094-.017-.14-.026.026-.153.052-.286.07-.42.084-.651 0-1.276-.4-1.81-.742-.992-1.767-1.387-2.926-1.458-1.159.07-2.183.466-2.926 1.459-.4.533-.484 1.158-.4 1.809.018.134.045.267.07.42-.046.008-.092.019-.14.026-.312.044-.455.179-.455.494 0 .42.085.829.286 1.204.139.259.377.348.665.356.023.1.04.198.069.292.347 1.12 1.424 2.589 2.711 2.627.04.002.08.002.12 0 .04.002.08.002.12 0 1.287-.038 2.364-1.507 2.711-2.627.03-.094.046-.192.069-.292.288-.008.526-.097.665-.356.2-.376.286-.784.287-1.204 0-.315-.144-.45-.456-.495zM37.51 33.267l-.018-.146a3.264 3.264 0 0 0-.024-.21c-.05-.427-.168-1.248-.28-2.04-.058-.409-.115-.81-.159-1.144a26.25 26.25 0 0 1-.078-.616 3.718 3.718 0 0 0-.029-.232c-.103-.636-.35-.872-1.114-1.086-.774-.217-1.552-.428-2.325-.641l-.611-.168c-.124-.036-.247-.07-.37-.102-.158.367-1.392 4.049-1.43 4.049a1.167 1.167 0 0 1-.027-.112 60.023 60.023 0 0 1-.373-2.038l-.008-.078v-.008c0-.01.002-.026.005-.034l.003-.016c.01-.023.02-.05.036-.07l.013-.018c.1-.156.206-.316.306-.476a.167.167 0 0 0 .014-.125l-.103-.297-.04-.109a22.44 22.44 0 0 1-.122-.351c-.013-.037-.032-.038-.076-.057-.125-.058-1.306-.058-1.4 0-.04.024-.062.02-.075.057l-.123.351-.039.11c-.034.098-.07.198-.103.296a.168.168 0 0 0 .014.125c.1.161.205.321.306.477l.013.018c.015.02.026.046.036.07l.003.015a.14.14 0 0 1 .005.035v.007l-.008.079c-.019.16-.281 1.612-.373 2.037-.013.06-.023.099-.028.112-.036 0-1.271-3.681-1.43-4.049-.122.033-.244.066-.369.102-.202.057-.405.112-.608.168-.775.214-1.552.425-2.328.642-.764.214-1.011.45-1.114 1.085-.012.072-.021.15-.03.233-.016.15-.043.364-.077.62-.045.331-.101.729-.159 1.135-.112.793-.23 1.618-.28 2.044-.01.069-.02.141-.024.211l-.018.146c-.095.81.179 1.46 1.08 1.491.986.035 11.82.023 12.86 0 .9-.021 1.174-.682 1.079-1.492zM41.791 38.922c-.636.65-1.29 1.283-1.927 1.933-.234.239-.498.352-.836.346-.509-.014-1.018-.006-1.563-.006l-1.197-.022c-.008.07-.017.141-.022.21-.147 1.843-.595 5.645-.807 7.481C35.381 49.365 25.366 50.008 25 50c-.545-.014-1.07-6.947-1.259-8.827h-1.194c-.363 0-.716.005-1.068.005-.275 0-.55-.003-.823-.016-.162-.009-.34-.152-.47-.275a129.703 129.703 0 0 1-2.458-2.463c-.135-.14-.206-.374-.242-.575-.041-.234-.01-.479-.008-.718.003-.6.328-.928.93-.928 2.716-.003 5.432 0 8.148 0H41.61c.6.003.927.325.919.936-.016 1.271.174.85-.737 1.783z"/></g></g></svg>