<svg width="66" height="67" viewBox="0 0 66 67" xmlns="http://www.w3.org/2000/svg" xmlns:xlink="http://www.w3.org/1999/xlink"><title>stamp-problemsolver</title><defs><path d="M28.46 58.291l-2.358.984a4 4 0 0 1-4.448-.946L19.9 56.472a4 4 0 0 0-2.814-1.253l-2.554-.06a4 4 0 0 1-3.68-2.674l-.846-2.41a4 4 0 0 0-2.061-2.29l-2.308-1.093a4 4 0 0 1-2.274-3.939l.207-2.546a4 4 0 0 0-.952-2.93L.954 35.34a4 4 0 0 1-.476-4.524l1.225-2.241a4 4 0 0 0 .322-3.064l-.732-2.447A4 4 0 0 1 2.7 18.738l2.03-1.55a4 4 0 0 0 1.54-2.667l.327-2.534a4 4 0 0 1 3.044-3.38l2.485-.59a4 4 0 0 0 2.492-1.81l1.329-2.182a4 4 0 0 1 4.155-1.85l2.51.472a4 4 0 0 0 3.014-.64l2.1-1.452a4 4 0 0 1 4.55 0l2.1 1.452a4 4 0 0 0 3.014.64l2.51-.472a4 4 0 0 1 4.155 1.85l1.329 2.182a4 4 0 0 0 2.492 1.81l2.485.59a4 4 0 0 1 3.044 3.38l.327 2.534a4 4 0 0 0 1.54 2.667l2.03 1.55a4 4 0 0 1 1.406 4.326l-.732 2.447a4 4 0 0 0 .322 3.064l1.225 2.241a4 4 0 0 1-.476 4.524l-1.664 1.938a4 4 0 0 0-.952 2.93l.207 2.545a4 4 0 0 1-2.274 3.94l-2.308 1.093a4 4 0 0 0-2.061 2.29l-.847 2.409a4 4 0 0 1-3.68 2.673l-2.553.06a4 4 0 0 0-2.814 1.254l-1.754 1.857a4 4 0 0 1-4.448.946l-2.358-.984a4 4 0 0 0-3.08 0z" id="b"/><filter x="-8.5%" y="-5.4%" width="117%" height="117.3%" filterUnits="objectBoundingBox" id="a"><feMorphology radius="1.1" operator="dilate" in="SourceAlpha" result="shadowSpreadOuter1"/><feOffset dy="2" in="shadowSpreadOuter1" result="shadowOffsetOuter1"/><feGaussianBlur stdDeviation="1" in="shadowOffsetOuter1" result="shadowBlurOuter1"/><feComposite in="shadowBlurOuter1" in2="SourceAlpha" operator="out" result="shadowBlurOuter1"/><feColorMatrix values="0 0 0 0 0.37254902 0 0 0 0 0.376470588 0 0 0 0 0.384313725 0 0 0 1 0" in="shadowBlurOuter1"/></filter><circle id="c" cx="20" cy="20" r="20"/><path d="M16.16 6.278v5.46l-.007.035s-.016.077-.049.199a4.37 4.37 0 0 1-.153.463c-.14.354-.339.783-.769 1.026a1.486 1.486 0 0 1-.969.196c-.28-.047-.49-.171-.63-.25-.305-.173-.491-.409-.783-.601-.292-.193-.652-.354-1.23-.354-.6 0-.907.111-1.117.374-.184.23-.316.658-.347 1.354-.004.1-.006.205-.006.315 0 .886.142 1.406.353 1.67.21.263.517.374 1.116.374.579 0 .94-.161 1.231-.354.292-.193.478-.428.783-.601.14-.08.35-.203.63-.25.281-.047.625 0 .97.196.43.243.628.672.768 1.025.14.353.202.662.202.662l.008.036v5.46h5.489c.022-.005.245-.048.523-.154.292-.111.587-.302.661-.429.125-.21.129-.332.108-.447-.02-.115-.083-.232-.163-.369-.054-.091-.327-.347-.585-.722a2.8 2.8 0 0 1-.493-1.624c0-.699.18-1.304.676-1.684.496-.38 1.2-.505 2.177-.505.978 0 1.681.125 2.177.505s.676.985.676 1.684a2.8 2.8 0 0 1-.492 1.624c-.259.375-.531.631-.585.722-.08.137-.144.254-.164.369-.02.115-.016.237.108.447.075.127.37.318.662.429.278.106.501.15.523.154h5.49v-5.498l.007-.039c.014-.062.079-.356.219-.69.14-.334.338-.728.742-.957.344-.194.688-.242.969-.195.28.047.49.17.63.25.306.172.491.408.783.6.292.194.652.354 1.231.354.599 0 .907-.11 1.117-.374.21-.263.353-.784.353-1.67 0-.885-.143-1.405-.353-1.668-.21-.263-.518-.375-1.117-.375-.579 0-.939.161-1.23.354-.293.193-.478.429-.784.601-.14.08-.35.203-.63.25-.28.047-.625 0-.969-.195-.404-.229-.603-.623-.742-.957a4.104 4.104 0 0 1-.219-.69l-.008-.039V6.277H27.46c-.021.004-.245.049-.523.155-.292.11-.587.301-.662.428-.124.21-.128.332-.108.447.02.115.083.232.164.368.054.092.326.347.585.722a2.8 2.8 0 0 1 .492 1.625c0 .698-.18 1.304-.676 1.684-.496.38-1.199.505-2.177.505-.977 0-1.68-.125-2.177-.505-.495-.38-.676-.986-.676-1.684a2.8 2.8 0 0 1 .493-1.625c.258-.375.531-.63.585-.722.08-.136.143-.253.163-.368.02-.115.017-.237-.108-.447-.074-.127-.369-.317-.66-.428-.28-.106-.503-.15-.525-.155h-5.488z" id="e"/></defs><g transform="translate(3 2)" fill="none" fill-rule="evenodd"><use fill="#000" filter="url(#a)" xlink:href="#b"/><use stroke="#CDD2D8" stroke-width="2.2" fill="#FFF" xlink:href="#b"/><circle stroke="#186DB3" cx="30" cy="30" r="23"/><g transform="translate(10 10)"><mask id="d" fill="#fff"><use xlink:href="#c"/></mask><use stroke="#323E56" stroke-width="2" fill="#FFF" xlink:href="#c"/><g mask="url(#d)"><path d="M5.846 23.922c.015-.338.196-.604.677-.94.464-.325.847-.393 1.194-.396.347-.002.634.09.98.064.159-.013.4-.027.652-.145.253-.119.501-.351.662-.708.19-.418.119-.86.035-1.217a4.342 4.342 0 0 0-.23-.7L6.58 15.242l4.402-3.083c.02-.008.225-.097.51-.165.3-.07.648-.077.782-.012.222.106.297.205.348.313.052.108.07.24.085.4.01.107-.058.474-.046.933.012.459.136 1.035.557 1.636.409.584.908.99 1.528 1.029.62.04 1.258-.251 2.042-.8.784-.549 1.275-1.049 1.45-1.645.175-.596-.035-1.204-.444-1.789-.42-.6-.92-.914-1.347-1.082-.427-.169-.795-.23-.892-.276a1.214 1.214 0 0 1-.347-.216c-.084-.085-.152-.19-.176-.435-.014-.148.11-.473.28-.73.161-.245.314-.407.33-.423l4.401-3.082 3.199 4.568c.027.026.258.25.577.466.32.217.73.465 1.217.427.39-.031.694-.184.892-.38.197-.198.293-.419.359-.564.144-.316.155-.617.276-.942.12-.326.315-.663.78-.988.48-.336.791-.416 1.114-.314.323.103.743.458 1.261 1.199.519.74.71 1.257.695 1.595-.014.338-.196.604-.676.94-.464.325-.847.393-1.194.395-.347.003-.634-.09-.98-.063-.16.012-.4.026-.652.145-.253.118-.502.35-.663.708-.202.444-.11.915-.015 1.29.094.373.225.667.225.667l3.214 4.602-4.402 3.082c-.02.009-.225.098-.51.165-.3.071-.648.077-.782.013-.222-.106-.297-.206-.348-.313a1.217 1.217 0 0 1-.085-.4c-.01-.107.059-.474.046-.933a2.946 2.946 0 0 0-.556-1.636c-.41-.584-.91-.99-1.53-1.03-.62-.039-1.257.252-2.04.8-.785.55-1.276 1.05-1.451 1.646-.153.521-.012 1.052.3 1.568.045.074.093.147.144.22.421.601.92.914 1.347 1.083.427.168.796.23.892.275.145.07.264.132.347.217a.53.53 0 0 1 .15.275c.011.046.02.098.026.16.014.148-.11.473-.28.73-.16.245-.314.406-.33.423l-4.401 3.082-3.22-4.6a4.416 4.416 0 0 0-.61-.482c-.307-.202-.697-.42-1.156-.384-.389.031-.693.183-.891.38-.198.197-.293.418-.36.563-.143.316-.154.618-.275.943-.121.325-.316.662-.78.987-.48.336-.792.416-1.115.314-.322-.102-.742-.458-1.26-1.198-.52-.741-.71-1.257-.696-1.595z" fill="#323E56"/><g transform="scale(1 -1) rotate(-55 -17.38 -10.802)"><use fill="#323E56" xlink:href="#e"/><path stroke="#FFF" stroke-width="1.335" d="M33.616 11.704c.033.15.09.34.175.542.144.346.273.53.456.634.19.108.377.143.529.118a.909.909 0 0 0 .26-.09c.04-.02.054-.028.152-.083.087-.05.159-.105.31-.236l.047-.04c.154-.133.255-.215.386-.3.463-.307.953-.465 1.6-.465.772 0 1.275.171 1.637.625.344.43.5 1.118.5 2.086 0 .968-.156 1.656-.5 2.086-.362.454-.865.625-1.638.625-.646 0-1.136-.158-1.599-.464a3.512 3.512 0 0 1-.386-.3l-.047-.042a1.852 1.852 0 0 0-.462-.318.908.908 0 0 0-.26-.09.826.826 0 0 0-.53.119c-.183.102-.31.286-.455.633a3.328 3.328 0 0 0-.175.542v6.094h-6.157l-.133-.013a3.894 3.894 0 0 1-.628-.184c-.421-.16-.828-.424-.999-.713-.188-.32-.243-.6-.19-.902.035-.205.105-.355.246-.593.049-.084.45-.539.571-.706l.04-.056c.237-.345.374-.75.374-1.245 0-.571-.14-.943-.415-1.154-.327-.25-.86-.367-1.77-.367s-1.445.117-1.772.367c-.275.211-.414.583-.414 1.154 0 .496.136.9.374 1.245l.04.056c.12.168.522.622.571.706.14.237.21.388.246.593.053.302-.002.583-.19.901-.171.29-.578.553-1 .714-.252.096-.457.15-.63.185l-.13.012h-6.157v-6.057a3.519 3.519 0 0 0-.163-.522c-.152-.385-.283-.58-.478-.69a.819.819 0 0 0-.529-.118.908.908 0 0 0-.26.09 1.851 1.851 0 0 0-.462.319l-.047.04a3.51 3.51 0 0 1-.386.3c-.462.306-.952.464-1.599.464-.773 0-1.275-.17-1.638-.625-.343-.43-.5-1.118-.5-2.086 0-.12.003-.235.008-.344.034-.786.19-1.363.492-1.742.363-.454.865-.625 1.638-.625.647 0 1.136.159 1.6.465.13.086.232.167.385.3l.048.04a1.85 1.85 0 0 0 .462.32.909.909 0 0 0 .26.089c.15.025.338-.01.53-.118.193-.11.324-.306.476-.69a3.676 3.676 0 0 0 .163-.523V5.609h6.156l.132.014c.174.035.378.089.63.184.421.16.828.424.998.713.189.32.244.6.191.902-.035.204-.106.355-.246.592-.05.085-.45.54-.571.707l-.04.055c-.238.346-.374.75-.374 1.246 0 .57.14.943.414 1.154.327.25.861.367 1.771.367.91 0 1.444-.117 1.771-.367.276-.211.415-.583.415-1.154 0-.496-.137-.9-.375-1.246l-.039-.055c-.12-.167-.522-.622-.572-.707-.14-.237-.21-.387-.246-.592-.052-.302.003-.583.191-.902.17-.29.577-.552 1-.713.25-.095.45-.148.627-.184l.133-.014h6.157v6.095z"/></g></g></g></g></svg>