<svg width="66" height="66" viewBox="0 0 66 66" xmlns="http://www.w3.org/2000/svg" xmlns:xlink="http://www.w3.org/1999/xlink"><title>stamp-connector-level1</title><defs><circle id="b" cx="30" cy="30" r="30"/><filter x="-8.3%" y="-5%" width="116.7%" height="116.7%" filterUnits="objectBoundingBox" id="a"><feMorphology radius="1" operator="dilate" in="SourceAlpha" result="shadowSpreadOuter1"/><feOffset dy="2" in="shadowSpreadOuter1" result="shadowOffsetOuter1"/><feGaussianBlur stdDeviation="1" in="shadowOffsetOuter1" result="shadowBlurOuter1"/><feComposite in="shadowBlurOuter1" in2="SourceAlpha" operator="out" result="shadowBlurOuter1"/><feColorMatrix values="0 0 0 0 0.37254902 0 0 0 0 0.376470588 0 0 0 0 0.384313725 0 0 0 1 0" in="shadowBlurOuter1"/></filter></defs><g transform="translate(3 1)" fill="none" fill-rule="evenodd"><use fill="#000" filter="url(#a)" xlink:href="#b"/><use stroke="#CDD2D8" stroke-width="2" fill="#FFF" xlink:href="#b"/><circle stroke="#186DB3" cx="30" cy="30" r="23"/><circle stroke="#323E56" stroke-width="2" fill="#FFF" cx="30" cy="30" r="20"/><g fill="#323E56"><path d="M34 16a2.508 2.508 0 0 0-2.5 2.5c0 .694.289 1.323.75 1.777l-2.307 3.846A3.954 3.954 0 0 0 29 24c-1.197 0-2.262.54-2.996 1.379L25.5 25l-.6.8.543.409A3.946 3.946 0 0 0 25 28c0 .64.166 1.237.436 1.775l-5.694 3.795A2.969 2.969 0 0 0 18 33c-1.65 0-3 1.35-3 3 0 1.651 1.35 3 3 3s3-1.349 3-3c0-.634-.2-1.222-.54-1.707l5.532-3.688C26.727 31.452 27.796 32 29 32c.644 0 1.245-.169 1.785-.441l.389.546.814-.582-.375-.521C32.456 30.268 33 29.201 33 28c0-.02-.006-.04-.006-.06l6.338-.846c.359.543.973.906 1.668.906 1.099 0 2-.901 2-2s-.901-2-2-2-2 .901-2 2c0 .044.01.085.014.129l-6.172.822a3.996 3.996 0 0 0-1.955-2.455l2.205-3.674c.282.112.587.178.908.178 1.375 0 2.5-1.125 2.5-2.5S35.375 16 34 16zm-13 4c-1.099 0-2 .901-2 2s.901 2 2 2c.395 0 .761-.12 1.072-.32l.428.32.6-.799-.348-.262c.153-.281.248-.598.248-.939 0-1.099-.901-2-2-2zm2.9 3.8l-.6.802.8.6.6-.802-.8-.6zm8.67 8.538l-.814.582.58.812.814-.58-.58-.814zm1.162 1.627l-.814.582.582.812.813-.58-.58-.814zm1.163 1.627l-.815.582.582.814.813-.582-.58-.814zM37.5 37a2.47 2.47 0 0 0-1.324.389l-.12-.168-.814.58.203.283A2.48 2.48 0 0 0 35 39.5c0 1.375 1.125 2.5 2.5 2.5s2.5-1.125 2.5-2.5-1.125-2.5-2.5-2.5z" fill-rule="nonzero"/><path d="M29 25c1.663 0 3 1.337 3 3s-1.337 3-3 3-3-1.337-3-3 1.337-3 3-3z"/></g></g></svg>