<svg width="74" height="66" viewBox="0 0 74 66" xmlns="http://www.w3.org/2000/svg" xmlns:xlink="http://www.w3.org/1999/xlink"><title>stamp-connector-level25x</title><defs><path d="M27.523 58.792l-2.084.773a6.973 6.973 0 0 1-8.488-3.096l-1.158-2.04a10 10 0 0 0-5.263-4.456l-2.12-.775a7.076 7.076 0 0 1-4.54-7.877l.422-2.387a10 10 0 0 0-1.173-6.716L1.938 30.16a7.138 7.138 0 0 1 1.584-9.003l1.763-1.49a10 10 0 0 0 3.4-5.943l.41-2.379a7.011 7.011 0 0 1 6.926-5.823l2.224.005a10 10 0 0 0 6.513-2.391l1.714-1.462a6.978 6.978 0 0 1 9.056 0l1.714 1.462a10 10 0 0 0 6.513 2.391l2.224-.005a7.011 7.011 0 0 1 6.926 5.823l.41 2.38a10 10 0 0 0 3.4 5.943l1.763 1.489a7.138 7.138 0 0 1 1.584 9.003l-1.18 2.058a10 10 0 0 0-1.174 6.716l.421 2.387a7.076 7.076 0 0 1-4.538 7.877l-2.12.775a10 10 0 0 0-5.264 4.456l-1.158 2.04a6.973 6.973 0 0 1-8.488 3.096l-2.084-.773a10 10 0 0 0-6.954 0z" id="b"/><filter x="-8.3%" y="-5%" width="116.7%" height="116.7%" filterUnits="objectBoundingBox" id="a"><feMorphology radius="1" operator="dilate" in="SourceAlpha" result="shadowSpreadOuter1"/><feOffset dy="2" in="shadowSpreadOuter1" result="shadowOffsetOuter1"/><feGaussianBlur stdDeviation="1" in="shadowOffsetOuter1" result="shadowBlurOuter1"/><feComposite in="shadowBlurOuter1" in2="SourceAlpha" operator="out" result="shadowBlurOuter1"/><feColorMatrix values="0 0 0 0 0.37254902 0 0 0 0 0.376470588 0 0 0 0 0.384313725 0 0 0 1 0" in="shadowBlurOuter1"/></filter></defs><g transform="translate(2 1)" fill="none" fill-rule="evenodd"><use fill="#000" filter="url(#a)" xlink:href="#b"/><use stroke="#CDD2D8" stroke-width="2" fill="#FFF" xlink:href="#b"/><circle stroke="#C3B523" cx="31" cy="31" r="23"/><circle stroke="#527518" stroke-width="2" fill="#FFF" cx="31" cy="31" r="20"/><g fill="#527518"><path d="M35 17a2.508 2.508 0 0 0-2.5 2.5c0 .694.289 1.323.75 1.777l-2.307 3.846A3.954 3.954 0 0 0 30 25c-1.197 0-2.262.54-2.996 1.379L26.5 26l-.6.8.543.409A3.946 3.946 0 0 0 26 29c0 .64.166 1.237.436 1.775l-5.694 3.795A2.969 2.969 0 0 0 19 34c-1.65 0-3 1.35-3 3 0 1.651 1.35 3 3 3s3-1.349 3-3c0-.634-.2-1.222-.54-1.707l5.532-3.688C27.727 32.452 28.796 33 30 33c.644 0 1.245-.169 1.785-.441l.389.546.814-.582-.375-.521C33.456 31.268 34 30.201 34 29c0-.02-.006-.04-.006-.06l6.338-.846c.359.543.973.906 1.668.906 1.099 0 2-.901 2-2s-.901-2-2-2-2 .901-2 2c0 .044.01.085.014.129l-6.172.822a3.996 3.996 0 0 0-1.955-2.455l2.205-3.674c.282.112.587.178.908.178 1.375 0 2.5-1.125 2.5-2.5S36.375 17 35 17zm-13 4c-1.099 0-2 .901-2 2s.901 2 2 2c.395 0 .761-.12 1.072-.32l.428.32.6-.799-.348-.262c.153-.281.248-.598.248-.939 0-1.099-.901-2-2-2zm2.9 3.8l-.6.802.8.6.6-.802-.8-.6zm8.67 8.538l-.814.582.58.812.814-.58-.58-.814zm1.162 1.627l-.814.582.582.812.813-.58-.58-.814zm1.163 1.627l-.815.582.582.814.813-.582-.58-.814zM38.5 38a2.47 2.47 0 0 0-1.324.389l-.12-.168-.814.58.203.283A2.48 2.48 0 0 0 36 40.5c0 1.375 1.125 2.5 2.5 2.5s2.5-1.125 2.5-2.5-1.125-2.5-2.5-2.5z" fill-rule="nonzero"/><path d="M30 26c1.663 0 3 1.337 3 3s-1.337 3-3 3-3-1.337-3-3 1.337-3 3-3z"/></g><g><path d="M48 4h20a4 4 0 0 1 4 4v8a4 4 0 0 1-4 4H52.815a4 4 0 0 0-3.01 1.366L47.5 24a1.997 1.997 0 0 1-3.5-1.315V8a4 4 0 0 1 4-4z" fill="#527518"/><text font-family="Gibson-Bold, Gibson" font-size="10" font-weight="bold" letter-spacing=".2" fill="#FFF" transform="translate(44 4)"><tspan x="7" y="11">25</tspan></text></g></g></svg>