<svg width="66" height="67" viewBox="0 0 66 67" xmlns="http://www.w3.org/2000/svg" xmlns:xlink="http://www.w3.org/1999/xlink"><title>stamp-globtrotter</title><defs><path d="M28.46 58.291l-2.358.984a4 4 0 0 1-4.448-.946L19.9 56.472a4 4 0 0 0-2.814-1.253l-2.554-.06a4 4 0 0 1-3.68-2.674l-.846-2.41a4 4 0 0 0-2.061-2.29l-2.308-1.093a4 4 0 0 1-2.274-3.939l.207-2.546a4 4 0 0 0-.952-2.93L.954 35.34a4 4 0 0 1-.476-4.524l1.225-2.241a4 4 0 0 0 .322-3.064l-.732-2.447A4 4 0 0 1 2.7 18.738l2.03-1.55a4 4 0 0 0 1.54-2.667l.327-2.534a4 4 0 0 1 3.044-3.38l2.485-.59a4 4 0 0 0 2.492-1.81l1.329-2.182a4 4 0 0 1 4.155-1.85l2.51.472a4 4 0 0 0 3.014-.64l2.1-1.452a4 4 0 0 1 4.55 0l2.1 1.452a4 4 0 0 0 3.014.64l2.51-.472a4 4 0 0 1 4.155 1.85l1.329 2.182a4 4 0 0 0 2.492 1.81l2.485.59a4 4 0 0 1 3.044 3.38l.327 2.534a4 4 0 0 0 1.54 2.667l2.03 1.55a4 4 0 0 1 1.406 4.326l-.732 2.447a4 4 0 0 0 .322 3.064l1.225 2.241a4 4 0 0 1-.476 4.524l-1.664 1.938a4 4 0 0 0-.952 2.93l.207 2.545a4 4 0 0 1-2.274 3.94l-2.308 1.093a4 4 0 0 0-2.061 2.29l-.847 2.409a4 4 0 0 1-3.68 2.673l-2.553.06a4 4 0 0 0-2.814 1.254l-1.754 1.857a4 4 0 0 1-4.448.946l-2.358-.984a4 4 0 0 0-3.08 0z" id="b"/><filter x="-8.5%" y="-5.4%" width="117%" height="117.3%" filterUnits="objectBoundingBox" id="a"><feMorphology radius="1.1" operator="dilate" in="SourceAlpha" result="shadowSpreadOuter1"/><feOffset dy="2" in="shadowSpreadOuter1" result="shadowOffsetOuter1"/><feGaussianBlur stdDeviation="1" in="shadowOffsetOuter1" result="shadowBlurOuter1"/><feComposite in="shadowBlurOuter1" in2="SourceAlpha" operator="out" result="shadowBlurOuter1"/><feColorMatrix values="0 0 0 0 0.37254902 0 0 0 0 0.376470588 0 0 0 0 0.384313725 0 0 0 1 0" in="shadowBlurOuter1"/></filter><circle id="c" cx="20" cy="20" r="20"/><path d="M43.383 25.296a1.234 1.234 0 0 0 2.23 0s5.262-10.39 6.47-12.83c1.207-2.441 1.238-5.226 0-7.73A8.455 8.455 0 0 0 40.659.92c-4.21 2.128-5.82 7.479-3.777 11.547a5680.96 5680.96 0 0 1 6.501 12.83zM44.53 4.142c2.445 0 4.427 2.003 4.427 4.475 0 2.472-1.982 4.475-4.427 4.475-2.446 0-4.428-2.003-4.428-4.475 0-2.472 1.982-4.475 4.428-4.475z" id="e"/></defs><g transform="translate(3 2)" fill="none" fill-rule="evenodd"><use fill="#000" filter="url(#a)" xlink:href="#b"/><use stroke="#CDD2D8" stroke-width="2.2" fill="#FFF" xlink:href="#b"/><circle stroke="#186DB3" cx="30" cy="30" r="23"/><g transform="translate(10 10)"><mask id="d" fill="#fff"><use xlink:href="#c"/></mask><use stroke="#323E56" stroke-width="2" fill="#FFF" xlink:href="#c"/><g mask="url(#d)"><g transform="translate(-24 7)"><ellipse fill="#323E56" cx="44" cy="53" rx="44" ry="34"/><ellipse stroke="#FFF" cx="44" cy="53" rx="22" ry="34"/><ellipse stroke="#FFF" cx="44" cy="52" rx="10" ry="33"/><g fill-rule="nonzero"><use fill="#323E56" fill-rule="evenodd" xlink:href="#e"/><path stroke="#FFF" stroke-width="2.42" d="M42.299 25.832l.004.01-.322-.639a8788.758 8788.758 0 0 0-3.437-6.79l-.015-.032A2565.139 2565.139 0 0 0 35.8 13.01C33.43 8.29 35.36 2.24 40.113-.161a9.665 9.665 0 0 1 13.054 4.36c1.395 2.82 1.386 6.002 0 8.803-.468.948-1.565 3.127-3.101 6.17l-.016.031a6205.636 6205.636 0 0 1-3.07 6.07l-.283.56c-.909 1.836-3.49 1.836-4.398 0zm2.23-20.48c-1.775 0-3.218 1.458-3.218 3.265 0 1.807 1.443 3.265 3.218 3.265 1.774 0 3.217-1.458 3.217-3.265 0-1.807-1.443-3.265-3.217-3.265z"/></g></g></g></g></g></svg>