<svg width="74" height="67" viewBox="0 0 74 67" xmlns="http://www.w3.org/2000/svg" xmlns:xlink="http://www.w3.org/1999/xlink"><title>stamp-connector-level100x</title><defs><path d="M29.46 59.291l-2.358.984a4 4 0 0 1-4.448-.946L20.9 57.472a4 4 0 0 0-2.814-1.253l-2.554-.06a4 4 0 0 1-3.68-2.674l-.846-2.41a4 4 0 0 0-2.061-2.29l-2.308-1.093a4 4 0 0 1-2.274-3.939l.207-2.546a4 4 0 0 0-.952-2.93L1.954 36.34a4 4 0 0 1-.476-4.524l1.225-2.241a4 4 0 0 0 .322-3.064l-.732-2.447A4 4 0 0 1 3.7 19.738l2.03-1.55a4 4 0 0 0 1.54-2.667l.327-2.534a4 4 0 0 1 3.044-3.38l2.485-.59a4 4 0 0 0 2.492-1.81l1.329-2.182a4 4 0 0 1 4.155-1.85l2.51.472a4 4 0 0 0 3.014-.64l2.1-1.452a4 4 0 0 1 4.55 0l2.1 1.452a4 4 0 0 0 3.014.64l2.51-.472a4 4 0 0 1 4.155 1.85l1.329 2.182a4 4 0 0 0 2.492 1.81l2.485.59a4 4 0 0 1 3.044 3.38l.327 2.534a4 4 0 0 0 1.54 2.667l2.03 1.55a4 4 0 0 1 1.406 4.326l-.732 2.447a4 4 0 0 0 .322 3.064l1.225 2.241a4 4 0 0 1-.476 4.524l-1.664 1.938a4 4 0 0 0-.952 2.93l.207 2.545a4 4 0 0 1-2.274 3.94l-2.308 1.093a4 4 0 0 0-2.061 2.29l-.847 2.409a4 4 0 0 1-3.68 2.673l-2.553.06a4 4 0 0 0-2.814 1.254l-1.754 1.857a4 4 0 0 1-4.448.946l-2.358-.984a4 4 0 0 0-3.08 0z" id="b"/><filter x="-8.5%" y="-5.2%" width="117%" height="117.1%" filterUnits="objectBoundingBox" id="a"><feMorphology radius="1.1" operator="dilate" in="SourceAlpha" result="shadowSpreadOuter1"/><feOffset dy="2" in="shadowSpreadOuter1" result="shadowOffsetOuter1"/><feGaussianBlur stdDeviation="1" in="shadowOffsetOuter1" result="shadowBlurOuter1"/><feComposite in="shadowBlurOuter1" in2="SourceAlpha" operator="out" result="shadowBlurOuter1"/><feColorMatrix values="0 0 0 0 0.37254902 0 0 0 0 0.376470588 0 0 0 0 0.384313725 0 0 0 1 0" in="shadowBlurOuter1"/></filter></defs><g transform="translate(2 1)" fill="none" fill-rule="evenodd"><use fill="#000" filter="url(#a)" xlink:href="#b"/><use stroke="#CDD2D8" stroke-width="2.2" fill="#FFF" xlink:href="#b"/><circle stroke="#D3B7DD" cx="31" cy="31" r="23"/><circle stroke="#7F6284" stroke-width="2" fill="#FFF" cx="31" cy="31" r="20"/><g fill="#7F6284"><path d="M35 17a2.508 2.508 0 0 0-2.5 2.5c0 .694.289 1.323.75 1.777l-2.307 3.846A3.954 3.954 0 0 0 30 25c-1.197 0-2.262.54-2.996 1.379L26.5 26l-.6.8.543.409A3.946 3.946 0 0 0 26 29c0 .64.166 1.237.436 1.775l-5.694 3.795A2.969 2.969 0 0 0 19 34c-1.65 0-3 1.35-3 3 0 1.651 1.35 3 3 3s3-1.349 3-3c0-.634-.2-1.222-.54-1.707l5.532-3.688C27.727 32.452 28.796 33 30 33c.644 0 1.245-.169 1.785-.441l.389.546.814-.582-.375-.521C33.456 31.268 34 30.201 34 29c0-.02-.006-.04-.006-.06l6.338-.846c.359.543.973.906 1.668.906 1.099 0 2-.901 2-2s-.901-2-2-2-2 .901-2 2c0 .044.01.085.014.129l-6.172.822a3.996 3.996 0 0 0-1.955-2.455l2.205-3.674c.282.112.587.178.908.178 1.375 0 2.5-1.125 2.5-2.5S36.375 17 35 17zm-13 4c-1.099 0-2 .901-2 2s.901 2 2 2c.395 0 .761-.12 1.072-.32l.428.32.6-.799-.348-.262c.153-.281.248-.598.248-.939 0-1.099-.901-2-2-2zm2.9 3.8l-.6.802.8.6.6-.802-.8-.6zm8.67 8.538l-.814.582.58.812.814-.58-.58-.814zm1.162 1.627l-.814.582.582.812.813-.58-.58-.814zm1.163 1.627l-.815.582.582.814.813-.582-.58-.814zM38.5 38a2.47 2.47 0 0 0-1.324.389l-.12-.168-.814.58.203.283A2.48 2.48 0 0 0 36 40.5c0 1.375 1.125 2.5 2.5 2.5s2.5-1.125 2.5-2.5-1.125-2.5-2.5-2.5z" fill-rule="nonzero"/><path d="M30 26c1.663 0 3 1.337 3 3s-1.337 3-3 3-3-1.337-3-3 1.337-3 3-3z"/></g><g><path d="M48 4h20a4 4 0 0 1 4 4v8a4 4 0 0 1-4 4H52.815a4 4 0 0 0-3.01 1.366L47.5 24a1.997 1.997 0 0 1-3.5-1.315V8a4 4 0 0 1 4-4z" fill="#7F6284"/><text font-family="Gibson-Bold, Gibson" font-size="10" font-weight="bold" letter-spacing=".2" fill="#FFF" transform="translate(44 4)"><tspan x="5" y="11">100</tspan></text></g></g></svg>