<svg width="66" height="67" viewBox="0 0 66 67" xmlns="http://www.w3.org/2000/svg" xmlns:xlink="http://www.w3.org/1999/xlink"><title>stamp-teamplayer</title><defs><path d="M28.46 58.291l-2.358.984a4 4 0 0 1-4.448-.946L19.9 56.472a4 4 0 0 0-2.814-1.253l-2.554-.06a4 4 0 0 1-3.68-2.674l-.846-2.41a4 4 0 0 0-2.061-2.29l-2.308-1.093a4 4 0 0 1-2.274-3.939l.207-2.546a4 4 0 0 0-.952-2.93L.954 35.34a4 4 0 0 1-.476-4.524l1.225-2.241a4 4 0 0 0 .322-3.064l-.732-2.447A4 4 0 0 1 2.7 18.738l2.03-1.55a4 4 0 0 0 1.54-2.667l.327-2.534a4 4 0 0 1 3.044-3.38l2.485-.59a4 4 0 0 0 2.492-1.81l1.329-2.182a4 4 0 0 1 4.155-1.85l2.51.472a4 4 0 0 0 3.014-.64l2.1-1.452a4 4 0 0 1 4.55 0l2.1 1.452a4 4 0 0 0 3.014.64l2.51-.472a4 4 0 0 1 4.155 1.85l1.329 2.182a4 4 0 0 0 2.492 1.81l2.485.59a4 4 0 0 1 3.044 3.38l.327 2.534a4 4 0 0 0 1.54 2.667l2.03 1.55a4 4 0 0 1 1.406 4.326l-.732 2.447a4 4 0 0 0 .322 3.064l1.225 2.241a4 4 0 0 1-.476 4.524l-1.664 1.938a4 4 0 0 0-.952 2.93l.207 2.545a4 4 0 0 1-2.274 3.94l-2.308 1.093a4 4 0 0 0-2.061 2.29l-.847 2.409a4 4 0 0 1-3.68 2.673l-2.553.06a4 4 0 0 0-2.814 1.254l-1.754 1.857a4 4 0 0 1-4.448.946l-2.358-.984a4 4 0 0 0-3.08 0z" id="b"/><filter x="-8.5%" y="-5.4%" width="117%" height="117.3%" filterUnits="objectBoundingBox" id="a"><feMorphology radius="1.1" operator="dilate" in="SourceAlpha" result="shadowSpreadOuter1"/><feOffset dy="2" in="shadowSpreadOuter1" result="shadowOffsetOuter1"/><feGaussianBlur stdDeviation="1" in="shadowOffsetOuter1" result="shadowBlurOuter1"/><feComposite in="shadowBlurOuter1" in2="SourceAlpha" operator="out" result="shadowBlurOuter1"/><feColorMatrix values="0 0 0 0 0.37254902 0 0 0 0 0.376470588 0 0 0 0 0.384313725 0 0 0 1 0" in="shadowBlurOuter1"/></filter></defs><g transform="translate(3 2)" fill="none" fill-rule="evenodd"><use fill="#000" filter="url(#a)" xlink:href="#b"/><use stroke="#CDD2D8" stroke-width="2.2" fill="#FFF" xlink:href="#b"/><circle stroke="#186DB3" cx="30" cy="30" r="23"/><g fill="#323E56"><path d="M23.389 30.147c-.174.235-.809.91-2.447.934-1.682.025-2.35-.742-2.517-.977L18.392 30c-.007 0-.278.19-.729.442l-.312.169c-.309.16-.673.334-1.075.494-.35.14-.725.27-1.12.37-1.332.339-1.396 1.875-1.344 2.635 0 0 .076 1.033.153 1.484l.213 2.25c0 .538 1.45.994 3.46 1.156a8.02 8.02 0 0 1 .005-.484c.013-.295.043-.575.09-.842.034-.2.079-.39.132-.573a4.327 4.327 0 0 1 .343-.84c.14-.255.303-.484.49-.686a3.093 3.093 0 0 1 1.237-.813c.108-.039.219-.073.334-.102a12.996 12.996 0 0 0 1.594-.527 16.032 16.032 0 0 0 1.541-.71l.461-.25a17.954 17.954 0 0 0 .513-.299c.318-.193.501-.32.503-.322l.187-.13a6.533 6.533 0 0 1-1.062-2.07c-.355-.206-.563-.352-.563-.352l-.054.147z"/><path d="M17.596 27.302c.162 1.056.976 2.397 2.312 2.868.548.195 1.15.195 1.697-.004.68-.246 1.231-.721 1.63-1.268a8.396 8.396 0 0 1-.35-1.04c-.346-1.224-.318-2.043.087-2.578.062-.081.13-.154.207-.218a6.668 6.668 0 0 1-.017-.09c-.21-1.08-.21-1.957-.003-2.76.09-.389.224-.767.398-1.131-.112-.043-.187-.048-.187-.048s-.116-.223-.399-.483l-.1-.088c-.12-.099-.263-.2-.434-.295-.454-.267-1.082-.475-1.914-.403a2.83 2.83 0 0 0-.763.145 3.41 3.41 0 0 0-.84.428 4.31 4.31 0 0 0-.266.183l-.038.028c-.197.15-.385.318-.557.502-.412.42-.776.958-.933 1.637-.132.505-.102 1.03.008 1.6.03.165.072.33.136.5-.31-.03-.675.148-.331 1.366.246.886.48 1.137.657 1.15M42.23 30.442c-.45-.252-.722-.442-.722-.442l-.001.004L41.5 30l-.046.147c-.174.236-.81.91-2.45.935-1.682.024-2.351-.743-2.518-.978L36.454 30l-.007.004-.001-.004s-.212.148-.573.357a6.467 6.467 0 0 1-1.023 1.99l-.05.063.206.144.02.013a6.675 6.675 0 0 0 .255.167 15.098 15.098 0 0 0 .743.442l.461.25a17.113 17.113 0 0 0 1.541.71c.144.056.285.11.423.16.413.152.8.272 1.173.368a3.207 3.207 0 0 1 1.572.915 3.28 3.28 0 0 1 .491.687c.084.153.158.315.224.487.088.228.159.472.214.732A6.528 6.528 0 0 1 42.255 39c1.97-.168 3.38-.62 3.38-1.15 0-.009-.003-.018-.003-.028l.3-2.224c.076-.45.153-1.485.153-1.485.052-.76-.013-2.298-1.345-2.636a9.214 9.214 0 0 1-1.122-.371 11.67 11.67 0 0 1-1.075-.495l-.313-.17z"/><path d="M36.976 24.955l-.002.016-.003.015a6.88 6.88 0 0 1-.017.08c.077.064.147.137.21.22.404.535.432 1.353.087 2.571-.102.36-.218.724-.361 1.054.393.545.94 1.017 1.627 1.259.547.195 1.15.195 1.697-.004 1.315-.476 2.16-1.812 2.32-2.864.179-.012.412-.263.662-1.15.34-1.2-.014-1.386-.322-1.365-.002-.003-.003-.007-.006-.01.058-.163.1-.329.133-.49.522-3.144-1.022-3.254-1.022-3.254s-.116-.223-.399-.483l-.1-.088c-.12-.099-.263-.2-.434-.295-.454-.267-1.082-.475-1.914-.403a2.831 2.831 0 0 0-.763.145 3.41 3.41 0 0 0-.84.428 4.31 4.31 0 0 0-.266.183l-.038.028c-.148.113-.29.235-.425.367.396 1.003.456 2.356.176 4.04"/><path d="M43.076 43.276a19.226 19.226 0 0 1-2.32 1.976l.08-1.635.08-1.635.033-.224a15.39 15.39 0 0 0 .077-.64 25.817 25.817 0 0 0 .03-.296c.06-.62.102-1.2.102-1.2l.019-.644a6.93 6.93 0 0 0-.073-.911 5.385 5.385 0 0 0-.14-.634 3.977 3.977 0 0 0-.104-.31 3.242 3.242 0 0 0-.294-.587 2.481 2.481 0 0 0-1-.903 2.752 2.752 0 0 0-.543-.198c-.158-.04-.313-.083-.466-.129a15.652 15.652 0 0 1-1.785-.655 18.55 18.55 0 0 1-1.24-.592l-.497-.269a17.557 17.557 0 0 1-1.147-.702l-.247-.247a5.91 5.91 0 0 1-2.223 1.463 4.572 4.572 0 0 1-2.768.117 4.658 4.658 0 0 1-.346-.108 5.78 5.78 0 0 1-2.224-1.445l.104-.101-.23.224-.107.104s-.432.294-1.148.695l-.498.27a19.68 19.68 0 0 1-1.47.69l-.237.096c-.419.166-.858.324-1.318.46-.153.046-.308.089-.465.129-.199.05-.38.117-.544.198a2.48 2.48 0 0 0-1 .903 3.249 3.249 0 0 0-.293.587 3.977 3.977 0 0 0-.186.626 5.203 5.203 0 0 0-.098.631c-.02.207-.03.408-.033.598v.14a8.498 8.498 0 0 0 .018.505 59.924 59.924 0 0 0 .133 1.494 26.885 26.885 0 0 0 .076.641c.011.081.023.157.034.224l.118 3.433a18.775 18.775 0 0 1-2.548-2.14 18.748 18.748 0 0 1-5.527-13.343c0-5.04 1.963-9.78 5.527-13.344a18.748 18.748 0 0 1 13.344-5.527c5.04 0 9.78 1.963 13.344 5.527a18.747 18.747 0 0 1 5.527 13.344c0 5.04-1.963 9.78-5.527 13.344M8.8 29.932c0 7.29 3.727 13.708 9.38 17.456a20.848 20.848 0 0 0 11.552 3.476 20.834 20.834 0 0 0 11.75-3.608c5.542-3.766 9.182-10.12 9.182-17.324C50.664 18.372 41.292 9 29.732 9 18.172 9 8.8 18.372 8.8 29.932z"/><path d="M35.038 28.91c.258-.018.59-.356.95-1.502.031-.098.062-.2.093-.31.511-1.806.028-2.157-.439-2.157-.023 0-.045.001-.068.003l-.01-.017c.09-.256.157-.517.21-.773.247-1.493.2-2.551.012-3.302-.436-1.744-1.625-1.83-1.625-1.83s-.183-.351-.628-.76l-.157-.139v.001a4.372 4.372 0 0 0-.687-.466c-.618-.364-1.441-.658-2.5-.658-.166 0-.338.007-.517.023-.421.02-.823.1-1.204.227-.482.16-.923.402-1.325.676a6.74 6.74 0 0 0-.419.288l-.06.045a7.063 7.063 0 0 0-.879.79 5.732 5.732 0 0 0-1.222 1.806 4.904 4.904 0 0 0-.25.777c-.207.796-.16 1.626.014 2.522.047.261.114.522.214.79a.973.973 0 0 0-.094-.005c-.463 0-.936.36-.428 2.159.03.107.059.206.088.301.356 1.153.69 1.493.949 1.512.073.481.236 1 .477 1.512.193.41.434.817.729 1.196l.119.15c.596.72 1.375 1.33 2.321 1.664l.117.04a3.933 3.933 0 0 0 2.462-.013l.097-.034c.955-.345 1.752-.978 2.36-1.723l.078-.097c.292-.374.538-.772.732-1.175a5.44 5.44 0 0 0 .49-1.52"/></g></g></svg>