<svg width="66" height="67" viewBox="0 0 66 67" xmlns="http://www.w3.org/2000/svg" xmlns:xlink="http://www.w3.org/1999/xlink"><title>stamp-adapter</title><defs><path d="M28.46 58.291l-2.358.984a4 4 0 0 1-4.448-.946L19.9 56.472a4 4 0 0 0-2.814-1.253l-2.554-.06a4 4 0 0 1-3.68-2.674l-.846-2.41a4 4 0 0 0-2.061-2.29l-2.308-1.093a4 4 0 0 1-2.274-3.939l.207-2.546a4 4 0 0 0-.952-2.93L.954 35.34a4 4 0 0 1-.476-4.524l1.225-2.241a4 4 0 0 0 .322-3.064l-.732-2.447A4 4 0 0 1 2.7 18.738l2.03-1.55a4 4 0 0 0 1.54-2.667l.327-2.534a4 4 0 0 1 3.044-3.38l2.485-.59a4 4 0 0 0 2.492-1.81l1.329-2.182a4 4 0 0 1 4.155-1.85l2.51.472a4 4 0 0 0 3.014-.64l2.1-1.452a4 4 0 0 1 4.55 0l2.1 1.452a4 4 0 0 0 3.014.64l2.51-.472a4 4 0 0 1 4.155 1.85l1.329 2.182a4 4 0 0 0 2.492 1.81l2.485.59a4 4 0 0 1 3.044 3.38l.327 2.534a4 4 0 0 0 1.54 2.667l2.03 1.55a4 4 0 0 1 1.406 4.326l-.732 2.447a4 4 0 0 0 .322 3.064l1.225 2.241a4 4 0 0 1-.476 4.524l-1.664 1.938a4 4 0 0 0-.952 2.93l.207 2.545a4 4 0 0 1-2.274 3.94l-2.308 1.093a4 4 0 0 0-2.061 2.29l-.847 2.409a4 4 0 0 1-3.68 2.673l-2.553.06a4 4 0 0 0-2.814 1.254l-1.754 1.857a4 4 0 0 1-4.448.946l-2.358-.984a4 4 0 0 0-3.08 0z" id="b"/><filter x="-8.5%" y="-5.4%" width="117%" height="117.3%" filterUnits="objectBoundingBox" id="a"><feMorphology radius="1.1" operator="dilate" in="SourceAlpha" result="shadowSpreadOuter1"/><feOffset dy="2" in="shadowSpreadOuter1" result="shadowOffsetOuter1"/><feGaussianBlur stdDeviation="1" in="shadowOffsetOuter1" result="shadowBlurOuter1"/><feComposite in="shadowBlurOuter1" in2="SourceAlpha" operator="out" result="shadowBlurOuter1"/><feColorMatrix values="0 0 0 0 0.37254902 0 0 0 0 0.376470588 0 0 0 0 0.384313725 0 0 0 1 0" in="shadowBlurOuter1"/></filter></defs><g fill="none" fill-rule="evenodd"><g transform="translate(3 2)"><use fill="#000" filter="url(#a)" xlink:href="#b"/><use stroke="#CDD2D8" stroke-width="2.2" fill="#FFF" xlink:href="#b"/><circle stroke="#186DB3" cx="30" cy="30" r="23"/><circle stroke="#323E56" stroke-width="2" fill="#FFF" cx="30" cy="30" r="20"/></g><path d="M37.456 23.735l.678-1.404a10.518 10.518 0 0 0-10.428.84 10.489 10.489 0 0 0-3.034 3.152l-1.855-2.26a13.365 13.365 0 0 1 3.297-3.181 13.327 13.327 0 0 1 13.23-1.06l.674-1.398a.755.755 0 1 1 1.332-.05l2.619 4.494a.736.736 0 0 1 .027.692.752.752 0 0 1-.562.414l-5.18.818a.757.757 0 0 1-.723-.29.736.736 0 0 1-.075-.767zm-18.643 9.228l1.565-.121c.367 4.676 3.247 8.797 7.543 10.792a13.562 13.562 0 0 0 4.434 1.23l1.04-2.718a10.662 10.662 0 0 1-4.277-1.02c-3.38-1.576-5.647-4.82-5.94-8.502l1.557-.124a.752.752 0 0 0 .632-.448.737.737 0 0 0-.107-.762l-3.294-4.025a.757.757 0 0 0-1.236.097l-2.628 4.485a.736.736 0 0 0 .014.77c.149.235.418.368.697.346zm28.142-2.252a13.153 13.153 0 0 0-1.135-4.408l-2.908.457c.7 1.285 1.12 2.7 1.233 4.155.32 3.69-1.39 7.264-4.48 9.36l-.895-1.28a.756.756 0 0 0-1.323.156l-1.86 4.84a.736.736 0 0 0 .082.686c.14.202.372.323.62.323h5.246a.754.754 0 0 0 .68-.4.736.736 0 0 0-.059-.78l-.896-1.278c3.911-2.647 6.085-7.163 5.695-11.83zm-19.142 3.07a6.082 6.082 0 0 1 2.02-6.864 6.26 6.26 0 0 1 7.228-.3 6.092 6.092 0 0 1 2.594 6.673c-.674 2.544-2.916 4.379-5.57 4.56-2.778.186-5.34-1.477-6.272-4.07z" fill-rule="nonzero" fill="#323E56"/></g></svg>