<svg width="66" height="77" viewBox="0 0 66 77" xmlns="http://www.w3.org/2000/svg" xmlns:xlink="http://www.w3.org/1999/xlink"><title>stamp-skillful-presenter</title><defs><path d="M19.187 3.669L25 17l3-6 8 1-8-12c-5.025 2.243-7.963 3.466-8.813 3.669z" id="b"/><filter x="-57.3%" y="-44.9%" width="214.7%" height="213.4%" filterUnits="objectBoundingBox" id="a"><feMorphology radius="2.64" operator="dilate" in="SourceAlpha" result="shadowSpreadOuter1"/><feOffset dy="2" in="shadowSpreadOuter1" result="shadowOffsetOuter1"/><feGaussianBlur stdDeviation="2" in="shadowOffsetOuter1" result="shadowBlurOuter1"/><feComposite in="shadowBlurOuter1" in2="SourceAlpha" operator="out" result="shadowBlurOuter1"/><feColorMatrix values="0 0 0 0 0 0 0 0 0 0 0 0 0 0 0 0 0 0 0.5 0" in="shadowBlurOuter1"/></filter><path d="M.187 3.669L6 17l3-6 8 1L9 0C3.975 2.243 1.037 3.466.187 3.669z" id="d"/><filter x="-57.3%" y="-44.9%" width="214.7%" height="213.4%" filterUnits="objectBoundingBox" id="c"><feMorphology radius="2.64" operator="dilate" in="SourceAlpha" result="shadowSpreadOuter1"/><feOffset dy="2" in="shadowSpreadOuter1" result="shadowOffsetOuter1"/><feGaussianBlur stdDeviation="2" in="shadowOffsetOuter1" result="shadowBlurOuter1"/><feComposite in="shadowBlurOuter1" in2="SourceAlpha" operator="out" result="shadowBlurOuter1"/><feColorMatrix values="0 0 0 0 0 0 0 0 0 0 0 0 0 0 0 0 0 0 0.5 0" in="shadowBlurOuter1"/></filter><path d="M28.471 58.446l-2.357.983a4 4 0 0 1-4.45-.945l-1.752-1.858a4 4 0 0 0-2.815-1.253l-2.553-.06a4 4 0 0 1-3.68-2.673l-.846-2.41a4 4 0 0 0-2.062-2.29l-2.308-1.093a4 4 0 0 1-2.274-3.94l.207-2.545a4 4 0 0 0-.952-2.93L.965 35.494a4 4 0 0 1-.475-4.523l1.224-2.242a4 4 0 0 0 .322-3.063l-.731-2.448a4 4 0 0 1 1.405-4.325l2.03-1.55a4 4 0 0 0 1.54-2.668l.328-2.533a4 4 0 0 1 3.043-3.38l2.485-.59a4 4 0 0 0 2.492-1.81l1.33-2.182a4 4 0 0 1 4.154-1.85l2.51.472a4 4 0 0 0 3.014-.64L27.737.709a4 4 0 0 1 4.549 0l2.1 1.453a4 4 0 0 0 3.014.64l2.51-.472a4 4 0 0 1 4.155 1.85l1.33 2.181a4 4 0 0 0 2.492 1.811l2.485.59a4 4 0 0 1 3.043 3.38l.327 2.533a4 4 0 0 0 1.54 2.668l2.03 1.55a4 4 0 0 1 1.406 4.325l-.731 2.448a4 4 0 0 0 .322 3.063l1.224 2.242a4 4 0 0 1-.475 4.523l-1.664 1.938a4 4 0 0 0-.952 2.93l.207 2.546a4 4 0 0 1-2.274 3.939l-2.309 1.093a4 4 0 0 0-2.06 2.29l-.847 2.41a4 4 0 0 1-3.68 2.673l-2.553.06a4 4 0 0 0-2.815 1.253l-1.753 1.858a4 4 0 0 1-4.449.945l-2.357-.983a4 4 0 0 0-3.08 0z" id="f"/><filter x="-8.5%" y="-5.2%" width="117%" height="117.1%" filterUnits="objectBoundingBox" id="e"><feMorphology radius="1.1" operator="dilate" in="SourceAlpha" result="shadowSpreadOuter1"/><feOffset dy="2" in="shadowSpreadOuter1" result="shadowOffsetOuter1"/><feGaussianBlur stdDeviation="1" in="shadowOffsetOuter1" result="shadowBlurOuter1"/><feComposite in="shadowBlurOuter1" in2="SourceAlpha" operator="out" result="shadowBlurOuter1"/><feColorMatrix values="0 0 0 0 0.37254902 0 0 0 0 0.376470588 0 0 0 0 0.384313725 0 0 0 1 0" in="shadowBlurOuter1"/></filter><path d="M12.802 0l2.115 4.335c.185.378.544.64.959.696l4.728.683-3.428 3.388a1.274 1.274 0 0 0-.355 1.117L17.623 15l-4.243-2.26a1.245 1.245 0 0 0-1.156 0L7.968 15l.815-4.781a1.274 1.274 0 0 0-.355-1.117L5 5.714l4.742-.683c.404-.065.753-.325.932-.696L12.802 0z" id="g"/></defs><g fill="none" fill-rule="evenodd"><g transform="translate(3 2)"><g fill-rule="nonzero"><g transform="translate(12 51)"><use fill="#000" filter="url(#a)" xlink:href="#b"/><use fill="#CDD2D8" fill-rule="evenodd" xlink:href="#b"/><path stroke="#FFF" stroke-width="2.64" d="M28.763 12.426l-3.845 7.689-7.572-17.364 1.534-.366c.73-.174 3.676-1.4 8.582-3.59l1.018-.455 10.218 15.328-9.935-1.242z"/></g><g transform="matrix(-1 0 0 1 29.187 51)"><use fill="#000" filter="url(#c)" xlink:href="#d"/><use fill="#CDD2D8" fill-rule="evenodd" xlink:href="#d"/><path stroke="#FFF" stroke-width="2.64" d="M9.763 12.426l-3.845 7.689-7.572-17.364 1.534-.366c.73-.174 3.676-1.4 8.582-3.59L9.48-1.66l10.218 15.328-9.935-1.242z"/></g></g><use fill="#000" filter="url(#e)" xlink:href="#f"/><use stroke="#CDD2D8" stroke-width="2.2" fill="#FFF" xlink:href="#f"/><circle stroke="#FCBA42" cx="30" cy="30" r="23"/><circle stroke="#C33D1C" stroke-width="2" fill="#FFF" cx="30" cy="30" r="20"/></g><path d="M44.791 40.922c-.636.65-1.29 1.283-1.927 1.933-.234.239-.498.352-.836.346-.509-.014-1.018-.006-1.563-.006l-1.197-.022c-.008.07-.017.141-.022.21-.147 1.843-.595 5.645-.807 7.481C38.381 51.365 28.366 52.008 28 52c-.545-.014-1.07-6.947-1.259-8.827h-1.194c-.363 0-.716.005-1.068.005-.275 0-.55-.003-.823-.016-.162-.009-.34-.152-.47-.275a129.703 129.703 0 0 1-2.458-2.463c-.135-.14-.206-.374-.242-.575-.041-.234-.01-.479-.008-.718.003-.6.328-.928.93-.928 2.716-.003 5.432 0 8.148 0H44.61c.6.003.927.325.919.936-.016 1.271.174.85-.737 1.783z" fill="#C33D1C" fill-rule="nonzero"/><g transform="translate(20 19)"><use fill="#C33D1C" xlink:href="#g"/><path stroke="#FCBA42" d="M13.251-.22l2.115 4.335a.758.758 0 0 0 .581.42l5.724.827-.715.707-3.427 3.387a.775.775 0 0 0-.215.68l.97 5.782-.896-.477-4.24-2.257a.744.744 0 0 0-.69-.002l-5.153 2.736.17-1.002.815-4.781a.774.774 0 0 0-.213-.677L3.933 5.362l.996-.143 4.734-.682a.758.758 0 0 0 .562-.423l2.578-5.251.448.918z"/></g></g></svg>