<svg width="66" height="67" viewBox="0 0 66 67" xmlns="http://www.w3.org/2000/svg" xmlns:xlink="http://www.w3.org/1999/xlink"><title>stamp-explorer</title><defs><path d="M28.46 58.291l-2.358.984a4 4 0 0 1-4.448-.946L19.9 56.472a4 4 0 0 0-2.814-1.253l-2.554-.06a4 4 0 0 1-3.68-2.674l-.846-2.41a4 4 0 0 0-2.061-2.29l-2.308-1.093a4 4 0 0 1-2.274-3.939l.207-2.546a4 4 0 0 0-.952-2.93L.954 35.34a4 4 0 0 1-.476-4.524l1.225-2.241a4 4 0 0 0 .322-3.064l-.732-2.447A4 4 0 0 1 2.7 18.738l2.03-1.55a4 4 0 0 0 1.54-2.667l.327-2.534a4 4 0 0 1 3.044-3.38l2.485-.59a4 4 0 0 0 2.492-1.81l1.329-2.182a4 4 0 0 1 4.155-1.85l2.51.472a4 4 0 0 0 3.014-.64l2.1-1.452a4 4 0 0 1 4.55 0l2.1 1.452a4 4 0 0 0 3.014.64l2.51-.472a4 4 0 0 1 4.155 1.85l1.329 2.182a4 4 0 0 0 2.492 1.81l2.485.59a4 4 0 0 1 3.044 3.38l.327 2.534a4 4 0 0 0 1.54 2.667l2.03 1.55a4 4 0 0 1 1.406 4.326l-.732 2.447a4 4 0 0 0 .322 3.064l1.225 2.241a4 4 0 0 1-.476 4.524l-1.664 1.938a4 4 0 0 0-.952 2.93l.207 2.545a4 4 0 0 1-2.274 3.94l-2.308 1.093a4 4 0 0 0-2.061 2.29l-.847 2.409a4 4 0 0 1-3.68 2.673l-2.553.06a4 4 0 0 0-2.814 1.254l-1.754 1.857a4 4 0 0 1-4.448.946l-2.358-.984a4 4 0 0 0-3.08 0z" id="b"/><filter x="-8.5%" y="-5.4%" width="117%" height="117.3%" filterUnits="objectBoundingBox" id="a"><feMorphology radius="1.1" operator="dilate" in="SourceAlpha" result="shadowSpreadOuter1"/><feOffset dy="2" in="shadowSpreadOuter1" result="shadowOffsetOuter1"/><feGaussianBlur stdDeviation="1" in="shadowOffsetOuter1" result="shadowBlurOuter1"/><feComposite in="shadowBlurOuter1" in2="SourceAlpha" operator="out" result="shadowBlurOuter1"/><feColorMatrix values="0 0 0 0 0.37254902 0 0 0 0 0.376470588 0 0 0 0 0.384313725 0 0 0 1 0" in="shadowBlurOuter1"/></filter></defs><g transform="translate(3 2)" fill="none" fill-rule="evenodd"><use fill="#000" filter="url(#a)" xlink:href="#b"/><use stroke="#CDD2D8" stroke-width="2.2" fill="#FFF" xlink:href="#b"/><circle stroke="#186DB3" cx="30" cy="30" r="23"/><circle stroke="#323E56" stroke-width="2" fill="#FFF" cx="30" cy="30" r="20"/><g transform="translate(9 9)"><path d="M21 42c11.599 0 21-9.402 21-21S32.598 0 21 0 0 9.402 0 21s9.401 21 21 21zM7.108 7.109a19.576 19.576 0 0 1 13.213-5.737v3.37a.678.678 0 1 0 1.356 0v-3.37A19.575 19.575 0 0 1 34.89 7.109a19.576 19.576 0 0 1 5.737 13.213h-3.37a.678.678 0 1 0 0 1.356h3.37a19.575 19.575 0 0 1-5.737 13.213 19.575 19.575 0 0 1-13.213 5.737v-3.37a.678.678 0 1 0-1.356 0v3.37A19.577 19.577 0 0 1 7.11 34.891a19.577 19.577 0 0 1-5.737-13.213h3.37a.678.678 0 1 0 0-1.356h-3.37A19.576 19.576 0 0 1 7.109 7.11z" fill="#323E56" fill-rule="nonzero"/><path d="M12.017 29.909l11.17-6.476a.675.675 0 0 0 .246-.246l6.476-11.17a.678.678 0 0 0-.926-.926l-11.17 6.476a.675.675 0 0 0-.246.246l-6.476 11.17a.678.678 0 0 0 .926.926z" fill="#323E56" fill-rule="nonzero"/><circle fill="#FFF" cx="20.5" cy="20.5" r="1.5"/></g></g></svg>