<svg width="22" height="21" viewBox="0 0 22 21" xmlns="http://www.w3.org/2000/svg"><title>icon-calendar</title><path d="M21 5.434a.63.63 0 0 0-.566-.63.615.615 0 0 0-.152-.004h-3.004V1.633A.63.63 0 0 0 16.653 1a.63.63 0 0 0-.624.633v3.168H6.072V1.633A.63.63 0 0 0 5.447 1a.63.63 0 0 0-.625.633v3.168H1.691A.63.63 0 0 0 1 5.43v13.936a.63.63 0 0 0 .711.626h14.974a.63.63 0 0 0 .625-.633.63.63 0 0 0-.625-.634H2.25V6.067h2.572v.697c0 .35.28.634.625.634a.63.63 0 0 0 .625-.634v-.697h9.957v.697c0 .35.28.634.624.634a.63.63 0 0 0 .625-.634v-.697h2.445v13.3c0 .35.28.633.625.633a.63.63 0 0 0 .625-.634V5.617A.641.641 0 0 0 21 5.434z" stroke-width=".5" stroke="#0D1733" fill="#0D1733" fill-rule="nonzero"/></svg>