<svg width="22" height="21" viewBox="0 0 22 21" xmlns="http://www.w3.org/2000/svg"><title>icon-group</title><g stroke-width=".5" stroke="#0D1733" fill="#0D1733" fill-rule="nonzero"><path d="M13.624 11.865a4.91 4.91 0 0 0 2.438-4.232c0-2.72-2.234-4.925-4.99-4.925-2.755 0-4.989 2.205-4.989 4.925a4.91 4.91 0 0 0 2.417 4.22c-2.217.966-3.765 3.155-3.765 5.701 0 .663.106 1.301.3 1.9a.625.625 0 0 0 .614.504.621.621 0 0 0 .621-.684.607.607 0 0 0-.084-.247 4.955 4.955 0 0 1-.222-1.472c0-2.672 2.115-4.855 4.782-5.009a5.13 5.13 0 0 0 .629.002c2.655.166 4.757 2.344 4.757 5.006a4.95 4.95 0 0 1-.25 1.556l-.021.064a.621.621 0 0 0 .601.784.627.627 0 0 0 .518-.272.61.61 0 0 0 .105-.31 6.15 6.15 0 0 0 .275-1.822c0-2.535-1.534-4.716-3.736-5.689zM7.33 7.633c0-2.04 1.676-3.694 3.743-3.694s3.742 1.654 3.742 3.694c0 2.018-1.64 3.656-3.675 3.692l-.092-.001h-.06C8.962 11.28 7.33 9.646 7.33 7.634z"/><path d="M17.457 10.078c1.209-.711 1.953-1.834 2.173-3.22.053-.29.082-.587.082-.89 0-1.904-1.095-3.555-2.696-4.374l-.06-.031-.059-.03-.015-.007-.022-.01-.01-.004a5.024 5.024 0 0 0-3.402-.305l-.022.006-.012.003a.618.618 0 0 0-.466.596.621.621 0 0 0 .708.61l.006.004.042-.011a3.752 3.752 0 0 1 1.019-.142c.641 0 1.245.16 1.773.44l.05.028.07.04a3.681 3.681 0 0 1 1.837 3.178c0 .933-.353 1.788-.933 2.442-.112.116-.242.242-.375.367l-.072.062v.006c-.383.356-.77.69-.825.738-.17.145-.299.369-.26.595.037.225.21.382.392.506.103.07.213.133.316.204.211.148.416.304.616.467.305.248.604.508.877.79.13.135.256.273.363.426h-.001a5.121 5.121 0 0 1 1.218 3.319 4.95 4.95 0 0 1-.25 1.556l-.021.063a.621.621 0 0 0 .601.784.627.627 0 0 0 .518-.271 6.15 6.15 0 0 0 .38-2.132c0-2.535-1.338-4.83-3.54-5.803zM4.543 10.078C3.334 9.367 2.59 8.244 2.37 6.858a4.886 4.886 0 0 1-.082-.89c0-1.904 1.095-3.555 2.696-4.374l.06-.031.059-.03.015-.007.022-.01.01-.004a5.024 5.024 0 0 1 3.402-.305l.022.006.012.003c.268.07.466.31.466.596a.621.621 0 0 1-.708.61l-.006.004-.042-.011a3.752 3.752 0 0 0-1.019-.142c-.641 0-1.245.16-1.773.44l-.05.028A3.681 3.681 0 0 0 3.547 5.96c0 .933.353 1.788.933 2.442.112.116.242.242.375.367l.072.062v.006c.383.356.77.69.825.738.17.145.299.369.26.595-.037.225-.21.382-.392.506-.103.07-.213.133-.316.204-.211.148-.416.304-.616.467a9.976 9.976 0 0 0-.877.79c-.13.135-.257.273-.363.426h.001a5.121 5.121 0 0 0-1.218 3.319c0 .543.087 1.066.25 1.556l.02.063a.621.621 0 0 1-.601.784.627.627 0 0 1-.517-.271 6.15 6.15 0 0 1-.38-2.132c0-2.535 1.338-4.83 3.54-5.803z"/></g></svg>