<svg xmlns="http://www.w3.org/2000/svg" width="400" height="400" viewBox="0 0 400 400"><path fill-rule="evenodd" clip-rule="evenodd" fill="#333" d="M280 190.3H143.5l40.2-40.2c3.9-3.9 3.9-10.2 0-14.1-3.9-3.9-10.2-3.9-14.1 0L113 192.6c-2 2-3 4.7-2.9 7.4v1.3c0 .1 0 .3.1.4 0 .2 0 .4.1.5 0 .2.1.3.1.5 0 .1.1.3.1.4 0 .2.1.3.2.5.1.1.1.3.2.4.1.1.1.3.2.4.1.2.1.3.2.5.1.1.2.3.2.4.1.1.2.3.3.4.1.1.2.3.3.4.1.1.2.3.3.4.2.2.4.4.5.6l.1.1 56.6 56.6c3.9 3.9 10.2 3.9 14.1 0 3.9-3.9 3.9-10.2 0-14.1l-39.5-39.5h135.9c5.5 0 10-4.5 10-10-.1-5.4-4.6-9.9-10.1-9.9z"/></svg>