<svg xmlns="http://www.w3.org/2000/svg" width="400" height="400" viewBox="0 0 400 400"><path fill="#333" d="M328.3 101.4c-.1-.3-.3-.6-.5-.8-.2-.3-.3-.5-.5-.8-.4-.5-.8-1-1.3-1.4-.6-.5-1.2-1-1.9-1.3L205 46.6c-.9-.6-1.8-1-2.8-1.2-.9-.3-1.9-.4-2.8-.4-1 0-1.9.1-2.8.4-1 .3-1.9.7-2.8 1.2l-119 50.3c-.8.5-1.6 1-2.2 1.6-.4.4-.7.7-1 1.1-.3.4-.6.8-.8 1.2-19.7 26.6-31.4 59.5-31.4 95.1 0 54 26.8 101.8 67.8 130.7 0 0 0-.1.1-.1 1.8 1.7 4.2 2.8 6.9 2.8 5.5 0 10-4.5 10-10 0-3.3-1.6-6.1-4-8-.2-.2-.5-.3-.7-.5-36.3-25.3-60-67.3-60-114.9 0-30.8 10-59.3 26.8-82.4l113.3-47.9 113.1 47.9c16.9 23.1 26.8 51.6 26.8 82.4 0 77.1-62.3 139.7-139.4 140h-1.4c-5.2.3-9.3 4.7-9.3 10 0 5.5 4.5 10 10 10h.4c88.2-.2 159.6-71.8 159.6-160 0-35.3-11.6-68-31.1-94.5z"/><path fill="#333" d="M250 254.5v-99c0-5.5-4.5-10-10-10s-10 4.5-10 10v99c0 5.5 4.5 10 10 10s10-4.5 10-10zM210.7 215c5.5 0 10-4.5 10-10s-4.5-10-10-10H170v-39.5c0-5.5-4.5-10-10-10s-10 4.5-10 10v99c0 5.5 4.5 10 10 10s10-4.5 10-10V215h40.7z"/></svg>