<svg xmlns="http://www.w3.org/2000/svg" width="400" height="400" viewBox="0 0 400 400"><path fill="#333" d="M128.5 330l30.5.1v2.9h.4c1.4 9.3 8.3 37 39.6 37 30.4 0 37.8-26.7 39.5-37h.5v-2.7l100.5.2c8.2 0 15.8-8.5 17.5-13.5s4-15.7-8-24-23-9.3-44-41-8-82-8-82 8.7-47-18-80-60-37-60-37c0-23.3-20-23-20-23-18.3.3-19 22-19 22-21.3 2.3-43.7 17-61 38s-23 54.7-17 80 3.3 53.7-8 80c-11.3 26.3-41.3 40.7-48 45s-7.7 15-5 24 14.7 11 22 11 11.7-1.3 14-6 .5-10-2.2-11.8c-4.6-2.9-9.8-2.2-9.8-2.2s23.7-3 49-51 8-93 8-93-12.3-38.3 17-68 60-28 60-28 28.3-3.7 60 28 12 81 12 81-9.5 48 13 82c24.1 36.4 49.5 49.5 49.5 49.5l-64-.2v-.3l-30.5.1-12-.1s-8 2-8 10.7v8.3s-1.3 21-20 21-20-23-20-23v-6c0-9-8-11-8-11l-12 .1-30.5-.1v.5s-9.5-.5-9.5 9.5 9.5 10.5 9.5 10.5v-.5z"/></svg>