<svg xmlns="http://www.w3.org/2000/svg" width="400" height="400" viewBox="0 0 400 400"><g fill="#333"><path d="M353.7 156.2C327.3 71.9 237.5 24.9 153.2 51.3 68.9 77.7 21.9 167.5 48.3 251.8c1 3.2 2.1 6.3 3.3 9.3.1.2.1.4.2.6.1.1.1.3.2.4 2 4.6 7.2 7.1 12.2 5.5 5.3-1.6 8.2-7.3 6.6-12.5-.1-.3-.2-.7-.4-1-1.1-2.7-2-5.5-2.9-8.4C44.3 172 85.4 93.5 159.2 70.4c73.8-23.1 152.3 18 175.5 91.8 23.1 73.8-18 152.3-91.8 175.4-51.1 16-104.4 1.2-140.1-33.9l-.8-.8c-2.5-2.3-6.2-3.2-9.6-2.1-5.3 1.7-8.2 7.3-6.6 12.5.6 1.8 1.6 3.3 2.9 4.4 40.8 40.2 101.8 57.1 160.2 38.8 84.2-26.2 131.2-116 104.8-200.3z"/><path d="M301 150.1c-7.1 3.2-14.8 5.3-22.8 6.2 8.2-4.9 14.5-12.7 17.4-21.9-7.7 4.5-16.1 7.8-25.2 9.6-7.2-7.7-17.5-12.5-28.9-12.5-21.9 0-39.7 17.8-39.7 39.7 0 3.1.3 6.1 1 9-33-1.7-62.2-17.4-81.7-41.4-3.4 5.9-5.4 12.7-5.4 19.9 0 13.8 7 25.9 17.6 33-6.5-.2-12.6-2-18-5v.5c0 19.2 13.7 35.2 31.8 38.9-3.3.9-6.8 1.4-10.4 1.4-2.6 0-5-.2-7.5-.7 5 15.8 19.7 27.2 37 27.5-13.6 10.6-30.7 17-49.2 17-3.2 0-6.4-.2-9.5-.6 17.6 11.3 38.4 17.8 60.8 17.8 72.9 0 112.8-60.4 112.8-112.8 0-1.7 0-3.4-.1-5.1 7.9-5.6 14.7-12.6 20-20.5z"/></g></svg>