<svg xmlns="http://www.w3.org/2000/svg" width="400" height="400" viewBox="0 0 400 400"><g fill="#333"><path d="M263.8 42.9c-19 0-36.6 5.7-51.2 15.4-3.8 1.9-6.2 6.1-5.5 10.8.7 4.5 4.4 8.1 8.9 8.6 3.1.4 5.9-.6 8-2.5 11.5-8 25.5-12.7 40.7-12.7 22 0 41.7 10 54.7 25.7l13.9-13.9C316.8 54 292.8 43 263.8 42.9zM334.8 121.8c.6 3.7.9 7.5.9 11.4 0 5.7-.7 11.3-2 16.8-1.3 5.3-3.3 10.5-5.8 15.4-2.5 4.8-5.6 9.4-9.1 13.5-2.6 3.1-5.9 5.5-8.8 8.4l-2.6 2.6-3.3 3.3-4.1 4.1-28.6 28.6-6.9 6.9-7.2 7.2-7.3 7.3-7.4 7.4-7.5 7.5-7.5 7.5-7.4 7.4-7.2 7.2-7 7-6.7 6.7-6.3 6.3-11.3 11.3-4.8 4.8-4.2 4.2-3.5 3.5-4.7 4.7-1 1-.2.2-101-101 128.9-128.9c3.9-3.9 3.9-10.2 0-14.1-3.9-3.9-10.2-3.9-14.1 0L41.6 225.6l-.3.3c-1.9 1.9-2.9 4.5-2.9 7 0 2.6 1 5.1 2.9 7l.3.3L156 354.7l.3.3c3.9 3.9 10.2 3.9 14.1 0l1.9-1.9 2.3-2.3 7-7 4.6-4.6 10.9-10.9 6.2-6.2 20.8-20.8 7.5-7.5 15.3-15.3 7.7-7.7 7.7-7.7 7.5-7.5 7.3-7.3 7.1-7.1 6.8-6.8 6.4-6.4 5.9-5.9 5.4-5.4 4.8-4.8 4.2-4.2 3.4-3.4 2.7-2.7 1.8-1.8c3.9-3.9 7.8-7.9 11.2-12.3 3.3-4.3 6.2-8.9 8.6-13.7 2.5-4.9 4.5-9.9 6-15.2 1.6-5.3 2.6-10.8 3.2-16.4.3-2.8.4-5.6.4-8.4 0-9-1.8-19.3-4.4-28l-15.8 16z"/><path d="M357.5 74.6c-3.9-3.9-10.2-3.9-14 0l-1.6 1.6-58.4 58.4c-.1.1-.2.1-.3.2-.9 1.1-1.9 2.1-3.1 3-.7.5-1.3 1-1.9 1.6-1.8 2.2-4.7 3.7-7.9 3.7-5.5 0-9.9-4.4-9.9-9.9 0-2.8 1.3-5.6 3.5-7.4 1.1-.9 2.4-1.6 3.7-2 1.4-.4 2.9-.5 4.3-.5 1.5 0 2.9.6 4.4.6 5.5 0 10-4.5 10-10 0-2.3-.8-4.8-2.3-6.6-1.8-2.2-4.9-2.8-7.5-3.3-.8-.2-1.7-.3-2.5-.4-18.3-2-33.6 12.1-33.6 29.8 0 16.5 13.6 29.9 30.1 29.9 8.9 0 16.9-3.9 22.4-10.1l.3-.3L351 95l6.5-6.5c3.8-3.8 3.8-10.1 0-13.9z"/></g></svg>