<svg xmlns="http://www.w3.org/2000/svg" width="400" height="400" viewBox="0 0 400 400"><path fill="#323232" d="M352.7 157.2C326.3 72.9 236.5 25.9 152.2 52.3 67.9 78.7 20.9 168.5 47.3 252.8c1 3.2 2.1 6.3 3.3 9.3.1.2.1.4.2.6.1.1.1.3.2.4 2 4.6 7.2 7.1 12.2 5.5 5.3-1.6 8.2-7.3 6.6-12.5-.1-.3-.2-.7-.4-1-1-2.7-2-5.5-2.9-8.4C43.3 173 84.4 94.5 158.2 71.4c73.8-23.1 152.3 18 175.5 91.8 23.1 73.8-18 152.3-91.8 175.4-8.6 2.7-17.5 4.6-26.5 5.6-8.8 1-17.6 1.1-26.4.4-8.6-.7-17.2-2.2-25.6-4.5-8.3-2.3-16.4-5.3-24.1-9-4-1.9-7.8-4-11.6-6.3-3.6-2.2-7.5-4.4-10.8-7.1-2.8-2-4.7-5-4.7-8.4 0-2.8 1.2-5.4 3.1-7.2l14.9-16.2c5.8 4.4 12.3 6.7 19 6.7 7.8 0 14.7-3.7 20.3-8.8 12-10.8 22.9-25.7 16.6-42.5-2.7-7.2-8.2-12.7-14.1-17.5-2.9-2.3-6-4.4-8.8-6.8-2.8-2.4-3-5.2-3-8.7l.1-.5c.2-1.3.4-2.5.8-3.7 7.6-22 21.7-39 41.8-50.5 1.6-.9 3.4-1.5 5.4-2l.8-.2c2.5-.7 4.3-.3 6.3 1.4 4.8 4.2 9.6 8.2 14.6 12.2 5.4 4.4 12.2 6.8 19.2 6.8 15.9 0 28.2-13.4 35.3-26.4 6.8-12.4 3.5-28.5-7.3-37.5-1.7-1.5-3.5-2.9-5.3-4.3-2.9-2.4-5.9-4.8-8.8-7.4-8.1-7.3-18.2-10.5-30.2-9.5-13.3 1.1-26.3 5.9-40 14.5-37.4 23.7-65.5 56.7-83.6 98.3-6.4 14.7-9.3 28.4-8.9 41.9.4 13.5 4.8 23.6 13.3 30.9l-.9.9-25 30.3c-1.5 1.2-2.6 2.9-3.1 4.7-.1.2-.1.4-.2.5 0 .1 0 .1-.1.2-.4 1.7-.4 3.5.2 5.3.6 1.8 1.6 3.3 2.8 4.4 40.8 40.2 101.8 57.1 160.2 38.8 84.5-26.1 131.5-115.9 105.1-200.2zM121 217.1c5.6-18.3 15.5-36.4 30.5-55.4 15.7-20 32.6-35.2 51.4-46.5 9.7-5.8 18.2-9.3 26.7-10.9 2.5-.5 4.8-.7 7-.7 4.4 0 8.8 1.1 12.5 3.5 5.3 3.3 9.6 7.7 14.5 11.5 1.6 1.2 2.7 2.7 4 4.2 1.8 2 2.9 4.4 3.2 6.8.4 1.6.6 3.3.6 5 0 14.7-17.7 25.9-30.6 17.6-1.4-.9-2.6-1.9-3.9-3-3.7-3.2-7.5-6.4-11.1-9.6-5.4-4.8-12-6.5-19.7-5-7.7 1.4-15 5-22.9 11.2-18.3 14.2-30.6 30.6-37.7 50.1-2.6 7-3.4 13.5-2.6 19.6.8 6.1 4.9 11 9.3 15 4.2 3.7 9.1 6.4 13.2 10.2 4 3.7 6.3 9.1 6.3 14.6 0 11.2-9.1 20.3-20.3 20.3-.8 0-1.5-.1-2.3-.1h-.3c-3.1 0-6.3-1.2-9.1-3.6 0 0-.1 0-.1-.1-.9-.7-1.8-1.4-2.7-2.2-.6-.5-1.2-1-1.8-1.6-3-2.6-6.2-5.2-9.4-7.7-4.6-3.5-7.3-8.4-8.2-14.9-1-9.8 1.1-19.4 3.5-28.3z"/></svg>