<svg xmlns="http://www.w3.org/2000/svg" width="400" height="400" viewBox="0 0 400 400"><path fill="#333" d="M198.9 192.8c43.5-.7 78.5-36.2 78.5-79.8 0-44.1-35.7-79.8-79.8-79.8-44.1 0-79.8 35.7-79.8 79.8 0 43.5 34.8 78.9 78.1 79.8-76.8.6-138.9 63-138.9 140 0 5.5 4.5 10 10 10s10-4.5 10-10v-.9c.4-51.8 33.6-95.9 80-112.3.5 1.5 1.3 3 2.5 4.2l7 7-23.3 23.3c-1.7 1.7-2.7 3.9-2.9 6.1-.4 3 .5 6.1 2.8 8.4l46.3 41.3c2 2 4.5 2.9 7.1 2.9 2.6 0 5.1-1 7.1-2.9l46.3-41.3c2.7-2.7 3.6-6.7 2.4-10.1-.4-1.6-1.3-3.1-2.6-4.4l-23.3-23.3 7-7c1.3-1.3 2.2-2.9 2.6-4.5 47.1 16.2 80.9 60.9 80.9 113.5 0 5.5 4.5 10 10 10s10-4.5 10-10c.1-76.7-61.6-139-138-140zM137.7 113c0-33.1 26.8-59.9 59.9-59.9 33.1 0 59.9 26.8 59.9 59.9 0 33.1-26.8 59.9-59.9 59.9-33.1 0-59.9-26.8-59.9-59.9zm67.7 110.7c-2 2-2.9 4.6-2.9 7.1 0 2.6 1 5.2 2.9 7.1l23.1 23.1-31.9 28.5-32-28.5 23.1-23.1c2-2 2.9-4.6 2.9-7.1 0-2.6-1-5.2-2.9-7.1l-9.5-9.5c6.1-1 12.4-1.5 18.8-1.5 6.1 0 12.1.5 18 1.3l-9.6 9.7z"/></svg>