<svg xmlns="http://www.w3.org/2000/svg" width="400" height="400" viewBox="0 0 400 400"><path fill="#333" d="M350.7 59.3h-10v180.9c0 11.1-9 20.1-20.1 20.1h-80.4v80.4h50.2c5.5 0 10 4.5 10 10 0 5.6-4.5 10-10 10H109.6c-5.5 0-10-4.5-10-10s4.5-10 10-10h50.2v-80.4H79.4c-11.1 0-20.1-9-20.1-20.1V59.3h-10c-5.5 0-10-4.5-10-10s4.5-10 10-10H350.7c5.5 0 10 4.5 10 10 .1 5.5-4.4 10-10 10zM179.9 340.7h40.2v-80.4h-40.2v80.4zM320.6 59.3H79.4v180.9h241.2V59.3zm-170.8 80.4c5.6 0 10 4.5 10 10V190c0 5.5-4.5 10-10 10s-10-4.5-10-10v-40.2c-.1-5.6 4.4-10.1 10-10.1zM190 99.5c5.5 0 10 4.5 10 10V190c0 5.5-4.5 10-10 10s-10-4.5-10-10v-80.4c-.1-5.6 4.4-10.1 10-10.1zm40.1 20.1c5.5 0 10 4.5 10 10V190c0 5.5-4.5 10-10 10-5.6 0-10-4.5-10-10v-60.3c0-5.6 4.5-10.1 10-10.1zm40.2 40.2c5.5 0 10 4.5 10 10V190c0 5.5-4.5 10-10 10-5.6 0-10-4.5-10-10v-20.1c0-5.6 4.5-10.1 10-10.1z"/></svg>