<svg xmlns="http://www.w3.org/2000/svg" width="400" height="400" viewBox="0 0 400 400"><g fill="#333"><path d="M321.2 104.9c-.1-5.5-4.5-10-10.1-10-5.5 0-10 4.5-10 10 0 55.2-44.7 99.9-99.9 99.9s-99.9-44.7-99.9-99.9c0-5.5-4.5-10-10-10s-10 4.5-10 10h-.1c0 66.3 53.7 120 120 120s120-53.7 120-120z"/><path d="M360.9 348.1V50.4 50c0-1.7-.4-3.4-1.2-4.8-1.7-3.1-5-5.3-8.8-5.3H52.3c-.3 0-.7-.1-1.1-.1-.7 0-1.4.1-2.1.2-4.7.8-8.2 4.9-8.2 9.8 0 .9.1 1.7.3 2.5v297.5c0 5.5 4.5 10 10 10s10-4.5 10-10V60h221.3s.1 0 .1.1c0 0-.1 0-.1-.1h58.3v280.1H131.1c-5.5 0-10 4.5-10 10s4.5 10 10 10H351c5.5 0 10-4.5 10-10 .1-.7 0-1.3-.1-2z"/></g></svg>