<svg xmlns="http://www.w3.org/2000/svg" width="400" height="400" viewBox="0 0 400 400"><path fill="#333" d="M201 80s40 1.7 40 40c0 0-1.3 16.2-11 26v54s-1.3 8-9 8-20-11-20-11-13.2 12-20 12-9-5.5-9-10v-30s1.3-8 9-8 10 5.5 10 9v15s4-6 10-6 10 6 10 6v-40s-.5-7.2 3-10 9.3-10.8 6-21-10.8-14-19-14-20 7.2-20 20 14 19 14 19 9.8 4.8 6 13-10.5 6.2-14 5-26-12-26-37 22.2-40 40-40zM232.3 241.1l-1-.1c.4 0 .7 0 1 .1zm0 19.9c5.1-.5 9-4.8 9-10s-3.9-9.4-9-9.9c-.3 0-.7-.1-1-.1H131c-5.5 0-10 4.5-10 10s4.5 10 10 10h101.3zm0 0h-1 1zM232.3 280h-1 1zm0 20c5.1-.5 9-4.8 9-10s-3.9-9.4-9-10H131c-5.5 0-10 4.5-10 10s4.5 10 10 10h101.3zm0 0h-1 1z"/><path fill="#333" d="M61 350v0zM71 40h-1 1zm221 0h-1 1zm-11 311c.5 5.1 4.8 9 10 9 5 0 9.2-3.7 9.9-8.5l.2.1L360 215l-.3-.1c.8-1.4 1.3-3.1 1.3-4.9 0-5.5-4.5-10-10-10-1 0-2.1.2-3 .5v-.5h-27c-5.5 0-10 4.5-10 10s4.5 10 10 10h14.3L301 299.6V50c0-5.2-3.9-9.4-9-10H70c-5.1.5-9 4.8-9 10v301c.5 5.1 4.8 9 10 9h160c5.5 0 10-4.5 10-10s-4.5-10-10-10H81V60h200v291zm0 0v-1 1z"/></svg>