<svg xmlns="http://www.w3.org/2000/svg" width="400" height="400" viewBox="0 0 400 400"><g fill="#333"><path d="M352.7 156.2C326.3 71.9 236.5 24.9 152.2 51.3 67.9 77.7 20.9 167.5 47.3 251.8c1 3.2 2.1 6.3 3.3 9.3.1.2.1.4.2.6.1.1.1.3.2.4 2 4.6 7.2 7.1 12.2 5.5 5.3-1.6 8.2-7.3 6.6-12.5-.1-.3-.2-.7-.4-1-1-2.7-2-5.5-2.9-8.4C43.3 172 84.4 93.5 158.2 70.4c73.8-23.1 152.3 18 175.5 91.8 23.1 73.8-18 152.3-91.8 175.4-51.1 16-104.4 1.2-140.1-33.9l-.8-.8c-2.5-2.3-6.2-3.2-9.6-2.1-5.3 1.7-8.2 7.3-6.6 12.5.6 1.8 1.6 3.3 2.9 4.4 40.8 40.2 101.8 57.1 160.2 38.8 84.2-26.2 131.2-116 104.8-200.3z"/><path d="M206 103.7c-54.4 0-81.8 39-81.8 71.5 0 19.7 7.5 37.2 23.4 43.7 2.6 1.1 5 0 5.7-2.9.5-2 1.8-7.1 2.3-9.2.8-2.9.5-3.9-1.6-6.4-4.6-5.4-7.6-12.5-7.6-22.4 0-28.9 21.6-54.8 56.3-54.8 30.7 0 47.6 18.8 47.6 43.8 0 33-14.6 60.8-36.3 60.8-12 0-20.9-9.9-18.1-22 3.4-14.5 10.1-30.1 10.1-40.6 0-9.4-5-17.2-15.4-17.2-12.2 0-22.1 12.7-22.1 29.6 0 10.8 3.6 18.1 3.6 18.1s-12.5 53.1-14.7 62.3c-4.4 18.5-.7 41.2-.3 43.5.2 1.4 1.9 1.7 2.7.7 1.1-1.5 15.7-19.5 20.7-37.4 1.4-5.1 8-31.4 8-31.4 4 7.6 15.6 14.3 28 14.3 36.8 0 61.7-33.5 61.7-78.4.2-34-28.5-65.6-72.2-65.6z"/></g></svg>