<svg xmlns="http://www.w3.org/2000/svg" width="400" height="400" viewBox="0 0 400 400"><path fill="#323232" d="M217.8 301.4l84.8-84.8 14.1 14.1-84.7 84.8-14.2-14.1zm-108.7-52.3c1.8 1.8 4.3 2.9 7.1 2.9l115 7.7-33.8 33.8c-.3.2-.5.5-.8.7-3.9 3.9-3.9 10.3 0 14.1l28.3 28.3c3.9 3.9 10.3 3.9 14.1 0l99-99c3.9-3.9 3.9-10.3 0-14.1l-.4-.4-27.5-27.5-.4-.4c-.6-.6-1.3-1.2-2.1-1.6-3.8-2.2-8.8-1.6-12 1.6l-.8.8-44.9 45-125.7-8.4c-.1-.2-.3-.4-.4-.5L88.5 101.9l58.3 58.3c3.9 3.9 10.3 3.9 14.1 0 3.9-3.9 3.9-10.3 0-14.1l-58.3-58.3 130.8 35.5 4.3 51.9c0 5.5 4.5 10 10 10s10-4.5 10-10l-4.9-59.7c0-2.8-1.1-5.3-3-7.1-1.2-1.2-2.7-2.1-4.5-2.6L71.7 58.7c-.6-.2-1.2-.3-1.7-.3-1.1-.1-2.3 0-3.5.3-1.7.5-3.2 1.4-4.4 2.6-2.1 2.1-3.2 5.1-2.9 8.2l.3 1.5 45.7 168.6c.1 1.3.4 2.5 1 3.6l.2.4c.2 2.1 1.2 4 2.7 5.5zm198.5-55.4c-3.8-2.2-8.8-1.7-12.1 1.6-.3.3-.5.5-.7.8l.8-.8c3.3-3.2 8.2-3.8 12-1.6zm2.5 2l-.4-.4c-.7-.7-1.4-1.2-2.1-1.6.7.4 1.4 1 2.1 1.6l.4.4zM62 61.3c-1.2 1.2-2.1 2.7-2.6 4.5-.4 1.2-.4 2.4-.3 3.6-.3-3 .8-6 2.9-8.1zm44.5 183.4c.5 1.7 1.4 3.3 2.6 4.5a9.96 9.96 0 0 1-2.8-5.7l-.2-.4.4 1.6z"/></svg>