<svg xmlns="http://www.w3.org/2000/svg" width="400" height="400" viewBox="0 0 400 400"><g fill="#333"><path d="M261.4 49.6c.1.1.2.1.3.2-.1 0-.2-.1-.3-.2zM361.3 160.4c0-5.5-4.5-10-10-10h-260c-5.5 0-10 4.5-10 10s4.5 10 10 10h249.9v160H60.9V130.8h190.3c5.2 0 9.5-4 10-9 0-.4.1-.7.1-1.1V90.5H341v30c0 5.5 4.5 10 10 10s10-4.5 10-10v-40c0-5.5-4.5-10-10-10h-99c-.7 0-1.5.1-2.2.2-4.8.7-8.5 4.9-8.5 9.9v30.2H52c-.3 0-.7-.1-1.1-.1-5.5 0-10 4.5-10 10v217.6c-.1.7-.2 1.3-.2 2 0 5.5 4.5 10 10 10h300c.4 0 .8 0 1.2-.1 5.2-.4 9.3-4.7 9.3-10v-178-.6c0-.3.1-.8.1-1.2z"/></g></svg>