<svg xmlns="http://www.w3.org/2000/svg" width="400" height="400" viewBox="0 0 400 400"><g fill="#333"><path d="M319 42.7l-.1.1.1.1v-.2zM318.6 45.3c-1.3-2.3-3.5-3.9-6.1-4.6-1.2-.5-2.5-.7-3.8-.7h-51c-5.5 0-10 4.5-10 10s4.5 10 10 10h29.4L252 95c-2.5-1.5-5-3-7.6-4.3-13.5-6.8-28.9-10.7-45.1-10.7-55.2 0-100.2 44.8-100.2 100 0 51.9 39.8 94.5 89.8 99.5V300h-20.1c-5.5 0-10 4.5-10 10s4.5 10 10 10H189v30.2c0 5.5 4.5 10 10 10s10-4.5 10-10V320h20.9c5.5 0 10-4.5 10-10s-4.5-10-10-10H209v-20.5c51-5 90.2-47.7 90.2-99.5 0-28.7-11.9-54.5-31.2-72.7l32-31.9v25.9c0 5.5 4.5 10 10 10s10-4.5 10-10V53.5c1-2.7.3-5.7-1.4-8.2zm-37.4 133.5c0 44.5-36.1 80.6-80.6 80.6-44.5 0-80.6-36.1-80.6-80.6s36.1-80.6 80.6-80.6c11.2 0 21.8 2.3 31.4 6.4 5.2 2.2 10.1 4.9 14.7 8.1 20.8 14.5 34.5 38.7 34.5 66.1z"/></g></svg>