<svg xmlns="http://www.w3.org/2000/svg" width="400" height="400" viewBox="0 0 400 400"><path fill="#333" d="M347.3 343.6l-70.7-70.7c-3.9-3.9-10.1-3.9-14.1-.1-20.2 15.4-45.4 24.6-72.7 24.6-66.3 0-120-53.7-120-120s53.7-120 120-120 120 53.7 120 120c0 16.9-3.5 33-9.8 47.6h.1c-.8 1.4-1.3 3.1-1.3 4.9 0 5.5 4.5 10 10 10 4.5 0 8.3-3 9.6-7.1h.1c7.3-17 11.4-35.7 11.4-55.4 0-77.3-62.7-140-140-140s-140 62.7-140 140 62.7 140 140 140c29.2 0 56.3-9 78.8-24.3l64.6 64.6c3.9 3.9 10.2 3.9 14.1 0 3.8-3.9 3.8-10.2-.1-14.1z"/></svg>