<svg xmlns="http://www.w3.org/2000/svg" width="400" height="400" viewBox="0 0 400 400"><path fill="none" d="M61 128v134s27-12 60-12 59.7 10.7 69 18V134s-29.7-24-69-24-60 18-60 18z"/><path fill="#333" d="M355 112c-4.7-3.3-28.7-22-74-22s-80 24-80 24c-15-8.7-44-24-80-24s-61.3 14.7-72 20-8 20-8 20v149c0 12.3 11 11 11 11h129s1.3 20 20 20 20-20 20-20h128c11.3 0 12-11 12-11s-.7-153.3 0-157-1.3-6.7-6-10zM190 268c-9.3-7.3-36-18-69-18s-60 12-60 12V128s20.7-18 60-18 69 24 69 24v134zm151-6s-27-12-60-12-59.7 10.7-69 18V134s29.7-24 69-24 60 18 60 18v134z"/></svg>