<svg xmlns="http://www.w3.org/2000/svg" width="400" height="400" viewBox="0 0 400 400"><path fill="#323232" d="M368.1 75.2c-3.8-21.7-24.5-36.2-46.2-32.4-20.8 3.6-35 22.8-32.8 43.4 0 .7 0 1.4.1 2 .1.5.2 1 .4 1.5 1.5 4.6 6.3 7.5 11.2 6.7 5.4-1 9.1-6.1 8.1-11.6-.1-.4-.2-.7-.3-1.1h.1c-.4-9.7 6.8-19.3 16.6-21 10.7-1.9 20.9 5.3 22.8 16 1.9 10.7-5.3 20.9-16 22.8-2.8.5-5.9.4-8.5-.3 0 .1.3.2.2.3-1.7-.7-3.6-1-5.5-.6-.3 0-.5.1-.8.2h-.1c-.1 0-.2.1-.4.1-3.6 1-6.5 4-7.1 8l-24.3 112.7c-5.6.4-10.9 2-15.6 4.4l-62.5-39.4c.2-1.6.3-3.2.3-4.9 0-22-17.9-39.9-39.9-39.9S128 160 128 182c0 12.6 5.8 23.8 14.9 31.1l-45 70c-3.3-.8-6.7-1.2-10.2-1.1-22 .4-39.6 18.6-39.2 40.6s18.6 39.6 40.6 39.2c21.1-.4 38.1-17.1 39.1-37.8.1-.7.2-1.3.2-2 0-.5-.1-1-.2-1.5-.8-4.8-5-8.4-10-8.3-5.5.1-9.9 4.7-9.8 10.2 0 .4 0 .7.1 1.1h-.1c-1.1 9.6-9.7 18-19.7 18.2-10.9.2-19.8-8.5-20-19.3-.2-10.9 8.5-19.8 19.3-20 2.9-.1 5.9.5 8.4 1.6.1-.1-.2-.2-.2-.3.2.1.3.2.5.3 0 0 .1 0 .1.1 4.7 2.8 10.9 1.2 13.7-3.5l50.7-78.9c2.1.3 4.3.5 6.5.5 13.1 0 24.8-6.4 32.1-16.2l54.9 34.6c-3.9 6.2-6.2 13.5-6.2 21.3 0 22 17.9 39.9 39.9 39.9s39.9-17.9 39.9-39.9c0-16-9.5-29.9-23.1-36.2L327.7 122c2.6.1 5.3-.1 8-.6 21.7-3.8 36.2-24.5 32.4-46.2zm-59.6 7.9V83c.1 0 .1.1 0 .1zM108.8 324v0zM168 201.7c-10.9 0-19.7-8.8-19.7-19.7 0-10.9 8.8-19.7 19.7-19.7 10.9 0 19.7 8.8 19.7 19.7 0 10.9-8.8 19.7-19.7 19.7zm120.6 79.7c-10.9 0-19.7-8.8-19.7-19.7 0-6 2.7-11.5 7-15.1.4-.3.8-.5 1.1-.9 3.2-2.3 7.2-3.8 11.5-3.8 10.9 0 19.7 8.8 19.7 19.7.1 11-8.7 19.8-19.6 19.8z"/></svg>