<svg xmlns="http://www.w3.org/2000/svg" width="400" height="400" viewBox="0 0 400 400"><g fill="#333"><path d="M114.6 249.9l-39.5-39.6H191c5.5 0 10-4.5 10-10s-4.5-10-10-10H74.5l40.2-40.2c3.9-3.9 3.9-10.3 0-14.2-3.9-3.9-10.2-3.9-14.1 0L44 192.6c-2 2-3 4.7-2.9 7.4v1.4c0 .1 0 .3.1.4 0 .2 0 .4.1.5 0 .2.1.3.1.5s.1.3.1.5.1.3.2.5.1.3.2.5c.1.1.1.3.2.4.1.2.1.3.2.5.1.1.1.2.2.4s.2.3.3.5c.1.1.2.3.3.4.1.1.2.3.3.4.2.2.3.4.5.6l.1.1 56.6 56.7c3.9 3.9 10.2 3.9 14.1 0 3.8-4.1 3.8-10.5-.1-14.4z"/><path d="M121 351c.5 5.1 4.8 9 9.9 9h220c5.5 0 10-4.5 10-10V50c0-5.5-4.5-10-10-10H131c-5.5 0-10 4.5-10 10v40.3c0 5.5 4.5 10 10 10s10-4.5 10-10V60h200v280H141v-29.7h-.1c0-.3.1-.7.1-1 0-5.5-4.5-10-10-10s-10 4.5-10 10c0 .3 0 .7.1 1h-.1V351zm0 0v-1 1z"/></g></svg>