<svg xmlns="http://www.w3.org/2000/svg" width="400" height="400" viewBox="0 0 400 400"><g fill="#333"><path d="M264.4 50c-.1-.1-.2-.1-.3-.2.1.1.2.2.3.2z"/><path d="M152.2 47.3C67.9 73.7 20.9 163.5 47.3 247.8c1 3.2 2.1 6.3 3.3 9.3 0-.1-.1-.3-.1-.4 0 .1.1.3.1.4.1.2.1.4.2.6.1.1.1.3.2.4 2 4.6 7.2 7.1 12.2 5.5 5.3-1.6 8.2-7.3 6.6-12.5-.1-.3-.2-.7-.4-1-1-2.7-2-5.5-2.9-8.4C43.3 168 84.4 89.5 158.2 66.4c73.8-23.1 152.3 18 175.5 91.8 23.1 73.8-18 152.3-91.8 175.4-51.1 16-104.4 1.2-140.1-33.9l-.8-.8c-2.5-2.3-6.2-3.2-9.6-2.1-5.3 1.7-8.2 7.3-6.6 12.5.6 1.8 1.6 3.3 2.9 4.4 40.8 40.2 101.8 57.1 160.2 38.8 84.3-26.4 131.3-116.2 104.9-200.5C326.3 67.9 236.5 20.9 152.2 47.3z"/><path d="M200 259c-5.5 0-10-4.5-10-10V110c0-5.5 4.5-10 10-10s10 4.5 10 10v139c0 5.6-4.5 10-10 10zM210 290.6c0 5.5-4.5 10-10 10s-10-4.5-10-10 4.5-10 10-10 10 4.4 10 10z"/></g></svg>