<svg xmlns="http://www.w3.org/2000/svg" width="400" height="400" viewBox="0 0 400 400"><path fill="#333" d="M358.8 150.4c0-4.7-3.3-8.7-7.7-9.7L213.6 81.6c-.3-.2-.7-.3-1.1-.5l-1.4-.6v.2c-.6-.1-1.3-.2-2-.2h-.1-.1c-.7 0-1.3.1-2 .2v-.2l-1.4.6c-.4.1-.7.3-1.1.5L66.1 141.1c-.5.2-.9.3-1.3.6-3.2 1.7-5.4 5-5.4 8.9v.7h-.2v55.3c-8.8 8.4-19.5 26.3-19.5 53.9 0 50.1 29.3 59.6 29.3 59.6s29.3-9.1 29.3-59.6c0-27.1-10.3-44.8-19.1-53.4V159L209 100.6h.2l111 49.9-111 49.9h-.1-.1L134.7 167c-1.2-.9-2.5-1.5-4-1.8-.7-.1-1.4-.2-2.2-.2-5.5 0-10.1 4.3-10.5 9.7v70.9c0 5.1 3.9 8.1 8.6 10.3 0 .1 77.4 33.7 77.4 33.7.3.2.7.3 1.1.5l1.4.4c.6.1 1.3.2 2 .2h.6c.7 0 1.3-.1 2-.2.5-.1 1-.2 1.4-.4l1.1-.5 77-33.1c5-2.1 8.4-5.3 8.4-9.9v-34.9-.2c0-5.5-4.5-10-10-10s-10 4.5-10 10v27.7l-69.8 31.4h-.6l-69.8-31.4v-48.1l65.8 28.3 1.1.5 1.4.6v-.2c.6.1 1.3.2 2 .2h.2c.7 0 1.3-.1 2-.2v.2l1.4-.6c.4-.1.7-.3 1.1-.5l137.5-59.1c4.4-1.1 7.7-5 7.7-9.7-.2-.1-.2-.1-.2-.2 0 .1 0 .1 0 0zM84.5 260.1c0 33-15.3 40-15.3 40h-.1s-4.3-2-8.4-8.8c-1.4-2.4-2.8-5.4-4-9.1-.4-1.2-.7-2.6-1.1-4-1.1-4.9-1.9-10.9-1.9-18.1 0-.7.1-1.4.1-2 0-.3.1-.7.1-1l15 9.8h.2l15-9.8c.3 1 .4 2 .4 3zM82 242.9l-13 8.7-13.1-8.7C59.1 226 69 220.5 69 220.5s9.9 5.5 13 22.4z"/></svg>