<svg xmlns="http://www.w3.org/2000/svg" width="400" height="400" viewBox="0 0 400 400"><g fill="#333"><path d="M202.9 202.3c43.5-.7 78.5-36.2 78.5-79.8 0-44.1-35.7-79.8-79.8-79.8-44.1 0-79.8 35.7-79.8 79.8 0 43.5 34.8 78.9 78.1 79.8-76.8.6-138.9 63-138.9 140 0 5.5 4.5 10 10 10s10-4.5 10-10v-.9c.5-65.9 54-119.1 120-119.1 66.3 0 120 53.7 120 120 0 5.5 4.5 10 10 10s10-4.5 10-10c0-76.8-61.7-139-138.1-140zm-61.2-79.8c0-33.1 26.8-59.9 59.9-59.9 33.1 0 59.9 26.8 59.9 59.9 0 33.1-26.8 59.9-59.9 59.9-33.1-.1-59.9-26.9-59.9-59.9z"/><path d="M251 311.4c-.1 1.2 0 2 0 2v-2z"/><path d="M224.1 327.6c-.7-.2-1.4-.2-2.1-.2-5.5 0-10 4.5-10 10v10c0 4.5 2.2 10 9 10s20-12 20-12 12.3 11 20 11c7.7 0 9-8 9-8v-34c9.7-9.8 11-26 11-26 0-38.3-40-40-40-40-17.8 0-40 15-40 40s22.5 35.8 26 37 10.2 3.2 14-5-6-13-6-13-14-6.2-14-19 11.8-20 20-20 15.7 3.8 19 14-2.5 18.2-6 21c-2.3 1.9-2.9 5.7-3 8v22s-4-6-10-6c-5.4 0-9.2 4.9-9.9 5.9-1.3-2.9-3.8-5-7-5.7z"/></g></svg>