<svg xmlns="http://www.w3.org/2000/svg" width="400" height="400" viewBox="0 0 400 400"><g fill="#323232"><path d="M357.1 336.8l-56.6-56.6c-.3-.3-.6-.5-.9-.8-3.9-3.3-9.8-2.9-13.4.8L246.6 320H61V180h185.6l39.6 39.6c.1.1.1.1.2.1 3.9 3.9 10.2 3.9 14.1 0l56.6-56.6c3.9-3.9 3.9-10.2 0-14.1-3.9-3.9-10.2-3.9-14.1 0l-49.5 49.5-34.9-34.9c-1.8-2.3-4.6-3.7-7.8-3.7h-200c-5.5 0-9.8 4.5-9.8 10v159c0 .2-.1.4-.1.6 0 .1-.1.2-.1.3 0 5.5 4.4 10.1 9.9 10.1h200c3.1 0 5.9-1.6 7.8-3.8l34.7-34.8 49.6 49.6c3.9 3.9 10.2 3.9 14.1 0s4.1-10.2.2-14.1zM99.9 135.8c24.7 0 44.8-20.2 44.8-44.9s-20.1-44.8-44.8-44.8c-24.9.1-44.9 20.2-44.8 45 0 24.6 20.2 44.8 44.8 44.7zM99.3 66c13.9 0 25 11.2 25 25.2-.1 13.7-11.4 24.8-25.3 24.8-13.7-.1-24.8-11.3-24.8-25.1.1-13.8 11.3-25 25.1-24.9zM215.9 135.8c24.7 0 44.8-20.2 44.8-44.9s-20.1-44.8-44.8-44.8C191 46.1 171 66.2 171 91c.1 24.7 20.3 44.9 44.9 44.8zm-.6-69.8c13.9 0 25 11.2 25 25.2-.1 13.8-11.3 24.9-25.2 24.8-13.7-.1-24.8-11.3-24.8-25.1s11.2-25 25-24.9z"/></g></svg>