<svg xmlns="http://www.w3.org/2000/svg" width="400" height="400" viewBox="0 0 400 400"><path fill="#333" d="M360.9 110.1v-.2c0-5.5-4.5-9.8-10-9.8H321V69.5c0-5.5-4.5-9.8-10.1-9.8-.3 0-.6.3-.9.3h-98.2c-.7 0-1.5-.1-2.2 0-4.8.7-8.6 4.6-8.6 9.7V100H51.4c-2.7 0-5.1 1-6.9 2.7-3.2 1.7-5.5 4.9-5.5 8.8v219c0 5.5 4.5 10 10 10 1.2 0 2.3-.5 3.3-.5h258.5c5.5 0 10-4.5 10-10s-4.5-10-10-10H59V120h151.3c.9 0 1.6-.2 2.4-.4 4.7-.8 8.2-5 8.2-9.9V80h80v29.5l-.1.1v.2c0 5.5 4.4 10.2 10 10.2H341v209.3c0 5.5 4.5 10 10 10s10-4.5 10-10v-218c0-.4-.1-.8-.1-1.2z"/></svg>