<svg xmlns="http://www.w3.org/2000/svg" width="400" height="400" viewBox="0 0 400 400"><path fill-rule="evenodd" clip-rule="evenodd" fill="#333" d="M361 161c0-5.5-4.5-10-10-10s-10 4.5-10 10v150H61V91h266.2L201.4 216.9l-93-92.9c-3.9-3.9-10.3-3.9-14.3 0-3.9 3.9-3.9 10.3 0 14.3l99.9 99.9c.3.3.6.5.9.8 3.9 3.3 9.6 3.1 13.2-.4L357.2 89.3c2.7-1.8 4.4-4.8 4.4-8.3 0-4.9-3.6-9-8.3-9.9-1.1-.2-2.1-.2-3.2-.2H51.7h-.1-.3C45.7 71 41 75.5 41 81v240c0 5.5 4.7 10.1 10.2 10.1.6 0 1.4-.1 2-.1h296.2c.6 0 1.2.1 1.8.1 1.1 0 2.2-.2 3.2-.6 4.2-1.2 7.3-5 7.3-9.7 0-1.1-.6-2.2-.6-3.3V161z"/></svg>