<svg xmlns="http://www.w3.org/2000/svg" width="400" height="400" viewBox="0 0 400 400"><g fill="#323232"><path d="M129.8 217.4c.1 38.9 32.1 70.6 71.1 70.6 39.1-.1 70.9-31.8 70.9-70.8s-31.9-70.7-71-70.6c-39.3 0-71.1 31.6-71 70.8zm120.3.2c-.1 27.4-22.8 49.4-50.7 49.3-27.6-.1-49.9-22.4-49.8-49.9.1-27.3 22.6-49.4 50.3-49.4 27.9 0 50.3 22.3 50.2 50z"/><path d="M360.6 127.9c-.9-4.6-5-7.9-9.9-7.9H301V70.7c0-3.7-2.1-6.8-5.1-8.5-1.5-.8-3.1-1.2-4.9-1.2H111.1c-1.7 0-3.3.3-4.7 1v-.1c-.1 0-.1 0-.2.1-2.8 1.5-4.7 4.3-5 7.6 0 .4-.1.7-.1 1.1V120H51.8c-4.5 0-8.4 2.8-9.6 6.9-.7 1.4-1.2 2.7-1.2 4.3V329c0 3.9 2.3 7.1 5.6 8.8 1.5.8 3.2 1.2 5 1.2H291c5.5 0 10-4.5 10-10s-4.5-10-10-10H61V140h50c.4 0 .7-.2 1-.3 5-.5 8.9-4.9 8.9-10V81h160v47.2c0 .5-.1 1.1-.1 1.6 0 5.5 4.5 10.2 10 10.2h50v188.1c0 5.5 4.5 10 10 10s10-4.5 10-10V130.3c.2-.9 0-1.6-.2-2.4z"/><path d="M199.5 227.8c-1.2 0-2.4-.2-3.5-.7l-1.2-.6c-1.1-.4-2.3-.7-3.5-.7-5.5 0-9.9 4.4-9.9 9.9 0 3.4 1.7 6.4 4.3 8.2.9.6 2 1.1 3.2 1.4 3.2 1.2 6.6 1.9 10.2 1.9 16.5.1 30-13.2 30-29.7v-.8-.7c0-.7-.1-1.4-.2-2-.9-4.5-4.9-7.9-9.7-7.9-5.1 0-9.4 3.9-9.9 8.9 0 .3-.1.7-.1 1 0 .8.1 1.6.3 2.4-.5 5.3-4.8 9.4-10 9.4z"/></g></svg>