<svg xmlns="http://www.w3.org/2000/svg" width="400" height="400" viewBox="0 0 400 400"><path fill="#333" d="M350.8 349V51c0-5.5-4.5-10-10-10s-10 4.5-10 10v290H111v-70.1h10c5.5 0 10-4.5 10-10s-4.5-10-10-10h-10v-40.1h10c5.5 0 10-4.5 10-10s-4.5-10-10-10h-10v-39.9h10c5.5 0 10-4.5 10-10s-4.5-10-10-10h-10V61h169.9c5.5 0 10-4.5 10-10s-4.5-10-10-10H101c-.5 0-1 0-1.5.1-.2 0-.4 0-.6.1-.9.2-1.8.5-2.7 1h-.1c-.2.1-.4.2-.5.3-.1.1-.2.1-.3.2-.1.1-.2.2-.4.3-.1.1-.3.2-.4.3l-.3.3c-.1.1-.3.2-.4.4-.1.1-.2.3-.4.4l-.3.3c-.1.1-.2.3-.3.4-.1.1-.2.2-.3.4 0 .1-.1.1-.1.2-.7 1-1.1 2.2-1.4 3.4 0 .2-.1.4-.1.6.1.3.1.8.1 1.3v79.9H61c-5.5 0-10 4.5-10 10s4.5 10 10 10h30v39.9H61c-5.5 0-10 4.5-10 10s4.5 10 10 10h30v40.1H61c-5.5 0-10 4.5-10 10s4.5 10 10 10h30V351c0 1 .2 2 .5 3 1.2 4.1 5.1 7.1 9.6 7.1h240c5.5 0 10-4.5 10-10-.1-.8-.2-1.5-.3-2.1z"/></svg>