<svg xmlns="http://www.w3.org/2000/svg" width="400" height="400" viewBox="0 0 400 400"><g fill="#333"><path d="M279.5 122.8H104.9V147h174.6v-24.2zM104.9 231.4v24.1h113c-.5-4-.9-8-.9-12.1s.4-8.1.9-12.1h-113zM246.4 177.1H104.9v24.1h122.6c4.9-9 11.3-17.2 18.9-24.1zM282.4 191.7v58.4c0 16.5 12.1 30 27.1 30 14.9 0 27-13.4 27-30v-58.4c0-16.5-12.1-29.9-27-29.9-15 0-27.1 13.4-27.1 29.9z"/><path d="M344.3 231.4v18.7c0 20.8-15.6 37.7-34.8 37.7-19.2 0-34.8-16.9-34.8-37.7v-18.7h-15.5v18.7c0 26.6 18.6 48.6 42.7 52.5v10.2c-13.9 1.6-24.2 7.3-24.2 14.3 0 8.1 63.5 8.1 63.5 0 0-6.9-10.3-12.7-24.2-14.3v-10.2c24.1-3.8 42.7-25.9 42.7-52.5v-18.7h-15.4z"/><path d="M248.7 297.4H64.5V90.9H320v63.6c8.6 1.4 16.7 4.2 24.1 8.1V87.2c0-11.3-9.1-20.4-20.4-20.4h-263c-1.4 0-2.8.1-4.1.4-.7.1-1.4.4-2.1.7-.6.2-1.2.3-1.7.5s-1 .6-1.5.8c-.7.3-1.4.6-2 1.1-.1.1-.1.1-.3.2-5.3 3.7-8.7 9.8-8.7 16.7v213.9c0 11.3 9.2 20.4 20.4 20.4h199.1c-.1.1-9.6-4.2-11.1-24.1z"/></g></svg>