<svg xmlns="http://www.w3.org/2000/svg" width="400" height="400" viewBox="0 0 400 400"><path fill="#323232" d="M333.8 72.7c-18-20.3-40-30.7-65.8-31.2-25.8-.5-48.2 9-67 28.4-18.9-19.4-41.2-28.8-67-28.4-25.9.5-47.8 10.9-65.8 31.3-18.9 21.2-28.4 46.8-28.4 76.3s9.4 54.9 28.3 76.2c17.5 19.5 23.6 26.4 34.2 38.2.9 1.1 1.8 2.1 2.7 3.2 20.5 23 25.4 28.4 40.3 45 .6.9 1.3 1.6 2.1 2.3.5.7 1.1 1.4 1.7 1.9 20 22.3 30.2 33.5 30.4 33.5 5.9 6.6 13 9.9 21.4 9.9 8.4 0 15.5-3.3 21.4-9.9 73.4-81.8 110.6-123.2 111.4-124.1 18.9-21.3 28.3-46.7 28.3-76.2.2-29.7-9.3-55.1-28.2-76.4z"/></svg>