<svg xmlns="http://www.w3.org/2000/svg" width="400" height="400" viewBox="0 0 400 400"><path fill="#333" d="M351.1 80c-.6 0-1.3.1-1.9.2h-1.1c-24.4.2-151.8.1-176.3.1h-37.2c-4.2 0-7.9 3-9 7C123 97 96.3 259.8 92.1 275.2c-.5 1.9-1.1 3.7-1.6 5.5-.6-.5-.9-1-1.1-1.5-2.8-6.9-5.5-24.8-8.3-31.7-1.8-4.5-5.2-6.7-10-6.6-6 0-12.1.1-18.1 0h-1.3c-.7-.2-1.5-.3-2.3-.3-2.8 0-5.2 1.2-7.1 3-.1.1-.3.2-.3.3v.1c-2 1.8-2.5 4.1-2.5 6.6s.5 4.8 2.5 6.6h-.1c1.8 2.1 4.5 3.4 7.4 3.4.7 0 1.4-.1 2.1-.2h.5c4-.1 7.9 0 11.9 0 1 0 1.6.3 2 1.3 3.3 8.4 14.2 47 16.6 52.4 1.8 4.2 5.7 6.3 10.3 5.8 3.8-.4 7-3.5 8.2-7.6 1.4-5.3 2.9-10.5 4.4-15.8 4.3-15.1 32.3-180.7 36.2-194.6.5-1.7 1.2-2.2 3-2.2 33.6.1 170.3 0 203.9 0 1.1-.1 2.9-.1 3.8-.1 5.5 0 9-4 9-9.5-.1-5.6-4.6-10.1-10.1-10.1z"/><path fill="#333" d="M295.3 164c-3.9-3.9-10.2-3.9-14.1 0l-42.4 42.4-42.5-42.4c-3.9-3.9-10.2-3.9-14.1 0-3.9 3.9-3.9 10.2 0 14.1l42.4 42.4-42.5 42.5c-3.9 3.9-3.9 10.2 0 14.1 3.9 3.9 10.2 3.9 14.1 0l42.4-42.4 42.4 42.4c3.9 3.9 10.2 3.9 14.1 0 3.9-3.9 3.9-10.2 0-14.1l-42.4-42.4 42.4-42.4c4.1-4 4.1-10.3.2-14.2z"/></svg>