<svg xmlns="http://www.w3.org/2000/svg" width="400" height="400" viewBox="0 0 400 400"><g fill="#333"><path d="M345.1 161.1c-.7-14.3.1-28.7-7-40.9s-20.1-18.8-31.9-26.4C298.6 81.9 292 69 279.7 61.9c-12.1-7-26.6-6.3-40.9-7-12.2-6.4-24.4-14.4-38.9-14.4s-26.6 7.9-38.9 14.4c-14.3.7-29.3-.2-40.9 7-13.1 8.1-18.7 20-26.3 31.9C82 101.4 69 108 61.9 120.3c-7 12.1-6.3 26.6-7 40.9-6.4 12.3-14.4 24.4-14.4 38.9s8 26.6 14.4 38.9c.7 14.3-.1 28.7 7 40.9 7.2 12.3 20.1 18.9 32 26.5 7.6 11.9 14.1 24.8 26.4 31.9 12.1 7 26.6 6.3 40.9 7 12.2 6.4 24.4 14.4 38.9 14.4s26.6-7.9 38.9-14.4c14.3-.7 28.7.1 40.9-7 12.3-7.1 18.9-20.1 26.4-31.9 11.9-7.6 24.8-14.2 31.9-26.5 7.1-12.1 6.3-26.6 7-40.9 6.4-12.3 14.4-24.4 14.4-38.9-.1-14.6-8.1-26.7-14.5-39zM200 303.7c-57.3 0-103.7-46.4-103.7-103.6 0-57.2 46.4-103.7 103.7-103.7 57.2 0 103.7 46.4 103.7 103.7 0 57.1-46.4 103.6-103.7 103.6z"/><path d="M201.8 168.2c-6.8 4.2-13.6 9.5-20.2 16C150.9 214.8 152 249 152 249s37.8-2.5 68.6-33.1c1.2-1.2 2.3-2.4 3.5-3.6l-22.7-.2.4-43.9z"/><path d="M210.3 163.4l-.5 41.1 20.6.2c20.8-27.2 19.9-53.7 19.9-53.7s-18.4 1.2-40 12.4z"/></g></svg>