<svg xmlns="http://www.w3.org/2000/svg" width="400" height="400" viewBox="0 0 400 400"><g fill="#333"><path d="M235.1 264.7c-3.9-3.9-10.2-3.9-14.1 0l-21 21-35.5 35.5-.2.2v-.1c-10.9 11.8-26.6 19.2-43.9 19.2-33.1 0-59.9-26.8-59.9-59.9 0-17.4 7.4-33 19.2-43.9.1-.1.2-.1.2-.2l35.5-35.5 21.1-21.1c3.9-3.9 3.9-10.2 0-14.1-3.9-3.9-10.2-3.9-14.1 0l-56.6 56.6c-.3.3-.5.5-.7.8-15.1 14.5-24.5 34.9-24.5 57.5 0 44.1 35.7 79.8 79.8 79.8 22.5 0 42.9-9.4 57.4-24.4.3-.2.6-.5.9-.8l56.6-56.6c3.7-3.7 3.7-10-.2-14zM164.9 137.3c3.9 3.9 10.2 3.9 14.1 0l21-21 35.5-35.5.2-.2v.1c10.9-11.8 26.6-19.2 43.9-19.2 33.1 0 59.9 26.8 59.9 59.9 0 17.4-7.4 33-19.2 43.9-.1.1-.2.1-.2.2L284.6 201l-21 21c-3.9 3.9-3.9 10.2 0 14.1 3.9 3.9 10.2 3.9 14.1 0l56.6-56.6c.3-.3.5-.5.7-.8 15.1-14.5 24.5-34.9 24.5-57.5 0-44.1-35.7-79.8-79.8-79.8-22.5 0-42.9 9.4-57.4 24.4-.3.2-.6.5-.9.8l-56.6 56.6c-3.8 3.8-3.8 10.1.1 14.1z"/><path d="M256.4 129.9c3.9-3.9 10.2-3.9 14.1 0 3.9 3.9 3.9 10.2 0 14.1L143.3 271.3c-3.9 3.9-10.2 3.9-14.1 0-3.9-3.9-3.9-10.2 0-14.1l127.2-127.3z"/></g></svg>