<svg xmlns="http://www.w3.org/2000/svg" width="400" height="400" viewBox="0 0 400 400"><path fill="#333" d="M321.6 233.7c1.5-1.2 2.9-2.4 4.2-3.9 4.7-5.3 7.6-12.3 7.6-19.9 0-12.4-7.5-23-18.2-27.5h-.1c-2-.8-4.1-1.5-6.3-1.8-1.1-.4-2.2-.7-3.5-.7h-147c-5.4 0-9.8 4.5-9.8 10s4.4 10 9.8 10h147.9c.9.2 1.8.5 2.6 1 3.1 1.7 5.2 5 5.2 8.9 0 3.4-1.7 6.4-4.3 8.3-2.5 1.3-8.2 1.4-11.5 1.4-.7-.1-1.5-.1-2.2-.1h-.4c-5.3.2-9.6 4.6-9.6 10s4.3 9.8 9.6 10H296.2c5.4.2 9.7 4.6 9.7 10 0 5.5-4.4 9.9-9.8 10v.1c.8 0 1.5.1 2.3.3-.7-.2-1.5-.3-2.3-.3-.8 0-1.5.1-2.3.3-4.4 1-7.7 5-7.7 9.7 0 5.5 4.5 10 10 10h-.5v.2h.3c5.5 0 10 4.5 10 10 0 5.1-3.8 9.3-8.7 9.9v.1c-.3 0-.5-.1-.8-.1-.8 0-1.5.1-2.2.3-4.4 1-7.8 5-7.8 9.7 0 5.5 4.5 10 10 10h-.6v.1H296v.1c5.5.1 9.9 4.5 9.9 10 0 5.3-4.1 9.6-9.3 10h-28.8s0 .1.1.1h-84.4v-.1c-1.4.1-2.9.1-4.3.1-49.7 0-89.9-40.3-89.9-89.9 0-11.9 2.3-23.3 6.5-33.7-.1 0-.2-.1-.2-.1.1-.1.2-.3.2-.4l21.8-57.3 25-65.6 9.5-25.1c0-.1.1-.1.1-.2.1-.5.3-1.1.5-1.6 1.6-3.5 5-6 9-6 5.5 0 9.9 4.5 9.9 10.1 0 .8-.1 1.6-.3 2.3-.2 1-.6 2-1.1 2.8l-9.3 24.4-16.7 43.8-.8 2.2-2.8 7.3-.6 1.5c-.3.9-.4 1.8-.4 2.8 0 4.2 2.5 7.7 6.1 9.2 1.2.5 2.5.8 3.9.8 3.6 0 6.7-1.9 8.5-4.7v-.1c.1-.2.2-.4.4-.6.3-.6.5-1.2.7-1.9l30-78.8c.2-.4.4-.9.5-1.3 1.1-3.1 1.7-6.4 1.7-9.9 0-16.5-13.4-29.9-29.9-29.9-14.3 0-26.2 10-29.2 23.4L79.9 201.2c-7.3 14.7-11.4 31.2-11.4 48.8 0 60.7 49.2 109.9 109.9 109.9h.2c.5.1 1.1.1 1.6.1h117.2c.7 0 1.5-.1 2.1-.2 11.5-1.4 20.9-9.3 24.7-19.8 1.1-3.1 1.7-6.5 1.7-10 0-7.7-2.9-14.8-7.7-20.1 4.8-5.3 7.7-12.4 7.7-20.1 0-7.8-2.9-14.8-7.7-20.2 4.8-5.3 7.7-12.4 7.7-20.2.1-5.8-1.5-11.1-4.3-15.7z"/></svg>