<svg xmlns="http://www.w3.org/2000/svg" width="400" height="400" viewBox="0 0 400 400"><g fill="#323232"><path d="M320.1 90.3c0-2.5-.9-4.8-2.4-6.5-1.8-2.3-4.6-3.7-7.8-3.7-.8 0-1.5.1-2.3.3h-51.4C248.2 56.9 226 40 199.9 40c-26.2 0-48.5 16.9-56.6 40.4h-51c-.7-.2-1.5-.3-2.3-.3-4.2 0-7.7 2.6-9.2 6.2-.6 1.2-.9 2.6-.9 4.1 0 .5 0 1 .1 1.5v256.8c-.1.5-.1 1-.1 1.5 0 5.5 4.5 10 10 10h180.2c5.5 0 10-4.5 10-10s-4.5-10-10-10H100V100.3h59.6v-.7c0-7 1.8-13.5 4.9-19.2 6.8-12.4 20.1-20.9 35.3-20.8 15.1 0 28.3 8.4 35.1 20.8 3.2 5.7 5 12.3 4.9 19.4v.6h60v248.8c0 5.5 4.5 10 10 10s10-4.5 10-10V92.4c.2-.6.3-1.3.3-2.1z"/><path d="M220.6 80.3h-41.2c-5.5 0-10 4.5-10 10s4.5 10 10 10h41.2c5.5 0 10-4.5 10-10s-4.5-10-10-10z"/></g></svg>