<svg xmlns="http://www.w3.org/2000/svg" width="400" height="400" viewBox="0 0 400 400"><g fill="#323232"><path d="M299.6 326.6l-37.3-14.9c-1.3-.5-2.7-.7-4-.7-2.6 0-5.2.9-7.2 2.9l-12.4 12.4-.1-50c0-.9-.1-1.7-.3-2.6 10.1-3.4 19.6-8.1 28.2-13.9l17.6 48.1c1.9 5.2 7.6 7.8 12.8 5.9 5.2-1.9 7.8-7.6 5.9-12.8l-19.9-54.5c22.8-21.8 37-52.6 37-86.6C319.9 93.7 266.2 40 200 40S80.1 93.9 80.1 160.1c0 34.8 14.8 66.1 38.4 88l-19.4 53.1c-1.9 5.2.8 10.9 5.9 12.8 5.2 1.9 10.9-.8 12.8-5.9L135 261c7.9 5.1 16.5 9.3 25.5 12.5-.3.9-.5 1.9-.5 3l-.1 49.5-11.7-11.7c-2-2-4.6-3-7.2-2.9-1.3 0-2.7.2-4 .7L99.7 327c-5.1 2-7.6 7.8-5.6 13 2 5.1 7.8 7.6 13 5.6l31.6-12.6 23.9 23.9c2 2 4.6 2.9 7.2 2.9h.1c5.5 0 10-4.4 10-10l.1-71.2c6.5 1.1 13.1 1.7 19.9 1.7 6.3 0 12.6-.5 18.6-1.4l.1 71c0 5.5 4.5 10 10 10 .6 0 1.2-.1 1.7-.2 2.3-.2 4.5-1.1 6.3-2.9l23.9-23.9 31.6 12.6c5.1 2 10.9-.4 13-5.6 2.1-5.4-.4-11.2-5.5-13.3zM200 260c-55.2 0-99.9-44.7-99.9-99.9s44.7-99.9 99.9-99.9 99.9 44.7 99.9 99.9S255.2 260 200 260z"/><path d="M257.8 124.2l-25.1-6.4-24.1-28.4c-2-2.3-4.7-3.5-7.5-3.5h-.4c-2.8 0-5.6 1.2-7.5 3.5l-24.1 28.4-25.1 6.4c-2.4.1-4.7 1-6.5 2.8-3.9 3.8-4 10.2-.2 14.1l24.2 24.8-9.9 36.8c-.2.8-.3 1.7-.4 2.5-.2 1.9.2 4 1.3 5.8.5.8 1 1.5 1.7 2.1l.1.1c.1.1.2.2.3.2 1.1 1 2.4 1.8 3.9 2.2 1.1.3 2.3.4 3.4.3 1.5-.1 3-.5 4.5-1.4l33-18.4 35.2 19c3.2 1.8 7 1.7 10.2 0 4.5-2 6.9-7.2 5.5-12.4l-9.9-36.8 24.2-24.8c3.8-3.9 3.8-10.3-.2-14.1-1.9-1.8-4.2-2.7-6.6-2.8zm-35.7 31.7c-1.9 2-2.9 4.6-2.8 7.1 0 1.1.1 2.1.4 3.2l5.3 19.9-19.3-10.4c-1.4-.8-2.9-1.2-4.3-1.3-2.2-.3-4.4.1-6.5 1.3l-18.1 10.1 5.3-19.6c.3-1.1.4-2.2.4-3.2 0-2.6-.9-5.1-2.8-7.1l-15.8-16.2 13.3-3.4c1.8-.4 3.3-1.3 4.5-2.5l.9-.9 18.5-21.8 18.5 21.8.9.9c1.2 1.2 2.7 2.1 4.5 2.5l13.3 3.4-16.2 16.2z"/></g></svg>