<svg xmlns="http://www.w3.org/2000/svg" width="400" height="400" viewBox="0 0 400 400"><path fill="#323232" d="M133.9 244.9l89.5-75.8 9.8 9.8c4 4 10.4 4.1 14.2.3 3.9-3.9 3.7-10.3-.3-14.3l-15.5-15.5c-.7-.7-1.5-1.3-2.3-1.7-3.9-2.8-9.4-2.4-12.9 1.1l-97 82c-.5.5-.7 1.1-1.1 1.6-2.8 1.8-4.4 4.9-4.4 8.4v40.4c0 .7-.2 1.4 0 2 0 .3-.2.6-.2.9 0 5.5 4.4 9.9 9.9 9.9H165c1.1 0 2.1-.1 3-.4 2-.3 4-1.2 5.6-2.8l123-104.9c.8-.8 1.4-1.7 1.9-2.7 5.5-6.9 8.8-15.6 8.8-25.1 0-22.1-17.9-40-40-40-9 0-17.4 3-24.1 8.1-3.5 1.7-5.9 5.3-5.9 9.4 0 5.8 4.7 10.5 10.5 10.5 3.8 0 7-2 8.9-4.9 3.1-1.9 6.7-3.1 10.6-3.1 11 0 20 9 20 20 0 7.6-4.2 14.2-10.4 17.6l.4.3-114.8 98H134v-29s-.2-.1-.1-.1z"/><path fill="#323232" d="M353.7 157.2C327.3 72.9 237.5 25.9 153.2 52.3 68.9 78.7 22.1 168.5 48.5 252.8c1 3.2 1.5 6.3 3.5 9.3 0 .2-.1.4 0 .6.1.1 0 .3.1.4 2 4.6 7.2 7.1 12.1 5.5 5.3-1.6 8.2-7.3 6.5-12.5-.1-.3-.2-.7-.4-1-1-2.7-2-5.5-2.9-8.4-23.1-73.7 18-152.2 91.8-175.3 73.8-23.1 152.3 18 175.4 91.8 23.1 73.8-18 152.3-91.8 175.4-51.1 16-104.4 1.2-140.1-33.9l-.8-.8c-2.5-2.3-6.2-3.2-9.6-2.1-5.3 1.7-8.2 7.3-6.6 12.5.6 1.8 1.6 3.3 2.9 4.4 40.8 40.2 101.8 57.1 160.2 38.8 84.3-26.2 131.3-116 104.9-200.3z"/></svg>