<svg xmlns="http://www.w3.org/2000/svg" width="400" height="400" viewBox="0 0 400 400"><g fill="#343433"><path d="M134.9 336.2c-.7-.3-1.4-.4-2.2-.4-.8 0-1.5.1-2.2.4-.7.3-1.3.7-1.8 1.2s-.9 1.1-1.2 1.8c-.3.7-.4 1.4-.4 2.2 0 .8.1 1.5.4 2.2.3.7.7 1.3 1.2 1.8s1.1.9 1.8 1.2c.7.3 1.4.4 2.2.4.8 0 1.5-.1 2.2-.4.7-.3 1.3-.7 1.8-1.2s.9-1.1 1.2-1.8.4-1.4.4-2.2c0-.8-.1-1.5-.4-2.2-.3-.7-.7-1.3-1.2-1.8s-1.1-.9-1.8-1.2zM162.7 292.3l-21.3 54.2h7.8c.8 0 1.6-.2 2.2-.7.6-.5 1-1 1.2-1.6l4-11.1H179l4 11.1c.2.7.7 1.2 1.2 1.6.6.4 1.3.7 2.2.7h7.8L173 292.3h-10.3zm-3.5 33.8l6.6-18c.3-.8.7-1.8 1-2.9.3-1.1.7-2.3 1-3.6.4 1.3.7 2.5 1.1 3.5.4 1.1.7 2 1 2.8l6.6 18h-17.3zM214.8 335.3c-.4-1.4-.7-2.8-1.1-4.1-.4-1.3-.8-2.5-1.2-3.5l-12.7-33.1c-.3-.7-.7-1.2-1.2-1.6-.6-.4-1.3-.6-2.1-.6h-8.1l21.9 54.2h9.1l21.9-54.2h-8.1c-.9 0-1.6.2-2.1.7-.6.5-1 1-1.2 1.6l-12.7 33.1c-1.2 2.1-1.9 4.6-2.4 7.5zM248 292.3h10.1v54.2H248zM280.6 88.8c.1.1.2.1.3.2-.1 0-.2-.1-.3-.2z"/><path d="M338.5 375.6V158.2c0-3-1.3-5.6-3.4-7.4l-78.4-78.4c-1.8-1.9-4.4-3.1-7.2-3.1-5.5 0-9.9 4.4-9.9 9.9V157c-.1.4-.1.9-.1 1.3 0 4.1 2.5 7.7 6.1 9.1 1.2.5 2.5.8 3.9.8H318.8v198H81.3V89h95.1v3.2h.2v98.2c-.7 11.2-8.6 20.8-21.3 20.8h-4c-11.1 0-24.3-9-24.3-22.4v-76.3h-.2v-.3c0-5.2-4.3-9.4-9.7-9.4-5.3 0-9.7 4.2-9.7 9.4v76.6h-.2c0 24 20 43.5 44.7 43.5 24.7 0 44.7-19.5 44.7-43.5h-.2V92.1h.1V89h13.2c5.5 0 9.9-4.4 9.9-9.9s-4.4-9.9-9.9-9.9h-13.2V44.1c-.2-16.6-13.6-30-30.2-30-16.7 0-30.3 13.6-30.3 30.3v24.8H72.4c-.4 0-.7-.1-1-.1-5.5 0-9.9 4.4-9.9 9.9v296.8c0 1 .2 2 .5 3 1.2 4.1 5 7 9.5 7h257.2c5.5 0 9.9-4.4 9.9-9.9-.1-.1-.1-.2-.1-.3zm-79.1-227.3v-44.5l45.1 44.5h-45.1zm-93.1-114c5.6 0 10.1 4.5 10.1 10.1v24.8h-20.2V44.1c.2-5.4 4.6-9.8 10.1-9.8z"/></g></svg>