<svg xmlns="http://www.w3.org/2000/svg" width="400" height="400" viewBox="0 0 400 400"><path fill="#333" d="M359.8 69.9c0-5.3-4.3-9.7-9.7-9.7-2.7 0-5.1 1.1-6.8 2.8l-.2-.2-193 192.7-45.1-43.3c-1.8-2.8-4.9-4.6-8.5-4.6-5.6 0-10.1 4.5-10.1 10.1 0 2.5.9 4.7 2.4 6.5l-.1.1 61.6 59.3L357.2 77l-.2-.2c1.8-1.8 2.8-4.2 2.8-6.9z"/><path fill="#333" d="M310 189.2V318H70V116h200V96H60.5c-3.1 0-6 1.6-7.8 3.9-1.6 1.8-2.6 4.3-2.6 6.9v221c0 5.5 4.6 10.2 10.2 10.2h259c.3 0 .6-.1.8-.2h.2c5.5 0 9.8-4.5 9.8-10.1V150h-20v39.2z"/></svg>