<svg xmlns="http://www.w3.org/2000/svg" width="400" height="400" viewBox="0 0 400 400"><path fill="#333" d="M98.6 224.3c1-.8 1.7-1.3 2.4-1.8 12.4-10.4 74.9-70.7 87.3-81.1 6.1-5 12-3.9 15.9 2.9 8.6 15.1 17.2 30.1 25.8 45.2.5.8 1 1.7 1.7 2.8.5-1.1 1-1.9 1.3-2.7 9.3-20.9 18.7-41.9 27.9-62.8 1.4-3.3 3.6-5.5 6.8-7.1 11.9-5.8 23.7-11.8 35.6-17.7 3.4-1.7 6.8-1.6 9.9.6 3.1 2.2 4.3 5.4 3.7 9.1-.5 3.5-2.7 5.6-5.8 7.1-10.3 5.1-20.6 10.3-30.9 15.4-1.9.9-3.1 2.2-4 4.1-11.4 25.9-23 51.7-34.5 77.6-1.6 3.5-3.9 5.9-7.9 6.3-4.4.4-7.5-1.6-9.6-5.4-9.9-17.5-19.9-34.9-29.9-52.4-.4-.8-.9-1.6-1.5-2.5-.8.6-1.5 1.1-2.2 1.7-13.5 11.2-77 72.5-90.4 83.8-.9.7-1.7 2-1.7 3.1-.1 16.3-.1 32.6-.1 48.8 0 .3.1.5.2 1.1.9.1 1.9.2 2.8.2h206.7c6.8 0 10.9 3.6 10.8 9.6-.1 4.3-3.1 7.9-7.3 8.8-1.2.2-2.5.3-3.8.3H91.2c-8.1 0-11.5-3.4-11.5-11.5V90.9c0-5.6 2.4-9.2 6.6-10.5 6-1.7 11.9 2.5 11.9 8.9.1 11.1 0 74.1 0 85.2v46.9c.3.9.4 1.7.4 2.9z"/></svg>