<svg xmlns="http://www.w3.org/2000/svg" width="400" height="400" viewBox="0 0 400 400"><path fill="#333" d="M154.2 107.6l39.5-39.5V184c0 5.5 4.5 10 10 10s10-4.5 10-10V67.5l40.2 40.2c3.9 3.9 10.2 3.9 14.1 0 3.9-3.9 3.9-10.2 0-14.1L211.4 37c-2-2-4.7-3-7.4-2.9h-.3-1.1c-.1 0-.3 0-.4.1-.2 0-.4 0-.5.1-.2 0-.3.1-.5.1s-.3.1-.5.1-.3.1-.5.2-.3.1-.5.2c-.1.1-.3.1-.4.2-.2.1-.3.1-.5.2-.1.1-.2.1-.4.2s-.3.2-.5.3c-.1.1-.3.2-.4.3-.1.1-.3.2-.4.3-.2.2-.4.3-.6.5l-.1.1L140 93.5c-3.9 3.9-3.9 10.2 0 14.1 3.9 3.9 10.3 3.9 14.2 0z"/><path fill="#333" d="M129.9 335.7c78.3 41 174.9 10.7 215.9-67.6 29.4-56.2 22.1-121.8-13.3-169.5-.3-.3-.5-.7-.8-1-1.8-2.1-4.5-3.5-7.6-3.5-5.5 0-10 4.5-10 10 0 2.4.9 4.7 2.3 6.4 31 41.8 37.3 99.2 11.6 148.4-35.8 68.5-120.4 95-188.9 59.2s-95-120.4-59.2-188.9c3.3-6.4 7.1-12.3 11.2-18l-.1-.1c1.8-1.8 2.9-4.3 2.9-7 0-5.5-4.5-10-10-10-2.9 0-5.6 1.3-7.4 3.3-.4.5-.8 1-1.1 1.5-4.8 6.6-9.3 13.6-13.1 21-41 78.2-10.7 174.9 67.6 215.8z"/></svg>