<svg xmlns="http://www.w3.org/2000/svg" width="400" height="400" viewBox="0 0 400 400"><path fill="#333" d="M199.8 325c-10.8 0-19.5 8.7-19.5 19.5S189 364 199.8 364s19.5-8.7 19.5-19.5-8.7-19.5-19.5-19.5zM303.3 137.5c0 95.5-83.5 78.2-83.5 122.2l-1.5 21.8c0 13.2-5.8 22-18 22-12.5 0-19-8.2-19-22v-17c0-5.7 1.2-24.2 8.2-36.8 6.1-11 17.8-22.7 30.3-28.3 15.1-6.8 45.5-22 45.5-60.8 0-34-27.5-55.5-58.5-55.5-14.7 0-27.6 4.4-37.5 13-17.9 15.6-22 45.5-22 45.5-1 12-10 20-19 20-3 0-18-.5-18-23 0 0-2.2-27.6 16.5-53.5 17.6-24.4 43.5-39.5 79.5-39.5 54-.1 97 37.9 97 91.9z"/></svg>