<svg xmlns="http://www.w3.org/2000/svg" width="400" height="400" viewBox="0 0 400 400"><g fill="#323232"><path d="M321 280.2c-22 0-39.9 17.9-39.9 39.9 0 1 0 1.9.1 2.8L90 323l-.1-72.1h.1c22 0 39.9-17.9 39.9-39.9 0-1.4-.1-2.8-.2-4.1l220.8.1c5.6-.2 9.8-4.9 9.6-10.5 0-.4-.1-.7-.1-1.1l-.1-100.1c0-.2 0-.4-.1-.6 1.4-4 2.1-8.3 2.1-12.7 0-22-17.9-39.9-39.9-39.9-18.2 0-33.5 12.1-38.3 28.7l-165.5.2c-.3 0-.5 0-.8.1-4.8-16.7-20.2-28.9-38.4-28.9-22 0-39.9 17.9-39.9 39.9S57 122 79 122c19 0 34.8-13.3 38.9-31H283.2c4.1 17.7 19.9 30.9 38.8 30.9 6.5 0 12.6-1.6 18.1-4.3l-.1 69.3-218.2.1c-7.3-9.6-18.8-15.9-31.8-15.9-22 0-39.9 17.9-39.9 39.9 0 14.8 8 27.7 20 34.5l-.1 79.9c.1 1.6.5 3.1 1.2 4.5-.4 1.1-.5 2.3-.5 3.5.2 5.5 4.8 9.8 10.2 9.6l207.5.1c7.2 10.2 19.1 16.9 32.6 16.9 22 0 39.9-17.9 39.9-39.9 0-22.1-17.9-39.9-39.9-39.9zM79 101.7c-10.9 0-19.7-8.8-19.7-19.7 0-10.9 8.8-19.7 19.7-19.7 10.9 0 19.7 8.8 19.7 19.7 0 10.9-8.8 19.7-19.7 19.7zm243 0c-10.9 0-19.7-8.8-19.7-19.7 0-10.9 8.8-19.7 19.7-19.7 10.9 0 19.7 8.8 19.7 19.7 0 10.9-8.8 19.7-19.7 19.7zM90 191.4c10.9 0 19.7 8.8 19.7 19.7 0 10.9-8.8 19.7-19.7 19.7-10.9 0-19.7-8.8-19.7-19.7 0-10.9 8.8-19.7 19.7-19.7zm231 148.3c-10.9 0-19.7-8.8-19.7-19.7 0-10.9 8.8-19.7 19.7-19.7 10.9 0 19.7 8.8 19.7 19.7 0 10.9-8.8 19.7-19.7 19.7z"/><path d="M96.9 284.9c.5.3 1.1.5 1.6.8-.5-.3-1-.6-1.6-.8z"/></g></svg>