<svg xmlns="http://www.w3.org/2000/svg" width="400" height="400" viewBox="0 0 400 400"><path fill="#323232" d="M359 212.7c0-5.5-4.6-10-10.3-10-4.5 0-8.3 2.8-9.7 6.6 0 .1-.1.2-.1.3 0 .1-.1.3-.1.4-2.5 7.9-6.4 18.4-12.2 28.5-24.1 38.3-66.7 65.1-115.2 68.5-3.4.2-6.9.4-10.3.4-66.4 0-122.4-43.3-139.6-102.3-.6-2.4-1.1-4.6-1.4-6.2.3-1.4.7-3.1 1.1-5 17.2-59 73.2-102.3 139.6-102.3 52.8 0 99.9 27.8 125.8 68.9 4.6 8.1 7.6 15.8 10 22.8 1.2 4.2 5.2 7.3 9.9 7.3 5.7 0 10.3-4.5 10.3-10 0-1.4-.3-2.8-.9-4.1-22.2-58.1-78-100.3-144.6-104.3-3.5-.2-7-.3-10.6-.3-78.4 0-144 52.8-161 123.8-.2.6-.3 1.2-.4 1.8-.2.8-.4 1.7-.4 2.6 0 1 .2 2.1.5 3.1 2.2 6.7 4.8 13.3 7.5 19.9 2.6 6.5 5.5 12.9 8.7 19.1 3.2 6.1 6.8 12.1 10.8 17.8 4 5.7 8.5 11.1 13.3 16.1 4.8 5.1 10 9.9 15.5 14.3 5.5 4.5 11.3 8.6 17.4 12.3 6.1 3.7 12.4 7 19 9.8 6.6 2.8 13.4 5.1 20.3 7 7 1.9 14.2 3.3 21.4 4.4 7.4 1.1 14.7 1.9 22.1 2.6 1.8.2 3.6.5 5.4.5 73.4 0 135.5-46.3 157.1-110.4.8-1.2 1.1-2.5 1.1-3.9z"/><path fill="#323232" d="M234.6 180.8c-.1-.1-.1-.2-.2-.4-.3-.5-.6-1-.9-1.6-.2-.3-.4-.6-.6-.8-.3-.5-.6-1-.9-1.4-.2-.3-.5-.6-.7-.8-2.9-3.7-6.4-6.9-10.6-9.5-19-11.7-43.9-5.8-55.6 13.2-3.8 6.2-5.8 13-6 19.8V202.7c0 .4 0 .8.1 1.2v.6c.1.6.1 1.1.2 1.7v.1c.9 6.8 3.5 13.4 8 19.2 13.6 17.7 39 21 56.6 7.4 3.4-2.6 6.2-5.6 8.5-8.9.3-.4.7-.8.9-1.3.2-.3.3-.6.5-.9 7.6-12.5 8.1-28.2.7-41zm-22.9 35.7c-.5.4-.9.7-1.4 1-6.4 3.7-14.7 4.1-21.2.1-4.7-2.9-7.7-7.4-8.9-12.3v-.2c-.1-.5-.2-1.1-.3-1.6 0-.2 0-.4-.1-.6 0-.4-.1-.8-.1-1.2v-1.2-.6c0-.6.1-1.1.1-1.7v-.2c.7-5 3.2-9.8 7.6-13.2 1.4-1.1 3-2 4.6-2.7 5.7-2.3 12.4-2 18 1.4 2.5 1.5 4.8 3.7 6.3 5.9.1 0-.1-.3 0-.4.2.5.5 1 .8 1.4 4.3 8.8 2.3 20.2-5.4 26.1z"/></svg>