<svg xmlns="http://www.w3.org/2000/svg" width="400" height="400" viewBox="0 0 400 400"><path fill="#333" d="M356.7 286.8l-56.6-56.6c-.3-.3-.6-.5-.9-.8-3.9-3.3-9.8-3-13.4.6l-39.6 39.6H60.4V130h185.8l39.6 39.6c.1.1.1.1.2.1 3.9 3.9 10.2 3.9 14.1 0l56.6-56.6c3.9-3.9 3.9-10.2 0-14.1-3.9-3.9-10.2-3.9-14.1 0L293 148.6l-34.9-34.9c-1.8-2.3-4.6-3.7-7.8-3.7h-200c-5.5 0-10 4.5-10 10v159.7c0 5.5 4.5 10 10 10h200c3.1 0 5.9-1.4 7.8-3.7l34.7-34.7 49.6 49.6c3.9 3.9 10.2 3.9 14.1 0 4.1-3.9 4.1-10.2.2-14.1z"/></svg>