<svg xmlns="http://www.w3.org/2000/svg" width="400" height="400" viewBox="0 0 400 400"><g fill="#333"><path d="M299.6 137.1c-.5-4.8-5-14.7-12.8-15.8-17.8-2.5-35.6-4.5-54.5-6.6l-1.4-.2c-5-.6-10.2-1.1-15.4-1.7l-4.9-.6c-1.2-.1-2.4.3-3.3 1.1s-1.3 2.3-1.2 3.5L220.4 261h-44.3l13.7-144.3c.1-1.2-.3-2.6-1.2-3.4-.9-.8-2.1-1.3-3.3-1.1l-5.1.7c-5.9.9-11.8 1.7-17.5 2.5l-.5.1c-18.4 2.7-35.8 5.2-53.2 8.3-6.4 1.1-14.6 9.2-14.5 16.6.6 74.4 1.5 134.5 2.9 189.2.4 16.9 11.9 28.5 30.7 31.1 20.4 2.8 41 4.2 61.4 4.2 27.7 0 55.5-2.6 82.6-7.8 15.9-3.1 25.5-13.2 27.7-29.2 7.7-58.2 7.7-120.6-.2-190.8zM284 325.8c-1 9.3-5.6 13.9-14.9 15.7-45.5 8.8-92.2 10-138.8 3.5-11.2-1.6-16.8-6.7-17-15.7-1.3-54.3-2.3-114.1-2.9-188 .4-.6 1.2-1.4 1.7-1.8 17-3 34.1-5.5 52.1-8.1h.1c2.6-.4 5.3-.8 8-1.2l-13.5 141.9c-.1 1.1.3 2.5 1 3.3.8.8 1.8 1.6 3 1.6h70.7c1.1 0 2.2-.7 3-1.6s1.1-2.1 1-3.2l-14-142.4c2.3.3 4.7.5 7 .8 18.1 2 35.2 3.9 52.1 6.3.4.7 1 1.6 1.1 2 7.9 68.8 8.3 130 .3 186.9zM104.1 109c.3 0 .6 0 .8-.1l5.2-1.1c55.6-11.7 112.4-12.7 173.4-3.2l6.3 1c1.4.2 2.7-.3 3.6-1.3.9-1 1.2-2.5.8-3.8l-1.9-6.1c-12.6-40.9-50.8-62.5-104.7-59.2-49 3-84.9 29.4-87.2 64.2l-.4 5.3c-.1 1.2.4 2.5 1.4 3.3.8.7 1.8 1 2.7 1zm32.7-41.1c13.2-9.5 31.6-15.4 51.9-16.7 3.2-.2 6.4-.3 9.6-.3 35.2 0 61.1 12.7 73.7 35.9-53.5-7.1-103.7-6.1-153.2 3 3.2-8.2 9.3-15.7 18-21.9z"/><circle cx="140.8" cy="170" r="10"/><circle cx="259.8" cy="170" r="10"/><path d="M230 300h-60c-5.5 0-10 4.5-10 10s4.5 10 10 10h61c5.5 0 9-4.5 9-10s-4.5-10-10-10z"/></g></svg>