<svg xmlns="http://www.w3.org/2000/svg" width="400" height="400" viewBox="0 0 400 400"><g fill="#333"><path d="M201.2 142.2c40 0 60 38.7 60 60s-18 60-60 60c0 0-17.3 0-26-7s-14 4-14 4-4.3 8 3 13 20 10 37 10c20 0 80-13.7 80-80s-59.7-80-80-80-80 18.3-80 80c0 0 1 23 10 36s17 4 17 4 5.7-5.3 1-14-6.3-17.3-6-26 10.3-60 58-60z"/><path d="M114.2 69.2c4-4.7 18-11 27-15s17.3-6 25-8 17.3 1 17 9-1.3 27 18 27 19.3-18.3 20-26 6.3-9.3 10-10 23.3 4.7 30 7 24.7 10.7 29 15 8.7 11 0 18-13.3 17.7-3 30 26 1 30-4 11.7-3.3 15-1 14.3 22.3 16 26 9 23.3 10 29 2.3 17.3-10 16-27 3.7-27 20 17.3 17.7 26 18 12.3 7.3 11 13-6.3 23.3-9 29c-2.7 5.7-10.3 25.3-15 30s-10.3 3.7-16-2-19.3-15.3-31-3 .7 26 4 29 7 12 1 17-13 8-27 15-32.7 12.7-40 9-4-15-4-15-.7-21.3-20-20-18 20-18 20 2 7-2 12-16 3-16 3c-26.3-3-54-22.3-56-29s3-11 3-11c6.3-3 8.3-6.3 9-15s9-10 9-10 10.7-2 11 10-7 22-7 22c8 6.3 29 13 29 13 0-29 38-35 38-35 20.7 0 37 16.7 40 34 0 0 24-7.3 29-14 0 0-19-27.3 3-49s50-6 50-6 10.3-10.3 12-27c0 0-32-6-32-38s32-40 32-40-7.3-20.7-12-27c0 0-30.3 17.7-51-3s-7.7-44.3-3-52c0 0-15.7-10.3-28-12 0 0-8 34-40 34s-38-34-38-34-17.3 4-27 11c0 0 18 30.3-5 52s-50 3-50 3-9.3 13.3-13 28c0 0 33 7.7 33 40s-33 38-33 38 3 16.3 10 28c0 0 14-7.3 27-6 0 0 8 1.7 7 11s-11 9-11 9-8-.3-11 3-11.7 13.3-19 6-23-34.3-26-59c0 0 2.3-10.3 10-10s26-3.3 26-20-11.7-20-25-20-10-20-10-20 7.3-29.3 24-49c0 0 8-6.7 15-1s19 17 32 5 .3-28-4-31c-4.9-3.4-3-12.3 1-17z"/><path d="M114.2 69.2c4-4.7 18-11 27-15s17.3-6 25-8 17.3 1 17 9-1.3 27 18 27 19.3-18.3 20-26 6.3-9.3 10-10 23.3 4.7 30 7 24.7 10.7 29 15 8.7 11 0 18-13.3 17.7-3 30 26 1 30-4 11.7-3.3 15-1 14.3 22.3 16 26 9 23.3 10 29 2.3 17.3-10 16-27 3.7-27 20 17.3 17.7 26 18 12.3 7.3 11 13-6.3 23.3-9 29c-2.7 5.7-10.3 25.3-15 30s-10.3 3.7-16-2-19.3-15.3-31-3 .7 26 4 29 7 12 1 17-13 8-27 15-32.7 12.7-40 9-4-15-4-15-.7-21.3-20-20-18 20-18 20 2 7-2 12-16 3-16 3c-26.3-3-54-22.3-56-29s3-11 3-11c6.3-3 8.3-6.3 9-15s9-10 9-10 10.7-2 11 10-7 22-7 22c8 6.3 29 13 29 13 0-29 38-35 38-35 20.7 0 37 16.7 40 34 0 0 24-7.3 29-14 0 0-19-27.3 3-49s50-6 50-6 10.3-10.3 12-27c0 0-32-6-32-38s32-40 32-40-7.3-20.7-12-27c0 0-30.3 17.7-51-3s-7.7-44.3-3-52c0 0-15.7-10.3-28-12 0 0-8 34-40 34s-38-34-38-34-17.3 4-27 11c0 0 18 30.3-5 52s-50 3-50 3-9.3 13.3-13 28c0 0 33 7.7 33 40s-33 38-33 38 3 16.3 10 28c0 0 14-7.3 27-6 0 0 8 1.7 7 11s-11 9-11 9-8-.3-11 3-11.7 13.3-19 6-23-34.3-26-59c0 0 2.3-10.3 10-10s26-3.3 26-20-11.7-20-25-20-10-20-10-20 7.3-29.3 24-49c0 0 8-6.7 15-1s19 17 32 5 .3-28-4-31c-4.9-3.4-3-12.3 1-17z"/></g></svg>