<svg xmlns="http://www.w3.org/2000/svg" width="400" height="400" viewBox="0 0 400 400"><path fill="#333" d="M356.1 42.6c-1.8-1.6-4.1-2.6-6.7-2.6h-299c-3.7 0-6.8 2-8.6 4.9-1.1 1.6-1.8 3.6-1.8 5.7v39c0 2.4.9 4.7 2.3 6.4 1.8 2.5 4.7 4.1 8 4.1h299c2.2 0 4.3-.7 6-2 2.8-1.8 4.7-4.9 4.7-8.5v-39c0-3.3-1.6-6.2-3.9-8zM60 60h280v20H60V60zM359.3 131c0-2.4-.9-4.7-2.3-6.4-1.8-2.5-4.7-4.1-8-4.1-1 0-2 .2-3 .5H53c-.9-.3-1.9-.5-3-.5-5.5 0-10 4.5-10 10v219c0 2.4.9 4.7 2.3 6.4 1.8 2.5 4.7 4.1 8 4.1h299c5.5 0 10-4.5 10-10 0-.9-.1-1.7-.3-2.6V133.6c.2-.9.3-1.7.3-2.6zM60 141h279v199H60V141z"/><path fill="#333" d="M289.3 180h-180c-5.5 0-10 4.5-10 10s4.5 10 10 10h180c5.5 0 10-4.5 10-10s-4.4-10-10-10z"/></svg>