<svg xmlns="http://www.w3.org/2000/svg" width="400" height="400" viewBox="0 0 400 400"><path fill="#333" d="M200.05 360.4c-88.4 0-160-71.8-160-160.4s71.6-160.4 160-160.4 160 71.8 160 160.4-71.7 160.4-160 160.4zm0-305.5c-79.9 0-144.8 65-144.8 145.1s64.8 145.1 144.8 145.1 144.8-65 144.8-145.1-64.9-145.1-144.8-145.1zm121.9 152.7h-7.6c-4.2 0-7.6-3.4-7.6-7.6s3.4-7.6 7.6-7.6h7.6c4.2 0 7.6 3.4 7.6 7.6s-3.4 7.6-7.6 7.6zm-45.9 62.7c-.2 1.4-.9 2.8-2 3.9-2.3 2.3-5.8 2.7-8.6 1.3l.4.5.1.1c-1.2-.5-2.3-1-3.5-1.5-39.5-16.5-62.6-29.5-75.2-37.7-10-6.6-13.5-10.2-13.7-10.3-.3-.3-19-18.4-49.4-92.6l.5.5c-.1-.2-.1-.3-.2-.5-.7-1.6-.8-3.4-.3-5 .3-1.1.8-2.2 1.7-3.1 2.3-2.3 5.6-2.7 8.4-1.4.1 0 .2 0 .2.1l-.2-.2-.3-.3c74 30.5 92.1 49.2 92.4 49.5.3.3 19 18.4 49.4 92.6l-.3-.3-.2-.2c.2.4.2.7.4 1.1.4 1.1.6 2.3.4 3.5zm-60.5-86.1c-.2-.2-15.4-14.7-70-38.8 24 54.8 38.5 70 38.8 70.3.2.2 15.4 14.7 70 38.8-23.9-54.7-38.5-70-38.8-70.3zm-15.5 8.2c4.2 0 7.6 3.4 7.6 7.6s-3.4 7.6-7.6 7.6c-4.2 0-7.6-3.4-7.6-7.6s3.3-7.6 7.6-7.6zm0-99.3c-4.2 0-7.6-3.4-7.6-7.6v-7.6c0-4.2 3.4-7.6 7.6-7.6 4.2 0 7.6 3.4 7.6 7.6v7.6c0 4.1-3.4 7.6-7.6 7.6zm0 213.8c4.2 0 7.6 3.4 7.6 7.6v7.6c0 4.2-3.4 7.6-7.6 7.6-4.2 0-7.6-3.4-7.6-7.6v-7.6c-.1-4.1 3.3-7.6 7.6-7.6zm-114.3-99.3h-7.6c-4.2 0-7.6-3.4-7.6-7.6s3.4-7.6 7.6-7.6h7.6c4.2 0 7.6 3.4 7.6 7.6s-3.4 7.6-7.6 7.6z"/></svg>