<svg xmlns="http://www.w3.org/2000/svg" width="400" height="400" viewBox="0 0 400 400"><g fill="#343433"><path d="M127 336.6c-.7-.3-1.4-.5-2.2-.5-.8 0-1.5.1-2.2.5-.7.3-1.3.7-1.8 1.2s-.9 1.1-1.2 1.8c-.3.7-.4 1.4-.4 2.2 0 .8.1 1.5.4 2.2.3.7.7 1.3 1.2 1.8s1.1.9 1.8 1.2c.7.3 1.4.4 2.2.4.8 0 1.5-.1 2.2-.4.7-.3 1.3-.7 1.8-1.2s.9-1.1 1.2-1.8c.3-.7.4-1.4.4-2.2 0-.8-.1-1.5-.4-2.2-.3-.7-.7-1.3-1.2-1.8s-1.1-.9-1.8-1.2zM153.8 346.9V301h16.3v-8.3h-42.8v8.3h16.4v45.9zM211.3 292.7c-.9 0-1.6.5-2.1 1.4l-11.3 17.8c-.2.3-.4.6-.5 1-.2.3-.3.6-.4 1L184.7 294c-.2-.4-.5-.7-.8-.9-.3-.2-.8-.3-1.5-.3h-10l17.3 26.3-18 27.9h9.4c.6 0 1.1-.2 1.5-.5.4-.4.7-.8 1-1.2l12-19.2c.1-.2.2-.5.4-.7.1-.3.2-.5.3-.8l12.6 20.8c.3.5.6.9 1 1.2.4.3 1 .5 1.6.5h10.1l-18-28.3 17.5-25.9h-9.8zM239.2 346.9h10.1V301h16.3v-8.3h-42.8v8.3h16.4zM280.6 89.2c.1.1.2.1.3.2 0-.1-.2-.1-.3-.2z"/><path d="M338.6 375.9V158.5c0-3-1.3-5.6-3.4-7.4l-78.4-78.4c-1.8-1.9-4.4-3.1-7.2-3.1-5.5 0-9.9 4.4-9.9 9.9v77.8c-.1.4-.1.9-.1 1.3 0 4.1 2.5 7.7 6.1 9.1 1.2.5 2.5.8 3.9.8H318.9v198H81.3V89.3h95.1v3.2h.2v98.2c-.7 11.2-8.6 20.8-21.3 20.8h-4c-11.1 0-24.3-9-24.3-22.4v-76.3h-.2v-.3c0-5.2-4.3-9.4-9.7-9.4-5.3 0-9.7 4.2-9.7 9.4v76.6h-.2c0 24 20 43.5 44.7 43.5 24.7 0 44.7-19.5 44.7-43.5h-.2V92.5h.1v-3.2h13.2c5.5 0 9.9-4.4 9.9-9.9s-4.4-9.9-9.9-9.9h-13.2V44.4c-.2-16.6-13.6-30-30.2-30-16.7 0-30.3 13.6-30.3 30.3v24.8H72.5c-.4 0-.7-.1-1-.1-5.5 0-9.9 4.4-9.9 9.9v296.8c0 1 .2 2 .5 3 1.2 4.1 5 7 9.5 7h257.2c5.5 0 9.9-4.4 9.9-9.9-.1 0-.1-.2-.1-.3zm-79.2-227.2v-44.5l45.1 44.5h-45.1zm-93-114c5.6 0 10.1 4.5 10.1 10.1v24.8h-20.2V44.4c.1-5.4 4.6-9.7 10.1-9.7z"/></g></svg>