<svg width="20" height="20" viewBox="0 0 20 20" xmlns="http://www.w3.org/2000/svg"><title>Fill 1</title><path d="M1 1.597v16.842a.56.56 0 1 0 1.12 0V2.067h3.25c.043 0 .309.028.449.042 1.008.126 2.045.323 3.067.477.505.084 1.037.154 1.555.21.35.043.729.07 1.093.099l1.499.014c.714-.028 1.47-.155 2.17-.281.827-.154 2.452-.505 2.48-.505.098 0 .182.07.21.21v6.022c0 .057.016.113.042.166v3.483c-.042.112-.098.266-.224.266-.042 0-1.905-.42-2.857-.603-.309-.056-.63-.099-.925-.14-.28-.029-.56-.042-.84-.07h-1.36c-.041 0-.35.028-.503.028-1.387.083-2.844.379-4.217.589-.473.073-1.442.161-1.442.161H4.95a.561.561 0 0 0 0 1.123l.617-.02c.967-.064 2.392-.363 3.053-.45.659-.098 1.317-.224 1.975-.28l1.121-.085h1.387c.336 0 1.919.267 1.947.267.392.084 2.409.56 2.661.56.603 0 1.261-.56 1.289-1.318V6.039a.374.374 0 0 0-.042-.17V2.292c0-.042-.042-.182-.056-.266-.154-.618-.715-.983-1.19-.983-.169 0-2.368.491-3.068.604-.253.042-.505.084-.757.112l-.827.084h-1.288c-1.12 0-3.992-.533-4.665-.631A34.738 34.738 0 0 0 5.37 1H1.883a.64.64 0 0 0-.2.048.56.56 0 0 0-.683.548" stroke="#323E56" fill="#323E56" fill-rule="evenodd"/></svg>