<svg xmlns="http://www.w3.org/2000/svg" width="400" height="400" viewBox="0 0 400 400"><path fill="#323232" d="M319.7 350.4l38-298.5c.2-.8.3-1.6.3-2.4 0-5.5-4.5-10-10-10-2 0-3.8.6-5.4 1.6L45.8 190.8c-3.6 1.5-6.2 5.1-6.2 9.2 0 4.4 2.8 8.1 6.7 9.4 1 .4 2.1.6 3.3.6h1l76.4 9.2c1 .3 2 .5 3.1.5 5.5 0 10-4.5 10-10 0-4.6-3.1-8.4-7.3-9.6h-.1c-.8-.2-1.7-.4-2.6-.4h-.7l-47.9-4.6L335.9 66.2l-33.6 264.1-80.4-82.1 86-131.6c1.2-1.7 2-3.7 2-5.9 0-5.5-4.5-10-10-10-3.2 0-6.1 1.6-8 4L155.1 218.2c-.8.5-1.5.8-2.1 1.8h-.2c-1.6 0-2.8 4.1-2.8 6.7v103.9c0 5.5 4.6 10 10.2 10 2.9 0 5.7-1.3 7.5-3.3l36.6-38.6c.8-.6 1.5-1.4 2.1-2.2 1.1-1.6 1.8-3.6 1.8-5.7 0-5.5-4.5-10-10-10-2.8 0-5.6 1.2-7.4 3.1L170 306.1v-74.7l85.3-71-54.2 83c-1.3 1.7-2 3.8-2 6 0 2.7 1.1 5.2 2.9 7l.2.2 98.7 99c1.7 3.1 5 5.2 8.7 5.2 4.6 0 8.4-3.1 9.6-7.3.2-.9.4-1.8.4-2.7.1-.3.1-.3.1-.4z"/></svg>