<svg xmlns="http://www.w3.org/2000/svg" width="400" height="400" viewBox="0 0 400 400"><path fill="#323232" d="M319.7 220l.3-39.7c0-.5-.1-1.1-.1-1.6-.5-5-4.8-9-10-9H99.5v-.1c.2-55.4 45.5-99.8 101.3-99.6 44.3.2 81.8 29.4 94.7 69.6.5 5 4.8 8.9 9.9 8.9 5.5 0 10-4.5 10-10 0-1.8-.5-3.5-1.3-4.9-14.7-49.8-60.1-84-114.5-83.9-66 .1-119.7 54.4-119.7 121 0 2.6.1 5.3.3 7.9h.1v57.7c0 .9.1 1.8.4 2.6l.3 3c6.3 60.8 57.5 108.5 119.4 108.4 66-.1 119.7-54.4 119.7-121-.1-3.2-.2-6.3-.4-9.3zM199.2 330c-50.7-.2-91.7-38.1-98-87.4-.3-2-.6-4-.9-6.1V189.7H300l.4 44.7c-2.3 53.4-46.7 95.8-101.2 95.6z"/><path fill="#323232" d="M214.2 252.4l29.5-29.5c3.9-3.9 3.7-10.3-.4-14.1-4.1-3.9-10.6-3.8-14.5.1L199.7 238l-29.1-29.1c-3.9-3.9-10.3-3.9-14.5-.1-4.2 3.9-4.4 10.2-.4 14.1l29.5 29.5-29.4 29.4c-3.9 3.9-3.9 10.3-.1 14.5 3.9 4.2 10.2 4.4 14.1.4l29.8-29.8 29.8 29.8c3.9 3.9 10.3 3.7 14.1-.4 3.9-4.1 3.8-10.6-.1-14.5l-29.2-29.4z"/></svg>