<svg xmlns="http://www.w3.org/2000/svg" width="400" height="400" viewBox="0 0 400 400"><path fill="#333" d="M247 200h-94s-24 0-24 23.5V365h141V223.5s.5-23.5-23-23.5z"/><circle fill="#333" cx="200" cy="141.2" r="35.2"/><circle fill="#333" cx="106" cy="70.8" r="35.2"/><path fill="#333" d="M153 177h.3c-7.4-10-12-22-12-35.2 0-4 .4-8.8 1.2-11.8H59s-24-.5-24 23v141h71v-70.5c0-47 47-46.5 47-46.5zM341 130h-83.4c.8 3 1.2 7.7 1.2 11.8 0 13.3-4.6 25.2-12 35.2h.3c47 0 47 46.5 47 46.5V294h70V153c-.1 0 .4-23-23.1-23z"/><circle fill="#333" cx="294" cy="70.8" r="35.2"/></svg>