<svg xmlns="http://www.w3.org/2000/svg" width="400" height="400" viewBox="0 0 400 400"><g fill="#333"><path d="M201.6 209.2c23.4-13.9 39-39.4 39-68.6 0-44.1-35.7-79.8-79.8-79.8-44.1 0-79.8 35.7-79.8 79.8 0 29 15.5 54.4 38.7 68.4-35.5 15.7-60.2 51.2-60.2 92.4 0 10.7 1.7 21.1 4.8 30.8.2.9.5 1.8.9 2.6 1.6 3.3 5 5.6 9 5.6 5.5 0 10-4.5 10-10 0-.4 0-.7-.1-1.1-.2-1.5-.6-2.8-1.3-4-2.3-7.5-3.6-15.6-3.6-23.9 0-43.3 33.8-78.7 76.5-81.2 1.7.1 3.5.2 5.2.2 1.6 0 3.2-.1 4.8-.2 42.5 2.7 76.1 38 76.1 81.2 0 8.8-1.4 17.3-4 25.2-.1.3-.2.7-.3 1-.2.9-.4 1.8-.4 2.7 0 5.5 4.5 10 10 10 3.4 0 6.5-1.7 8.3-4.4 1-1.5 1.6-3.2 1.7-5 2.9-9.3 4.4-19.2 4.4-29.5-.2-41.1-24.7-76.4-59.9-92.2zm-100.7-68.6c0-33.1 26.8-59.9 59.9-59.9s59.9 26.8 59.9 59.9c0 32.7-26.2 59.3-58.8 59.9h-2.4c-32.5-.8-58.6-27.3-58.6-59.9z"/><path d="M280.9 208.1c23.4-13.9 39-39.4 39-68.6 0-43.9-35.5-79.6-79.4-79.8h-.2H239.6c-5.2.3-9.4 4.7-9.4 10 0 5.5 4.5 10 10 10h.5c32.7.4 59.1 27 59.1 59.9 0 32.7-26.2 59.3-58.8 59.9h-1.5-.1c-5.5 0-10 4.5-10 10s4.5 10 10 10h.5c1.6 0 3.2-.1 4.8-.2 42.5 2.7 76.1 38 76.1 81.2 0 8.8-1.4 17.3-4 25.2-.1.3-.2.7-.3 1-.2.9-.4 1.8-.4 2.7 0 5.5 4.5 10 10 10 3.4 0 6.5-1.7 8.3-4.4.6-1.7 1.2-3.3 1.7-5 2.9-9.3 4.4-19.2 4.4-29.5.2-41.3-24.4-76.7-59.6-92.4z"/></g></svg>