<svg xmlns="http://www.w3.org/2000/svg" width="400" height="400" viewBox="0 0 400 400"><g fill="#323232"><path d="M276.3 268.3l-35.2-35.2c-1.9-1.9-4.4-2.9-7-2.9-2.5 0-4.9.9-6.7 2.6-9.5 7.2-20.9 11-32.9 11-30.1 0-54.7-24.5-54.7-54.7s24.5-54.7 54.7-54.7c30.1 0 54.7 24.5 54.7 54.7 0 7.5-1.5 14.8-4.5 21.7 0 .1-.1.2-.1.2-.6 1.3-.9 2.7-.9 4.2 0 5.5 4.5 10 10 10 4.1 0 7.8-2.5 9.3-6.3 0-.1.1-.2.1-.3 4-9.3 6.1-19.3 6.1-29.5 0-41.1-33.5-74.6-74.6-74.6-41.1 0-74.6 33.5-74.6 74.6s33.5 74.6 74.6 74.6c13.7 0 26.9-3.7 38.5-10.7l29.3 29.3c1.9 1.9 4.4 2.9 7.1 2.9 2.7 0 5.2-1 7.1-2.9 1.9-1.9 2.9-4.4 2.9-7.1-.3-2.5-1.3-5-3.2-6.9z"/><path d="M352.2 152.2C325.8 67.9 236 20.9 151.7 47.3 67.4 73.7 20.4 163.5 46.8 247.8c1 3.2 2.1 6.3 3.3 9.3.1.2.1.4.2.6.1.1.1.3.2.4 2 4.6 7.2 7.1 12.2 5.5 5.3-1.6 8.2-7.3 6.6-12.5-.1-.3-.2-.7-.4-1-1-2.7-2-5.5-2.9-8.4C42.8 168 83.9 89.5 157.7 66.4c73.8-23.1 152.3 18 175.5 91.8 23.1 73.8-18 152.3-91.8 175.4-51.1 16-104.4 1.2-140.1-33.9l-.8-.8c-2.5-2.3-6.2-3.2-9.6-2.1-5.3 1.7-8.2 7.3-6.6 12.5.6 1.8 1.6 3.3 2.9 4.4 40.8 40.2 101.8 57.1 160.2 38.8 84.3-26.2 131.2-116 104.8-200.3z"/></g></svg>