<svg xmlns="http://www.w3.org/2000/svg" width="400" height="400" viewBox="0 0 400 400"><path fill="#333" d="M355.9 72.2c1.2-6.2 2-12.5 2.5-18.7.6-1.3.9-2.6.9-4.1 0-1.1-.2-2.1-.5-3.1-1.3-4-5-7-9.4-7H51.3c-5 0-9.1 3.7-9.8 8.5-.3.1-.5.2-.7.2.3 8.3 1.3 16.6 2.9 24.7-13.7 11.1-22.4 28.1-22.4 47.2 0 33.4 26.7 60.4 59.6 60.4 9.9 0 19.3-2.5 27.5-6.8 14.3 10.1 30.4 18.1 48.2 23.1 3.2.9 6.4 1.7 9.5 2.4.2.1.4.1.6.1.1 0 .3.1.4.1 4.9.8 9.8-2.2 11.2-7.2 1.5-5.4-1.6-10.9-6.9-12.4-.3-.1-.7-.2-1-.2-2.9-.6-5.7-1.3-8.5-2.2-13.4-3.8-25.8-9.5-37-16.8-5.6-3.6-10.9-7.6-15.9-12-20.2-17.6-34.9-40.7-42.6-66.3-1.9-6.4-3.4-13-4.4-19.6-.2-1-.3-2.1-.5-3.1h276.1c-.1.9-.3 1.9-.4 2.8-.9 5.8-2.1 11.6-3.7 17.4-.2.7-.4 1.4-.6 2.2-7.9 26.6-22.8 49.2-42.2 66.2-5 4.4-10.3 8.4-15.9 12-13.9 9-29.3 15.6-45.6 19.2-.4.1-.7.2-1.1.2-2.6.7-4.8 2.4-6.1 4.8-1.3 1.7-2 3.8-2 6.1v153.4h-4.7c-.4 0-.8 0-1.2.1l-34.5-.1V234c0-5.5-4.5-10-10-10s-10 4.5-10 10v110l-37-.1c-4.8 0-8.7 3.9-8.7 8.7 0 4.8 3.9 8.7 8.7 8.7l63.7.1c.4 0 .8 0 1.1-.1l45 .1c.4 0 .8 0 1.1-.1l45.4.1c4.8 0 8.7-3.9 8.7-8.7 0-4.8-3.9-8.7-8.7-8.7l-39.1-.1V197.4c18.4-4.9 35.8-13.1 51.3-24.2 8.4 4.5 17.9 7.1 28 7.1 32.9 0 59.6-27 59.6-60.4.3-19.4-8.7-36.7-22.8-47.7zM90.9 159c-3.2.8-6.6 1.3-10 1.3-22 0-39.9-18.1-39.9-40.4 0-9.5 3.3-18.3 8.7-25.2 8.4 24.4 22.5 46.5 41.2 64.3zm255.2-9c-7.1 6.4-16.4 10.3-26.6 10.3-3.7 0-7.3-.5-10.7-1.5 18.3-17.4 32.7-39.4 41.3-64.8 5.8 7 9.2 16 9.2 25.9 0 12-5.1 22.7-13.2 30.1z"/></svg>