<svg xmlns="http://www.w3.org/2000/svg" width="400" height="400" viewBox="0 0 400 400"><path fill-rule="evenodd" clip-rule="evenodd" fill="#333" d="M352.7 152.2C326.3 67.9 236.5 20.9 152.2 47.3 67.9 73.7 20.9 163.5 47.3 247.8c1 3.2 2.1 6.3 3.3 9.3.1.2.1.4.2.6.1.1.1.3.2.4 2 4.6 7.2 7.1 12.2 5.5 5.3-1.6 8.2-7.3 6.6-12.5-.1-.3-.2-.7-.4-1-1-2.7-2-5.5-2.9-8.4C43.3 168 84.4 89.5 158.2 66.4c73.8-23.1 152.3 18 175.5 91.8 23.1 73.8-18 152.3-91.8 175.4-51.1 16-104.4 1.2-140.1-33.9l-.8-.8c-2.5-2.3-6.2-3.2-9.6-2.1-5.3 1.7-8.2 7.3-6.6 12.5.6 1.8 1.6 3.3 2.9 4.4 40.8 40.2 101.8 57.1 160.2 38.8 84.2-26.2 131.2-116 104.8-200.3z"/><path fill="#333" d="M280.5 136.2c0-.6 0-1.1-.1-1.7v-.1c-.9-7.3-7.1-13.1-14.7-13.1-.4 0-.7 0-1.1.1h-.9c-1.8 0-3.6.3-4.9.6-3.4.6-6.9 1.3-10.2 2-5.2 1-10.6 2.1-15.9 3-4.5.7-9.2 1.1-14.1 1.1-5.4 0-10.9-.4-17.1-1.3-4.5-.6-9-1.3-13.5-1.9-2.9-.4-5.7-.8-8.6-1.3-4.7-.7-9.5-1.4-14.3-2.1-7.1-1-14.3-.8-21.4-1.2-6.5-.4-13.6-.8-19.5 2.4-4.6 2.5-4.6 7.7-4.6 10.1v138.7c.4 4.8 4.2 8.4 9.1 8.6h.6c5.7 0 9.6-4.2 9.6-10.4v-130h14c4.1 0 8.1 0 12 .5 5.6.7 11.3 1.6 16.8 2.5 7 1.1 14.2 2.3 21.5 3 10 1 19.6 1.1 28.3.3 7.5-.7 14.9-2.2 22.1-3.7 2.2-.4 4.4-.9 6.6-1.3.1 20.6.1 41.1.2 61.7v11c-1.3-.3-2.6-.6-3.9-.8-2.1-.4-4.1-.9-6.1-1.3-10.2-2.5-21-3.8-32-3.8-6.9 0-14.1.5-21.4 1.5-4.2.6-8.4 1.3-12.5 2-9.5 1.6-18.4 3.1-27.6 3.1-2.4 0-4.6.9-6.3 2.6-1.8 1.8-2.7 4.3-2.7 7 .1 5.3 4 9.3 9.1 9.4h2.7c1.9 0 4.3 0 6.9-.4 4.8-.7 9.6-1.5 14.3-2.2 6.3-1 12.8-2.1 19.2-2.9 7.2-1 13.2-1.4 18.8-1.4 5.7 0 10.9.5 16 1.4 7.1 1.3 14.3 2.9 21.2 4.3l3.7.8c.4.1.8.2 1.3.2.5.1.9.2 1.3.3 4.3.8 7.4 1.2 7.4 1.2h.7c5.6 0 10.1-4.5 10.1-10.1l-.1-86.6c-.1-.7 0-1.3 0-1.8z"/></svg>