<svg xmlns="http://www.w3.org/2000/svg" width="400" height="400" viewBox="0 0 400 400"><path fill="#323232" d="M343.3 113.1c.2-1 .2-1.9.1-2.8v-.2c0-5.5-4.5-10-10-10h-56.9V70c0-2.1-.7-4-1.8-5.7-1.8-2.7-4.9-4.5-8.3-4.5h-133c-5.5 0-10 4.5-10 10 0 .4 0 .8.1 1.2v28.9H66.6c-5.5 0-10 4.5-10 10s4.5 10 10 10h67c5.5 0 10-4.5 10-10 0-.4 0-.8-.1-1.2V79.9h113v28.9c0 .4-.1.8-.1 1.2 0 5.5 4.5 10 10 10H322l-30.5 200h-54.3l31.1-167.9c1-5.4-2.5-10.7-8-11.7-5.4-1-10.7 2.5-11.7 8L216.9 320h-39.5l-31.8-171.6c-1-5.4-6.3-9-11.7-8-5.4 1-9 6.3-8 11.7L157.1 320h-48.7L76.6 148.4c-1-5.4-6.3-9-11.7-8-5.4 1-9 6.3-8 11.7L90.3 332c1 5.3 6 8.8 11.4 8h65.9c1 .2 2 .2 3.1 0h53c1 .2 2.1.2 3.1 0h71.8c4.9.8 9.6-2.2 11.1-6.9.2-.7.4-1.4.4-2.2l33.2-217.8z"/></svg>