<svg xmlns="http://www.w3.org/2000/svg" width="400" height="400" viewBox="0 0 400 400"><g fill="#343433"><path d="M135.8 336.8c-.7-.3-1.4-.5-2.2-.5-.8 0-1.5.1-2.2.5-.7.3-1.3.7-1.8 1.2s-.9 1.1-1.2 1.8c-.3.7-.4 1.4-.4 2.2 0 .8.1 1.5.4 2.2s.7 1.3 1.2 1.8 1.1.9 1.8 1.2c.7.3 1.4.4 2.2.4.8 0 1.5-.1 2.2-.4.7-.3 1.3-.7 1.8-1.2s.9-1.1 1.2-1.8c.3-.7.5-1.4.5-2.2 0-.8-.2-1.5-.5-2.2-.3-.7-.7-1.3-1.2-1.8s-1.1-.9-1.8-1.2zM151.9 347.1c.6 0 1.1-.2 1.5-.5.4-.4.7-.8 1-1.2l12-19.2c.1-.2.2-.5.4-.7.1-.3.2-.5.3-.8l12.6 20.8c.3.5.6.9 1 1.2.4.3 1 .5 1.6.5h10.1l-18-28.3 17.5-25.9h-9.7c-.9 0-1.6.5-2.1 1.4l-11.3 17.8c-.2.3-.4.6-.5 1-.1.3-.3.6-.4 1l-12.3-19.9c-.2-.4-.5-.7-.8-.9s-.8-.3-1.5-.3h-10l17.3 26.3-18 27.9h9.3zM198.4 292.9v54.2h31.8v-8.3h-21.7v-45.9zM257.8 337.4c-1.6 1.4-3.8 2-6.7 2-1.9 0-3.5-.3-4.8-.8-1.3-.5-2.5-1.1-3.5-1.7-1-.6-1.8-1.2-2.6-1.7-.7-.5-1.4-.8-2-.8-.5 0-.9.1-1.3.4-.4.2-.7.5-1 .9l-2.9 4.8c1 1.1 2.2 2 3.6 2.9 1.3.9 2.8 1.6 4.3 2.2 1.5.6 3.1 1.1 4.8 1.4 1.7.3 3.4.5 5.1.5 3 0 5.7-.5 8-1.4 2.3-.9 4.3-2.2 5.9-3.7 1.6-1.6 2.8-3.4 3.7-5.6.8-2.1 1.3-4.4 1.3-6.9 0-2.2-.4-4.2-1.1-5.7-.7-1.6-1.7-2.9-2.8-4-1.2-1.1-2.5-2-4-2.7-1.5-.7-3-1.3-4.6-1.9-1.6-.5-3.1-1-4.6-1.5-1.5-.5-2.8-1-4-1.6-1.2-.6-2.1-1.3-2.8-2.2-.7-.8-1.1-1.9-1.1-3.2 0-1 .2-1.9.5-2.8.3-.8.9-1.6 1.6-2.2.7-.6 1.6-1.1 2.6-1.4 1-.3 2.3-.5 3.7-.5 1.5 0 2.9.2 4 .6 1.1.4 2.1.8 3 1.3.8.5 1.6.9 2.2 1.3.6.4 1.2.6 1.7.6s.9-.1 1.3-.3c.4-.2.7-.6 1-1.2l2.5-4.8c-1.9-1.8-4.2-3.2-6.9-4.2s-5.6-1.5-8.8-1.5c-2.8 0-5.3.4-7.5 1.3s-4.1 2-5.6 3.5-2.7 3.1-3.4 5c-.8 1.9-1.2 3.8-1.2 5.8 0 2.5.4 4.6 1.1 6.2.7 1.7 1.7 3.1 2.8 4.2 1.2 1.1 2.5 2 4 2.7 1.5.7 3 1.3 4.6 1.8 1.5.5 3.1 1 4.6 1.4 1.5.4 2.8.9 4 1.6 1.2.6 2.1 1.4 2.8 2.3.7.9 1.1 2.1 1.1 3.5-.3 2.8-1 4.7-2.6 6.1zM280.4 89.4c.1.1.2.1.3.2 0-.1-.1-.1-.3-.2z"/><path d="M338.4 376.1V158.7c0-3-1.3-5.6-3.4-7.4l-78.4-78.4c-1.8-1.9-4.4-3.1-7.2-3.1-5.5 0-9.9 4.4-9.9 9.9v77.8c-.1.4-.1.9-.1 1.3 0 4.1 2.5 7.7 6.1 9.1 1.2.5 2.5.8 3.9.8H318.7v198H81.1V89.5h95.2v3.2h.2v98.2c-.7 11.2-8.6 20.8-21.3 20.8h-4c-11.1 0-24.3-9-24.3-22.4V113h-.2v-.3c0-5.2-4.3-9.4-9.7-9.4-5.3 0-9.7 4.2-9.7 9.4v76.6h-.2c0 24 20 43.5 44.7 43.5 24.7 0 44.7-19.5 44.7-43.5h-.2V92.7h.1v-3.2h13.2c5.5 0 9.9-4.4 9.9-9.9s-4.4-9.9-9.9-9.9h-13.2v-25c-.2-16.6-13.6-30-30.2-30-16.7 0-30.3 13.6-30.3 30.3v24.8H72.3c-.4 0-.7-.1-1-.1-5.5 0-9.9 4.4-9.9 9.9v296.8c0 1 .2 2 .5 3 1.2 4.1 5 7 9.5 7h257.2c5.5 0 9.9-4.4 9.9-9.9-.1-.1-.1-.2-.1-.4zm-79.2-227.2v-44.5l45.1 44.5h-45.1zm-93-114c5.6 0 10.1 4.5 10.1 10.1v24.8h-20.2V44.7c.2-5.5 4.6-9.8 10.1-9.8z"/></g></svg>