<svg xmlns="http://www.w3.org/2000/svg" width="400" height="400" viewBox="0 0 400 400"><path fill="#333" d="M360.4 146.9l.1-.2-160.9-89-.2-.3-.2.1-.2-.1-.2.3-160.8 89 .1.2c-2.2 1.7-3.5 4.3-3.5 7.3 0 5.1 4.1 9.2 9.2 9.2 2.5 0 4.8-1 6.5-2.7l8.5-4.7v177.3h.3c0 4.8 3.5 8.8 8.2 9.5v.1h223.3v-.2c4.4-.9 7.7-4.8 7.7-9.5s-3.3-8.5-7.7-9.5v-.2H78.8V144.9l120.5-66.7 119.4 66.1v189h.3c0 5.3 4.3 9.7 9.7 9.7s9.7-4.3 9.7-9.7h.3v-178l10.9 6c1.7 1.8 4.1 3 6.8 3 5.1 0 9.2-4.1 9.2-9.2-.1-3.6-2.2-6.7-5.2-8.2z"/><path fill="#333" d="M132.5 231.9c0 37.2 30.3 67.5 67.5 67.5s67.5-30.3 67.5-67.5-30.3-67.5-67.5-67.5-67.5 30.2-67.5 67.5zm115 0c0 26.2-21.3 47.5-47.5 47.5s-47.5-21.3-47.5-47.5 21.3-47.5 47.5-47.5 47.5 21.3 47.5 47.5z"/></svg>