<svg xmlns="http://www.w3.org/2000/svg" width="400" height="400" viewBox="0 0 400 400"><path fill="#333" d="M267.6 196.4c-2 .2-4 .3-6.1.3-13.3 0-26.3-3.8-37.7-11.3-15.7-10.1-26.2-25.1-29.7-42.3-3.5-17.2.3-35.6 10.8-51.9 11.1-17.2 29.4-28.1 50.2-30 1.9-.2 3.9-.2 5.8-.2 13.5 0 26.8 4.1 37.9 11.7 32.6 22.5 40.6 62.1 19 94.1-11.4 17.1-29.7 27.9-50.2 29.6zm91.3 93.8l-40.6-82.1c-1.3-2.6-3.5-4.4-6-5.2l-4.6-8.3c8.1-5.7 14.9-12.8 20.5-21.1 11.9-17.9 16.1-39.3 11.9-60.4-4.2-21-16.3-39.2-34.1-51.1-13.2-8.8-28.8-13.5-44.5-13.5-2.3 0-4.6.1-6.9.3-24.4 2.1-46.2 15.1-59.8 35.5-24.5 36.9-14.5 86.9 22.2 111.5 13.3 8.9 28.5 13.5 44.3 13.5 2.4 0 4.7-.1 7.1-.3 6.9-.6 13.7-2.1 20.2-4.4l4.2 7.8c-1 2.6-1 5.6.3 8.3l40.6 82.1c1.8 3.6 5.4 5.7 9.2 5.7 1.5 0 3.1-.3 4.5-1.1l6.9-3.4c5.1-2.6 7.1-8.8 4.6-13.8zm-154-164.1c0 .6-.1 1.1-.1 1.7.4-.5.7-.9 1.1-1.4 0-.1-.5-.2-1-.3zm4.8 4.8c0-.7.1-1.4.1-2.1 0 0-2-1.2-3.3-.6-1 .4-1.5.1-1.7-.1-.1 1.9-.1 3.7 0 5.5l.3-.1c.1.6.3 1.2.4 1.8l1.8 1.2s1.3 0 2-.6.9-1.8.9-1.8l-.4-1c-.1-.8-.1-1.5-.1-2.2zm83.1 44.5c-.7 0-1.1 1.3-1.6 1.9v.1c1.2-.7 2.4-1.5 3.5-2.3-.7-.1-1.4.3-1.9.3zm-8.7 3.9c-.4 0-.7 0-.8-1.4-.1-1.4-.9-1.7-.9-1.7s-1.8-.3-2.6-.3-1.5-.3-2.1-.3l-.8-.8-.8-.6c-.7 0-.9-.9-.9-.9s-.5-.7-.4-1.6c.1-.9.7-1.3 1-2.1.3-.8-.3-2-.5-2.4-.2-.5.8-2 .8-2s-1 .9-1.1.1c0-.8-1.4-1.1-1.4-1.1-.5.2-1 .3-1.5.5l-1.5.1-1.5.1h-2s-1 .3-3.2.7c-2.2.4-2.3.3-2.7.3l-1.2.3s-1.4.3-1.8.7c-.5.4-.6.9-1 .9-.5 0-.9.1-1.8.7s0 0-.3.6c-.2.4-.4.6-.6.6l-.4-.1c-.6-.1-.6-.3-1-.4-.4-.2-.7 0-1.2 0h-1.5c-.5 0-1.2-.6-1.2-.6s-.5-1-1.3-1.2c-.8-.1-.7.6-.7.6s-.1.7-.2 1.3c-.1.6-.5 1.2-.5 1.9s-.9.7-1.1 1.2c-.2.5-.8.5-1.5.9s-1.3.2-1.8 1.1c-.5.9-1.1 1.6-1.2 2.2-.1.7-.6.9-.6 1.7 0 .8.3 1.7.3 1.7l-.1 1c6.9 2.8 14.3 4.3 21.8 4.3 1.7 0 3.4-.1 5.1-.2 6.9-.6 13.6-2.5 19.7-5.4l-.1-.1c-.8-.7-2.4-.3-2.9-.3zm-2.8-40.7l.4.1-.4-.1zm-33.7-29.1zm-4.5 3.9v.1-.1zm-3.4-14.9l-.9.3-.4.5-.6.5-.5.2c.4-.6.8-1.7 1-2.3.5.3 1.1.6 1.6.9l-.2-.1zm66.6 61.9c-2.1-5.3-4.6-10.4-7.3-15.3v-.1c-2.7-4.9-5.8-9.7-9-14.2v-.1c-3.3-4.5-6.9-8.9-10.7-13-10.5-11.3-22.8-20.8-36.4-28-3.1-1.6-6.3-3.2-9.5-4.6h-.1c-1.5-.7-3.1-1.3-4.7-1.9-2.8 2-5.3 4.3-7.7 6.8 1 .4 2 .7 3.1 1.1.3 1.5.4 3.6 1.4 4.4 1.2 1 1.4 2 3.2 2.6 1.7.6 2.8.6 3.1.6.3 0 .7.8 1.4 1.6l.9.6-.2.1c-.2.1-.3 0-.8.1s-.7 0-.8.2l.1.5 1.1.3c-.5-.1-.9-.1-1.4-.2l-.2.9 1.1-.2-1.1.7.2.8s-.2.4.9.5c1.2.1 1.5-.3 1.8-.3.3 0 1-.8.9-.4-.1.4-.1.4.3.5h.2c.6.1-.9.2-.3.6.6.4.4.4.4 1.2 0 .8-.2.9-.3 1.1l.4.7.7-.2c.1-.2.6-.1 1 0s.9.1 1-.7c.2-.7.6-1.3.6-1.3s1.8-.1 1.8-.8c0-.6-1.1-.6-.9-1.7.2-1.1 1.4-1 2.2-1.2.8-.3 1.4-.5 1.4-.5s-.6-.3-.2-.4l.4-.2c.5.3 1.1.7 1.6 1-.6.2-1.4.5-1.4.5s-1 .1-1.1.7c0 .6-.1 1.4-.1 1.4l.3.3.8.5 1.1.2 1 .1.6.1.6-.3.2.1.4.1.6.3-.8.2-.4.1c-.7-.1-1.5-.3-2.3-.4 0 0-1.8.3-1 1l.3.4c.4.5.1 1-.3.9-.5 0-.5-.4-.5-.4s-.3-.9-1.2-.8c-.9.1-.8.2-.6.8.3.6-.1.4 0 .6l-.1.7-.4.2-.4.3c.5.3-1.4 0-1.4 0l-.3-.6s-1 0-1.5.1-1.6.1-1.6.1l-.2-.1-.4-.2-.7-.4-1 .1-.7-.4c-.1-.2-.7-.1-.4-.6.3-.5.3-.4.9-.6.6-.2.7-.1.6-.4l-.4-.4.5-.7-.9.1-.6.3-.8.1-.3.8.3 1-.7.6c-.2-.1.1.1-1.1.2h-.2c-1.5.1-1.3-.4-2 .2-.7.6-.4.8-1.3.8h-.1c-.8 0-.6.2-.8.3l-.8.1v-.3c-.4-.4-1 0-.4-.4.5-.4.7-.2 1-.6l.2-.6-1.1-.1c-.2-.3.2-.1.2-.7s.3-.6 0-1-.6-.3-.6-.3.7-.7 0-1.1c-.7-.4-1.1-.3-1.1-.3s.1-.1.9-.2c.9-.2 1.1-.7 1.1-.7l-1.1-.4-.8.1.6-.5.8-.3c-.4-.1-.9-.3-1.3-.4 0 0-.5.4-1 .6-.5.2-.7.4-.8.7l.5.5-.5.4.8.2-.8.1.5.1-.8.4h1.1s.5-.1.3.3 0 .9 0 .9.6.3-.3.5c-.9.2-.9.2-1.1.2v.7l-1-.1.4.5c.3.1.6.7 1.3.1 0 0-.5.6-1.1.5-.5-.2-1.2 0-1.6.7 0 0 .5-.1 1.2 0 .7.2.7 0 1.1.1.4.1.5.1 1 .2s1 .2 1.4.2h.8l-.2.1-.6.7-.6.4s-.8.1-1.1-.4c-.3-.5-.4-.4-.4.1-.1.5.1.6-.3.6-.4-.1-.9-.1-.9-.1l-1.1-.4-.7.9c-.1.2.5-.3 1 .5.4.7.7 1.3.7 1.5 0 .2 0 .6-.2 1.1-.2.5-.4 1.8-.8 1.7h-.5l-.6.1c-1.4-.5-2.7-1-4.1-1.5 0 0-2 0-1.7 1.1l-.1.3c-.1.3-.2.7-.4 1.3-.4 1-1 1.2-1.3 1.4l-.4.9-.2 1.6s-.2.2.5.3c.6.1.5.3.6.2h.1c.3-.1 1-.1.9.6-.1.7 0 .9.3.9.4 0 .4-.7 1-.5.6.1.8 0 1.5.1.7.2 1.1.3 1.1.3l1-.5c.3.1.7-1 1.2-1 .4.1.1-1.3 1-1.7.9-.4 1.2-1 1.7-.9.5.1 1.1 0 1.1 0 .3-.4.5-.8.8-1.2 0 0 .1-.9.9-.7.8.2 1.4 1 2 1 .6 0 .9-.3 1.2-.6l.1-.2c.2-.3.2-.6 1-.2 1 .5 1.3.6 1.1 1.3-.2.8-.2.5.3 1.2s.9 1.4 1.4 1.7c.5.3 1.2.1 1.5 1.4.3 1.3 1 1.8.4 1.8s0 .6-1.1.4c-1-.2-1.1-.1-1.7-.3-.6-.1-1 .1-.9.4l1.9 1.6.8-1.1 1.1-.3 1.1-.6-.3-1.2c-.2-.2.6-.9 1 .1s1.4.5.4-.7c-1-1.2-1.4-1.1-1.6-1.3l-.1-.6-.9-.5-.1-.8s0-.3-.5-.9c-.5-.6-.7-1-.7-1s0-1.2.6-1h.7l.2.4c.3.7.6 1 .7 1.2.2.2.2.8.7 1.1.5.3.5.6.7.8l.8.2.1.1.9 1.2-.4 1.5c.1.2 0 1.4.4 1.4h.2l.2.6c0 .4-.1 1.1-.1 1.1l.3.8.6.6 1 .4.1-.7h.4l-.4-.8.7.6.5-.3c-.2-.5-.5-.9-.7-1.3l-.3-1s.1-.8.3-.3c.2.5.3.3.7 0 .4-.3-.2-.3.4-.3.6 0 .9-.2 1.1 0l.1.1.9.7s-.1.1-.3.6c-.2.8-.2 1.3-.1 1.6l.5 1.1.6.6.2 1c.4.1.8.3 1.2.4l.6.2.6-.4s.6-.3 1.1.4c.5.7.4.7 1.2.9.8.1.7-.8 1.1-.5.4.3 1.1.4 1.4.5l.3.2v.4l-.5 2.2-.5.8h-.1c-.4.2-.8.2-1 .8-.1.5-.1.9-.3 1.4-.1.3-.3 1.5-.4 2.6 0 .6 0 1.2.1 1.6.4 1.2.2.5.9 2.1s.1 2.1.7 3c.5.8 1.2.6 1.2 2.3 0 0-.8 2-.1 2.9.7.9 1.1.7 1.4 2.1.2 1.4.9 1.7 1.2 2.4l.2.6-.1.8c-.1.6-.4 1-.5 1.9-.1.9-.2 1.2.1 1.7.2.5.1.8 1.2.7 1.1-.1.4-.7 1.5-.4 1.2.3 2.7.1 2.7.1s.3-.9 1.2-.7c.9.2 1.1-.2 1.8-.4.8-.2 1.2-.1 1.4-.5.2-.5.7-.9.9-.9h.1c.2 0 .3.1.7.2.5.1 1 .2 1.4.2.4 0-.4-1.1.4-.9.9.2 1.1.4 1.3-.2.2-.6 1.2-.6 1.2-.6l.2-.7c0-.2-.2-1.1.4-.9.6.1.3.1 1.2-.4 1-.5 1.1-1.3 1-1.7l-.4-.7-.6-1.1-1.1-.5c-.3-.3-.7-.7-.8-1.2v-.4c0-.5.1-1.2.1-1.2s-1.8 1.5-2.4 1.6c-.6.1-1.9-.4-2.3-.3l-.2-.1c-.4-.3-1.1-1.5-1.3-2.3-.3-1 .3-.8-.3-1.7-.4-.6-.9-1.5-1-2.2l-.1-.7c.1-.5 1.7-1.9 2-.7.3 1.2.6 2.5 1.9 3.3 0 0 .4 1.2 1.3 1.7 1 .4 2.5-.5 2.8 0 .3.5 0 1.7 1.2 2.2 1.2.5 2.1 1.2 2.8 1.4l.8.1c.5.1 1.2.1 2.4.5 1.9.5 2.2-.1 2.4.7.2.8-.1 1.4 1.1 1.7l.4.2c.5.4 0 1.4 2.1 1.4 0 0-.3.7-1.6.5.3.6.5 1.2.8 1.8 0 0 .4.7 1.4.4 1-.3 1.4-2.2 1.4-.9-.1 1.4-.4 3.1-.5 4.1-.1 1 0 2.1.1 2.8.2.7.7 1.9.5 2.8-.2 1 .6 2.5.5 3.3 0 .8-.4 3.4.7 3.3 1.1 0 1.3-.8 1.3-.8l.6-.5c.3-.2.9-.3 1.1-.9.2-.6 0-.6.2-1.2s.5-.5.7-1.1c.2-.6 0-1.1.1-1.6s.1-1.7.8-1.5c.8.2 1.6-.3 1.8-.8.2-.5.8-.6 1.1-1l1.1-.7.7-.5.6-.5h.7c.9 2.3 1.8 4.6 2.6 6.9 2.5-2.3 4.8-4.8 6.8-7.6.3-.5 0-1.4-.4-2.2zm-99.6-37.7c-.6 0-1.1 0-1.5.1l-.3 2.1c1.8-1 3.7-2.3 1.8-2.2zm-30-37.5s-3.1 2.3-1.1 2.4c2 .1 1.4-.4 2.7-.4.4 0 1.3-.1 2.3-.1.4-.8.8-1.5 1.2-2.3-1-.2-2-.4-2.5-.3-.9.3-2.6.7-2.6.7zM86.9 304.4c-24.4-24.5-37.8-57.2-37.8-91.8 0-6.3.4-12.5 1.3-18.6l.5.4c.8.6 0 .2.7 1.6.7 1.4 1.3.6 2.7 2.4 1.4 1.8 5.1 3.7 5.9 5.7.8 2 1 2.2.7 3-.3.8-1.1 1.2.3 2 1.3.8 5.3 3.3 6.4 3.4 1.1.2 3.2.6 3.2.6s4.6 1.9 6.4 2.4c1.8.6 1.2.5 3.1.9 1.9.3 4.7 1.2 4.8.8.2-.5 1-1 2.2-.8 1.2.3 4.4 1.9 5.1 2.1l.8.2c.8.2 2.1.5 3.3.8 1 .2 1.9.3 2.6.3 2 0 1.3.2 3.4.3.5 0 .8.1 1 .1l.3.1c.3.2.2.4 1 .6.9.2 2.1.4 2.8.5l.5.1h.4l.4-.1h-.1c.7.1 1.5.5 1.4 1.1-.1.7 1.4 1 1.3 0-.1-.5-.3-.6-.4-.7v-.1l.2-.2h.2c.9.1 1.8.2 1.5 0v-1.1c.5-.2 1.2-.3 1.4.2.2.6 0 1.3 0 1.7-.1.4.6.6.7 1.1 0 .4-.9 4.8-.9 5.2 0 .3-.3 1.9-1.3 2.4s-1.3.5-1.3 1.4c0 .9.3.6 0 .9l-.1.1-1 1.2c-.3.1-1.1.1-1 1.4.1 1.3-.4 1.7-.6 2-.2.3-.5.6-.5 1.9-.1 1.3-.3 2.8.6 2.2.9-.6.1.9-.1 1.5l-.5.6c-.3.4-.6 1.3-.8 3.7-.1.5-.8 2 .1 2.2.9.1 1.5.6 1.9 2.3.5 1.7 1 3.4 1.1 5.4 0 2 1.3 3.6 1.7 4.6.4 1 .6 2.1.6 2.1s.1 1.7 1.5 3c1.5 1.3 2.5 2.2 3.4 2.8.9.6 2.8.3 3.5 1.5.6 1.1 1.4 2.7 2 2.9l.3.2.8.7c.2-.5.8 9.3.8 12.4 0 3.2.6 12.6.7 12.5 0 0 1.1 4.8.3 4.2-.8-.6.4 1.6.6 2.5.2.9.4.8.5 2.6.1 1.8.3 4.5.4 5.3v4.9s-1.4-.2-.4 1.3c.9 1.5 2.7 2.3 2.6 3.4-.1 1-1.3 1.9-.3 3 .9 1 .5 2.3 1.2 2.3s-.1.7.3 1.9c.4 1.1.8 1.6 1.2 1.3.4-.3-.1-1.2-.2-2-.2-.8-.2-1.7.3-1.5.5.3 1 1.4 1 1.7 0 .3.3 1.2.5 2.1.1.5.2 1 .2 1.4-17.7-6.7-33.8-16.9-47.3-30.5zM279.8 233c-2-4.5-2-9.4-.2-14.2-3.2.6-6.5 1.1-9.8 1.4-2.7.2-5.4.4-8.1.4-13.1 0-26-2.9-37.9-8.3l-.1.6c0 .6 0 .7-.1 1.5 0 .8 0 0-.4 1.1s0 0-.2.9 1 1.6 1 1.6l.1.1.5.7c.6.8 1.9.5 1.9.5-.4.7.4 1.2.9 1.4l.3.1s.5 1 1.1 1.4c.6.4.4.6 1.3 1.3.5.4.9 1.1 1 1.5l.2.5-.1 1.5c0 .4 1 1 1.4 1.4.4.4.7.5 1.7 1l.5.4c.4.4.5.7.9 1.1.6.5 3 2.4 3 2.4s1.5.9 2.5 1.7c1.1.8 1.4.4 1.4.4h.3l1.1-.2 1.7-.7c.4 0 .9-.6 2.3-.5 1.4 0 1.8 0 2.9.1 1.1 0 .5.3 1.2.7.4.2.9.2 1.2.1l.3-.1c.4-.2.8-.3 1.2-.4l1.3-.4c.4-.2 1.1-.7 1.7-.7.6 0 .7-.6 1.4-.5.7 0 .7-.7.7-.7l.4-.1c.5-.1 1.3-.2 1.7-.2h.1c.7-.1 1.5 0 2.3 0 .9 0 .8.5 2 1.4 1.2.9.2.9.1 1.9-.1 1 .3.9 1.1.9s1.6-.4 2.3-.4c.7 0 2.2-.7 2.2-.7l.8 1.1s.6.4 1.3 1.8c.5.9.3 1.5 0 2l-.3.6c-.2.4-.4 1.1-.5 1.7l-.1.8c0 .7-.8 1.2-1 2.9-.2 1.4 1.7 3.8 3.4 5.6l1 .9c.4.4.7.8 1 1.3.3.6.4 1.2.5 1.8.2 1.1.2 2.1.5 3 .7 1.8 1.8 2 1.1 2s-.3 2.7.4 3.2.9 3.2-.5 5.3c-1.2 1.8-2.5 6.1-3 8.9-.1.4-.2.8-.2 1.2-.3 2.4 4.3 10.7 4.3 10.7s.1.5.2 1.3c-3.6 4.8-7.6 9.4-11.9 13.8-24.4 24.5-56.8 38-91.3 38-10.1 0-20-1.2-29.5-3.4l.5-.3c.8-.2.9.3 1-1 .1-1.3-.7-1.2-1.8-1.1-1.1.1-2 0-2.5-.8s-.2-1.7 1.2-2c1.4-.3 1.7-1.1 1.7-1.5 0-.4-1.3-.4 0-1.3s2.4-1.2 1.3-1.5c-1.1-.3-2.9-.1-3-.7-.1-.6-2.8-1.8-.3-1.9 2.5-.1 3.4.7 4.1-.1.7-.8 1.3-.9.5-1.8-.7-.8-2.3-2.1-1.3-2.2 1.1-.1 6.1 0 7.5-1.6 1.5-1.6 1.7-2.3 1.7-3.3 0-1.1-.6-.7-1.4-1.7-.8-1 1.8-1.5.1-1.9-1.6-.4-3.1-.3-3.2-1l.2-.4c.4-.1 1.2.1 2.6.1 2 0 2.2 1.2 4 .4 1.8-.8 2.8-.9 3.5-1.9l.1-.1c.7-1.1 1.3-3.9 1.5-5.2.2-1.4 1.1-3.1 1.1-3.1s.7.4.2 1.6c-.5 1.2.4.1 1.1-1.8.8-1.9.6-2.4 1.9-3.7 1.2-1.2 1.4-1.5.7-2.9-.7-1.3-2-2.6-1-3.7 1-1.2 2.5-3.3 3.2-4 .7-.7 2.8-3 3.7-2.9 1 .1 2.9.1 2.9-.2.1-.3-.5-1.3.3-1.3.8-.1.8-.7.8-.7.1-.8.2-1.6.2-2.3 0 0 .6-1.5.5-2.1v-2.3c0-.9.4-.7.4-2 0-1.2-.2-6.2-.3-8-.1-1.8.5-.6.6-.1.2.5-.1-.3.3-1.3.3-1.1.1-1.4.3-1.9.2-.5.5-.6.9-1.1.4-.5.8-1.1.7-2.9-.1-1.8-.2-2.8-.4-4-.2-1.2.3-1.6-.3-2.1-.7-.5-.5.3-1.4-1.3-1-1.6-1.6-2.6-1.9-3.1-.3-.5-1.4-2.3-2-2.7-.6-.3-.8-.4-1.5-.7-.7-.3-1.3-.2-1.8-.7-.5-.5-1.6-1.9-2.9-.9l-.5.4c0-.5 0-1.2-.1-1.7-.1-.8-.2-.8-1.6-1.8-1.4-1-2.3-1.7-3.1-2.1-.8-.4-1.5-.3-1.9.1l-.5.4c.3-.3.5-.7.3-1.2-.4-.9-1-1-1.6-1.1-.6-.1-2-.6-2-.6s-1-.9.1-1.1c1-.2 1.1-.3 1-1-.2-.7.2-.1-1.1-1.1s-.8-1-1.2-1.9c-.4-.8-1.1-2.1-1.1-2.1l-.6-.4-.3-.2s-3.1-2.1-3.9-2.2l-.3-.1c-.8-.2-1.8-.7-2.9-.8-1.2-.2-2.1-.3-2.1-.3l-.2-.1c-.4-.3-1.6-1.2-2.1-1.2-.7-.1-1.2-2-2.5-2.1h-.1c-1.2-.1-2.4-.6-2.4-.6s1.5-.3 1-.7c-.5-.3-.6-.1-1.6-.5-1.1-.4-2.7-.9-1.3-.7 1.4.1 1.1 0 1.1 0-1.2-.2-2.3-.4-3.5-.6 0 0-.9.4-1.5.5-.7 0-1-.6-2.1-.7-1.1-.1-1.3.2-2.3.1-1-.1-.8-.6-.8-.6s-.1-.4-.7-.5c-.6-.1-1.9-.2-2.4-.2-.5-.1-2.8.4-2.2 1.1.5.6.9 1.3.1 1.3s-1.6-.2-1.4-.9c.3-.7 1.6-1 1.2-1.5l-.2-.5.4-.2c.5-.1 1.1-.2 1.1-.2s.8-.3-.3-.3-1.1 0-1.7.2c-.6.2-.9.5-1.7.4-.8-.1-1.1.1-1.2.4l-.6.4s0-1-.5-.7c-.6.3-1.9.3-2.1.9-.2.6-.4 1.6-.4 1.6s-2.2.1-2.4 1.2c-.2 1-1.6 1.8-1.6 1.8s2-2.1.9-2.7c-1.2-.7-.9-1-2.1-.9l-.8.2-.8-.6c-.5-.4-1-.7-1-.7s-.9-.4-3.4-.5l-.6-.4c-.3 0-.3-.3-1-.3-.6 0-1.5-.4-1.7-.2l.1 1c-.9.1-1.3.2-2 0l-.5-.1c-.9-.1-1.8.1-1.6-.1l.2-.2c.9-.6.7-.1 1.2-1 .5-1-.1-.7.6-1.7.4-.5.6-.7.7-.9.1-.2 0-.4-.2-1.1-.4-1.3-.2-1.6.4-2.2.5-.6 2-1.9-1.1-2-3.1-.1-7.8-.4-7.3 1.2.5 1.5.5 2.3-.5 2.8s-1.3.8-.9 1.1c.4.3.3.9-1.2.2-1.5-.8-2.2.4-4.4.3-2.3-.1-1.4-1.1-3-1.2-1.6-.1-1.2.1-2.3-1-1.2-1.1-2.9-1.7-3.6-3.5-.8-1.8-.9-4.9-1.2-6.9-.3-2 .6-1.9.5-2.7v-.7c0-.7.1-1.6 0-2.5-.2-1.2-.4-2.2 2-2.8 2.4-.7 1.7.1 2.8-1.3 1.1-1.4-1.6-1.9 2.4-1.7 4 .2 3.6.1 5.1.2 1.5.1 2.2-.7 3.2.1 1 .8 1.8 1.8 3.1.9s.9-2.2.9-2.2-1.5-1.8 3.3-.8c4.8 1.1 4.6-1.7 5.8.2 1.2 1.8 1.8 2.8 3 2 1.1-.8 1-2.5 2.2-.9 1.2 1.6 3.4 2.1 3 3-.3.9-.2 1 .1 2.6.3 1.6.4 3.2 1.6 4.8 1.2 1.6 2.1 3.7 3.5 1.6 1.5-2.2 1.5-.9 1.2-4.3-.2-3.5-1-6.5-1-6.8 0-.3-2-4 2.4-6.8 4.4-2.9 4.8-3.8 7.2-4.7 2.3-.9 2.2-.1 3.6-1.5 1.4-1.5 1.2-2.3 2.1-2.3.8 0 .6-.8 1.3-.8.7 0 1.8-.7 1.8-.7V171h-1.8c.8-.4 1.6-.7 2.4-1.1-.1-.5-.2-1.1-.3-1.7 0 0-2.3-.1-1.7-.3.6-.1 2.4-.5 2.4-1.5v-3.6s.7-5.8.9-1.1c.1 4.6-.7 6.3 1.4 3.6 2.2-2.7 1.7-4.1 1.7-4.1.5.2 1 .4 1.4.6 0 0 3.5-3.2 3.6-5 .1-1.7-.3-1.4 2.7-1.9 3-.4 4.4-1.6 5.6-1.6h2.8c-.4-.1-1-.6.5-3.1 2-3.6 3-4.5 5-4.9 2-.4 2.6-2 4.3-2h2c-.6-3.7-1-7.4-1.1-11.1-.5.4-1.1.9-1.6 1.4-.9.8-1.8 1.5-2.3 1.9l-.4.2c-1 .1-1.6-.9-1.6-.9s1-.9 2.5-1.6c1.4-.7 2-1.8 3.4-2.5-.3-13.5 2.3-26.9 7.8-39.3-1.6.2-2.8.7-3.6.3-1-.5-4.1-1.8-4.4.6-.3 2.4-1.8 2.3-1.7 3.4.1 1.1.3 2.1-1 2-1.3 0-5.2 1.6-3.2 3.5s2.2 2 1.7 3.4c-.5 1.4-1.9 5-11.4 6.9 0 0-1.2 3.6-1 5.3.2 1.7-.1 1.8-1.7 2.6-1.6.8-1.3 1.9-2.8 1.9-1.6 0-2.1.8-2.4-1-.3-1.8-1.1-.4-.7-2.4.4-1.9-1-1.4 1.2-3s.1-.9 1.7-2.6c1.5-1.6 1.8-2.5 1.1-2.5s-6.9-.4-6.9-.4-.7-1.9-2.9-1.9-3.6-3.3-6.4-3.3c-2.8 0-5.1.4-5.1.4s2.3-2.2 2.3-3.7-3.1-1.2-3.1-1.2c0-.1 8.6-9.7 16-9.6 1.2 0 4.2-1.8 1.6-1.9-2.7-.1 1.8-.7 3.3-.7 1.4-.1.9-.3 2.9-.3s-1 .6 2.6-.4 4.2-1.1 4.2-1.6-2.1-.1-3.4-.6c7.6-1.4 15.3-2.1 23.1-2.1 1.6 0 3.1 0 4.7.1.9-1.6 1.9-3.2 3-4.8.9-1.3 1.8-2.7 2.8-4-1-.1-2-.1-2.9-.2h-.2c-1.1-.1-2.1-.1-3.2-.1h-.5c-1.2 0-2.4-.1-3.6-.1-4 0-8.1.2-12 .5h-.1c-5.8.5-11.5 1.4-17.1 2.6h-.1c-5.6 1.2-11 2.8-16.3 4.6h-.1c-5.3 1.9-10.4 4-15.4 6.5l-.2.1c-4.9 2.5-9.7 5.2-14.3 8.2l-.2.1c-4.6 3-8.9 6.3-13.1 9.8l-.2.2c-2.8 2.4-5.5 4.8-8 7.4-1.3 1.3-2.5 2.5-3.7 3.9l-.2.3c-2.5 2.7-4.8 5.4-7.1 8.3-1.1 1.4-2.2 2.8-3.2 4.3l-.2.3c-2.1 2.9-4.1 6-6 9.1-.9 1.5-1.8 3.1-2.7 4.6l-.2.4c-1.8 3.2-3.4 6.5-5 9.8-.7 1.6-1.5 3.3-2.2 5l-.1.4c-1.4 3.4-2.6 6.9-3.8 10.5-.6 1.7-1.1 3.5-1.5 5.3l-.1.4c-3.2 11.9-4.9 24-4.9 36.6 0 76.7 61.9 138.9 138.2 138.9 43.6 0 82.4-20.3 107.7-51.9v-.1c.6-.7 1.2-1.5 1.8-2.3v-.1c4.1-5.4 7.9-11.1 11.2-17.1l.2-.3c.4-.8.8-1.5 1.2-2.3l.2-.5c.4-.7.8-1.5 1.1-2.2l.3-.5c.4-.8.7-1.5 1.1-2.2l.2-.4 1.2-2.7-16.2-27c-3.7-2-6.7-5-8.4-8.9zm-72.3-112.9c.3-1.7.6-2.5.1-3.2-.2-.3-.7-.3-1.1-.4-.4 1.8-.8 3.5-1.1 5.3 1.4-.1 1.9-.5 2.1-1.7zm9.7-12.5c.4.3.5.1 1.1 0 .6-.1.6-.1 1.3-.1.8 0 .8-1.1 1-1.3 0 0 .2.3 0-.2-.3-.4-.5-.6.5-.4 1 .2.2-.4 0-.6-.2-.2-.4-.1-1-.3-.7-.1-.7.6-.7.6l-.7-.3c-.3-.4-.6-.2-.9.5-.4.6 0 .4.3.5l-.5.3-.9.6c-.1.4.1.5.5.7z"/></svg>