<svg xmlns="http://www.w3.org/2000/svg" width="400" height="400" viewBox="0 0 400 400"><path fill="#323232" d="M241.2 280.1v70.1c0 5.5 4.5 10 10 10h59c5.5 0 10-4.5 10-10s-4.5-10-10-10h-49v-70c0-5.5-4.5-10-10-10-.4 0-.7-.1-1.1-.1h-99c-1.9 0-3.7.5-5.2 1.5-2.9 1.8-4.9 4.9-4.9 8.6v70H61.2V195L201.3 63.4l139.2 130.8v135.6c0 5.5 4.5 10 10 10s10-4.5 10-10V192.3c.7-3.2-.2-6.8-2.7-9.3L208.6 42.7c-2-2-4.6-3-7.2-2.9-2.6 0-5.2.9-7.2 2.9L44.8 183c-.2.2-.3.3-.4.5-1.9 1.8-3.2 4.4-3.2 7.3v159c0 3.6 1.9 6.7 4.8 8.5 1.7 1.2 3.7 1.9 5.9 1.9h99.2c5.5 0 10-4.5 10-10v-70.1h80.1zm-.1 70.1c0 5.5 4.5 10 10 10-5.5 0-9.9-4.5-10-10v-1 1z"/></svg>