<svg xmlns="http://www.w3.org/2000/svg" width="400" height="400" viewBox="0 0 400 400"><path fill="#333" d="M342.5 199c-1.6-1.4-3.7-2-6-2H278c-2.2 0-4.4.6-6 2-1.6 1.4-2.5 3.2-2.5 5.1v24c-1.5-.9-3.4-1.1-5.3-1.1h-58.5c-2.2 0-4.4.4-6 1.5-1.6 1.1-2.5 2.6-2.5 4.2v36.6c-1.4-.8-3.1-1.3-4.8-1.3h-58.5c-2.2 0-4.2.7-5.8 2-1.6 1.3-2.3 3.1-2.3 4.9v29.4c-1-.6-2.8-1.3-4.1-1.3H63.5c-2.2 0-4.4 1.1-6 2.7-1.6 1.6-2.5 4-2.5 6.2v48.6l70.7.5H345V204.1c0-2-.9-3.7-2.5-5.1zM161.2 85.2h.1c12.5-.1 22.7-10.3 22.7-22.9 0-12.6-10.2-22.9-22.8-22.9-12.6 0-22.8 10.2-22.8 22.9 0 5.2 1.8 10 4.7 13.8 4.2 5.5 10.7 9.1 18.1 9.1z"/><path fill="#333" d="M118.8 262.9C134.6 231.8 140 208 140 208s16.9 6.6 17.5 19.5c.3 7.5-.8 34.5 5.9 34.9 6.7.3 11.9-6.8 18.4-29.2 2.3-7.7 6-31.2-8.1-40.7-14.1-9.5-23.9-16.9-23.9-16.9l7.4-29.3s6.3 11.7 18.3 19.4c12 7.8 32.1 17.3 33.4 0 .7-8.5-4.9-6.7-15.1-11.7-10.2-4.9-23.2-27.2-29.9-43.1-6.7-15.9-13.4-29.7-31-24-17.6 5.7-27.4 55.8-28.5 64-1 8.1-5.6 25.4 5.3 36.7 0 0-10.2 29.7-16.5 66.4-6.4 36.8-4.5 68.1 25.6 8.9z"/></svg>