<svg xmlns="http://www.w3.org/2000/svg" width="400" height="400" viewBox="0 0 400 400"><g fill="#333"><path d="M205.6 100l54.7-11.5-63.3 97.2c-3 4.6-1.7 10.8 2.9 13.8s10.8 1.7 13.9-2.9l63.6-97.7 11.7 55.6c1.1 5.4 6.4 8.9 11.8 7.7 5.4-1.1 8.9-6.5 7.7-11.9L292.1 72c-.6-2.8-2.3-5.1-4.6-6.5l-.2-.2c-.3-.2-.5-.3-.8-.5-.1-.1-.3-.1-.4-.2-.2-.1-.3-.2-.5-.2-.2-.1-.3-.1-.5-.2-.1-.1-.3-.1-.4-.2-.2 0-.3-.1-.5-.1s-.3-.1-.5-.1c-.1 0-.3 0-.5-.1-.2 0-.3-.1-.5-.1h-1.9c-.3 0-.5.1-.8.1h-.2l-78.4 16.5c-5.4 1.1-8.9 6.5-7.7 11.9 1.2 5.5 6.5 9 11.9 7.9z"/><path d="M60.5 278.2c43.5 77 141.2 104.1 218.2 60.7 55.2-31.1 84.9-90 81.3-149.2 0-.4-.1-.9-.1-1.3-.4-2.8-1.9-5.4-4.4-7.1-4.6-3-10.8-1.7-13.8 2.9-1.3 2-1.8 4.4-1.6 6.6 3.1 51.8-22.9 103.4-71.2 130.6-67.4 38.1-152.9 14.4-190.9-53-38.1-67.5-14.2-153.1 53.5-191.1 6.3-3.5 12.7-6.5 19.2-9v-.2c2.5-.5 4.8-2 6.3-4.3 3-4.6 1.7-10.9-2.9-13.9-2.5-1.6-5.4-2-8-1.3-.6.2-1.2.4-1.8.7-7.7 2.9-15.2 6.3-22.6 10.4-77.4 43.5-104.8 141.4-61.2 218.5z"/></g></svg>