<svg xmlns="http://www.w3.org/2000/svg" width="400" height="400" viewBox="0 0 400 400"><g fill="#323232"><path d="M370.2 73.5v221.9c-.2.4-.4.8-.4 1.2-2.1 17.6-16.3 31.8-36.1 31.8-82.7-.2-165.4-.1-248.1-.1-6.3 0-12.6-.1-18.8-.6-6.2-.5-12.1-2.1-17.6-5.2-9.9-5.7-14.4-14.9-16.6-25.6-1-5.1-1.5-10.2-2.2-15.4v-164h45V73.4c98.5.1 196.6.1 294.8.1zM89.7 307.1H334c1.1 0 2.1-.1 3.2-.3 6.6-1.5 11.8-8.6 11.8-16.4V97.2c0-.8-.1-1.5-.2-2.3H96.6V270.3c-.1 12.6-1 24.9-6.9 36.8zm-38-168v129.3c0 6.6.4 13.2 1.1 19.8.5 4.7 1.7 9.4 4.7 13.3 3.4 4.4 8.8 4.4 12.1-.1 1.4-2 2.5-4.3 3.3-6.6 2.3-7 2.5-14.4 2.5-21.7.1-43.7 0-87.4 0-131.1v-2.9H51.7z"/><path d="M313.8 251.8h-95.4v-76.2h95.4v76.2zM147.1 148.2v-14.6h149.6v14.6H147.1zM133.1 183.3v-7.6h62.2v7.6h-62.2zM195.4 202.2v7.7h-62.3v-7.7h62.3zM133 260.2v-7.6h62.3v7.6H133zM195.4 228v7.6h-62.3V228h62.3z"/></g></svg>