<svg xmlns="http://www.w3.org/2000/svg" width="400" height="400" viewBox="0 0 400 400"><path fill="#333" d="M174.5 204.2c-11.1-8-22.2-15.9-33.3-23.9-12.7-9.1-25.4-18.3-38.2-27.3-4.2-3-5.9-6.7-4.5-11.6 1.3-4.8 5.1-7 10.8-7.1 57.1-1.2 114.2-2.4 171.3-3.7 2 0 4-.2 6 0 8.6.9 12.2 7.9 8.1 15.5-13.4 24.7-26.8 49.5-40.2 74.2-.9 1.6-1.7 3.2-2.7 5.3 9.4 4 18.6 7.4 27.3 11.8 3.1 1.5 5.9 4.8 7.3 7.9 2 4.4-.3 8.2-5 10.5l-103.5 51c-13.3 6.6-26.7 12.9-39.8 19.8-19.1 10-39 6.8-53.6-9.1C16.3 243.3 30 129.9 113.8 73.9c71.5-47.7 171.3-27.6 219.7 44.3 50.4 75 29.8 176-46.4 224.6-36.9 23.6-77.3 30.4-120.2 21.3-6.9-1.5-10.1-6-8.8-12.1 1.2-5.5 6.1-8.4 12.8-7 30.8 6.3 60.9 3.9 89.2-9.9 46.6-22.7 74.3-60 80-111.7 8-71.9-37.2-134.9-107.3-152-77.8-18.9-158 34.7-170 113.6-7 45.7 5.4 85.7 36.7 119.7 6.5 7.1 11 6.7 16-1.6 19.4-32.1 38.6-64.2 57.9-96.3.4-.7.6-1.5 1.1-2.6zm79.5 43.6c-6.6-2.8-11.9-5.1-17.3-7.2-8.5-3.3-10.6-8.8-6.2-16.9l30.6-56.1c2.9-5.4 5.8-10.7 9.2-17-44.5.9-87.9 1.8-131.4 2.7 1 2 2.2 3 3.5 3.9 16.6 11.7 33.3 23.3 49.9 35 5.1 3.6 6.7 9.9 3.7 14.9-18.5 30.7-36.9 61.3-55.4 91.9-1.1 1.8-2.1 3.6-3.2 5.4.2.2.4.5.7.7 38.2-18.9 76.5-37.9 115.9-57.3z"/></svg>