<svg xmlns="http://www.w3.org/2000/svg" width="400" height="400" viewBox="0 0 400 400"><g fill="#333"><path d="M318.6 345.6c-.5-1.2-1.4-2.3-2.4-3.3L239 227.6v-87.4c6 0 9.9-4.5 9.9-10s-3.9-9.9-9.9-10v-.2h-10v.2c-5 0-10 4.5-10 10v100.2c0 3.2 1.7 5.8 4 7.6l67 101H108.6l68-101.1c2.2-1.8 3.4-4.3 3.4-7.4V130.2c0-5.5-4.2-10.2-9.7-10.2h-10.2c-5.5 0-10 4.6-10 10.1s4.3 10.1 9.8 10.1c.1 0 0 .1 0 0v87.5L83.2 342c-1.3 1.1-2.2 2.6-2.8 4.2-.4 1-.5 1.9-.5 3 0 5.5 4.5 9.8 10 9.8h219.4c5.5 0 10-4.2 10-9.8 0-1.3-.2-2.4-.7-3.6z"/><circle cx="200.4" cy="81.2" r="20.1"/><circle cx="239.3" cy="61.1" r="10"/></g></svg>