<svg xmlns="http://www.w3.org/2000/svg" width="400" height="400" viewBox="0 0 400 400"><g fill="#333"><path d="M290 181.9l-120-59.3c-.1-.1-.2-.1-.3-.1-.4-.2-.9-.4-1.3-.6-.2-.1-.4-.2-.6-.2-.4-.1-.8-.3-1.2-.4-.3-.1-.5-.1-.8-.2-.4-.1-.7-.2-1.1-.2-.3-.1-.6-.1-1-.1-.3 0-.6-.1-1-.1s-.7 0-1.1-.1H160.7c-.3 0-.7 0-1 .1-.3 0-.7 0-1 .1-.3 0-.5.1-.8.1-.4.1-.8.1-1.2.2-.2 0-.3.1-.5.1-.5.1-.9.2-1.4.4-.1 0-.2.1-.3.1l-1.5.6c-.1 0-.2.1-.3.1-.5.2-.9.4-1.4.7-.1.1-.3.2-.4.3-.4.2-.8.5-1.2.7-.2.1-.4.3-.6.4-.3.2-.6.5-1 .7-.2.2-.4.4-.6.5-.3.3-.6.5-.8.8-.2.2-.3.4-.5.6-.3.3-.5.6-.8.9-.1.2-.3.3-.4.5-.3.4-.5.7-.8 1.1-.1.1-.2.3-.3.4-.3.4-.5.9-.8 1.4l-.1.1c0 .1-.1.2-.1.2-.2.5-.4 1-.6 1.4-.1.2-.1.3-.2.5-.2.4-.3.9-.4 1.3-.1.2-.1.5-.2.7l-.3 1.2c-.1.3-.1.6-.1.9 0 .3-.1.7-.1 1 0 .4 0 .7-.1 1.1V260.6c0 .4 0 .7.1 1.1 0 .3.1.7.1 1 0 .3.1.6.1.9.1.4.2.8.2 1.1.1.2.1.5.2.7.1.4.3.9.4 1.3.1.2.1.4.2.6.2.5.4.9.6 1.3 0 .1.1.2.1.3 0 .1.1.1.1.2.2.4.5.8.7 1.3.1.2.2.3.3.5.2.4.5.7.7 1 .2.2.3.4.5.6.2.3.5.5.7.8.2.2.4.4.6.7l.7.7c.2.2.4.4.7.6.3.2.6.5.9.7.2.2.4.3.6.5.4.3.7.5 1.1.7.2.1.3.2.5.3.4.2.9.5 1.4.7.1.1.2.1.3.2l1.5.6c.1 0 .2.1.3.1.5.2.9.3 1.4.4.2 0 .3.1.5.1.4.1.8.2 1.2.2.3 0 .5.1.8.1.3 0 .7.1 1 .1.3 0 .7 0 1 .1H161.3c.4 0 .7 0 1.1-.1.3 0 .6-.1 1-.1.3 0 .6-.1 1-.1.4-.1.7-.1 1.1-.2.3-.1.5-.1.8-.2.4-.1.8-.2 1.2-.4.2-.1.4-.2.6-.2.4-.2.8-.4 1.3-.5.1-.1.2-.1.4-.2L290 218.7c7.2-3.6 11.2-10.9 11-18.4.2-7.6-3.8-14.9-11-18.4zm-108.9-9.2l55.8 27.6-55.8 27.6v-55.2z"/><path d="M201 40c-88.4 0-160 71.6-160 160 0 24.2 5.4 47.1 15 67.7.2.5.4.9.7 1.4 3.3 6.5 10 11 17.8 11 11 0 20-9 20-20 0-3.2-.8-6.2-2.1-8.9C85.1 235.6 81 218.3 81 200c0-66.3 53.7-120 120-120s120 53.7 120 120-53.7 120-120 120c-18.3 0-35.7-4.1-51.2-11.5-.3-.1-.6-.3-.8-.4-2.4-1-5-1.5-7.7-1.5-11 0-20 9-20 20 0 8.3 5.1 15.4 12.3 18.4 20.4 9.7 43.3 15 67.4 15 88.4 0 160-71.6 160-160S289.4 40 201 40z"/></g></svg>