<svg xmlns="http://www.w3.org/2000/svg" width="400" height="400" viewBox="0 0 400 400"><g fill="#333"><path d="M355 101.3c-4.7-3.3-28.7-22-74-22s-80 24-80 24c-15-8.7-44-24-80-24S59.6 94 49 99.3s-8 20-8 20v149c0 12.3 11 10.7 11 10.7h297c11.3 0 12-10.8 12-10.8s-.7-153.3 0-156.9-1.4-6.7-6-10zm-165 156c-9-7.3-36-18-69-18s-60 12-60 12v-134s7-6 20-11v93.2c0 5.5 4.5 10 10 10s10-4.5 10-10v-98.6c6-1 12.7-1.6 19.9-1.6 39.3 0 69.1 24 69.1 24v134zm151-6s-27-12-60-12-60 10.7-69 18v-134s29.7-24 69-24 60 18 60 18v134zM351 299H50.8c-5.5 0-10 4.5-10 10s4.5 10 10 10H351c5.5 0 10-4.5 10-10s-4.5-10-10-10z"/></g></svg>