<svg xmlns="http://www.w3.org/2000/svg" width="400" height="400" viewBox="0 0 400 400"><path fill="#333" d="M360.2 89c0-3.9-2.3-7.3-5.6-9-1.4-.8-3.1-1.2-4.8-1.2H248.7c-3.4-16.5-14.8-30-30-36.2-1.3-.5-2.7-1-4.1-1.5-.4 0-.8-.1-1.2-.1-5.5 0-10 4.5-10 10 0 4 2.4 7.5 5.8 9.1.5.2 1.1.4 1.6.6 8.2 3.1 14.7 9.8 17.6 18.1 1.1 3.1 1.7 6.4 1.7 9.9v.2c0 5.3 4.2 9.6 9.4 9.9h100.7V339h-280V98.8H160.7c2.7-.2 5.4-1.5 7.1-3.6 2-2.4 2.2-5.4 2.5-8.4.3-2.7.6-5.5 1.5-8 3-8.4 9.6-15.1 18-18.2 4-1.3 6.9-5.1 6.9-9.5 0-5.5-4.5-10-10-10-.6 0-1.2.1-1.8.2-1 .3-1.9.6-2.9 1-15.9 6-27.9 19.7-31.3 36.6H49.8c-5.5 0-10 4.5-10 10 0 1 .1 1.9.4 2.8V349c0 5.5 4.5 10 10 10h300c5.5 0 10-4.5 10-10v-.5V89z"/><path fill="#333" d="M309.7 168.4h-80c-5.5 0-10 4.5-10 10s4.5 10 10 10h80c5.5 0 10-4.5 10-10s-4.5-10-10-10zM309.7 208h-80c-5.5 0-10 4.5-10 10s4.5 10 10 10h80c5.5 0 10-4.5 10-10s-4.5-10-10-10zM309.7 248.4h-80c-5.5 0-10 4.5-10 10s4.5 10 10 10h80c5.5 0 10-4.5 10-10s-4.5-10-10-10zM101 286.8c0-1.3-.3-2.6-.8-3.8.2 1.6.4 3.1.7 4.6.1-.3.1-.5.1-.8z"/><path fill="#333" d="M144.5 219c19.9-2.2 35.4-19.1 35.4-39.6 0-22-17.9-39.9-39.9-39.9s-39.9 17.9-39.9 39.9c0 20.6 15.7 37.6 35.8 39.7-30.9 2.4-55.3 28.2-55.3 59.8 0 2.7.2 5.3.5 7.8.2 1.5.4 3 .8 4.5 1.5 3.6 5.1 6.1 9.2 6.1 3.2 0 6.2-1.5 8-4.2 2.1-3.1 1.6-6.1 1.2-9.7-.1-1.3-.2-2.6-.2-3.9 0-22.1 17.9-40 40-40s40 17.9 40 40c0 2.3-.2 4.5-.6 6.7h.1c0 .4-.1.7-.1 1.1 0 5.5 4.5 10 10 10s10-4.5 10-10v.5c.1 0 .1 0 .2-.1.4-2.9.7-5.9.7-8.9.1-31.7-24.6-57.7-55.9-59.8zm-4.5-19.8c-11 0-19.8-8.9-19.8-19.8 0-11 8.9-19.8 19.8-19.8s19.8 8.9 19.8 19.8c0 11-8.9 19.8-19.8 19.8z"/></svg>