<svg xmlns="http://www.w3.org/2000/svg" width="400" height="400" viewBox="0 0 400 400"><g fill="#333"><path d="M208 281c0-5.5-4.5-10-10-10H78V81h200v190h-10v.1c-.3 0-.7-.1-1-.1-5.5 0-10 4.5-10 10s4.5 10 10 10c.3 0 .7 0 1-.1v.1h20c5.5 0 10-4 10-10V70c-.5-5.1-4.8-9-9.9-9H67v.1c-4.7.5-8.5 4.2-8.9 8.9H58v212h.1c.5 4.7 4.2 8.5 8.9 8.9v.1h131c5.5 0 10-4.5 10-10z"/><path d="M241 117.1l-131-.1c-5.5 0-10 4.5-10 10s4.5 10 10 10h131v-.1c5.1-.5 9-4.8 9-9.9s-3.9-9.4-9-9.9zM241 156.1l-131-.1v.1c-5.1.5-9 4.8-9 9.9s3.9 9.4 9 9.9v.1h131v-.1c5.1-.5 9-4.8 9-9.9s-3.9-9.4-9-9.9zM110 196c-5.5 0-10 4.5-10 10s4.5 10 10 10h131v-.1c5.1-.5 9-4.8 9-9.9s-3.9-9.4-9-9.9v-.1H110zM289 61h-1 1zM289 290.9c-.3 0-.7.1-1 .1l1-.1z"/><path d="M342.3 302.4L315.5 84.5v-.1c0-.3-.1-.7-.2-1-1-4.6-5.2-7.9-10-7.8-.3 0-.7 0-1 .1l-1.3.2v70.5l18.2 148.4-198.1 24.3-2.8-23.2h-20.1l4.4 35.5c.7 5.5 5.7 9.4 11.1 8.7l217.9-26.8c.3 0 .7-.1 1-.2 4.9-.9 8.3-5.6 7.7-10.7z"/><path d="M300.4 80.6l-1 .1c.3 0 .6 0 1-.1z"/></g></svg>