<svg xmlns="http://www.w3.org/2000/svg" width="400" height="400" viewBox="0 0 400 400"><g fill="#343433"><path d="M137.1 336.6c-.7-.3-1.4-.5-2.2-.5-.8 0-1.5.1-2.2.5-.7.3-1.3.7-1.8 1.2s-.9 1.1-1.2 1.8c-.3.7-.4 1.4-.4 2.2 0 .8.1 1.5.4 2.2.3.7.7 1.3 1.2 1.8s1.1.9 1.8 1.2c.7.3 1.4.4 2.2.4.8 0 1.5-.1 2.2-.4.7-.3 1.3-.7 1.8-1.2s.9-1.1 1.2-1.8c.3-.7.5-1.4.5-2.2 0-.8-.2-1.5-.5-2.2-.3-.7-.7-1.3-1.2-1.8s-1.1-.9-1.8-1.2zM187.5 296.4v-3.7h-40.1v8h27.1l-27.9 39.5c-.3.4-.5.8-.7 1.3-.2.5-.3.9-.3 1.4v4h41.2v-8.1h-28.1l27.8-39.3c.7-.9 1-2 1-3.1zM196.3 292.7h10.1v54.2h-10.1zM229 327.8h7.6c3.5 0 6.6-.4 9.2-1.3 2.6-.9 4.8-2.1 6.6-3.7 1.7-1.6 3.1-3.5 3.9-5.6.9-2.2 1.3-4.6 1.3-7.2 0-2.5-.4-4.8-1.2-7-.8-2.1-2.1-3.9-3.8-5.5-1.7-1.5-3.9-2.7-6.6-3.6-2.6-.8-5.8-1.3-9.4-1.3h-17.7v54.2H229v-19zm0-27.3h7.6c1.8 0 3.5.2 4.8.7 1.4.4 2.5 1.1 3.4 1.9.9.8 1.6 1.8 2 3 .5 1.2.7 2.5.7 3.9 0 1.5-.2 2.9-.7 4.1-.4 1.2-1.1 2.3-2 3.1-.9.9-2 1.5-3.4 2s-3 .7-4.8.7H229v-19.4zM279.8 89.2c.1.1.2.1.3.2-.1-.1-.2-.1-.3-.2z"/><path d="M337.7 375.9V158.5c0-3-1.3-5.6-3.4-7.4l-78.4-78.4c-1.8-1.9-4.4-3.1-7.2-3.1-5.5 0-9.9 4.4-9.9 9.9v77.8c-.1.4-.1.9-.1 1.3 0 4.1 2.5 7.7 6.1 9.1 1.2.5 2.5.8 3.9.8H318v198H80.5V89.3h95.1v3.2h.2v98.2c-.7 11.2-8.6 20.8-21.3 20.8h-4c-11.1 0-24.3-9-24.3-22.4v-76.3h-.2v-.3c0-5.2-4.3-9.4-9.7-9.4-5.3 0-9.7 4.2-9.7 9.4v76.6h-.2c0 24 20 43.5 44.7 43.5 24.7 0 44.7-19.5 44.7-43.5h-.2V92.5h.1v-3.2H209c5.5 0 9.9-4.4 9.9-9.9s-4.4-9.9-9.9-9.9h-13.2V44.4c-.2-16.6-13.6-30-30.2-30-16.7 0-30.3 13.6-30.3 30.3v24.8H71.6c-.4 0-.7-.1-1-.1-5.5 0-9.9 4.4-9.9 9.9v296.8c0 1 .2 2 .5 3 1.2 4.1 5 7 9.5 7h257.2c5.5 0 9.9-4.4 9.9-9.9-.1 0-.1-.2-.1-.3zm-79.1-227.2v-44.5l45.1 44.5h-45.1zm-93.1-114c5.6 0 10.1 4.5 10.1 10.1v24.8h-20.2V44.4c.2-5.4 4.6-9.7 10.1-9.7z"/></g></svg>