<svg xmlns="http://www.w3.org/2000/svg" width="400" height="400" viewBox="0 0 400 400"><path fill="#323232" d="M303.7 96.1c-22.5-34.7-60.9-55.5-102.9-55.5-21.2 0-42 5.5-60.2 16-38 21.9-58.2 55.2-60.2 99-1.1 24.7 4.6 50.1 17.6 77.7 20.5 43.6 51.1 83.1 96.3 124.1 2.5 2.3 4.6 3.3 6.8 3.3 2.3 0 4.6-1.1 7.5-3.7 37.8-33.6 66.3-68.2 87.1-105.7 11.9-21.5 26.2-53.5 26.4-83.9.1-29.4-5.5-51.4-18.4-71.3zm-2.1 72.8c-2.2 28.2-12.5 56-32.3 87.5-17.2 27.3-39.2 53.2-67.2 79.3-.3.2-.5.5-.9.8-38.5-37.7-76.5-80.5-94.4-137.2-9.9-31.4-8.5-58.7 4.2-83.5 15.1-29.3 39.2-46.9 71.6-52.5 7-1.2 14-1.8 20.6-1.8 27.7 0 51.8 10.4 71.8 31 20 20.5 29 46.3 26.6 76.4z"/><path fill="#323232" d="M201 101c-33.1 0-59.9 26.8-59.9 59.9 0 3.4.3 6.6.8 9.9v.1c0 1.4.3 2.7.8 3.9 1.5 3.6 5.1 6.1 9.2 6.1 5.5 0 10-4.5 10-10 0-.6-.1-1.1-.2-1.7 0-.2-.1-.3-.1-.5-.5-2.5-.7-5.1-.7-7.7 0-22.2 18-40.1 40.1-40.1s40.1 18 40.1 40.1c0 11.9-5.2 22.5-13.4 29.9-7.1 6.4-16.5 10.2-26.8 10.2-8.5 0-16.3-2.6-22.8-7.1-.6-.6-1.3-1.1-2.1-1.6-1.4-.8-3.1-1.3-4.8-1.3-5.5 0-10 4.5-10 10 0 2.8 1.2 5.4 3.1 7.2.6.6 1.3 1.1 2.1 1.5 9.8 6.9 21.7 11 34.6 11 33.1 0 59.9-26.8 59.9-59.9S234.1 101 201 101z"/></svg>