<svg xmlns="http://www.w3.org/2000/svg" width="400" height="400" viewBox="0 0 400 400"><g fill="#323232"><path d="M300.6 200.1c0 5.5-4.5 10-10 10h-181c-5.5 0-10-4.5-10-10s4.5-10 10-10h181c5.5 0 10 4.5 10 10z"/><path d="M352.7 152.2C326.3 67.9 236.5 20.9 152.2 47.3 67.9 73.7 20.9 163.5 47.3 247.8c1 3.2 2.1 6.3 3.3 9.3.1.2.1.4.2.6.1.1.1.3.2.4 2 4.6 7.2 7.1 12.1 5.5 5.3-1.6 8.2-7.3 6.6-12.5-.1-.3-.2-.7-.4-1-1.1-2.7-2-5.5-2.9-8.4-23.1-73.7 18-152.2 91.8-175.3 73.8-23.1 152.3 18 175.5 91.8s-18 152.3-91.8 175.4c-51.1 16-104.4 1.2-140.1-33.9l-.8-.8c-2.5-2.3-6.2-3.2-9.6-2.1-5.3 1.6-8.2 7.3-6.6 12.5.6 1.8 1.6 3.3 2.9 4.4 40.8 40.2 101.8 57.1 160.2 38.8 84.2-26.2 131.2-116 104.8-200.3z"/></g></svg>