<svg xmlns="http://www.w3.org/2000/svg" width="400" height="400" viewBox="0 0 400 400"><path fill="#323232" d="M319.5 220l.3-39.7c0-.5-.1-.9-.1-1.4-.5-5-4.8-8.9-10-8.9H99v-.5c1-55.3 45.6-99.8 101.5-99.5 44.3.2 81.8 29.4 94.8 69.6.5 5 4.8 8.9 10 8.9 5.5 0 10-4.5 10-10 0-1.8-.5-3.5-1.3-4.9-14.7-49.8-60.1-84-114.5-83.9-66 .1-119.7 54.7-119.7 121.2 0 2.6.1 5.1.3 8.1H80V236.3c0 .9.2 1.8.4 2.6l.3 3c6.3 60.8 57.6 108.5 119.4 108.4 66-.1 119.7-54.4 119.7-121 .1-3.2 0-6.3-.3-9.3zM199 330c-50.7-.2-91.7-38.1-98-87.4-.3-2-.7-4-1-6.1 0-.1-.1-.1-.1-.2V190h199.9l.4 44.5C298 288 253.6 330.2 199 330z"/><path fill="#323232" d="M250 210.8l-63.7 63.7-13.5-23.6c-2.8-4.8-9-6.2-13.9-3.2-4.8 3-6.4 9.3-3.7 14.1l19.2 33.6c.6 1 1.4 1.9 2.3 2.7.1.1.1.1.1.2 3.9 4.2 10.2 4.4 14.1.4l73.8-73.8c3.9-3.9 3.7-10.3-.4-14.1-4-4-10.4-3.9-14.3 0z"/></svg>