<svg xmlns="http://www.w3.org/2000/svg" width="400" height="400" viewBox="0 0 400 400"><path fill="#343433" d="M150.5 356.9c-1.6-1-3.5-1.7-4.8-3-5.1-5.3-2.7-13.7 4.5-15.4 14.5-3.4 29.1-6.5 43.6-9.7 5.8-1.3 11.5-2.6 17.4-3.9v-7.4C149 309.3 106.7 277 86.9 216.9c-15.5-65.3 4.9-117.1 58.4-156.7-1.1-2.1-2.6-4.5-3.6-7-1.5-3.7-.6-6.4 2.6-8.1 3-1.6 5.7-1.1 8 2 1.7 2.2 3 4.6 4.7 7.3 9.5-3.8 19-7.6 28.6-11.4h4.3c2.6 1.6 5.1 3.2 6.1 6.4 1.7 5.1-.3 9.7-5.3 11.8-7.2 2.9-14.3 6-21.5 8.8-15 5.7-27 15.5-37.6 27.2-17.4 19.1-27.2 41.7-30.5 67.2-6.4 50.1 22.4 101.9 68.5 122.8 34.8 15.7 69.6 15.6 104.1-.6 4.3-2 8.3-4.7 12.2-7.6 7.2-5.3 14.1-10.8 21.1-16.3 4.3-3.3 9.6-2.7 13.1 1.5s3 9.4-1.3 13c-3.7 3.1-7.5 6-11.2 9-3.7 3-7.5 6-11.3 9.1 1.4 2.9 3 5.7 4.2 8.5 1.2 2.8.5 5.2-2.1 7-3 2.1-5.8 1.9-8.1-1-1.9-2.4-3.4-5.1-5.2-7.9-16.8 8.6-34.7 13.8-53.8 15.2v7.9c8.2 1.9 16.4 3.7 24.7 5.6 11.4 2.5 22.9 5.1 34.4 7.6 5.3 1.2 8 3.8 8.5 8.3.5 4.5-1.7 7.9-6.6 10.2-.2.1-.3.3-.4.4-47.3-.2-94.4-.2-141.4-.2z"/><path fill="#343433" d="M315.4 150.3c-16.5-52.7-72.6-82.1-125.3-65.6S108 157.3 124.5 210c.6 2 1.3 3.9 2 5.8 0 .1.1.2.1.4 0 .1.1.2.1.3 1.3 2.9 4.5 4.4 7.6 3.5 3.3-1 5.1-4.5 4.1-7.8-.1-.2-.1-.4-.2-.6-.7-1.7-1.3-3.5-1.8-5.2-7.3-23.2-4.4-47.3 6.2-67.2-1 2.2-1.2 4.4-1.3 6 0 .8-.1 1.6-.2 2.3-.3 1.5.1 3.1 1.2 4.2-.3 1.4 0 2.8.7 4.5v.1c.7 3.6 5.8 6.8 5.9 6.8.9.5 2 .9 3 .9.1.1.1.2.2.3 1.2 1.8 3.1 2.5 4.2 2.8.2.4.4.8.6 1.1.1 1.1.4 2.5 1.5 3.8.4.5 1 .8 1.5 1.1.6.8 1.4 1.4 2.3 1.8l.2.2c.5.5 1.3 1.3 2.2 1.7.4.2.8.3 1.2.4-.4.4-.8.9-1.1 1.5-1.8 1.4-2.2 2.9-2.1 4 0 .1-.1.2-.1.3l-.1.3c-.8 2.1-.8 3.8-.2 5.3-1.1 3.6-.6 6.4 1.5 8.3 1.3 1.1 3.4 4.3 3.8 5.8 0 .2.1.3.2.5 1.7 4.6 4.5 7.6 8.9 9.9 1.5.8 2.2 1.8 2.2 3v1.7c0 1.8 0 3.8.8 5.8v.3c-.1 1-.3 2.5.3 4.1 0 .9.1 1.7.5 2.5.1.2.2.5.4.8.1.2.2.4.2.5 0 1 0 2.3.1 3.7-.2.8-.5 2.6.6 4.3.4.9 1.4 3.4 1.5 4 0 1 .4 1.9.9 2.7 0 .1.1.2.1.2 0 .1.1.2.1.2-.1 1.3.3 2.6 1.2 3.6.2.6.4 1.1.7 1.5 1 1.4 2.2 2.6 3.2 3.6l.1.1.9.9c2.5 2.6 5.9 3 8 3.2.4 0 .7.1 1 .1.4.1.9.2 1.3.2h.3c.8 0 1.6-.2 2.3-.5h.1c1.7-.5 3-1.8 3.4-3.5.4-1.7-.3-3.5-1.6-4.6-.8-.6-1.6-1-2.4-1.2.3-.8.4-1.7.3-2.6-.1-.5-.3-1.2-.7-1.9.4-.6.7-1.3.7-2.1.1-.2.3-.5.3-.7 2.2-.5 3.8-1.5 4.9-3 .4-.7.8-1.4.9-2.2.6-.3 1.2-.8 1.7-1.3 0-.1.1-.1.1-.2.7-.8 1.4-1.7 1.9-2.8.5-.7 2.6-3.4 2.9-3.9 1.7-2 1.9-4.2 2-5.4.6-.5 1.3-.8 2.3-1.2.2-.1.5-.2.9-.4.1 0 .2-.1.3-.2h.5c4.2 0 5.7-3.4 6.4-4.8.1-.1.3-.5.4-.7 2.5-2.2 2.6-5.7 2.7-9.2 0-.5 0-1.1.1-1.7.8-.7 1.7-1.7 3.1-3.3.4-.5.8-.9 1.1-1.3 2.3-2.5 3-5.8 2-9.3-.9-3.2-2.7-4.8-5.7-5.1-.2-.2-.5-.4-.7-.6-1.1-1-2.9-2.6-5.5-2.9-.8-.1-1.6-.1-2.3-.1h-.5c-.4-.2-1-.4-1.7-.5-1.3-1.2-3.6-2-5.2-2.3-.3-.1-.7-.2-1.1-.2-.2-.2-.5-.3-.7-.4v-.1c-.2-.6-.5-1.1-.7-1.7-.7-1.5-1.3-2.7-2.1-3.5-2-3.4-7-4.8-9.3-4.8-.4 0-.9 0-1.3.1-.3-.6-.9-1.6-2.1-2.5 0-1.7-.9-3.2-2.4-4.2-.8-.5-1.8-.8-2.8-.7-.3 0-.6.1-.9.2-.3 0-.6 0-1 .1h-.1c-1.4-.1-2.6 0-3.7.4-.5-.2-1-.3-1.5-.3-.2-.2-.4-.3-.7-.5-.1-.1-.3-.1-.4-.2-.1 0-.1-.1-.2-.1l-.1-.1c-1.9 0-3.7.1-5.6.3-2 .1-3.7.6-5.3 1.3-.1.1-.3.2-.5.2-.5.3-1 .5-1.5.8-.9-.2-1.9-.3-2.9-.3.3-.6.8-1.3 1.4-2 .1-.1.1-.2.2-.3-.2-.6 0-1.4.5-1.9l.1-.1c.2-.2.5-.4.8-.6.1-.2.2-.4.4-.5.6-1.8 1.9-3.1 3.4-4.6 2.7-2.7 3.1-6.1 3.1-9.8v-.1c-.3-.9-.9-1.7-1.6-2.2.3-1.6.5-2.3.6-2.5 1.1-.9 2.4-1.7 3.6-2.4l.2-.1c1.6-.8 3.1-1.7 3.9-3.3.2-.4.4-.9.5-1.4 0-.1.1-.2.1-.3.5-.5.9-1 1.3-1.7.8-.4 1.7-.9 2.3-1.4.6-.1 1.4-.3 2.3-.8.8-.4 1.4-1.1 1.9-1.8 1.4.5 3 .4 4.3-.4.2-.1.7-.2 1.5-.5 2.1-.6 4.3-1.3 5.9-2.8.6.2 1.1.2 1.7.2.6.3 1.3.4 2 .4 1.9 0 4.4-1.2 5.1-4.5.2-.6.3-1.2.2-1.9.1-.9-.1-1.8-.5-2.6-.1-.2-.2-.4-.4-.6-.2-.4-.4-.8-.7-1.1.1-.9 0-1.8-.4-2.7-.3-.6-.7-1.2-1.2-1.7-.5-.9-1.3-1.6-2.2-2h-.1c.5-.2.9-.4 1.4-.7.3.5.7 1 1.1 1.4 1.2 1.5 5.2 3.5 7.8 3.5 1.8 0 3.5-.8 4.4-2.3.4-.7.9-1.4 1.3-2.2.8-.2 1.7-.5 2.6-1.1.1-.1.5-.2.9-.3.6.7 1.4 1.1 2.2 1.4l.1.1c.1 0 .2.1.3.1 1.2.9 2.7 1.4 4.3 1.4 1.8 0 3.4-.6 4.5-1.1 2.6-1.2 3.4-3.7 2.9-5.6-.2-1-.8-2.1-2.1-3 .6-.8.9-1.7 1-2.5v-.2c.6.2 1.2.3 1.8.5l-.1.1c-1.5 2-1 4.9 1 6.5.1.1.3.2.4.3l.2.2c-1.2.8-2.1 2-2.2 3.5-.2 1.4.3 2.5.8 3.4-.1.3-.1.6-.1.8 0 1.3.5 2.5 1.5 3.4.3.8.8 1.5 1.4 2.1 1.3 1.2 3.2 1.8 5 1.6.3.3.6.5 1 .7 0 .1.1.1.1.2-.2.3-.3.5-.4.7-.6 1.2-1.1 3.2.5 5.7.2.7.6 1.2.8 1.6 0 1.2.4 2.7 1.9 4.1.5 1 1.1 1.8 2 2.4-.1.2-.1.3-.2.5-.4 1.5-.2 2.7 0 3.7-.9.6-2 1.7-2.5 3.4-.6.8-1.3 1.9-1.3 3.7-2.6 3.9-1.1 7.9-.3 10 .3.7.7 1.8.6 2.1l-.1.6c-.5 2.3-.7 3.9.5 6.5.4 3.1 1.6 5 3.6 5.8.5.6 1.1 1 1.5 1.3.1 0 .1.1.2.2 1 3.1 3.4 4.8 5.1 5.9l.1.1c.3.2.6.4 1 .7.1.1.2.2.4.3l.1.1c.5.5 1.3 1.2 2.4 1.7 1 .5 2 .8 3.1.8 1.7 0 3-.6 3.7-1 .1-.1.4-.2.4-.2h.4c.6.3 1.4.5 2.2.5 1.5 0 2.8-.6 4.5-1.6.1-.1.2-.1.4-.2.9 1.2 2.1 1.9 3.6 2.2v.2c-2.6 3.2 0 7.5 1.2 9.3l.2.3c.7 1.4 1.2 3.7 1.1 4.5-.1.8-.1 1.7-.1 2.5 0 1 0 1.5-.1 1.7-.8 1.3-1.4 2.6-1.9 3.8l-.1.1c-.2.4-.3.8-.5 1.1-1.5 3.2-1.5 6.3-1.4 9.1 0 1.8 0 3.6-.4 4.8-.9 2-1.1 4-1.3 5.7-.1.8-.2 1.5-.3 2.2 0 .1-.2.4-.4.8-.8 1.7-2.3 4.6-.8 7.7.6 1.3 1.9 2.3 3.3 2.6.3.1.6.1.9.1h.6c-10.3 12.2-24.1 21.7-40.5 26.8-31.9 10-65.3.8-87.6-21.2l-.5-.5c-1.6-1.4-3.9-2-6-1.3-3.3 1-5.1 4.5-4.1 7.8.3 1.1 1 2 1.8 2.8 25.5 25.1 63.6 35.7 100.2 24.3 52.3-16.3 81.7-72.4 65.1-125.1zm-143.7 35c0-.1.1-.2.1-.3.6-.6 1-1.2 1.3-1.8l.2-.2c.8-.9 3.3-3.7 2.2-6.7.1-.6.3-1.4.3-2.2.1-.2.3-.4.4-.6.9.6 1.9.9 3 .9 1.5 0 2.8-.6 3.8-1.6h.1c.1 0 .3.1.4.1.2 0 .4.1.6.1h.3c.6 0 1.2-.1 1.7-.3 1.3.4 2.7.4 3.9 0 .5.9 1.4 1.9 3 2.5.2.4.5.8 1 1.3s3.2 3.2 6.5 3.2c.7 0 1.3-.1 1.9-.3.3.1.6.2.9.4.3.5.6.9 1 1.3.3.5.7 1.3.9 1.8.1.4.2.9.4 1.3.5 1.2 1.7 2.6 3 3.5.9 1.6 2.5 2.5 4.3 2.5.4 0 .8-.1 1.2-.2.3.6.6 1.2 1.1 1.6l.1.1c.1.1.1.1.3.2.1 0 .1.1.3.2l.1.1c.3.2.6.3 1 .5 1.1.4 2.2.3 3.3-.1 1 .3 2.1.4 3.5.3h.4c.2.2.6.5.8.7.6.5 1.3 1.2 2.3 1.7.3.2.6.3.9.5-.3.3-.6.6-.9 1-.4.5-1.7 2-2.3 2.5-3 1.6-3.1 5.1-3.2 8.4-.1 1.8-.1 2.7-.2 3.1-.8.9-1.3 1.8-1.7 2.5-1.1.2-2.2.7-3.2 1.1l-.2.1c-.1 0-.1.1-.2.1-2.3.9-4.2 2.1-5.8 3.6-2 1.9-2.2 4.3-2.3 5.6v.4c-.5.6-1.3 1.7-2 2.6-.4.2-.8.5-1.2.9l-.1.1c-.4.4-.8.8-1.1 1.3-.4-.2-.9-.3-1.4-.4-2.3-.4-4.4 1-5.1 3.1-.3.9-.3 1.9-.1 2.8-1.3.4-2.4 1.2-2.9 2.4-.6.3-1.1.6-1.6 1.1-.2.2-.4.5-.6.8-.4-.5-.8-1-1.4-1.3-.1-.3-.2-.6-.3-.8 0-.4.1-.7 0-1-.1-1.1-.1-2.6-.1-4.1 0-1.4-.5-2.7-1-3.8 0-.9-.1-1.7-.5-2.5v-.1c.1-1.1.3-2.8-.5-4.6-.2-.4-.2-1.8-.2-2.7v-1.7c0-4.8-2.6-8.8-7.2-11.2-2.3-1.2-3.5-2.5-4.4-4.7-.8-2.8-2.9-6.5-5.2-8.9.1-.3.3-.8.5-1.4 1-2.3.5-3.9-.1-4.8zm-4.7-30.4c-4.1-1.6-8.5-.5-12.3 2.3 1-4.2 1.7-8.2 2.3-11.6 0-.2.1-.5.1-.8.8-1 1.5-1.8 2.1-2.7 3.4 2.9 7.1 4.5 10.4 4.5 1.8 0 3.6-.4 5.3-1.3-2.9 2.4-5.5 5.6-7.9 9.6zm9.8-25.8c0 .1-.1.2-.1.3-1.7 1-3.4 2.1-5 3.4-.6.5-1.1 1-1.5 1.7-.3 0-.6 0-.9.1-.5-.2-1.2-.4-2-.4-.8-.1-1.5-.1-2-.1-1.3 0-2.5.3-3.4.8-.3 0-.6.1-.9.1-1.4-.2-2.8.2-3.9 1.2l-.6.6c-.2.1-.5.3-1 .6-.3.2-.6.4-.8.5-.1 0-.1.1-.2.2-.3.3-.6.6-.8.9.2-1.2.3-2.4.2-3.4.2-.8.4-1.5.4-2.2 1.1-2.1 7-9.4 9.8-12.2 1.9-1.9 3.6-3.5 5.2-4.9.1.5.3.9.6 1.3.1.1.1.2.2.3-.1.4-.1.7-.1 1.1 0 .7.2 1.3.5 1.9-.6 1.2-1 2.2-1 3-.1 1.5.4 2.9 1.4 4 .9.9 2.1 1.3 3.3 1.3.5 0 1-.1 1.5-.2.4-.2.7 0 1.1.1zm88-14.2c.5-.1 1-.2 1.4-.4.2 0 .4 0 .6-.1 1-.2 2-.7 2.7-1.4.4.3.9.6 1.3 1-1.3.2-2.4 1-3.1 2.1-.3.2-.5.3-.7.5l-.3.3c-.1 0-.3 0-.4.1-.4-.6-.9-1.1-1.5-1.6v-.5zm36.8 62v.1c-.2.5-.5 1.5-.4 2.8-.6 1.3-.5 2.5-.5 2.9 0 .6.2 1.1.4 1.6-.2.4-.4.9-.5 1.3-.4 2-.4 4.1-.4 5.8V192.3c-.7.9-1 2.1-1 3.5s.6 2.6 1.6 3.5c-.1.6-.2 1.3-.3 2-2.4 1.7-2.3 3.9-2 5.1.1.6.4 1.1.7 1.6-.4.9-.7 1.7-1.1 2.6-.7 1.7-1.3 3.2-2 4.7-.1.1-.3.4-.5.6-.4.5-1.1 1.3-1.6 2.2.3-1.9.3-3.7.3-5.3 0-1.9 0-3.8.6-5.1.2-.5.4-1 .6-1.4v-.1c.4-1 .8-1.9 1.3-2.7 1.4-2.1 1.4-4.7 1.4-6.4v-1.3c.5-3.3-.7-7.4-1.9-9.9-.1-.2-.3-.6-.6-1.1-.1-.2-.3-.4-.4-.7.8-2.2.7-4.7.5-6.1-.6-4.6-2.6-6.4-4.2-7.1-.6-.3-1.3-.4-1.9-.5-.6-.9-1.4-1.6-2.4-2.1-.8-.4-1.6-.6-2.5-.6-2 0-3.9.9-6.4 2.2l-.1.1c-.1 0-.2.1-.3.1-1.6-.4-3.4-.3-4.9.1-.5.1-.9.3-1.2.4-.2-.2-.4-.3-.6-.5-.5-.4-.9-.7-1.5-1.1-.4-.3-1.3-.9-1.5-1.2-.6-2.4-2.3-3.7-3.3-4.6 0 0-.1-.1-.2-.1-.3-.9-.9-1.8-1.8-2.4l-.3-.9c-.1-.1-.1-.3-.1-.3 0-.1.1-.4.2-.8l.1-.6c.6-2.9-.4-5.6-1-7.3-.3-.8-.5-1.4-.5-1.6l.1-.1c.9-1 1.4-2.3 1.5-3.7.3-.4.5-.8.6-1.3.9-.6 2.2-1.6 2.9-3.4.6-1.7.4-3.3.2-4.4l.2-.2c2 .1 3.8-.7 5-2.3.2-.1.4-.1.8-.3.2 0 .3-.1.4-.1.2 0 .7-.1 1.3-.2.1.6.4 1.1.6 1.6 1.5 2.4 4.3 3.1 6.1 3.5.6.6 1.7 1.6 3.4 2l.9.6c.8.5 1.6.7 2.5.7 1.3 0 2.5-.5 3.4-1.4.2 0 .3.1.5.1.1 0 .3.1.4.1.4 1.9 1.8 4.1 3.8 7.4.3.5.9 1.4 1.1 1.8l.3.6c.4 1 .9 2 1.3 3l.1.1c1.2 2.6 2.4 5.4 3.4 8.1l.3.6.1.4c.3 1.3.7 2.6 1 3.8.5 2.4.7 4.8.9 7.2-1.4.8-2.5 2-2.9 3.5z"/></svg>