<svg width="400" height="400" viewBox="0 0 400 400" xmlns="http://www.w3.org/2000/svg"><title>icon-weird</title><path d="M335.906 324.34l.012.168-31.476 8.752c-4.1 2.255-9.352 1.38-12.473-2.34-3.55-4.231-2.998-10.539 1.233-14.089a9.959 9.959 0 0 1 6.327-2.34l14.246-4.009-55.65-46.696c-11.006 13.27-27.62 21.722-46.207 21.722-29.791 0-54.511-21.712-59.2-50.176h-71.97l8.754 13.482a9.96 9.96 0 0 1 2.416 6.518c0 5.523-4.477 10-10 10a9.996 9.996 0 0 1-8.63-4.947l-19.364-29.044a9.956 9.956 0 0 1-2.006-6.009c0-.876.113-1.725.324-2.535l-.326-.205.87-1.34a10.01 10.01 0 0 1 1.682-2.59l19.233-29.617.332.312a9.983 9.983 0 0 1 7.885-3.849c5.523 0 10 4.477 10 10a9.976 9.976 0 0 1-3.38 7.496l.204.192-8.09 12.136h72.126c4.278-25.041 24.073-44.788 49.139-48.994V94.336l-13.477 8.752a9.96 9.96 0 0 1-6.522 2.42c-5.523 0-10-4.477-10-10a9.996 9.996 0 0 1 4.945-8.63l29.035-19.357a9.955 9.955 0 0 1 6.018-2.013c2.595 0 4.959.988 6.736 2.609l28.141 18.76a9.996 9.996 0 0 1 4.945 8.631c0 5.523-4.477 10-10 10a9.96 9.96 0 0 1-6.522-2.42l-13.3-8.637v71.886c28.378 4.76 50.002 29.44 50.002 59.171 0 7.266-1.291 14.23-3.657 20.676l57.864 48.554 1.96-15.955a9.96 9.96 0 0 1 2.338-6.547c3.55-4.23 9.858-4.783 14.089-1.233a9.996 9.996 0 0 1 3.432 9.338l-3.837 34.696a9.956 9.956 0 0 1-2.325 5.892 9.96 9.96 0 0 1-5.876 3.412zM211.77 265.36c22.091 0 40-17.909 40-40 0-22.092-17.909-40-40-40s-40 17.908-40 40c0 22.091 17.909 40 40 40z" fill="#333" fill-rule="evenodd"/></svg>