<svg xmlns="http://www.w3.org/2000/svg" width="400" height="400" viewBox="0 0 400 400"><path fill="#333" d="M285.7 96l27.6-27.6c3.9-3.9 3.9-10.2 0-14.1-3.9-3.9-10.2-3.9-14.1 0l-27.6 27.6c-3.9 3.9-3.9 10.2 0 14.1 3.8 3.9 10.2 3.9 14.1 0zM338.1 219.8l-33.8-19.5c-4.8-2.8-10.9-1.1-13.7 3.7-2.8 4.8-1.1 10.9 3.7 13.7l33.8 19.5c4.8 2.8 10.9 1.1 13.7-3.7 2.7-4.8 1.1-10.9-3.7-13.7zM350.2 133.3c-1.2-5.4-6.6-8.8-12-7.5l-38 8.7c-5.4 1.2-8.8 6.6-7.5 12 1.2 5.4 6.6 8.8 12 7.5l38-8.7c5.3-1.2 8.7-6.6 7.5-12zM287.9 266.7v-.4c0-.3-.1-.6-.1-.9l-3.3-16.4-30.1-184.4-2.6-13.2c.3-2.1-.1-4.4-1.2-6.4-1.9-3.4-5.5-5.2-9.1-5h-.1c-.6 0-1.3.1-1.9.2-1.9.4-3.5 1.3-4.8 2.5l-97.1 55.8c-2.9-.3-5.8-.5-8.7-.5C84.8 98 49 133.8 49 177.9c0 29 15.4 54.4 38.5 68.4.2.8.5 1.6 1 2.3l39.3 102.2.6.9c.8 4.7 4.9 8.3 9.9 8.3h40.1c.2 0 .3 0 .5-.1.2 0 .3-.1.5-.1.1 0 .2-.1.4-.1.2-.1.4-.1.6-.2.1 0 .2-.1.2-.1.2-.1.5-.2.7-.3.1 0 .1-.1.2-.1.2-.1.5-.2.7-.4h.1c.1 0 .1-.1.2-.1.2-.1.4-.2.6-.4.1-.1.2-.1.3-.2.2-.1.3-.2.5-.4l.3-.3.4-.4c.1-.1.2-.2.3-.4.1-.1.2-.2.3-.4.1-.1.2-.2.3-.4.1-.1.2-.3.3-.4.1-.1.1-.2.2-.3.1-.2.2-.3.3-.5.1-.1.1-.2.1-.3l.3-.6c0-.1.1-.2.1-.3.1-.2.1-.4.2-.6 0-.1.1-.2.1-.3.1-.2.1-.4.1-.6 0-.1 0-.2.1-.4 0-.2.1-.4.1-.6v-.5-.4-.1-.5-.5c0-.2 0-.3-.1-.5 0-.2-.1-.3-.1-.5 0-.1-.1-.3-.1-.4-.1-.2-.1-.4-.2-.6 0-.1-.1-.2-.1-.3-.1-.2-.2-.4-.3-.7 0-.1-.1-.2-.1-.2l-.3-.6v-.1l-27.3-69.2c-2.8-4.8-8.9-6.4-13.7-3.7-4.8 2.8-6.4 8.9-3.7 13.7l21.4 54.2H145l-32.2-83.9c5.3 1.1 10.8 1.7 16.4 1.7 13.8 0 26.8-3.5 38.1-9.7l108.6 29.4c5.3 1.4 10.8-1.7 12.3-7 .3-1.2.4-2.4.3-3.6-.6.2-.6.1-.6 0zm-159.2-29.5c-32.8 0-59.3-26.5-59.3-59.3s26.5-59.3 59.3-59.3h1.7L152.9 232c-7.4 3.3-15.6 5.2-24.2 5.2zm44-8.2l-1.9-9.4-19.1-96.4-1.8-8.9L234.1 66l31.3 188.1-92.7-25.1z"/><path fill="#333" d="M124.8 208.5C114 196 109 179.8 110.6 163.4c.6-6.5 4.8-14.5-.3-20.2-3.7-4.1-10-4.5-14.1-.8-1.6 1.4-2.5 3.4-3.2 5.4-.8 2.2-1.3 4.5-1.7 6.3-1.2 5.8-1.5 11.7-1.3 17.6.3 11.4 3.1 23 8.2 33.2.7 1.5 10.5 16.9 11 16.5l.1-.1c3.7 3.7 9.7 3.9 13.7.4 3.8-3.4 4.4-9 1.6-13.1.1 0 .1 0 .2-.1z"/></svg>