<svg xmlns="http://www.w3.org/2000/svg" width="400" height="400" viewBox="0 0 400 400"><path fill="#323232" d="M130.2 270.1c.4 1.8.6 5 .7 6.9-.6 11.9-8.4 22-19.3 26.1-1.8.2-3.4.8-4.8 1.8-2.9 2-4.9 5.3-4.9 9.1 0 5.2 3.5 9.5 8.3 10.7 3.3-.4 6.4-1 9.4-2 .7-.5 1.3-1.1 1.8-1.8 16.9-7.3 29-23.4 30.3-42.4l.1-.3v-.2-1.5-1.3l-.1.1c-.2-3-.6-5.9-1.3-8.8-2.1-2.8-5.4-4.6-9.2-4.6-5.4.1-10 2.8-11 8.2zM291.7 303.1c-1.8.2-3.4.8-4.8 1.8-2.9 2-4.9 5.3-4.9 9.1 0 5.2 3.5 9.5 8.3 10.7 3.3-.4 6.4-1 9.4-2 .7-.5 1.3-1.1 1.8-1.8 16.9-7.3 29-23.4 30.3-42.4l.1-.3v-.2-1.5-1.3l-.1.1c-.2-3-.6-5.9-1.3-8.8-2.1-2.8-5.4-4.6-9.2-4.6-5.7 0-10.3 2.7-11.2 8.1.4 1.8.6 5 .7 6.9-.4 12-8.3 22.1-19.1 26.2z"/><path fill="#323232" d="M358.5 272.6c.3-1.3.4-2.8.1-4.2L324.7 90.8c-.2-.8-.4-1.6-.8-2.4-2.8-15.6-12-28.7-26-35.5-.5-.7-2.6-1.6-3.2-2.1-2.9-1.1-6-1.9-9.2-2.4-4.7 1-8.3 5.2-8.4 10.3-.1 3.8 1.7 7.2 4.5 9.3 1.3 1 2.9 1.7 4.6 2 10.5 4.5 17.8 14.9 18 26.9-.1.9.6 2.3 1.4 3.8L329 223.4c-11.2-7.8-24.9-12.4-39.7-12.4-14 0-26.1 2.9-37 10.1-1 .7-2 1.3-3 1.9-1.2.5-2.2 1.3-3.1 2.1-.4.3-.8.6-1.2 1-.9 1.6-2.1 5-2.1 6.9 0 6.1 4.2 10.8 10.2 10.8.8 0 3-.3 3.8-.4 2.3-2 4-3.5 6.7-5.1 7.5-4.6 16.4-7.3 25.8-7.3 27.3 0 49.5 22.2 49.5 49.5S316.8 330 289.5 330c-27.2 0-48.7-22.7-48.9-49.9l-.5.3c.6-1.7.9-3.5.9-5.4 0-1-.1-2.1-.3-3.1-.5 2.8-.7 5.6-.7 8.6 0-2.9-.2-6.3.3-9.1-1.1-6.3-5.1-10.9-11.1-13.2l-1.5-.8c-.8-.3-1.8-1.1-2.6-1.1-15.3-9.7-34.4-10-50.8-.8-10-26.1-35.3-44.5-64.9-44.5-14.7 0-28.4 4.6-39.7 12.4l23.4-122.7c.7-1.5 1.5-2.9 1.4-3.8.2-12 7.6-22.4 18-26.9 1.7-.3 3.3-1 4.6-2 2.8-2.1 4.6-5.5 4.5-9.3-.2-5.2-3.7-9.3-8.4-10.3-3.2.5-6.2 1.3-9.2 2.4-.6.6-2.7 1.4-3.2 2.1-14 6.8-23.2 19.8-26 35.5-.4.7-.6 1.5-.8 2.4L40.3 268.3c-.3 1.5-.2 2.9.1 4.2-.3 2.6-.5 5.2-.5 7.9 0 38.4 31.1 69.5 69.5 69.5s69.5-31.1 69.5-69.5c0-.7 0-1.5-.1-2.2 1.2-1.3 3.8-3.3 5.3-4.4 10.3-6.2 23-5.4 32.5 1.2 1 1.1 2.1 2 3.4 2.6 0 .9-.1 1.8-.1 2.8 0 4.2.4 8.4 1.1 12.4 5.9 32.4 34.3 57.1 68.4 57.1 38.4 0 69.5-31.1 69.5-69.5.1-2.6-.1-5.2-.4-7.8zm-249 57.4C82.2 330 60 307.8 60 280.5S82.2 231 109.5 231s49.5 22.2 49.5 49.5-22.2 49.5-49.5 49.5z"/></svg>