<svg xmlns="http://www.w3.org/2000/svg" width="400" height="400" viewBox="0 0 400 400"><g fill="#323232"><path d="M43.4 128.6l13.4 6.8c4.9 2.5 11 .5 13.4-4.4 2.5-4.9.5-11-4.4-13.4l-13.4-6.8c-4.9-2.5-11-.5-13.4 4.4-2.4 4.9-.5 10.9 4.4 13.4zM126.4 76c.5 5.5 5.3 9.6 10.8 9.1 5.5-.5 9.6-5.3 9.1-10.8l-1.3-15c-.5-5.5-5.3-9.6-10.8-9.1-5.5.5-9.6 5.3-9.1 10.8l1.3 15zM214.7 101.5c4.7 2.9 10.9 1.5 13.8-3.2l7.9-12.8c2.9-4.7 1.5-10.9-3.2-13.8-4.7-2.9-10.9-1.5-13.8 3.2l-8 12.8c-2.8 4.7-1.4 10.9 3.3 13.8zM345.4 262.5c5.4-9.8 8.6-21 8.6-33 0-37.6-30.4-68-68-68-17.8 0-33.9 6.8-46 17.9-1.4 1.3-2.8 2.5-4 4-1.2 1.4-1.6 3.2-1.6 5 0 5.5 4.5 10 10 10 1.5 0 3-.4 4.4-1 2.4-1.3 4.3-3.7 6.4-5.4 2.1-1.7 4.3-3.3 6.7-4.7 4.8-2.8 10.1-4.7 15.5-5.7 2.9-.5 5.8-.8 8.7-.8 26.9 0 48.6 21.8 48.6 48.6 0 8.4-2.1 16.2-5.8 23.1h-.1c-3 6.1-7.3 11.4-12.5 15.7 14.4 2.5 25.3 14.9 25.7 29.9v1.6c0 15.2-11.3 27.8-26 29.7-1.7.3-3.4.4-5.1.4H112.4c-5.5 0-11 0-16.4-1.4-4.6-1.2-9.1-3.1-13.2-5.6-8.1-5-14.6-12.3-18.5-20.9-.8-1.7-1.4-3.4-2-5.1-.5-1.6-1.4-3.7-1.4-5.4-.6-3.1-1-6.3-1-9.6 0-21.8 14.3-40.3 34.2-46.1-3.3-5.8-5.8-12.4-7.4-19.2v-.1c-2.3-10.1-2.3-20.7.4-31.5 9-36.4 45.9-58.7 82.4-49.6 5.1 1.3 10.1 3.1 14.8 5.5 4.6 2.3 8.8 5.2 12.8 8.5 3.8 3.3 7.3 7 10.4 11 1.7 2.2 3.2 4.5 4.6 6.9 1.4 2.5 2.4 5.4 4 7.7 1.4 2 3.5 3.5 6 4.1 5.5 1.4 11.1-2 12.5-7.5.7-3-.2-5.8-1.5-8.5-1.1-2.3-2.3-4.5-3.6-6.6-2.6-4.3-5.5-8.5-8.7-12.3a91.8 91.8 0 0 0-10.8-10.8c-3.9-3.3-8.1-6.3-12.6-8.9-4.5-2.6-9.3-4.8-14.2-6.6-2.8-1-5.7-1.9-8.6-2.6C127 103.6 78.9 132.5 67.1 180c-4 16-3.3 32 1.1 46.8C51.1 239.1 40 259.2 40 281.9c0 37.6 30.4 68 68 68 1.1 0 2.2 0 3.3-.1h197.8c.9.1 1.9.1 2.8.1 27.7 0 50.1-22.4 50.1-50.1 0-14.9-6.4-28.2-16.6-37.3z"/></g></svg>