<svg xmlns="http://www.w3.org/2000/svg" width="400" height="400" viewBox="0 0 400 400"><path fill-rule="evenodd" clip-rule="evenodd" fill="#333" d="M292.1 68.5v-.1c0-.1 0-.2-.1-.4-.9-4.3-4.1-7.6-8.8-7.6h-162c-5.5 0-10 4.5-10 10s4.5 10 10 10h151.6v228.2l-64.9-49.2c-2.1-1.3-4.5-1.7-6.8-1.4-2.3-.3-4.7.1-6.8 1.4l-64.8 49.1V108.2c0-5.4-4.3-9.7-9.7-9.7s-9.7 6.3-9.7 11.7v216.5c-.2 1.5-.1 3.1.4 4.6v.1c0 .1.1.2.1.2 1.3 3.8 4.9 6.5 9.2 6.5 1.2 0 2.3-.2 3.3-.6.7-.2 1.5-.6 2.1-1l75.9-57.4 75.9 57.4c1.7 1 3.5 1.5 5.4 1.5h.2c5.4 0 9.7-4.3 9.7-9.7V70.1c0-.5-.1-1.1-.2-1.6z"/></svg>