<svg xmlns="http://www.w3.org/2000/svg" width="400" height="400" viewBox="0 0 400 400"><circle fill-rule="evenodd" clip-rule="evenodd" fill="#333" cx="119.7" cy="170" r="10"/><circle fill-rule="evenodd" clip-rule="evenodd" fill="#333" cx="279.7" cy="170" r="10"/><circle fill-rule="evenodd" clip-rule="evenodd" fill="#333" cx="199.8" cy="170" r="10"/><path fill-rule="evenodd" clip-rule="evenodd" fill="#333" d="M351.1 50.1c-.4-.1-1-.1-1.4-.1H50c-5.5 0-10 4.5-10 10v220c0 5.5 4.5 10.1 10 10.1h120c5.5 0 10-4.5 10-10s-4.5-10-10-10H60V70h280v200H229.7c-3.1 0-5.8 1.3-7.6 3.5-.1.1-.2.1-.3.2L162.5 333c-3.9 3.9-3.9 10.2 0 14.1s10.2 4 14.1.1l57.2-57.2h115.7c2.8 0 5.3-1.2 7.1-3 1.8-1.8 3.2-4.4 3.2-7.2 0-.5.1-1 .1-1.4V62.9c0-.9.2-1.9.2-2.9.1-5.2-3.9-9.4-9-9.9z"/></svg>