<svg xmlns="http://www.w3.org/2000/svg" width="400" height="400" viewBox="0 0 400 400"><path fill="#333" d="M119.7 160c0-8.1 1.2-15.9 3.5-23.3 4.5-14.8 13.2-27.8 24.7-37.5C161.9 87.3 180.1 80 200 80c14.4 0 28 3.8 39.6 10.4 11.7 6.6 21.6 16.2 28.7 27.6l33.4-22.2c-.6-1-1.2-1.9-1.9-2.9s-1.3-1.9-2-2.9c-21.9-30.3-57.5-50-97.8-50-20.3 0-39.4 5-56.2 13.8-23.2 12.2-41.8 31.7-53 55.4-4.5 9.6-7.8 19.9-9.6 30.6-1.1 6.6-1.7 13.3-1.7 20.2 0 17.2 8.2 39.1 20.2 61.9 1 2 2.2 4 3.3 6l31.8-21.1c-9.5-13.2-15.1-29.3-15.1-46.8zm81-12.8l-8.4 1.2c4.1-8.4 4.6-8.5 15.3-2.5l-2.5-5 16 9.5c-3.6 4.7-15.8 3.1-20.4-3.2zm-33-29.7c19.4-15.5 49.7-15.7 66.3-.6-11.7 5.2-26.3-5-37.4 7l9.3 4.3 2.6-6.5c1 .9 2.3 2.1 5.5 5-5 1.2-8.3 2.5-11.6 2.5-4.5.1-12.1 7-11.3 11.6-4.8-.1-6.9 1.5-4.9 6.8.6 1.7-1.3 4.8-2.8 6.6-5.5 7-5.8 15.4.3 20.4 2 1.6 5.1 2.6 7.7 2.6 8.9.2 12.2 3.4 11.9 12.2-.1 1.2-.8 2.6-.4 3.5 1.7 3.5 3.2 7.8 6.1 9.9 1.3.9 6.7-2 8.8-4.4 3.6-4.2 10-7.2 8.2-14.8-.2-1 2.5-2.7 3.6-4.2 1.8-2.6 3.3-5.3 4.8-9-5.6 2.9-7.7 1.1-8.2-5 1.7 1.9 2.7 3 3.9 4.4L242 162l-10.1-5.6c11.6.5 17.8 5 18.8 16l6.9-10.8c2.1 20-11.2 41.3-30.4 50.9-21.6 10.8-45.6 7.3-63.4-8.9l4-8.8c-7.3-6.8-13.9-12.7-20.2-19.1-4.5-4.6-3-20.5 2.5-24.3 4.7-3.2 5.8-6.4 4.3-12-1-3.7.9-8.1 1.5-12.2.9 0 1.8 0 2.7.1l2 6.8c2.5-5.8 12.5-8 7.1-16.6zm99.5 44.9c.2-35.9-28.8-65.3-64.8-65.7-35.7-.3-65.8 28.7-66.1 63.7-.2 37.4 28 66.6 64.8 67.2 36 .6 65.8-28.9 66.1-65.2zm1.2-44.4a79.2 79.2 0 0 1 12 42v1.4c-.3 15.6-5 30.2-13.1 42.4a80.263 80.263 0 0 1-67.2 36.2c-23.5 0-44.6-10-59.3-26-2.1-2.3-4.1-4.7-5.9-7.2l-31.8 21.1c5.6 10.2 11.9 20.5 18.6 30.6 15.4 23.6 32.6 46.2 46.9 64.1 17.9 22.4 31.5 37.4 31.5 37.4s16.4-18.2 37.1-44.5c6.1-7.7 12.5-16.1 19-24.9 18.8-25.6 38.1-54.8 50.6-81.6 4.8-10.4 8.7-20.4 11.1-29.6 1.8-6.9 2.8-13.4 2.8-19.4 0-23.6-6.9-45.6-18.7-64.2L268.4 118z"/></svg>