<svg xmlns="http://www.w3.org/2000/svg" width="400" height="400" viewBox="0 0 400 400"><g fill-rule="evenodd" clip-rule="evenodd" fill="#333"><path d="M310.3 81c-.1 0-.1 0 0 0-.1 0-.1 0 0 0h-260-.2c-5.5 0-10 4.5-10 10v200c0 5.5 4.5 10.1 10 10.1H128c5.5 0 10-4.5 10-10s-4.5-10-10-10H60V101h240v180H189.7c-3.9 0-7.2 2.1-8.9 5.4l-57 56.9c-3.9 3.9-3.9 10.2 0 14.1s10.2 4 14.1.1l56.6-56.5h115.6c5.5 0 9.9-4.6 9.9-10.1V91.8c0-.3.2-.5.2-.8 0-5.6-4.4-10-9.9-10z"/><path d="M350.1 40.3v-.1-.1h-261c-5.5 0-10 4.5-10 10s4.5 10 10 10H340v190.3c0 5.5 4.5 10 10 10s10-4.5 10-10v-200c0-5.6-4.3-10.1-9.9-10.1z"/></g></svg>