<svg xmlns="http://www.w3.org/2000/svg" width="400" height="400" viewBox="0 0 400 400"><path fill="#323232" d="M332.8 72.4c-18-20.3-40-30.7-65.8-31.2-25.8-.5-48.2 9-67 28.4-18.9-19.4-41.2-28.8-67-28.4-25.8.5-47.7 10.9-65.8 31.2-18.9 21.3-28.3 46.8-28.3 76.3s9.4 54.9 28.3 76.2c20.5 23 25.4 28.4 40.3 45 1.9 2.8 4.9 4.6 8.3 4.6 5.8 0 10.5-5.3 10.5-11.8 0-4.1-1.9-7.8-4.8-9.9l-39.9-44.3C66.5 192 59 172 59 148.6s7.6-43.4 22.7-59.9c14.3-16.1 31.5-24.3 51.6-24.8s37.8 6.9 52.9 22L200 100l13.9-14.2c15.1-15.1 32.7-22.5 52.9-22 20.1.5 37.4 8.7 51.6 24.8 15.1 16.5 22.7 36.5 22.7 59.9s-7.6 43.4-22.7 59.9L206.9 332.6c-4.6 5.7-9.2 5.7-13.8 0l-29.8-33.2c-1.9-3-5-5-8.5-5-5.8 0-10.4 5.3-10.4 11.8 0 3.7 1.5 7 3.9 9.2 20 22.3 30.2 33.5 30.4 33.5 5.9 6.6 13 9.9 21.4 9.9 8.4 0 15.5-3.3 21.4-9.9 73.4-81.8 110.6-123.2 111.4-124.1 18.9-21.3 28.3-46.7 28.3-76.2 0-29.6-9.5-55-28.4-76.2z"/></svg>