<svg xmlns="http://www.w3.org/2000/svg" width="400" height="400" viewBox="0 0 400 400"><path fill="#333" d="M40 50v300c0 5.5 4.5 10 10 10s10-4.5 10-10V58.4h58c.8 0 5.5.5 8 .8 18 2.2 36.5 5.8 54.8 8.5 9 1.5 18.5 2.8 27.8 3.8 6.2.8 13 1.2 19.5 1.8l26.8.2c12.7-.5 26.2-2.8 38.7-5 14.8-2.8 43.8-9 44.2-9 1.8 0 3.2 1.2 3.8 3.8v107.2c0 1 .3 2 .8 3v62c-.8 2-1.8 4.8-4 4.8-.8 0-34-7.5-51-10.8-5.5-1-11.2-1.8-16.5-2.5-5-.5-10-.8-15-1.2h-24.2c-.8 0-6.2.5-9 .5-24.8 1.5-50.8 6.8-75.2 10.5-8.4 1.3-25.8 2.9-25.8 2.9h-11c-5.5 0-10 4.5-10 10s4.5 10 10 10l11-.3c17.3-1.2 42.7-6.5 54.5-8 11.8-1.8 23.5-4 35.2-5l20-1.5H256c6 0 34.2 4.8 34.7 4.8 7 1.5 43 10 47.5 10 10.8 0 22.5-10 23-23.5V129.1c0-1.1-.3-2.1-.8-3V62.4c0-.8-.8-3.2-1-4.8-2.8-11-12.8-17.5-21.2-17.5-3 0-42.2 8.8-54.8 10.8-4.5.8-9 1.5-13.5 2-4.8.5-9.8 1-14.7 1.5h-23c-20 0-71.2-9.5-83.2-11.2-10.2-1.5-20.5-2.8-31-3.8H55.7c-1.3.1-2.5.4-3.6.9-.6-.2-1.3-.3-2.1-.3-5.5 0-10 4.5-10 10z"/></svg>