<svg xmlns="http://www.w3.org/2000/svg" width="400" height="400" viewBox="0 0 400 400"><g fill="#323232"><path d="M295.3 228.8c1.5-4.7 3.1-9.5 4-14.6 1.7-9.8 3.1-19.8 4.4-29.5-.3-2.8-.6-5.6-.8-8.3-.1-.1-.1-.2-.2-.4-.5-1.3-.9-2.4-1.8-3.4-.1-.1-.2-.3-.4-.4-3.2-1.1-6.4-.8-8.5 2.2-.8 1.1-1.5 2.3-2.1 3.6-1.4 11.2-2.9 22.6-4.9 33.8-.7 4.1-2.1 8.3-3.5 12.7-2.1 6.5-4.3 13.2-4.6 20.4-.4 7.8-.1 22.7 6.4 35.3 6.4 12.4 7.3 25.6 2.4 36.9-4.7 10.9-14.3 18.9-27 22.7-23.4 6.8-47.7 6.6-72.5-.6-34.7-10.1-63.1-25.4-84.3-45.4-22.8-21.5-38.2-49.4-45.8-82.9-5.5-24.2-4.2-58.6 7.2-82.3C74.7 105 100 75.3 121.8 64.8c17.5-8.4 37.5-12.9 57.8-12.9 7.6 0 15.3.6 22.8 1.9 21.5 3.6 40.7 12.1 55.4 24.3.7.3 1.4.5 2.1.8 1.3-.4 2.6-1 3.9-1.3.5-.4.9-.8 1.4-1.2.8-.8 1.4-1.6 1.9-2.5.1-.4.1-.7.1-1.1 0-.2 0-.3-.1-.5-.4-2.3-1.1-4.6-1.9-6.8C226.6 34.6 164.8 28 115.5 51.7c-24.8 11.9-52.5 44-65.3 70.4-12.9 26.6-14.6 64.4-8.3 91.9 8.3 36.3 25.1 66.7 50 90.2 22.9 21.6 53.2 38.1 90.2 48.8 14 4.1 28 6.1 41.8 6.1 13.1 0 26.2-1.9 38.8-5.6 17-5 29.9-15.9 36.3-30.9 6.5-15.2 5.5-33.2-2.8-49.3-3.6-7-5.4-17.2-4.8-27.9.2-5.2 2-10.7 3.9-16.6z"/><path d="M200.5 166.3c-.1 0-.1-.1 0 0z"/><path d="M352.3 46.1c-8.9-8.9-23.2-8.8-32.1.1-.9.9-1.9 1.7-2.6 2.6l-98.7 98.7-.2.2c-3 3-3 7.8 0 10.8 3 3 7.8 3 10.8 0l.2-.2 79-79 20.9-20.9L332 56c3-2.1 7-1.9 9.6.7 3.5 3.5 3.3 7.3 1.2 10.2 0 0 .1.1 0 0l-27.5 27.5-83.3 83.4-7.5 7.5-4.5-4.5-2.3-2.3-9-8.8c-.2-.2-.3-.4-.5-.6-2-2-5.2-3.4-7.7-2.7 0 .1.1.1 0 0-18.8 5-36.6 14.9-51.4 29.6-20 20-31 45.5-33.1 71.6-.4 5.1-.5 10.2-.2 15.2 5.1.3 10.2.2 15.2-.2 26.1-2.1 51.6-13.1 71.6-33.1 7.7-7.7 14-16.2 19-25.2 1.7-2.9 1.3-6.7-1.2-9.2-3-3-7.8-3-10.8 0-.5.5-.9 1-1.2 1.6-.1.1-.1.3-.2.4-4.3 7.8-9.8 15.1-16.4 21.7-16.9 16.9-38.4 26.4-60.5 28.5 2.1-22.1 11.6-43.6 28.5-60.5 11.6-11.6 25.5-19.8 40.2-24.4l16.2 16.2 2 2c.2.3.5.7.8 1 3 3 7.8 3 10.8 0l2-2L353.5 77.8c8.1-9 7.4-23.1-1.2-31.7z"/></g></svg>