<svg xmlns="http://www.w3.org/2000/svg" width="400" height="400" viewBox="0 0 400 400"><path fill-rule="evenodd" clip-rule="evenodd" fill="#333" d="M290 200v-.3-.9c0-.2 0-.3-.1-.5 0-.2 0-.3-.1-.5 0-.2-.1-.3-.1-.5 0-.1-.1-.3-.1-.4 0-.2-.1-.3-.2-.5-.1-.1-.1-.3-.2-.4-.1-.1-.1-.3-.2-.4-.1-.2-.1-.3-.2-.5-.1-.1-.2-.3-.2-.4-.1-.2-.2-.3-.3-.4-.1-.1-.2-.3-.3-.4-.1-.1-.2-.3-.3-.4-.2-.2-.3-.4-.5-.6 0-.1-.1-.1-.1-.2L230.5 136c-3.9-3.9-10.2-3.9-14.1 0-3.9 3.9-3.9 10.2 0 14.1l39.5 39.5H120c-5.5 0-10 4.5-10 10s4.5 10 10 10h136.5l-40.2 40.2c-3.9 3.9-3.9 10.2 0 14.1 3.9 3.9 10.2 3.9 14.1 0l56.6-56.6c2.1-1.9 3.1-4.6 3-7.3z"/></svg>