<svg xmlns="http://www.w3.org/2000/svg" width="400" height="400" viewBox="0 0 400 400"><g fill="#333" stroke="#000" stroke-miterlimit="10"><path d="M189.7 221.1c-5.2-1.8-10.9.9-12.7 6.1l-19.9 38c-1.8 5.2.9 10.9 6.1 12.7 5.2 1.8 10.9-.9 12.7-6.1l19.9-38c1.8-5.2-.9-10.9-6.1-12.7zM350.2 320l-146.9 19.6c-1-.3-2-.5-3.1-.5l-150.3-20c-5.5 0-10 4.5-10 10s4.5 10 10 10l144.4 19.2c1.6 1.1 3.5 1.7 5.6 1.7l150.3-20c5.5 0 10-4.5 10-10-.1-5.5-4.5-10-10-10z"/><path d="M97.3 280.7c0 10.7 1.7 21.1 4.8 30.8.2.9.5 1.8.9 2.6 1.6 3.3 5 5.6 8.9 5.6 5.5 0 10-4.5 10-10 0-.4 0-.7-.1-1.1-.2-1.5-.6-2.8-1.3-4-2.3-7.5-3.6-15.6-3.6-23.9 0-43.3 33.8-78.7 76.5-81.2 1.7.1 3.5.2 5.2.2 1.6 0 3.2-.1 4.8-.2 42.5 2.7 76.1 38 76.1 81.2 0 8.8-1.4 17.3-4 25.2-.1.3-.2.7-.3 1-.2.9-.4 1.8-.4 2.7 0 5.5 4.5 10 10 10 3.4 0 6.5-1.7 8.3-4.4 1-1.5 1.6-3.2 1.7-5 2.9-9.3 4.4-19.2 4.4-29.5 0-41.1-24.5-76.5-59.8-92.2 23.4-13.9 39-39.4 39-68.6 0-44.1-35.7-79.8-79.8-79.8s-79.8 35.7-79.8 79.8c0 29 15.5 54.4 38.7 68.4-35.4 15.6-60.2 51.1-60.2 92.4zm41.6-160.9c0-33.1 26.8-59.9 59.9-59.9s59.9 26.8 59.9 59.9c0 32.7-26.2 59.3-58.8 59.9h-2.4c-32.6-.7-58.6-27.2-58.6-59.9z"/><path d="M205.2 246.5h-5.4c-1.3 0-2.5-.2-3.6.2-3.8 1.5-6.6 5.2-6.6 9.6 0 4.9 3.4 8.9 7.9 10 .8.2 1.6.3 2.4.3.9 0 1.9.2 2.7 0 3.9.8 6.4 3.4 7.3 7.2-.3.9.2 1.8.2 2.8l-.1 40c0 5.5 4.5 10 10 10s10-4.5 10-10v-40c0-1.7-.1-2.3 0-4.8 0-14.5-11.2-25.3-24.8-25.3z"/></g></svg>