<svg xmlns="http://www.w3.org/2000/svg" width="400" height="400" viewBox="0 0 400 400"><path fill="#323232" d="M356.9 84.8c-12.5-34.9-51.2-53-86.1-40.3-1.6.6-3.2 1.2-4.7 1.9.2-.1.3-.1.5-.2s.4-.1.6-.2c-5.1 1.9-7.7 7.6-5.9 12.7 1.8 5.1 7.4 7.8 12.5 6.1v.1l3.6-1.5c4-1.5 8.1-2.3 12.2-2.6v.1c1.3-.1 2.6-.2 3.9-.1 26.2.2 47.1 21.4 46.8 47.8-.1 12.6-5.2 23.9-13.3 32.3-.3.2-.6.5-.8.7l-197.8 198H59.2v-73L241 92.3l46.9 47.8c3.9 3.9 10.3 3.9 14.1 0 3.9-3.9 3.9-10.3 0-14.1l-53.7-54.7c-.7-.7-1.6-1.3-2.5-1.8-3.8-2-8.6-1.4-11.8 1.8l-192 184c-2.4 2.4-3.3 5.8-2.7 8.9-.2.7-.2 1.4-.2 2.1v80.4c0 .7.1 1.4.2 2v1c0 5.5 4.5 10 10 10h80.4c1.4 0 2.7-.3 4-.8 2.3-.1 4.6-1 6.5-2.8L337 158.9c12.1-10.3 20.5-24.7 23-41.1 0-.1 0-.3.1-.4.1-.3.1-.7.1-1 1.4-10.4.4-21.2-3.3-31.6z"/></svg>