<svg xmlns="http://www.w3.org/2000/svg" width="400" height="400" viewBox="0 0 400 400"><path fill="#323232" d="M349.4 339.6h-8.3c.2-3.4.4-6.8.4-10.3 0-59.1-36.5-109.6-88.2-130.2 52-20.5 88.7-71.2 88.7-130.4 0-3.1-.1-6.1-.3-9.1h7.7c5.5 0 10-4.5 10-10s-4.5-10-10-10h-299c-5.5 0-10 4.5-10 10s4.5 10 10 10H62c-.2 3-.3 6.1-.3 9.1 0 59.1 36.5 109.6 88.2 130.2-52 20.5-88.7 71.2-88.7 130.4 0 3.4.1 6.9.4 10.2H50.5c-5.5 0-10 4.5-10 10s4.5 10 10 10h299c5.5 0 10-4.5 10-10-.1-5.4-4.5-9.9-10.1-9.9zM81.5 68.7c0-3.1.1-6.1.3-9.1h240c.2 3 .3 6 .3 9.1 0 66.5-53.9 120.4-120.4 120.4-66.3 0-120.2-53.9-120.2-120.4zM81 329.3C81 262.9 134.9 209 201.4 209s120.4 53.9 120.4 120.4c0 3.5-.1 6.9-.4 10.3H81.5c-.3-3.5-.5-6.9-.5-10.4zm26.4-16.6c0-46.4 47.6-84 94-84s94 37.6 94 84c0 2.4-.1 4.8-.3 7.2H107.8c-.3-2.4-.4-4.8-.4-7.2z"/><path fill="#323232" d="M201.4 173.4c27.4 0 55.2-12.4 73.4-33.4H128c18.2 21 46 33.4 73.4 33.4z"/></svg>