<svg xmlns="http://www.w3.org/2000/svg" width="400" height="400" viewBox="0 0 400 400"><g fill="#333"><path d="M310.4 98.9h-260c-3.1 0-5.9 1.4-7.7 3.7-1.6 1.8-2.6 4.1-2.6 6.7v221c0 5.5 4.5 10 10 10h259.6c5.5 0 10-4.5 10-10V112.5c.4-1.1.7-2.3.7-3.6 0-5.5-4.5-10-10-10zm-250.3 20h239.6v86.8l-51.6-51.6c-2-2-4.5-2.9-7.1-2.9-2.6 0-5.1 1-7.1 2.9l-78.4 78.4-18.4-18.4c-2-2-4.5-2.9-7.1-2.9-2.6 0-5.1 1-7.1 2.9L60.1 277V118.9zm0 186.4l70-70 11.4 11.4 6.5 6.5 1.2 1.2c1.7 1.5 4 2.4 6.4 2.4 2.4 0 4.7-.9 6.4-2.3l1.2-1.2 6.5-6.5 71.4-71.4 58.7 58.7v86.3H60.1v-15.1z"/><path d="M349.9 59.7h-261c-5.5 0-10 4.5-10 10s4.5 10 10 10h251v230c0 5.5 4.5 10 10 10s10-4.5 10-10v-240c0-5.5-4.5-10-10-10z"/></g></svg>