<svg xmlns="http://www.w3.org/2000/svg" width="400" height="400" viewBox="0 0 400 400"><g fill="#323232"><path d="M352 153.3C325.6 69 235.8 22 151.5 48.4 67.2 74.8 20.2 164.6 46.6 248.9c1 3.2 2.1 6.3 3.3 9.3.1.2.1.4.2.6.1.1.1.3.2.4 2 4.6 7.2 7.1 12.2 5.5 5.3-1.6 8.2-7.3 6.6-12.5-.1-.3-.2-.7-.4-1-1-2.7-2-5.5-2.9-8.4-23.1-73.8 18-152.3 91.8-175.4 73.8-23.1 152.3 18 175.5 91.8 23.1 73.8-18 152.3-91.8 175.4-51.1 16-104.4 1.2-140.1-33.9l-.8-.8c-2.5-2.3-6.2-3.2-9.6-2.1-5.3 1.7-8.2 7.3-6.6 12.5.6 1.8 1.6 3.3 2.9 4.4 40.8 40.2 101.8 57.1 160.2 38.8 84.2-26.1 131.1-115.9 104.7-200.2z"/><circle cx="198.8" cy="118.5" r="20"/><path d="M209 299.8c5.5 0 10-4.5 10-10V170.1c0-4.6-3-8.5-7.2-9.6-.3-.1-.6-.2-.9-.2h-.4c-.6-.1-1.1-.2-1.7-.2h-18.7c-5.5 0-10 4.5-10 10s4.5 10 10 10h8.9v109.8c0 5.4 4.5 9.9 10 9.9z"/></g></svg>