<svg xmlns="http://www.w3.org/2000/svg" width="400" height="400" viewBox="0 0 400 400"><path fill="#333" d="M181.6 294.8c2.7.1 5.4-.9 7.5-3L298.9 137c3.9-3.9 4-10.2.1-14.1-3.9-3.9-10.2-3.8-14.1.1L180.5 270.3 137.1 226c-3.9-3.9-10.2-3.9-14.1-.1-3.9 3.9-3.8 10.2.1 14.1l50.9 51.9c2.1 2.1 4.9 3.1 7.6 2.9z"/><path fill="#333" d="M353.7 152.2C327.3 67.9 237.5 20.9 153.2 47.3 68.9 73.7 21.9 163.5 48.3 247.8c1 3.2 2.1 6.3 3.3 9.3.1.2.1.4.2.6.1.1.1.3.2.4 2 4.6 7.2 7.1 12.2 5.5 5.3-1.6 8.2-7.3 6.6-12.5-.1-.3-.2-.7-.4-1-1-2.7-2-5.5-2.9-8.4C44.3 168 85.4 89.5 159.2 66.4c73.8-23.1 152.3 18 175.5 91.8 23.1 73.8-18 152.3-91.8 175.4-51.1 16-104.4 1.2-140.1-33.9l-.8-.8c-2.5-2.3-6.2-3.2-9.6-2.1-5.3 1.7-8.2 7.3-6.6 12.5.6 1.8 1.6 3.3 2.9 4.4 40.8 40.2 101.8 57.1 160.2 38.8 84.2-26.2 131.2-116 104.8-200.3z"/></svg>