<svg xmlns="http://www.w3.org/2000/svg" width="400" height="400" viewBox="0 0 400 400"><path fill="#333" d="M146.1 201.1l-20.8-52.7H141l9.8 29.8c.8 2.6 1.4 5.7 1.7 9.2h.3c.3-3.3 1-6.3 2-9.2l9.6-29.8h15.4l-22.1 60.1c-2 5.6-4.9 9.7-8.7 12.5-3.8 2.8-8.2 4.2-13.2 4.2-2.5 0-4.9-.3-7.3-.8v-11.5c1.7.4 3.6.6 5.6.6 2.5 0 4.7-.8 6.6-2.4 1.9-1.6 3.4-4 4.4-7.3l1-2.7zm75.8.4c-2.9.6-6.4.9-10.5.9-8.5 0-15.2-2.3-20-7-4.8-4.7-7.2-11.3-7.2-19.9 0-8.8 2.2-15.7 6.6-20.5 4.4-4.8 10.5-7.2 18.4-7.2 7.5 0 13.3 2.1 17.4 6.4 4.2 4.3 6.2 10.2 6.2 17.8v7h-34.1c.2 3.9 1.4 6.9 3.7 9.1 2.3 2.2 5.5 3.3 9.6 3.3 3.2 0 6.2-.3 9-.9 2.8-.6 5.8-1.6 8.9-3v11.2c-2.5 1.2-5.2 2.1-8 2.8zM360 177.2C360 112.9 288.2 61 199.5 61S39 113.1 39 177.2c0 36.9 23.6 69.7 60.5 91-8.4 30.3-21.3 41.2-32.6 54.1-2.7 3.3-5.7 6-4.8 10.5v.2c.9 4.4 4.7 7.3 8.6 6.9 7-.9 14-2.2 20.4-4 31-8 58.9-22.9 82.4-44 8.4.9 17.2 1.5 26 1.5 88.7.1 160.5-51.9 160.5-116.2zm-79.8 2c.9 1.9 1.4 4.1 1.4 6.7 0 5.4-1.9 9.4-5.7 12.3-3.8 2.8-9.4 4.2-16.9 4.2-3.9 0-7.1-.3-9.9-.8-2.7-.5-5.3-1.3-7.6-2.3v-11.9c2.7 1.3 5.7 2.3 9.1 3.2 3.4.9 6.4 1.3 8.9 1.3 5.3 0 7.9-1.5 7.9-4.5 0-1.1-.4-2-1-2.7-.7-.7-1.9-1.5-3.6-2.4-1.7-.9-4-1.9-6.9-3.1-4.1-1.7-7.1-3.2-9-4.7-1.9-1.4-3.3-3.1-4.2-4.9-.9-1.9-1.3-4.1-1.3-6.9 0-4.8 1.8-8.5 5.5-11.2 3.6-2.6 8.8-3.9 15.5-3.9 6.4 0 12.6 1.4 18.6 4.3l-4.4 10.7c-2.7-1.1-5.2-2.1-7.5-2.8-2.3-.7-4.7-1.1-7.1-1.1-4.3 0-6.4 1.1-6.4 3.4 0 1.3.7 2.4 2.1 3.3 1.4.9 4.4 2.3 9.1 4.2 4.1 1.6 7.2 3.2 9.1 4.6 1.9 1.5 3.3 3.2 4.3 5zM216.7 161c-1.8-1.9-4.3-2.9-7.3-2.9-3.1 0-5.5 1-7.2 2.9-1.7 1.9-2.7 4.6-3 8.2h20.4c-.2-3.5-1.1-6.3-2.9-8.2z"/></svg>