<svg xmlns="http://www.w3.org/2000/svg" width="400" height="400" viewBox="0 0 400 400"><g fill="#333"><path d="M262 263.2c3.9-3.9 3.9-10.2 0-14.1l-56.6-56.6c-.1-.1-.1-.1-.2-.1-.2-.2-.4-.4-.6-.5-.1-.1-.3-.2-.4-.3-.1-.1-.3-.2-.4-.3-.1-.1-.3-.2-.5-.3-.1-.1-.3-.2-.4-.2-.1-.1-.3-.1-.5-.2-.1-.1-.3-.1-.4-.2-.1-.1-.3-.1-.4-.2-.2-.1-.3-.1-.5-.2-.1 0-.3-.1-.4-.1-.2 0-.3-.1-.5-.1s-.3-.1-.5-.1-.3-.1-.5-.1H198c-2.7-.1-5.4.9-7.4 2.9L134 249.1c-3.9 3.9-3.9 10.2 0 14.1 3.9 3.9 10.2 3.9 14.1 0l40.2-40.2v112c0 5.5 4.5 10 10 10s10-4.5 10-10V223.7l39.5 39.5c3.9 3.9 10.3 3.9 14.2 0z"/><path d="M344.4 216.3c5.4-9.9 8.6-21.3 8.6-33.4 0-38-30.4-68.7-68-68.7-17.6 0-33.7 6.8-45.8 17.9-1.3-4.8-6.1-13.9-7.2-16.2-1.1-2.3-2.3-4.5-3.6-6.7-2.6-4.4-5.5-8.6-8.7-12.5-3.3-3.9-6.9-7.6-10.8-10.9-3.9-3.3-8.1-6.3-12.6-8.9-4.5-2.7-9.3-4.9-14.2-6.7-2.8-1-5.7-1.9-8.6-2.6C125.9 55.7 77.9 85 66.1 133c-3.2 12.9-3.4 25.8-1.1 38.1.6 3.1 1.3 6.2 2.2 9.2-.4.3-.9.7-1.3 1C49.5 193.8 39 213.6 39 235.9c0 38 30.4 68.7 68 68.7 1.1 0 2.2 0 3.3-.1h40c4.9-.6 8.8-4.9 8.8-10 0-5.4-4.2-9.8-9.4-10.1v-.1h-38.4c-5.5 0-11 0-16.4-1.4-4.6-1.2-9.1-3.1-13.2-5.7-8.1-5-14.6-12.5-18.5-21.2-.8-1.7-1.4-3.4-2-5.1-.5-1.6-1.4-3.7-1.4-5.4-.6-3.1-1-6.4-1-9.7 0-13.1 5-24.9 13.2-33.7 3.5-3.7 7.6-6.9 12.2-9.3.1 0 .2-.1.2-.1 3.1-1.7 5.2-5 5.2-8.7 0-.9-.1-1.9-.4-2.7-.2-.6-.4-1.2-.7-1.8-1.2-3.1-2.1-6.3-2.9-9.7v-.1c-2.3-10.2-2.3-21 .4-31.8 6.1-24.9 25-43.3 47.9-49.7 10.9-3.1 22.7-3.4 34.5-.5 5.1 1.3 10.1 3.2 14.8 5.6 4.6 2.4 8.8 5.3 12.8 8.6 9.2 7.9 16.8 18.7 22.5 29.4 1.7 3.1 3.1 6.3 4.3 9.6 2.3 6.3 3.8 14.9 12.2 14.9 1.6 0 3.1-.4 4.4-1h.1c.8-.4 1.6-1 2.3-1.6.7-.5 1.6-1.1 2.6-1.8 3.1-2.2 7.3-5 10.7-7.4 2.9-2 5.4-3.7 6.4-4.3 4.6-2.5 9.6-4.3 14.7-5.3 2.9-.5 5.8-.8 8.7-.8 26.9 0 48.6 22 48.6 49.1 0 8.5-2.1 16.4-5.8 23.4h-.1c-1.1 2.2-2.3 4.2-3.6 6.2-1.2 1.7-1.9 3.7-1.9 5.9 0 3.3 1.6 6.3 4.2 8.1.2.1.5.3.7.5 8.2 5.5 13.7 14.8 13.9 25.5v1.6c0 15.4-11.3 28.1-26 30-1.7.3-3.4.4-5.1.4-.6 0-1.1 0-1.7-.1h-59.4c-5.4.2-9.7 4.6-9.7 10.1 0 5.2 3.8 9.4 8.8 10h60.3c.9.1 1.9.1 2.8.1 27.7 0 50.1-22.7 50.1-50.7 0-14.7-6.4-28.1-16.6-37.4z"/></g></svg>