<svg xmlns="http://www.w3.org/2000/svg" width="400" height="400" viewBox="0 0 400 400"><g fill-rule="evenodd" clip-rule="evenodd" fill="#333"><circle cx="201.7" cy="241.7" r="10"/><circle cx="302.1" cy="241.7" r="10"/><circle cx="251.9" cy="241.7" r="10"/><path d="M351.9 312.1c0-.5 0-1-.1-1.4V172.2c0-2.6-1-5-2.6-6.8-1.8-2.4-4.7-3.9-7.9-3.9H252V51.9c0-5.5-4.5-10-10-10H61.9c-5.5 0-10 4.5-10 10v119.5c-.1.5-.1.9-.1 1.4 0 .5.1 1.1.1 1.6.3 5.2 4.6 8.5 10 8.5.5 0 1.1 0 1.6-.1h34.3l36.5 36.5c3.9 3.9 10.2 3.9 14.1 0 3.9-3.9 3.9-10.2 0-14.1l-39.3-39.3c-.7-.7-1.4-1.2-2.2-1.7-1.5-.9-3.2-1.4-5.1-1.4H71.9V61.9H232v99.7h-70.8c-5.5 0-10 4.5-10 10 0 .9.1 1.8.4 2.6v139c0 5.5 4.5 9 10 9 .9 0 1.7-.1 2.6-.3h78.2c5.5 0 10-4.5 10-10s-4.5-10-10-10h-70.8V181.6h160.2v120.5h-29.9c-1.9 0-3.6.5-5.1 1.4-.8.4-1.5 1-2.2 1.7l-39.3 39.3c-3.9 3.9-3.9 10.2 0 14.1 3.9 3.9 10.2 3.9 14.1 0l36.5-36.5h34.3c.5.1 1 .1 1.6.1 5.4 0 9.7-3.3 10-8.5 0-.5.1-1.1.1-1.6z"/><circle cx="201.9" cy="112.4" r="10"/><circle cx="101.5" cy="112.4" r="10"/><circle cx="151.7" cy="112.4" r="10"/></g></svg>