<svg xmlns="http://www.w3.org/2000/svg" width="400" height="400" viewBox="0 0 400 400"><path fill="#333" d="M200 279.9c-5.5 0-10 4.5-10 10V370c0 5.5 4.5 10 10 10s10-4.5 10-10v-80.1c0-5.5-4.5-10-10-10zM248.5 241.7c-1.4-5.4-6.8-8.6-12.1-7.2l-77.6 19.6c-5.4 1.4-8.6 6.8-7.2 12.1 1.4 5.4 6.8 8.6 12.1 7.2l77.6-19.6c5.3-1.3 8.6-6.7 7.2-12.1zM169.7 169.9h.2c.5.1.9.1 1.4.1H190v49.7c0 5.5 4.5 10 10 10s10-4.5 10-10V170h21.3c1.1 0 2.1-.1 3.1-.5 14.3-2.3 25.5-14.7 25.5-29.6 0-.5.2-1 .2-1.6V80c0-3.8-2.3-7.1-5.5-8.8-1.4-.8-3.2-1.2-5-1.2H230V30c0-5.5-4.5-10-10-10s-10 4.5-10 10v40h-20V30c0-5.5-4.5-10-10-10s-10 4.5-10 10v50c0 5.5 4.1 10 9.6 10H240v50c0 .4-.2.8-.1 1.1-.6 4.8-4.6 8.5-9.4 8.9h-59.1c-.2 0-.5 0-.7.1v-.1c-.3 0-.6.1-.9.1-5.2 0-9.4-4-9.9-9.1 0-.3.2-.7.2-1V80c0-5.5-4.5-10-10-10s-10 4.5-10 10v60s-.2 0-.2.1c0 16.5 13.2 29.8 29.8 29.8z"/></svg>