<svg xmlns="http://www.w3.org/2000/svg" width="400" height="400" viewBox="0 0 400 400"><path fill="#323232" d="M340 199.6V198c-1-69.2-52.1-126.2-118.6-136.4-6.5-1-13.2-1.5-20-1.6h-1.7c-6.9 0-13.8.5-20.5 1.5-61.4 9.1-109.7 58.1-118 119.7-.8 6.1-1.3 12.4-1.3 18.7v1.7c.1 6.2.5 12.3 1.4 18.3 8.8 61.5 57.6 110.1 119.1 118.6 5.8.8 11.7 1.2 17.8 1.3h2.3c6.1 0 12.2-.5 18.1-1.3 62-8.3 111.2-57.2 119.9-119.1.1-.4.1-.8.1-1.2.8-6 1.2-12.2 1.2-18.5.2.2.2.1.2-.1zM200 80c6.8 0 13.5.6 20 1.7 56.1 9.4 99 57.8 99.9 116.3v2h-2.8c-7 0-13.9-.7-20.6-1.9-48.9-8.8-87.6-47.3-96.6-96.2-1.2-6.7-1.9-13.5-2-20.6V80h2.1zm-.8 240c-7 0-13.9-.7-20.6-1.9-48.9-8.8-87.6-47.3-96.6-96.2-1.2-6.7-1.9-13.5-2-20.6V200c6.8 0 13.5.6 20 1.7 56.1 9.4 99 57.8 99.9 116.3v2h-.7zm20.8-1.7c-.8-69.3-52-126.5-118.6-136.7-6.4-1-13-1.5-19.7-1.6 8.3-49.6 47-88.9 96.4-98 .1 6.1.6 12.1 1.4 18 8.8 61.5 57.6 110.1 119.1 118.6 6.4.9 12.8 1.3 19.4 1.3h.3c-8.4 50.4-48.1 90-98.3 98.4z"/></svg>