<svg xmlns="http://www.w3.org/2000/svg" width="400" height="400" viewBox="0 0 400 400"><g fill="#333"><path d="M21.8 202.8v-6.3c1.8-4 3.1-8.3 5.5-11.9 4-6.2 10.1-10.3 16.4-13.9 16.3-9.3 34.1-14.2 52.2-18.2 5.9-1.3 11.8-2.3 17.9-3.6-.6-1.6-1.1-2.8-1.4-4-4-13.6-8.4-27.1-11.7-40.9-3.2-13-4.7-26.5-1.9-40 3.7-18.3 17.6-26.8 35.3-20.7 6.4 2.2 12.3 6 18.3 9.2 1.5.8 2.5 1.3 4.4.4 10.5-5.6 22.4-4.1 30.8 3.7 8.5 7.9 10.6 19.4 5.7 30.8-.3.8-.7 2-.3 2.5 2.5 3.2 5.1 6.2 7.9 9.4 1.1-1.2 1.8-2.2 2.6-3 11.1-11.4 21.8-23.3 33.4-34.2 9.4-8.8 20.1-16 32.8-19.4 15.9-4.3 28.7 2.8 32.4 18.9 1.7 7.3 2 15 1.7 22.5-.5 14.6-4.1 28.8-8.4 42.7-2.3 7.4-4.8 14.8-7.3 22.5 5.2 1 10.2 1.7 15.2 3 2.5.6 3.6 0 5-2.1 6.6-10.3 19.2-14.6 30.6-10.6 11.5 4 18.6 15.1 17.5 27.2-.2 2.1.2 3.3 2.2 4.4 10 5.8 18.4 13 21.5 24.9v7c-2.5 9.8-8.8 16.7-17 22.1-3.6 2.3-7.3 4.5-11.2 6.4-14.6 7.1-30.2 11.4-46 14.8-5.8 1.2-11.6 2.3-17.7 3.5.6 1.5 1 2.7 1.4 3.9 6.2 17.3 11.6 34.9 14 53.2 1.4 11.2 1.9 22.3-1.8 33.2-4.4 12.9-15.3 19.3-28.7 16.8-11.1-2.1-20.3-7.9-29.1-14.5-15.3-11.5-28.1-25.4-40.4-40-.7-.9-1.5-1.7-2.4-2.6-4 4.6-7.8 9.1-11.7 13.4-1.3 1.4-1.4 2.5-.8 4.3 4 11 1.2 22.1-7.4 29.5-8.3 7.1-19.7 8.2-29.7 3.1-1.2-.6-3.1-.5-4.3 0-5 1.9-9.7 4.7-14.8 6.1-15.8 4.4-28.2-2.6-32.4-18.4-1.4-5.1-2-10.5-2.1-15.9-.3-14.4 2.6-28.5 6.6-42.3 2.8-9.9 6.1-19.7 9.4-29.9-2.3-.4-4.7-.9-7-1.4-19.5-3.7-38.7-8.2-56.6-17-13.2-6.4-24.6-13.9-28.6-28.6zM288.4 76.2c-.3-2.2-.5-6.5-1.6-10.5-1.9-7.7-6-10.4-13.4-7.6-6.8 2.6-13.4 6-19.3 10.2-16.2 11.6-29.3 26.5-42 41.7-1.3 1.6-.8 2.5.2 3.9 6.5 9.1 12.8 18.3 19.4 27.3.7 1 2.3 1.9 3.5 2.1 11.2 1.1 22.5 2 33.7 3.1 2.1.2 2.9-.3 3.6-2.2 1.8-5.4 3.9-10.7 5.6-16.1 5.3-16.2 9.6-32.7 10.3-51.9zm0 247.1c-1.3-25.7-8.2-47.8-16.4-69.7-.3-.8-1.9-1.5-2.8-1.5-11.4.9-22.7 1.9-34.1 3-1.2.1-2.6.9-3.3 1.9-6.6 9.1-13 18.4-19.6 27.6-1.2 1.7-1.2 2.7.2 4.2 10 10.6 19.4 21.7 30 31.7 6.8 6.5 15 11.7 23 16.9 3.2 2.1 7.3 3.1 11.1 3.8 5.1.9 8.1-1 9.6-5.9 1.4-4.6 1.8-9.3 2.3-12zM36.8 199.5c2 2.9 3.2 6.3 5.6 8 5.5 4 11.3 7.9 17.5 10.7 18.5 8.3 38.1 12.5 58 15.7.9.1 2.5-1 2.9-1.9 4.9-10.2 9.6-20.4 14.2-30.7.5-1.1.6-2.8.1-3.8-4.7-10.4-9.6-20.7-14.3-31-.8-1.8-1.7-2.1-3.5-1.7-4.3.9-8.7 1.5-13 2.4-17.2 3.6-34.3 7.8-50 16-4.6 2.4-8.9 5.5-12.8 8.9-1.9 1.6-2.9 4.4-4.7 7.4zm327.5.3c-.9-2.2-1.1-4.1-2.1-5.1-4.2-3.7-8.7-7.2-13.2-10.6-.5-.4-2 .2-2.7.7-16.3 11.3-35.7 4.8-41.8-13.9-.4-1.1-1.8-2.4-2.9-2.7-5.9-1.3-11.8-2.4-17.8-3.3-.9-.1-2.6.8-3 1.6-4.9 10.3-9.7 20.6-14.4 31-.5 1.1-.5 2.7 0 3.8 4.6 10.3 9.5 20.5 14.1 30.7.8 1.8 1.7 2.4 3.7 1.9 3-.7 6.2-1.1 9.3-1.7 17.6-3.5 35-7.6 51.2-15.5 5.4-2.6 10.3-6.2 15-9.9 2.2-1.7 3.2-4.7 4.6-7zM112.8 77.9c.2 0 .3.1.5.1v.7c.9 23.2 8.1 45 16.1 66.5.3.7 2 1.3 2.9 1.2 11.4-.9 22.7-1.9 34.1-3 1.2-.1 2.6-1 3.3-2 6.6-9.2 13-18.4 19.6-27.6 1.1-1.5 1.2-2.5 0-3.9-2.4-2.7-4.7-5.5-7-8.3-1.2-1.5-2.2-1.7-4.2-1.3-3.5.8-7.1 1.7-10.6 1.3-16.8-1.6-27.1-16.3-23.3-32.9.2-1 0-2.9-.6-3.2-5.6-2.8-11-6.1-16.9-7.9-6-1.9-9.9.7-11.6 6.9-1.2 4.4-1.6 8.9-2.3 13.4zm-.1 243.3c.9 4.8 1.4 9.6 2.8 14.3 1.4 4.6 4.3 6.5 9 5.8 4.1-.7 7.9-2.4 11.9-3.7 2.1-.7 2.6-2 2.1-4.3-2.4-10.3.2-19.2 8.2-26.2 8.1-7 17.5-8.3 27.4-4.4 1.9.7 2.9.5 4.1-1 3.6-4.3 7.2-8.6 10.9-12.7 1.5-1.7 1.2-2.8 0-4.5-6.5-9.1-12.9-18.2-19.4-27.3-.7-1-2.1-1.8-3.3-2-11.2-1.1-22.5-1.9-33.7-3.1-2.3-.2-3.1.4-3.8 2.4-1.6 4.7-3.4 9.4-4.9 14.2-5.5 17-10.1 34.3-11.3 52.5zm88.5-162.5c-7 0-14-.1-20.9.1-1.4 0-3.4 1.1-4.1 2.3-7.1 12-14.1 24.1-20.9 36.2-.6 1-.6 3 0 4.1 6.8 12.2 13.8 24.2 20.9 36.2.7 1.1 2.5 2.1 3.8 2.2 13.8.2 27.7.2 41.5 0 1.3 0 3.2-1 3.8-2.1 7.1-12 14.1-24.1 20.9-36.2.6-1.1.6-3.2 0-4.4-6.8-12.2-13.8-24.2-20.9-36.2-.6-1-2.3-2-3.5-2-6.9-.3-13.8-.2-20.6-.2zm-.5-34.1c-4.4 6.2-8.4 11.8-12.7 17.9h25.4c-4.3-6.1-8.3-11.7-12.7-17.9zM188 256.1c4.4 6.2 8.4 11.9 12.8 18 4.4-6.2 8.4-11.8 12.7-18H188zm77.4-94.1c-7.4-.7-14.3-1.4-21.9-2.1 4.5 7.8 8.5 14.7 12.8 22.1 3.1-6.8 6-13.1 9.1-20zm-129.3 0c3.1 6.9 6 13.1 9.1 19.9 4.3-7.5 8.3-14.5 12.7-22.1-7.6.8-14.4 1.5-21.8 2.2zm9.1 54.7c-3.1 6.9-6 13.1-9 19.9 7.3.7 14.2 1.4 21.8 2.1-4.5-7.6-8.4-14.4-12.8-22zm111.1 0c-4.4 7.6-8.4 14.5-12.7 22.1 7.6-.8 14.5-1.4 21.8-2.2-3.1-6.8-6-13-9.1-19.9z"/><path d="M227.1 199.4c-.1 14.4-11.9 26.2-26.3 26.2s-26.4-11.9-26.3-26.2c.1-14.7 11.8-26.4 26.5-26.4 14.2 0 26.1 12.1 26.1 26.4z"/></g></svg>