<svg xmlns="http://www.w3.org/2000/svg" width="400" height="400" viewBox="0 0 400 400"><g fill="#323232"><path d="M152 206.8s-.1-.1 0 0zM351.4 48.9c-11.7-11.7-30.4-11.6-42.1.1-1.1 1.1-2.4 2.2-3.4 3.5L176.3 182.1c-.1.1-.2.1-.2.2-3.9 3.9-3.9 10.2 0 14.1 3.9 3.9 10.2 3.9 14.1 0 .1-.1.1-.2.2-.2L294.1 92.6l27.4-27.4 3.1-3.1c3.9-2.8 9.2-2.5 12.7.9 4.5 4.5 4.3 9.5 1.6 13.4 0 .1.1.1 0 0l-36.2 36.2-109.2 109.2-9.9 9.9-5.9-5.9-3.1-3.1-11.9-11.6c-.2-.3-.4-.5-.7-.8-2.6-2.6-6.8-4.4-10.1-3.6 0 .1.1.2 0 0-24.7 6.6-48.1 19.5-67.5 38.9-26.2 26.2-40.7 59.7-43.4 94-.5 6.7-.6 13.3-.3 20 6.7.4 13.4.3 20-.3 34.3-2.8 67.8-17.2 94-43.4 10.1-10.1 18.4-21.2 25-33.1 2.2-3.8 1.7-8.8-1.6-12.1-3.9-3.9-10.2-3.9-14.1 0-.6.6-1.1 1.3-1.6 2-.1.2-.2.3-.3.5-5.7 10.2-12.9 19.8-21.6 28.5-22.2 22.2-50.5 34.7-79.5 37.5 2.8-29 15.3-57.2 37.5-79.5 15.3-15.3 33.4-26 52.7-32.1l21.3 21.3 2.6 2.6c.3.4.7.9 1.1 1.3 3.9 3.9 10.2 3.9 14.1 0l2.6-2.6L353 90.6c10.6-11.8 9.7-30.4-1.6-41.7z"/></g></svg>