<svg xmlns="http://www.w3.org/2000/svg" width="400" height="400" viewBox="0 0 400 400"><path fill-rule="evenodd" clip-rule="evenodd" fill="#333" d="M352.7 152.2C326.3 67.9 236.5 20.9 152.2 47.3 67.9 73.7 20.9 163.5 47.3 247.8c1 3.2 2.1 6.3 3.3 9.3.1.2.1.4.2.6.1.1.1.3.2.4 2 4.6 7.2 7.1 12.2 5.5 5.3-1.6 8.2-7.3 6.6-12.5-.1-.3-.2-.7-.4-1-1-2.7-2-5.5-2.9-8.4C43.3 168 84.4 89.5 158.2 66.4c73.8-23.1 152.3 18 175.5 91.8 23.1 73.8-18 152.3-91.8 175.4-51.1 16-104.4 1.2-140.1-33.9l-.8-.8c-2.5-2.3-6.2-3.2-9.6-2.1-5.3 1.7-8.2 7.3-6.6 12.5.6 1.8 1.6 3.3 2.9 4.4 40.8 40.2 101.8 57.1 160.2 38.8 84.2-26.2 131.2-116 104.8-200.3z"/><path fill="#333" d="M266 158c-.1-1.2-.2-2.5-.2-3.7-.1-2.7-.3-5.5-.8-8.3-5.1-30.3-33.5-54-64.7-54-3.8 0-7.5.4-11.2 1-30.2 5.7-51.2 28.2-54.7 58.6-.5 4.3-.3 8.7.1 13.8.4 5.2 4.9 9.1 10.2 8.7 5.2-.3 9-4.6 8.9-10.1 0-1-.1-2-.1-3-.7-13.3 3.9-25.8 12.8-35.1 8.8-9.3 20.9-14.4 33.8-14.4 2.4 0 4.9.2 7.3.5 14.5 2.2 26.9 11 33.9 24.3s7.4 28.6 1 41.8c-4.6 9.6-12.2 17-23.2 22.7-16.3 8.4-27.4 21.6-33.1 39-3.4 10.5-4 21.3-1.9 32 .9 4.7 4.7 8 9.3 8 .3 0 .7 0 1-.1 5.4-.6 8.8-4.7 8.7-10.3-.1-2.7-.2-5.4-.2-8 0-4-.1-7.8.6-11.4 2.9-14.4 11.6-25.3 26.6-33.2 23.3-12.3 35.4-32.1 35.9-58.7v-.2.1z"/><circle fill="#333" cx="196.8" cy="298" r="10"/></svg>