<svg xmlns="http://www.w3.org/2000/svg" width="400" height="400" viewBox="0 0 400 400"><path fill-rule="evenodd" clip-rule="evenodd" fill="#333" d="M358.6 100.8c0-5.5-4.4-9.9-9.9-9.9s-9.9 4.4-9.9 9.9v211l-79.4 15.8V89.8L348.8 72c5.5 0 9.9-4.4 9.9-9.9s-4.4-9.9-9.9-9.9l-98.3 19.6h-1-.1-1.1L154.2 53c-1.2-.5-2.6-.8-4-.8h-.2c-1.4 0-2.7.3-4 .8L51.9 71.7h-1c-4.1 0-7.7 2.5-9.1 6.1-.6 1.2-.9 2.6-.9 4 0 .5 0 1 .1 1.5v215.6c0 5.5 4.4 9.9 9.9 9.9s9.9-4.4 9.9-9.9V89.8L140.2 74v237.8l-89.4 17.8c-5.5 0-9.9 4.4-9.9 9.9s4.4 9.9 9.9 9.9l99.4-19.8 95.4 19c1.2.5 2.5.8 3.9.8s2.7-.3 3.9-.8l95.5-19.1c5.5 0 9.9-4.4 9.9-9.9 0-.6-.1-1.1-.2-1.7V100.8zM239.4 327.6L160 311.8V73.9l79.4 15.8v237.9z"/></svg>