<svg xmlns="http://www.w3.org/2000/svg" width="400" height="400" viewBox="0 0 400 400"><g fill="#333"><path d="M259.8 144.2c0-33-26.8-59.8-59.8-59.8s-59.8 26.8-59.8 59.8S167 204 200 204c33 .1 59.8-26.7 59.8-59.8zm-99.7 0c0-22 17.9-39.9 39.9-39.9s39.9 17.9 39.9 39.9-17.9 39.9-39.9 39.9-39.9-17.9-39.9-39.9z"/><path d="M352.7 156.2C326.3 71.9 236.5 24.9 152.2 51.3 67.9 77.7 20.9 167.5 47.3 251.8c1 3.2 2.1 6.3 3.3 9.3.1.2.1.4.2.6.1.1.1.3.2.4 2 4.6 7.2 7.1 12.2 5.5 5.3-1.6 8.2-7.3 6.6-12.5-.1-.3-.2-.7-.4-1-1-2.7-2-5.5-2.9-8.4C43.3 172 84.4 93.5 158.2 70.4s152.3 18 175.5 91.8c16 51.1 1.2 104.4-33.8 140-1-54.3-45.3-98-99.8-98-54.6 0-98.9 43.8-99.8 98.2.3.2.5.4.8.6-2.5-2.3-6.2-3.2-9.6-2.1-5.3 1.7-8.2 7.3-6.6 12.5.6 1.8 1.6 3.3 2.9 4.4 40.8 40.2 101.8 57.1 160.2 38.8 84.1-26.3 131.1-116.1 104.7-200.4zm-73.6 163.3c-11.2 7.7-23.7 13.8-37.3 18.1-42.6 13.3-86.8 5.3-121-18.1-1-5-1.5-10.2-1.5-15.5 0-44.5 36.1-80.6 80.6-80.6 44.5 0 80.6 36.1 80.6 80.6.1 5.3-.4 10.5-1.4 15.5z"/></g></svg>