<svg xmlns="http://www.w3.org/2000/svg" width="400" height="400" viewBox="0 0 400 400"><g fill="#333"><path d="M352.7 156.2C326.3 71.9 236.5 24.9 152.2 51.3 67.9 77.7 20.9 167.5 47.3 251.8c1 3.2 2.1 6.3 3.3 9.3.1.2.1.4.2.6.1.1.1.3.2.4 2 4.6 7.2 7.1 12.2 5.5 5.3-1.6 8.2-7.3 6.6-12.5-.1-.3-.2-.7-.4-1-1-2.7-2-5.5-2.9-8.4C43.3 172 84.4 93.5 158.2 70.4c73.8-23.1 152.3 18 175.5 91.8 23.1 73.8-18 152.3-91.8 175.4-51.1 16-104.4 1.2-140.1-33.9l-.8-.8c-2.5-2.3-6.2-3.2-9.6-2.1-5.3 1.7-8.2 7.3-6.6 12.5.6 1.8 1.6 3.3 2.9 4.4 40.8 40.2 101.8 57.1 160.2 38.8 84.2-26.2 131.2-116 104.8-200.3z"/><path d="M284.3 195l-130-70c-4.8-2.3-10.6-.4-13.2 4.3-.1.1-.1.2-.2.4-.1.1-.1.3-.2.4 0 .1 0 .1-.1.2-.1.2-.2.5-.3.7 0 .1 0 .1-.1.2-.1.2-.1.5-.2.7 0 .1 0 .2-.1.3 0 .2-.1.5-.1.7V274.2c0 1.5.3 3.1 1 4.6 2.4 5 8.4 7 13.4 4.6l130-70c3.6-1.7 5.7-5.4 5.6-9.1.3-3.9-1.8-7.5-5.5-9.3zM160 150.7l99.3 53.5-99.3 53.5v-107z"/></g></svg>