<svg xmlns="http://www.w3.org/2000/svg" width="400" height="400" viewBox="0 0 400 400"><path fill="#333" d="M360.7 171.1c0-.1 0-.2.1-.3 1-5.1-2.2-10.2-7.4-11.5l-95.9-27.8L210 54.6c-.8-1.7-2.1-3.2-3.9-4.3-1.5-.9-3-1.3-4.6-1.4h-.5c-1.8 0-3.5.4-5.2 1.4-1.8 1-3.1 2.6-3.9 4.3l-47.5 76.8-95.8 27.8c-5.1 1.3-8.3 6.4-7.4 11.5 0 .1 0 .2.1.3 0 .1 0 .2.1.3.4 1.7 1.2 3.3 2.5 4.6l70.8 69.9-13.5 90.7v.2c-.4 1.9-.3 4 .5 6 2.1 5.1 8 7.5 13.1 5.4l86.2-38.5 86.2 38.5c5.1 2.1 11-.3 13.1-5.4 2.1-5.1-.3-11-5.4-13.1l-90-40.2c-1.3-.5-2.6-.8-4-.8-1.3 0-2.7.2-4 .8l-73.6 32.9 11.6-78.1c.9-4.1-.8-8.1-4-10.4L70 173.6l82.9-24c1.2-.3 2.3-.8 3.2-1.5 1.4-.8 2.6-2 3.5-3.5L200.9 78l41.3 66.8c1 1.7 2.4 2.9 4 3.8.9.5 1.8 1 2.9 1.2l82.9 24-61 60.2c-3.2 2.3-4.9 6.3-4 10.4l6.8 45.8.2 1.4c1 4.5 5 7.8 9.8 7.8 5.5 0 10-4.5 10-10v-.9l-.2-1.2-6.1-41.3 70.8-69.9c1.3-1.3 2.1-2.9 2.5-4.6-.2-.2-.2-.3-.1-.4z"/></svg>