<svg xmlns="http://www.w3.org/2000/svg" width="400" height="400" viewBox="0 0 400 400"><path fill="#333" d="M201.9 210.1c43.5-.7 78.5-36.2 78.5-79.8 0-44.1-35.7-79.8-79.8-79.8-44.1 0-79.8 35.7-79.8 79.8 0 43.5 34.8 78.9 78.1 79.8-76.8.6-138.9 63-138.9 139.9 0 5.5 4.5 10 10 10s10-4.5 10-10v-.9c.5-65.8 54-119.1 120-119.1 66.3 0 120 53.7 120 120 0 5.5 4.5 10 10 10s10-4.5 10-10c0-76.7-61.7-138.9-138.1-139.9zm-61.2-79.8c0-33.1 26.8-59.9 59.9-59.9 33.1 0 59.9 26.8 59.9 59.9 0 33.1-26.8 59.9-59.9 59.9-33.1-.1-59.9-26.9-59.9-59.9z"/></svg>