<svg xmlns="http://www.w3.org/2000/svg" width="400" height="400" viewBox="0 0 400 400"><g fill="#333"><path d="M355.7 156.2C329.3 71.9 239.5 24.9 155.2 51.3 70.9 77.7 23.9 167.5 50.3 251.8c1 3.2 2.1 6.3 3.3 9.3.1.2.1.4.2.6.1.1.1.3.2.4 2 4.6 7.2 7.1 12.2 5.5 5.3-1.6 8.2-7.3 6.6-12.5-.1-.3-.2-.7-.4-1-1-2.7-2-5.5-2.9-8.4C46.3 172 87.4 93.5 161.2 70.4c73.8-23.1 152.3 18 175.5 91.8 23.1 73.8-18 152.3-91.8 175.4-51.1 16-104.4 1.2-140.1-33.9l-.8-.8c-2.5-2.3-6.2-3.2-9.6-2.1-5.3 1.7-8.2 7.3-6.6 12.5.6 1.8 1.6 3.3 2.9 4.4 40.8 40.2 101.8 57.1 160.2 38.8 84.2-26.2 131.2-116 104.8-200.3z"/><path d="M210 219c-5.4-3.8-15.6-13-15.6-18.4 0-6.3 1.8-9.5 11.4-16.9 9.8-7.7 16.7-20.2 16.7-32.7 0-14.9-6.6-24-19.1-36h18.8l13.3-6h-59.2c-26.6 0-51.6 20.1-51.6 43.4 0 23.8 18.1 43 45.1 43 1.9 0 3.7 0 5.5-.2-1.8 3.3-3 7.1-3 11.1 0 6.6 3.6 12 8.1 16.4-3.4 0-6.7.1-10.3.1-32.9 0-58.2 20.9-58.2 42.7 0 21.4 27.8 34.8 60.7 34.8 37.5 0 58.2-21.3 58.2-42.7-.1-17.2-5.2-27.5-20.8-38.6zm-31.7-29.7c-15.3-.5-29.8-17.1-32.4-37.1-2.6-20.1 7.6-35.4 22.9-34.9 15.3.5 29.8 16.5 32.4 36.6 2.6 20-7.6 35.9-22.9 35.4zm-6 101.4c-22.7 0-39.2-14.4-39.2-31.7 0-16.9 20.4-31.1 43.1-30.8 5.3.1 10.3.9 14.7 2.4 12.3 8.6 21.2 13.4 23.7 23.2.5 2 .7 4 .7 6.1.1 17.3-11 30.8-43 30.8z"/><path d="M273.2 192.6v-29.9h-12v29.9h-29.9v12h29.9v29.9h12v-29.9H303v-12h-29.8z"/></g></svg>