<svg xmlns="http://www.w3.org/2000/svg" width="400" height="400" viewBox="0 0 400 400"><path fill="#333" d="M249.8 286.4l-39.5 39.5V210c0-5.5-4.5-10-10-10s-10 4.5-10 10v116.5l-40.2-40.2c-3.9-3.9-10.2-3.9-14.1 0-3.9 3.9-3.9 10.2 0 14.1l56.6 56.6c2 2 4.7 3 7.4 2.9h1.4c.1 0 .3 0 .4-.1.2 0 .4 0 .5-.1.2 0 .3-.1.5-.1s.3-.1.5-.1.3-.1.5-.2.3-.1.5-.2c.1-.1.3-.1.4-.2.2-.1.3-.1.5-.2.1-.1.2-.1.4-.2s.3-.2.5-.3c.1-.1.3-.2.4-.3.1-.1.3-.2.4-.3.2-.2.4-.3.6-.5l.1-.1 56.6-56.6c3.9-3.9 3.9-10.2 0-14.1-4.1-3.8-10.5-3.8-14.4.1z"/><path fill="#333" d="M274.2 58.2c-78.3-41-175-10.7-215.9 67.6C28.8 182 36.1 247.7 71.5 295.4c.3.3.5.7.8 1 1.8 2.1 4.5 3.5 7.6 3.5 5.5 0 10-4.5 10-10 0-2.4-.9-4.7-2.3-6.4-31-41.8-37.3-99.2-11.6-148.4 35.8-68.5 120.4-95 189-59.2 68.5 35.8 95 120.4 59.2 189-3.3 6.4-7.1 12.3-11.2 18l.1.1c-1.8 1.8-2.9 4.3-2.9 7 0 5.5 4.5 10 10 10 2.9 0 5.6-1.3 7.4-3.3.4-.5.8-1 1.1-1.5 4.8-6.6 9.3-13.6 13.2-21 40.8-78.3 10.6-175-67.7-216z"/></svg>