<svg xmlns="http://www.w3.org/2000/svg" width="400" height="400" viewBox="0 0 400 400"><g fill="#333"><path d="M352.7 152.2C326.3 67.9 236.5 20.9 152.2 47.3 67.9 73.7 20.9 163.5 47.3 247.8c1 3.2 2.1 6.3 3.3 9.3.1.2.1.4.2.6.1.1.1.3.2.4 2 4.6 7.2 7.1 12.2 5.5 5.3-1.6 8.2-7.3 6.6-12.5-.1-.3-.2-.7-.4-1-1-2.7-2-5.5-2.9-8.4C43.3 168 84.4 89.5 158.2 66.4c73.8-23.1 152.3 18 175.5 91.8 23.1 73.8-18 152.3-91.8 175.4-51.1 16-104.4 1.2-140.1-33.9l-.8-.8c-2.5-2.3-6.2-3.2-9.6-2.1-5.3 1.7-8.2 7.3-6.6 12.5.6 1.8 1.6 3.3 2.9 4.4 40.8 40.2 101.8 57.1 160.2 38.8 84.2-26.2 131.2-116 104.8-200.3z"/><path d="M199.8 110c-5.5 0-9.9 4.5-9.9 10v136.5L150 216.3c-3.9-3.9-10.2-3.9-14.1 0-3.9 3.9-3.9 10.2 0 14.1l56.2 56.6c2 2 4.7 3 7.4 2.9h1.2c.2 0 .3 0 .5-.1.2 0 .3 0 .5-.1.2 0 .3-.1.5-.1.1 0 .3-.1.4-.1.2-.1.3-.1.5-.2.1-.1.3-.1.4-.2.1-.1.3-.1.4-.2.2-.1.3-.1.5-.2.1-.1.3-.2.4-.2.1-.1.3-.2.4-.3.1-.1.3-.2.4-.3.1-.1.3-.2.4-.3.2-.2.4-.3.6-.5.1 0 .1-.1.2-.1l56.2-56.6c3.9-3.9 3.9-10.2 0-14.1-3.9-3.9-10.2-3.9-14.1 0l-39.3 39.5V119.9c.2-5.5-4.3-9.9-9.8-9.9z"/></g></svg>