<svg xmlns="http://www.w3.org/2000/svg" width="400" height="400" viewBox="0 0 400 400"><g fill="#343433"><path d="M123.4 335.6c-.7-.3-1.4-.5-2.2-.5-.8 0-1.5.1-2.2.5-.7.3-1.3.7-1.8 1.2s-.9 1.1-1.2 1.8c-.3.7-.4 1.4-.4 2.2 0 .8.1 1.5.4 2.2.3.7.7 1.3 1.2 1.8s1.1.9 1.8 1.2c.7.3 1.4.4 2.2.4.8 0 1.5-.1 2.2-.4.7-.3 1.3-.7 1.8-1.2s.9-1.1 1.2-1.8c.3-.7.4-1.4.4-2.2 0-.8-.1-1.5-.4-2.2-.3-.7-.7-1.3-1.2-1.8s-1.1-.9-1.8-1.2zM175.6 299.3c-2.4-2.4-5.3-4.2-8.7-5.6-3.4-1.3-7.1-2-11.2-2H135v54.2h20.7c4.1 0 7.8-.7 11.2-2 3.4-1.3 6.3-3.2 8.7-5.6 2.4-2.4 4.3-5.3 5.6-8.6 1.3-3.3 2-7 2-10.9 0-4-.7-7.6-2-10.9-1.3-3.3-3.2-6.2-5.6-8.6zm-3.9 27.5c-.8 2.4-1.9 4.4-3.4 6-1.5 1.6-3.3 2.9-5.4 3.8-2.1.9-4.5 1.3-7.1 1.3h-10.5v-38.2h10.5c2.6 0 5 .4 7.1 1.3 2.1.9 3.9 2.1 5.4 3.8 1.5 1.6 2.6 3.6 3.4 6 .8 2.4 1.2 5 1.2 8s-.4 5.7-1.2 8zM204.4 293.2c-3.4 1.4-6.3 3.3-8.7 5.8-2.4 2.5-4.3 5.4-5.6 8.8-1.3 3.4-2 7.1-2 11 0 4 .7 7.7 2 11 1.3 3.4 3.2 6.3 5.6 8.8 2.4 2.5 5.3 4.4 8.7 5.8 3.4 1.4 7.1 2.1 11.2 2.1s7.8-.7 11.2-2.1c3.4-1.4 6.3-3.3 8.7-5.8 2.4-2.5 4.3-5.4 5.6-8.8 1.3-3.4 2-7.1 2-11 0-4-.7-7.7-2-11-1.3-3.4-3.2-6.3-5.6-8.8-2.4-2.5-5.3-4.4-8.7-5.8-3.4-1.4-7.1-2.1-11.2-2.1-4 0-7.8.7-11.2 2.1zm23.8 11.6c1.5 1.6 2.6 3.7 3.4 6 .8 2.4 1.2 5 1.2 8s-.4 5.6-1.2 8c-.8 2.4-1.9 4.4-3.4 6-1.5 1.6-3.3 2.9-5.4 3.8-2.1.9-4.5 1.3-7.1 1.3-2.6 0-5-.4-7.2-1.3-2.1-.9-3.9-2.1-5.4-3.8-1.5-1.6-2.6-3.6-3.4-6-.8-2.4-1.2-5-1.2-8s.4-5.6 1.2-8c.8-2.4 1.9-4.4 3.4-6 1.5-1.6 3.3-2.9 5.4-3.8 2.1-.9 4.5-1.3 7.2-1.3 2.6 0 5 .4 7.1 1.3 2.1.9 3.9 2.2 5.4 3.8zM263.1 304.9c1.5-1.6 3.4-2.9 5.5-3.8 2.1-.9 4.5-1.3 7-1.3 2.2 0 4 .2 5.4.7 1.4.5 2.6.9 3.5 1.5.9.5 1.7 1 2.3 1.5.6.4 1.2.7 1.8.7.5 0 1-.1 1.3-.3.3-.2.6-.5.8-.8l3.4-4.7c-2.1-2.1-4.7-3.8-7.7-5.1-3-1.3-6.5-1.9-10.6-1.9s-7.9.7-11.3 2c-3.4 1.4-6.3 3.3-8.8 5.7-2.4 2.4-4.3 5.4-5.7 8.8-1.3 3.4-2 7.1-2 11.2 0 4 .6 7.7 1.8 11.1 1.2 3.4 3 6.3 5.2 8.8 2.3 2.4 5 4.4 8.2 5.7 3.2 1.4 6.8 2.1 10.9 2.1 4.5 0 8.4-.7 11.6-2.2 3.2-1.4 5.9-3.5 8.1-6.3l-4-4.3c-.4-.4-.9-.6-1.4-.6-.3 0-.6.1-.9.2-.3.1-.5.3-.8.5-.8.8-1.7 1.4-2.5 1.9s-1.7.9-2.7 1.3c-.9.3-2 .6-3.1.7-1.1.2-2.4.2-3.7.2-2.3 0-4.4-.4-6.4-1.3s-3.7-2.1-5.2-3.7-2.6-3.6-3.5-6c-.9-2.4-1.3-5.1-1.3-8.1 0-2.9.4-5.6 1.3-8 .8-2.6 2-4.6 3.5-6.2zM280.1 88.3c.1.1.2.1.3.2-.1-.1-.2-.2-.3-.2z"/><path d="M338 375V157.6c0-3-1.3-5.6-3.4-7.4l-78.4-78.4c-1.8-1.9-4.4-3.1-7.2-3.1-5.5 0-9.9 4.4-9.9 9.9v77.8c-.1.4-.1.9-.1 1.3 0 4.1 2.5 7.7 6.1 9.1 1.2.5 2.5.8 3.9.8H318.3v198H80.7V88.4h95.1v3.2h.2v98.2c-.7 11.2-8.6 20.8-21.3 20.8h-4c-11.1 0-24.3-9-24.3-22.4v-76.3h-.2v-.3c0-5.2-4.3-9.4-9.7-9.4-5.3 0-9.7 4.2-9.7 9.4v76.6h-.2c0 24 20 43.5 44.7 43.5 24.7 0 44.7-19.5 44.7-43.5V91.6h.1v-3.2h13.2c5.5 0 9.9-4.4 9.9-9.9s-4.4-9.9-9.9-9.9h-13.2V43.5c-.2-16.6-13.6-30-30.2-30-16.7 0-30.3 13.6-30.3 30.3v24.8H71.9c-.4 0-.7-.1-1-.1-5.5 0-9.9 4.4-9.9 9.9v296.8c0 1 .2 2 .5 3 1.2 4.1 5 7 9.5 7h257.2c5.5 0 9.9-4.4 9.9-9.9-.1 0-.1-.2-.1-.3zm-79.2-227.3v-44.5l45.1 44.5h-45.1zm-93-114c5.6 0 10.1 4.5 10.1 10.1v24.8h-20.2V43.5c.2-5.4 4.6-9.8 10.1-9.8z"/></g></svg>