<svg xmlns="http://www.w3.org/2000/svg" width="400" height="400" viewBox="0 0 400 400"><g fill="#333"><path d="M200 39c-88.4 0-160 71.6-160 160 0 24.2 5.4 47.1 15 67.7.2.5.4.9.7 1.4 3.3 6.5 10 11 17.8 11 11 0 20-9 20-20 0-3.2-.8-6.2-2.1-8.9C84.1 234.6 80 217.3 80 199c0-66.3 53.7-120 120-120s120 53.7 120 120-53.7 120-120 120c-18.3 0-35.7-4.1-51.2-11.5-.3-.1-.6-.3-.8-.4-2.4-1-5-1.5-7.7-1.5-11 0-20 9-20 20 0 8.3 5.1 15.4 12.3 18.4 20.4 9.7 43.3 15 67.4 15 88.4 0 160-71.6 160-160S288.4 39 200 39z"/><path d="M200 238.9c-11 0-20-9-20-20v-98.6c0-11 9-20 20-20s20 9 20 20v98.6c0 11.1-9 20-20 20zM220.1 278.6c0 11.1-9 20.1-20.1 20.1-11.1 0-20.1-9-20.1-20.1 0-11.1 9-20.1 20.1-20.1 11.1 0 20.1 9 20.1 20.1z"/></g></svg>