<svg xmlns="http://www.w3.org/2000/svg" width="400" height="400" viewBox="0 0 400 400"><path fill="#333" d="M321.4 270.6c-14-18.3-31-30.1-55.3-36.9l-22.8 79.6c0 7.3-6 13.3-13.4 13.3-7.3 0-13.4-6-13.4-13.3V250c0-9.2-7.5-16.7-16.7-16.7s-16.7 7.5-16.7 16.7v63.3c0 7.3-6 13.3-13.4 13.3-7.3 0-13.4-6-13.4-13.3l-22.8-79.6c-24.3 6.8-41.3 18.6-55.3 36.9-5.5 7.2-8.6 21.7-8.7 29.4.1 2 0 4.3 0 6.7v26.6c0 14.7 12 26.7 26.7 26.7h206.9c14.8 0 26.7-11.9 26.7-26.7v-26.6c0-2.3-.1-4.7 0-6.7.2-7.7-2.8-22.2-8.4-29.4zM129.9 110.5c0 38.9 24.3 96.1 70.1 96.1 45 0 70.1-57.2 70.1-96.1 0-38.9-31.4-70.5-70.1-70.5s-70.1 31.6-70.1 70.5z"/></svg>