<svg xmlns="http://www.w3.org/2000/svg" width="400" height="400" viewBox="0 0 400 400"><path fill="#333" d="M183.9 83z"/><path fill-rule="evenodd" clip-rule="evenodd" fill="#333" d="M361 241.9c0-5.5-4.5-10-10-10l-150.3 20h-1.6L49 231.9c-5.5 0-10 4.5-10 10s4.5 10 10 10l140.2 18.7v40.1L59.1 293.3v-11.5c0-5.5-4.5-10-10-10s-10 4.5-10 10v18.6c-.1.5-.1 1-.1 1.5 0 5.5 4.5 10 10 10l147.6 19.6c.8.2 1.7.4 2.6.4h1.6L351 312c5.5 0 10-4.5 10-10v-.2-59-.4-.5zm-151.8 28.9l131.9-17.6v40.1l-131.9 17.6v-40.1zM350.2 332.5l-150.2 20-150.2-20c-5.5 0-10 4.5-10 10s4.5 10 10 10L197.1 372c.9.3 1.8.4 2.8.4h.2c1 0 1.9-.1 2.8-.4l147.3-19.6c5.5 0 10-4.5 10-10s-4.5-9.9-10-9.9z"/><path fill="#333" d="M220.1 93c-7 0-13.7 1-20.1 2.9-6.4-1.9-13.1-2.9-20.1-2.9-38.6 0-70 31.3-70 70 0 6.5.9 12.7 2.5 18.7.4-.1 2.7 11.5 11.2 11.5 5.4 0 9.8-4.3 10-9.6v-.5c0-2.6-3-7.6-2.8-7.6-1-4-1.6-8.2-1.6-12.5 0-24.9 18-45.6 41.6-49.8 2.9-.5 5.9-.8 9-.8 3.6 0 7.1.4 10.5 1.1-.3 1-.5 2-.5 3 0 5.6 4.5 10.1 10.1 10.1s10.1-4.5 10.1-10.1c0-1.1-.2-2.1-.5-3 3.4-.7 6.9-1.1 10.5-1.1 3.1 0 6.1.3 9 .8 23.7 4.3 41.6 24.9 41.6 49.8s-18 45.6-41.6 49.8c-2.9.5-5.9.8-9 .8-3.4 0-6.8-.3-10-1-.2-5.4-4.6-9.7-10.1-9.7s-9.9 4.3-10.1 9.7c-3.2.6-6.6 1-10 1-3.1 0-6.1-.3-9-.8-4.1-.7-13.6-4.2-14.3-4.9-1-.9-5.5-2.5-6.6-2.5-5.6 0-10.1 4.5-10.1 10.1 0 2.5.9 4.7 2.4 6.5 1.5 1.8 7.1 3.8 7.1 4 9.2 4.5 19.6 7.1 30.6 7.1 7 0 13.7-1 20.1-2.9 6.4 1.9 13.1 2.9 20.1 2.9 38.6 0 70-31.3 70-70S258.7 93 220.1 93zM249.6 37.8c0-2.4-.8-4.7-2.3-6.4-.2-.2-.4-.5-.6-.7l-.1-.1c-.2-.2-.4-.4-.6-.5-.1 0-.1-.1-.2-.1-.2-.1-.4-.3-.6-.4-.1-.1-.2-.1-.3-.2-.2-.1-.3-.2-.5-.3-.1-.1-.3-.1-.4-.2-.1-.1-.3-.2-.4-.2-.2-.1-.4-.1-.5-.2-.1 0-.2-.1-.4-.1-.2-.1-.5-.1-.7-.2-.1 0-.2 0-.3-.1-.3-.1-.6-.1-.9-.1h-.1c-.3 0-.7-.1-1-.1-27.6-.1-50 22.2-50.1 49.8v.1c0 5.5 4.5 10 10 10 4.3 0 7.9-2.7 9.4-6.4-.1-1.2-.2-2.4-.2-3.6 0-1.2.1-2.4.2-3.5 1.4-11.5 9-21.1 19.5-25.1-1.8 4.6-4.8 8.7-8.5 12-1.2.6-2.3 1.4-3.2 2.4-1.5 1.8-2.5 4-2.5 6.6 0 5.5 4.4 10 10 10 .9 0 2.5 0 8.6-4.8 10.1-9.5 16.7-22.8 16.7-37.6z"/></svg>