<svg xmlns="http://www.w3.org/2000/svg" width="400" height="400" viewBox="0 0 400 400"><g fill="#333"><path d="M314.2 223.6l-2.7 1.5c13.7 1.5 30.2 1.3 39.8-6 5.3-4 7.9-9.8 7.9-17.7 0-8.9-2.8-15.3-8.5-19.6-7.4-5.6-18.4-6.7-28.4-6.2.7.6 1.3 1.2 2 1.9 5.2 5.7 7.4 13.4 6.1 21.8-1.4 9.7-7.5 19.1-16.2 24.3zM81.1 180.8c2.6-2.2 5.6-4.1 8.9-5.6-14-1.7-31.4-1.7-41.4 5.8-5.3 4-7.9 9.8-7.9 17.7 0 9.1 2.8 15.6 8.6 20.1 7.8 6.1 19.7 7.3 29.9 6.9-3.3-2.1-5.9-4.9-7.6-8.5-6.3-13.6-3.2-25.5 9.5-36.4z"/><path d="M149.2 218.4c-7.9 5.1-16.4 9.4-26.4 12.5-4.1 1.3-27.8 6.2-43 6.2-12.1 0-25.5-2.1-35.1-9.5-.7-.5-1.3-1.1-1.9-1.7 1.7 3.4 3.6 6.7 5.9 10.1 13.3 19.5 37.7 31.1 65.4 31.1 6.8 0 13.6-.7 20.4-2.1 16-3.3 29.1-10.2 40.8-17.6-11.8-6.1-21.2-16.4-26.1-29zM253.4 184.1c6.4-4.6 13.1-8.7 20.7-12.2 5.5-2.5 12.4-4.5 20-5.8 3.3-.5 47-4 61.3 6.8.6.5 1.1.9 1.7 1.4-2.3-4.8-5.2-9.4-8.8-13.8-11.2-13.4-33.1-27.7-61.3-27.7-13.2 0-26.2 3.1-38.7 9.3-6.2 3.1-12 6.7-17.5 10.4 10.9 7.5 19.1 18.6 22.6 31.6z"/><path d="M320.3 237.1c-11.3 0-22.4-.3-30.4-1.9-2.9.5-5.8 2.1-8.8 2.1-9.8 0-19.4-4.3-27.5-8.8-6-3.3-11.2-8.6-16.1-12.8-.3-.2-.6-.5-.8-.7-3.8 1.6-7.4 3.3-10.3 5.6-.5.7-1.1 1.5-1.7 2.1l-2.4 2.4c-.9.8-1.8 1.5-2.7 2.2l1.1.5 1.5.8-1.6-.7-1-.5c-2.7 1.9-5.6 3.4-8.7 4.5-9.8 3.4-20.8 2.3-29.9-3.3h-.1c-1.8-1.1-3.5-2.4-5.1-3.9-6.9-6.4-10.7-19.7-11-23.7-.1-6.5 1.4-12.8 4.7-18.4h.1c.3-.6.6-1.1 1-1.6.1-.2.3-.4.4-.6.9-1.3 2-2.6 3.1-3.9 1.6-1.7 3.4-3.3 5.2-4.6 2.7-1.9 5.6-3.5 8.7-4.5 9.8-3.4 20.8-2.4 29.9 3.3 1.8 1.2 3.6 1.8 5.3 3.3 6.9 6.4 10.5 15 10.9 23 .1 4-2.3 16-7.6 23.1 2.9-2.3 6.5-3.8 10.3-5.4.3.2.6.8.8 1 2.5-5.8 3.7-11.9 3.5-17.5-.2-5.3-1.4-10.6-3.7-15.5-2.2-4.8-5.4-9.3-9.5-13.2-10.7-10-25.1-13.2-38.3-10.1-2.3.5-4.5 1.3-6.6 2.2-9.5-8.1-20.3-15.8-33.7-21.5-11.8-5-24.9-7.7-37.8-7.7-23.7 0-44.7 8.7-57.5 23.8-4.7 5.6-8.4 11.2-11.2 17 .5-.4.9-.8 1.4-1.2 19.7-14.9 57.8-8.1 72.5-4.7h1.2c10.9 0 21.8 2.8 31.5 8 4.3 2.3 8.2 4.9 11.8 7.7-2.5 5.7-3.7 11.8-3.6 17.9.2 5 1.5 10.6 3.7 15.5.1-.3.3-.5.5-.6-.2.2-.4.4-.5.6 2.2 4.8 5.8 8.9 9.5 13.2 1.1 1.3 15.4 15.6 38.3 10.1 2.5-.6 5-1.5 7.4-2.6 3.6-1.6 10-6.3 10-6.3-3.1 2.7-6.5 4.7-10.1 6.4 0 .1-.1.2-.1.2 10.3 9 22.6 17.8 38.6 23.7 11.2 4.2 22.8 6.3 34.3 6.3 19.6 0 37.6-6.2 50.6-17.6 7.6-6.7 13.4-14.4 17.3-22.8-.3.3-.6.6-1 .8-9.3 7.1-22.7 9.3-35.8 9.3z"/><path d="M217.1 182.6c-.1 0-.1 0-.1.1l-.5.3c.4-.1.8-.3.6-.4zM199.2 204.6c.2 0 .3.1.4.1.1-.1-.1-.1-.4-.1zM215.9 183.5l.6-.5c-.3.2-.6.3-.6.5zM217.1 182.6c.1-.1-.2-.1 0 0z"/><path d="M199.5 195.4l-17.8-12.7c-.3-.2-.8-.2-1.1-.1-.3.2-.6.5-.6.9v29.9c0 .5.6.9 1.1 1l10.5.8c.3 0-.3-.1-.1-.3.2-.2-.5-.4-.5-.7V213c0-.5.5-.9 0-1-1.7-.1-2.4-.4-3.5-.9s-2.1-1.2-2.4-1.8c-.3-.6-1.1-1.9-1.1-4.1v-12.1l14.9 11.3 13.1-11.3v12.1c0 2.2 1 3.5.6 4.1-.4.7-.4 1.3-1.4 1.8-1 .5-3.4.8-5.1.9-.5 0-2.1.5-2.1 1v1.2c0 .3 1.7.5 1.9.7.2.2 1.3.3 1.5.3l9.1-.8c.5 0-.5-.5-.5-1v-29.9l-16.5 11.9z"/><path d="M199.2 204.6c-.1 0-.3-.1-.4-.1 0 0 .2 0 .4.1z"/></g></svg>