<svg xmlns="http://www.w3.org/2000/svg" width="400" height="400" viewBox="0 0 400 400"><g fill="#323232"><path d="M90.8 291.8c-7.2 0-13.1-5.9-13.1-13.1 0-7.2 5.9-13.1 13.1-13.1h26.6c7.2 0 13.1 5.9 13.1 13.1 0 7.2-5.9 13.1-13.1 13.1H90.8zM90.8 214.2c-7.2 0-13.1-5.9-13.1-13.1 0-7.2 5.9-13.1 13.1-13.1h26.6c7.2 0 13.1 5.9 13.1 13.1 0 7.2-5.9 13.1-13.1 13.1H90.8zM90.8 136.6c-7.2 0-13.1-5.9-13.1-13.1 0-7.2 5.9-13.1 13.1-13.1h26.6c7.2 0 13.1 5.9 13.1 13.1 0 7.2-5.9 13.1-13.1 13.1H90.8zM164 291.8c-7.2 0-13.1-5.9-13.1-13.1 0-7.2 5.9-13.1 13.1-13.1h145c7.2 0 13.1 5.9 13.1 13.1 0 7.2-5.9 13.1-13.1 13.1H164zM164 214.2c-7.2 0-13.1-5.9-13.1-13.1 0-7.2 5.9-13.1 13.1-13.1h145c7.2 0 13.1 5.9 13.1 13.1 0 7.2-5.9 13.1-13.1 13.1H164zM164 136.6c-7.2 0-13.1-5.9-13.1-13.1 0-7.2 5.9-13.1 13.1-13.1h145c7.2 0 13.1 5.9 13.1 13.1 0 7.2-5.9 13.1-13.1 13.1H164z"/></g></svg>