<svg xmlns="http://www.w3.org/2000/svg" width="400" height="400" viewBox="0 0 400 400"><path fill="#333" d="M280.4 120.2c0-44.1-35.7-79.8-79.8-79.8-44.1 0-79.8 35.7-79.8 79.8 0 43.5 34.8 78.9 78.1 79.8h3c43.5-.7 78.5-36.2 78.5-79.8zM200.6 180c-33.1 0-59.9-26.8-59.9-59.9 0-33.1 26.8-59.9 59.9-59.9 33.1 0 59.9 26.8 59.9 59.9-.1 33.1-26.9 59.9-59.9 59.9zM297.1 250.9c-5-4.9-10.4-9.5-16.1-13.6-5-3.7-10.4-7-15.9-10-5.9-3.2-12.1-6-18.5-8.3-12.9-4.7-26.8-7.6-41.2-8.2H192c-45.5 2.1-85.2 26-109.2 61.3-3.8 5.6-7.2 11.4-10.1 17.5-1.8 3.8-3.5 7.6-5 11.6-2.5 6.5-4.4 13.3-5.9 20.2-2 9.4-3.1 19.2-3.1 29.2h.1c0 5.5 4.5 10 10 10s10-4.5 10-10v-.9c0-6 .5-12 1.5-17.8 1.1-6.8 2.7-13.5 4.9-19.9 1.9-5.6 4.2-11 6.9-16.2 11.3 2.8 23.1 4.4 35.2 4.7-3.7 0 9.3.1 6.1 0 48-.8 90.9-22.7 119.7-56.9 6.8 3.5 13.3 7.6 19.3 12.3-23.9 43-69.8 72.1-122.4 72.1-12.6 0-24.7-1.7-36.3-4.8v.1c-1.1-.4-2.3-.7-3.6-.7-5.5 0-10 4.5-10 10 0 4.4 2.8 8.1 6.7 9.4.4.1.7.2 1.1.3 12.4 3.4 25.3 5.3 38.7 5.6-3.7 0 9.3.1 6.1 0 57.3-.9 107.3-32 134.8-78.1 19.5 21.3 31.3 49.7 31.3 80.9 0 5.5 4.5 10 10 10s10-4.5 10-10c0-39.1-15.9-74.4-41.7-99.8zm-166.4 29.6c-9.4 0-18.5-.9-27.3-2.7 21.9-28.7 56.5-47.2 95.4-47.2 12 0 23.6 1.8 34.6 5.1-25.6 27.6-62.1 44.8-102.7 44.8z"/></svg>