<svg xmlns="http://www.w3.org/2000/svg" width="400" height="400" viewBox="0 0 400 400"><g fill="#323232"><path d="M319.5 219.3l.3-39.7c0-.5-.1-1.1-.1-1.6-.5-5-4.8-9-10-9H99.3v-.1c.2-55.3 45.5-99.8 101.3-99.5 44.3.2 81.8 29.4 94.7 69.6.5 5 4.8 8.9 9.9 8.9 5.5 0 10-4.5 10-10 0-1.8-.5-3.5-1.3-4.9-14.7-49.8-60.1-84-114.5-83.9-66 .1-119.7 54.4-119.7 121 0 2.6.1 5.3.3 7.9h.1v57.7c0 .9.1 1.8.4 2.6l.3 3c6.3 60.8 57.5 108.5 119.4 108.4 66-.1 119.7-54.4 119.7-121 0-3.4-.1-6.5-.4-9.4zM199 329.2c-50.7-.2-91.7-38.1-98-87.4-.3-2-.6-4-.9-6.1V188.9h199.7l.4 44.7c-2.2 53.5-46.6 95.9-101.2 95.6z"/><path d="M198.8 216.7c-17.1 0-30.8 13.8-30.8 30.9 0 13.5 8.9 25.1 21 29.2v12.1c0 5.5 4.5 10 10 10s10-4.5 10-10v-12.2c11.9-4.3 20.5-15.7 20.5-29.1 0-17.1-13.8-30.9-30.7-30.9zm.4 41.4c-5.9 0-10.7-4.9-10.7-10.8s4.8-10.7 10.8-10.7c6 0 10.8 4.8 10.8 10.8 0 5.9-4.9 10.7-10.9 10.7z"/></g></svg>