<svg xmlns="http://www.w3.org/2000/svg" width="400" height="400" viewBox="0 0 400 400"><g fill="#333"><path d="M281.5 60.8c.1.1.2.1.3.2-.1 0-.2-.1-.3-.2zM340 350.6V130.9c0-3-1.3-5.7-3.4-7.5l-79.3-79.3c-1.8-1.9-4.4-3.2-7.3-3.2-5.5 0-10 4.5-10 10v78.6c-.1.4-.1.9-.1 1.4 0 4.2 2.5 7.7 6.2 9.2 1.2.5 2.5.8 3.9.8h70V341H80V61h129.9c5.5 0 10-4.5 10-10s-4.5-10-10-10H71c-.3 0-.7-.1-1.1-.1-5.5 0-10 4.5-10 10v300c0 1.1.2 2.1.5 3 1.2 4.1 5.1 7.1 9.6 7.1h260c5.5 0 10-4.5 10-10v-.4zM260 75.9l45.6 45H260v-45z"/></g></svg>