<svg xmlns="http://www.w3.org/2000/svg" width="400" height="400" viewBox="0 0 400 400"><path fill="#333" d="M301.5 228.8v97.7h-56.6v-91.2c0-22.9-8.2-38.5-28.7-38.5-15.7 0-25 10.5-29.1 20.7-1.5 3.6-1.9 8.7-1.9 13.8v95.2h-56.6s.8-154.4 0-170.4h56.6v24.2c-.1.2-.3.4-.4.6h.4v-.6c7.5-11.6 21-28.2 51.1-28.2 37.3 0 65.2 24.3 65.2 76.7zM69.4 73.9c-19.4 0-32.1 12.7-32.1 29.4 0 16.3 12.3 29.4 31.3 29.4h.4c19.7 0 32-13.1 32-29.4-.3-16.6-12.3-29.4-31.6-29.4zM40.7 326.5h56.6V156.1H40.7v170.4zM274.2 111.2L285.7 99l24.7 22.8L350.7 79 363 90.4l-51.8 55.1z"/></svg>