<svg xmlns="http://www.w3.org/2000/svg" width="400" height="400" viewBox="0 0 400 400"><g fill="#333"><path d="M347 144.4c-15.9-15.9-36.9-23.7-57.8-23.4-.4 0-.8-.1-1.2-.1h-36c-5.5 0-10 4.5-10 10s4.5 10 10 10h36.2v.1c16.1-.6 32.4 5.2 44.7 17.5 23.4 23.4 23.4 61.3 0 84.7-12.3 12.3-28.6 18.1-44.7 17.5h-50.5s-17.3.1-18.1.3c-21.1-1.1-37.8-18.6-37.8-39.9 0-10.3 3.9-19.7 10.3-26.7v-.1c2.2-1.8 3.6-4.6 3.6-7.6 0-5.5-4.5-10-10-10-2.5 0-4.9 1-6.6 2.5-.4.4-.8.8-1.2 1.3-9.9 10.7-15.9 25-15.9 40.7 0 33.1 26.9 60 60 60 2.1 0 4.1-.1 6.2-.3h59.9c.4 0 .7 0 1.1-.1 20.9.4 42-7.4 58-23.3 31-31.4 31-81.9-.2-113.1z"/><path d="M347 144.4c-15.9-15.9-36.9-23.7-57.8-23.4-.4 0-.8-.1-1.2-.1h-36c-5.5 0-10 4.5-10 10s4.5 10 10 10h36.2v.1c16.1-.6 32.4 5.2 44.7 17.5 23.4 23.4 23.4 61.3 0 84.7-12.3 12.3-28.6 18.1-44.7 17.5h-50.5s-17.3.1-18.1.3c-21.1-1.1-37.8-18.6-37.8-39.9 0-10.3 3.9-19.7 10.3-26.7v-.1c2.2-1.8 3.6-4.6 3.6-7.6 0-5.5-4.5-10-10-10-2.5 0-4.9 1-6.6 2.5-.4.4-.8.8-1.2 1.3-9.9 10.7-15.9 25-15.9 40.7 0 33.1 26.9 60 60 60 2.1 0 4.1-.1 6.2-.3h59.9c.4 0 .7 0 1.1-.1 20.9.4 42-7.4 58-23.3 31-31.4 31-81.9-.2-113.1z"/><g><path d="M54.3 257.6c15.9 15.9 36.9 23.7 57.8 23.4.4 0 .8.1 1.2.1h37c5.5 0 10-4.5 10-10s-4.5-10-10-10h-37.2v-.1c-16.1.6-32.4-5.2-44.7-17.5-23.4-23.4-23.4-61.3 0-84.7 12.3-12.3 28.6-18.1 44.7-17.5h66.3c.8 0 1.5-.1 2.2-.3 21.1 1.1 37.8 18.6 37.8 39.9 0 10.3-3.9 19.7-10.3 26.7v.1a9.89 9.89 0 0 0-3.6 7.6c0 5.5 4.5 10 10 10 2.5 0 4.9-1 6.6-2.5.4-.4.8-.8 1.2-1.3 9.9-10.7 15.9-25 15.9-40.7 0-33.1-26.9-60-60-60-2.1 0-4.1.1-6.2.3h-59.9c-.4 0-.7 0-1.1.1-20.9-.4-42 7.4-58 23.3-30.9 31.4-30.9 82 .3 113.1z"/><path d="M54.3 257.6c15.9 15.9 36.9 23.7 57.8 23.4.4 0 .8.1 1.2.1h37c5.5 0 10-4.5 10-10s-4.5-10-10-10h-37.2v-.1c-16.1.6-32.4-5.2-44.7-17.5-23.4-23.4-23.4-61.3 0-84.7 12.3-12.3 28.6-18.1 44.7-17.5h66.3c.8 0 1.5-.1 2.2-.3 21.1 1.1 37.8 18.6 37.8 39.9 0 10.3-3.9 19.7-10.3 26.7v.1a9.89 9.89 0 0 0-3.6 7.6c0 5.5 4.5 10 10 10 2.5 0 4.9-1 6.6-2.5.4-.4.8-.8 1.2-1.3 9.9-10.7 15.9-25 15.9-40.7 0-33.1-26.9-60-60-60-2.1 0-4.1.1-6.2.3h-59.9c-.4 0-.7 0-1.1.1-20.9-.4-42 7.4-58 23.3-30.9 31.4-30.9 82 .3 113.1z"/></g></g></svg>