<svg xmlns="http://www.w3.org/2000/svg" width="400" height="400" viewBox="0 0 400 400"><g fill="#323232"><path d="M242 222.1c23.4-13.9 39-39.4 39-68.6 0-44.1-35.7-79.8-79.8-79.8-44.1 0-79.8 35.7-79.8 79.8 0 29 15.5 54.4 38.7 68.4-35.5 15.7-60.2 51.2-60.2 92.4 0 10.7 1.7 21.1 4.8 30.8.2.9.5 1.8.9 2.6 1.6 3.3 5 5.6 9 5.6 5.5 0 10-4.5 10-10 0-.4 0-.7-.1-1.1-.2-1.5-.6-2.8-1.3-4-2.3-7.5-3.6-15.6-3.6-23.9 0-43.3 33.8-78.7 76.5-81.2 1.7.1 3.5.2 5.2.2 1.6 0 3.2-.1 4.8-.2 42.5 2.7 76.1 38 76.1 81.2 0 8.8-1.4 17.3-4 25.2-.1.3-.2.7-.3 1-.2.9-.4 1.8-.4 2.7 0 5.5 4.5 10 10 10 3.4 0 6.5-1.7 8.3-4.4 1-1.5 1.6-3.2 1.7-5 2.9-9.3 4.4-19.2 4.4-29.5-.1-41-24.7-76.4-59.9-92.2zm-100.7-68.6c0-33.1 26.8-59.9 59.9-59.9s59.9 26.8 59.9 59.9c0 32.7-26.2 59.3-58.8 59.9h-2.4c-32.5-.7-58.6-27.3-58.6-59.9z"/><path d="M303.3 193.2c19.3-11.5 31.2-29.7 34.8-52.2.9-4.7 1.3-9.5 1.3-14.4 0-30.9-17.5-57.6-43.1-70.9-.3-.2-.6-.3-1-.5-.3-.2-.6-.3-.9-.5-.1 0-.2-.1-.2-.1-.1-.1-.2-.1-.4-.2 0 0-.1 0-.1-.1-10.3-4.9-21.9-7.6-34-7.6-7.1 0-13.9 1-20.4 2.7-.1 0-.2.1-.3.1-.1 0-.1 0-.2.1-4.3 1.1-7.5 5-7.5 9.7 0 5.5 4.5 10 10 10 .4 0 .9 0 1.3-.1 0 0 .1 0 .1.1.2-.1.5-.1.7-.2.4-.1.7-.2 1.1-.3 4.9-1.3 9.9-2 15.2-2 10.3 0 19.9 2.6 28.4 7.1.3.1.5.3.8.4.4.2.8.4 1.1.7 17.6 10.4 29.4 29.6 29.4 51.5 0 15.1-5.6 29-14.9 39.6-1.8 1.9-3.9 3.9-6 5.9-.4.3-.8.7-1.2 1v.1c-6.1 5.8-12.3 11.2-13.2 12-2.7 2.4-4.8 6-4.2 9.6.6 3.7 3.4 6.2 6.3 8.2l5.1 3.3c3.4 2.4 6.7 4.9 9.9 7.6 4.9 4 9.7 8.2 14 12.8 2.1 2.2 4.1 4.4 5.8 6.9 12.2 14.5 19.5 33.4 19.5 53.8 0 8.8-1.4 17.3-4 25.2-.1.3-.2.7-.3 1-.2.9-.4 1.8-.4 2.7 0 5.5 4.5 10 10 10 3.4 0 6.5-1.7 8.3-4.4.6-1.7 1.2-3.3 1.7-5 2.9-9.3 4.4-19.2 4.4-29.5-.2-41.2-21.7-78.4-56.9-94.1zM96.7 193.2c-19.3-11.5-31.2-29.7-34.8-52.2-.9-4.7-1.3-9.5-1.3-14.4 0-30.9 17.5-57.6 43.1-70.9.3-.2.6-.3 1-.5.3-.2.6-.3.9-.5.1 0 .2-.1.2-.1.1-.1.2-.1.4-.2 0 0 .1 0 .1-.1 10.3-4.9 21.9-7.6 34-7.6 7.1 0 13.9 1 20.4 2.7.1 0 .2.1.3.1.1 0 .1 0 .2.1 4.3 1.1 7.5 5 7.5 9.7 0 5.5-4.5 10-10 10-.4 0-.9 0-1.3-.1 0 0-.1 0-.1.1-.2-.1-.5-.1-.7-.2-.4-.1-.7-.2-1.1-.3-4.9-1.3-9.9-2-15.2-2-10.3 0-19.9 2.6-28.4 7.1-.3.1-.5.3-.8.4-.4.2-.8.4-1.1.7-17.6 10.4-29.4 29.6-29.4 51.5 0 15.1 5.6 29 14.9 39.6 1.8 1.9 3.9 3.9 6 5.9.4.3.8.7 1.2 1v.1c6.1 5.8 12.3 11.2 13.2 12 2.7 2.4 4.8 6 4.2 9.6-.6 3.7-3.4 6.2-6.3 8.2l-5.1 3.3c-3.4 2.4-6.7 4.9-9.9 7.6-4.9 4-9.7 8.2-14 12.8-2.1 2.2-4.1 4.4-5.8 6.9-12 14.5-19.3 33.4-19.3 53.7 0 8.8 1.4 17.3 4 25.2.1.3.2.7.3 1 .2.9.4 1.8.4 2.7 0 5.5-4.5 10-10 10-3.4 0-6.5-1.7-8.3-4.4-.6-1.7-1.2-3.3-1.7-5-2.9-9.3-4.4-19.2-4.4-29.5 0-41.1 21.5-78.3 56.7-94z"/></g></svg>