<svg xmlns="http://www.w3.org/2000/svg" width="400" height="400" viewBox="0 0 400 400"><g fill="#343433"><path d="M123.6 336.8c-.7-.3-1.4-.5-2.2-.5-.8 0-1.5.1-2.2.5-.7.3-1.3.7-1.8 1.2s-.9 1.1-1.2 1.8c-.3.7-.4 1.4-.4 2.2 0 .8.1 1.5.4 2.2.3.7.7 1.3 1.2 1.8s1.1.9 1.8 1.2c.7.3 1.4.4 2.2.4.8 0 1.5-.1 2.2-.4.7-.3 1.3-.7 1.8-1.2s.9-1.1 1.2-1.8c.3-.7.4-1.4.4-2.2 0-.8-.1-1.5-.4-2.2-.3-.7-.7-1.3-1.2-1.8s-1.1-.9-1.8-1.2zM169.2 297.7c-1.7-1.5-3.9-2.7-6.6-3.6-2.6-.8-5.8-1.3-9.4-1.3h-17.7V347h10.1v-19h7.6c3.5 0 6.6-.4 9.2-1.3 2.6-.9 4.8-2.1 6.6-3.7 1.7-1.6 3.1-3.5 3.9-5.6.9-2.2 1.3-4.6 1.3-7.2 0-2.5-.4-4.8-1.2-7-.8-2.1-2-4-3.8-5.5zm-5.7 16.6c-.4 1.2-1.1 2.3-2 3.1-.9.9-2 1.5-3.4 2s-3 .7-4.8.7h-7.6v-19.5h7.6c1.8 0 3.5.2 4.8.7 1.4.4 2.5 1.1 3.4 1.9.9.8 1.6 1.8 2 3 .5 1.2.7 2.5.7 3.9 0 1.6-.2 3-.7 4.2zM202.8 292.9h-20.7v54.2h20.7c4.1 0 7.8-.7 11.2-2 3.4-1.3 6.3-3.2 8.7-5.6 2.4-2.4 4.3-5.3 5.6-8.6 1.3-3.3 2-7 2-10.9 0-4-.7-7.6-2-10.9-1.3-3.3-3.2-6.2-5.6-8.6-2.4-2.4-5.3-4.2-8.7-5.6-3.3-1.3-7.1-2-11.2-2zm16 19.1c.8 2.4 1.2 5 1.2 8s-.4 5.6-1.2 8c-.8 2.4-1.9 4.4-3.4 6-1.5 1.6-3.3 2.9-5.4 3.8-2.1.9-4.5 1.3-7.1 1.3h-10.5v-38.2h10.5c2.6 0 5 .4 7.1 1.3 2.1.9 3.9 2.1 5.4 3.8 1.4 1.6 2.6 3.6 3.4 6zM248.3 325h20.3v-8h-20.3v-16.1h24.1v-8h-34.2v54.2h10.1zM280.3 89.4c.1.1.2.1.3.2-.1-.1-.2-.1-.3-.2z"/><path d="M338.2 376.1V158.7c0-3-1.3-5.6-3.4-7.4l-78.4-78.4c-1.8-1.9-4.4-3.1-7.2-3.1-5.5 0-9.9 4.4-9.9 9.9v77.8c-.1.4-.1.9-.1 1.3 0 4.1 2.5 7.7 6.1 9.1 1.2.5 2.5.8 3.9.8H318.5v198H80.9V89.5H176v3.2h.2v98.2c-.7 11.2-8.6 20.8-21.3 20.8h-4c-11.1 0-24.3-9-24.3-22.4V113h-.2v-.3c0-5.2-4.3-9.4-9.7-9.4-5.3 0-9.7 4.2-9.7 9.4v76.6h-.2c0 24 20 43.5 44.7 43.5 24.7 0 44.7-19.5 44.7-43.5h-.2V92.7h.1v-3.2h13.2c5.5 0 9.9-4.4 9.9-9.9s-4.4-9.9-9.9-9.9h-13.2v-25c-.2-16.6-13.6-30-30.2-30-16.7 0-30.3 13.6-30.3 30.3v24.8H72.1c-.4 0-.7-.1-1-.1-5.5 0-9.9 4.4-9.9 9.9v296.8c0 1 .2 2 .5 3 1.2 4.1 5 7 9.5 7h257.2c5.5 0 9.9-4.4 9.9-9.9-.1-.1-.1-.2-.1-.4zM259 148.9v-44.5l45.1 44.5H259zm-93-114c5.6 0 10.1 4.5 10.1 10.1v24.8h-20.2V44.7c.2-5.5 4.6-9.8 10.1-9.8z"/></g></svg>