<svg xmlns="http://www.w3.org/2000/svg" width="400" height="400" viewBox="0 0 400 400"><path fill="#333332" d="M375.1 225.7c-.5-.5-1-.9-1.6-1.3L296.1 147c-4.4-4.4-11.6-4.4-16 0-2.8 2.8-3.8 6.6-3.1 10.2v32.1H109.2c-.4 0-.8 0-1.3.1-5.7.6-10.1 5.4-10.1 11.2 0 .5 0 1 .1 1.5v16.6l-51.4-51.4 51.4-51.4v16.8c0 .4-.1.8-.1 1.1 0 6.2 5 11.3 11.3 11.3l100.4.1c6.2 0 11.3-5 11.3-11.3 0-6.2-5-11.3-11.3-11.3l-89-.1V90.4c.6-3.5-.4-7.2-3.1-9.9-1.9-1.9-4.4-3-7-3.3-.4 0-.8-.1-1.2-.1-3.8 0-7.1 1.8-9.1 4.6l-76.2 76.1c-.5.4-1 .8-1.5 1.3-2.2 2.2-3.3 5.2-3.3 8.1 0 2.9 1.1 5.9 3.3 8.1.5.5 1 .9 1.5 1.2l77.5 77.4c4.4 4.4 11.5 4.4 15.9 0 2.8-2.8 3.8-6.6 3.1-10.2v-32l167.9.1c6.2 0 11.3-5 11.3-11.3 0-.5 0-1.1-.1-1.6v-16.6l51.4 51.4-51.4 51.4v-17.7c0-6.2-5-11.3-11.3-11.3H187.7c-6.2 0-11.3 5-11.3 11.3 0 6.2 5 11.3 11.3 11.3h89.2v31.8c-.6 3.5.4 7.3 3.1 10 2 2 4.4 3 7 3.3.4 0 .8.1 1.2.1 3.7 0 7-1.8 9.1-4.6l76.1-76.1c.5-.4 1.1-.8 1.5-1.3 2.2-2.2 3.3-5.2 3.3-8.1.2-2.9-.9-5.9-3.1-8.1z"/></svg>