<svg xmlns="http://www.w3.org/2000/svg" width="400" height="400" viewBox="0 0 400 400"><path fill="#333" d="M359.6 64c0-5.3-4.3-9.7-9.7-9.7-.4 0-.8 0-1.2.1H51c-.4 0-.8-.1-1.2-.1-5.3 0-9.7 4.3-9.7 9.7v272h.3c0 5.3 4.2 9.6 9.5 9.7h250v-.1c4.7-.7 8.3-4.7 8.3-9.6s-3.6-8.9-8.3-9.6v-.4H120.1V74.1h219.8V336h.3c0 5.3 4.3 9.7 9.7 9.7 5.3 0 9.7-4.3 9.7-9.7h.3V64h-.3zM100.1 326h-40V74.1h40V326z"/><path fill="#333" d="M140.1 135.1h179.8v19.7H140.1zM140.1 191.8h179.8v19.7H140.1zM140.1 248.4h179.8v19.7H140.1z"/></svg>