<svg xmlns="http://www.w3.org/2000/svg" width="400" height="400" viewBox="0 0 400 400"><g fill="#323232"><path d="M160 118.7c3.2.8 6.6 1.3 10 1.3v.1h30.2c5.5 0 9.9-4.4 9.9-9.9s-4.4-9.9-9.9-9.9h-29.9v-.1h-.3c-10.9 0-19.8-8.9-19.8-19.8 0-7.3 4-13.7 9.8-17.1v7.2c0 5.5 4.4 9.9 9.9 9.9h60.4v-.1c5.2-.3 9.3-4.6 9.3-9.9v-7.2c5.9 3.4 9.9 9.8 9.9 17.1 0 10.9-8.9 19.8-19.8 19.8h-.3v.1c-1.7.1-3.2.5-4.6 1.3-.3.2-.5.3-.8.5-.2.2-.5.3-.7.5 0 0-.1 0-.1.1l-.6.6-.1.1c-.2.2-.3.4-.5.6-.1.1-.1.1-.1.2-.1.2-.3.4-.4.6-.1.1-.1.2-.2.3-.1.2-.2.4-.3.5-.1.1-.1.2-.2.4s-.2.3-.2.5c-.1.1-.1.3-.2.4-.1.2-.1.3-.2.5s-.1.4-.1.5c0 .1-.1.3-.1.4 0 .2-.1.4-.1.7v.3c0 .3-.1.7-.1 1l.1 149.4c0 5.5 4.5 10 10 10s10-4.5 10-10l-.1-140.8c17.1-4.5 29.7-20 29.7-38.5 0-22-17.8-39.7-39.8-39.7h-1.5v.1c-4.8.7-8.4 4.8-8.4 9.8v10h-39.9v-9.6-.3c0-5.5-4.4-9.9-9.9-9.9-22 0-39.7 17.8-39.7 39.8 0 18.3 12.6 33.8 29.7 38.2z"/><path d="M239.9 280.9c-3.2-.8-6.6-1.3-10-1.3h-.2v-.1h-30.2c-5.5 0-9.9 4.4-9.9 9.9s4.4 9.9 9.9 9.9h30v.1h.3c10.9 0 19.8 8.9 19.8 19.8 0 7.3-4 13.7-9.8 17.1v-7.2c0-5.5-4.4-9.9-9.9-9.9h-60.4v.1c-5.2.3-9.3 4.6-9.3 9.9v7.2c-5.9-3.4-9.9-9.8-9.9-17.1 0-11 8.9-19.8 19.8-19.8h.3v-.1c4.6-.2 8.4-3.5 9.3-7.8.2-.7.3-1.5.3-2.3V140c0-5.5-4.5-10-10-10s-10 4.5-10 10l.1 140.9c-17.1 4.5-29.7 20-29.7 38.5 0 22 17.8 39.7 39.8 39.7h1.5v-.1h-.1c4.8-.7 8.5-4.8 8.5-9.8v-10H220v10c0 5.5 4.4 9.9 9.9 9.9 22 0 39.7-17.8 39.7-39.8 0-18.5-12.6-34-29.7-38.4z"/></g></svg>