<svg xmlns="http://www.w3.org/2000/svg" width="400" height="400" viewBox="0 0 400 400"><g fill="#323232"><path d="M222.6 28.3s-.1 0 0 0c.2.1.1 0 0 0zM260 159.3c0-26.5-17.2-49-41.1-56.9l18.8-25.8c.4-.4.7-.9 1-1.4l.1-.1c.9-1.5 1.4-3.2 1.4-5.1 0-5.5-4.5-10-10-10-3.9 0-7.1 2.3-8.7 5.5L212 78.9V50c0-5.5-4.5-10-10-10s-10 4.5-10 10v32.6l-12.8-17.1c-1.6-3.3-5.1-5.5-9.1-5.5-5.5 0-10.1 4.5-10.1 10 0 1.8.5 3.6 1.3 5.1l.1.1c.3.5.7 1 1 1.4l18.8 25.7c-24 7.9-41.3 30.4-41.3 57l50.4 193.2c.4 1.6 1.3 3.2 2.6 4.5 3.9 3.9 10.2 3.9 14.1 0 1.3-1.3 2.1-2.8 2.6-4.5L260 159.3zm-66-39.5c.6-.1 1.1-.2 1.7-.2 1.4-.2 2.8-.2 4.3-.2s3.1.1 4.6.3c.6.1 1.1.1 1.7.2 19.1 3 33.8 19.5 33.8 39.5l-39.5 153.3-14-52.7h3.7c5.5 0 10-4.5 10-10s-4.5-10-10-10h-8.9l-5.3-20h24v.1h.3c5.5 0 10-4.5 10-10s-4.5-10-10-10h-.3v-.1h-29.2l-5.5-21h45c5.5 0 10-4.5 10-10s-4.5-10-10-10H160v.1c0-20 14.8-36.5 34-39.3z"/></g></svg>