<svg xmlns="http://www.w3.org/2000/svg" width="400" height="400" viewBox="0 0 400 400"><g fill="#323232"><path d="M353.7 156.2C327.3 71.9 237.5 24.9 153.2 51.3 68.9 77.7 21.9 167.5 48.3 251.8c1 3.2 2.1 6.3 3.3 9.3.1.2.1.4.2.6.1.1.1.3.2.4 2 4.6 7.2 7.1 12.2 5.5 5.3-1.6 8.2-7.3 6.6-12.5-.1-.3-.2-.7-.4-1-1-2.7-2-5.5-2.9-8.4C44.3 172 85.4 93.5 159.2 70.4c73.8-23.1 152.3 18 175.5 91.8 23.1 73.8-18 152.3-91.8 175.4-51.1 16-104.4 1.2-140.1-33.9l-.8-.8c-2.5-2.3-6.2-3.2-9.6-2.1-5.3 1.7-8.2 7.3-6.6 12.5.6 1.8 1.6 3.3 2.9 4.4 40.8 40.2 101.8 57.1 160.2 38.8 84.2-26.2 131.2-116 104.8-200.3z"/><path d="M122.9 273.3c-5.5 0-10-4.5-10-10s4.5-10 10-10h20.2c5.5 0 10 4.5 10 10s-4.5 10-10 10h-20.2zM122.9 214.3c-5.5 0-10-4.5-10-10s4.5-10 10-10h20.2c5.5 0 10 4.5 10 10s-4.5 10-10 10h-20.2zM122.9 155.3c-5.5 0-10-4.5-10-10s4.5-10 10-10h20.2c5.5 0 10 4.5 10 10s-4.5 10-10 10h-20.2zM178.5 273.3c-5.5 0-10-4.5-10-10s4.5-10 10-10h110.2c5.5 0 10 4.5 10 10s-4.5 10-10 10H178.5zM178.5 214.3c-5.5 0-10-4.5-10-10s4.5-10 10-10h110.2c5.5 0 10 4.5 10 10s-4.5 10-10 10H178.5zM178.5 155.3c-5.5 0-10-4.5-10-10s4.5-10 10-10h110.2c5.5 0 10 4.5 10 10s-4.5 10-10 10H178.5z"/></g></svg>