<svg xmlns="http://www.w3.org/2000/svg" width="400" height="400" viewBox="0 0 400 400"><path fill="#333" d="M330.1 339.5h-260c-5.5 0-10 4.5-10 10s4.5 10 10 10h261c5.5 0 9-4.5 9-10 0-5.6-4.4-10-10-10zM347.4 220.5H88.9c-5.3 0-9.7 4.5-9.7 10s4.3 10 9.7 10h259.5c5.3 0 8.7-4.5 8.7-10 0-5.6-4.4-10-9.7-10zM70.3 260.2c-.1 0-.1 0 0 0zM70.3 260.2c0 .1 0 .1 0 0z"/><path fill="#333" d="M358.9 69.4v-.3V66.5h-.1c-1.2-14.2-12.4-25.6-26.6-27.2v-.2H68v.1c-14.7 1-26.5 12.6-27.8 27.3h-.1V250.9c.5 16.1 13.7 29.5 30 29.5H130s4.4-.1 7.4 3.2c2.9 3.3 2.7 6.8 2.7 6.8V311c0 2.6 1 4.9 2.5 6.6 1.8 2.1 4.5 3.4 7.5 3.4 5.5 0 10-4.5 10-10v-20-.6c0-16.6-13.4-30-30-30H70.3c0 .1 0 0 0 0-5.4-.1-10-4.8-10.1-10.2V69.1c0-5.5 4.5-10 10-10H329c5.5 0 9.9 4.4 10 9.8v181.5c-.3 5.2-4.7 9.8-10 9.8h-.4c0 .2-.1-.1-.1 0h-58.3c-16.6 0-30 13.4-30 30v20.6c0 5.5 4.5 10 10 10 3 0 5.6-1.3 7.5-3.4 1.6-1.8 2.5-4.1 2.5-6.6v-21.1s-.1-4.4 2.9-7.2 7-2.3 7-2.3H329c16.2 0 29.4-13.3 30-29.5v-.7-.3V69.4z"/></svg>