<svg xmlns="http://www.w3.org/2000/svg" width="400" height="400" viewBox="0 0 400 400"><g fill="#333"><path d="M44.3 236.8c-.2-.7-.3-1.3-.4-2-.1.8.1 1.4.4 2z"/><path d="M358.2 175.8c-13.4-87.4-95-147.3-182.3-134-87.4 13.4-147.3 95-134 182.3 1.8 11.8 4.9 23.2 9 33.9.2.6.5 1.3.7 1.9 1.1 1.6 3 2.6 5.1 2.3 2.8-.4 4.7-3 4.3-5.8 0-.2-.1-.3-.1-.5-.2-.4-.3-.9-.5-1.3-2.6-6.7-4.8-13.7-6.4-20.8 0-.2-.1-.3-.1-.4-.8-3.5-1.5-7.1-2-10.7C39.3 140.8 95.5 64.3 177.3 51.8c81.9-12.5 158.4 43.7 170.9 125.5 12.5 81.9-43.7 158.4-125.5 170.9-51.2 7.8-100.2-11.2-132.9-46.5-.4-.4-.7-.8-1.1-1.2-1.1-.9-2.5-1.4-4-1.1-2.8.4-4.7 3-4.3 5.8.1.7.3 1.3.7 1.9.5.5.9 1 1.4 1.5 34.9 37.6 87.1 57.9 141.7 49.5 87.3-13.3 147.3-94.9 134-182.3z"/><path d="M200 99.9c-2.8 0-5 2.2-5 5v177.9l-69.2-69.2c-2-2-5.1-2-7.1 0s-2 5.1 0 7.1l77.8 77.8.1.1c.2.2.4.4.7.6.1.1.3.1.4.2.1.1.3.2.4.2.2.1.4.1.5.2.1 0 .3.1.4.1.3.1.7.1 1 .1.3 0 .7 0 1-.1.1 0 .3-.1.4-.1.2-.1.4-.1.5-.2.2-.1.3-.2.5-.2.1-.1.3-.1.4-.2.3-.2.5-.4.7-.6h.1l77.8-77.8c2-2 2-5.1 0-7.1s-5.1-2-7.1 0L205 282.8V104.9c0-2.8-2.3-5-5-5z"/></g></svg>