<svg xmlns="http://www.w3.org/2000/svg" width="400" height="400" viewBox="0 0 400 400"><g fill="#333"><path d="M229.6 339.5H349.6c5.5 0 10-4.5 10-10v-120c0-5.5-4.5-10-10-10h-60c-5.5 0-10 4.5-10 10s4.5 10 10 10h50v100.1h-99.9v-109-.9c1.2-57.2 37.6-109.9 94.4-129.5.4-.1.9-.3 1.3-.4 3.6-1.5 6.1-5.1 6.1-9.2 0-5.5-4.5-10-10-10-1.2 0-2.4.2-3.5.6-65.1 22.2-106.9 82.8-108.2 148.3 0 .4-.1.7-.1 1.1v119c-.1 5.4 4.4 9.9 9.9 9.9zM40.5 329.5c0 5.5 4.5 10 10 10H170.5c5.5 0 10-4.5 10-10v-120c0-5.5-4.5-10-10-10h-60c-5.5 0-10 4.5-10 10s4.5 10 10 10h50v100.1h-100v-109-.9c1.2-57.2 37.6-109.9 94.4-129.5.4-.1.9-.3 1.3-.4 3.6-1.5 6.1-5.1 6.1-9.2 0-5.5-4.5-10-10-10-1.2 0-2.4.2-3.5.6-65.2 22.1-107 82.6-108.2 148.2 0 .4-.1.7-.1 1.1v119z"/></g></svg>