<svg xmlns="http://www.w3.org/2000/svg" width="400" height="400" viewBox="0 0 400 400"><path fill-rule="evenodd" clip-rule="evenodd" fill="#333" d="M305.4 199.9c-4-11.4-14.8-19.6-27.5-20h-17.1l-8.8-80c12.6-.5 23.1-8.7 27.1-20 1.1-3.1 1.7-6.5 1.7-10s-.6-6.9-1.7-10c-4-11.4-14.8-19.6-27.5-20H151.2h-.1c-13 0-24.1 8.4-28.2 20-1.1 3.1-1.7 6.5-1.7 10s.6 6.9 1.7 10c4 11.3 14.5 19.4 27.1 20l-8.8 80h-17.7-.1c-13 0-24.1 8.4-28.2 20-1.1 3.1-1.7 6.5-1.7 10s.6 6.9 1.7 10c4.1 11.6 15.2 20 28.2 20H162.7l28.6 112c.9 4.8 5.2 8.2 10 8.1 4.8.1 9-3.3 10-8.1l27.4-112h39.4c12.7-.3 23.4-8.6 27.5-20 1.1-3.1 1.7-6.5 1.7-10-.2-3.6-.8-6.9-1.9-10zM200.9 309.3l-17.7-69.5h34.7l-17 69.5zm77.1-89.5h-.9c-.4 0-.7 0-1.1-.1H124.5c-.3 0-.7.1-1.1.1H122.5c-5.1-.4-9.2-4.7-9.2-10s4-9.5 9.2-10H123.4c.4 0 .7 0 1.1.1H149c.4.1.8.1 1.3.1.4 0 .9 0 1.3-.1 4.8-.6 8.6-4.7 8.7-9.7h.1l1.1-10.4 8.8-79.9h20.1c5.5 0 10-4.5 10-10s-4.5-10-10-10h-37.9-.1c-.3 0-.7.1-1 .1.4 0 .7 0 1.1-.1h-1.9c-5.1-.4-9.2-4.7-9.2-10s4-9.5 9.2-10h101.3c5.1.5 9.1 4.7 9.1 10s-4 9.5-9.1 10h-2c.3 0 .7.1 1.1.1-.4 0-.7 0-1.1-.1h-9c-5.5 0-10 4.5-10 10v.3l.1 1.2v.4l.8 8.1 8.8 79.9h-.1l1.1 10.3c0 .5.1 1.1.2 1.6.9 4.6 4.9 8.1 9.8 8.1h.5v.1H276c.3 0 .7-.1 1.1-.1h.9c5.1.5 9.1 4.7 9.1 10s-4 9.5-9.1 10z"/></svg>