<svg xmlns="http://www.w3.org/2000/svg" width="400" height="400" viewBox="0 0 400 400"><path fill="#333" d="M90 199c-8 0-10 10-10 10v87c0 13.7 10 16 10 16s41.7 27 110 27 113.3-24.3 117-29 3-18 3-18V167l29-13s11.3-3.7 11-15-9-14-9-14-129.9-59.6-139-63c-8-3-12-3-12-3-8 .3-14 4-14 4L50 124s-10 2.7-10 13c0 7.7 9 14 9 14s136.7 62 145 66c2.3 1.1 4.3 1.5 6 1.6v.4c5.3 0 14.7-4.7 14.7-4.7l25.3-10.5v36.3c-6.5 3.3-11 10.1-11 17.9 0 11 9 20 20 20s20-9 20-20c0-7-3.6-13.1-9-16.7V190h-.4c.2-1.8-.2-3.8-1.6-6-5.3-8.3-12-4-12-4l-46 19v1L59 137l141-60 141 60-32 16s-9 3.3-9 15v129s-47.3 22-100 22-100-23-100-23v-87c0-8.7-10-10-10-10z"/></svg>