<svg xmlns="http://www.w3.org/2000/svg" width="400" height="400" viewBox="0 0 400 400"><g fill="#323232"><path d="M268.4 113.4c-1.1-2-2.5-4-3.6-5.4-3.5-4.7-7.8-8.9-12.3-12.7-8.7-7.3-19.2-12.9-30.3-15.9-1.6-.4-19.6-3.4-19.6-2.8v.2c-5.2.3-9.4 4.7-9.4 10 0 5.1 3.8 9.3 8.7 9.9v.2c16.5.3 32 7.3 43.1 19.3 4.4 4.8 7.6 13.2 15.3 13.2 5.5 0 10-4.5 10-10 0-2.1-.9-4.2-1.9-6z"/><path d="M201 37.2c-66.2 0-119.9 53.7-119.9 119.9 0 30.2 11.2 57.9 29.7 79 4 4.5 8.2 8.7 12.8 12.6.1.1.1.2.2.2 4.1 5 8.3 9.9 11.6 15.6 1.8 3.1 3.8 6.3 5 9.7.7 2 1.1 4.1 1.2 6.3.1 1.6.1 3.1 0 4.7 0 .6-.1 1.3-.1 1.9.2 5.4 4.7 9.8 10.2 9.8h37.7c5.7 0 10.2-4.6 10.2-10.2 0-5.7-4.6-10.2-10.2-10.2h-25.7c.1-.8.1-1.7.1-2.5 0-.9 0-1.8-.1-2.7-.4-6.1-2.2-11.9-5.1-17-4-7.1-10.7-12-17.2-16.8-1.7-1.5-3.4-2.9-5.2-4.2-21.5-18.3-35.2-45.6-35.2-76.1 0-55.2 44.7-99.9 99.9-99.9s99.9 44.7 99.9 99.9c0 15.3-3.4 30.2-10.2 43.8-3.3 6.6-7.1 13.1-11.7 18.9-6.4 8.1-15.1 14-22.9 20.7-.7.6-1.3 1.1-1.9 1.7-4.1 3.7-8.5 7.2-11.3 12.1-2.9 5.1-4.7 10.9-5.1 16.8-.1 1-.1 2-.1 3 0 6.7 2.6 13.1 3.3 19.7.6 6-.7 12.6-2.9 18.2-1.4 3.4-3.4 6.7-5.7 9.6-7.4 9.3-18.1 14.4-29.1 15.1-9.5.6-19.3-2.3-27.3-8.7-3.5-2.8-6.5-6.2-9-10-.3-.5-.7-1.1-1-1.6-1.8-2.5-4.7-4.1-8-4.1-5.5 0-10 4.5-10 10 0 1.3.3 2.5.7 3.7.5.9 1.1 1.8 1.6 2.7 3.5 5.5 7.9 10.5 13.3 14.8 25.9 20.6 63.6 16.3 84.2-9.6 2.5-3.2 4.6-6.5 6.4-10 .1-.2.9-1.5 1.6-2.9.3-.6.5-1.3.8-1.9 1.4-3.1 2.5-6.2 3.3-9.3 1.8-6.6 1.8-14 1.6-20.8-.2-5.1-.7-10.4 1.2-15.3 3.1-8.2 8.6-16.1 14.4-22.7.3-.3 4.5-4.5 4.2-5 2.7-2.4 6-5.6 9.7-9.8 3.4-3.9 7.2-8.7 10.9-14.4 12.1-18.7 19.1-41 19.1-65 0-66-53.7-119.7-119.9-119.7z"/></g></svg>