<svg xmlns="http://www.w3.org/2000/svg" width="400" height="400" viewBox="0 0 400 400"><g fill="#323232"><path d="M290.9 240.2c-3.3 0-6.2 1.6-8 4h-.1c-20.2 22.3-49.3 36.3-81.7 36.3-32.5 0-61.4-13.5-81.6-36-.1.1-.5-.5-.6-.4-1.8-2.3-4.7-3.8-7.8-3.8-5.5 0-10 4.5-10 10 0 1.8.5 3.4 1.2 4.8 1 1.1 1.9 2.2 2.9 3.3 21.6 23.5 51.6 39 85.3 41.7v39.4h-19.3c-5.5 0-10 4.5-10 10s4.5 10 10 10h59.7c5.5 0 10-4.5 10-10s-4.5-10-10-10h-20.3v-39.3c34.5-2.5 65.3-18.4 87.2-42.6.4-.4.8-.9 1.1-1.3 1.2-1.7 2-3.7 2-6 0-5.6-4.5-10.1-10-10.1z"/><path d="M201 260c38.3 0 69.4-30.8 70-69h-.1v-81.5h.1c0-.6 0-1.1-.1-1.6v-1.4h-.1c-2.1-36.8-32.5-66-69.9-66-37.3 0-67.8 29.2-69.9 66h-.2v85.3h.1c1.1 37.8 32 68.2 70.1 68.2zm-50.1-150.5h.1c.5-27.2 22.7-49 50-49 26.8 0 48.6 21.1 49.9 47.6v83.8c-1 26.8-22.9 48.2-49.9 48.2-27.3 0-49.4-21.8-50-49h-.1v-81.6z"/></g></svg>