<svg xmlns="http://www.w3.org/2000/svg" width="400" height="400" viewBox="0 0 400 400"><path fill="#333" d="M361 120c0-5.2-4-9.5-9.1-10-.4-.1-.9-.1-1.4-.1-.4 0-.7 0-1.1.1h-48.1V60c0-5.5-4.5-10-10-10s-10 4.5-10 10v50H122.1V60c0-5.5-4.5-10-10-10s-10 4.5-10 10v50H52c-.3 0-.7-.1-1.1-.1-5.5 0-10 4.5-10 10v220c0 5.5 4.5 10 10 10 .5 0 .9 0 1.4-.1H292c5.5 0 10-4.5 10-10s-4.5-10-10-10H61V130h41.2v11c0 5.5 4.5 10 10 10s10-4.5 10-10v-11h159.3v11c0 5.5 4.5 10 10 10s10-4.5 10-10v-11h39.1v210c0 5.5 4.5 10 10 10s10-4.5 10-10V122.9c.3-.9.4-1.9.4-2.9z"/></svg>