<svg xmlns="http://www.w3.org/2000/svg" width="400" height="400" viewBox="0 0 400 400"><path fill="none" d="M60.2 177v134s27-12 60-12 59.7 10.7 69 18V183s-29.7-24-69-24-60 18-60 18z"/><g fill="#333"><path d="M289 310v.3c5.1-.5 9-4.8 9-9.9V79c-1-4.7-4.4-8-9.1-9h.1-131V59h-.2c-.5-10-9.2-19-19.9-19H125v.6C116 42 108.4 50 107.9 59h.1v61.3c0 8.3 6.7 15 15 15s15-6.7 15-15V77h-.6c.3 0 .4-1.1.4-1.8 0-2.8-2.2-4.9-5-4.9s-5 2.1-5 4.9c0 .7.2 1.9.4 1.9h-.2v43.3c0 2.8-2.2 5-5 5s-5-2.2-5-5v-60c0-5.5 4.3-10.3 9.8-10.3h10c5.5 0 10.2 4.8 10.2 10.3v20c0 5.5 4.3 9.7 9.8 9.7H278v200H78V90h10v.3s.6.1.9.1c5.5 0 10-4.5 10-10s-4.4-10-9.9-10c-.3 0-.9 0-.9.1V70H67.8c-5.5 0-9.8 4.8-9.8 10.3v220c0 5.5 4.3 9.7 9.8 9.7H289z"/><path d="M342.1 321.7l-26.7-217.8v-.1c0-.3-.1-.7-.2-1-1-4.6-5.2-7.9-10-7.8-.3 0-.7 0-1 .1l-1.3.2v70.5L321 314.2l-198 24.2-2.9-23.4H100l4.4 35.7v.1c.7 5.5 5.7 9.4 11.1 8.7l217.9-26.7c.3 0 .7-.1 1-.2 4.9-1.1 8.3-5.8 7.7-10.9zM300.2 90l-1 .1c.3-.1.7-.1 1-.1z"/></g></svg>