<svg xmlns="http://www.w3.org/2000/svg" width="400" height="400" viewBox="0 0 400 400"><path fill="#333" d="M349.1 100.2h-6.4c-3.3-.6-6.8-.8-10.5-.6-16.5.9-33.1.2-51.1.2 0-7.1.3-13.2-.1-19.3-.6-12.6-8-20.5-20.4-20.6-39.6-.3-79.1-.3-118.7 0-13.2.1-20.4 7.9-20.9 21.3-.2 5.7 0 11.5 0 18.6-18.7 0-36.5-.1-54.3 0-2.3 0-4.4.1-6.4.3h-7.4c-6.6 0-12 5.4-12 12v216c0 6.6 5.4 12 12 12h296.2c6.6 0 12-5.4 12-12v-216c0-6.5-5.4-11.9-12-11.9zM141.5 80.7h119v18.5h-119V80.7zm192.2 40.1c3.1 1.2 5.5 3.7 6.7 6.8v92.1H221.5c-1.3 10.5.9 23.9-4 32.1-3.2 3.6-7.4 6.1-12.3 7.2-1.7.2-3.5.3-5.6.2-2.9-.1-5.4-.5-7.5-1.2-1.9-.7-3.6-1.7-5.2-2.8-8.6-7.2-5.4-22.7-6.7-35.1H61.4v-88.2c0-5 3.2-9.4 7.6-11.1h264.7zM61.8 309.9v-69.3c32.3 0 66.3.3 95.4.3 2.2 22 20.7 39.2 43.3 39.2 1.2.1 2.3.1 3.4.1 8.8-.1 16.2-3 22.2-8.4 9.9-7.2 16.6-18.5 17.8-31.3h96.5v72.6c-1.8 4.4-6.1 7.5-11.1 7.5H73.7c-6.1-.1-11.2-4.7-11.9-10.7z"/></svg>