<svg xmlns="http://www.w3.org/2000/svg" width="400" height="400" viewBox="0 0 400 400"><path fill="#333" d="M194.4 75.9c-.2-5.4-4.7-9.8-10-9.8-3.1 0-5.8 1.5-7.4 3.8-4.9 4.6-29.3 29.2-39.9 71.9-13.5 54.7 4.8 87 4.8 87s.5.8 1.4 2.2c1.2 1.8 3.1 4.5 5.5 7.5 1.7 1 3.6 1.5 5.6 1.5 6.1 0 10.8-4.9 10.6-11 0-.5-.1-1.1-.2-1.6-2-2.2-4-4.9-5.7-7.9-.5-.9-1-1.8-1.4-2.7-7.2-15.5-7.5-37.1-2.4-67.9 5.3-32.1 28.8-58.2 34.9-64.7 2.7-1.8 4.3-4.8 4.2-8.3zm16.8 236.8c-.2-5.4-4.7-9.8-10-9.8s-9.4 4.4-9.2 9.9c.2 5.4 4.6 9.8 10 9.8 5.3 0 9.5-4.4 9.2-9.9zm41-153c-.2-5.4-4.7-9.8-10-9.8s-9.4 4.4-9.2 9.9c.2 5.4 4.6 9.8 10 9.8 5.3 0 9.5-4.4 9.2-9.9zM190 146c-.2-5.5-4.9-10-10.4-10s-9.8 4.5-9.6 10c.2 5.5 4.8 10 10.4 10 5.5 0 9.8-4.5 9.6-10zm-9.7 39.1c-.2-5.4-4.7-9.8-10-9.8s-9.4 4.4-9.2 9.9c0 .2 0 .5.1.7-1.1 12.4 2.6 43.8 31.9 48.3 35.6 5.6 44.9-29.5 44.9-29.5s6.5-12.1-4.4-16.4c-10.8-4.4-13.7 6.8-13.7 6.8s-2.4 21-23 18.5c-20.7-2.4-16.4-26.7-16.4-26.7h-.2v-1.8zm149.8 27.2c-.2-5.4-4.7-9.8-10-9.8-4.9 0-8.8 3.8-9.2 8.6h-.2c-18.4 61-46.1 78-78 88.6-4.8 1.5-12.8.8-12.2 12.4.4 7.8 11 6.8 12 6.6 82.2-20.2 97.8-104.2 97.8-104.2h-.3c.1-.9.1-1.5.1-2.2zM91.5 183.9c-.2-5.4-4.7-9.8-10-9.8s-9.4 4.4-9.2 9.9c0 .3 0 .6.1.8-1.4 23 1.5 36.5 8.7 57.2 22.3 57.3 79.7 75 79.7 75 1.9.5 11.9 2 12.4 1.9 5-.8 8.9-4.1 8.9-9.4 0-3.4-1.7-5.5-4.2-7.4-1.8-1.3-14.1-4.1-14.1-4.1s-48.4-13.3-68.2-72.5c-4.6-13.6-4.3-28.4-4.2-39.1 0-.8.1-1.6.1-2.5zm54.9-90.1c-.2-5.4-4.7-9.8-10-9.8-4 0-7.3 2.5-8.6 6-4.7 7-24.6 38.2-25.7 70.3-.5 15-6.7 49.4 11.7 81.8 20.2 35.7 58.7 47.6 58.7 47.6s10.6 3.4 13.6 1.8c3.8-1 5.9-4.5 5.9-8.9 0-4.1-2.4-7.7-5.8-9.4-1.2-.6-40.4-4.9-60.3-53.3-1.2-2.9-16.7-68.9 17.9-119.1 1.7-1.9 2.7-4.3 2.6-7zm181.8 74.5c-.2-5.4-4.7-9.8-10-9.8-3.1 0-5.8 1.5-7.4 3.8-6.4 5.7-24.2 23.7-32.8 51.9-6 19.7-25.2 47.7-56 56.8-.3 0-5.1 1.6-6.8 2.7-3.1 1.9-5.1 4.4-5.1 8.3 0 5.2 3.7 9.6 8.6 10.7.8.2 6.3-.6 9-1.9 11.1-2.9 23.1-8 34.3-16.6 21.4-16.6 32-40.8 36.2-54.9 6.1-20.7 20.6-34 26.6-42.9v-.1c2.1-1.8 3.5-4.8 3.4-8zm-12.9-33.1c-.2-5.4-4.7-9.8-10-9.8-2.2 0-4.3.8-5.9 2.1l-.2-.3s-40.3 31.7-49.2 73.9c-8.1 38.7-37.6 42.9-49.1 42.9-4.3 0-8.9-1.1-13.1-2.5-3.4-1.1-6.4-2.4-8.7-3.5-5.8.3-10.3 5.1-10 11 .1 2.9 1.3 5.5 3.2 7.4 2.4 1.1 5.4 2.4 9 3.5 5.4 1.7 12.1 3 19.6 3.1 20.7.1 41.4-11.2 51.1-21.9 9.7-10.6 14.9-24.3 17.1-33 5.6-22.5 17.4-43.9 42.9-64.7l-.3-.3c2.3-1.7 3.7-4.6 3.6-7.9zm-44.6 202.3c79.3-39 111.9-135 72.8-214.2-1.5-3-3-5.9-4.7-8.7-.1-.2-.2-.4-.3-.5l-.2-.4c-2.7-4.3-8.2-5.9-12.9-3.6-5 2.4-7 8.4-4.6 13.4.2.3.3.6.5.9 1.5 2.5 2.8 5.1 4.2 7.8 34.2 69.4 5.6 153.3-63.7 187.4-69.4 34.2-153.3 5.6-187.4-63.7-34.2-69.4-5.6-153.3 63.7-187.4 42.8-21.1 91.1-18.3 129.8 3.2-13 8.1-31.5 21.2-49.8 44.4-19.4 24.6-26.4 69.3-26.2 77 .1 5.2 2.8 10 9 10 9.3 0 10-10 10-10s6.3-33.9 21.2-60c11.9-20.8 48.2-44.3 59-51 .4-.1.9-.3 1.3-.5 5-2.4 7-8.4 4.6-13.4-.8-1.7-2-3-3.5-3.9-46.4-33.4-109.3-40.8-164.3-13.7-79.3 39-111.8 135-72.8 214.2 39.2 79.2 135.1 111.8 214.3 72.7z"/></svg>