<svg xmlns="http://www.w3.org/2000/svg" width="400" height="400" viewBox="0 0 400 400"><g fill="#333"><path d="M110.6 150c-27.6 0-50 22.4-50 50s22.4 50 50 50 50-22.4 50-50-22.4-50-50-50zm0 80c-16.6 0-30-13.4-30-30s13.4-30 30-30 30 13.4 30 30-13.5 30-30 30zM310.5 280.3c-16.6 0-30 13.4-30 30s13.4 30 30 30 30-13.4 30-30-13.4-30-30-30zm0 40c-5.5 0-10-4.5-10-10s4.5-10 10-10 10 4.5 10 10-4.4 10-10 10zM175.8 178c.6-.4 1.1-.8 1.6-1.2l68.9-52c4.7-2.9 6.2-9 3.4-13.7-2.9-4.7-9-6.2-13.7-3.4-.6.4-1.1.8-1.6 1.2l-68.9 52c-4.7 2.9-6.2 9-3.4 13.7s9 6.3 13.7 3.4zM266.4 275.6l-90.6-53.2c-4.7-2.9-10.9-1.4-13.7 3.4s-1.4 10.9 3.4 13.7l90.6 53.2c4.7 2.9 10.9 1.4 13.7-3.4 2.8-4.7 1.3-10.8-3.4-13.7zM290.5 119.9c16.6 0 30-13.4 30-30s-13.4-30-30-30-30 13.4-30 30 13.5 30 30 30zm0-40c5.5 0 10 4.5 10 10s-4.5 10-10 10-10-4.5-10-10 4.5-10 10-10z"/></g></svg>