<svg xmlns="http://www.w3.org/2000/svg" width="400" height="400" viewBox="0 0 400 400"><g fill="#323232"><path d="M254.7 162.8c0-55.2-44.8-100-100-100s-100 44.8-100 100c0 20.5 6.2 39.5 16.7 55.4.1-.1 3.3 3.4 7.9 3.4 5.5 0 10-4.5 10-10 0-1.3-.3-2.5-.7-3.7-.5-1.3-1.2-2.4-2.2-3.4-7.5-12.2-11.8-26.5-11.8-41.8 0-44.2 35.8-80 80-80s80 35.8 80 80-35.8 80-80 80c-14 0-27.1-3.6-38.6-9.9-.5-.3-1-.7-1.6-.9-1.3-.6-2.7-.9-4.2-.9-5.5 0-10 4.5-10 10 0 3.2 1.5 6.1 3.9 7.9 0 .1 0 .1-.1.2 14.8 8.7 32.1 13.7 50.5 13.7 55.4 0 100.2-44.8 100.2-100zM336.5 302.1l-.4-.4-69.3-69.3c-3.9-3.9-10.2-3.9-14.1 0-3.9 3.9-3.9 10.2 0 14.1l49.7 49.7 20 20c3.9 3.9 3.9 10.2 0 14.1-3.9 3.9-10.2 3.9-14.1 0l-.2-.2-19.8-19.8-49.7-49.7c-3.9-3.9-10.2-3.9-14.1 0-3.9 3.9-3.9 10.2 0 14.1l69.7 69.7c11.7 11.7 30.7 11.7 42.4 0 11.6-11.5 11.6-30.5-.1-42.3z"/><path d="M131.1 201.3c3.9 3.9 10.2 3.9 14.1 0l11-11c2.7.2 5.5.4 8.2.5 18.2.3 36.4-4 52.8-12.6 1.4-.8 2.9-1.5 4.3-2.4 1.9-1.8 3.2-4.4 3.2-7.3 0-5.5-4.5-10-10-10-1.9 0-3.6.5-5.1 1.4 0-.1 0-.2-.1-.3-15 8.3-31.9 12-48.5 11.1-1.1-20.5 4.7-41.3 17.6-58.6.2-.3.4-.6.6-.8 1.1-1.6 1.7-3.5 1.7-5.5 0-5.5-4.5-10-10-10-3.2 0-6.1 1.5-7.9 3.9-15 20-22.4 43.9-22.1 67.7 0 3.2.2 6.4.6 9.5l-10.4 10.4c-3.9 3.8-3.9 10.1 0 14zM223 74.3c.7 0 1.4-.1 2.1-.2 1.1-.5 2.2-.9 3.3-1.3 12.1-4.7 24.9-6.7 37.6-6 .9 15.9-2.5 32.1-10 46.5.1 0 .1 0 .2.1-1.1 1.6-1.7 3.5-1.7 5.6 0 5.5 4.5 10 10 10 3.2 0 6-1.5 7.8-3.8.7-.9 1.3-2 1.7-3.2 8.3-16.2 12.3-34 12.1-51.8-.1-4-.3-8-.8-12h-.1v.5c0-5.8-4.4-10.5-10-11.1h-.2c-4-.5-8.3-.8-12.4-.9-15.1-.2-30.3 2.7-44.5 8.6 0 .1 0 .2.1.2-3.1 1.7-5.2 5-5.2 8.8 0 5.5 4.4 10 10 10z"/></g></svg>