<svg xmlns="http://www.w3.org/2000/svg" width="400" height="400" viewBox="0 0 400 400"><g fill="#333"><path d="M170.4 60.5H50.7h-.1-.1c-5.5 0-10 4.5-10 10v120c0 5.5 4.5 10 10 10h60c5.5 0 10-4.5 10-10s-4.5-10-10-10h-50v-100h99.8v109.9c-1.2 57.2-37.6 109.9-94.3 129.5-.4.1-.9.3-1.3.4-3.6 1.5-6.1 5.1-6.1 9.2 0 5.5 4.5 10 10 10 1.2 0 2.4-.2 3.4-.6 65.1-22.2 106.8-82.8 108.1-148.3 0-.4.1-.7.1-1.1v-119c.2-5.5-4.3-10-9.8-10zM359.4 70.5c0-5.5-4.5-10-10-10H229.7h-.1-.1c-5.5 0-10 4.5-10 10v120c0 5.5 4.5 10 10 10h60c5.5 0 10-4.5 10-10s-4.5-10-10-10h-50v-100h99.8v109.9c-1.2 57.2-37.6 109.9-94.3 129.5-.4.1-.9.3-1.3.4-3.6 1.5-6.1 5.1-6.1 9.2 0 5.5 4.5 10 10 10 1.2 0 2.4-.2 3.4-.6 65.1-22.2 106.8-82.8 108.1-148.3 0-.4.1-.7.1-1.1v-119z"/></g></svg>