<svg xmlns="http://www.w3.org/2000/svg" width="400" height="400" viewBox="0 0 400 400"><g fill="#333"><path d="M321 51.3c-10.3-13.8-26.5-17.9-41.3-10.4-6.1 3.1-11 7.5-15.7 11.8l-.1.1c-1 .9-1.9 1.8-2.9 2.6-1.2 1.1-2.3 2.3-3.2 3.5-2.1-1.1-4.1-2.2-6.2-3.2 2.9-1.9 4.8-4.4 5.6-7.3 1.1-3.9-.2-8.1-3.4-11.1-3.6-3.4-8.9-4.2-12.7-4.2-12.1-.1-24.4-.1-36.3-.1h-48c-12.3 0-13.9 8.9-14.1 11.6-.3 3.9 1.1 8.7 5.4 11.5-1.8 1-3.7 1.9-5.5 2.7-1.1-1-2.2-2.1-3.3-3.1-5.6-5.2-10.9-10-17.3-14-14.3-8.9-32.4-5-42.9 9.3C72.6 59.5 69 69.2 68 79.8c-3.1 34.3 6.7 60.6 29.9 80.5.1.2.1.5.2.8.9 4.7 1.7 9.5 2.4 14.2 1.5 9.4 3.1 19.1 5.6 28.7 15.9 60.1 44 114.8 66.6 155.8 2.9 5.2 9.5 6.8 12.6 6.9 4.6.2 9.4.1 13.6.1 4.4 0 8.9 0 13.3.1h.9c7.3 0 12.6-3.3 15.8-9.9 4.8-10.1 9.8-20.3 14.6-30.2 8.8-18 17.9-36.6 26.3-55.3 17.7-39.6 28.2-76 31.9-111.1 20-16.7 30.1-39.7 30.7-70.1.4-15.5-3.4-28.3-11.4-39zM316.5 90c-.5 26.2-8.6 44.8-25.4 58.6-2.8 2.3-4.7 5.9-5.1 9.5-3.5 33.6-13.5 68.6-30.6 107-8.2 18.4-17.3 36.9-26.1 54.8-4.8 9.9-9.8 20.1-14.7 30.3-.2.4-.4.7-.4.8-.2 0-.5.1-1.3 0-2.7-.1-5.5-.1-9.2-.1h-4.8c-4.2 0-8.6 0-12.7-.1-22.1-39.9-49.2-93-64.5-150.8-2.3-8.8-3.8-18.1-5.3-27.2-.8-4.8-1.6-9.7-2.5-14.6-.5-2.7-1.6-6.7-4.8-9.4-19.4-16.4-27.6-38.5-25-67.5.7-7.6 3.3-14.5 7.8-20.6 5.5-7.4 14.6-9.6 21.7-5.2 5.2 3.2 9.9 7.6 14.9 12.2 2.4 2.2 4.9 4.5 7.6 6.8l2 1.7c1.2 1 2.9 1.3 4.4.6l2.4-1.2c.9-.4 2-.9 3.3-1.5 3.7-1.6 8.3-3.7 12.4-6.7 4-2.9 4.9-7.4 5.6-10.7.2-.9.4-1.8.6-2.3l1.2-3.5c.2-.6.2-1.2.2-1.7h66.9c-2.9 11.5-.9 15.8 9.6 20.9 2.6 1.3 5.3 2.7 8.1 4.2 1.3.7 2.7 1.5 4.1 2.2l3 1.6c1.7.9 3.9.4 5.1-1.1l2-2.7c.8-1 1.4-2 2-2.9 1-1.5 2-3 2.9-3.8 1.1-.9 2.1-1.9 3.2-2.9 4.1-3.7 8-7.3 12.2-9.4 7.7-3.9 15.6-1.8 21.2 5.7 5.5 7.6 8.2 17.1 8 29z"/><path d="M134.9 86.4c-3.3-1.5-7.1 0-8.6 3.2l-16 35.4c-1.5 3.3 0 7.1 3.2 8.6 3.3 1.5 7.1 0 8.6-3.2l16.2-36c1.6-3.3-.1-6.5-3.4-8zM279.9 89.6c-1.5-3.3-5.3-4.7-8.6-3.2s-5 4.7-3.5 8l16.2 36c1.5 3.3 5.3 4.7 8.6 3.2s4.7-5.3 3.2-8.6l-15.9-35.4z"/></g></svg>