<svg xmlns="http://www.w3.org/2000/svg" width="400" height="400" viewBox="0 0 400 400"><path fill-rule="evenodd" clip-rule="evenodd" fill="#333" d="M358.8 204.6l-56.5-74.7 56.5-74.7c1-1.7 1.5-3.5 1.5-5.4v-.2c0-5.4-4.3-9.7-9.7-9.7H92.3c-5.4 0-9.7 4.3-9.7 9.7 0 5.4 4.3 9.7 9.7 9.7h238.4l-49.2 64.9c-1.1 1.8-1.6 3.7-1.5 5.7-.1 1.9.4 3.8 1.5 5.6l49.2 64.9H100.6V89.9c0-5.5-4.5-10-10-10s-10 4.5-10 10V340h-30c-5.5 0-10 4.5-10 10s4.5 10 10 10h80c5.5 0 10-4.5 10-10s-4.5-10-10-10h-30V219.9h250.1c5.3 0 9.7-4.3 9.7-9.7v-.2c-.1-1.8-.5-3.7-1.6-5.4z"/></svg>