<svg xmlns="http://www.w3.org/2000/svg" width="400" height="400" viewBox="0 0 400 400"><g fill="#333"><path d="M112 165.5c0 20.1-16.1 36.5-36 36.5s-36-16.3-36-36.5c0-20.1 16.1-36.5 36-36.5s36 16.3 36 36.5zM362 122.5c0 20.1-16.1 36.5-36 36.5s-36-16.3-36-36.5c0-20.1 16.1-36.5 36-36.5 19.9.1 36 16.4 36 36.5zM270.9 319.5c0 20.1-16.1 36.5-36 36.5s-36-16.3-36-36.5c0-20.1 16.1-36.5 36-36.5s36 16.4 36 36.5zM78.3 208.7c-.8 0-1.5.1-2.3.1-6.3 0-12.3-1.4-17.7-3.9 5.9 75.1 66.8 134.5 141.9 136.8-3.7-5.9-5.9-12.7-6.3-20.1-60.2-5.2-108.4-52.6-115.6-112.9zM95.3 126.8c22.3-37.7 63-63 109.5-63 33.2 0 63.5 12.9 86.1 33.9 3.8-5.5 8.7-10 14.6-13.2C279.2 59.4 243.8 44 204.8 44c-55.9 0-104.5 31.6-129.4 78.1h.6c6.9 0 13.5 1.7 19.3 4.7zM332.3 192.9c0 46.2-24 86.7-60 109.6 2.3 5.2 3.6 11 3.6 17 0 1.3-.1 2.6-.2 3.8 45.3-25.4 76-74.3 76-130.4 0-11.5-1.3-22.6-3.7-33.3-5.5 3.4-11.8 5.5-18.6 6.1 1.9 8.8 2.9 17.9 2.9 27.2z"/></g></svg>