<svg xmlns="http://www.w3.org/2000/svg" width="400" height="400" viewBox="0 0 400 400"><g fill="#343433"><path d="M280.6 89.2c.1.1.2.1.3.2 0-.1-.2-.1-.3-.2zM338.6 375.9V158.5c0-3-1.3-5.6-3.4-7.4l-78.4-78.4c-1.8-1.9-4.4-3.1-7.2-3.1-5.5 0-9.9 4.4-9.9 9.9v77.8c-.1.4-.1.9-.1 1.3 0 4.1 2.5 7.7 6.1 9.1 1.2.5 2.5.8 3.9.8H318.9v198H81.3V89.3h95.1v3.2h.2v98.2c-.7 11.2-8.6 20.8-21.3 20.8h-4c-11.1 0-24.3-9-24.3-22.4v-76.3h-.2v-.3c0-5.2-4.3-9.4-9.7-9.4-5.3 0-9.7 4.2-9.7 9.4v76.6h-.2c0 24 20 43.5 44.7 43.5 24.7 0 44.7-19.5 44.7-43.5h-.2V92.5h.1v-3.2h13.2c5.5 0 9.9-4.4 9.9-9.9s-4.4-9.9-9.9-9.9h-13.2V44.4c-.2-16.6-13.6-30-30.2-30-16.7 0-30.3 13.6-30.3 30.3v24.8H72.5c-.4 0-.7-.1-1-.1-5.5 0-9.9 4.4-9.9 9.9v296.8c0 1 .2 2 .5 3 1.2 4.1 5 7 9.5 7h257.2c5.5 0 9.9-4.4 9.9-9.9-.1 0-.1-.2-.1-.3zm-79.2-227.2v-44.5l45.1 44.5h-45.1zm-93-114c5.6 0 10.1 4.5 10.1 10.1v24.8h-20.2V44.4c.1-5.4 4.6-9.7 10.1-9.7z"/></g></svg>