<svg xmlns="http://www.w3.org/2000/svg" width="400" height="400" viewBox="0 0 400 400"><g fill="#333"><path d="M210.4 131.5l.1-1c0 .3 0 .7-.1 1zm-19.8 0c.5 5.1 4.8 9 9.9 9s9.4-3.9 9.9-9c0-.3.1-.7.1-1v-81c0-5.5-4.5-10-10-10s-10 4.5-10 10v81c0 .3 0 .7.1 1zm-.1 0v-1 1zM210.5 269.5c0-5.5-4.5-10-10-10s-10 4.5-10 10v81c0 5.5 4.5 10 10 10s10-4.5 10-10v-81zM299.5 189.5c0-5.5-4.5-10-10-10s-10 4.5-10 10v161c0 5.5 4.5 10 10 10s10-4.5 10-10v-161zM170.5 200.5c0-16.6 13.4-30 30-30s30 13.4 30 30-13.4 30-30 30-30-13.4-30-30zm-20 0c0 27.6 22.4 50 50 50s50-22.4 50-50-22.4-50-50-50-50 22.4-50 50zM119.4 351.5l.1-1c0 .3 0 .7-.1 1zm-19.8 0c.5 5.1 4.8 9 9.9 9s9.4-3.9 9.9-9c0-.3.1-.7.1-1v1c0-5.5-4.5-10-10-10s-10 4.5-9.9 10l-.1-1c0 .3 0 .7.1 1zm-.1 0v-1 1zM299.5 51.5v-1 1zm-20 0c.5 5.1 4.8 9 10 9s9.4-3.9 10-9v-1 1c0-5.5-4.5-10-10-10s-10 4.5-10 10v-1 1zm0 0v-1 1zM119.5 49.5c0-5.5-4.5-10-10-10s-10 4.5-10 10v161c0 5.5 4.5 10 10 10s10-4.5 10-10v-161zM79.5 282.5c0-16.6 13.4-30 30-30s30 13.4 30 30-13.4 30-30 30-30-13.4-30-30zm-20 0c0 27.6 22.4 50 50 50s50-22.4 50-50-22.4-50-50-50-50 22.4-50 50zM260.5 120.5c0-16.6 13.4-30 30-30s30 13.4 30 30-13.4 30-30 30-30-13.4-30-30zm-20 0c0 27.6 22.4 50 50 50s50-22.4 50-50-22.4-50-50-50-50 22.4-50 50z"/></g></svg>