<svg xmlns="http://www.w3.org/2000/svg" width="400" height="400" viewBox="0 0 400 400"><path fill="#333" d="M71 250c0 5.5 4.5 10 10 10s10-4.5 10-10v-60c0-5.5-4.5-10-10-10s-10 4.5-10 10v60zM211 190c0-5.5-4.5-10-10-10s-10 4.5-10 10v60c0 5.5 4.5 10 10 10s10-4.5 10-10v-60zM131 250c0 5.5 4.5 10 10 10s10-4.5 10-10v-60c0-5.5-4.5-10-10-10s-10 4.5-10 10v60zM251 250c0 5.5 4.5 10 10 10s10-4.5 10-10v-60c0-5.5-4.5-10-10-10s-10 4.5-10 10v60zM331 190c0-5.5-4.5-10-10-10s-10 4.5-10 10v60c0 5.5 4.5 10 10 10s10-4.5 10-10v-60zM201 60c-6.3 0-10 4-10 4L47 131s-8 2.7-5 12c3.2 9.8 13 5 13 5l146-68 131 60H112.4h-1c-5.5 0-10 4.5-10 10s4.5 10 10 10H344c7.7 0 15-6.7 15-16s-6-13-6-13L214 65s-7-5-13-5zM110.3 340h1-1zm0-19.9c-5.1.5-9 4.8-9 9.9 0 5.2 3.9 9.4 9 10H351c5.5 0 10-4.5 10-10v-40c0-5.5-4.5-10-10-10H51c-5.5 0-10 4.5-10 10v40c0 5.5 4.5 10 10 10s10-4.5 10-10v-30h280v20H111.3c-.3 0-.6.1-1 .1zm0-.1h1-1z"/></svg>