<svg xmlns="http://www.w3.org/2000/svg" width="400" height="400" viewBox="0 0 400 400"><path fill="#333" d="M199.6 40.4c-55.2 0-100 44.8-100 100 0 3.4.2 6.7.5 10 0 .8.1 1.5.3 2.2 1 4.5 5 7.8 9.8 7.8 5.5 0 10-4.5 10-10v-.7c0-.3-.1-.6-.1-.9-.3-2.8-.4-5.6-.4-8.4 0-44.2 35.8-80 80-80s80 35.8 80 80c0 10.3-2 20.7-5.9 30.3-3.8 9.3-9.4 17.8-16.3 25.1-7.4 7.7-16.3 13.1-25.7 18-12.6 6.5-23.6 15.7-32.4 26.7-13.5 17.1-21.6 38.6-21.6 62.1 0 6 .6 11.9 1.6 17.6.5 5.1 4.7 9.1 10 9.1 5.1 0 9.3-3.8 9.9-8.7.1-.4.1-.9.1-1.3 0-.6-.1-1.3-.2-1.9-.9-4.8-1.4-9.7-1.4-14.8 0-10.3 2-20.7 5.9-30.2 3.8-9.3 9.3-17.8 16.3-25.1 3.4-3.6 7.2-6.9 11.3-9.8 5-3.6 10.6-6.1 16-9.1 5.1-2.8 10-6 14.6-9.7 6-4.8 11.4-10.2 16.2-16.2 13.5-17.1 21.6-38.6 21.6-62.1-.1-55.2-44.9-100-100.1-100zM188.5 340.5c-5.5 0-10 4.5-10 10s4.5 10 10 10 10-4.5 10-10-4.5-10-10-10z"/></svg>