<svg width="171" height="128" viewBox="0 0 171 128" xmlns="http://www.w3.org/2000/svg" xmlns:xlink="http://www.w3.org/1999/xlink"><title>Language buddies logo</title><defs><path d="M45.04 33.422H19.566c-.3 0-.602.101-.852.253L9.13 41v-6.365c0-.657-.602-1.213-1.304-1.213H2.91C1.304 33.422 0 32.21 0 30.694V4.728C0 3.212 1.304 2 2.91 2h42.18C46.696 2 48 3.212 48 4.728v25.966c-.05 1.516-1.355 2.728-2.96 2.728z" id="a"/></defs><g fill="none" fill-rule="evenodd"><text font-family="HelveticaNeue-Bold, Helvetica Neue" font-size="20" font-weight="bold" fill="#FFF" transform="translate(-1)"><tspan x=".39" y="124">LanguageBuddies</tspan></text><path d="M122.43 38.075a39.033 39.033 0 0 0-8.9-13.697c-6.97-6.948-16.557-11.267-27.153-11.369-.126 0-.25-.009-.377-.009a38.813 38.813 0 0 0-19.262 5.093c-8.27 4.71-14.646 12.352-17.716 21.516a38.932 38.932 0 0 0-2.02 12.297L47 52c0 2.31.212 4.568.597 6.768a38.711 38.711 0 0 0 2.614 8.734c5.95 13.715 19.545 23.337 35.41 23.489.127 0 .252.009.379.009 6.99 0 13.543-1.848 19.217-5.067C117.027 79.23 125 66.55 125 52c0-4.908-.915-9.6-2.57-13.925zM69.79 27.292c.364-1.87.848-3.535 1.429-4.978A33.073 33.073 0 0 1 84.201 19c1.164.948 2.353 2.127 3.54 3.518 1.386 1.625 2.768 3.54 4.104 5.727 3.163 5.18 6.064 11.871 8.121 19.774.39 1.5.732 2.994 1.034 4.478-4.384 2.496-9.605 4.808-15.54 6.68A84.065 84.065 0 0 1 73.656 62a85.279 85.279 0 0 1-2.054-6.745c-2.024-7.78-2.773-14.944-2.569-20.956.088-2.559.349-4.908.757-7.007zM53 51.8c0-3.001.406-5.903 1.153-8.663a32.666 32.666 0 0 1 5.306-10.96A32.554 32.554 0 0 1 63.163 28c-.12.786-.22 1.594-.305 2.419a59.941 59.941 0 0 0-.28 7.11c.102 5.94.984 12.523 2.725 19.418A93.68 93.68 0 0 0 67 62.846c-1.313.093-2.61.154-3.868.154-3.198 0-6.055-.31-8.483-.877A33.065 33.065 0 0 1 53 51.8zm5 17.224c1.734.19 3.561.3 5.5.3 2.016 0 4.1-.117 6.227-.325 2.372 5.853 5.2 10.948 8.273 15-8.42-2.122-15.557-7.597-20-14.975zm43.374 5.897c-.37 2.211-.897 4.155-1.55 5.802A32.065 32.065 0 0 1 87.126 84C83.36 80.897 79.33 75.315 76 67.777A88.351 88.351 0 0 0 87.13 65c5.28-1.687 10.114-3.728 14.391-6.001.679 5.78.641 11.226-.147 15.922zm4.89-28.318c-1.792-6.965-4.264-13.297-7.153-18.668a59.317 59.317 0 0 0-3.756-6.111A47.234 47.234 0 0 0 94 20c1.754.43 3.453 1 5.083 1.702a32.73 32.73 0 0 1 11.022 7.785A32.76 32.76 0 0 1 116 38.383c-1.104 3.226-4.272 6.985-9.156 10.617a94.017 94.017 0 0 0-.58-2.396zm2 29.396c.947-5.88.845-12.71-.264-19.86 4.445-2.864 8.026-5.97 10.567-9.14.282 1.692.433 3.426.433 5.194 0 9.41-4.135 17.88-10.736 23.806z" fill="#FFF" fill-rule="nonzero"/><g transform="translate(82 2)"><use fill="#FFF" xlink:href="#a"/><path stroke="#125A91" stroke-width="4" d="M19.72 35.422L7.132 45.046v-9.624H2.91c-2.685 0-4.91-2.08-4.91-4.728V4.728C-2 2.08.225 0 2.91 0h42.18C47.775 0 50 2.08 50 4.728l-.001 26.032c-.087 2.619-2.298 4.662-4.96 4.662H19.722z"/></g></g></svg>