<svg xmlns="http://www.w3.org/2000/svg" width="625.011" height="625.011" viewBox="0 0 625.011 625.011"><title>Self-Development</title><path d="M312.505 18a294.588 294.588 0 0 1 114.63 565.875A294.586 294.586 0 0 1 197.876 41.136 292.641 292.641 0 0 1 312.505 18m0-18C139.913 0 0 139.913 0 312.505s139.913 312.506 312.505 312.506S625.011 485.1 625.011 312.505 485.1 0 312.505 0z" fill="#3fa0d7"/><path d="M109.8 238.854a24.186 24.186 0 0 1-1.821 3.879 23.24 23.24 0 0 1-2.429 3.414 25.132 25.132 0 0 1-2.859 2.853 18.408 18.408 0 0 1-3.112 2.142l-4.954-9.615a11.748 11.748 0 0 0 3.432-2.321 9.453 9.453 0 0 0 2.481-3.69 4.644 4.644 0 0 0 .3-1.854 1.307 1.307 0 0 0-.949-1.235 1.356 1.356 0 0 0-.9-.035 3.178 3.178 0 0 0-1.027.673 16.069 16.069 0 0 0-1.453 1.539q-.853 1.006-2.066 2.552a26.251 26.251 0 0 1-2.554 2.777 12.3 12.3 0 0 1-2.94 2.07 9 9 0 0 1-3.437.92 9.926 9.926 0 0 1-4.086-.689A11.03 11.03 0 0 1 76.571 239a11.928 11.928 0 0 1-2.381-4.61 14.373 14.373 0 0 1-.36-5.271 22.121 22.121 0 0 1 1.206-5.207 20.532 20.532 0 0 1 3.757-6.29 19.233 19.233 0 0 1 5.915-4.693l4.592 9.645a7.815 7.815 0 0 0-3.184 2.008 7.99 7.99 0 0 0-1.83 2.719 5.035 5.035 0 0 0-.374 2.123 1.28 1.28 0 0 0 .884 1.185 1.3 1.3 0 0 0 1.426-.365 23.219 23.219 0 0 0 1.878-2.19q1.229-1.594 2.718-3.309a17.152 17.152 0 0 1 3.315-2.955 11.029 11.029 0 0 1 3.981-1.689 8.645 8.645 0 0 1 4.764.508 11.728 11.728 0 0 1 4.846 3.146 12.163 12.163 0 0 1 2.584 4.551 14.665 14.665 0 0 1 .6 5.252 18.641 18.641 0 0 1-1.108 5.296zm-24.084-37.836l11.9-21.533 8.755 4.838-6.426 11.628 2.7 1.491 6.035-10.922 8.18 4.521-6.035 10.921 2.919 1.613 6.841-12.381 8.755 4.838-12.314 22.285zm19.424-32.788l7.34-9.65 20.22 15.384 7.188-9.449 8.243 6.27-14.527 19.1zm40.202-25.961l7.772-7.66 6.915 7.017-7.736 7.624 8.511 8.635-8.419 8.3-25.106-25.474 17.2-16.95 7.057 7.16-8.815 8.688zm17.296-11.375l11.006-8.561 5.335 6.859-11.007 8.56zm28.273 1.556l-17.729-31.063 11.583-6.611a38.345 38.345 0 0 1 7.455-3.295 18.8 18.8 0 0 1 7.351-.88 14.834 14.834 0 0 1 6.795 2.375 20.944 20.944 0 0 1 8.329 14.441 15.912 15.912 0 0 1-1.135 7.133 19.126 19.126 0 0 1-4.045 6.061 27.633 27.633 0 0 1-6.143 4.728zm-2.623-27.936l7.537 13.206 1.931-1.1q3.686-2.1 4.749-4.826t-1.005-6.354a6.729 6.729 0 0 0-4.657-3.574 9.027 9.027 0 0 0-6.226 1.321zm27.34-25.425l23.141-8.353 3.4 9.409-12.5 4.51 1.047 2.9 11.736-4.236 3.173 8.791-11.736 4.235 1.132 3.137 13.3-4.8 3.4 9.409-23.949 8.644zm32.478-11.447l13.372-2.421 9.759 20.72.2-.036 1.626-22.78 13.369-2.425-6.354 37.5-13.123 2.376zm48.878-7.296l24.6-.4.162 10-13.284.216.05 3.081 12.477-.2.151 9.345-12.477.2.055 3.334 14.143-.229.162 10-25.457.413zm38.136.561l12.021 1.574-3.3 25.2 11.771 1.541-1.342 10.264-23.793-3.115zm27.223 21.337a19.153 19.153 0 0 1 3.721-6.971 17.242 17.242 0 0 1 5.709-4.406 18.53 18.53 0 0 1 7.108-1.731 24.307 24.307 0 0 1 15.07 4.616 18.826 18.826 0 0 1 4.943 5.425 17.087 17.087 0 0 1 2.285 6.855 19.15 19.15 0 0 1-.822 7.858 19.674 19.674 0 0 1-3.743 7.042 17.668 17.668 0 0 1-5.777 4.544 18.815 18.815 0 0 1-7.17 1.846 23.442 23.442 0 0 1-15.07-4.617 18.542 18.542 0 0 1-4.882-5.537 17.844 17.844 0 0 1-2.216-6.993 19.673 19.673 0 0 1 .844-7.931zm12.221 3.744a9.406 9.406 0 0 0-.439 3.246 7.777 7.777 0 0 0 .66 2.845 6.415 6.415 0 0 0 1.669 2.229 6.906 6.906 0 0 0 2.535 1.384 6.671 6.671 0 0 0 5.48-.646 7.534 7.534 0 0 0 2.165-1.979 9.425 9.425 0 0 0 1.454-2.936 9.067 9.067 0 0 0 .418-3.175 6.779 6.779 0 0 0-.715-2.755 6.938 6.938 0 0 0-4.216-3.484 7.185 7.185 0 0 0-2.867-.3 6.6 6.6 0 0 0-2.6.814 6.965 6.965 0 0 0-2.11 1.89 9.035 9.035 0 0 0-1.434 2.867zm42.56 23.726l-5.378 10.186-10.588-5.591 16.7-31.628 13.581 7.17a24.792 24.792 0 0 1 4.464 3.015 13.641 13.641 0 0 1 3.234 3.936 10.38 10.38 0 0 1 1.227 4.818 13.716 13.716 0 0 1-5.32 10.13 10.86 10.86 0 0 1-4.673 1.817 13.577 13.577 0 0 1-5.146-.317 22.54 22.54 0 0 1-5.108-1.955zm6.958-13.179l-2.688 5.093 2.233 1.18a4.779 4.779 0 0 0 2.529.564 2.467 2.467 0 0 0 2.079-1.5 2.792 2.792 0 0 0 .38-1.37 2.191 2.191 0 0 0-.348-1.127 3.831 3.831 0 0 0-.849-.934 7.011 7.011 0 0 0-1.1-.725zm30.094 25.838l-12.423 15.946-8.654-7.133 22.747-27.6 12.138 10-7.245 18.971.194.16 16.574-11.282 12.528 10.325-22.748 27.6-9.044-7.454L471.3 136.62l-.2-.231-17.964 11.311-6.549-5.4 7.784-19.771zm45.911 20.871l15.613 19.013-7.729 6.349-8.433-10.269-2.381 1.956 7.919 9.643-7.223 5.932-7.919-9.644-2.577 2.116 8.978 10.932-7.73 6.348-16.158-19.676zm23.842 30.391l5.91 10.413-10.739 17.826.1.176 15.524-9.391 5.635 9.93-31.106 17.652-6.06-10.677 9.964-17.038-.1-.176-14.6 8.866-5.635-9.93zm-5.416 71.453l-4.056-11.319 24.112-8.639-2.966-8.275 9.56-3.425 9.985 27.869-9.56 3.425-2.965-8.275zM312.506 131.449a182.843 182.843 0 0 0-100.912 335.314q1.827 1.212 3.684 2.38 1.826 1.149 3.679 2.255a182.969 182.969 0 0 0 188.747-.989q1.874-1.145 3.719-2.334 1.878-1.211 3.725-2.466a182.847 182.847 0 0 0-102.642-334.16zm116.558 299.4a167.843 167.843 0 0 1-12.779 11.525q-1.855 1.509-3.749 2.956-1.853 1.42-3.74 2.784a165.011 165.011 0 0 1-190.589 1.424q-1.861-1.3-3.693-2.657-1.869-1.387-3.7-2.836a167.553 167.553 0 0 1-14.865-13.2 164.837 164.837 0 1 1 233.115 0z" fill="#3fa0d7"/><path d="M400.7 296.274a97.629 97.629 0 0 0-24.618-63.864c-10.771-16-39.06-27.429-72.263-27.429-26.29 0-49.495 7.164-63.366 18.091h-.087c-.265.231-.523.47-.786.7a45.387 45.387 0 0 0-4.868 4.622 107.63 107.63 0 0 0-30.479 75.727c0 .7.083 1.378.1 2.074h-.133c0 27.848 9.8 48.879 19.273 69.217 8.463 18.163 16.455 35.316 16.455 55.833v53.595h107.184v-49.126h22.33a31.3 31.3 0 0 0 31.258-31.263v-35.728h26.8v-14.379z" fill="#3fa0d7"/><path d="M357.054 304.906h-14.281a5.356 5.356 0 1 1 0-10.711h14.282a5.356 5.356 0 0 1 0 10.711zm-8.709-40.842l-9.72 9.719-2.777 2.777-.016-.015a5.278 5.278 0 0 1-3.771 1.584 5.356 5.356 0 0 1-5.356-5.356A5.277 5.277 0 0 1 328.29 269l-.016-.016 2.777-2.777 9.719-9.72a5.356 5.356 0 0 1 7.574 7.574zm-43.061 56.909a21.4 21.4 0 0 1-18.63-10.87l-2.112-5.28a21.41 21.41 0 1 1 20.742 16.15zm0-32.134a10.711 10.711 0 1 0 10.711 10.712 10.712 10.712 0 0 0-10.711-10.712zm0-21.422a5.356 5.356 0 0 1-5.356-5.356v-14.282a5.356 5.356 0 0 1 10.711 0v14.282a5.356 5.356 0 0 1-5.355 5.356zm-22.991 62.7l-2.777 2.777-9.719 9.719a5.356 5.356 0 1 1-7.574-7.574l9.719-9.719 2.777-2.777a5.356 5.356 0 1 1 7.574 7.574zm-3.787-51.987a5.279 5.279 0 0 1-3.771-1.584l-.016.015-2.777-2.777-9.719-9.719a5.356 5.356 0 0 1 7.574-7.574l9.719 9.72 2.777 2.777-.016.016a5.277 5.277 0 0 1 1.584 3.771 5.356 5.356 0 0 1-5.355 5.353zm-10.711 16.067a5.356 5.356 0 1 1 0 10.711h-14.282a5.356 5.356 0 0 1 0-10.711zm37.489 37.489a5.355 5.355 0 0 1 5.356 5.356v14.278a5.356 5.356 0 0 1-10.711 0v-14.281a5.355 5.355 0 0 1 5.355-5.355zm26.778-10.711a5.34 5.34 0 0 1 3.787 1.569l2.777 2.777 9.72 9.719a5.356 5.356 0 0 1-7.574 7.574l-9.719-9.719-2.777-2.777a5.356 5.356 0 0 1 3.787-9.142z" fill="#fff" fill-rule="evenodd"/></svg>