<svg xmlns="http://www.w3.org/2000/svg" width="625" height="625" viewBox="0 0 625 625"><title>Teamwork</title><ellipse cx="222.633" cy="384.716" rx="46.817" ry="11.235" fill="#3f9fd6"/><ellipse cx="403.967" cy="384.716" rx="46.817" ry="11.235" fill="#3f9fd6"/><path d="M312.506 18a294.588 294.588 0 0 1 114.629 565.875A294.586 294.586 0 0 1 197.876 41.136 292.644 292.644 0 0 1 312.506 18m0-18C139.914 0 0 139.913 0 312.505s139.914 312.506 312.506 312.506S625.011 485.1 625.011 312.505 485.1 0 312.506 0z" fill="#3fa0d7"/><path d="M178.069 142.543l-9.215 7.723-16.454-19.631-6.737 5.646-6.522-7.782 22.689-19.016 6.522 7.783-6.737 5.646zm-6.788-39.568L192.3 90.181l5.2 8.544-11.349 6.909 1.6 2.632 10.658-6.488 4.859 7.982-10.658 6.489 1.734 2.848 12.082-7.355 5.2 8.544-21.748 13.24zm42.675-22.963l11.887-4.7 26.108 28.144-12.17 4.807-3.668-4.2-10.572 4.176.286 5.536-11.841 4.677zm10.363 9.322l.522 9.3 5.4-2.134zm38.604-8.734l3.789 19.856-11.07 1.8-5.735-35.3 15.524-2.521 9.478 17.96.249-.041 2.454-19.9 16.025-2.6 5.735 35.3-11.572 1.877-2.875-19.9h-.308l-3.35 20.966-8.377 1.36-9.718-18.897zm62.461 15.6l-12.082-1-6.757-36.45 12.686 1.05 2.163 20.355.2.017 5.792-19.694 12.536 1.041 2.816 20.409.2.017 5.541-19.715 12.284 1.02-12.875 34.823-12.083-1-3.362-20.556-.2-.017zm40.006-13.278A19.133 19.133 0 0 1 369.2 76a17.251 17.251 0 0 1 5.768-4.329 18.525 18.525 0 0 1 7.131-1.637 24.3 24.3 0 0 1 15.008 4.817 18.8 18.8 0 0 1 4.869 5.49 17.052 17.052 0 0 1 2.193 6.885 19.132 19.132 0 0 1-.927 7.847 19.676 19.676 0 0 1-3.837 6.992 17.672 17.672 0 0 1-5.838 4.467 18.832 18.832 0 0 1-7.193 1.749 23.443 23.443 0 0 1-15.007-4.818 18.523 18.523 0 0 1-4.808-5.6 17.847 17.847 0 0 1-2.123-7.022 19.663 19.663 0 0 1 .954-7.919zm12.169 3.906a9.442 9.442 0 0 0-.483 3.24 7.764 7.764 0 0 0 .623 2.854 6.408 6.408 0 0 0 1.639 2.25 6.9 6.9 0 0 0 2.516 1.418 6.671 6.671 0 0 0 5.489-.572 7.545 7.545 0 0 0 2.191-1.949 9.432 9.432 0 0 0 1.493-2.916 9.063 9.063 0 0 0 .46-3.169 6.774 6.774 0 0 0-.678-2.764 6.942 6.942 0 0 0-1.669-2.154 7.023 7.023 0 0 0-2.5-1.387 7.191 7.191 0 0 0-2.863-.335 6.6 6.6 0 0 0-2.611.779 6.972 6.972 0 0 0-2.137 1.861 9.065 9.065 0 0 0-1.47 2.844zm43.419-2.736l13.5 7.419a26.113 26.113 0 0 1 4.327 2.982 13.221 13.221 0 0 1 3.173 3.876 10.156 10.156 0 0 1 1.174 4.737 11.392 11.392 0 0 1-1.605 5.545 10.123 10.123 0 0 1-10.117 5.449l.974 17.077-12.104-6.65.149-14.5-.31-.17-6.153 11.2-10.229-5.619zm2.866 18.809l2.065 1.135a9.623 9.623 0 0 0 1.213.551 4.084 4.084 0 0 0 1.393.275 3.03 3.03 0 0 0 1.36-.29 2.545 2.545 0 0 0 1.116-1.146 2.832 2.832 0 0 0 .422-1.5 2.258 2.258 0 0 0-.39-1.165 3.585 3.585 0 0 0-.884-.889 10.418 10.418 0 0 0-1.019-.646l-2.5-1.375zm30.967 27.763l-.078-.064-8.987 11.054-9.055-7.362 22.564-27.751 9.015 7.33-8.317 10.23.078.063 15.727-4.206 10.975 8.924-20.753 4.218-1.3 23.943-11.445-9.307z" fill="#3fa0d7"/><g fill="#3fa0d7"><path d="M290.938 326.038a84.738 84.738 0 0 1-10.337-3.416 107.442 107.442 0 0 1-9.892-4.556l-2.882-1.558c-4.149-2.323-6.645-4.068-6.645-4.068l-.012.04-.06-.04-.429 1.353c-1.6 2.171-7.451 8.383-22.548 8.606-15.492.228-21.657-6.837-23.187-9l-.3-.956-.059.04-.012-.04s-2.5 1.745-6.644 4.068l-2.882 1.559a107.394 107.394 0 0 1-9.9 4.559 84.749 84.749 0 0 1-10.332 3.413c-12.264 3.112-12.857 17.267-12.375 24.269 0 0 .7 9.523 1.407 13.673l1.967 20.736h123.292l2.8-20.736c.7-4.15 1.409-13.673 1.409-13.673.483-7.011-.117-21.161-12.379-24.273z"/><path d="M214.256 235.37a30.148 30.148 0 0 0-8.151 14.3c-1.149 4.409-.889 9 .074 13.97a24.8 24.8 0 0 0 1.186 4.372c-2.705-.259-5.892 1.3-2.891 11.931 2.15 7.744 4.188 9.93 5.744 10.041 1.408 9.226 8.522 20.935 20.194 25.048a21.9 21.9 0 0 0 14.82-.032c11.486-4.15 18.859-15.822 20.268-25.011 1.555-.111 3.593-2.3 5.779-10.041 2.972-10.492-.122-12.115-2.809-11.93-.022-.028-.034-.065-.056-.092a32.218 32.218 0 0 0 1.161-4.281c4.557-27.457-8.93-28.42-8.93-28.42a17.363 17.363 0 0 0-3.48-4.225h.006l-.874-.767v.007a24.278 24.278 0 0 0-3.8-2.582 27.488 27.488 0 0 0-16.711-3.519 24.712 24.712 0 0 0-6.67 1.26 29.757 29.757 0 0 0-7.336 3.742c-.788.5-1.561 1.032-2.321 1.595l-.335.251a39.083 39.083 0 0 0-4.868 4.383z"/></g><g fill="#3fa0d7"><path d="M442.552 326.038a84.738 84.738 0 0 1-10.337-3.416 107.442 107.442 0 0 1-9.892-4.556l-2.882-1.558c-4.149-2.323-6.645-4.068-6.645-4.068l-.012.04-.06-.04-.429 1.353c-1.6 2.171-7.451 8.383-22.548 8.606-15.492.228-21.657-6.837-23.187-9l-.3-.956-.059.04-.012-.04s-2.5 1.745-6.644 4.068l-2.882 1.559a107.394 107.394 0 0 1-9.9 4.559 84.749 84.749 0 0 1-10.332 3.413c-12.264 3.112-12.857 17.267-12.375 24.269 0 0 .7 9.523 1.407 13.673l1.967 20.736h123.292l2.8-20.736c.7-4.15 1.409-13.673 1.409-13.673.478-7.011-.116-21.161-12.379-24.273z"/><path d="M365.869 235.37a30.148 30.148 0 0 0-8.151 14.3c-1.149 4.409-.889 9 .074 13.97a24.8 24.8 0 0 0 1.186 4.372c-2.705-.259-5.892 1.3-2.891 11.931 2.15 7.744 4.188 9.93 5.744 10.041 1.408 9.226 8.522 20.935 20.194 25.048a21.9 21.9 0 0 0 14.821-.032c11.486-4.15 18.859-15.822 20.268-25.011 1.555-.111 3.593-2.3 5.779-10.041 2.972-10.492-.122-12.115-2.809-11.93-.022-.028-.034-.065-.056-.092a32.218 32.218 0 0 0 1.161-4.281c4.557-27.457-8.93-28.42-8.93-28.42a17.363 17.363 0 0 0-3.481-4.225l-.872-.767v.007a24.278 24.278 0 0 0-3.8-2.582 27.488 27.488 0 0 0-16.711-3.519 24.712 24.712 0 0 0-6.67 1.26 29.757 29.757 0 0 0-7.336 3.742c-.788.5-1.561 1.032-2.321 1.595l-.335.251a39.083 39.083 0 0 0-4.864 4.383z"/></g><path d="M207.871 399.428c-1.63-23.7 7.141-39.759 24.06-44.052a120.128 120.128 0 0 0 14.684-4.856 154.514 154.514 0 0 0 14.207-6.542l4.249-2.3c5.786-3.241 9.331-5.7 9.362-5.724l8.111-5.672.051.166.01-.007 2.926 9.24.08.251c2.525 3.063 10.029 9.741 27.363 9.741.327 0 .66 0 .993-.007 17.662-.26 25.1-6.354 27.634-9.227l.241-.76 2.222-7.008.723-2.4 8.147 5.676c.035.025 3.582 2.486 9.367 5.728l4.249 2.3a154.529 154.529 0 0 0 14.188 6.534 120.178 120.178 0 0 0 14.7 4.863c16.925 4.295 25.7 20.352 24.063 44.09-.043.587-1.053 14.151-2.133 20.842l-1.078 22.062a167.843 167.843 0 0 0 12.779-11.525 164.837 164.837 0 1 0-233.115 0 167.553 167.553 0 0 0 14.865 13.2L210 420.253c-1.08-6.709-2.083-20.204-2.129-20.825z" fill="none"/><path d="M408.795 448.108l1.4-28.566c1.062-6.255 2.123-20.608 2.123-20.608.726-10.555-.168-31.89-18.654-36.58a127.726 127.726 0 0 1-15.584-5.154 161.933 161.933 0 0 1-14.91-6.867l-4.344-2.349c-6.254-3.5-10.015-6.131-10.015-6.131l-2.948-2.955c-2.412 3.272-9.206 12.05-31.961 12.385-.369.005 0 0-.362 0-22.546 0-29.751-9.024-32.022-12.237s-2.935 2.863-2.941 2.867l2.941-2.867a110.207 110.207 0 0 1-12.974 8.938l-4.344 2.349a161.874 161.874 0 0 1-14.918 6.871 127.749 127.749 0 0 1-15.573 5.145c-18.486 4.691-19.378 26.026-18.652 36.58 0 0 1.06 14.353 2.121 20.608l1.031 29.99a165.011 165.011 0 0 0 190.589-1.424z" fill="#3f9fd6"/><path d="M213.586 419.9c-1.062-6.456-2.078-20.118-2.121-20.7-1.5-21.814 6.282-36.51 21.355-40.334a123.75 123.75 0 0 0 15.133-5 158.231 158.231 0 0 0 14.579-6.716l4.3-2.325c5.951-3.331 9.629-5.89 9.666-5.915l4.033-2.815.128.408 1.439 4.271 1.068.3c2.455 3.226 9.979 12.2 29.806 12.2.345 0 .7 0 1.047-.008 20.175-.3 27.247-9.883 29.679-12.909l3.028-4.176.049.032.024-.079 4.074 2.771c.036.025 3.716 2.584 9.713 5.94l4.3 2.323a158.116 158.116 0 0 0 14.531 6.69 123.554 123.554 0 0 0 15.136 5c15.07 3.824 22.855 18.52 21.357 40.316-.045.6-1.064 14.3-2.13 20.748l-1.241 25.4q1.891-1.45 3.749-2.956l1.078-22.062c1.079-6.691 2.089-20.255 2.133-20.842 1.633-23.739-7.138-39.8-24.063-44.09a120.178 120.178 0 0 1-14.7-4.863 154.529 154.529 0 0 1-14.188-6.534l-4.249-2.3c-5.786-3.242-9.332-5.7-9.367-5.728l-8.147-5.676-.723 2.4-2.222 7.008-.241.76c-2.53 2.873-9.971 8.967-27.634 9.227-.333 0-.666.007-.993.007-17.334 0-24.837-6.677-27.363-9.741l-.08-.251-2.926-9.24-.01.007-.051-.166-8.111 5.672c-.031.021-3.576 2.483-9.362 5.724l-4.249 2.3a154.514 154.514 0 0 1-14.207 6.542 120.128 120.128 0 0 1-14.684 4.856c-16.919 4.293-25.69 20.35-24.06 44.052.046.621 1.05 14.116 2.125 20.825l.818 23.786q1.834 1.443 3.7 2.836z" fill="#fff"/><path d="M312.506 131.449a182.843 182.843 0 0 0-100.912 335.314q1.827 1.212 3.684 2.38 1.826 1.149 3.679 2.255a182.969 182.969 0 0 0 188.747-.989q1.874-1.145 3.719-2.334 1.878-1.211 3.725-2.466a182.847 182.847 0 0 0-102.642-334.16zm116.558 299.4a167.843 167.843 0 0 1-12.779 11.525q-1.855 1.509-3.749 2.956-1.853 1.42-3.74 2.784a165.011 165.011 0 0 1-190.589 1.424q-1.861-1.3-3.693-2.657-1.869-1.387-3.7-2.836a167.553 167.553 0 0 1-14.865-13.2 164.837 164.837 0 1 1 233.115 0z" fill="#3fa0d7"/><path d="M313.539 351.287a36.588 36.588 0 0 1-12.317-2.129c-18.383-6.479-29.441-24.031-32.4-38.459-3.493-2.02-6.331-7.419-8.951-16.857-2.68-9.5-2.626-15.648.175-19.348a7.9 7.9 0 0 1 3-2.434 44.546 44.546 0 0 1-.675-3.119c-1.727-8.9-1.746-16.1-.052-22.6 1.939-8.39 6.388-16.217 13.2-23.168a62.227 62.227 0 0 1 7.729-6.949l.524-.393a60.125 60.125 0 0 1 3.679-2.532 47.9 47.9 0 0 1 11.9-6.045 41.029 41.029 0 0 1 10.951-2.077c1.534-.131 3.067-.2 4.561-.2a44.11 44.11 0 0 1 22.649 5.967l.35.194v-1.12l7.291 6.384 7.191 6.307h-.615a19 19 0 0 1 8.237 6.191c6.412 8.136 8.115 21.591 5.062 39.992l-.025.134a66.407 66.407 0 0 1-.7 3.052 8.011 8.011 0 0 1 3.042 2.462c2.8 3.7 2.853 9.84.168 19.317-2.661 9.426-5.516 14.82-9 16.838-3.064 14.666-14.829 32.015-32.5 38.4a36.29 36.29 0 0 1-12.474 2.192z" fill="#3f9fd6"/><path d="M314.851 208.581a40.442 40.442 0 0 1 20.866 5.495 36.583 36.583 0 0 1 5.731 3.891v-.01l1.317 1.156h-.01a26.17 26.17 0 0 1 5.245 6.355s20.329 1.452 13.46 42.837a48.541 48.541 0 0 1-1.75 6.452c.033.041.052.1.085.139.19-.013.381-.02.573-.02 3.894 0 7.931 2.93 3.662 18-3.295 11.672-6.367 14.967-8.711 15.134-2.124 13.851-13.237 31.442-30.55 37.7a33.007 33.007 0 0 1-22.34.056c-17.592-6.2-28.315-23.848-30.437-37.755-2.345-.167-5.417-3.462-8.657-15.134-4.237-15.013-.292-18.023 3.576-18.022.262 0 .523.014.782.039a37.356 37.356 0 0 1-1.787-6.59c-1.452-7.484-1.844-14.41-.112-21.056a45.442 45.442 0 0 1 12.286-21.556 58.938 58.938 0 0 1 7.335-6.6l.505-.378a53.997 53.997 0 0 1 3.5-2.4 44.854 44.854 0 0 1 11.058-5.64 37.246 37.246 0 0 1 10.054-1.9q2.235-.194 4.321-.19m0-7.2c-1.574 0-3.19.069-4.806.205a44.622 44.622 0 0 0-11.847 2.251 51.386 51.386 0 0 0-12.731 6.45 63.52 63.52 0 0 0-3.835 2.641l-.529.4a66.325 66.325 0 0 0-8.219 7.384A52.44 52.44 0 0 0 258.8 245.53c-1.807 7-1.8 14.667.027 24.1q.072.4.149.789a11.7 11.7 0 0 0-1.806 1.9c-3.537 4.673-3.78 11.827-.765 22.513 1.978 7.125 4.608 14.427 9.212 18.052 3.606 15.131 15.323 32.943 34.419 39.672a40.208 40.208 0 0 0 27.2-.082 53.4 53.4 0 0 0 24.256-18.433 58.52 58.52 0 0 0 10.2-21.161c4.6-3.623 7.255-10.915 9.269-18.047 3.015-10.646 2.774-17.786-.761-22.462a11.73 11.73 0 0 0-1.829-1.926q.074-.343.146-.694l.028-.134.022-.135c3.227-19.442 1.281-33.845-5.785-42.809a23 23 0 0 0-7.843-6.458l-7.423-6.515-1.317-1.156-11.949-10.488v3.21a48.5 48.5 0 0 0-19.4-3.887z" fill="#fff"/><path d="M280.657 336.5l-.128-.408-4.033 2.815c-.037.025-3.715 2.584-9.666 5.915l-4.3 2.325a158.231 158.231 0 0 1-14.579 6.716 123.75 123.75 0 0 1-15.133 5c-15.073 3.824-22.857 18.52-21.355 40.334.043.586 1.059 14.248 2.121 20.7l.927 26.973q1.829 1.358 3.693 2.657l-1.031-29.99c-1.061-6.255-2.121-20.608-2.121-20.608-.726-10.555.167-31.89 18.652-36.58a127.749 127.749 0 0 0 15.573-5.145 161.874 161.874 0 0 0 14.918-6.871l4.344-2.349c6.254-3.5 10.033-6.071 10.033-6.071l2.941-2.867zm113.892 22.364a123.554 123.554 0 0 1-15.136-5 158.116 158.116 0 0 1-14.531-6.69l-4.3-2.323c-6-3.356-9.677-5.915-9.713-5.94l-4.074-2.771-.024.079-.049-.032-.862 2.719 2.948 2.955s3.761 2.63 10.015 6.131l4.344 2.349a161.933 161.933 0 0 0 14.91 6.867 127.726 127.726 0 0 0 15.581 5.149c18.485 4.691 19.38 26.026 18.654 36.58 0 0-1.062 14.353-2.123 20.608l-1.4 28.566q1.887-1.364 3.74-2.784l1.241-25.4c1.065-6.445 2.085-20.144 2.13-20.748 1.5-21.795-6.281-36.491-21.351-40.315z" fill="#fff"/></svg>