<svg width="100" height="86" viewBox="0 0 100 86" xmlns="http://www.w3.org/2000/svg"><title>calendar</title><g fill="none" fill-rule="evenodd" opacity=".5"><path d="M8 9a5 5 0 0 0-5 5v64a5 5 0 0 0 5 5h84a5 5 0 0 0 5-5V14a5 5 0 0 0-5-5H8z" stroke="#0D1733" stroke-width="6"/><path d="M25 0a5 5 0 0 1 5 5v10a5 5 0 0 1-10 0V5a5 5 0 0 1 5-5zM49 0a5 5 0 0 1 5 5v10a5 5 0 0 1-10 0V5a5 5 0 0 1 5-5zM75 0a5 5 0 0 1 5 5v10a5 5 0 0 1-10 0V5a5 5 0 0 1 5-5z" fill="#0D1733"/><path d="M3 27h94" stroke="#0D1733" stroke-width="2" stroke-linecap="square"/><path fill="#0D1733" d="M16 36h20v14H16zM40 36h20v14H40zM64 36h20v14H64zM16 58h20v14H16zM40 58h20v14H40zM64 58h20v14H64z"/></g></svg>