<svg width="150" height="50" viewBox="0 0 150 50" xmlns="http://www.w3.org/2000/svg"><title>OneCampus Login@1x</title><g fill="none" fill-rule="evenodd"><path d="M50.957 14.859V9.293h-1.611V16.2h4.004v-1.341h-2.393zm7.448-1.442c0-.74-.2-1.301-.59-1.671-.411-.38-1.032-.571-1.843-.571-.74 0-1.441.17-2.112.5l.42 1.042c.32-.21.952-.44 1.512-.44.67 0 1.011.26 1.011.79v.11l-1.241.05c-.67.03-1.221.18-1.622.65-.2.23-.3.511-.3.862 0 .51.18.9.53 1.17.35.271.771.401 1.262.401.49 0 .96-.23 1.12-.36.08-.07.181-.16.291-.27l.03.52h1.532v-2.783zm-1.592 1.422c-.13.21-.43.45-.82.45-.441 0-.751-.24-.751-.61 0-.38.26-.581.78-.601l.791-.05v.81zm5.716-3.574v2.623c0 .68-.28 1.1-.831 1.1-.49 0-.73-.32-.73-.96v-2.763h-1.602v2.983c0 .65.12 1.141.36 1.482.29.39.76.58 1.411.58s1.202-.32 1.442-.67l.01.56h1.541v-4.935H62.53zm5.946-.03c-.07-.03-.25-.06-.45-.06-.541 0-.952.26-1.222.79h-.02l.01-.7h-1.602V16.2h1.602v-2.192c0-.47.08-.811.25-1.031a.88.88 0 0 1 .741-.36c.24 0 .43.04.58.12h.07l.09-1.472-.05-.03zm5.285 2.352c0-.72-.23-1.3-.69-1.741-.451-.45-1.052-.671-1.782-.671-.761 0-1.392.23-1.902.69-.51.461-.761 1.082-.761 1.873 0 .8.24 1.431.73 1.891.491.45 1.122.681 1.903.681.65 0 1.15-.15 1.511-.27.4-.17.57-.32.74-.45l.09-.08-.63-.832a2.6 2.6 0 0 1-1.481.47c-.69 0-1.191-.35-1.261-1.03h3.513l.02-.53zm-3.523-.38c.03-.52.41-.991 1.02-.991.631 0 1.002.48 1.012.991h-2.032zm8.688.21c0-.74-.2-1.301-.59-1.671-.41-.38-1.031-.571-1.842-.571-.741 0-1.442.17-2.112.5l.42 1.042c.32-.21.951-.44 1.512-.44.67 0 1.01.26 1.01.79v.11l-1.24.05c-.671.03-1.222.18-1.622.65-.2.23-.3.511-.3.862 0 .51.18.9.53 1.17.35.271.77.401 1.261.401.49 0 .961-.23 1.121-.36.08-.07.18-.16.29-.27l.03.52h1.532v-2.783zm-1.591 1.422c-.13.21-.43.45-.821.45-.44 0-.751-.24-.751-.61 0-.38.26-.581.78-.601l.792-.05v.81zm4.434-3.564V9.934h-1.612v1.341h-.7v1.211h.7v1.912c0 .69.12 1.181.35 1.452.271.31.671.46 1.202.46.33 0 .71-.05 1.141-.16l-.08-1.251-.06.02c-.09.03-.27.07-.42.07-.19 0-.31-.04-.38-.12-.09-.11-.141-.31-.141-.61v-1.773h1.091v-1.21h-1.091zm6.477 2.312c0-.72-.23-1.3-.691-1.741-.45-.45-1.051-.671-1.782-.671-.76 0-1.391.23-1.902.69-.51.461-.76 1.082-.76 1.873 0 .8.24 1.431.73 1.891.49.45 1.121.681 1.902.681.65 0 1.151-.15 1.512-.27.4-.17.57-.32.74-.45l.09-.08-.63-.832a2.6 2.6 0 0 1-1.482.47c-.69 0-1.19-.35-1.261-1.03h3.513l.02-.53zm-3.524-.38c.03-.52.41-.991 1.021-.991.63 0 1.001.48 1.011.991h-2.032z" fill="#666"/><path d="M36.623 13.214a56.216 56.216 0 0 1-.842-.451 1.734 1.734 0 0 1-.4-.278.99.99 0 0 1-.066-.074 1.719 1.719 0 0 1-.08-.11 4.166 4.166 0 0 1-.22-.374 251.276 251.276 0 0 0-.575-1.075 6.952 6.952 0 0 0-.349-.585 4.766 4.766 0 0 0-.319-.427 2.11 2.11 0 0 0-.517-.448l-.528.89.556-.872c-.311-.203-.685-.333-1.118-.406-.334-.056-.68-.1-1.04-.13a75.902 75.902 0 0 1-.957-.086 1.764 1.764 0 0 1-.475-.098 1.163 1.163 0 0 1-.227-.134 9.42 9.42 0 0 1-.431-.333 36.742 36.742 0 0 1-.495-.413 13.688 13.688 0 0 0-.558-.448 5.545 5.545 0 0 0-.604-.403 2.553 2.553 0 0 0-.763-.295c-.372-.072-.769-.051-1.198.048-.33.076-.667.17-1.012.28-.308.1-.613.195-.915.287a1.948 1.948 0 0 1-.499.098 1.81 1.81 0 0 1-.481-.087 35.44 35.44 0 0 1-.906-.278 11.74 11.74 0 0 0-1.016-.277c-.428-.095-.826-.113-1.197-.038a2.386 2.386 0 0 0-.583.207 4.133 4.133 0 0 0-.476.28 6.89 6.89 0 0 0-.541.412l-.141.117-.067.056a300.07 300.07 0 0 1-.722.605c-.122.103-.237.19-.346.264a1.84 1.84 0 0 1-.12.076.983.983 0 0 1-.081.041c-.04.017-.125.04-.239.059-.17.028-.35.052-.542.073-.208.022-.417.041-.627.058-.245.02-.486.047-.72.082a6.21 6.21 0 0 0-.695.143c-.28.076-.535.187-.758.339-.222.15-.42.346-.597.581a5.759 5.759 0 0 0-.397.604c-.115.2-.229.41-.34.633-.095.19-.193.38-.295.571-.09.171-.18.33-.27.479-.06.099-.113.17-.155.213a1.38 1.38 0 0 1-.171.133c-.11.074-.235.15-.376.226a595.88 595.88 0 0 0-1.067.58c-.209.113-.4.229-.575.348-.357.243-.635.5-.832.788l-.019.028c-.198.312-.328.685-.402 1.116-.059.337-.102.69-.13 1.06-.025.322-.053.64-.085.952-.023.22-.06.384-.1.484a2.096 2.096 0 0 1-.28.438c-.195.249-.393.497-.596.743-.226.276-.435.551-.63.826-.256.365-.427.73-.5 1.103a2.59 2.59 0 0 0-.015.824c.03.227.075.463.137.708.06.235.127.469.204.705.067.209.132.415.194.618.056.185.104.36.145.528.026.11.038.195.038.252 0 .06-.011.15-.037.266a7.618 7.618 0 0 1-.139.522c-.062.208-.126.415-.192.624-.075.237-.14.472-.197.705-.059.24-.103.475-.132.702-.036.29-.034.56.014.815l1.01-.193-1.016.155c.034.226.109.444.219.657.078.15.169.302.273.457.122.183.258.365.408.548l.104.127a729.715 729.715 0 0 0 .668.81c.104.126.191.242.262.347a1.706 1.706 0 0 1 .119.212c.039.09.078.256.103.481.035.301.07.622.106.982.038.364.086.71.143 1.04.078.44.213.816.423 1.13.15.223.344.422.576.6.185.14.383.27.595.394.204.12.414.234.63.342.188.095.375.191.563.29.164.087.315.174.454.26.097.06.168.116.214.162l.72-.74-.74.718a1.16 1.16 0 0 1 .15.192c.07.105.145.23.222.376a141.704 141.704 0 0 0 .574 1.073c.11.207.227.403.349.585.104.155.21.297.318.426.154.183.327.334.521.45l.526-.89-.567.865c.319.212.7.345 1.138.416.328.054.675.095 1.039.123.33.026.646.054.947.083.218.021.376.057.473.097.055.025.142.075.244.147.133.093.274.201.424.324.162.134.325.271.488.412.189.162.379.315.57.457.204.15.403.282.601.394.253.144.506.244.764.294.256.05.528.054.815.017.233-.031.47-.08.716-.147.222-.06.445-.127.672-.2.233-.076.43-.139.614-.195.198-.06.373-.11.531-.15a1.16 1.16 0 0 1 .256-.04c.055 0 .144.01.257.037.166.038.342.084.529.14.19.055.389.118.6.188.237.078.47.147.702.206.245.063.481.11.71.138.295.038.574.031.836-.028l-.226-1.011.158 1.024c.222-.035.437-.11.646-.219.153-.08.303-.172.457-.276.173-.118.35-.253.533-.405l.468-.39.469-.394c.125-.105.242-.194.346-.265a1.613 1.613 0 0 1 .198-.114l-.406-.952.38.962a2.08 2.08 0 0 1 .505-.108c.298-.034.613-.066.943-.095.367-.033.713-.079 1.044-.138.435-.077.812-.215 1.127-.43.31-.211.576-.51.81-.888.179-.287.351-.595.518-.923.156-.308.3-.588.44-.847.105-.199.203-.34.285-.425a1.476 1.476 0 0 1 .164-.127c.104-.07.228-.145.374-.224l.523-.282.539-.294a7.02 7.02 0 0 0 .581-.353c.153-.104.294-.21.421-.32.184-.159.334-.332.449-.526l-.884-.53.858.57c.147-.224.255-.48.33-.764.057-.219.102-.456.137-.71.03-.232.055-.47.074-.712.016-.219.034-.435.053-.652.017-.195.04-.373.066-.537.019-.12.041-.207.064-.263a1.92 1.92 0 0 1 .27-.408c.22-.273.418-.515.613-.75.237-.29.448-.568.638-.842.252-.362.42-.727.492-1.099a2.6 2.6 0 0 0 .017-.823 5.594 5.594 0 0 0-.146-.722c-.058-.222-.127-.45-.206-.688-.07-.207-.135-.41-.196-.612a7.122 7.122 0 0 1-.14-.516 1.62 1.62 0 0 1-.043-.302l-1.028.03 1.028-.001c0-.059.011-.143.037-.25a9.66 9.66 0 0 1 .142-.539c.056-.19.117-.39.189-.611.078-.241.145-.473.202-.698a5.9 5.9 0 0 0 .136-.71 2.58 2.58 0 0 0-.02-.834l-.004-.021c-.076-.341-.24-.685-.48-1.044a6.921 6.921 0 0 0-.407-.546l-.116-.14a215.118 215.118 0 0 0-.655-.797 4.174 4.174 0 0 1-.264-.349 1.735 1.735 0 0 1-.073-.118 1 1 0 0 1-.042-.085 1.327 1.327 0 0 1-.062-.25 8.535 8.535 0 0 1-.073-.543c-.021-.202-.04-.412-.058-.633-.02-.25-.047-.491-.081-.726a6.36 6.36 0 0 0-.143-.701 2.518 2.518 0 0 0-.335-.764l-.016-.023-.016-.023a3.165 3.165 0 0 0-.863-.762 13.19 13.19 0 0 0-.907-.52zm-.948 1.84c.27.141.525.287.765.439.162.102.264.19.312.254l.82-.625-.852.58a.51.51 0 0 1 .053.14c.038.142.07.299.096.472.027.185.05.38.065.583.019.24.04.468.063.688.024.23.054.455.091.672.045.264.11.503.198.717a3.143 3.143 0 0 0 .302.549c.114.17.244.343.39.519a285.828 285.828 0 0 1 .649.788l.116.141c.11.133.205.26.287.383.108.162.164.28.177.337l1.003-.226-1.008.205a.574.574 0 0 1-.003.162 3.825 3.825 0 0 1-.09.459c-.045.18-.1.369-.165.569-.077.24-.145.459-.205.667-.064.216-.121.432-.17.642-.061.254-.094.5-.093.735v.028c.006.222.038.456.095.704.048.212.108.435.18.668.066.217.136.436.21.658.066.198.123.386.17.567.044.162.074.312.093.453.01.077.009.131.004.158a.963.963 0 0 1-.16.307c-.157.228-.335.462-.535.707-.196.237-.398.484-.623.762a3.85 3.85 0 0 0-.577.926 3.285 3.285 0 0 0-.194.725c-.035.213-.063.441-.084.684-.02.226-.039.452-.056.679-.015.202-.036.4-.061.592a3.79 3.79 0 0 1-.088.457.567.567 0 0 1-.057.153l-.013.02-.012.02c.005-.01.002-.005-.015.01a2.809 2.809 0 0 1-.237.178 4.964 4.964 0 0 1-.41.248l-.537.293-.515.278a6.41 6.41 0 0 0-.556.335c-.09.06-.172.122-.25.184a2.86 2.86 0 0 0-.227.204c-.24.25-.444.544-.633.899-.146.274-.298.567-.46.887-.14.275-.283.53-.43.767a.976.976 0 0 1-.217.27.953.953 0 0 1-.335.106c-.272.048-.56.086-.869.114-.345.031-.677.065-.993.1-.397.047-.74.125-1.034.243l-.025.01a3.639 3.639 0 0 0-.534.3 6.509 6.509 0 0 0-.515.393c-.092.078-.41.343-.464.39l-.467.388a4.877 4.877 0 0 1-.371.283 2.79 2.79 0 0 1-.259.158c-.014.007-.02.01-.01.008l-.033.005-.034.008a.518.518 0 0 1-.127-.006 3.806 3.806 0 0 1-.461-.091 8.73 8.73 0 0 1-.569-.167 22.16 22.16 0 0 0-.662-.208 11.005 11.005 0 0 0-.649-.171 3.208 3.208 0 0 0-.725-.09 3.13 3.13 0 0 0-.74.102 12.09 12.09 0 0 0-.636.179c-.196.06-.403.125-.644.204-.196.063-.39.121-.58.173a3.397 3.397 0 0 1-.444.092.562.562 0 0 1-.157.004.571.571 0 0 1-.147-.064 3.924 3.924 0 0 1-.392-.259c-.15-.111-.3-.232-.451-.362a32.24 32.24 0 0 0-.525-.443 9.19 9.19 0 0 0-.55-.419 3.59 3.59 0 0 0-.612-.352 3.66 3.66 0 0 0-1.083-.254 49.56 49.56 0 0 0-.986-.086 10.322 10.322 0 0 1-.87-.103.932.932 0 0 1-.332-.1l-.02-.014-.021-.012c.01.006.008.004-.006-.013a2.763 2.763 0 0 1-.18-.241 4.805 4.805 0 0 1-.243-.41 504.792 504.792 0 0 0-.29-.54c-.11-.205-.198-.37-.28-.527a6.385 6.385 0 0 0-.33-.557 3.782 3.782 0 0 0-.374-.47l-.021-.02a3.27 3.27 0 0 0-.573-.445 9.32 9.32 0 0 0-.582-.334 34.11 34.11 0 0 0-.599-.309 9.258 9.258 0 0 1-.517-.28 4.007 4.007 0 0 1-.39-.258.503.503 0 0 1-.107-.103.982.982 0 0 1-.103-.332c-.049-.278-.09-.577-.122-.893a93.731 93.731 0 0 0-.109-1.002 3.81 3.81 0 0 0-.264-1.081 3.25 3.25 0 0 0-.297-.536 6.379 6.379 0 0 0-.388-.517 134.916 134.916 0 0 1-.66-.802l-.106-.13a4.823 4.823 0 0 1-.288-.383 2.778 2.778 0 0 1-.155-.26c-.01-.016-.01-.02-.008-.006l-.007-.038a.64.64 0 0 1 .006-.166 4.25 4.25 0 0 1 .09-.471 8.39 8.39 0 0 1 .158-.567c.07-.22.136-.437.201-.653.069-.228.128-.45.176-.665.059-.26.09-.503.088-.733a3.204 3.204 0 0 0-.096-.733c-.05-.21-.11-.425-.177-.647a37.46 37.46 0 0 0-.206-.655 9.031 9.031 0 0 1-.166-.572 4.054 4.054 0 0 1-.09-.464.575.575 0 0 1-.005-.16.942.942 0 0 1 .158-.298c.164-.233.344-.468.538-.706.213-.258.421-.52.627-.781.25-.32.437-.624.56-.922.128-.307.208-.663.25-1.072.033-.33.063-.664.089-1.003.023-.306.059-.594.106-.864.03-.179.071-.296.107-.353l-.865-.56.847.588c.032-.047.127-.135.288-.245.117-.079.25-.16.401-.241a612.231 612.231 0 0 0 1.063-.578c.2-.108.385-.22.554-.335a3.16 3.16 0 0 0 .471-.382c.176-.178.324-.376.462-.605.11-.182.22-.376.328-.581.108-.205.212-.407.315-.61.094-.188.188-.363.283-.528a3.71 3.71 0 0 1 .255-.389.557.557 0 0 1 .11-.119.504.504 0 0 1 .141-.054c.138-.038.293-.07.467-.096a8.46 8.46 0 0 1 .578-.065c.229-.019.455-.04.68-.064.231-.025.45-.054.66-.089.262-.043.499-.107.713-.197a3.093 3.093 0 0 0 .544-.305c.169-.115.34-.246.514-.392a255.028 255.028 0 0 1 .716-.6l.067-.056.14-.117c.132-.11.259-.206.38-.289.085-.057.165-.105.24-.142.04-.02.068-.03.08-.033a.962.962 0 0 1 .342.032c.264.058.542.134.839.229.325.104.644.201.956.292.39.114.747.172 1.077.169a3.864 3.864 0 0 0 1.066-.186c.314-.095.63-.194.949-.297.29-.093.573-.172.846-.235a.956.956 0 0 1 .345-.033.593.593 0 0 1 .145.064c.118.068.245.153.377.253.151.115.308.241.472.38.166.141.337.284.523.436.185.151.36.286.53.408.214.156.425.278.637.365.298.126.653.206 1.065.246.362.035.677.064.985.09.302.025.593.06.87.108.177.03.292.07.344.104l.028.017c-.01-.006-.005-.002.01.016.056.066.116.147.178.24.082.122.164.26.245.41v.001a282.498 282.498 0 0 1 .57 1.067 6.2 6.2 0 0 0 .33.556 3.054 3.054 0 0 0 .382.477c.232.24.53.454.89.65.299.163.587.317.872.466zm-.893-6.394c-.34-.089-.685-.182-1.048-.283a2.078 2.078 0 0 1-.549-.22 1.251 1.251 0 0 1-.102-.074 2.073 2.073 0 0 1-.125-.109 4.835 4.835 0 0 1-.347-.366 284.143 284.143 0 0 0-.907-1.04 7.7 7.7 0 0 0-.525-.546c-.15-.142-.3-.268-.448-.38a2.243 2.243 0 0 0-.645-.341l-.316.986.347-.975c-.376-.137-.803-.182-1.283-.153-.379.023-.77.064-1.17.123-.336.05-.683.097-1.08.15-.262.035-.462.037-.591.014a1.44 1.44 0 0 1-.315-.099 10.765 10.765 0 0 1-.568-.26c-.23-.114-.445-.222-.654-.33-.252-.13-.49-.245-.722-.349a6.123 6.123 0 0 0-.753-.283A2.752 2.752 0 0 0 22.107 4c-.408.015-.823.135-1.255.347-.343.168-.688.356-1.038.565-.315.19-.628.373-.94.553a2.336 2.336 0 0 1-.562.25 2.17 2.17 0 0 1-.594.031 40.236 40.236 0 0 1-1.075-.073 13.153 13.153 0 0 0-1.18-.044c-.478.004-.905.083-1.276.253-.2.092-.384.212-.561.36-.15.123-.297.263-.441.419a7.717 7.717 0 0 0-.486.583l-.118.156-.047.062-.254.334-.411.546c-.111.148-.22.279-.324.392-.045.048-.085.089-.121.122a1.26 1.26 0 0 1-.09.076c-.052.036-.15.089-.279.142-.184.076-.379.15-.588.223-.226.079-.453.154-.681.227-.264.084-.519.175-.766.272-.26.104-.499.214-.717.33-.278.15-.52.33-.716.542a2.762 2.762 0 0 0-.488.758 6.42 6.42 0 0 0-.28.753c-.075.248-.147.507-.213.779-.057.235-.118.47-.182.71-.057.215-.117.416-.179.606a1.51 1.51 0 0 1-.13.304 1.536 1.536 0 0 1-.173.213 5.079 5.079 0 0 1-.368.356 679.536 679.536 0 0 0-1.032.915c-.198.176-.377.35-.537.522-.322.349-.556.69-.693 1.042l-.012.03c-.133.377-.18.805-.154 1.283.02.382.062.78.123 1.19.054.365.104.723.148 1.078.032.262.033.465.01.601-.024.141-.092.342-.209.592-.152.326-.31.652-.471.977-.178.36-.34.715-.483 1.065-.184.452-.277.88-.263 1.29.01.285.073.574.182.87.088.238.196.481.325.732.123.24.256.48.399.718.128.214.252.426.372.635.11.192.209.376.297.553.061.123.1.225.117.3.018.078.03.19.03.334.001.194-.006.402-.021.623-.016.246-.035.492-.055.74-.023.278-.036.55-.039.82-.004.275.007.541.032.794.031.315.099.599.21.855l.941-.418-.955.382c.088.225.218.435.384.63.122.143.257.283.407.424.177.167.37.33.58.49l.132.103a5629.4 5629.4 0 0 0 .956.735c.15.115.28.224.388.325a2.062 2.062 0 0 1 .202.221c.075.103.166.288.256.542.114.325.233.67.365 1.059.133.39.272.757.418 1.104.19.448.425.813.72 1.09.21.199.462.36.75.49.235.105.481.197.742.278.253.078.51.15.775.213.232.057.464.115.697.177.206.054.399.112.577.173.131.045.233.092.305.136l.537-.884-.562.868c.037.025.072.05.107.077.04.033.083.07.127.11.108.103.225.225.35.369a159.75 159.75 0 0 0 .878 1.007l.027.031c.171.197.346.38.524.546.15.142.3.268.447.38.205.153.421.269.65.343l.313-.988-.359.972c.386.144.82.192 1.305.159.372-.025.762-.068 1.168-.13.372-.057.729-.107 1.07-.152a2.08 2.08 0 0 1 .588-.014c.078.015.196.051.335.107.174.07.36.155.56.254.213.106.43.217.646.33.246.13.492.248.737.355a6.6 6.6 0 0 0 .747.275c.302.09.593.133.874.123.28-.01.568-.073.862-.183.244-.092.488-.204.737-.338.228-.123.456-.254.686-.392.238-.143.44-.263.63-.373.206-.12.389-.22.557-.306.125-.064.227-.104.302-.122.073-.017.184-.028.325-.029.196 0 .405.006.628.019.225.013.462.031.715.054.278.025.55.04.818.047.281.006.548-.003.802-.029.322-.033.612-.108.871-.233l-.445-.935.382.963c.222-.09.428-.22.62-.385.144-.125.283-.261.423-.412.159-.172.318-.362.478-.574l.419-.552c.05-.066.335-.443.417-.554a5.22 5.22 0 0 1 .325-.393 1.975 1.975 0 0 1 .21-.194l-.61-.836.587.852c.118-.083.306-.174.562-.266.322-.114.663-.23 1.02-.348.394-.13.762-.268 1.108-.417.445-.19.81-.43 1.09-.731.275-.298.483-.68.64-1.14.124-.36.236-.74.336-1.142.094-.381.184-.729.272-1.052.07-.258.146-.451.222-.578.006-.01.029-.04.056-.076a2 2 0 0 1 .11-.129c.101-.109.223-.226.367-.353l.506-.447.521-.463c.2-.178.38-.354.544-.53.139-.15.264-.3.374-.449.154-.211.269-.428.341-.657L41.388 32l.964.362c.1-.27.152-.566.161-.886a6.505 6.505 0 0 0-.027-.801 14.332 14.332 0 0 0-.097-.8 50.47 50.47 0 0 1-.107-.734 8.622 8.622 0 0 1-.064-.62 1.57 1.57 0 0 1 .006-.339c.022-.126.09-.32.207-.559.175-.358.333-.677.488-.987.187-.378.348-.736.487-1.084.18-.448.27-.876.256-1.284a2.807 2.807 0 0 0-.181-.87 6.182 6.182 0 0 0-.336-.743c-.12-.227-.252-.46-.398-.7-.13-.212-.254-.42-.373-.628a8.183 8.183 0 0 1-.29-.544 1.963 1.963 0 0 1-.134-.347l-.994.261 1.001-.234a1.414 1.414 0 0 1-.026-.319 11.1 11.1 0 0 1 .022-.638c.013-.226.03-.463.053-.727.025-.284.04-.554.047-.814a6.556 6.556 0 0 0-.029-.803 2.783 2.783 0 0 0-.222-.872l-.009-.02c-.161-.34-.418-.664-.763-.988a7.668 7.668 0 0 0-.578-.49l-.132-.101a252.604 252.604 0 0 0-.956-.736 4.839 4.839 0 0 1-.39-.326 2.093 2.093 0 0 1-.119-.12 1.269 1.269 0 0 1-.077-.094 1.606 1.606 0 0 1-.148-.29 9.79 9.79 0 0 1-.221-.588 27.68 27.68 0 0 1-.226-.689 11.956 11.956 0 0 0-.27-.772 7.048 7.048 0 0 0-.328-.723 2.706 2.706 0 0 0-.537-.722l-.02-.019-.02-.017c-.295-.249-.663-.443-1.103-.596-.36-.125-.734-.238-1.123-.34zm-.514 2.007c.338.088.66.185.967.292.219.076.37.155.452.225l.66-.795-.701.758c.034.032.076.09.123.178.08.152.157.322.23.51.08.202.153.414.223.638.082.259.162.504.243.74.083.245.173.483.268.71.112.272.239.51.384.714a3.4 3.4 0 0 0 .454.508c.166.155.35.31.552.464a320.945 320.945 0 0 1 .948.729l.133.101c.158.122.299.241.424.359.172.162.274.291.311.368l.927-.448-.936.429c.02.043.038.117.048.223.017.167.023.35.019.547-.005.213-.018.44-.04.68-.024.283-.043.541-.057.785-.016.254-.024.504-.025.746a3.43 3.43 0 0 0 .079.803l.007.028c.06.235.152.476.273.728.105.219.226.446.363.683.128.221.26.444.397.67a11 11 0 0 1 .337.59c.091.172.165.336.223.492a.777.777 0 0 1 .053.218c.003.09-.028.237-.108.436-.118.296-.256.604-.417.93-.157.312-.317.636-.496 1-.197.405-.33.78-.39 1.134a3.59 3.59 0 0 0-.03.819c.016.24.042.496.08.766.034.255.071.509.11.763.034.23.062.457.083.679.018.199.024.38.019.544a.76.76 0 0 1-.033.227l-.008.023-.008.023a.325.325 0 0 1-.034.054c-.06.08-.137.173-.227.27a5.795 5.795 0 0 1-.4.389l-.518.461c-.023.02-.395.35-.5.44-.198.175-.369.34-.52.503-.08.087-.153.173-.22.26-.07.088-.135.18-.192.272a4.376 4.376 0 0 0-.456 1.118c-.092.339-.185.7-.283 1.095-.086.344-.18.667-.284.97-.071.207-.143.339-.201.402-.064.068-.192.152-.39.237a11.59 11.59 0 0 1-.942.354c-.373.123-.73.244-1.069.365a4.415 4.415 0 0 0-1.048.517l-.022.016a3.177 3.177 0 0 0-.256.213 4.012 4.012 0 0 0-.24.238c-.15.163-.302.347-.46.555l-.413.55c-.14.182-.28.368-.418.55-.12.158-.236.298-.348.418-.09.098-.176.182-.256.252a.271.271 0 0 1-.047.034l-.032.013-.032.015a.649.649 0 0 1-.187.04c-.166.017-.35.023-.55.018a10.017 10.017 0 0 1-.679-.038 24.94 24.94 0 0 0-.78-.06 12.32 12.32 0 0 0-.751-.022c-.288 0-.552.028-.794.085-.25.06-.502.158-.76.291-.201.102-.416.22-.651.357-.2.116-.412.242-.658.39-.203.122-.404.236-.603.344a4 4 0 0 1-.484.223.75.75 0 0 1-.215.054.759.759 0 0 1-.223-.04c-.159-.047-.33-.11-.514-.19a8.88 8.88 0 0 1-.6-.288 36.23 36.23 0 0 0-.689-.353c-.246-.122-.48-.227-.702-.318a3.92 3.92 0 0 0-.74-.224 4.011 4.011 0 0 0-1.218 0c-.353.046-.723.099-1.109.157-.35.054-.682.09-.997.112-.215.014-.365-.002-.45-.034l-.023-.009-.023-.007a.326.326 0 0 1-.05-.033 3.251 3.251 0 0 1-.27-.23 5.557 5.557 0 0 1-.384-.4l-.028-.033a813.932 813.932 0 0 0-.429-.49l-.443-.51a7.064 7.064 0 0 0-.496-.52 3.502 3.502 0 0 0-.513-.408l-.025-.016c-.21-.13-.449-.239-.717-.33-.226-.078-.465-.15-.717-.216a38.399 38.399 0 0 0-.738-.187 10.593 10.593 0 0 1-.65-.18 4.66 4.66 0 0 1-.512-.19.69.69 0 0 1-.183-.111c-.063-.06-.145-.187-.23-.387-.126-.299-.247-.62-.365-.965-.134-.395-.256-.748-.372-1.078a4.17 4.17 0 0 0-.547-1.09 3.522 3.522 0 0 0-.446-.497 7.057 7.057 0 0 0-.55-.462 152.242 152.242 0 0 1-.817-.627l-.13-.101-.135-.104a5.574 5.574 0 0 1-.425-.359 3.27 3.27 0 0 1-.248-.257.374.374 0 0 1-.034-.045l-.014-.036a.83.83 0 0 1-.047-.226 4.962 4.962 0 0 1-.022-.56c.003-.223.014-.447.032-.677.022-.259.04-.516.057-.77.019-.267.027-.525.027-.77a3.59 3.59 0 0 0-.085-.802 3.487 3.487 0 0 0-.28-.754 12.817 12.817 0 0 0-.356-.662c-.126-.22-.257-.442-.392-.668-.12-.2-.23-.4-.332-.598a4.72 4.72 0 0 1-.225-.505.77.77 0 0 1-.054-.22c-.002-.084.029-.229.11-.427.123-.302.264-.611.42-.926.169-.34.333-.68.493-1.022.19-.407.316-.779.375-1.126.06-.358.059-.758.003-1.208a45.864 45.864 0 0 0-.155-1.128 10.62 10.62 0 0 1-.103-.995c-.012-.222.005-.38.038-.471l-.969-.35.957.38c.03-.078.123-.213.284-.387.112-.121.242-.248.391-.38a698.092 698.092 0 0 0 1.029-.911c.19-.168.363-.336.517-.503a3.458 3.458 0 0 0 .41-.523c.14-.23.25-.478.341-.756.075-.227.146-.467.213-.72.068-.252.131-.501.193-.751.057-.234.117-.455.181-.664.058-.189.121-.359.19-.511a.752.752 0 0 1 .117-.197.693.693 0 0 1 .177-.125c.148-.08.316-.156.505-.232.201-.08.412-.154.632-.224.246-.079.49-.16.733-.244.245-.086.478-.174.698-.265.268-.11.505-.238.71-.386a3.38 3.38 0 0 0 .503-.459c.154-.166.307-.35.46-.554a290.786 290.786 0 0 1 .66-.873l.046-.062.119-.156a5.66 5.66 0 0 1 .355-.427c.083-.09.164-.168.242-.232a.57.57 0 0 1 .11-.076c.08-.036.228-.064.442-.065.31-.004.641.01.996.037.385.032.761.057 1.127.077.448.025.844-.001 1.193-.086a4.26 4.26 0 0 0 1.095-.465c.321-.185.645-.376.97-.57.302-.18.597-.342.886-.484.192-.094.338-.136.428-.14a.774.774 0 0 1 .22.04c.155.047.322.11.498.19.198.088.405.188.625.3.218.114.442.227.686.347.24.118.464.22.68.311.267.113.52.19.766.23.346.06.746.057 1.198-.002.408-.055.764-.104 1.11-.155.343-.05.677-.085.999-.105.22-.013.376.003.462.034l.031.011c.003.001.022.011.054.035.083.063.174.14.27.23.125.117.253.25.384.4a318.954 318.954 0 0 1 .9 1.033c.164.19.33.364.495.52.086.08.17.154.254.22.09.072.178.135.268.193.305.196.676.351 1.11.472.372.103.728.2 1.08.291z" fill="#CC3E1F"/><path d="M52.963 33.838v5.814h-4.035V22.258h6.137c1.225 0 2.278.145 3.157.436.88.29 1.604.69 2.173 1.2.569.509.989 1.11 1.26 1.802.27.693.405 1.44.405 2.244 0 .868-.14 1.664-.418 2.388a4.791 4.791 0 0 1-1.277 1.862c-.573.518-1.3.922-2.179 1.212-.88.29-1.92.436-3.121.436h-2.102zm0-3.044h2.102c1.05 0 1.806-.251 2.268-.752.461-.502.692-1.202.692-2.102 0-.397-.06-.76-.179-1.086a2.21 2.21 0 0 0-.543-.842 2.442 2.442 0 0 0-.92-.543c-.37-.127-.81-.19-1.318-.19h-2.102v5.515zm18.671 8.858c-.35 0-.614-.048-.793-.144-.18-.095-.329-.294-.448-.596l-.263-.68c-.31.262-.609.493-.895.691a5.675 5.675 0 0 1-.89.508c-.306.14-.632.243-.978.31-.347.068-.73.102-1.152.102a5.051 5.051 0 0 1-1.54-.221 3.213 3.213 0 0 1-1.176-.65 2.86 2.86 0 0 1-.746-1.07c-.175-.425-.263-.916-.263-1.474 0-.437.111-.887.334-1.349.223-.461.61-.881 1.158-1.259.55-.378 1.29-.694 2.22-.95.932-.254 2.106-.397 3.522-.429v-.525c0-.724-.149-1.248-.447-1.57-.299-.322-.723-.483-1.272-.483-.437 0-.796.047-1.074.143a4.83 4.83 0 0 0-.746.322c-.22.12-.432.227-.639.322a1.754 1.754 0 0 1-.74.144c-.255 0-.47-.064-.645-.191a1.661 1.661 0 0 1-.43-.454l-.668-1.158a7.525 7.525 0 0 1 2.49-1.474 8.726 8.726 0 0 1 2.93-.484c.748 0 1.422.122 2.023.364.601.243 1.11.581 1.528 1.015.418.434.739.95.961 1.546.223.597.335 1.25.335 1.958v7.736h-1.696zm-4.25-2.257c.478 0 .896-.083 1.254-.25.358-.167.72-.438 1.086-.812v-1.72c-.74.033-1.349.096-1.826.192-.478.095-.856.215-1.134.358-.279.143-.472.306-.58.49a1.158 1.158 0 0 0-.16.596c0 .422.115.719.346.89.23.17.569.256 1.015.256zm16.177-7.413a.957.957 0 0 1-.305.322.799.799 0 0 1-.412.096c-.175 0-.35-.038-.525-.114l-.567-.244a6.178 6.178 0 0 0-.686-.245 3.064 3.064 0 0 0-.872-.114c-.47 0-.83.09-1.08.269a.866.866 0 0 0-.376.746c0 .231.081.422.244.573.164.151.38.285.651.4.27.116.577.225.92.328.341.104.692.22 1.05.347.358.127.708.276 1.05.447.343.171.649.382.92.633.27.25.487.555.65.913.163.358.245.788.245 1.29a4.24 4.24 0 0 1-.334 1.695 3.6 3.6 0 0 1-.997 1.337c-.442.374-.987.664-1.636.871-.648.207-1.394.31-2.238.31-.422 0-.844-.04-1.266-.119a8.765 8.765 0 0 1-1.223-.322 6.666 6.666 0 0 1-1.093-.483 4.737 4.737 0 0 1-.86-.603l.86-1.361a1.1 1.1 0 0 1 .365-.376c.147-.092.336-.138.567-.138.215 0 .408.048.579.144l.555.31c.199.111.432.215.698.31.267.096.603.144 1.009.144.286 0 .53-.03.728-.09.2-.06.358-.141.478-.245a.977.977 0 0 0 .262-.346.973.973 0 0 0 .084-.394.804.804 0 0 0-.25-.609 2.184 2.184 0 0 0-.657-.411 8.005 8.005 0 0 0-.926-.323 17.97 17.97 0 0 1-1.056-.34 8.486 8.486 0 0 1-1.057-.46 3.635 3.635 0 0 1-.925-.68c-.27-.275-.49-.61-.656-1.009-.168-.398-.251-.88-.251-1.444 0-.526.101-1.025.304-1.499.203-.473.508-.889.914-1.247.405-.358.915-.643 1.528-.854.612-.21 1.329-.316 2.148-.316.446 0 .878.04 1.296.12.418.079.81.19 1.176.334.366.143.7.312 1.002.507.303.195.57.408.8.639l-.835 1.3zm10.636 0a.957.957 0 0 1-.304.322.799.799 0 0 1-.412.096c-.175 0-.35-.038-.525-.114l-.567-.244a6.178 6.178 0 0 0-.687-.245 3.064 3.064 0 0 0-.871-.114c-.47 0-.83.09-1.08.269a.866.866 0 0 0-.377.746c0 .231.082.422.245.573.163.151.38.285.65.4.271.116.578.225.92.328.342.104.692.22 1.05.347.359.127.709.276 1.051.447.342.171.649.382.92.633.27.25.487.555.65.913.163.358.245.788.245 1.29a4.24 4.24 0 0 1-.335 1.695 3.6 3.6 0 0 1-.996 1.337c-.442.374-.987.664-1.636.871-.649.207-1.395.31-2.238.31-.422 0-.844-.04-1.266-.119a8.765 8.765 0 0 1-1.223-.322 6.666 6.666 0 0 1-1.093-.483 4.737 4.737 0 0 1-.86-.603l.86-1.361a1.1 1.1 0 0 1 .364-.376c.148-.092.337-.138.567-.138.215 0 .408.048.58.144l.555.31c.199.111.431.215.698.31.267.096.603.144 1.009.144.286 0 .529-.03.728-.09.199-.06.358-.141.477-.245a.977.977 0 0 0 .263-.346.973.973 0 0 0 .084-.394.804.804 0 0 0-.251-.609 2.184 2.184 0 0 0-.657-.411 8.005 8.005 0 0 0-.925-.323 17.97 17.97 0 0 1-1.056-.34 8.486 8.486 0 0 1-1.057-.46 3.635 3.635 0 0 1-.925-.68c-.27-.275-.49-.61-.657-1.009-.167-.398-.25-.88-.25-1.444 0-.526.101-1.025.304-1.499.203-.473.507-.889.913-1.247.406-.358.916-.643 1.528-.854.613-.21 1.33-.316 2.15-.316.445 0 .877.04 1.294.12.418.079.81.19 1.176.334.366.143.7.312 1.003.507.303.195.57.408.8.639l-.836 1.3zm2.77 13.597V27.272h2.292c.462 0 .764.207.907.62l.275.908c.239-.263.495-.501.77-.716a4.869 4.869 0 0 1 3.086-1.05c.645 0 1.241.142 1.79.429.55.286 1.023.7 1.421 1.242.398.54.71 1.203.937 1.987.227.784.34 1.674.34 2.668 0 .932-.129 1.791-.387 2.579a6.48 6.48 0 0 1-1.087 2.053 5.005 5.005 0 0 1-1.671 1.361 4.726 4.726 0 0 1-2.155.49c-.645 0-1.186-.092-1.623-.275a4.408 4.408 0 0 1-1.194-.74v4.751h-3.701zm6.04-13.716c-.27 0-.515.025-.734.077a2.698 2.698 0 0 0-.608.221c-.187.095-.36.217-.52.364-.159.147-.318.316-.477.507v5.253c.278.31.58.527.907.65.326.124.669.186 1.027.186.342 0 .656-.068.943-.203.286-.135.535-.352.746-.65.21-.3.376-.687.495-1.165.12-.477.18-1.058.18-1.743 0-.652-.048-1.201-.144-1.647-.095-.446-.229-.806-.4-1.08-.17-.275-.376-.472-.615-.591a1.763 1.763 0 0 0-.8-.18zm13.395-2.782c.94 0 1.795.147 2.567.442a5.63 5.63 0 0 1 1.987 1.265 5.7 5.7 0 0 1 1.29 2c.306.784.46 1.665.46 2.644 0 .987-.154 1.876-.46 2.668a5.74 5.74 0 0 1-1.29 2.018 5.656 5.656 0 0 1-1.987 1.277c-.772.298-1.628.448-2.567.448-.947 0-1.809-.15-2.584-.448a5.768 5.768 0 0 1-2.006-1.277 5.656 5.656 0 0 1-1.301-2.018c-.307-.792-.46-1.681-.46-2.668 0-.979.153-1.86.46-2.644.306-.784.74-1.45 1.3-2a5.74 5.74 0 0 1 2.007-1.265c.775-.295 1.637-.442 2.584-.442zm0 10.016c.852 0 1.478-.3 1.88-.901.402-.601.603-1.515.603-2.74 0-1.226-.2-2.137-.603-2.734-.402-.597-1.028-.895-1.88-.895-.875 0-1.516.298-1.922.895-.406.597-.609 1.508-.609 2.734 0 1.225.203 2.139.61 2.74.405.6 1.046.901 1.921.901zm8.166 2.555v-12.38h2.196c.183 0 .337.016.46.048a.806.806 0 0 1 .31.149.637.637 0 0 1 .191.269c.044.111.082.246.114.405l.179 1.051c.39-.669.833-1.196 1.33-1.582a2.718 2.718 0 0 1 1.714-.579c.557 0 1.01.132 1.36.394l-.238 2.722c-.04.175-.105.294-.197.358a.65.65 0 0 1-.376.096c-.064 0-.147-.004-.25-.012-.104-.008-.211-.018-.323-.03a93.654 93.654 0 0 0-.34-.036 3.095 3.095 0 0 0-.316-.018c-.542 0-.973.145-1.296.436-.322.29-.595.69-.818 1.2v7.509h-3.7zm13.537.19c-.589 0-1.108-.085-1.558-.256a3.094 3.094 0 0 1-1.134-.728 3.104 3.104 0 0 1-.698-1.14 4.413 4.413 0 0 1-.239-1.493v-6.398h-1.05a.7.7 0 0 1-.49-.185c-.135-.124-.203-.305-.203-.544v-1.444l1.97-.382.728-3.02c.096-.382.366-.573.812-.573h1.934v3.617h3.068v2.53h-3.068v6.149c0 .286.07.523.209.71.14.187.34.28.603.28a1.185 1.185 0 0 0 .579-.137c.067-.035.131-.067.19-.095a.49.49 0 0 1 .21-.042.43.43 0 0 1 .268.078.96.96 0 0 1 .21.244l1.121 1.755a5.107 5.107 0 0 1-1.611.806 6.405 6.405 0 0 1-1.85.269z" fill="#333"/></g></svg>