<svg width="181" height="63" viewBox="0 0 181 63" xmlns="http://www.w3.org/2000/svg"><title>Artboard 1</title><g fill="#FFF" fill-rule="evenodd"><path d="M66.113 15.376c0-.83-.28-1.472-.841-1.927-.49-.409-1.191-.607-2.102-.607h-2.885V20.9h1.892v-2.978h.993c.91 0 1.611-.199 2.102-.607.56-.48.84-1.122.84-1.94zm-1.916 0c0 .385-.128.677-.385.864-.21.152-.514.222-.911.222h-.736v-2.16h.736c.397 0 .7.07.911.221.257.187.385.468.385.853zm5.29 5.652c.923 0 1.694-.268 2.29-.805.595-.55.9-1.273.9-2.184 0-.911-.305-1.635-.9-2.184-.596-.55-1.367-.818-2.29-.818-.922 0-1.693.269-2.3.818-.595.549-.9 1.273-.9 2.184 0 .91.305 1.635.9 2.184.596.537 1.367.805 2.3.805zm0-4.52c.795 0 1.309.62 1.309 1.496s-.514 1.495-1.308 1.495c-.806 0-1.308-.62-1.308-1.495 0-.876.502-1.495 1.308-1.495zm9.986 2.313l-1.11-3.679h-1.53l-1.109 3.68-1.016-3.68h-1.892l1.892 5.758h1.764l1.133-3.527 1.12 3.527h1.764l1.892-5.758H80.49l-1.016 3.68zm9.086-.97c0-.84-.268-1.517-.806-2.031-.525-.526-1.226-.783-2.078-.783-.888 0-1.624.269-2.22.806-.595.537-.887 1.261-.887 2.184 0 .934.28 1.67.853 2.207.572.526 1.308.794 2.219.794.759 0 1.343-.175 1.763-.315.467-.198.666-.374.864-.525l.105-.094-.735-.97c-.538.363-1.11.55-1.729.55-.806 0-1.39-.409-1.471-1.203h4.099l.023-.62zm-4.11-.443c.034-.607.478-1.156 1.19-1.156.736 0 1.168.56 1.18 1.156h-2.37zm8.805-2.3c-.082-.036-.292-.07-.525-.07-.631 0-1.11.303-1.425.922h-.024l.012-.818h-1.869V20.9h1.87v-2.558c0-.549.093-.946.291-1.203.21-.28.502-.42.864-.42.28 0 .502.047.678.14h.081l.106-1.717-.059-.035zm6.166 2.744c0-.841-.268-1.518-.805-2.032-.526-.526-1.227-.783-2.08-.783-.887 0-1.623.269-2.218.806-.596.537-.888 1.261-.888 2.184 0 .934.28 1.67.853 2.207.572.526 1.308.794 2.219.794.759 0 1.343-.175 1.763-.315.467-.198.666-.374.865-.525l.105-.094-.736-.97c-.537.363-1.11.55-1.729.55-.805 0-1.39-.409-1.471-1.203h4.1l.022-.62zm-4.11-.444c.035-.607.478-1.156 1.19-1.156.737 0 1.169.56 1.18 1.156h-2.37zm9.18-4.566v3.001c-.27-.385-.889-.806-1.823-.806-.817 0-1.471.28-1.974.853-.502.56-.747 1.273-.747 2.137 0 .864.245 1.577.747 2.149.503.572 1.157.852 1.974.852.83 0 1.46-.292 1.892-.875l.035-.012-.011.759h1.775v-8.058h-1.869zm-.316 6.248c-.246.268-.56.409-.97.409-.408 0-.735-.14-.98-.41-.246-.28-.374-.642-.374-1.085 0-.444.128-.806.373-1.075.246-.28.573-.42.981-.42.41 0 .724.14.97.42.245.269.373.63.373 1.075 0 .443-.128.806-.373 1.086zm9.495 1.938c.817 0 1.471-.28 1.973-.852s.748-1.285.748-2.149c0-.864-.246-1.577-.748-2.137-.49-.572-1.144-.853-1.962-.853-.887 0-1.518.374-1.81.806h-.035l.023-1.063v-1.938h-1.868V20.9h1.775l-.012-.76h.012c.42.596 1.051.888 1.904.888zm.443-1.938c-.245.268-.56.409-.969.409-.409 0-.736-.14-.981-.41-.245-.28-.374-.642-.374-1.085 0-.444.129-.806.374-1.075.245-.28.572-.42.981-.42.409 0 .724.14.97.42.245.269.373.63.373 1.075 0 .443-.128.806-.374 1.086zm5.781-.245l-1.308-3.703h-1.95l2.277 5.583-.21.502c-.152.385-.35.374-.56.374-.187 0-.42-.047-.69-.152l-.373 1.378.187.07c.233.093.84.21 1.413.21.922 0 1.401-.537 1.868-1.658l2.57-6.307h-1.927l-1.297 3.703zM45.43 17.75c-.32-.168-.645-.341-.984-.527a2.025 2.025 0 0 1-.467-.323 1.155 1.155 0 0 1-.077-.087 2.005 2.005 0 0 1-.092-.129 4.859 4.859 0 0 1-.257-.435 292.988 292.988 0 0 0-.672-1.255 8.11 8.11 0 0 0-.408-.683 5.56 5.56 0 0 0-.373-.497 2.463 2.463 0 0 0-.603-.523l-.617 1.037.65-1.017c-.364-.236-.8-.388-1.306-.473-.39-.066-.795-.116-1.214-.151a88.708 88.708 0 0 1-1.118-.101 2.062 2.062 0 0 1-.554-.114c-.071-.03-.158-.08-.265-.157a10.998 10.998 0 0 1-.505-.389 42.896 42.896 0 0 1-.577-.481 15.98 15.98 0 0 0-.651-.523 6.475 6.475 0 0 0-.706-.47 2.983 2.983 0 0 0-.891-.344c-.435-.084-.898-.06-1.398.056-.387.09-.78.198-1.183.328-.36.116-.715.227-1.068.334-.255.077-.451.112-.583.114a2.116 2.116 0 0 1-.561-.102 41.41 41.41 0 0 1-1.059-.324 13.72 13.72 0 0 0-1.186-.323c-.5-.111-.965-.132-1.398-.044-.235.049-.458.13-.68.241-.185.092-.37.202-.556.328-.209.142-.42.302-.632.48l-.164.136-.079.065-.304.254-.54.452c-.141.12-.276.222-.402.308a2.15 2.15 0 0 1-.141.089 1.148 1.148 0 0 1-.095.048c-.047.02-.146.046-.278.068-.2.033-.41.061-.633.085a28.79 28.79 0 0 1-.733.068c-.286.023-.567.055-.84.096-.291.044-.56.099-.812.167a2.907 2.907 0 0 0-.885.395c-.26.176-.49.404-.697.678a6.718 6.718 0 0 0-.464.705c-.134.232-.267.479-.397.738-.111.221-.226.443-.344.666-.106.2-.21.386-.315.56-.07.115-.132.198-.181.248a1.61 1.61 0 0 1-.2.155 5.064 5.064 0 0 1-.44.264 696.126 696.126 0 0 0-1.246.676 7.932 7.932 0 0 0-.67.406c-.418.284-.743.583-.973.92l-.021.032c-.232.364-.383.8-.47 1.302-.068.393-.119.805-.152 1.236-.029.377-.062.747-.099 1.111-.026.258-.069.449-.117.565-.051.123-.16.297-.326.511-.228.29-.46.58-.696.868-.264.321-.509.642-.735.963-.3.425-.5.85-.584 1.287a3.02 3.02 0 0 0-.019.96c.034.266.088.54.16.827.07.273.149.547.239.822.079.244.154.484.226.721.066.216.122.421.17.616.03.128.044.228.044.295 0 .07-.013.175-.043.31a8.882 8.882 0 0 1-.162.609c-.073.242-.148.484-.225.728-.088.276-.164.55-.23.822-.068.28-.12.555-.154.82-.042.336-.04.651.017.95l1.18-.226-1.188.182c.04.263.127.518.256.766.091.176.197.353.318.534.143.213.302.425.478.638l.121.148a851.752 851.752 0 0 0 .78.946c.12.147.223.282.305.405a1.99 1.99 0 0 1 .14.247c.045.105.09.299.12.561.04.352.08.726.124 1.145.044.425.1.83.167 1.215.09.512.249.951.493 1.317.176.261.402.493.673.7.216.163.447.316.695.46.238.14.483.273.736.4.22.11.438.222.657.338.192.101.368.202.53.303.113.07.196.135.25.189l.841-.864-.865.839a1.996 1.996 0 0 1 .176.224c.083.122.169.268.259.437a165.29 165.29 0 0 0 .67 1.253c.13.241.265.47.408.682.121.181.244.347.37.497.181.213.383.39.61.526l.613-1.04-.66 1.01c.371.247.815.403 1.327.486.383.062.789.11 1.213.143.387.03.755.062 1.107.097.254.024.439.066.552.113.064.028.166.088.285.171.155.11.32.235.495.378.19.156.38.317.57.48.22.19.442.368.666.534.237.176.47.329.702.46.295.168.59.284.89.343.3.059.618.063.953.02.272-.037.55-.094.836-.172.26-.07.52-.148.785-.234.271-.088.501-.16.716-.227.232-.07.436-.128.621-.174.131-.033.231-.048.3-.048.063 0 .167.013.3.044.193.044.399.098.617.162.22.066.453.139.7.22.277.092.55.171.82.24.286.074.562.128.828.162.346.044.67.036.977-.033l-.263-1.18.184 1.195c.259-.04.51-.127.754-.255.179-.095.354-.201.533-.323.203-.137.41-.294.623-.472l.547-.455.547-.46c.146-.121.282-.226.405-.309a1.883 1.883 0 0 1 .23-.133l-.474-1.11.445 1.122a2.43 2.43 0 0 1 .589-.125c.348-.04.715-.077 1.1-.112a14.15 14.15 0 0 0 1.22-.16c.508-.09.948-.252 1.316-.502.363-.246.672-.595.946-1.036.209-.335.41-.694.605-1.077.182-.36.351-.686.513-.989.124-.231.238-.396.333-.495a1.723 1.723 0 0 1 .192-.148c.121-.083.266-.17.436-.262.127-.067.582-.313.61-.329l.63-.343a8.2 8.2 0 0 0 .68-.412c.178-.121.342-.245.49-.372.216-.186.39-.388.524-.615l-1.031-.618 1.002.666a2.99 2.99 0 0 0 .384-.893c.067-.255.12-.531.16-.827.037-.271.066-.548.087-.832.02-.254.04-.506.062-.76.02-.227.046-.435.077-.626.022-.14.049-.241.075-.307a2.24 2.24 0 0 1 .315-.476c.258-.318.489-.6.716-.875.277-.339.523-.663.745-.983.294-.422.49-.848.575-1.282a3.03 3.03 0 0 0 .02-.96 6.522 6.522 0 0 0-.17-.843c-.07-.258-.15-.525-.242-.802-.08-.242-.157-.48-.229-.713a8.304 8.304 0 0 1-.162-.603 1.888 1.888 0 0 1-.052-.352l-1.2.034h1.2c0-.07.014-.168.044-.293.048-.207.103-.414.166-.628.065-.222.137-.455.22-.713.091-.281.17-.552.236-.814.073-.285.126-.562.16-.83a3.007 3.007 0 0 0-.024-.972l-.005-.024c-.089-.398-.279-.798-.56-1.218a8.076 8.076 0 0 0-.476-.637l-.135-.164a251.025 251.025 0 0 0-.765-.93 4.87 4.87 0 0 1-.307-.406 2.024 2.024 0 0 1-.086-.138 1.166 1.166 0 0 1-.05-.1 1.547 1.547 0 0 1-.071-.291 9.949 9.949 0 0 1-.086-.633 28.38 28.38 0 0 1-.068-.74c-.023-.29-.054-.572-.095-.846a7.414 7.414 0 0 0-.166-.818 2.937 2.937 0 0 0-.392-.891l-.018-.027-.02-.026c-.25-.333-.586-.625-1.007-.89-.335-.21-.688-.413-1.058-.607zm-1.108 2.146c.315.165.613.336.894.512.188.119.308.223.364.297l.958-.729-.996.676c.018.026.04.08.063.164a5 5 0 0 1 .112.55c.032.217.057.444.075.68.023.28.047.547.074.803.028.268.064.53.107.785.051.307.127.586.23.836a3.665 3.665 0 0 0 .353.64c.133.198.285.4.456.605a333.46 333.46 0 0 1 .757.92l.136.164c.128.156.239.304.334.447.127.19.193.328.207.394l1.172-.264-1.177.24a.67.67 0 0 1-.004.188c-.021.165-.056.344-.104.535-.053.21-.117.43-.193.664-.09.28-.17.536-.24.778-.074.253-.141.505-.198.75-.072.295-.11.583-.11.856l.001.034c.007.259.045.531.11.821.057.248.127.507.21.78.078.253.16.508.247.767.076.23.143.45.199.662.05.189.086.363.107.528.012.09.011.153.005.185-.013.068-.07.191-.186.357-.184.266-.392.54-.626.825-.228.277-.464.565-.727.89-.3.368-.525.725-.673 1.08a3.83 3.83 0 0 0-.227.846c-.04.247-.073.514-.098.797-.024.264-.045.528-.065.792-.018.237-.042.468-.072.692a4.418 4.418 0 0 1-.102.532.661.661 0 0 1-.067.178l-.015.024-.015.024c.007-.011.003-.006-.017.011a3.28 3.28 0 0 1-.277.208c-.141.096-.3.192-.478.29l-.627.341-.602.324c-.243.132-.456.26-.65.39-.103.071-.2.143-.29.216a3.34 3.34 0 0 0-.266.238c-.28.291-.518.635-.74 1.049-.17.32-.347.661-.537 1.034-.163.322-.33.62-.501.895-.11.176-.2.277-.254.314-.061.042-.19.09-.391.125-.317.057-.654.101-1.015.133-.403.036-.79.076-1.16.118a4.67 4.67 0 0 0-1.206.283l-.03.012c-.107.046-.213.1-.32.16a4.25 4.25 0 0 0-.304.19 7.6 7.6 0 0 0-.6.457l-.542.455-.545.454a5.694 5.694 0 0 1-.435.33c-.109.073-.21.135-.301.183-.017.01-.023.011-.011.01l-.04.006-.04.009a.605.605 0 0 1-.148-.007 4.448 4.448 0 0 1-.538-.106c-.219-.056-.44-.12-.664-.195-.27-.089-.526-.17-.773-.242a12.86 12.86 0 0 0-.758-.2 3.749 3.749 0 0 0-.847-.104 3.658 3.658 0 0 0-.865.119c-.227.056-.472.125-.742.208-.228.07-.47.146-.752.238a15.62 15.62 0 0 1-.678.202 3.97 3.97 0 0 1-.518.107.656.656 0 0 1-.183.005.667.667 0 0 1-.172-.076 4.582 4.582 0 0 1-.458-.301c-.175-.13-.35-.27-.526-.422a37.638 37.638 0 0 0-.613-.517 10.731 10.731 0 0 0-.641-.49 4.194 4.194 0 0 0-.715-.41 4.278 4.278 0 0 0-1.266-.296 57.92 57.92 0 0 0-1.15-.1c-.36-.029-.698-.069-1.016-.12-.201-.033-.329-.078-.388-.118l-.024-.016-.024-.014c.012.007.009.004-.007-.014a3.224 3.224 0 0 1-.21-.282 5.605 5.605 0 0 1-.284-.478 588.833 588.833 0 0 0-.34-.631l-.327-.614a7.447 7.447 0 0 0-.385-.65c-.069-.102-.14-.2-.212-.29a3.766 3.766 0 0 0-.224-.258l-.025-.025a3.817 3.817 0 0 0-.668-.518 10.885 10.885 0 0 0-.68-.389 39.843 39.843 0 0 0-.7-.36 10.813 10.813 0 0 1-.603-.328 4.679 4.679 0 0 1-.456-.301.587.587 0 0 1-.125-.12c-.038-.056-.084-.184-.12-.387a14.87 14.87 0 0 1-.143-1.042c-.044-.427-.085-.81-.126-1.17a4.442 4.442 0 0 0-.309-1.26 3.79 3.79 0 0 0-.346-.625 7.443 7.443 0 0 0-.454-.603 157.427 157.427 0 0 1-.771-.936l-.124-.15a5.627 5.627 0 0 1-.335-.448 3.24 3.24 0 0 1-.182-.303c-.01-.02-.011-.024-.009-.008l-.007-.044a.747.747 0 0 1 .006-.194c.022-.17.056-.354.104-.55.054-.22.115-.439.185-.661.082-.256.16-.51.236-.762.08-.266.149-.526.205-.776.069-.303.104-.587.103-.855a3.735 3.735 0 0 0-.112-.855c-.06-.245-.128-.495-.207-.755-.076-.25-.156-.504-.24-.764a10.53 10.53 0 0 1-.194-.667 4.725 4.725 0 0 1-.106-.542.67.67 0 0 1-.005-.187c.012-.063.069-.184.184-.348.192-.27.402-.546.628-.822.249-.302.492-.607.732-.913.292-.373.51-.727.655-1.074.149-.36.242-.774.29-1.251.04-.385.075-.775.105-1.17.028-.357.069-.693.123-1.009.036-.208.084-.345.126-.411l-1.01-.653.989.685c.037-.055.149-.157.337-.285.136-.093.292-.187.467-.282a715.731 715.731 0 0 0 1.242-.674c.233-.126.45-.257.647-.39a3.688 3.688 0 0 0 .55-.445c.205-.21.378-.44.54-.707.128-.213.255-.439.382-.678.126-.239.248-.475.367-.712.11-.219.22-.423.331-.616.099-.17.198-.322.298-.453a.65.65 0 0 1 .13-.139.588.588 0 0 1 .163-.064 4.89 4.89 0 0 1 .545-.111c.217-.033.443-.058.676-.077.266-.021.53-.046.795-.074.269-.029.525-.063.77-.104.305-.05.582-.125.832-.23a3.613 3.613 0 0 0 .635-.356 7.33 7.33 0 0 0 .6-.457 297.73 297.73 0 0 1 .836-.7l.079-.065.164-.137c.153-.128.301-.24.443-.336.1-.068.193-.123.28-.166a.475.475 0 0 1 .093-.039c.066-.013.203-.007.4.037.308.068.633.157.98.267.38.122.752.235 1.116.341.455.133.872.201 1.257.197.382-.005.792-.08 1.245-.216.366-.111.736-.227 1.108-.347.34-.109.67-.2.988-.274.197-.045.333-.053.403-.039a.692.692 0 0 1 .17.075c.137.08.286.178.44.295.176.134.359.281.551.444.193.164.394.33.61.508.217.176.42.334.618.476.251.182.497.324.746.426.347.147.762.24 1.242.287.423.04.792.074 1.15.104.354.03.693.072 1.016.126.207.035.342.082.403.122l.033.02c-.012-.007-.007-.002.011.019.065.077.136.17.208.28.096.142.191.302.286.479a329.473 329.473 0 0 1 .667 1.245c.122.232.25.45.384.648a3.564 3.564 0 0 0 .446.557c.27.28.618.53 1.039.758.35.19.685.37 1.018.545zm-1.043-7.46a74.36 74.36 0 0 1-1.223-.33c-.292-.08-.506-.17-.641-.257a1.461 1.461 0 0 1-.12-.085 2.42 2.42 0 0 1-.145-.127 5.643 5.643 0 0 1-.405-.427 331.557 331.557 0 0 0-1.06-1.213 8.986 8.986 0 0 0-.612-.639 6.115 6.115 0 0 0-.524-.442 2.62 2.62 0 0 0-.753-.398l-.37 1.15.407-1.138c-.44-.159-.938-.212-1.498-.178a16.4 16.4 0 0 0-1.367.144c-.392.057-.798.113-1.262.175-.305.04-.539.042-.69.016a1.683 1.683 0 0 1-.367-.115 12.575 12.575 0 0 1-.664-.304c-.269-.133-.52-.26-.763-.385-.294-.15-.573-.286-.844-.407a7.154 7.154 0 0 0-.879-.33A3.216 3.216 0 0 0 28.48 7c-.476.018-.96.158-1.466.405-.4.196-.803.415-1.211.66a70.02 70.02 0 0 1-1.099.644 2.729 2.729 0 0 1-.655.293c-.153.037-.388.053-.694.036-.407-.023-.825-.051-1.255-.086a15.373 15.373 0 0 0-1.378-.052c-.559.005-1.056.098-1.49.296a3.011 3.011 0 0 0-.656.419 5.338 5.338 0 0 0-.514.49c-.192.206-.38.433-.568.68l-.138.182-.055.072-.296.39-.48.637c-.13.173-.256.325-.378.457-.052.056-.1.104-.142.143a1.471 1.471 0 0 1-.106.088c-.06.043-.173.104-.324.166-.215.089-.443.175-.687.26-.264.092-.529.18-.796.265a13.79 13.79 0 0 0-.893.318 8.092 8.092 0 0 0-.838.385 3.151 3.151 0 0 0-.836.632c-.23.247-.417.543-.57.884a7.486 7.486 0 0 0-.326.878c-.089.29-.172.592-.25.909-.067.274-.137.55-.212.828-.067.25-.136.486-.209.707a1.76 1.76 0 0 1-.153.355 1.792 1.792 0 0 1-.2.248 5.928 5.928 0 0 1-.431.416 793.447 793.447 0 0 0-1.205 1.067c-.231.205-.44.408-.626.61-.377.407-.65.805-.81 1.215l-.014.036c-.155.439-.21.938-.18 1.496.024.446.072.909.144 1.39.063.424.12.842.172 1.256.038.306.04.543.013.702a2.924 2.924 0 0 1-.244.69c-.178.38-.362.76-.55 1.14-.21.42-.397.834-.564 1.242-.216.528-.324 1.026-.307 1.505.012.333.085.67.212 1.015.103.278.23.562.379.854.144.281.299.56.466.838.15.25.294.497.434.74.129.225.245.44.348.646.071.144.116.263.136.35.021.09.035.221.035.39.001.226-.007.469-.025.726-.019.287-.04.574-.064.864-.026.324-.041.642-.045.955-.005.322.008.633.037.928.037.367.115.698.246.997l1.099-.487-1.117.445c.104.263.256.508.45.735.141.166.3.33.474.495.208.195.433.385.677.573a671.17 671.17 0 0 1 .64.492l.632.484c.175.134.327.261.453.38a2.406 2.406 0 0 1 .235.257c.088.12.194.336.299.633.133.378.273.782.427 1.235.155.454.317.883.488 1.288.221.523.495.949.84 1.273.246.23.54.42.876.57.274.123.562.23.866.325.296.091.597.174.905.249.271.065.542.134.815.206.24.063.465.13.673.202.153.052.272.106.356.158l.627-1.031-.656 1.013c.043.028.084.058.125.09.048.038.097.081.148.129.126.118.263.262.408.43a186.406 186.406 0 0 0 1.057 1.21c.2.23.405.443.612.638.176.165.35.312.522.442.24.179.492.314.76.4l.365-1.152-.419 1.134c.45.168.958.224 1.524.185.435-.028.89-.079 1.363-.151.435-.066.851-.125 1.25-.178.301-.04.532-.042.686-.016.092.018.23.06.392.125.203.082.42.18.653.296.25.124.502.253.755.386.288.151.574.289.86.413.3.13.591.238.873.322.353.104.692.154 1.02.142a3.188 3.188 0 0 0 1.007-.213c.285-.107.57-.238.86-.394.267-.144.533-.296.802-.457.278-.167.514-.307.736-.436.24-.139.454-.256.65-.356.146-.076.265-.122.353-.143.084-.02.214-.033.38-.033.228-.001.472.006.732.021.262.016.54.037.835.064.325.03.643.047.955.054.328.008.64-.003.937-.033a3.02 3.02 0 0 0 1.017-.273l-.52-1.09.446 1.123c.26-.104.5-.256.725-.449.168-.146.33-.304.493-.48.186-.2.371-.423.559-.67.16-.213.323-.427.489-.644l.487-.646c.134-.177.262-.332.38-.459a2.305 2.305 0 0 1 .243-.227l-.71-.974.684.993c.138-.096.358-.203.657-.31.375-.133.773-.27 1.191-.407.46-.15.89-.312 1.294-.486.519-.221.946-.5 1.272-.853.322-.347.565-.792.749-1.33.144-.42.274-.863.39-1.332.11-.445.216-.85.318-1.227.082-.3.172-.526.26-.674a2.333 2.333 0 0 1 .194-.24 5.96 5.96 0 0 1 .428-.412c.123-.108.563-.496.592-.52.2-.18.4-.357.608-.54.234-.21.444-.414.634-.62.163-.175.309-.35.438-.523a2.66 2.66 0 0 0 .398-.766l-1.143-.37 1.125.423c.117-.316.177-.66.188-1.033a7.583 7.583 0 0 0-.031-.935 16.707 16.707 0 0 0-.114-.932 58.834 58.834 0 0 1-.124-.858c-.036-.26-.061-.5-.075-.724a1.83 1.83 0 0 1 .007-.394c.025-.148.104-.373.241-.653.205-.418.389-.79.57-1.152.219-.44.407-.858.57-1.264.21-.523.314-1.022.298-1.498a3.272 3.272 0 0 0-.212-1.014 7.21 7.21 0 0 0-.392-.868c-.14-.265-.295-.537-.465-.817-.15-.247-.296-.49-.435-.732a9.544 9.544 0 0 1-.338-.634 2.29 2.29 0 0 1-.157-.406l-1.162.305 1.17-.273a1.648 1.648 0 0 1-.03-.372c0-.243.009-.489.025-.744.015-.264.035-.541.062-.849.03-.33.047-.647.054-.95a7.642 7.642 0 0 0-.033-.937 3.245 3.245 0 0 0-.259-1.017l-.01-.023c-.189-.396-.488-.774-.892-1.153a8.952 8.952 0 0 0-.675-.571l-.153-.118a294.993 294.993 0 0 0-1.117-.858 5.649 5.649 0 0 1-.456-.381c-.054-.051-.1-.098-.138-.14a1.48 1.48 0 0 1-.09-.11 1.873 1.873 0 0 1-.173-.338c-.09-.219-.177-.448-.259-.687a32.273 32.273 0 0 1-.263-.803 13.94 13.94 0 0 0-.315-.9 8.22 8.22 0 0 0-.384-.844 3.157 3.157 0 0 0-.626-.842l-.023-.022-.025-.021c-.344-.29-.773-.517-1.287-.695-.42-.146-.857-.277-1.312-.396zm-.6 2.342c.395.103.771.216 1.13.34.255.09.431.182.528.264l.77-.928-.818.885a.81.81 0 0 1 .143.207c.093.177.183.375.27.596.091.234.178.482.26.743.094.302.188.588.282.863.098.286.203.564.313.83.131.316.28.594.45.832a3.967 3.967 0 0 0 .53.593c.193.18.408.361.644.54a374.718 374.718 0 0 1 1.107.85l.155.12c.185.142.349.28.495.418.201.189.32.34.363.43l1.083-.523-1.093.5c.023.05.044.137.056.26.02.195.027.408.022.638-.006.25-.021.513-.046.794-.028.33-.05.631-.067.916-.019.296-.028.588-.03.87-.003.334.026.649.093.937l.008.033c.07.273.177.555.32.85.122.254.263.52.422.795.15.259.304.52.465.782.145.238.275.466.392.689.107.2.193.391.261.574.042.112.06.2.063.254.003.104-.033.277-.127.51-.138.344-.3.704-.487 1.083-.183.364-.37.743-.578 1.168-.232.472-.385.91-.457 1.323a4.185 4.185 0 0 0-.034.955c.018.28.049.579.092.894.041.297.084.593.129.89.04.269.073.533.097.791.021.232.028.445.022.636a.887.887 0 0 1-.038.265l-.01.026-.008.027a.38.38 0 0 1-.04.063c-.07.094-.16.201-.266.315-.135.146-.29.298-.466.454l-.606.538-.584.514c-.23.204-.43.396-.606.586-.094.102-.18.202-.258.303-.081.103-.157.21-.224.317a5.103 5.103 0 0 0-.532 1.305c-.107.395-.216.817-.33 1.277-.1.402-.211.778-.332 1.131-.083.242-.167.396-.235.47-.074.08-.224.178-.455.277-.34.146-.706.283-1.1.413-.435.142-.852.285-1.248.426-.486.174-.893.37-1.224.603l-.026.018a3.709 3.709 0 0 0-.3.248 4.683 4.683 0 0 0-.278.279c-.176.19-.354.405-.538.647l-.483.641-.487.642a6.65 6.65 0 0 1-.407.488 3.871 3.871 0 0 1-.3.293.317.317 0 0 1-.054.04l-.038.016-.036.018a.758.758 0 0 1-.219.045c-.194.02-.408.028-.641.022-.26-.005-.523-.02-.794-.045-.318-.029-.62-.052-.91-.069a14.4 14.4 0 0 0-.878-.026c-.336 0-.645.032-.927.099-.293.07-.586.184-.888.34-.234.119-.485.257-.76.416-.234.136-.48.282-.768.455-.237.142-.472.276-.704.401a4.673 4.673 0 0 1-.565.26.877.877 0 0 1-.252.063.887.887 0 0 1-.26-.045 5.334 5.334 0 0 1-.6-.223c-.23-.1-.463-.212-.7-.336a42.32 42.32 0 0 0-.805-.412c-.288-.142-.56-.265-.82-.37a4.58 4.58 0 0 0-.864-.262c-.436-.074-.901-.07-1.422 0-.412.054-.844.115-1.295.184-.408.062-.796.105-1.165.13-.25.017-.425-.003-.525-.04l-.027-.01-.027-.009a.38.38 0 0 1-.058-.038 3.796 3.796 0 0 1-.316-.27 6.486 6.486 0 0 1-.447-.465l-.033-.039a951 951 0 0 0-.501-.571l-.517-.595a8.245 8.245 0 0 0-.58-.607 4.09 4.09 0 0 0-.599-.476l-.028-.018a4.152 4.152 0 0 0-.838-.386c-.264-.09-.543-.174-.838-.252a44.871 44.871 0 0 0-.861-.218c-.26-.063-.513-.132-.76-.209a5.444 5.444 0 0 1-.597-.222.806.806 0 0 1-.214-.13c-.074-.07-.169-.218-.268-.452-.147-.348-.29-.724-.426-1.125-.157-.46-.3-.872-.435-1.258-.177-.504-.387-.929-.638-1.272a4.11 4.11 0 0 0-.521-.58 8.239 8.239 0 0 0-.642-.538 177.758 177.758 0 0 1-.954-.732l-.153-.118-.157-.121a6.508 6.508 0 0 1-.496-.419 3.816 3.816 0 0 1-.29-.3.436.436 0 0 1-.04-.052l-.017-.042a.968.968 0 0 1-.054-.264c-.02-.2-.028-.418-.025-.653.003-.26.015-.521.037-.79.025-.302.047-.602.067-.899.021-.311.031-.611.03-.898a4.186 4.186 0 0 0-.098-.935 4.066 4.066 0 0 0-.328-.88 14.949 14.949 0 0 0-.415-.772c-.147-.256-.3-.516-.457-.78-.14-.234-.27-.466-.389-.697a5.505 5.505 0 0 1-.262-.59.897.897 0 0 1-.063-.255c-.003-.099.034-.268.128-.499.144-.352.308-.713.49-1.08.198-.397.39-.795.576-1.193.222-.475.37-.909.439-1.314.07-.417.068-.885.003-1.41a53.463 53.463 0 0 0-.18-1.315c-.061-.406-.102-.793-.121-1.16-.015-.26.006-.445.043-.55l-1.13-.408 1.117.444c.036-.092.144-.25.332-.453.13-.141.282-.289.456-.443a814.608 814.608 0 0 0 1.201-1.063c.222-.196.424-.392.604-.586a4.035 4.035 0 0 0 .478-.61c.165-.27.293-.558.4-.883.087-.265.17-.545.248-.84.079-.294.153-.585.225-.876.067-.273.137-.53.212-.775.067-.22.141-.418.221-.596a.877.877 0 0 1 .137-.23.81.81 0 0 1 .207-.146c.172-.092.368-.182.59-.27.234-.093.481-.18.738-.262.287-.092.571-.186.855-.285.287-.1.558-.202.815-.308.314-.13.59-.278.829-.45a3.946 3.946 0 0 0 .588-.536c.18-.194.359-.41.536-.646a339.224 339.224 0 0 1 .77-1.02l.056-.071.138-.183c.14-.185.279-.351.415-.498.097-.105.192-.195.282-.27a.665.665 0 0 1 .129-.088c.093-.043.267-.075.516-.077.363-.004.749.01 1.164.044.45.036.888.066 1.316.09.522.028.985-.002 1.392-.101.404-.1.825-.282 1.278-.543a72.34 72.34 0 0 0 1.135-.666c.35-.21.696-.397 1.033-.563.225-.11.395-.159.5-.163a.905.905 0 0 1 .257.047c.18.054.376.127.581.22.232.104.474.22.73.352.254.131.517.263.8.404.28.137.543.257.795.363.312.13.608.222.895.268.404.07.87.067 1.399-.003.476-.063.891-.121 1.295-.18.402-.059.792-.1 1.167-.123.258-.016.439.004.54.04l.036.013a.403.403 0 0 1 .063.04c.097.073.203.163.315.268.146.137.296.293.448.468a372.223 372.223 0 0 1 1.052 1.204c.19.222.385.425.578.606a3.859 3.859 0 0 0 .61.482c.355.23.788.411 1.296.551.434.121.85.233 1.26.34zM64.212 40.81v6.784h-4.708V27.3h7.159c1.43 0 2.658.17 3.684.508 1.026.34 1.87.806 2.535 1.4a5.457 5.457 0 0 1 1.469 2.103 7.13 7.13 0 0 1 .474 2.619c0 1.012-.163 1.94-.488 2.785a5.59 5.59 0 0 1-1.49 2.173c-.669.603-1.516 1.075-2.542 1.413-1.026.34-2.24.509-3.642.509h-2.451zm0-3.55h2.451c1.226 0 2.108-.293 2.646-.878.539-.585.808-1.402.808-2.451 0-.465-.07-.887-.209-1.268a2.58 2.58 0 0 0-.634-.982 2.85 2.85 0 0 0-1.072-.633c-.432-.149-.945-.223-1.539-.223h-2.451v6.434zm22.34 10.334c-.409 0-.718-.056-.926-.167-.21-.112-.383-.344-.523-.697l-.306-.794c-.362.307-.71.576-1.045.808a6.62 6.62 0 0 1-1.037.592 5.124 5.124 0 0 1-1.142.362 7.029 7.029 0 0 1-1.344.118c-.66 0-1.259-.085-1.797-.257a3.748 3.748 0 0 1-1.372-.76 3.338 3.338 0 0 1-.87-1.246c-.205-.497-.307-1.07-.307-1.72 0-.51.13-1.035.39-1.574.26-.538.71-1.028 1.351-1.469.64-.441 1.504-.81 2.59-1.107 1.087-.297 2.457-.465 4.11-.502v-.613c0-.844-.175-1.455-.523-1.831-.348-.376-.843-.564-1.483-.564-.511 0-.929.056-1.254.167a5.635 5.635 0 0 0-.87.376c-.256.14-.504.265-.745.376-.242.112-.53.167-.864.167-.297 0-.55-.072-.759-.216a1.603 1.603 0 0 1-.494-.536l-.78-1.35a8.78 8.78 0 0 1 2.904-1.72 10.18 10.18 0 0 1 3.419-.565c.873 0 1.66.142 2.36.425a5.08 5.08 0 0 1 1.783 1.184 5.173 5.173 0 0 1 1.121 1.803c.26.697.39 1.458.39 2.284v9.026h-1.977zm-4.959-2.633c.558 0 1.045-.097 1.463-.292.418-.195.84-.51 1.267-.947v-2.006c-.863.037-1.574.112-2.13.223-.558.111-.999.25-1.324.418-.325.167-.55.357-.675.57a1.351 1.351 0 0 0-.188.697c0 .492.134.838.404 1.038.269.2.663.3 1.183.3zm18.83-8.649c-.11.177-.23.302-.354.376a.932.932 0 0 1-.481.112c-.204 0-.409-.044-.613-.133l-.661-.285a7.208 7.208 0 0 0-.801-.286 3.575 3.575 0 0 0-1.017-.132c-.548 0-.968.104-1.26.313a1.01 1.01 0 0 0-.44.87c0 .27.096.493.286.67.19.176.444.331.76.466.315.135.673.262 1.072.383.4.12.808.255 1.226.404.417.148.826.323 1.225.522.4.2.757.446 1.073.738.315.293.568.648.759 1.066.19.418.285.919.285 1.504 0 .715-.13 1.374-.39 1.978a4.2 4.2 0 0 1-1.163 1.56c-.515.436-1.151.775-1.908 1.016-.757.242-1.627.362-2.611.362-.492 0-.985-.046-1.477-.139a10.226 10.226 0 0 1-1.427-.376 7.777 7.777 0 0 1-1.275-.564 5.527 5.527 0 0 1-1.002-.703l1.002-1.588c.121-.186.265-.332.432-.439.167-.107.386-.16.655-.16.25 0 .476.056.675.167l.648.362c.232.13.504.251.815.362.31.112.703.168 1.177.168.334 0 .617-.035.85-.105.231-.07.417-.165.556-.285.14-.121.242-.256.307-.404.065-.149.097-.302.097-.46a.938.938 0 0 0-.292-.71 2.548 2.548 0 0 0-.766-.48 9.339 9.339 0 0 0-1.08-.377 20.964 20.964 0 0 1-1.232-.397 9.9 9.9 0 0 1-1.233-.536 4.24 4.24 0 0 1-1.08-.794 3.689 3.689 0 0 1-.765-1.177c-.195-.464-.293-1.026-.293-1.685 0-.613.119-1.195.355-1.748a4.058 4.058 0 0 1 1.066-1.455c.473-.418 1.068-.75 1.783-.996.714-.246 1.55-.37 2.507-.37.52 0 1.023.047 1.51.14.488.093.945.223 1.373.39a6.57 6.57 0 0 1 1.17.592c.352.227.663.476.933.745l-.975 1.518zm12.257 0c-.111.177-.23.302-.355.376a.932.932 0 0 1-.48.112c-.205 0-.41-.044-.613-.133l-.662-.285a7.208 7.208 0 0 0-.8-.286 3.575 3.575 0 0 0-1.018-.132c-.547 0-.968.104-1.26.313a1.01 1.01 0 0 0-.439.87c0 .27.095.493.286.67.19.176.443.331.759.466s.673.262 1.072.383c.4.12.808.255 1.226.404.418.148.826.323 1.226.522.399.2.756.446 1.072.738.316.293.569.648.759 1.066.19.418.286.919.286 1.504 0 .715-.13 1.374-.39 1.978a4.2 4.2 0 0 1-1.163 1.56c-.516.436-1.152.775-1.908 1.016-.757.242-1.628.362-2.612.362-.492 0-.984-.046-1.476-.139a10.226 10.226 0 0 1-1.428-.376 7.777 7.777 0 0 1-1.274-.564 5.527 5.527 0 0 1-1.003-.703l1.003-1.588c.12-.186.264-.332.432-.439.167-.107.385-.16.654-.16.25 0 .476.056.676.167l.647.362c.232.13.504.251.815.362.311.112.703.168 1.177.168.334 0 .617-.035.85-.105.232-.07.417-.165.557-.285.139-.121.241-.256.306-.404.065-.149.098-.302.098-.46a.938.938 0 0 0-.293-.71 2.548 2.548 0 0 0-.766-.48 9.339 9.339 0 0 0-1.08-.377 20.964 20.964 0 0 1-1.232-.397 9.9 9.9 0 0 1-1.233-.536 4.24 4.24 0 0 1-1.079-.794 3.689 3.689 0 0 1-.766-1.177c-.195-.464-.292-1.026-.292-1.685 0-.613.118-1.195.355-1.748a4.058 4.058 0 0 1 1.065-1.455c.474-.418 1.068-.75 1.783-.996.715-.246 1.55-.37 2.507-.37.52 0 1.024.047 1.511.14.488.093.945.223 1.372.39a6.57 6.57 0 0 1 1.17.592c.353.227.664.476.933.745l-.975 1.518zm3.426 15.864V33.15h2.674c.27 0 .495.06.676.18.18.121.309.302.383.544l.32 1.058c.279-.306.578-.585.899-.835a5.68 5.68 0 0 1 2.215-1.072 5.894 5.894 0 0 1 1.385-.154c.752 0 1.448.167 2.089.501.64.335 1.193.818 1.657 1.449.465.631.83 1.404 1.094 2.319.264.914.397 1.952.397 3.113 0 1.086-.151 2.089-.453 3.008-.302.92-.724 1.718-1.267 2.396a5.839 5.839 0 0 1-1.95 1.587c-.757.381-1.595.571-2.514.571-.752 0-1.384-.106-1.894-.32a5.142 5.142 0 0 1-1.393-.863v5.543h-4.318zm7.048-16.003c-.316 0-.602.03-.857.09s-.492.147-.71.258c-.218.112-.42.253-.606.425s-.371.369-.557.592v6.128c.325.362.678.615 1.058.76.381.143.78.215 1.198.215.4 0 .766-.079 1.1-.237.335-.158.625-.41.87-.759.247-.348.44-.8.579-1.358.14-.557.209-1.235.209-2.033 0-.762-.056-1.402-.167-1.922-.112-.52-.267-.94-.467-1.26-.2-.321-.439-.55-.717-.69a2.057 2.057 0 0 0-.933-.21zm15.487-3.245c1.096 0 2.094.172 2.995.515.9.344 1.673.836 2.319 1.476a6.65 6.65 0 0 1 1.504 2.333c.357.915.536 1.943.536 3.085 0 1.152-.179 2.19-.536 3.113-.358.924-.859 1.709-1.504 2.354a6.6 6.6 0 0 1-2.32 1.49c-.9.348-1.898.522-2.994.522-1.105 0-2.11-.174-3.015-.522a6.729 6.729 0 0 1-2.34-1.49c-.655-.645-1.16-1.43-1.518-2.354-.358-.924-.536-1.961-.536-3.113 0-1.142.178-2.17.536-3.085a6.554 6.554 0 0 1 1.518-2.333 6.697 6.697 0 0 1 2.34-1.476c.905-.343 1.91-.515 3.015-.515zm0 11.685c.994 0 1.725-.35 2.194-1.051.469-.701.703-1.767.703-3.197 0-1.43-.234-2.493-.703-3.19-.469-.696-1.2-1.044-2.194-1.044-1.021 0-1.769.348-2.242 1.045-.474.696-.71 1.76-.71 3.19s.236 2.495.71 3.196c.473.7 1.22 1.051 2.242 1.051zm9.722 2.98V33.152h2.563c.213 0 .392.018.536.055a.94.94 0 0 1 .362.174.743.743 0 0 1 .223.314c.05.13.095.288.132.473l.237 1.351c.529-.817 1.123-1.462 1.783-1.936a3.622 3.622 0 0 1 2.158-.71c.66 0 1.189.158 1.588.474l-.557 3.175c-.037.195-.111.332-.223.411a.756.756 0 0 1-.446.118c-.157 0-.343-.02-.557-.062a4.319 4.319 0 0 0-.807-.063c-1.133 0-2.025.604-2.675 1.81v8.859h-4.317zm16.574.223c-.687 0-1.293-.1-1.818-.299a3.61 3.61 0 0 1-1.323-.85 3.622 3.622 0 0 1-.815-1.33 5.149 5.149 0 0 1-.278-1.74V36.13h-1.226a.818.818 0 0 1-.57-.216c-.159-.144-.238-.355-.238-.633v-1.686l2.298-.445.85-3.524c.111-.446.427-.669.947-.669h2.256v4.22h3.51v2.953h-3.51v7.173c0 .334.082.61.244.829.163.218.397.327.703.327a1.382 1.382 0 0 0 .676-.16c.079-.042.153-.08.223-.112a.571.571 0 0 1 .243-.048c.13 0 .235.03.314.09.079.06.16.156.244.286l1.309 2.047a5.958 5.958 0 0 1-1.88.94 7.472 7.472 0 0 1-2.16.313z"/></g></svg>