<svg width="465" height="417" viewBox="0 0 465 417" xmlns="http://www.w3.org/2000/svg"><title>Artboard 2 Copy 5</title><g fill="none" fill-rule="evenodd"><path d="M355.25 206.685a109.953 109.953 0 0 1-3.624 7.996 841.612 841.612 0 0 0-1.912 3.808c-.436-1.32-.87-2.64-1.27-3.931a60.9 60.9 0 0 1-1.206-4.442c-.229-.996-.345-1.812-.374-2.461.011-.5.105-1.184.315-2.047a81.31 81.31 0 0 1 1.235-4.63c.482-1.642 1.016-3.359 1.635-5.26.394-1.21.746-2.385 1.078-3.544a93.704 93.704 0 0 1 2.659 4.645 35.028 35.028 0 0 1 1.939 4.237c.306.828.447 1.472.462 1.875.026.765-.245 2.04-.937 3.754m-9.32 59.045c-.952 1.55-1.622 2.344-2.405 3.183a50.185 50.185 0 0 1-3.46 3.345 1300.623 1300.623 0 0 0-4.503 3.97l-1.507 1.32c.128-1.658.261-3.307.41-4.96.15-1.678.338-3.214.568-4.622.165-1.031.362-1.778.56-2.263.33-.783 1.113-2.013 2.336-3.51a794.795 794.795 0 0 1 5.32-6.453c.719-.873 1.401-1.73 2.067-2.58l.013.09c.3 1.985.54 3.938.72 5.842.157 1.711.212 3.278.165 4.685-.027.925-.14 1.564-.284 1.953m-16.413-21.375a814.968 814.968 0 0 0-5.403 6.555c-2.226 2.724-3.9 5.354-5.002 7.968-.79 1.938-1.326 3.976-1.688 6.243a81.143 81.143 0 0 0-.725 5.878 401.8 401.8 0 0 0-.484 5.843 90.22 90.22 0 0 1-.534 5.103 32.27 32.27 0 0 1-.76 3.928c-.182.687-.36 1.109-.495 1.312l-.114.173-.106.178c.049-.081.018-.045-.13.081-.545.461-1.249.989-2.058 1.534a43.07 43.07 0 0 1-3.55 2.135c-1.596.86-3.147 1.698-4.66 2.52-.193.103-3.532 1.897-4.467 2.392-1.808.97-3.393 1.915-4.825 2.88-.771.52-1.49 1.049-2.162 1.59a24.629 24.629 0 0 0-1.976 1.755c-2.082 2.146-3.846 4.679-5.49 7.733a391.04 391.04 0 0 0-3.991 7.63 87.237 87.237 0 0 1-3.726 6.6c-.812 1.298-1.48 2.043-1.886 2.318-.456.307-1.417.657-2.905.92a88.488 88.488 0 0 1-7.537.984c-2.994.264-5.87.553-8.615.864-3.444.395-6.416 1.067-8.966 2.086l-.22.091c-.793.341-1.581.737-2.373 1.18-.73.407-1.493.878-2.262 1.398-1.432.965-2.91 2.087-4.461 3.374-.802.673-3.556 2.96-4.027 3.355-1.344 1.106-2.71 2.235-4.048 3.347a41.824 41.824 0 0 1-3.225 2.433c-.81.547-1.56 1-2.24 1.357-.128.066-.17.08-.084.067l-.296.046-.293.066c-.097.023-.47.03-1.102-.049a33.315 33.315 0 0 1-3.998-.782 75.942 75.942 0 0 1-4.931-1.436c-2-.656-3.907-1.251-5.742-1.79a96.376 96.376 0 0 0-5.63-1.474c-2.216-.507-4.312-.772-6.295-.769-2.07.018-4.188.32-6.424.879-1.684.414-3.507.924-5.512 1.534a364.474 364.474 0 0 0-5.586 1.756c-1.7.544-3.381 1.042-5.036 1.492-1.374.371-2.66.633-3.849.79-.67.086-1.133.08-1.357.036-.235-.045-.668-.214-1.277-.556a34.126 34.126 0 0 1-3.403-2.225 66.728 66.728 0 0 1-3.912-3.115 282.574 282.574 0 0 0-4.553-3.81 79.972 79.972 0 0 0-4.762-3.608c-1.796-1.25-3.557-2.262-5.312-3.03-2.802-1.168-5.876-1.851-9.398-2.187a441.38 441.38 0 0 0-8.553-.74 89.929 89.929 0 0 1-7.54-.885c-1.495-.24-2.442-.57-2.888-.864l-.175-.115-.18-.107c.09.054.067.032-.052-.106a23.877 23.877 0 0 1-1.555-2.08 41.057 41.057 0 0 1-2.115-3.525l-.98-1.808-1.538-2.846c-.947-1.755-1.713-3.18-2.431-4.526a55.136 55.136 0 0 0-2.863-4.795 32.883 32.883 0 0 0-1.573-2.141 27.686 27.686 0 0 0-1.666-1.898l-.183-.185c-1.405-1.379-3.061-2.644-4.966-3.824a81.525 81.525 0 0 0-5.047-2.868 300.63 300.63 0 0 0-5.198-2.66 80.082 80.082 0 0 1-4.484-2.41 34.656 34.656 0 0 1-3.387-2.224c-.486-.367-.793-.68-.93-.882-.28-.416-.623-1.361-.888-2.857-.425-2.397-.78-4.962-1.063-7.684a800.716 800.716 0 0 0-.939-8.625c-.403-3.555-1.143-6.651-2.293-9.302a27.869 27.869 0 0 0-1.178-2.354c-.42-.745-.885-1.5-1.394-2.255a54.614 54.614 0 0 0-3.371-4.448c-.972-1.162-1.986-2.383-3.288-3.952l-1.142-1.38c-.338-.407-.65-.786-1.3-1.573l-.918-1.11a41.642 41.642 0 0 1-2.49-3.301 23.876 23.876 0 0 1-1.352-2.233c-.076-.146-.085-.172-.067-.056l-.056-.327c-.04-.212-.044-.693.05-1.429.16-1.252.417-2.61.774-4.058a71.286 71.286 0 0 1 1.373-4.879A354.612 354.612 0 0 0 59.555 221a83.072 83.072 0 0 0 1.529-5.72c.507-2.24.77-4.33.762-6.308-.008-1.993-.296-4.08-.832-6.306a98.527 98.527 0 0 0-1.54-5.569 323.678 323.678 0 0 0-1.782-5.633 76.761 76.761 0 0 1-1.439-4.925 34.543 34.543 0 0 1-.788-3.997c-.088-.678-.082-1.141-.037-1.379.091-.466.51-1.351 1.369-2.562a106.284 106.284 0 0 1 4.667-6.067 359.163 359.163 0 0 0 5.433-6.73c2.17-2.754 3.795-5.362 4.867-7.924 1.106-2.65 1.8-5.712 2.16-9.229.29-2.837.549-5.712.775-8.633.204-2.628.509-5.106.916-7.436.248-1.425.57-2.38.865-2.9.332-.422 1.117-1.125 2.412-1.998a41.336 41.336 0 0 1 3.475-2.081l4.653-2.512c2.304-1.241 3.44-1.853 4.567-2.458a55.567 55.567 0 0 0 4.806-2.88 33.23 33.23 0 0 0 2.121-1.547 27.357 27.357 0 0 0 1.969-1.736c1.523-1.543 2.81-3.242 4.007-5.21.954-1.57 1.9-3.236 2.844-5.004a288.5 288.5 0 0 0 2.727-5.247 88.932 88.932 0 0 1 2.459-4.543 31.854 31.854 0 0 1 2.211-3.346c.426-.562.754-.882.962-1.022.198-.135.595-.306 1.218-.472a36.536 36.536 0 0 1 4.046-.821 74.042 74.042 0 0 1 5.02-.565c1.98-.158 3.941-.34 5.903-.546 2-.212 3.901-.466 5.717-.764 2.27-.372 4.33-.926 6.184-1.701.899-.39 1.667-.776 2.44-1.207a33.83 33.83 0 0 0 2.282-1.417 54.637 54.637 0 0 0 4.456-3.371c1.082-.904 2.063-1.718 3.951-3.287.673-.555 1.388-1.148 2.261-1.871l.583-.483 1.218-1.01a41.94 41.94 0 0 1 3.294-2.485 18.177 18.177 0 0 1 2.077-1.223c.354-.177.59-.262.695-.283.49-.099 1.507-.055 2.966.27a84.415 84.415 0 0 1 7.278 1.972c2.822.895 5.588 1.734 8.294 2.515 3.385.98 6.483 1.484 9.338 1.453 2.837-.036 5.888-.586 9.25-1.598 2.72-.818 5.465-1.668 8.232-2.553a92.282 92.282 0 0 1 7.338-2.024c1.461-.335 2.473-.388 2.997-.287.205.04.642.211 1.253.554a30.4 30.4 0 0 1 3.268 2.174c1.315.992 2.674 2.076 4.101 3.273a331.237 331.237 0 0 0 4.536 3.752 98.786 98.786 0 0 0 4.589 3.51c1.863 1.337 3.692 2.39 5.536 3.142 2.577 1.082 5.662 1.767 9.23 2.115 3.143.3 5.88.546 8.548.768 2.623.218 5.144.528 7.543.93 1.54.258 2.536.602 2.992.896l.243.15c-.085-.05-.048-.017.083.136.486.57 1.008 1.262 1.548 2.064a41.946 41.946 0 0 1 2.123 3.539l.001.002a2699.839 2699.839 0 0 1 4.95 9.178 53.165 53.165 0 0 0 2.855 4.784c.519.769 1.04 1.482 1.569 2.143.571.71 1.144 1.355 1.742 1.963 2.014 2.059 4.595 3.903 7.72 5.59a514.73 514.73 0 0 0 7.565 4.018 96.947 96.947 0 0 1 6.637 3.779c1.257.787 2.083 1.475 2.541 2.004.109.222.23.55.352 1.003.33 1.225.605 2.572.829 4.062.237 1.594.425 3.268.563 5.018.164 2.063.345 4.026.546 5.913.208 1.981.473 3.918.793 5.79.384 2.27.946 4.325 1.716 6.166.391.9.774 1.67 1.202 2.437.43.765.897 1.516 1.414 2.284a53.487 53.487 0 0 0 3.39 4.468c.88 1.057 1.68 2.021 3.266 3.934a1678.672 1678.672 0 0 1 3.363 4.06 41.91 41.91 0 0 1 2.488 3.298c.901 1.337 1.378 2.316 1.512 2.825.033.254.032.677-.046 1.287a32.497 32.497 0 0 1-.773 3.95 77.94 77.94 0 0 1-1.43 4.895c-.674 2.065-1.26 3.95-1.783 5.739a99.476 99.476 0 0 0-1.477 5.53c-.527 2.179-.81 4.301-.808 6.317l.004.244c.054 1.913.333 3.922.822 6.061.416 1.826.935 3.74 1.558 5.748a243.591 243.591 0 0 0 1.828 5.663c.57 1.7 1.062 3.32 1.48 4.88.376 1.39.638 2.68.798 3.89.086.665.08 1.136.035 1.366-.098.503-.523 1.414-1.379 2.636a95.837 95.837 0 0 1-4.65 6.088m-12.786 63.605a99.84 99.84 0 0 1-2.462 8.34c-.615 1.789-1.24 2.926-1.747 3.467-.55.59-1.661 1.311-3.381 2.042a101.133 101.133 0 0 1-8.17 3.045c-1.503.49-2.967.978-4.41 1.466.073-.141.147-.277.22-.418a378.518 378.518 0 0 1 3.812-7.29c.919-1.706 1.768-2.926 2.476-3.655a14.067 14.067 0 0 1 1.422-1.091 38.042 38.042 0 0 1 3.242-1.93c.945-.498 4.324-2.312 4.538-2.428 1.549-.842 3.076-1.667 4.675-2.528l.038-.023-.253 1.003m-46.193 38.008a1428.739 1428.739 0 0 0-3.62 4.734 49.323 49.323 0 0 1-3.019 3.6 28.783 28.783 0 0 1-2.224 2.163c-.223.19-.958.54-.958.54-.238.112-.779.251-1.627.337-1.44.146-3.029.202-4.765.163a88.317 88.317 0 0 1-5.892-.333 223.98 223.98 0 0 0-5.61-.433l2.486-2.057c.487-.406 3.26-2.709 4.066-3.387a38.853 38.853 0 0 1 3.007-2.281c.362-.244.698-.45.995-.617.233-.13.423-.227.592-.305.928-.355 2.362-.677 4.28-.896 2.586-.294 5.316-.568 8.177-.821 1.417-.127 2.794-.28 4.145-.449l-.033.042m-60.225 20.163a134.067 134.067 0 0 1-5.232 2.961 34.965 34.965 0 0 1-4.196 1.92c-.835.31-1.472.449-1.868.462-.406.014-1.052-.081-1.929-.337a39.833 39.833 0 0 1-4.462-1.64 77.026 77.026 0 0 1-5.197-2.482 320.589 320.589 0 0 0-5.98-3.034l-.102-.049c.87-.26 1.744-.527 2.623-.81 2.019-.649 3.727-1.187 5.323-1.672a88.392 88.392 0 0 1 4.613-1.287c.974-.244 1.716-.35 2.221-.353.477-.001 1.25.096 2.23.32 1.437.328 2.965.73 4.585 1.202 1.641.483 3.371 1.022 5.207 1.624a94.252 94.252 0 0 0 5.02 1.481c-.9.53-1.843 1.089-2.856 1.694m-61.556-5.46c-3.033.458-5.918.778-8.655.957-1.867.127-3.163-.014-3.904-.29-1.546-.954-2.336-1.62-3.18-2.406a48.476 48.476 0 0 1-3.319-3.439l-1.61-1.826a1976.59 1976.59 0 0 1-6.21-7.068c1.262.14 2.535.271 3.85.373 2.87.221 5.603.459 8.218.711 1.886.18 3.26.486 4.103.836.473.21 1.232.645 2.12 1.264 1.15.8 2.374 1.73 3.675 2.787a257.206 257.206 0 0 1 4.235 3.544 84.727 84.727 0 0 0 4.944 3.933c-1.4.2-2.814.404-4.267.623m-54.681-28.497a91.08 91.08 0 0 1-5.638-1.539 40.49 40.49 0 0 1-4.441-1.64c-.751-.336-1.28-.675-1.585-.959-.55-.512-1.258-1.607-1.994-3.331a124.615 124.615 0 0 1-3.164-8.3 927.438 927.438 0 0 0-2.98-8.56 97.921 97.921 0 0 0 3.917 2.075c1.628.813 3.251 1.643 4.881 2.497a63.54 63.54 0 0 1 3.935 2.234c.778.482 1.356.92 1.762 1.298.18.194.354.387.518.591.233.29.47.612.708.967a37.346 37.346 0 0 1 1.921 3.23c.729 1.364 1.506 2.811 2.464 4.585l1.55 2.87c.484.892.707 1.306.966 1.785a60.996 60.996 0 0 0 1.994 3.407c-1.604-.411-3.206-.822-4.814-1.21M56 285.967c-.715-.545-1.434-1.095-2.447-1.87l-1.132-.866-1.17-.895a48.157 48.157 0 0 1-3.682-3.087 28.147 28.147 0 0 1-2.153-2.217c-.575-1.037-.73-1.688-.827-2.64a42.616 42.616 0 0 1-.185-4.818c.022-1.914.115-3.843.277-5.82.185-2.231.35-4.442.495-6.634.081-1.174.14-2.326.176-3.457.169.207.319.412.49.62l.903 1.09 1.303 1.577 1.154 1.395c1.318 1.589 2.348 2.828 3.332 4.003a37.164 37.164 0 0 1 2.273 2.988c.238.353.448.693.63 1.017.15.268.283.532.404.804.337.775.677 2.203.897 4.14.298 2.591.597 5.352.92 8.445.303 2.92.69 5.698 1.147 8.361-.849-.644-1.757-1.336-2.805-2.136m-12.31-74.64a65.16 65.16 0 0 1-1.205 4.496 350.66 350.66 0 0 1-1.667 5.365 89.047 89.047 0 0 0-1.709 6.064 56.937 56.937 0 0 0-.652 2.989c-.882-1.513-1.77-3.03-2.703-4.58a88.313 88.313 0 0 1-2.884-5.141 40.566 40.566 0 0 1-1.948-4.345c-.313-.843-.452-1.478-.466-1.888-.025-.727.247-1.975.947-3.678a121.523 121.523 0 0 1 3.645-7.972 408.28 408.28 0 0 0 4.273-8.794c.1-.21.178-.408.273-.616.355 1.257.73 2.516 1.144 3.781a299.715 299.715 0 0 1 1.682 5.317 79.953 79.953 0 0 1 1.259 4.547c.227.938.328 1.677.33 2.169.003.523-.094 1.294-.32 2.286m-3.034-59.748c.306-.689 1.08-1.796 2.402-3.214.972-1.042 2.101-2.13 3.393-3.268l4.499-3.96c2.229-1.96 3.33-2.927 4.42-3.882a67.567 67.567 0 0 0 1.854-1.7c-.11 1.02-.227 2.032-.309 3.083-.215 2.778-.46 5.505-.735 8.194-.194 1.902-.513 3.307-.872 4.169-.377.901-1.18 2.187-2.423 3.766a344.24 344.24 0 0 1-5.167 6.398c-1.96 2.372-3.78 4.74-5.46 7.103-.111.155-.21.31-.318.465-.214-1.551-.44-3.11-.676-4.68a90.29 90.29 0 0 1-.896-8.562c-.1-1.812.036-3.115.288-3.912m29.236-42.314c.496-2.012 1.02-3.912 1.576-5.712.5-1.625 1.049-3.09 1.643-4.4.377-.84.727-1.387 1.015-1.696.281-.302.781-.67 1.538-1.073a42.505 42.505 0 0 1 4.382-1.994 84.718 84.718 0 0 1 5.481-1.933 258.073 258.073 0 0 0 6.353-2.1c1.091-.376 2.148-.757 3.178-1.146-.304.577-.61 1.145-.91 1.74a263.95 263.95 0 0 1-2.556 4.916 83.258 83.258 0 0 1-2.34 4.121c-.52.853-.983 1.465-1.347 1.835-.06.057-.28.25-.54.46-.222.176-.554.418-.946.682a37.663 37.663 0 0 1-3.264 1.948l-4.603 2.478-4.653 2.512a59.19 59.19 0 0 0-4.936 2.964c.311-1.2.634-2.405.929-3.602m46.082-37.862c.649-.847 1.33-1.74 2.196-2.874.92-1.207.92-1.207 1.435-1.88a48.755 48.755 0 0 1 3.08-3.674 21.757 21.757 0 0 1 2.098-1.99c.421-.346.746-.557.954-.653.691-.311 1.986-.55 3.835-.566 2.697-.028 5.563.08 8.647.325 3.113.252 6.149.455 9.121.621-.66.548-1.255 1.04-1.811 1.5-1.914 1.59-2.902 2.411-4.004 3.33a36.56 36.56 0 0 1-2.996 2.274c-.393.266-.742.483-1.045.655-.237.132-.491.26-.705.352-.346.144-1.084.343-2.066.503a83.18 83.18 0 0 1-4.702.628c-1.81.19-3.622.358-5.443.504a90.974 90.974 0 0 0-6.24.703c-.867.13-1.69.284-2.505.44l.15-.198m60.287-20.306a106.028 106.028 0 0 1 7.678-4.155c1.669-.81 2.93-1.17 3.716-1.2.376-.012 1.027.083 1.906.34a35.62 35.62 0 0 1 4.316 1.624 114.42 114.42 0 0 1 5.42 2.597c1.89.97 3.84 1.944 5.951 2.98.4.194.774.362 1.164.548-2.48.79-4.942 1.557-7.382 2.29-1.89.57-3.35.832-4.325.845-.914.009-2.337-.223-4.174-.755a309.126 309.126 0 0 1-7.863-2.384 105.053 105.053 0 0 0-7.51-2.08c.368-.218.734-.43 1.103-.65m61.546 5.493c2.988-.435 5.884-.738 8.67-.907 1.916-.118 3.263.026 4.01.295 1.46.93 2.247 1.59 3.079 2.368a48.513 48.513 0 0 1 3.33 3.451c1.983 2.247 2.86 3.243 3.952 4.487l3.032 3.448c-2.16-.184-4.406-.388-6.92-.627-1.903-.187-3.3-.496-4.118-.84-.526-.215-1.169-.585-1.968-1.158a81.018 81.018 0 0 1-3.746-2.868 319.723 319.723 0 0 1-4.292-3.55 118.802 118.802 0 0 0-4.835-3.859c-.104-.079-.21-.145-.315-.223l.121-.017m63.105 31.194c1.765.608 2.995 1.24 3.74 1.809.261.292.561.728.888 1.345a42.7 42.7 0 0 1 2.008 4.395 84.77 84.77 0 0 1 1.93 5.48 258.152 258.152 0 0 0 1.81 5.504 532.03 532.03 0 0 1-5.643-3.007c-1.663-.897-2.816-1.72-3.467-2.388a8.3 8.3 0 0 1-.568-.642 14.97 14.97 0 0 1-.69-.948 35.682 35.682 0 0 1-1.908-3.211c-.686-1.279-1.214-2.259-2.478-4.601-.695-1.292-1.255-2.33-2.512-4.653-.26-.483-.53-.933-.796-1.397 2.67.705 5.24 1.472 7.686 2.314m33.28 46.285l1.146.877a48.3 48.3 0 0 1 3.677 3.082c1.452 1.353 2.32 2.434 2.661 3.104.155.38.297.977.382 1.818.144 1.438.2 3.008.16 4.709a91.306 91.306 0 0 1-.337 5.85 241.565 241.565 0 0 0-.374 4.741 2441.048 2441.048 0 0 0-3.112-3.75 35.712 35.712 0 0 1-2.286-2.999c-.256-.38-.467-.72-.635-1.019a8.889 8.889 0 0 1-.366-.735c-.154-.37-.363-1.133-.535-2.15a72.91 72.91 0 0 1-.639-4.668c-.184-1.74-.351-3.548-.502-5.452a93.31 93.31 0 0 0-.454-4.335c.376.286.77.59 1.214.927m39.823 68.242c-.088-2.456-.63-4.937-1.573-7.483a53.18 53.18 0 0 0-2.914-6.401 112.558 112.558 0 0 0-3.457-6.022 262.77 262.77 0 0 1-3.232-5.401 70.57 70.57 0 0 1-2.51-4.68c-.542-1.12-.909-2.07-1.126-2.861-.139-.648-.219-1.528-.206-2.637a94.55 94.55 0 0 1 .186-5.49c.113-1.945.265-3.99.466-6.26.215-2.44.35-4.769.401-7.004a55.881 55.881 0 0 0-.245-6.912c-.276-2.737-.898-5.24-1.924-7.503l-.078-.166c-1.403-2.926-3.628-5.715-6.622-8.508a66.004 66.004 0 0 0-5.015-4.212l-1.141-.873c-1.503-1.148-2.565-1.96-3.627-2.767-2.24-1.71-3.378-2.577-4.67-3.56a41.705 41.705 0 0 1-3.383-2.809c-.402-.375-.746-.72-1.03-1.033-.243-.268-.47-.543-.668-.81-.332-.464-.8-1.334-1.283-2.491a84.166 84.166 0 0 1-1.922-5.066 237.95 237.95 0 0 1-1.955-5.922c-.726-2.3-1.507-4.514-2.344-6.646a59.984 59.984 0 0 0-2.85-6.221c-1.272-2.408-2.814-4.498-4.65-6.21l-.175-.164-.184-.153c-2.554-2.137-5.744-3.81-9.563-5.128a128.875 128.875 0 0 0-9.74-2.916 554.05 554.05 0 0 1-9.086-2.431c-2.172-.596-3.763-1.256-4.765-1.898-.29-.185-.577-.388-.884-.631-.31-.245-.679-.564-1.08-.939a41.846 41.846 0 0 1-3.015-3.15c-1.079-1.232-1.912-2.18-3.906-4.445-1.097-1.25-1.98-2.252-3.963-4.502a66.51 66.51 0 0 0-4.55-4.706 45.407 45.407 0 0 0-3.89-3.262c-1.693-1.25-3.461-2.202-5.324-2.839l.003-.008c-.06-.021-.121-.037-.181-.058-.03-.01-.06-.024-.09-.034l-.002.004c-3.197-1.1-6.809-1.471-10.857-1.225-3.29.2-6.679.555-10.148 1.06a769.73 769.73 0 0 1-9.381 1.296c-2.261.294-4 .31-5.122.116-.724-.119-1.617-.39-2.727-.853a94.526 94.526 0 0 1-4.933-2.24 362.072 362.072 0 0 1-5.668-2.839 132.943 132.943 0 0 0-6.267-3.002 53.445 53.445 0 0 0-6.53-2.439c-2.636-.774-5.148-1.14-7.582-1.062-3.537.131-7.133 1.162-10.888 2.983a123.902 123.902 0 0 0-8.996 4.864 526.208 526.208 0 0 1-8.161 4.757c-2.03 1.161-3.675 1.866-4.87 2.159-1.134.274-2.879.388-5.153.264a350.33 350.33 0 0 1-9.325-.632c-3.605-.285-6.998-.414-10.233-.381-4.152.035-7.85.72-11.076 2.177-1.73.798-3.328 1.828-4.866 3.093a39.469 39.469 0 0 0-3.824 3.61 66.602 66.602 0 0 0-4.215 5.018l-1.028 1.347-.405.532c-.863 1.13-1.54 2.017-2.197 2.875-1.708 2.243-2.588 3.4-3.57 4.696a42.851 42.851 0 0 1-2.809 3.369c-.387.416-.738.767-1.053 1.055-.263.237-.54.467-.785.648-.443.317-1.287.768-2.413 1.229a94.494 94.494 0 0 1-5.098 1.917c-1.96.675-3.93 1.325-5.912 1.953-2.284.72-4.501 1.502-6.64 2.343-2.263.893-4.33 1.835-6.222 2.842-2.416 1.282-4.503 2.826-6.213 4.66-1.702 1.824-3.095 4.007-4.228 6.522a55.06 55.06 0 0 0-2.428 6.479 119.063 119.063 0 0 0-1.85 6.7 304.79 304.79 0 0 1-1.576 6.107 95.933 95.933 0 0 1-1.555 5.216c-.383 1.157-.776 2.035-1.137 2.622-.084.128-.3.428-.555.755-.226.283-.552.66-.937 1.072a43.542 43.542 0 0 1-3.197 3.07c-1.104.968-2.21 1.94-4.452 3.91a3653.846 3653.846 0 0 1-4.498 3.96 65.802 65.802 0 0 0-4.654 4.494c-2.799 3-4.822 5.937-6.014 8.96l-.1.27c-1.159 3.237-1.567 6.916-1.343 11.031.18 3.293.537 6.707 1.069 10.249.473 3.131.899 6.217 1.282 9.269.283 2.258.29 4.004.091 5.176-.207 1.21-.8 2.935-1.811 5.086a390.984 390.984 0 0 1-4.09 8.412 139.693 139.693 0 0 0-4.186 9.16c-1.6 3.893-2.402 7.571-2.28 11.1.087 2.458.63 4.944 1.577 7.49a58.364 58.364 0 0 0 2.813 6.3 107.4 107.4 0 0 0 3.462 6.176 341.842 341.842 0 0 1 3.227 5.465 92.358 92.358 0 0 1 2.582 4.762c.53 1.06.863 1.934 1.014 2.576.158.67.257 1.636.262 2.874a74.486 74.486 0 0 1-.188 5.36c-.14 2.118-.298 4.233-.474 6.37a99.828 99.828 0 0 0-.337 7.051 59.91 59.91 0 0 0 .273 6.837c.261 2.586.816 4.921 1.707 7.044l-.008.004c.02.05.048.1.068.151.022.051.038.105.06.156l.009-.004c.763 1.824 1.837 3.529 3.198 5.12a45.892 45.892 0 0 0 3.53 3.65 65.579 65.579 0 0 0 5.025 4.221l1.151.881 1.133.866a1446.276 1446.276 0 0 0 7.163 5.455 43.822 43.822 0 0 1 3.366 2.8c.378.352.719.697 1.025 1.033.258.285.496.57.722.869.653.886 1.444 2.478 2.218 4.665.991 2.791 2.028 5.767 3.174 9.107a142.247 142.247 0 0 0 3.625 9.5c1.646 3.86 3.68 7.003 6.24 9.389 1.828 1.704 4.01 3.097 6.51 4.214a58.658 58.658 0 0 0 6.432 2.387c2.195.676 4.431 1.287 6.723 1.837 2.015.484 4.026.99 6.052 1.52 1.788.468 3.455.964 4.999 1.488 1.073.365 1.91.741 2.53 1.105.285.19.561.384.826.594.358.282.727.599 1.104.951.938.875 1.95 1.93 3.03 3.167a1500.331 1500.331 0 0 0 6.261 7.125c.68.772 1.004 1.139 1.36 1.54l.234.266a65.22 65.22 0 0 0 4.546 4.702 45.49 45.49 0 0 0 3.878 3.26c1.663 1.234 3.409 2.172 5.247 2.81l-.003.007c.094.035.19.062.284.096.038.013.075.03.112.042l.002-.003c3.245 1.132 6.883 1.512 10.919 1.236a121.27 121.27 0 0 0 10.128-1.117c3.235-.488 6.324-.925 9.284-1.312 2.238-.297 3.95-.312 5.101-.116.678.127 1.701.438 2.908.922a71.28 71.28 0 0 1 4.853 2.18c1.854.916 3.729 1.868 5.61 2.847a95.172 95.172 0 0 0 6.387 3.049 57.679 57.679 0 0 0 6.487 2.369c2.618.77 5.138 1.14 7.58 1.054 2.432-.083 4.923-.625 7.477-1.572a52.563 52.563 0 0 0 6.39-2.91 151.055 151.055 0 0 0 5.951-3.368 379.971 379.971 0 0 1 5.47-3.215 101.649 101.649 0 0 1 4.824-2.628c1.09-.557 1.97-.896 2.624-1.053.628-.147 1.595-.245 2.822-.246a89.43 89.43 0 0 1 5.442.16c1.95.115 4.012.27 6.205.468 2.41.217 4.772.349 7.09.4 2.441.055 4.761-.026 6.962-.247 2.567-.261 4.895-.846 7.005-1.777l.003.009c.11-.044.218-.102.328-.148.072-.034.149-.059.221-.093l-.003-.006a19.72 19.72 0 0 0 4.836-3.062 46.463 46.463 0 0 0 3.666-3.545 67.133 67.133 0 0 0 4.15-4.938c1.195-1.572 2.4-3.147 3.63-4.75.43-.568 2.905-3.818 3.621-4.769a45.222 45.222 0 0 1 2.82-3.382c.36-.388.701-.725 1.013-1.008.262-.237.485-.42.687-.576 1.027-.696 2.627-1.466 4.79-2.234 2.794-.987 5.75-1.988 8.855-3.002a118.908 118.908 0 0 0 9.608-3.584c3.855-1.637 7.028-3.696 9.45-6.292 2.39-2.565 4.196-5.844 5.562-9.812a118.144 118.144 0 0 0 2.905-9.826c.82-3.279 1.598-6.267 2.36-9.051.606-2.217 1.272-3.88 1.93-4.97.055-.084.247-.353.488-.66.278-.353.591-.715.955-1.105.872-.936 1.926-1.947 3.176-3.042.918-.794 4.185-3.658 4.395-3.843 1.491-1.32 2.968-2.623 4.517-3.982a67.827 67.827 0 0 0 4.715-4.564 46.958 46.958 0 0 0 3.25-3.861c1.247-1.695 2.18-3.436 2.815-5.262l.008.003c.022-.06.038-.125.06-.187.023-.069.054-.135.075-.205l-.009-.002c.777-2.224 1.195-4.631 1.273-7.226.071-2.157-.009-4.46-.234-6.897a120.828 120.828 0 0 0-.846-6.876c-.323-2.112-.629-4.212-.92-6.324a73.874 73.874 0 0 1-.56-5.338c-.086-1.263-.057-2.227.053-2.91.19-1.086.778-2.75 1.794-4.812a913.929 913.929 0 0 1 4.237-8.496c1.622-3.252 3.02-6.333 4.225-9.328 1.558-3.857 2.339-7.533 2.221-11.046" fill="#D2D2D2"/><ellipse fill="#2167BA" cx="374.026" cy="129.841" rx="69.502" ry="69.502"/><path d="M374.089 170.8c-15.799-.066-28.565-11.867-30.511-27.221-.078-.616-.19-1.257-.287-1.905 0-.019.003-.037.003-.056v-14.514h62.211l.112 13.919c-.708 16.65-14.547 29.847-31.528 29.777m37.53-34.247l.091-12.374a3.14 3.14 0 0 0-.042-.493 3.125 3.125 0 0 0-3.1-2.81h-65.537v-.039c.067-17.22 14.165-31.067 31.559-30.994 13.8.057 25.467 9.143 29.494 21.675a3.114 3.114 0 1 0 5.8-1.88c-4.569-15.5-18.711-26.158-35.648-26.132-20.545.032-37.283 16.951-37.278 37.683 0 .825.029 1.643.082 2.455h.025v15.734c0 .06-.003.119-.003.179 0 .065.003.13.003.196v1.865c0 .283.041.556.112.816.024.315.052.629.085.942 1.948 18.936 17.924 33.79 37.181 33.76 20.545-.031 37.283-16.95 37.278-37.683 0-1.016-.035-1.974-.102-2.9" fill="#FFF"/><path d="M374.479 151.99a3.353 3.353 0 0 1-3.33-3.368 3.35 3.35 0 0 1 3.363-3.336 3.351 3.351 0 0 1 3.357 3.377c-.008 1.849-1.522 3.335-3.39 3.328m-.132-12.884a9.587 9.587 0 0 0-9.588 9.62c.008 4.216 2.756 7.807 6.543 9.084v3.755a3.123 3.123 0 0 0 3.114 3.114 3.123 3.123 0 0 0 3.115-3.114v-3.807c3.716-1.324 6.39-4.888 6.389-9.058-.002-5.295-4.3-9.602-9.573-9.594" fill="#FFF"/></g></svg>